<?xml version="1.0" encoding="utf-8"?>
<!-- Generator: Adobe Illustrator 24.3.0, SVG Export Plug-In . SVG Version: 6.00 Build 0)  -->
<svg version="1.1" id="Layer_1" xmlns="http://www.w3.org/2000/svg" xmlns:xlink="http://www.w3.org/1999/xlink" x="0px" y="0px"
	 viewBox="0 0 1080 266.7" style="enable-background:new 0 0 1080 266.7;" xml:space="preserve">
<style type="text/css">
	.st0{fill:#0B8040;}
	.st1{fill:#FCFDFF;}
	.st2{fill:#A0CC3A;}
</style>
<g>
	<g>
		<g>
			<line class="st0" x1="535.2" y1="123.2" x2="524.2" y2="143.1"/>
		</g>
	</g>
	<g>
		<g>
			<path class="st1" d="M319.1,205.6h-27.8V169h26.9v4.3h-22v11.2h20.6v4.3h-20.6v12.4h22.9V205.6z"/>
		</g>
		<g>
			<path class="st1" d="M347.5,205.6h-5.9l-6.7-10.3l-6.7,10.3h-5.9l10-13.8l-9.2-12.7h5.9l5.9,9.3l5.9-9.3h5.9l-9.2,12.7
				L347.5,205.6z"/>
		</g>
		<g>
			<path class="st1" d="M356.2,182.3c2.1-2.5,4.7-3.8,7.7-3.8c3.5,0,6.3,1.2,8.2,3.7c1.9,2.5,2.9,5.8,2.9,10c0,4.3-1.1,7.8-3.2,10.3
				c-2.2,2.5-4.9,3.8-8.2,3.8c-2.9,0-5.4-0.9-7.4-2.7v12.2h-4.8v-36.7h4.8V182.3z M356.2,199.3c2.1,2.1,4.4,3.2,7.1,3.2
				c2.1,0,3.7-0.9,4.9-2.6c1.2-1.7,1.8-4.3,1.8-7.8c0-3.3-0.6-5.7-1.7-7.4c-1.2-1.7-2.8-2.5-4.8-2.5c-2.7,0-5.1,1.5-7.3,4.5V199.3z"
				/>
		</g>
		<g>
			<path class="st1" d="M397.5,202.9c-2.4,2.2-5.6,3.3-9.4,3.3c-2.7,0-4.9-0.7-6.6-2.1c-1.7-1.4-2.6-3.3-2.6-5.5
				c0-6.2,5.4-9.3,16.3-9.3h2.3c0-1.9-0.1-3.3-0.3-4.1c-0.2-0.9-0.8-1.6-1.7-2.1c-0.9-0.6-2.4-0.8-4.4-0.8c-4.3,0-6.5,1.5-6.6,4.5
				h-4.8c0.4-5.4,4.2-8.2,11.6-8.2c3.5,0,6.2,0.7,8.1,2c1.9,1.3,2.9,4,2.9,7.9v17.1h-4.8V202.9z M397.5,198.7v-5.9h-3.3
				c-6.9,0-10.4,1.9-10.4,5.6c0,1.3,0.5,2.4,1.5,3.1s2.4,1.1,4.1,1.1c1.6,0,3.1-0.3,4.6-1C395.5,200.8,396.6,199.9,397.5,198.7z"/>
		</g>
		<g>
			<path class="st1" d="M414.1,182.5c2.4-2.6,5.1-4,8.1-4c6.1,0,9.1,3.3,9.1,9.8v17.3h-4.8v-17.1c0-2.2-0.4-3.7-1.2-4.7
				c-0.8-0.9-2.1-1.4-3.9-1.4c-2.4,0-4.9,1.4-7.3,4.2v19h-4.8v-26.5h4.8V182.5z"/>
		</g>
		<g>
			<path class="st1" d="M455.4,202.5c-2.1,2.5-4.7,3.8-7.7,3.8c-3.5,0-6.3-1.2-8.2-3.7c-1.9-2.5-2.9-5.8-2.9-10
				c0-4.3,1.1-7.8,3.2-10.3c2.2-2.5,4.9-3.8,8.1-3.8c2.9,0,5.4,0.9,7.4,2.6V169h4.8v36.6h-4.8V202.5z M455.4,198v-12.6
				c-2.1-2.1-4.4-3.2-7.1-3.2c-2.1,0-3.7,0.9-4.9,2.6c-1.2,1.7-1.8,4.3-1.8,7.8c0,3.3,0.6,5.7,1.7,7.4c1.2,1.7,2.8,2.5,4.8,2.5
				C450.8,202.6,453.2,201.1,455.4,198z"/>
		</g>
		<g>
			<path class="st1" d="M472.1,174.1h-4.8V169h4.8V174.1z M472.1,205.6h-4.8v-26.5h4.8V205.6z"/>
		</g>
		<g>
			<path class="st1" d="M483.9,182.5c2.4-2.6,5.1-4,8.1-4c6.1,0,9.1,3.3,9.1,9.8v17.3h-4.8v-17.1c0-2.2-0.4-3.7-1.2-4.7
				c-0.8-0.9-2.1-1.4-3.9-1.4c-2.4,0-4.9,1.4-7.3,4.2v19h-4.8v-26.5h4.8V182.5z"/>
		</g>
		<g>
			<path class="st1" d="M529.9,203.6c0,8.5-3.9,12.8-11.7,12.8c-3.4,0-6.1-0.7-8-2.2c-2-1.4-2.9-3.4-2.9-5.8h5c0,2.9,2,4.3,5.9,4.3
				c2.2,0,4-0.6,5.2-1.8c1.2-1.2,1.8-3.6,1.8-7.1v-1.3c-2.1,2.5-4.7,3.8-7.7,3.8c-3.5,0-6.3-1.2-8.2-3.7c-1.9-2.5-2.9-5.8-2.9-10
				c0-4.3,1.1-7.8,3.2-10.3c2.2-2.5,4.9-3.8,8.1-3.8c2.9,0,5.4,0.9,7.4,2.6v-2h4.8V203.6z M525.2,198v-12.6
				c-2.1-2.1-4.4-3.2-7.1-3.2c-2.1,0-3.7,0.9-4.9,2.6c-1.2,1.7-1.8,4.3-1.8,7.8c0,3.3,0.6,5.7,1.7,7.4c1.2,1.7,2.8,2.5,4.8,2.5
				C520.5,202.6,523,201.1,525.2,198z"/>
		</g>
		<g>
			<path class="st1" d="M551.5,169h13.9c3.1,0,5.6,0.3,7.7,0.8c2.1,0.6,3.7,1.8,4.9,3.6c1.2,1.9,1.8,3.9,1.8,6.2
				c0,3.7-1.2,6.5-3.6,8.4c-2.4,1.9-5.8,2.9-10.4,2.9h-9.4v14.6h-4.9V169z M556.4,186.7h9.4c3.2,0,5.4-0.6,6.8-1.7
				c1.3-1.2,2-2.8,2-5c0-1.5-0.4-2.8-1.1-3.9c-0.7-1.1-1.7-1.8-2.8-2.1c-1.1-0.3-2.8-0.4-4.9-0.4h-9.3V186.7z"/>
		</g>
		<g>
			<path class="st1" d="M596.5,178.5c3.8,0,6.9,1.2,9.2,3.6c2.3,2.4,3.4,5.8,3.4,10.2c0,4.4-1.1,7.8-3.4,10.2
				c-2.3,2.4-5.4,3.6-9.2,3.6c-3.8,0-6.9-1.2-9.2-3.6c-2.3-2.4-3.4-5.8-3.4-10.2c0-4.4,1.1-7.8,3.4-10.2
				C589.6,179.7,592.7,178.5,596.5,178.5z M596.5,202.6c2.3,0,4.1-0.9,5.6-2.6c1.4-1.7,2.1-4.2,2.1-7.6c0-3.4-0.7-5.9-2.1-7.6
				c-1.4-1.7-3.3-2.6-5.6-2.6c-2.3,0-4.1,0.9-5.6,2.6c-1.4,1.7-2.1,4.3-2.1,7.6c0,3.4,0.7,5.9,2.1,7.6
				C592.4,201.7,594.2,202.6,596.5,202.6z"/>
		</g>
		<g>
			<path class="st1" d="M624.2,206.3c-7.4,0-11.2-2.8-11.6-8.5h4.8c0,3.2,2.3,4.8,6.7,4.8c2,0,3.5-0.4,4.5-1.2c1-0.8,1.6-1.8,1.6-3
				c0-1.2-0.5-2-1.5-2.5c-1-0.5-3.1-1.1-6.3-1.9c-3.2-0.8-5.5-1.7-7-2.6c-1.5-1-2.2-2.7-2.2-5.1c0-2.2,0.9-4,2.7-5.5
				c1.8-1.4,4.3-2.2,7.3-2.2c7.1,0,10.7,2.5,10.8,7.4h-4.8c-0.2-2.5-2.1-3.7-5.7-3.7c-1.6,0-2.9,0.3-4,0.9c-1.1,0.6-1.6,1.5-1.6,2.6
				c0,1,0.4,1.8,1.2,2.2c0.8,0.5,2.9,1.1,6.1,1.8c3.3,0.8,5.7,1.7,7.3,2.7c1.6,1,2.4,2.8,2.4,5.3c0,2.4-1,4.4-2.9,6
				C630.1,205.5,627.5,206.3,624.2,206.3z"/>
		</g>
		<g>
			<path class="st1" d="M650.2,206.3c-7.4,0-11.2-2.8-11.6-8.5h4.8c0,3.2,2.3,4.8,6.7,4.8c2,0,3.5-0.4,4.5-1.2c1-0.8,1.6-1.8,1.6-3
				c0-1.2-0.5-2-1.5-2.5c-1-0.5-3.1-1.1-6.3-1.9c-3.2-0.8-5.5-1.7-7-2.6c-1.5-1-2.2-2.7-2.2-5.1c0-2.2,0.9-4,2.7-5.5
				c1.8-1.4,4.3-2.2,7.3-2.2c7.1,0,10.7,2.5,10.8,7.4h-4.8c-0.2-2.5-2.1-3.7-5.7-3.7c-1.6,0-2.9,0.3-4,0.9c-1.1,0.6-1.6,1.5-1.6,2.6
				c0,1,0.4,1.8,1.2,2.2c0.8,0.5,2.9,1.1,6.1,1.8c3.3,0.8,5.7,1.7,7.3,2.7c1.6,1,2.4,2.8,2.4,5.3c0,2.4-1,4.4-2.9,6
				C656.2,205.5,653.5,206.3,650.2,206.3z"/>
		</g>
		<g>
			<path class="st1" d="M671.4,174.1h-4.8V169h4.8V174.1z M671.4,205.6h-4.8v-26.5h4.8V205.6z"/>
		</g>
		<g>
			<path class="st1" d="M683.3,182.3c2.1-2.5,4.7-3.8,7.7-3.8c3.5,0,6.3,1.2,8.2,3.7c1.9,2.5,2.9,5.8,2.9,10c0,4.3-1.1,7.8-3.2,10.3
				c-2.2,2.5-4.9,3.8-8.2,3.8c-2.9,0-5.4-0.9-7.4-2.7v2h-4.8V169h4.8V182.3z M683.3,199.3c2.1,2.1,4.4,3.2,7.1,3.2
				c2.1,0,3.7-0.9,4.9-2.6c1.2-1.7,1.8-4.3,1.8-7.8c0-3.3-0.6-5.7-1.7-7.4c-1.2-1.7-2.8-2.5-4.8-2.5c-2.7,0-5.1,1.5-7.3,4.5V199.3z"
				/>
		</g>
		<g>
			<path class="st1" d="M712.3,174.1h-4.8V169h4.8V174.1z M712.3,205.6h-4.8v-26.5h4.8V205.6z"/>
		</g>
		<g>
			<path class="st1" d="M724.1,205.6h-4.8V169h4.8V205.6z"/>
		</g>
		<g>
			<path class="st1" d="M736,174.1h-4.8V169h4.8V174.1z M736,205.6h-4.8v-26.5h4.8V205.6z"/>
		</g>
		<g>
			<path class="st1" d="M753.6,205.7c-1.1,0.2-2.2,0.3-3.4,0.3c-2,0-3.4-0.3-4.3-1c-0.9-0.7-1.5-1.6-1.7-2.7
				c-0.2-1.1-0.3-2.6-0.3-4.4v-15h-3.3v-3.7h3.3v-6.6h4.8v6.6h4.4v3.7h-4.4v15.3c0,1.8,0.2,3,0.7,3.5c0.5,0.5,1.1,0.7,1.9,0.7
				c0.8,0,1.6-0.1,2.4-0.2V205.7z"/>
		</g>
		<g>
			<path class="st1" d="M762.4,174.1h-4.8V169h4.8V174.1z M762.4,205.6h-4.8v-26.5h4.8V205.6z"/>
		</g>
		<g>
			<path class="st1" d="M780.9,206.3c-4,0-7.2-1.2-9.6-3.7c-2.4-2.4-3.6-5.8-3.6-10.2c0-4.3,1.2-7.7,3.5-10.2
				c2.3-2.5,5.4-3.7,9.1-3.7c3.8,0,6.9,1.2,9.2,3.6c2.3,2.4,3.4,5.8,3.4,10.2v1.1h-20.3c0.2,3.1,1.1,5.3,2.6,6.8
				c1.5,1.5,3.4,2.2,5.6,2.2c1.7,0,3.2-0.4,4.5-1.3c1.3-0.8,2.1-2,2.1-3.6h5c-0.4,2.7-1.6,4.8-3.8,6.3
				C786.6,205.5,784,206.3,780.9,206.3z M788,189.8c-0.4-2.5-1.3-4.5-2.6-5.7c-1.4-1.3-3-1.9-5-1.9c-1.9,0-3.6,0.6-4.9,1.9
				c-1.4,1.3-2.2,3.2-2.6,5.7H788z"/>
		</g>
		<g>
			<path class="st1" d="M808,206.3c-7.4,0-11.2-2.8-11.6-8.5h4.8c0,3.2,2.3,4.8,6.7,4.8c2,0,3.5-0.4,4.5-1.2c1-0.8,1.6-1.8,1.6-3
				c0-1.2-0.5-2-1.5-2.5c-1-0.5-3.1-1.1-6.3-1.9c-3.2-0.8-5.5-1.7-7-2.6c-1.5-1-2.2-2.7-2.2-5.1c0-2.2,0.9-4,2.7-5.5
				c1.8-1.4,4.3-2.2,7.3-2.2c7.1,0,10.7,2.5,10.8,7.4h-4.8c-0.2-2.5-2.1-3.7-5.7-3.7c-1.6,0-2.9,0.3-4,0.9c-1.1,0.6-1.6,1.5-1.6,2.6
				c0,1,0.4,1.8,1.2,2.2c0.8,0.5,2.9,1.1,6.1,1.8c3.3,0.8,5.7,1.7,7.3,2.7c1.6,1,2.4,2.8,2.4,5.3c0,2.4-1,4.4-2.9,6
				C814,205.5,811.3,206.3,808,206.3z"/>
		</g>
	</g>
	<g>
		<g>
			<line class="st0" x1="539.7" y1="121.6" x2="528.7" y2="141.4"/>
		</g>
	</g>
	<g>
		<g>
			<line class="st0" x1="518.2" y1="71" x2="500.8" y2="71"/>
		</g>
	</g>
	<g>
		<g>
			<line class="st0" x1="522.7" y1="69.4" x2="505.3" y2="69.4"/>
		</g>
	</g>
	<g>
		<g>
			<g>
				<path class="st2" d="M314.3,69.5c0,0-3.2,8.3,3.4,16.6c6.7,8.3,16.7,24.3,13.7,36.4c-3.1,12.1-6.3,19.6-38,17.6v-17.5l13.1,0.7
					c0,0,12.1,0,7.4-12.4c-4.7-12.4-21.4-23.9-15.8-41.4H314.3z"/>
			</g>
		</g>
		<g>
			<g>
				<path class="st2" d="M368.8,67.8c-16.5,0-29.8,16.6-29.8,37s13.3,37,29.8,37c16.5,0,29.8-16.6,29.8-37S385.2,67.8,368.8,67.8z
					 M368.8,120.3c-6.9,0-12.5-7-12.5-15.5s5.6-15.5,12.5-15.5c6.9,0,12.5,7,12.5,15.5S375.7,120.3,368.8,120.3z"/>
			</g>
		</g>
		<g>
			<g>
				<rect x="408" y="69.4" class="st2" width="42.3" height="17.8"/>
			</g>
		</g>
		<g>
			<g>
				<rect x="459.7" y="69.4" class="st2" width="37.1" height="17.8"/>
			</g>
		</g>
		<g>
			<g>
				<path class="st2" d="M494.6,123.2v16.5h-21.9c-7.6-0.8-10.9-6.3-10.9-15.3V95.8h16.5v23.1c0,2.4,1.9,4.3,4.3,4.3H494.6z"/>
			</g>
		</g>
		<g>
			<g>
				<polygon class="st2" points="408,95.8 408,113.7 408,139.7 425.8,139.7 425.8,113.7 450.3,113.7 450.3,95.8 425.8,95.8 				"/>
			</g>
		</g>
		<g>
			<g>
				<rect x="929.2" y="70.2" class="st2" width="42.3" height="17.8"/>
			</g>
		</g>
		<g>
			<g>
				<rect x="980.9" y="70.2" class="st2" width="37.1" height="17.8"/>
			</g>
		</g>
		<g>
			<g>
				<path class="st2" d="M1015.8,124v16.5h-21.9c-7.6-0.8-10.9-6.3-10.9-15.3V96.7h16.5v23.1c0,2.4,1.9,4.3,4.3,4.3H1015.8z"/>
			</g>
		</g>
		<g>
			<g>
				<polygon class="st2" points="929.2,96.7 929.2,114.5 929.2,140.6 947,140.6 947,114.5 971.5,114.5 971.5,96.7 947,96.7 				"/>
			</g>
		</g>
		<g>
			<g>
				<polygon class="st2" points="539.7,121.6 528.7,141.4 505.3,69.4 522.7,69.4 				"/>
			</g>
		</g>
		<g>
			<g>
				<polygon class="st2" points="576.3,69.4 559.1,116.8 550.8,139.4 543.5,116.9 543.5,116.9 533.8,87 544,70.4 551.8,94.4 
					560.9,69.4 				"/>
			</g>
		</g>
		<g>
			<g>
				<polygon class="st2" points="625.7,140.6 608.3,140.6 583.5,140.6 567.3,140.6 571.9,123.8 579.2,96.4 595.3,96.4 588,123.8 
					603.8,123.8 596.4,96.4 595.9,94.4 589.2,69.4 606.6,69.4 621.2,123.8 				"/>
			</g>
		</g>
		<g>
			<g>
				<polygon class="st2" points="920.2,141 902.8,141 878.1,141 861.9,141 866.4,124.2 873.7,96.8 889.9,96.8 882.6,124.2 
					898.3,124.2 891,96.8 890.4,94.8 883.7,69.8 901.1,69.8 915.7,124.2 				"/>
			</g>
		</g>
		<g>
			<g>
				<path class="st2" d="M677.9,87.4c-0.1-9.9-8.1-17.9-18-17.9h-28.3c0,0,0,0,0,0v18c0,0,0,0,0,0h23.6c0,0,0,0,0,0
					c2,0.5,3.4,2.2,3.4,4.3c0,2.4-2.1,4.3-4.5,4.3l-22.5,0c0,0,0,0,0,0v17.2c0,0,0,0,0,0h19.8c1.9,0,3.4,1.5,3.4,3.4v23.9
					c0,0,0,0,0,0H672c0,0,0,0,0,0v-22.4c0-1.7-0.3-3.3-0.8-4.9c-1.3-3.6-3.9-6.6-7.3-8.4c0,0,0,0,0,0c5.1-1.1,9.3-4.4,11.8-8.8
					C677.2,93.5,678,90.6,677.9,87.4L677.9,87.4z"/>
			</g>
		</g>
		<g>
			<g>
				<path class="st2" d="M860.5,87.7c-0.1-9.9-8.1-17.9-18-17.9h-28.3c0,0,0,0,0,0v18c0,0,0,0,0,0h23.6c0,0,0,0,0,0
					c2,0.5,3.4,2.2,3.4,4.3c0,2.4-2.1,4.3-4.5,4.3h-22.5c0,0,0,0,0,0v17.2c0,0,0,0,0,0H834c1.9,0,3.4,1.5,3.4,3.4v23.9c0,0,0,0,0,0
					h17.2c0,0,0,0,0,0v-22.4c0-1.7-0.3-3.3-0.8-4.9c-1.3-3.6-3.9-6.6-7.3-8.4c0,0,0,0,0,0c5.1-1.1,9.3-4.4,11.8-8.8
					C859.7,93.9,860.6,90.9,860.5,87.7L860.5,87.7z"/>
			</g>
		</g>
		<g>
			<g>
				<rect x="688.2" y="69.4" class="st2" width="41.1" height="17.3"/>
			</g>
		</g>
		<g>
			<g>
				<polygon class="st2" points="729.2,113 729.2,95.7 705.5,95.7 688.2,95.7 688.2,113 688.2,122.1 688.2,139.4 705.5,139.4 
					729.2,139.4 729.2,122.1 705.5,122.1 705.5,113 				"/>
			</g>
		</g>
		<g>
			<g>
				<path class="st2" d="M783.2,104.9c0,9.5,7.7,17.3,17.3,17.3h6.4v17.5c-2.4,0.5-4.9,0.8-7.4,0.8c-19.6,0-35.5-15.9-35.5-35.5
					s15.9-35.5,35.5-35.5c2.5,0,5,0.3,7.4,0.8v17.5h-6.4C790.9,87.6,783.2,95.3,783.2,104.9z"/>
			</g>
		</g>
	</g>
	<g>
		<g>
			<g>
				<g>
					<path class="st0" d="M863.3,192.4v12.9h-4v-34.2h9.4c3.7,0,6.5,0.9,8.5,2.7c2,1.8,3,4.3,3,7.5c0,3.2-1.1,5.9-3.3,8
						c-2.2,2.1-5.2,3.1-9,3.1H863.3z M863.3,174.8v14h4.2c2.8,0,4.9-0.6,6.3-1.9c1.5-1.3,2.2-3,2.2-5.3c0-4.5-2.7-6.8-8-6.8H863.3z"
						/>
				</g>
			</g>
			<g>
				<g>
					<path class="st0" d="M905.2,180.9l-9.7,24.4h-3.8l-9.2-24.4h4.3l6.2,17.7c0.5,1.3,0.7,2.4,0.9,3.4h0.1c0.2-1.2,0.4-2.3,0.8-3.3
						l6.5-17.8H905.2z"/>
				</g>
			</g>
			<g>
				<g>
					<path class="st0" d="M920.7,205.1c-0.9,0.5-2.1,0.8-3.6,0.8c-4.3,0-6.4-2.4-6.4-7.1v-14.4h-4.2v-3.3h4.2v-6l3.9-1.3v7.2h6.1
						v3.3h-6.1V198c0,1.6,0.3,2.8,0.8,3.5c0.6,0.7,1.5,1,2.8,1c1,0,1.8-0.3,2.5-0.8V205.1z"/>
				</g>
			</g>
			<g>
				<g>
					<path class="st0" d="M927.3,205.9c-0.7,0-1.4-0.3-1.9-0.8c-0.5-0.5-0.8-1.2-0.8-1.9c0-0.7,0.3-1.4,0.8-1.9
						c0.5-0.5,1.1-0.8,1.9-0.8c0.7,0,1.4,0.3,1.9,0.8c0.5,0.5,0.8,1.2,0.8,1.9c0,0.7-0.3,1.4-0.8,1.9
						C928.7,205.6,928.1,205.9,927.3,205.9z"/>
				</g>
			</g>
			<g>
				<g>
					<path class="st0" d="M968.2,205.3h-17.7v-34.2h4v30.5h13.7V205.3z"/>
				</g>
			</g>
			<g>
				<g>
					<path class="st0" d="M984.2,205.1c-0.9,0.5-2.1,0.8-3.6,0.8c-4.3,0-6.4-2.4-6.4-7.1v-14.4h-4.2v-3.3h4.2v-6l3.9-1.3v7.2h6.1
						v3.3H978V198c0,1.6,0.3,2.8,0.8,3.5c0.6,0.7,1.5,1,2.8,1c1,0,1.8-0.3,2.5-0.8V205.1z"/>
				</g>
			</g>
			<g>
				<g>
					<path class="st0" d="M1010.2,205.3h-3.9v-4.1h-0.1c-1.8,3.1-4.6,4.7-8.4,4.7c-3.1,0-5.5-1.1-7.3-3.3c-1.8-2.2-2.8-5.2-2.8-8.9
						c0-4,1-7.3,3-9.7c2-2.4,4.7-3.6,8.1-3.6c3.4,0,5.8,1.3,7.3,4h0.1v-15.1h3.9V205.3z M1006.3,194.3v-3.6c0-2-0.7-3.6-2-5
						c-1.3-1.4-3-2-5-2c-2.4,0-4.3,0.9-5.6,2.6c-1.4,1.7-2,4.2-2,7.2c0,2.8,0.7,5,2,6.7c1.3,1.6,3.1,2.4,5.3,2.4
						c2.2,0,3.9-0.8,5.3-2.4C1005.6,198.7,1006.3,196.7,1006.3,194.3z"/>
				</g>
			</g>
		</g>
		<g>
			<g>
				<g>
					<path class="st2" d="M865.7,191.3v12.9h-4V170h9.4c3.7,0,6.5,0.9,8.5,2.7c2,1.8,3,4.3,3,7.5c0,3.2-1.1,5.9-3.3,8
						c-2.2,2.1-5.2,3.1-9,3.1H865.7z M865.7,173.6v14h4.2c2.8,0,4.9-0.6,6.3-1.9c1.5-1.3,2.2-3,2.2-5.3c0-4.5-2.7-6.8-8-6.8H865.7z"
						/>
				</g>
				<g>
					<path class="st2" d="M866.4,204.8h-5.3v-35.5h10c3.8,0,6.8,1,8.9,2.8c2.1,1.9,3.2,4.6,3.2,8c0,3.4-1.2,6.3-3.6,8.4
						c-2.3,2.2-5.5,3.3-9.5,3.3h-3.8V204.8z M862.4,203.5h2.7v-12.9h5.2c3.6,0,6.5-1,8.6-2.9c2.1-2,3.1-4.4,3.1-7.5
						c0-3.1-0.9-5.4-2.8-7c-1.9-1.7-4.6-2.5-8.1-2.5h-8.7V203.5z M869.9,188.3h-4.9V173h5.4c7.2,0,8.7,4,8.7,7.4
						c0,2.5-0.8,4.5-2.4,5.8C875.1,187.6,872.8,188.3,869.9,188.3z M866.4,187h3.5c2.6,0,4.6-0.6,5.9-1.7c1.3-1.1,2-2.7,2-4.8
						c0-4.1-2.4-6.1-7.3-6.1h-4V187z"/>
				</g>
			</g>
			<g>
				<g>
					<path class="st2" d="M907.7,179.8l-9.7,24.4h-3.8l-9.2-24.4h4.3l6.2,17.7c0.5,1.3,0.7,2.4,0.9,3.4h0.1c0.2-1.2,0.4-2.3,0.8-3.3
						l6.5-17.8H907.7z"/>
				</g>
				<g>
					<path class="st2" d="M898.4,204.8h-4.7l-9.7-25.7h5.7l6.3,18.2c0.1,0.3,0.2,0.5,0.3,0.8c0.1-0.2,0.1-0.4,0.2-0.7l6.6-18.3h5.6
						L898.4,204.8z M894.6,203.5h2.9l9.2-23.1H904l-6.3,17.4c-0.3,0.9-0.6,2-0.7,3.2l-0.1,0.6h-1.3l-0.1-0.6c-0.1-0.9-0.4-2-0.8-3.3
						l-6-17.3h-2.9L894.6,203.5z"/>
				</g>
			</g>
			<g>
				<g>
					<path class="st2" d="M923.2,203.9c-0.9,0.5-2.1,0.8-3.6,0.8c-4.3,0-6.4-2.4-6.4-7.1v-14.4H909v-3.3h4.2v-6l3.9-1.3v7.2h6.1v3.3
						h-6.1v13.7c0,1.6,0.3,2.8,0.8,3.5c0.6,0.7,1.5,1,2.8,1c1,0,1.8-0.3,2.5-0.8V203.9z"/>
				</g>
				<g>
					<path class="st2" d="M919.6,205.4c-3.2,0-7.1-1.4-7.1-7.8v-13.8h-4.2v-4.7h4.2v-5.8l5.2-1.7v7.5h6.1v4.7h-6.1v13.1
						c0,1.5,0.2,2.5,0.7,3.1c0.4,0.5,1.2,0.8,2.2,0.8c0.8,0,1.5-0.2,2.1-0.7l1.1-0.8v5.1l-0.3,0.2
						C922.5,205.1,921.2,205.4,919.6,205.4z M909.6,182.5h4.2v15.1c0,4.4,1.8,6.5,5.7,6.5c1.2,0,2.2-0.2,3-0.5v-1.8
						c-0.6,0.2-1.2,0.3-1.9,0.3c-1.5,0-2.6-0.4-3.3-1.3c-0.7-0.8-1-2.1-1-3.9v-14.4h6.1v-2h-6.1v-7l-2.6,0.8v6.1h-4.2V182.5z"/>
				</g>
			</g>
			<g>
				<g>
					<path class="st2" d="M929.8,204.7c-0.7,0-1.4-0.3-1.9-0.8c-0.5-0.5-0.8-1.2-0.8-1.9c0-0.7,0.3-1.4,0.8-1.9
						c0.5-0.5,1.1-0.8,1.9-0.8c0.7,0,1.4,0.3,1.9,0.8c0.5,0.5,0.8,1.2,0.8,1.9c0,0.7-0.3,1.4-0.8,1.9
						C931.2,204.4,930.5,204.7,929.8,204.7z"/>
				</g>
				<g>
					<path class="st2" d="M929.8,205.4c-0.9,0-1.7-0.3-2.3-1c-0.6-0.7-1-1.4-1-2.3c0-0.9,0.3-1.7,1-2.4c0.6-0.7,1.4-1,2.3-1
						c0.9,0,1.7,0.3,2.4,1c0.6,0.7,1,1.5,1,2.4c0,0.9-0.3,1.7-1,2.3C931.5,205,930.7,205.4,929.8,205.4z M929.8,200
						c-0.5,0-1,0.2-1.4,0.6c-0.4,0.4-0.6,0.9-0.6,1.4c0,0.6,0.2,1,0.6,1.4c0.4,0.4,0.8,0.6,1.4,0.6c0.6,0,1-0.2,1.4-0.6
						c0.4-0.4,0.6-0.9,0.6-1.4c0-0.6-0.2-1-0.6-1.4C930.8,200.2,930.4,200,929.8,200z"/>
				</g>
			</g>
			<g>
				<g>
					<path class="st2" d="M970.6,204.2h-17.7V170h4v30.5h13.7V204.2z"/>
				</g>
				<g>
					<path class="st2" d="M971.3,204.8h-19v-35.5h5.3v30.5h13.7V204.8z M953.6,203.5H970v-2.3h-13.7v-30.5h-2.7V203.5z"/>
				</g>
			</g>
			<g>
				<g>
					<path class="st2" d="M986.7,203.9c-0.9,0.5-2.1,0.8-3.6,0.8c-4.3,0-6.4-2.4-6.4-7.1v-14.4h-4.2v-3.3h4.2v-6l3.9-1.3v7.2h6.1
						v3.3h-6.1v13.7c0,1.6,0.3,2.8,0.8,3.5c0.6,0.7,1.5,1,2.8,1c1,0,1.8-0.3,2.5-0.8V203.9z"/>
				</g>
				<g>
					<path class="st2" d="M983,205.4c-3.2,0-7.1-1.4-7.1-7.8v-13.8h-4.2v-4.7h4.2v-5.8l5.2-1.7v7.5h6.1v4.7h-6.1v13.1
						c0,1.5,0.2,2.5,0.7,3.1c0.4,0.5,1.2,0.8,2.2,0.8c0.8,0,1.5-0.2,2.2-0.7l1.1-0.8v5.1l-0.3,0.2C986,205.1,984.6,205.4,983,205.4z
						 M973.1,182.5h4.2v15.1c0,4.4,1.8,6.5,5.7,6.5c1.2,0,2.2-0.2,3-0.5v-1.8c-0.6,0.2-1.2,0.3-1.9,0.3c-1.5,0-2.6-0.4-3.3-1.3
						c-0.7-0.8-1-2.1-1-3.9v-14.4h6.1v-2h-6.1v-7l-2.6,0.8v6.1h-4.2V182.5z"/>
				</g>
			</g>
			<g>
				<g>
					<path class="st2" d="M1012.7,204.2h-3.9V200h-0.1c-1.8,3.1-4.6,4.7-8.4,4.7c-3.1,0-5.5-1.1-7.3-3.3c-1.8-2.2-2.8-5.2-2.8-8.9
						c0-4,1-7.3,3-9.7c2-2.4,4.7-3.6,8.1-3.6c3.4,0,5.8,1.3,7.3,4h0.1v-15.1h3.9V204.2z M1008.8,193.1v-3.6c0-2-0.7-3.6-2-5
						c-1.3-1.4-3-2-5-2c-2.4,0-4.3,0.9-5.6,2.6c-1.4,1.7-2,4.2-2,7.2c0,2.8,0.7,5,2,6.7c1.3,1.6,3.1,2.4,5.3,2.4
						c2.2,0,3.9-0.8,5.3-2.4C1008.1,197.5,1008.8,195.5,1008.8,193.1z"/>
				</g>
				<g>
					<path class="st2" d="M1000.3,205.4c-3.3,0-5.9-1.2-7.9-3.5c-1.9-2.3-2.9-5.4-2.9-9.3c0-4.2,1.1-7.6,3.2-10.1
						c2.2-2.6,5.1-3.9,8.6-3.9c2.9,0,5.1,0.9,6.7,2.7v-13.9h5.2v37.4h-5.2V202C1006.2,204.3,1003.6,205.4,1000.3,205.4z
						 M1001.4,179.9c-3.2,0-5.7,1.1-7.6,3.4c-1.9,2.3-2.9,5.4-2.9,9.3c0,3.6,0.9,6.4,2.6,8.5c1.7,2,4,3,6.8,3c3.6,0,6.1-1.4,7.8-4.4
						l0.2-0.3h1.1v4.1h2.6v-34.8h-2.6v15.1h-1.1l-0.2-0.3C1006.7,181.1,1004.5,179.9,1001.4,179.9z M1001.5,202.1
						c-2.4,0-4.4-0.9-5.8-2.7c-1.4-1.7-2.1-4.1-2.1-7.1c0-3.2,0.7-5.8,2.2-7.6c1.5-1.9,3.6-2.9,6.1-2.9c2.2,0,4,0.8,5.4,2.3
						c1.4,1.5,2.1,3.3,2.1,5.5v3.6c0,2.6-0.7,4.7-2.2,6.4C1005.8,201.2,1003.8,202.1,1001.5,202.1z M1001.9,183.2
						c-2.2,0-3.9,0.8-5.1,2.4c-1.3,1.6-1.9,3.9-1.9,6.8c0,2.6,0.6,4.7,1.8,6.2c1.2,1.5,2.7,2.2,4.8,2.2c2,0,3.6-0.7,4.8-2.1
						c1.2-1.4,1.9-3.3,1.9-5.5v-3.6c0-1.8-0.6-3.3-1.8-4.5C1005.2,183.8,1003.7,183.2,1001.9,183.2z"/>
				</g>
			</g>
		</g>
	</g>
	<g>
		<g>
			<g>
				<path class="st2" d="M1038.7,71.9c-8.4,0-15.1-6.8-15.1-15.1s6.8-15.1,15.1-15.1c8.4,0,15.1,6.8,15.1,15.1
					S1047,71.9,1038.7,71.9z M1038.7,44.9c-6.5,0-11.8,5.3-11.8,11.8s5.3,11.8,11.8,11.8c6.5,0,11.8-5.3,11.8-11.8
					S1045.2,44.9,1038.7,44.9z"/>
			</g>
		</g>
		<g>
			<g>
				<g>
					<path class="st2" d="M1045.3,65h-2.2l-2.7-4.5c-0.2-0.4-0.5-0.8-0.7-1.1c-0.2-0.3-0.5-0.5-0.7-0.7c-0.2-0.2-0.5-0.3-0.8-0.4
						c-0.3-0.1-0.6-0.1-0.9-0.1h-1.5V65h-1.9V49.1h4.7c0.7,0,1.3,0.1,1.9,0.3c0.6,0.2,1.1,0.4,1.5,0.8c0.4,0.4,0.8,0.8,1,1.3
						c0.2,0.5,0.4,1.1,0.4,1.9c0,0.6-0.1,1.1-0.2,1.5c-0.2,0.5-0.4,0.9-0.7,1.2c-0.3,0.4-0.7,0.7-1.1,0.9c-0.4,0.3-0.9,0.5-1.5,0.6
						v0c0.3,0.1,0.5,0.3,0.7,0.4c0.2,0.2,0.4,0.3,0.6,0.5c0.2,0.2,0.4,0.4,0.5,0.7c0.2,0.3,0.4,0.6,0.6,0.9L1045.3,65z M1035.7,50.8
						v5.8h2.5c0.5,0,0.9-0.1,1.3-0.2c0.4-0.1,0.7-0.3,1-0.6c0.3-0.3,0.5-0.6,0.7-1c0.2-0.4,0.2-0.8,0.2-1.3c0-0.9-0.3-1.5-0.8-2
						c-0.6-0.5-1.3-0.7-2.4-0.7H1035.7z"/>
				</g>
			</g>
		</g>
	</g>
	<g>
		<g>
			<g>
				<path class="st1" d="M235.2,120.8h-29.6c-1.3-9.7-4.4-18.8-8.9-27c-13.4-24.4-39.3-41-69.1-41S72,69.4,58.6,93.8h75.7v145.6
					c-2.2,0.1-4.4,0.2-6.7,0.2c-6.1,0-12-0.5-17.8-1.5c-44.6-7.4-80-42.1-88.4-86.4h30.1c7.4,28,29.9,49.9,58.3,56.4v-87.3H20.1
					c0.9-9.4,3.1-18.5,6.2-27c15.3-41.1,54.9-70.4,101.3-70.4c46.4,0,86,29.3,101.3,70.4C232.2,102.4,234.3,111.4,235.2,120.8z"/>
				<path class="st1" d="M127.7,240.1c-6,0-12-0.5-17.9-1.5c-44.7-7.4-80.4-42.3-88.8-86.8l-0.1-0.6h31.2l0.1,0.4
					c7.4,27.8,29.3,49.2,57.2,55.9v-86.1H19.6l0.1-0.6c0.9-9.3,3-18.4,6.3-27.2c7.6-20.6,21.2-38.1,39.2-50.9
					c18.4-13,40-19.9,62.6-19.9c22.6,0,44.3,6.9,62.6,19.9c18,12.7,31.5,30.3,39.2,50.9c3.2,8.7,5.4,17.9,6.3,27.2l0.1,0.6h-30.6
					l-0.1-0.5c-1.3-9.4-4.2-18.5-8.8-26.8c-13.7-25.1-40-40.7-68.6-40.7c-28.3,0-54.3,15.3-68.2,39.9h75.4v146.6l-0.5,0
					C132.2,240,129.9,240.1,127.7,240.1z M22.2,152.3c8.6,43.8,43.8,78,87.8,85.3c5.8,1,11.8,1.4,17.7,1.4c2.1,0,4.1-0.1,6.1-0.2
					V94.3H57.7l0.4-0.8c13.9-25.4,40.6-41.3,69.5-41.3s55.6,15.8,69.5,41.3c4.6,8.3,7.5,17.3,8.9,26.7h28.5c-0.9-9-3-17.8-6.1-26.3
					c-15.6-41.9-56.1-70-100.8-70C83,24,42.5,52.1,26.9,94c-3.1,8.5-5.2,17.3-6.1,26.3h89.7v88.5l-0.6-0.1
					c-14-3.2-26.9-10.2-37.2-20.3C62.3,178.5,55,166,51.2,152.3H22.2z"/>
			</g>
			<g>
				<path class="st2" d="M233.9,151.8c-8.4,44.1-43.5,78.7-87.9,86.3v-30c28.1-6.7,50.4-28.5,57.8-56.3H233.9z"/>
			</g>
		</g>
	</g>
</g>
</svg>
