<svg xmlns="http://www.w3.org/2000/svg" width="65.267" height="98.295" viewBox="0 0 65.267 98.295">
  <g id="Group_1594" data-name="Group 1594" transform="translate(-312.91 -256.745)">
    <path id="Path_2958" data-name="Path 2958" d="M361.583,412.623v11.791H318.349V407.025h20.366v-7.3H312.91v76.064h53.2V412.623Zm-32.277,56.81H318.349V458.476h10.957Zm0-14.649H318.349V443.826h10.957Zm0-14.649H318.349V429.177h10.957Zm16.138,29.3H334.487V458.476h10.957Zm0-14.649H334.487V443.826h10.957Zm0-14.649H334.487V429.177h10.957Zm16.138,29.3H350.626V458.476h10.957Zm0-14.649H350.626V443.826h10.957Zm0-14.649H350.626V429.177h10.957Z" transform="translate(0 -120.744)" fill="#a1cc3a"/>
    <g id="Group_1591" data-name="Group 1591" transform="translate(324.424 297.978)">
      <rect id="Rectangle_193" data-name="Rectangle 193" width="5.836" height="2.332" transform="translate(0 0)" fill="#a1cc3a"/>
    </g>
    <g id="Group_1592" data-name="Group 1592" transform="translate(332.999 297.978)">
      <rect id="Rectangle_194" data-name="Rectangle 194" width="5.836" height="2.332" transform="translate(0 0)" fill="#a1cc3a"/>
    </g>
    <g id="Group_1593" data-name="Group 1593" transform="translate(341.789 297.978)">
      <rect id="Rectangle_195" data-name="Rectangle 195" width="5.836" height="2.332" transform="translate(0 0)" fill="#a1cc3a"/>
    </g>
    <path id="Path_2959" data-name="Path 2959" d="M526.2,256.745H494.549a2.911,2.911,0,0,0-2.911,2.911v24.983a2.911,2.911,0,0,0,2.75,2.907l7.731.429v8.787l8.257-8.787H526.2a2.911,2.911,0,0,0,2.911-2.911V259.656A2.911,2.911,0,0,0,526.2,256.745Zm-11.548,19.881a4.609,4.609,0,0,1-2.642,1.232v1.95H510.2v-1.915a7.967,7.967,0,0,1-2.19-.461,5.916,5.916,0,0,1-1.746-.993l.762-1.649a6.734,6.734,0,0,0,1.835.993,6.167,6.167,0,0,0,2.013.319,3.165,3.165,0,0,0,1.853-.461,1.533,1.533,0,0,0,.647-1.33,1.069,1.069,0,0,0-.355-.833,2.6,2.6,0,0,0-.878-.505q-.523-.186-1.481-.434a15.922,15.922,0,0,1-2.181-.683,3.714,3.714,0,0,1-1.436-1.064,2.894,2.894,0,0,1-.6-1.924,3.271,3.271,0,0,1,1.037-2.429,4.746,4.746,0,0,1,2.686-1.259v-1.951h1.809v1.933a7.5,7.5,0,0,1,1.924.5,5.066,5.066,0,0,1,1.516.922l-.762,1.649a5.614,5.614,0,0,0-3.529-1.294,2.875,2.875,0,0,0-1.747.479,1.561,1.561,0,0,0-.647,1.33,1.266,1.266,0,0,0,.372.949,2.647,2.647,0,0,0,.949.576,13.819,13.819,0,0,0,1.552.443,15.772,15.772,0,0,1,2.1.647,3.428,3.428,0,0,1,1.374,1.02,2.818,2.818,0,0,1,.567,1.844A3.254,3.254,0,0,1,514.655,276.626Z" transform="translate(-150.938)" fill="#fff"/>
  </g>
</svg>
