<svg xmlns="http://www.w3.org/2000/svg" width="83.427" height="64.2" viewBox="0 0 83.427 64.2">
  <g id="Group_1568" data-name="Group 1568" transform="translate(-162.552 -163.564)">
    <g id="Group_1554" data-name="Group 1554" transform="translate(171.318 163.564)">
      <path id="Path_2918" data-name="Path 2918" d="M305.868,219.606H242.477a1.483,1.483,0,1,1,0-2.966h63.391a2.261,2.261,0,0,0,2.258-2.258V168.789a2.261,2.261,0,0,0-2.258-2.258H241.655a2.261,2.261,0,0,0-2.258,2.258v29.825a1.483,1.483,0,1,1-2.966,0V168.789a5.23,5.23,0,0,1,5.225-5.225h64.212a5.23,5.23,0,0,1,5.224,5.225v45.593A5.23,5.23,0,0,1,305.868,219.606Z" transform="translate(-236.431 -163.564)" fill="#a1cc3a"/>
    </g>
    <g id="Group_1555" data-name="Group 1555" transform="translate(214.415 169.623)">
      <path id="Path_2919" data-name="Path 2919" d="M619.551,233.71h-16a3.911,3.911,0,0,1-3.907-3.907v-11.27a3.911,3.911,0,0,1,3.907-3.907h16a3.911,3.911,0,0,1,3.907,3.907V229.8A3.911,3.911,0,0,1,619.551,233.71Zm-16-16.117a.942.942,0,0,0-.94.94V229.8a.941.941,0,0,0,.94.94h16a.942.942,0,0,0,.94-.94v-11.27a.942.942,0,0,0-.94-.94Z" transform="translate(-599.649 -214.627)" fill="#a1cc3a"/>
    </g>
    <g id="Group_1556" data-name="Group 1556" transform="translate(213.446 191.314)">
      <path id="Path_2920" data-name="Path 2920" d="M609.685,400.4H592.962a1.483,1.483,0,1,1,0-2.966h16.723a1.483,1.483,0,0,1,0,2.966Z" transform="translate(-591.479 -397.436)" fill="#a1cc3a"/>
    </g>
    <g id="Group_1557" data-name="Group 1557" transform="translate(190.049 225.628)">
      <path id="Path_2921" data-name="Path 2921" d="M430.083,688.775H395.366a1.068,1.068,0,1,1,0-2.136h34.717a1.068,1.068,0,1,1,0,2.136Z" transform="translate(-394.298 -686.639)" fill="#a1cc3a"/>
    </g>
    <g id="Group_1558" data-name="Group 1558" transform="translate(183.787 208.672)">
      <path id="Path_2922" data-name="Path 2922" d="M398.473,546.7H343a1.483,1.483,0,0,1,0-2.966h55.469a1.483,1.483,0,0,1,0,2.966Z" transform="translate(-341.521 -543.734)" fill="#a1cc3a"/>
    </g>
    <g id="Group_1559" data-name="Group 1559" transform="translate(224.352 198.1)">
      <path id="Path_2923" data-name="Path 2923" d="M697.964,457.593H684.877a1.483,1.483,0,0,1,0-2.966h13.087a1.483,1.483,0,0,1,0,2.966Z" transform="translate(-683.394 -454.627)" fill="#a1cc3a"/>
    </g>
    <g id="Group_1560" data-name="Group 1560" transform="translate(214.132 198.1)">
      <path id="Path_2924" data-name="Path 2924" d="M602.465,457.593h-3.716a1.483,1.483,0,0,1,0-2.966h3.716a1.483,1.483,0,1,1,0,2.966Z" transform="translate(-597.266 -454.627)" fill="#a1cc3a"/>
    </g>
    <g id="Group_1561" data-name="Group 1561" transform="translate(181.738 196.11)">
      <path id="Path_2925" data-name="Path 2925" d="M327.941,442.627a1.065,1.065,0,0,1-.755-.313l-2.628-2.628a1.068,1.068,0,1,1,1.51-1.51L328.7,440.8a1.068,1.068,0,0,1-.755,1.823Z" transform="translate(-324.246 -437.864)" fill="#fff"/>
    </g>
    <g id="Group_1562" data-name="Group 1562" transform="translate(234.217 191.314)">
      <path id="Path_2926" data-name="Path 2926" d="M771.742,400.4h-3.716a1.483,1.483,0,1,1,0-2.966h3.716a1.483,1.483,0,1,1,0,2.966Z" transform="translate(-766.543 -397.436)" fill="#a1cc3a"/>
    </g>
    <g id="Group_1563" data-name="Group 1563" transform="translate(162.552 188.727)">
      <path id="Path_2927" data-name="Path 2927" d="M166.361,407.163a2.961,2.961,0,0,1-2.107-.873l-.83-.83a2.984,2.984,0,0,1,0-4.215l24.736-24.736a2.984,2.984,0,0,1,4.215,0l.83.83a2.984,2.984,0,0,1,0,4.215L168.468,406.29A2.961,2.961,0,0,1,166.361,407.163Zm23.906-29.391a.842.842,0,0,0-.6.247l-24.736,24.736a.846.846,0,0,0,0,1.194l.83.83a.844.844,0,0,0,1.194,0l24.736-24.736a.846.846,0,0,0,0-1.194l-.83-.83A.842.842,0,0,0,190.267,377.773Z" transform="translate(-162.552 -375.638)" fill="#fff"/>
    </g>
    <g id="Group_1564" data-name="Group 1564" transform="translate(196.731 217.055)">
      <path id="Path_2928" data-name="Path 2928" d="M452.59,624.423l-1.981-.8,3.723-9.242h15.949l2.878,9.326-2.041.63-2.413-7.82H455.775Z" transform="translate(-450.609 -614.383)" fill="#a1cc3a"/>
    </g>
    <g id="Group_1565" data-name="Group 1565" transform="translate(198.332 175.33)">
      <path id="Path_2929" data-name="Path 2929" d="M471.142,277.14h-.006a1.068,1.068,0,0,1-.983-.664l-1.554-3.809-3.873-1.763a1.068,1.068,0,0,1,.066-1.972l3.532-1.328,1.644-4.2a1.068,1.068,0,0,1,1.994.012l1.565,4.148,3.5,1.286a1.068,1.068,0,0,1,.126,1.949l-3.375,1.761-1.651,3.928A1.068,1.068,0,0,1,471.142,277.14Zm-3.189-7.114,1.917.872a1.068,1.068,0,0,1,.546.569l.74,1.814.8-1.905a1.068,1.068,0,0,1,.49-.533l1.576-.822-1.692-.622a1.068,1.068,0,0,1-.631-.626l-.756-2-.8,2.057a1.068,1.068,0,0,1-.619.61Z" transform="translate(-464.1 -262.724)" fill="#fff"/>
    </g>
    <g id="Group_1566" data-name="Group 1566" transform="translate(180.074 170.846)">
      <path id="Path_2930" data-name="Path 2930" d="M317.27,239.351h-.006a1.068,1.068,0,0,1-.983-.665l-1.554-3.809-3.873-1.763a1.068,1.068,0,0,1,.067-1.972l3.532-1.328,1.644-4.2a1.068,1.068,0,0,1,1.994.012l1.564,4.148,3.5,1.286a1.068,1.068,0,0,1,.126,1.949L319.9,234.77l-1.651,3.928A1.068,1.068,0,0,1,317.27,239.351Zm-3.189-7.114,1.917.872a1.068,1.068,0,0,1,.546.569l.74,1.814.8-1.905a1.067,1.067,0,0,1,.491-.533l1.576-.822-1.692-.622a1.068,1.068,0,0,1-.631-.626l-.756-2-.8,2.057a1.068,1.068,0,0,1-.619.61Z" transform="translate(-310.228 -224.935)" fill="#fff"/>
    </g>
    <g id="Group_1567" data-name="Group 1567" transform="translate(193.711 191.729)">
      <path id="Path_2931" data-name="Path 2931" d="M432.2,415.352H432.2a1.068,1.068,0,0,1-.983-.665l-1.554-3.809-3.873-1.763a1.068,1.068,0,0,1,.066-1.972l3.532-1.328,1.644-4.2a1.068,1.068,0,0,1,.994-.679h.007a1.068,1.068,0,0,1,.993.691l1.564,4.148,3.5,1.286a1.068,1.068,0,0,1,.126,1.949l-3.375,1.761-1.651,3.928A1.068,1.068,0,0,1,432.2,415.352Zm-3.189-7.114,1.917.872a1.068,1.068,0,0,1,.546.569l.74,1.814.8-1.905a1.067,1.067,0,0,1,.49-.533l1.576-.822-1.692-.622a1.068,1.068,0,0,1-.631-.625l-.756-2-.8,2.057a1.068,1.068,0,0,1-.619.61Z" transform="translate(-425.161 -400.936)" fill="#fff"/>
    </g>
  </g>
</svg>
