<svg xmlns="http://www.w3.org/2000/svg" width="55.126" height="65.344" viewBox="0 0 55.126 65.344">
  <g id="Group_1597" data-name="Group 1597" transform="translate(-269.807 -178.832)">
    <g id="Group_1552" data-name="Group 1552" transform="translate(269.807 178.832)">
      <path id="Path_2912" data-name="Path 2912" d="M307.907,190.523a28.3,28.3,0,0,1,2.844.112v-8.184a3.62,3.62,0,0,0-3.62-3.62h-33.7a3.62,3.62,0,0,0-3.62,3.62h0v58.1a3.621,3.621,0,0,0,3.62,3.62h33.7a3.621,3.621,0,0,0,3.621-3.62v-16.09c-1.422.075-1.875.034-2.844.034q-.511,0-1.018-.03v3.493H273.915v-40.9h32.978v3.492Q307.4,190.523,307.907,190.523Zm-6.125,43.937h2.785a.969.969,0,0,1,.97.969h0v1.815a.97.97,0,0,1-.969.97h-2.786Zm-11.525-2.371a4.115,4.115,0,1,1-4.115,4.115,4.115,4.115,0,0,1,4.115-4.115h0Zm-14.274,3.2a.885.885,0,0,1,.886-.885h2.869v3.753H276.87a.885.885,0,0,1-.886-.885h0Zm22.409-51.064H282.142v-2.052h16.251Z" transform="translate(-269.807 -178.832)" fill="#a1cc3a" fill-rule="evenodd"/>
      <path id="Path_2913" data-name="Path 2913" d="M652.8,839.582V841.4a.969.969,0,0,1-.969.97h-2.786v-3.754h2.785a.97.97,0,0,1,.97.969Z" transform="translate(-617.072 -782.986)" fill="none" stroke="#a1cc3a" stroke-miterlimit="10" stroke-width="1"/>
      <path id="Path_2914" data-name="Path 2914" d="M652.8,839.582V841.4a.969.969,0,0,1-.969.97h-2.786v-3.754h2.785a.97.97,0,0,1,.97.969Z" transform="translate(-617.072 -782.986)" fill="none" stroke="#a1cc3a" stroke-miterlimit="10" stroke-width="1"/>
    </g>
    <g id="Group_1541" data-name="Group 1541" transform="translate(293.141 189.909)">
      <g id="Group_224" data-name="Group 224" transform="translate(9.924)">
        <g id="Group_220" data-name="Group 220" transform="translate(0 13.514)">
          <path id="Path_2892" data-name="Path 2892" d="M672.906,474.811v0a4.315,4.315,0,1,1-4.314-4.317,4.224,4.224,0,0,1,1.527.285l-1.428,1.428c-.04,0-.077,0-.114,0a2.616,2.616,0,1,0,2.593,2.263l1.378-1.378A4.279,4.279,0,0,1,672.906,474.811Z" transform="translate(-664.275 -470.497)" fill="#fff"/>
        </g>
        <g id="Group_223" data-name="Group 223" transform="translate(4.12)">
          <path id="Path_513" data-name="Path 513" d="M728.124,313.124V310.21l-3.842,4.064v2.36l-1.13,1.136-.391.395-3.1,3.116-.391.392-3.1,3.12-.393.392-2.64,2.657.393.392,2.642-2.657.392-.395,3.1-3.118.391-.395,3.1-3.115.393-.392,1.125-1.132,2.719.07,3.5-3.871Zm-.974,3.416-2.312-.061V314.5l2.73-2.888v2.051l2.11.081Z" transform="translate(-713.138 -310.21)" fill="#fff"/>
        </g>
      </g>
      <path id="Path_2893" data-name="Path 2893" d="M575.024,367.29a14.227,14.227,0,1,1-5.357-11.128l-2.6,2.6a10.57,10.57,0,1,0,2.162,2.128l2.593-2.593A14.167,14.167,0,0,1,575.024,367.29Z" transform="translate(-546.57 -349.445)" fill="#fff"/>
      <path id="Path_2894" data-name="Path 2894" d="M623.721,421.106a9.28,9.28,0,1,1-3.942-7.587l-2.66,2.66a5.548,5.548,0,0,0-2.676-.68,5.608,5.608,0,1,0,5.609,5.609,5.545,5.545,0,0,0-.759-2.814l2.646-2.646A9.224,9.224,0,0,1,623.721,421.106Z" transform="translate(-600.222 -403.262)" fill="#fff"/>
    </g>
  </g>
</svg>
