<svg xmlns="http://www.w3.org/2000/svg" width="565.372" height="594.857" viewBox="0 0 565.372 594.857">
  <g id="Group_1250" data-name="Group 1250" transform="translate(-48 -23.886)">
    <g id="Background_Complete" data-name="Background Complete" transform="translate(48 23.886)">
      <g id="Group_1142" data-name="Group 1142" transform="translate(72.06 45.287)">
        <path id="Path_2209" data-name="Path 2209" d="M147.724,149.207h0a45.676,45.676,0,0,1-45.677-45.677h0a45.676,45.676,0,0,1,45.677-45.677h0A45.678,45.678,0,0,1,193.4,103.53h0A45.678,45.678,0,0,1,147.724,149.207Z" transform="translate(-102.047 -57.853)" fill="#ebebeb"/>
        <g id="Group_1141" data-name="Group 1141" transform="translate(24.056 20.225)">
          <g id="Group_1140" data-name="Group 1140">
            <rect id="Rectangle_157" data-name="Rectangle 157" width="9.454" height="30.54" transform="translate(0.909 15.27)" fill="#fff"/>
            <path id="Path_2210" data-name="Path 2210" d="M125.68,84.294a5.636,5.636,0,1,0-5.59-5.637A5.613,5.613,0,0,0,125.68,84.294Z" transform="translate(-120.09 -73.022)" fill="#fff"/>
          </g>
          <path id="Path_2211" data-name="Path 2211" d="M141.463,99.217c0-4.293,1.976-6.852,5.76-6.852,3.476,0,5.146,2.456,5.146,6.852v16.031h9.409V95.912c0-8.181-4.637-12.136-11.112-12.136a10.648,10.648,0,0,0-9.2,5.045V84.708H132.4v30.54h9.068Z" transform="translate(-115.989 -69.438)" fill="#fff"/>
        </g>
      </g>
      <path id="Path_2212" data-name="Path 2212" d="M186.643,23.886,192.9,35.323l11.436,6.255L192.9,47.832l-6.255,11.436-6.255-11.436-11.436-6.255,11.436-6.255Z" transform="translate(-7.689 -23.886)" fill="#f5f5f5"/>
      <path id="Path_2213" data-name="Path 2213" d="M381.187,256.273l4.691,8.577,8.577,4.691-8.577,4.691-4.691,8.577-4.691-8.577-8.577-4.691,8.577-4.691Z" transform="translate(58.623 53.564)" fill="#ebebeb"/>
      <path id="Path_2214" data-name="Path 2214" d="M389.318,224.508l2.117,3.87,3.87,2.117-3.87,2.117-2.117,3.87-2.116-3.87-3.87-2.117,3.87-2.117Z" transform="translate(63.76 42.978)" fill="#e0e0e0"/>
      <path id="Path_2215" data-name="Path 2215" d="M150.21,27.112l2.117,3.87L156.2,33.1l-3.87,2.116-2.117,3.87-2.117-3.87-3.87-2.116,3.87-2.116Z" transform="translate(-15.93 -22.811)" fill="#e0e0e0"/>
      <g id="Group_1144" data-name="Group 1144" transform="translate(0 337.194)">
        <g id="Group_1143" data-name="Group 1143">
          <path id="Path_2216" data-name="Path 2216" d="M76.176,303.412a13.828,13.828,0,0,0,8.074-12.9c-.068-7.638-5.929-13.782-13.091-13.722s-12.913,6.3-12.845,13.938a13.8,13.8,0,0,0,8.43,12.8c-19.917,3.265-18.731,24.942-18.731,24.942l47.192-.393S96,306.143,76.176,303.412Z" transform="translate(-48 -276.792)" fill="#e0e0e0"/>
        </g>
      </g>
      <g id="Group_1145" data-name="Group 1145" transform="translate(451.724 500.786)">
        <path id="Path_2217" data-name="Path 2217" d="M415.911,405.42a7.346,7.346,0,0,0-14.487.431,7.345,7.345,0,0,0-14.49-.3,9.915,9.915,0,0,0,1.78,7.154,29.521,29.521,0,0,0,5.18,5.474c2.637,2.347,5.075,4.553,7.712,6.9,2.616-2.369,4.841-4.6,7.457-6.966a29.38,29.38,0,0,0,5.132-5.521A9.914,9.914,0,0,0,415.911,405.42Z" transform="translate(-386.806 -399.49)" fill="#ebebeb"/>
      </g>
      <g id="Group_1148" data-name="Group 1148" transform="translate(496.539 196.902)">
        <g id="Group_1146" data-name="Group 1146" transform="translate(15.026)">
          <path id="Path_2218" data-name="Path 2218" d="M431.688,200.343l5.056-1,7.986-17.567-2-10.094s7.721-2.031,9.422,11.369,2.029,9.837,2.029,9.837,16.609-3.227,18.274-2.059c1.211.848,4.933,17.243,6.88,26.15.98,4.484-.951,9.217-4.925,11.112a7.432,7.432,0,0,1-1.739.595c-4.14.821-25.956,1.649-25.956,1.649l-8.734,1.732Z" transform="translate(-431.688 -171.569)" fill="#e0e0e0"/>
        </g>
        <g id="Group_1147" data-name="Group 1147" transform="translate(0 27.236)">
          <path id="Path_2219" data-name="Path 2219" d="M420.418,193.635l9.969,33.969,8.66-1.718L432.326,192Z" transform="translate(-420.418 -191.997)" fill="#e0e0e0"/>
        </g>
      </g>
    </g>
    <g id="Icons" transform="translate(48.351 133.331)">
      <g id="Group_1149" data-name="Group 1149" transform="translate(382.331)">
        <path id="Path_2220" data-name="Path 2220" d="M412.9,208.872h0a54.171,54.171,0,0,1-72.408-25.022h0a54.171,54.171,0,0,1,25.022-72.409h0a54.173,54.173,0,0,1,72.409,25.022h0A54.173,54.173,0,0,1,412.9,208.872Z" transform="translate(-335.022 -105.973)" fill="#e8505b"/>
        <path id="Path_2221" data-name="Path 2221" d="M369.382,166.788a1.273,1.273,0,0,0,1.26-1.64c-.132-.656-.484-2.305-.62-3-.183-.944-.411-1.192-1.379-1.619a10.672,10.672,0,0,1-5.362-5.453c-4.085-8.4-1.459-18.973,8.621-23.875,8.924-4.34,16.479-1.272,20.022,6.013,4.66,9.581,4.353,19.73-1.943,22.792a5.721,5.721,0,0,1-8.36-3.848c-1.045-4.7-1.323-10.182-2.8-13.222-1.323-2.72-3.887-4.28-6.909-2.809-3.555,1.728-4.621,6.794-2.227,11.72a14.224,14.224,0,0,0,3.62,4.742s3.859,17.181,4.533,20.189c1.343,5.992,5.626,12.057,6.042,12.677a.491.491,0,0,0,.883-.192c.12-.588,1.811-7.873.708-13.794-.309-1.676-2.1-10.272-2.1-10.272,2.225,1.641,6.544,1.937,10.132.193,10.685-5.2,13.2-18.461,6.854-31.5-4.794-9.858-17.607-14.978-30.3-8.806-15.79,7.68-18.246,22.872-13.654,32.313C359.181,163.119,363.819,167.152,369.382,166.788Z" transform="translate(-328.585 -100.495)" fill="#fff"/>
      </g>
      <g id="Group_1151" data-name="Group 1151" transform="translate(490.277 183.426)">
        <path id="Path_2222" data-name="Path 2222" d="M440.022,315.821h0a37.363,37.363,0,0,1-21.566-48.237h0a37.362,37.362,0,0,1,48.237-21.566h0a37.363,37.363,0,0,1,21.566,48.237h0A37.362,37.362,0,0,1,440.022,315.821Z" transform="translate(-415.985 -243.548)" fill="#e8505b"/>
        <g id="Group_1150" data-name="Group 1150" transform="translate(10.912 17.019)">
          <path id="Path_2223" data-name="Path 2223" d="M470.134,283.01a20.126,20.126,0,0,0-37.435-14.7c-.112.269-.225.539-.329.812a19.823,19.823,0,0,0-.989,10.664l-7.212,8.71,11.674.669a20.147,20.147,0,0,0,34.117-5.68C470.021,283.33,470.082,283.171,470.134,283.01Zm-24.96,8.977a16.85,16.85,0,0,1-7.7-5.917l-6.81-.384,4.2-5.073a16.619,16.619,0,0,1,.505-10.345,15.58,15.58,0,0,1,.66-1.492A16.925,16.925,0,0,1,467.383,281.1c-.12.419-.256.829-.415,1.243A16.87,16.87,0,0,1,445.174,291.987Z" transform="translate(-424.169 -256.312)" fill="#fff" fill-rule="evenodd"/>
          <path id="Path_2224" data-name="Path 2224" d="M453.587,281.126c-.379-.407-2.217-2.38-2.583-2.691s-.643-.508-1.125-.168-1.765,1.029-2.144,1.228-.667.137-1.047-.269a13.374,13.374,0,0,1-2.837-3.685A14.65,14.65,0,0,1,442.5,271.4c-.089-.557.243-.713.559-.855.292-.131.663-.361,1-.535.092-.056.172-.107.251-.157a5.386,5.386,0,0,0,.5-.435.882.882,0,0,0,.271-.813c-.027-.273-.091-2.879-.128-3.941s-.476-1.049-.749-1.155-.555-.261-.863-.38a1.827,1.827,0,0,0-1.451.1,5.481,5.481,0,0,0-3.069,3.2,6.229,6.229,0,0,0-.359,1.649,11.1,11.1,0,0,0,.436,3.8c.113.387,1.248,6.285,5.226,9.913,3.995,3.615,4.227,3.007,5.1,3.251s3.149-.057,3.937-.987a4.037,4.037,0,0,0,1.1-2.069C454.222,281.762,453.956,281.53,453.587,281.126Z" transform="translate(-419.415 -254.074)" fill="#fff" fill-rule="evenodd"/>
        </g>
      </g>
      <g id="Group_1152" data-name="Group 1152" transform="translate(0 26.041)">
        <path id="Path_2225" data-name="Path 2225" d="M76.753,182.484h0a28.49,28.49,0,0,1-28.49-28.491h0a28.49,28.49,0,0,1,28.49-28.49h0a28.49,28.49,0,0,1,28.491,28.49h0A28.491,28.491,0,0,1,76.753,182.484Z" transform="translate(-48.263 -125.504)" fill="#e8505b"/>
        <path id="Path_2226" data-name="Path 2226" d="M58.246,159.494a17.637,17.637,0,0,0,9.548,2.8c11.564,0,18.1-9.768,17.7-18.529A12.625,12.625,0,0,0,88.6,140.54a12.437,12.437,0,0,1-3.577.98,6.244,6.244,0,0,0,2.739-3.445,12.513,12.513,0,0,1-3.955,1.512A6.233,6.233,0,0,0,73.2,145.268a17.676,17.676,0,0,1-12.837-6.509,6.237,6.237,0,0,0,1.927,8.317,6.194,6.194,0,0,1-2.821-.78,6.234,6.234,0,0,0,5,6.186,6.234,6.234,0,0,1-2.812.107,6.23,6.23,0,0,0,5.817,4.325A12.515,12.515,0,0,1,58.246,159.494Z" transform="translate(-44.936 -121.466)" fill="#fff"/>
      </g>
      <g id="Group_1154" data-name="Group 1154" transform="translate(19.236 305.358)">
        <path id="Path_2227" data-name="Path 2227" d="M123.143,431.814h0a49.069,49.069,0,0,1-59.1-36.361h0A49.07,49.07,0,0,1,100.4,336.347h0a49.071,49.071,0,0,1,59.106,36.363h0A49.069,49.069,0,0,1,123.143,431.814Z" transform="translate(-62.691 -335)" fill="#455a64"/>
        <g id="Group_1153" data-name="Group 1153" transform="translate(20.041 20.041)">
          <path id="Path_2228" data-name="Path 2228" d="M101.65,357.613c6.989-1.664,7.822-1.835,10.612-2.367a14.912,14.912,0,0,1,5.076-.256,8.912,8.912,0,0,1,6.15,3.784,14.939,14.939,0,0,1,2.059,4.645c.783,2.731,1.008,3.552,2.672,10.54s1.835,7.822,2.367,10.613a14.916,14.916,0,0,1,.257,5.074,8.906,8.906,0,0,1-3.784,6.149,14.883,14.883,0,0,1-4.645,2.06c-2.731.783-3.551,1.007-10.54,2.672s-7.824,1.835-10.613,2.368a14.857,14.857,0,0,1-5.074.255,8.905,8.905,0,0,1-6.15-3.783,14.906,14.906,0,0,1-2.059-4.645c-.784-2.731-1.008-3.552-2.672-10.54s-1.836-7.822-2.368-10.613a14.905,14.905,0,0,1-.256-5.075,8.913,8.913,0,0,1,3.784-6.15,14.9,14.9,0,0,1,4.645-2.059c2.729-.784,3.552-1.008,10.54-2.673m-1.123-4.714c-7.109,1.693-7.993,1.936-10.754,2.728a19.725,19.725,0,0,0-6.062,2.731,13.745,13.745,0,0,0-5.83,9.478,19.714,19.714,0,0,0,.3,6.642c.537,2.821.72,3.72,2.413,10.828s1.936,7.993,2.728,10.754a19.724,19.724,0,0,0,2.731,6.062,13.754,13.754,0,0,0,9.477,5.832,19.8,19.8,0,0,0,6.644-.3c2.821-.537,3.72-.72,10.828-2.413s7.992-1.936,10.754-2.728a19.737,19.737,0,0,0,6.062-2.731,13.752,13.752,0,0,0,5.832-9.478,19.791,19.791,0,0,0-.3-6.642c-.537-2.821-.72-3.72-2.413-10.828s-1.936-7.993-2.728-10.754a19.739,19.739,0,0,0-2.731-6.062A13.753,13.753,0,0,0,118,350.188a19.792,19.792,0,0,0-6.642.3c-2.823.537-3.72.72-10.828,2.413" transform="translate(-77.722 -350.031)" fill="#fff"/>
          <path id="Path_2229" data-name="Path 2229" d="M99.756,361.827A13.815,13.815,0,1,0,116.4,372.065a13.815,13.815,0,0,0-16.641-10.238m5.28,22.163a8.968,8.968,0,1,1,6.645-10.8,8.968,8.968,0,0,1-6.645,10.8" transform="translate(-73.917 -346.226)" fill="#fff"/>
          <path id="Path_2230" data-name="Path 2230" d="M111.434,358.9a3.229,3.229,0,1,1-3.889-2.393,3.229,3.229,0,0,1,3.889,2.393" transform="translate(-68.61 -347.903)" fill="#fff"/>
        </g>
      </g>
      <g id="Group_1155" data-name="Group 1155" transform="translate(428.491 313.218)">
        <path id="Path_2231" data-name="Path 2231" d="M392.527,386.663h0a22.884,22.884,0,0,1-22.883-22.884h0a22.883,22.883,0,0,1,22.883-22.883h0a22.883,22.883,0,0,1,22.883,22.883h0A22.884,22.884,0,0,1,392.527,386.663Z" transform="translate(-369.644 -340.895)" fill="#455a64"/>
        <path id="Path_2232" data-name="Path 2232" d="M384.915,375.348h5.57V361.4h3.886l.415-4.67h-4.3v-2.66c0-1.1.221-1.536,1.287-1.536h3.015v-4.848H390.93c-4.145,0-6.014,1.827-6.014,5.32v3.724h-2.9v4.729h2.9Z" transform="translate(-365.52 -338.632)" fill="#fff"/>
      </g>
    </g>
    <g id="Device" transform="translate(197.814 77.645)">
      <g id="Group_1221" data-name="Group 1221">
        <g id="Group_1220" data-name="Group 1220">
          <g id="Group_1215" data-name="Group 1215">
            <g id="Group_1163" data-name="Group 1163">
              <g id="Group_1162" data-name="Group 1162">
                <g id="Group_1158" data-name="Group 1158">
                  <g id="Group_1157" data-name="Group 1157">
                    <g id="Group_1156" data-name="Group 1156">
                      <path id="Path_2233" data-name="Path 2233" d="M384.23,605.3,200.387,605.2a40.046,40.046,0,0,1-40.022-40.054l.091-460.9a40.047,40.047,0,0,1,40.069-40.04l183.844.109a40.046,40.046,0,0,1,40.022,40.054l-.091,460.9A40.043,40.043,0,0,1,384.23,605.3Z" transform="translate(-160.365 -64.207)" fill="#263238"/>
                    </g>
                  </g>
                </g>
                <g id="Group_1161" data-name="Group 1161" transform="translate(12.182 16.303)">
                  <g id="Group_1160" data-name="Group 1160">
                    <g id="Group_1159" data-name="Group 1159">
                      <path id="Path_2234" data-name="Path 2234" d="M381.127,76.542l-35.644-.02a8.854,8.854,0,0,0-8.656,9.042l0,6.466a8.854,8.854,0,0,1-8.656,9.042l-69.479-.041a8.862,8.862,0,0,1-8.653-9.053V85.513a8.862,8.862,0,0,0-8.654-9.053l-12.535-.008-31.2-.017a28.045,28.045,0,0,0-28.063,28.04L169.5,554.343a28.047,28.047,0,0,0,28.03,28.054l183.476.107a28.046,28.046,0,0,0,28.062-28.04l.088-449.869A28.046,28.046,0,0,0,381.127,76.542Z" transform="translate(-169.502 -76.435)" fill="#fff"/>
                    </g>
                  </g>
                </g>
              </g>
            </g>
            <g id="Group_1173" data-name="Group 1173" transform="translate(205.784 52.809)">
              <g id="Group_1166" data-name="Group 1166">
                <g id="Group_1165" data-name="Group 1165">
                  <g id="Group_1164" data-name="Group 1164">
                    <path id="Path_2235" data-name="Path 2235" d="M335.416,103.964c0,.12-4.633.256-10.352.3s-10.354-.012-10.356-.133,4.633-.256,10.353-.3S335.416,103.843,335.416,103.964Z" transform="translate(-314.709 -103.815)" fill="#263238"/>
                  </g>
                </g>
              </g>
              <g id="Group_1169" data-name="Group 1169" transform="translate(0.044 5.298)">
                <g id="Group_1168" data-name="Group 1168">
                  <g id="Group_1167" data-name="Group 1167">
                    <path id="Path_2236" data-name="Path 2236" d="M335.449,107.938c0,.12-4.635.256-10.352.3s-10.354-.013-10.356-.133,4.633-.257,10.352-.3S335.448,107.817,335.449,107.938Z" transform="translate(-314.742 -107.789)" fill="#263238"/>
                  </g>
                </g>
              </g>
              <g id="Group_1172" data-name="Group 1172" transform="translate(0.088 10.596)">
                <g id="Group_1171" data-name="Group 1171">
                  <g id="Group_1170" data-name="Group 1170">
                    <path id="Path_2237" data-name="Path 2237" d="M335.482,111.911c0,.121-4.634.257-10.352.3s-10.356-.012-10.356-.132,4.633-.257,10.352-.3S335.481,111.791,335.482,111.911Z" transform="translate(-314.775 -111.763)" fill="#263238"/>
                  </g>
                </g>
              </g>
            </g>
            <g id="Group_1176" data-name="Group 1176" transform="translate(31.26 46.877)">
              <g id="Group_1175" data-name="Group 1175">
                <g id="Group_1174" data-name="Group 1174">
                  <path id="Path_2238" data-name="Path 2238" d="M184.088,121.21a4.251,4.251,0,0,1,.543-.036l1.509-.049,5.573-.133-.155.157q-.03-1.854-.065-4.041c.008-.751-.064-1.459.008-2.327a2.143,2.143,0,0,1,1.871-1.717c.9-.017,1.688-.059,2.661-.013a2.164,2.164,0,0,1,1.828,2.152c.021,1.884.044,3.852.067,5.893l-.259-.253,7.029-.072-.267.272c-.025-2.831-.052-5.758-.079-8.758q-.008-1.122-.019-2.231a2.271,2.271,0,0,0-.988-1.661l-3.073-3.029q-1.51-1.488-2.964-2.925l-1.437-1.419c-.493-.476-.881-.968-1.453-1.085a1.893,1.893,0,0,0-1.613.308c-.425.36-.879.869-1.308,1.287q-1.3,1.31-2.523,2.544c-1.587,1.648-3.239,3.153-4.44,4.577a4.969,4.969,0,0,0-.353,2.623q0,1.308-.005,2.477-.014,2.278-.025,3.991c-.012,1.019-.021,1.861-.028,2.551a9.056,9.056,0,0,1-.035.92,6.688,6.688,0,0,1-.048-.845c-.019-.679-.043-1.508-.071-2.512q-.038-1.724-.091-4.021-.022-1.194-.047-2.527-.01-.674-.021-1.381a2.924,2.924,0,0,1,.388-1.472c1.3-1.593,2.852-3,4.45-4.7q1.214-1.242,2.5-2.564c.451-.443.82-.883,1.357-1.344a2.388,2.388,0,0,1,2.037-.4,3.8,3.8,0,0,1,1.688,1.207l1.443,1.413q1.458,1.43,2.975,2.916T203.73,108a5.858,5.858,0,0,1,.785.851,2.3,2.3,0,0,1,.368,1.185q.01,1.114.02,2.241c.023,3,.045,5.928.067,8.76l0,.269H204.7l-7.03.045h-.257V121.1c-.011-2.04-.02-4.009-.031-5.893a1.7,1.7,0,0,0-1.42-1.707c-.809-.043-1.763-.015-2.549-.008a1.725,1.725,0,0,0-1.516,1.367c-.068.707-.016,1.531-.031,2.247q0,2.184,0,4.041v.157h-.155l-5.665-.04-1.475-.025A2.769,2.769,0,0,1,184.088,121.21Z" transform="translate(-183.811 -99.366)" fill="#263238"/>
                </g>
              </g>
            </g>
            <g id="Group_1195" data-name="Group 1195" transform="translate(26.812 403.919)">
              <g id="Group_1181" data-name="Group 1181" transform="translate(76.978 15.983)">
                <g id="Group_1180" data-name="Group 1180">
                  <g id="Group_1177" data-name="Group 1177">
                    <path id="Path_2239" data-name="Path 2239" d="M287.234,379.493a10.215,10.215,0,0,1-1.927.136l-5.253.111c-4.436.063-10.564.1-17.331.1s-12.9-.039-17.333-.1l-5.253-.111a10.215,10.215,0,0,1-1.927-.136,10.3,10.3,0,0,1,1.927-.135l5.253-.111c4.434-.063,10.564-.1,17.333-.1s12.9.039,17.331.1l5.253.111A10.3,10.3,0,0,1,287.234,379.493Z" transform="translate(-238.211 -379.146)" fill="#455a64"/>
                  </g>
                  <g id="Group_1178" data-name="Group 1178" transform="translate(0 12.061)">
                    <path id="Path_2240" data-name="Path 2240" d="M364.286,388.539c0,.192-28.226.347-63.035.347s-63.04-.155-63.04-.347,28.219-.347,63.04-.347S364.286,388.347,364.286,388.539Z" transform="translate(-238.211 -388.192)" fill="#455a64"/>
                  </g>
                  <g id="Group_1179" data-name="Group 1179" transform="translate(0 23.406)">
                    <path id="Path_2241" data-name="Path 2241" d="M324.888,397.049c0,.191-19.4.347-43.336.347s-43.341-.156-43.341-.347,19.4-.348,43.341-.348S324.888,396.857,324.888,397.049Z" transform="translate(-238.211 -396.701)" fill="#455a64"/>
                  </g>
                </g>
              </g>
              <g id="Group_1182" data-name="Group 1182" transform="translate(197.899 50.366)">
                <path id="Path_2242" data-name="Path 2242" d="M336.551,416.39l-3.917-3.929-3.729,3.72.017-11.246,7.646.012Zm-3.916-4.419.123.123,3.448,3.46.016-10.262-6.954-.011-.016,10.065Z" transform="translate(-328.905 -404.934)" fill="#263238"/>
              </g>
              <g id="Group_1183" data-name="Group 1183" transform="translate(94.198 52.609)">
                <path id="Path_2243" data-name="Path 2243" d="M258.168,414.366l-1.381-.616a3.787,3.787,0,1,1,2.019-3.327,3.828,3.828,0,0,1-.956,2.56Zm-3.231-7.488a3.577,3.577,0,0,0,.057,7.153,3.69,3.69,0,0,0,1.721-.543l.057-.033,1.02.456-.232-1,.047-.051a3.571,3.571,0,0,0-2.671-5.98Z" transform="translate(-251.126 -406.616)" fill="#263238"/>
              </g>
              <g id="Group_1184" data-name="Group 1184" transform="translate(105.572 53.134)">
                <path id="Path_2244" data-name="Path 2244" d="M264.213,413.642l-1.585-3.867-2.971-2.708,7.206-.057Zm-3.883-6.316,2.531,2.323,1.349,3.293,2.264-5.665Z" transform="translate(-259.657 -407.01)" fill="#263238"/>
              </g>
              <g id="Group_1185" data-name="Group 1185" transform="translate(108.705 53.133)">
                <rect id="Rectangle_158" data-name="Rectangle 158" width="4.687" height="0.263" transform="translate(0 2.557) rotate(-33.054)" fill="#263238"/>
              </g>
              <g id="Group_1186" data-name="Group 1186" transform="translate(81.071 52.208)">
                <path id="Path_2245" data-name="Path 2245" d="M250.111,408.107a2.229,2.229,0,0,0-4.4.147,2.229,2.229,0,0,0-4.4-.076,3.009,3.009,0,0,0,.548,2.169A8.954,8.954,0,0,0,243.444,412c.8.709,1.545,1.376,2.348,2.085.791-.721,1.464-1.4,2.255-2.123a8.865,8.865,0,0,0,1.552-1.68A3.016,3.016,0,0,0,250.111,408.107Z" transform="translate(-241.281 -406.316)" fill="#e8505b"/>
              </g>
              <g id="Group_1187" data-name="Group 1187">
                <path id="Path_2246" data-name="Path 2246" d="M394.049,438.929s-.016-.432-.024-1.255-.013-2.052-.024-3.648c-.013-3.217-.032-7.949-.056-14.077-.029-12.254-.072-30.081-.125-52.445l.229.229-213.214.119h-.013l.348-.348c0,24.822-.008,48.9-.012,71.424l-.336-.336c61.379.063,114.638.116,152.573.156l44.538.093,11.953.044,3.1.021c.7.007,1.067.021,1.067.021s-.339.013-1.024.021l-3.059.021-11.88.043-44.462.095-152.8.156h-.336v-.336c0-22.524-.007-46.6-.011-71.424v-.347h.36l213.214.119h.229v.228c-.053,22.422-.1,40.3-.125,52.582-.024,6.106-.043,10.82-.056,14.025q-.016,2.368-.024,3.608C394.064,438.527,394.049,438.929,394.049,438.929Z" transform="translate(-180.475 -367.158)" fill="#263238"/>
              </g>
              <g id="Group_1194" data-name="Group 1194" transform="translate(8.593 11.968)">
                <g id="Group_1191" data-name="Group 1191">
                  <g id="Group_1190" data-name="Group 1190">
                    <g id="Group_1189" data-name="Group 1189">
                      <rect id="Rectangle_159" data-name="Rectangle 159" width="47.22" height="59.064" transform="matrix(0.006, -1, 1, 0.006, 0.353, 47.533)" fill="#ebebeb"/>
                      <g id="Group_1188" data-name="Group 1188">
                        <path id="Path_2247" data-name="Path 2247" d="M246.6,376.783a2.33,2.33,0,0,1-.3.016l-.837.013-3.224.019-12.11.013-42.6-.087.312-.309c-.069,14.06-.148,30.168-.232,47.216.073.083-.647-.657-.335-.345h.5l.511,0,1.023.005,2.036.012,4.042.024,7.958.048,15.323.1,27.662.2-.291.287c.143-14.178.261-25.942.344-34.2.056-4.107.1-7.34.129-9.586q.03-1.628.047-2.54c.015-.577.037-.891.037-.891s.02.272.027.829q.008.894.019,2.485c.005,2.231.012,5.444.021,9.522-.012,8.3-.028,20.129-.047,34.384v.288h-.291l-27.66-.115-15.325-.075-7.958-.043-4.043-.023-2.036-.011-1.023-.005-.511,0h-.5c.3.312-.433-.423-.356-.353.111-17.047.215-33.156.305-47.214v-.312l.311,0,42.8.4,12.04.151,3.163.055.8.023A1.143,1.143,0,0,1,246.6,376.783Z" transform="translate(-186.92 -376.134)" fill="#263238"/>
                      </g>
                    </g>
                  </g>
                </g>
                <rect id="Rectangle_160" data-name="Rectangle 160" width="41.275" height="54.914" transform="matrix(0.006, -1, 1, 0.006, 2.407, 44.572)" fill="#e0e0e0"/>
                <path id="Path_2248" data-name="Path 2248" d="M188.725,415.95,208.05,390.4l11.79,16.119,8.107-8.535,15.691,18.275Z" transform="translate(-186.318 -371.378)" fill="#f5f5f5"/>
                <g id="Group_1193" data-name="Group 1193" transform="translate(30.027 11.63)">
                  <g id="Group_1192" data-name="Group 1192">
                    <path id="Path_2249" data-name="Path 2249" d="M218.089,389.2a4.324,4.324,0,1,1-4.3-4.348A4.326,4.326,0,0,1,218.089,389.2Z" transform="translate(-209.441 -384.857)" fill="#f5f5f5"/>
                  </g>
                </g>
              </g>
            </g>
            <g id="Group_1210" data-name="Group 1210" transform="translate(35.376 100.595)">
              <g id="Group_1205" data-name="Group 1205">
                <g id="Group_1198" data-name="Group 1198" transform="translate(38.17 9.274)">
                  <g id="Group_1197" data-name="Group 1197">
                    <g id="Group_1196" data-name="Group 1196">
                      <path id="Path_2250" data-name="Path 2250" d="M277.6,146.959a2.18,2.18,0,0,1-.631.071l-1.808.065-6.652.109c-5.617.064-13.377.1-21.947.1s-16.333-.039-21.95-.1l-6.65-.109-1.809-.065a2.18,2.18,0,0,1-.631-.071,2.221,2.221,0,0,1,.631-.069l1.809-.065,6.65-.111c5.617-.063,13.378-.1,21.95-.1s16.33.039,21.947.1l6.652.111,1.808.065A2.221,2.221,0,0,1,277.6,146.959Z" transform="translate(-215.527 -146.612)" fill="#263238"/>
                    </g>
                  </g>
                </g>
                <g id="Group_1204" data-name="Group 1204" transform="translate(0 252.85)">
                  <g id="Group_1199" data-name="Group 1199" transform="translate(176.141 0.779)">
                    <path id="Path_2251" data-name="Path 2251" d="M330.373,346.908l-5.82-5.838-5.544,5.528.027-16.713,11.364.017Zm-5.818-6.565.181.18,5.125,5.142.024-15.25-10.336-.016-.024,14.958Z" transform="translate(-319.009 -329.885)" fill="#263238"/>
                  </g>
                  <g id="Group_1200" data-name="Group 1200" transform="translate(25.837 0.788)">
                    <path id="Path_2252" data-name="Path 2252" d="M220.139,345.147l-2.721-1.213a7.453,7.453,0,1,1,3.975-6.546,7.532,7.532,0,0,1-1.881,5.04Zm-6.361-14.738a7.04,7.04,0,1,0,.113,14.079,7.256,7.256,0,0,0,3.391-1.069l.112-.063,2.005.895-.453-1.971.091-.1a7.032,7.032,0,0,0-5.258-11.772Z" transform="translate(-206.277 -329.892)" fill="#263238"/>
                  </g>
                  <g id="Group_1201" data-name="Group 1201" transform="translate(48.226 1.823)">
                    <path id="Path_2253" data-name="Path 2253" d="M232.035,343.722l-3.119-7.612-5.848-5.329,14.183-.113Zm-7.642-12.434,4.981,4.572,2.656,6.484,4.456-11.153Z" transform="translate(-223.069 -330.668)" fill="#263238"/>
                  </g>
                  <g id="Group_1202" data-name="Group 1202" transform="translate(54.392 1.822)">
                    <rect id="Rectangle_161" data-name="Rectangle 161" width="9.227" height="0.518" transform="matrix(0.838, -0.545, 0.545, 0.838, 0, 5.032)" fill="#263238"/>
                  </g>
                  <g id="Group_1203" data-name="Group 1203">
                    <path id="Path_2254" data-name="Path 2254" d="M204.277,332.826a4.387,4.387,0,0,0-8.652.289,4.387,4.387,0,0,0-8.654-.149,5.92,5.92,0,0,0,1.079,4.268,17.523,17.523,0,0,0,3.105,3.259c1.58,1.4,3.04,2.709,4.62,4.105,1.557-1.421,2.883-2.756,4.44-4.177a17.588,17.588,0,0,0,3.053-3.308A5.921,5.921,0,0,0,204.277,332.826Z" transform="translate(-186.898 -329.301)" fill="#e8505b"/>
                  </g>
                </g>
                <circle id="Ellipse_129" data-name="Ellipse 129" cx="9.621" cy="9.621" r="9.621" transform="translate(6.465)" fill="#ebebeb"/>
              </g>
              <g id="Group_1209" data-name="Group 1209" transform="translate(3.66 200.103)">
                <g id="Group_1206" data-name="Group 1206" transform="translate(0 15.006)">
                  <path id="Path_2255" data-name="Path 2255" d="M369.855,301.342c0,.192-40.345.347-90.1.347-49.774,0-90.11-.155-90.11-.347s40.336-.348,90.11-.348C329.51,300.994,369.855,301.15,369.855,301.342Z" transform="translate(-189.643 -300.994)" fill="#455a64"/>
                </g>
                <g id="Group_1207" data-name="Group 1207">
                  <path id="Path_2256" data-name="Path 2256" d="M369.855,290.086c0,.192-40.345.348-90.1.348-49.774,0-90.11-.156-90.11-.348s40.336-.347,90.11-.347C329.51,289.739,369.855,289.894,369.855,290.086Z" transform="translate(-189.643 -289.739)" fill="#455a64"/>
                </g>
                <g id="Group_1208" data-name="Group 1208" transform="translate(0 30.213)">
                  <path id="Path_2257" data-name="Path 2257" d="M287.734,312.747c0,.192-21.96.348-49.043.348s-49.047-.156-49.047-.348,21.955-.347,49.047-.347S287.734,312.556,287.734,312.747Z" transform="translate(-189.643 -312.4)" fill="#455a64"/>
                </g>
              </g>
            </g>
            <g id="Group_1214" data-name="Group 1214" transform="translate(117.365 490.856)">
              <g id="Group_1211" data-name="Group 1211">
                <path id="Path_2258" data-name="Path 2258" d="M256.049,436.266a3.829,3.829,0,1,1-3.812-3.9A3.855,3.855,0,0,1,256.049,436.266Z" transform="translate(-248.392 -432.363)" fill="#263238"/>
              </g>
              <g id="Group_1212" data-name="Group 1212" transform="translate(11.864 0.055)">
                <path id="Path_2259" data-name="Path 2259" d="M264.947,436.307a3.829,3.829,0,1,1-3.812-3.9A3.855,3.855,0,0,1,264.947,436.307Z" transform="translate(-257.29 -432.404)" fill="#263238"/>
              </g>
              <g id="Group_1213" data-name="Group 1213" transform="translate(23.727 0.109)">
                <path id="Path_2260" data-name="Path 2260" d="M273.845,436.348a3.829,3.829,0,1,1-3.812-3.9A3.852,3.852,0,0,1,273.845,436.348Z" transform="translate(-266.188 -432.445)" fill="#263238"/>
              </g>
            </g>
          </g>
          <g id="Group_1218" data-name="Group 1218" transform="translate(28.437 129.258)">
            <rect id="Rectangle_162" data-name="Rectangle 162" width="213.228" height="130.4" fill="#e0e0e0"/>
            <path id="Path_2261" data-name="Path 2261" d="M196.457,279.418l61.1-81.781,37.879,51.144,25.673-27.354,50.353,57.941Z" transform="translate(-176.773 -148.995)" fill="#f5f5f5"/>
            <g id="Group_1217" data-name="Group 1217" transform="translate(107.16 24.835)">
              <g id="Group_1216" data-name="Group 1216">
                <path id="Path_2262" data-name="Path 2262" d="M289.627,193.556a13.78,13.78,0,1,1-13.785-13.775A13.78,13.78,0,0,1,289.627,193.556Z" transform="translate(-262.067 -179.781)" fill="#f5f5f5"/>
              </g>
            </g>
          </g>
          <g id="Group_1219" data-name="Group 1219" transform="translate(27.516 85.525)">
            <path id="Path_2263" data-name="Path 2263" d="M394.577,423.675c0-2.789-.129-120.589-.315-294.975l.315.316-213.2.032h-.024l.347-.348c-.024,110.314-.047,212.406-.065,294.975l-.281-.283,213.226.283-213.226.283h-.283v-.283c-.019-82.569-.041-184.661-.065-294.975v-.347h.372l213.2.032h.315v.315c-.064,87.279-.117,161.055-.156,213.022-.036,25.946-.064,46.445-.084,60.467-.016,6.992-.029,12.368-.037,16q-.012,2.708-.019,4.105C394.589,423.218,394.577,423.675,394.577,423.675Z" transform="translate(-181.003 -128.353)" fill="#263238"/>
          </g>
        </g>
      </g>
    </g>
    <g id="Megaphone" transform="translate(110.673 156.108)">
      <g id="Group_1248" data-name="Group 1248" transform="translate(0)">
        <g id="Group_1242" data-name="Group 1242">
          <g id="Group_1240" data-name="Group 1240">
            <g id="Group_1222" data-name="Group 1222" transform="translate(141.655 266.593)">
              <path id="Path_2264" data-name="Path 2264" d="M287.637,395.39l4.717-15.849c.823-3.437,1.916-7.492,3.387-12.118,1.323-4.159,4.715-8.528,7.808-11.674,4.816-4.9,7.105-4.93,10.342-7.529.295-.189.623-.459.9-.609a5.105,5.105,0,0,0,1.573-1.361c2.789-3.017.111-7.686-5.553-7.242-4.265.335-11.22,1.555-22.527,13.221-.141.177-.289.325-.428.507-5.936,7.714-11.509-14.309-12.514-22.506-.652-5.318-6.406-8.588-11.612-6.664L236.184,336.45a12.858,12.858,0,0,0-8.041.272,8.187,8.187,0,0,0-5.248,9.718l11.173,44.6L201.252,500.226h70.729Z" transform="translate(-201.252 -323.009)" fill="#ffbe9d"/>
            </g>
            <g id="Group_1238" data-name="Group 1238">
              <g id="Group_1230" data-name="Group 1230">
                <g id="Group_1224" data-name="Group 1224" transform="translate(158.244 223.279)">
                  <g id="Group_1223" data-name="Group 1223">
                    <path id="Path_2265" data-name="Path 2265" d="M337.825,305.937,315.961,348.78l-10.932-3.037-54.951,44.7a11.131,11.131,0,0,1-15.462-1.375l-20.922-24.312s42.186-18.174,49.989-33.216-1.213-18.455-1.213-18.455l19.855-22.563Z" transform="translate(-213.694 -290.522)" fill="#e8505b"/>
                  </g>
                </g>
                <g id="Group_1225" data-name="Group 1225">
                  <path id="Path_2266" data-name="Path 2266" d="M349.024,274.233s-32-7.078-77.041-50.387-66.2-100.819-71.711-100.539S170.69,112.412,124.91,212,97.163,334.706,106.272,334.52s70.967-17.425,109.6-13.033,88.3,24.528,88.3,24.528Z" transform="translate(-95.007 -123.056)" fill="#e8505b"/>
                </g>
                <g id="Group_1226" data-name="Group 1226" transform="translate(202.283 132.411)">
                  <path id="Path_2267" data-name="Path 2267" d="M366.447,295.414l-10.918,20.759-4.892,9.3a27.093,27.093,0,0,1-35.316,12l-68.6-23.9,39.949-91.2,68.533,36.523A27.1,27.1,0,0,1,366.447,295.414Z" transform="translate(-246.725 -222.368)" fill="#e8505b"/>
                </g>
                <g id="Group_1227" data-name="Group 1227" transform="translate(202.283 132.411)" opacity="0.4">
                  <path id="Path_2268" data-name="Path 2268" d="M366.447,295.414l-10.918,20.759-4.892,9.3a27.093,27.093,0,0,1-35.316,12l-68.6-23.9,39.949-91.2,68.533,36.523A27.1,27.1,0,0,1,366.447,295.414Z" transform="translate(-246.725 -222.368)"/>
                </g>
                <g id="Group_1228" data-name="Group 1228" transform="translate(5.995 2.283)">
                  <path id="Path_2269" data-name="Path 2269" d="M127.11,213.239C102.747,267.184,92.6,315.255,104.458,320.61s41.213-34.04,65.577-87.985,34.505-102.016,22.652-107.369S151.476,159.293,127.11,213.239Z" transform="translate(-99.503 -124.769)" fill="#e8505b"/>
                </g>
                <g id="Group_1229" data-name="Group 1229" transform="translate(5.995 2.283)" opacity="0.5">
                  <path id="Path_2270" data-name="Path 2270" d="M127.11,213.239C102.747,267.184,92.6,315.255,104.458,320.61s41.213-34.04,65.577-87.985,34.505-102.016,22.652-107.369S151.476,159.293,127.11,213.239Z" transform="translate(-99.503 -124.769)"/>
                </g>
              </g>
              <g id="Group_1231" data-name="Group 1231" transform="translate(309.3 207.737)">
                <path id="Path_2271" data-name="Path 2271" d="M345.583,306.58l-18.593-5.839L338.5,278.865l13.944,8.668Z" transform="translate(-326.991 -278.865)" fill="#e8505b"/>
              </g>
              <g id="Group_1232" data-name="Group 1232" transform="translate(309.3 207.737)" opacity="0.6">
                <path id="Path_2272" data-name="Path 2272" d="M338.5,278.865l-11.506,21.877,3.82,1.2,9.354-22.04Z" transform="translate(-326.991 -278.865)"/>
              </g>
              <g id="Group_1233" data-name="Group 1233" transform="translate(267.523 194.43)">
                <path id="Path_2273" data-name="Path 2273" d="M336.129,287.238c-.273.6-9.553-3.005-20.723-8.056s-20.017-9.633-19.743-10.233,9.548,3.007,20.725,8.057S336.4,286.638,336.129,287.238Z" transform="translate(-295.656 -268.884)" fill="#e8505b"/>
              </g>
              <g id="Group_1234" data-name="Group 1234" transform="translate(277.25 181.736)">
                <path id="Path_2274" data-name="Path 2274" d="M339.415,277.382c-.293.593-8.689-2.947-18.755-7.9s-17.993-9.457-17.7-10.05,8.684,2.949,18.754,7.908S339.705,276.79,339.415,277.382Z" transform="translate(-302.952 -259.364)" fill="#e8505b"/>
              </g>
              <g id="Group_1235" data-name="Group 1235" transform="translate(263.887 209.982)">
                <path id="Path_2275" data-name="Path 2275" d="M329.825,297.016c-.1.317-2.307-.193-5.83-1.281-1.76-.544-3.845-1.232-6.153-2.031-2.292-.831-4.672-2.035-7.222-3.189-10.172-4.722-17.938-9.345-17.683-9.893.3-.647,8.6,3.047,18.679,7.722,2.528,1.145,4.873,2.407,7.084,3.331,2.219.9,4.209,1.735,5.87,2.472C327.9,295.625,329.921,296.7,329.825,297.016Z" transform="translate(-292.929 -280.549)" fill="#e8505b"/>
              </g>
              <g id="Group_1236" data-name="Group 1236" transform="translate(35.853 74.806)">
                <path id="Path_2276" data-name="Path 2276" d="M169.319,183.114s-27.816-17.249-43.036,20.333,14.047,43.761,14.047,43.761C152.308,228.636,162.037,207.351,169.319,183.114Z" transform="translate(-121.897 -179.163)" fill="#e8505b"/>
              </g>
              <g id="Group_1237" data-name="Group 1237" transform="translate(33.16 33.968)" opacity="0.5">
                <path id="Path_2277" data-name="Path 2277" d="M199.575,148.533c.163.028-.232,2.58-1.089,7.18-.88,4.593-2.124,11.26-3.908,19.443-1.176,4.032-2.461,8.433-3.84,13.151q-1.046,3.548-2.161,7.325-.56,1.89-1.135,3.829c-.416,1.284-.957,2.544-1.441,3.841-2,5.17-4.105,10.594-6.284,16.214q-.82,2.11-1.656,4.253c-.541,1.436-1.307,2.787-1.956,4.2q-2.04,4.206-4.133,8.525t-4.148,8.522c-.709,1.385-1.3,2.823-2.093,4.137l-2.32,3.932-8.864,14.967c-.723,1.183-1.376,2.387-2.129,3.507q-1.17,1.656-2.312,3.267-2.282,3.214-4.429,6.238c-2.861,4-5.53,7.74-7.974,11.16-5.318,6.445-9.78,11.529-12.844,15.058-3.083,3.513-4.848,5.405-4.974,5.3s1.4-2.2,4.257-5.892L136.4,291.154l7.676-11.248q2.076-3.026,4.29-6.248l2.247-3.263c.732-1.121,1.371-2.328,2.073-3.511l8.685-14.937,2.285-3.915c.783-1.307,1.364-2.736,2.067-4.115q2.024-4.178,4.105-8.468l4.116-8.46c.649-1.4,1.415-2.743,1.956-4.165q.838-2.124,1.664-4.214c2.208-5.565,4.34-10.936,6.37-16.055.495-1.284,1.048-2.528,1.477-3.8q.6-1.922,1.177-3.789,1.164-3.734,2.261-7.245c1.471-4.664,2.841-9.014,4.1-13l4.628-19.2C198.708,151,199.414,148.505,199.575,148.533Z" transform="translate(-119.877 -148.533)"/>
              </g>
            </g>
            <g id="Group_1239" data-name="Group 1239" transform="translate(164.909 256.426)" opacity="0.4">
              <path id="Path_2278" data-name="Path 2278" d="M218.693,353.485c2.537,4.607,5.126,9.285,8.882,12.966s8.912,6.289,14.143,5.762,10.19-4.873,10.246-10.132c2.512,1.888,6.361.865,8.441-1.489s2.756-5.625,3.005-8.756c3.411,2.012,8.154.416,10.43-2.824s2.417-7.605,1.315-11.409-3.305-7.177-5.476-10.488c2.625.212,5.408.395,7.757-.8s3.937-4.3,2.565-6.549a6.526,6.526,0,0,0-3.824-2.439c-4.116-1.288-7-2.32-11.288-1.823-1,.011,1.715,11.3-25.178,26.744C223.838,351.372,218.693,353.485,218.693,353.485Z" transform="translate(-218.693 -315.383)"/>
            </g>
          </g>
          <g id="Group_1241" data-name="Group 1241" transform="translate(198.149 310.206)">
            <path id="Path_2279" data-name="Path 2279" d="M270.942,356.356c-.017.124-1.808-.22-4.709-.141a26.623,26.623,0,0,0-19.765,9.476c-1.877,2.213-2.731,3.824-2.839,3.76a4.119,4.119,0,0,1,.527-1.167,21.292,21.292,0,0,1,1.932-2.9,25.19,25.19,0,0,1,20.141-9.656,21.467,21.467,0,0,1,3.474.311A4.1,4.1,0,0,1,270.942,356.356Z" transform="translate(-243.624 -355.72)" fill="#eb996e"/>
          </g>
          <path id="Path_2280" data-name="Path 2280" d="M220.008,344.507c4.332,4.161,7.294,8.756,11.838,12.946,2.064,1.9,5.272,5.512,8.04,5.992s4.54.112,5.636-2.475c.887-2.095-.707-4.957-1.807-6.684-2.895-4.54-5.662-8.09-7.83-11.621-1.016-1.653.3-1.995.779-1.229,2.085,2.161,5.194,4.034,7.062,6.388,2.557,3.223,3.021,7.489,9.713,6.14a6.031,6.031,0,0,0,2.484-1.032c2.519-1.928,2.624-5.28,1.564-7.965a21.8,21.8,0,0,0-3.725-5.636c2.848,3.216,5.957,6.6,10.486,6.968a6.238,6.238,0,0,0,6.341-3.432c1.34-3.043-.581-5.984-2.509-8.362a87.1,87.1,0,0,0-11.372-11.617,8.652,8.652,0,0,0-5.528-2.049c-2.341-.016-5.273.425-6.721,2.463a9.092,9.092,0,0,0-1.819,6.969s-5.874-2.979-10.594.136a14.97,14.97,0,0,0-5.888,8.469Z" transform="translate(-53.346 -57.139)" fill="#ffbe9d"/>
          <path id="Path_2281" data-name="Path 2281" d="M243.871,323.043c-1.817-1.831-2.241-5.18-.831-7.946,1-1.957,2.26-3.86,3.537-4.292,5.588-1.885,30,2.339,29.779,7.758-.228,5.564-2.005,8.012-15.255,6.1-2.331-.336-5.988-.8-5.988-.8l-3.2,4.8Z" transform="translate(-45.95 -60.635)" fill="#ffbe9d"/>
        </g>
        <g id="Group_1243" data-name="Group 1243" transform="translate(188.838 272.887)">
          <path id="Path_2282" data-name="Path 2282" d="M250.1,339.939c-.193.119-2.052-3.673-5.844-7.07-3.755-3.444-7.708-4.923-7.609-5.126a7.8,7.8,0,0,1,2.584.911,23.187,23.187,0,0,1,9.71,8.8A7.8,7.8,0,0,1,250.1,339.939Z" transform="translate(-236.641 -327.729)" fill="#eb996e"/>
        </g>
        <g id="Group_1244" data-name="Group 1244" transform="translate(198.351 263.683)">
          <path id="Path_2283" data-name="Path 2283" d="M251.826,325.59c-.123.113-1.733-1.2-3.932-2.547a27.632,27.632,0,0,0-2.865-1.58c-.755-.355-1.255-.452-1.253-.556,0-.088.575-.16,1.423.1a13.126,13.126,0,0,1,3.061,1.449C250.513,323.83,251.989,325.443,251.826,325.59Z" transform="translate(-243.776 -320.826)" fill="#eb996e"/>
        </g>
        <g id="Group_1245" data-name="Group 1245" transform="translate(201.895 260.192)">
          <path id="Path_2284" data-name="Path 2284" d="M255.039,321.425a10.549,10.549,0,0,1-4.7-.529,8.594,8.594,0,0,1-3.009-1.577c-.671-.571-.949-1.047-.884-1.1a19.683,19.683,0,0,0,4.1,2.017C252.963,320.935,255.075,321.2,255.039,321.425Z" transform="translate(-246.434 -318.208)" fill="#eb996e"/>
        </g>
        <g id="Group_1246" data-name="Group 1246" transform="translate(167.374 279.642)">
          <path id="Path_2285" data-name="Path 2285" d="M239.94,344.958a17,17,0,0,1-2.225-2.893c-1.311-1.805-2.979-4.5-5.7-6.477a11.488,11.488,0,0,0-8.072-2.139,14.675,14.675,0,0,0-3.4,1.081c-.024-.031.232-.279.779-.616a7.6,7.6,0,0,1,2.543-.949,11.342,11.342,0,0,1,8.556,2.059,23.2,23.2,0,0,1,5.7,6.77A21.692,21.692,0,0,1,239.94,344.958Z" transform="translate(-220.542 -332.796)" fill="#eb996e"/>
        </g>
        <g id="Group_1247" data-name="Group 1247" transform="translate(185.416 345.749)">
          <path id="Path_2286" data-name="Path 2286" d="M254.108,382.431c.02.191-4.448.833-9.98,1.435s-10.033.935-10.054.744,4.446-.833,9.98-1.435S254.087,382.241,254.108,382.431Z" transform="translate(-234.074 -382.378)" fill="#eb996e"/>
        </g>
      </g>
    </g>
    <g id="Stars" transform="translate(48.947 58.495)">
      <g id="Group_1249" data-name="Group 1249">
        <path id="Path_2287" data-name="Path 2287" d="M407.7,49.844,409.2,52.6l2.752,1.505L409.2,55.606,407.7,58.358l-1.505-2.752L403.438,54.1l2.752-1.505Z" transform="translate(69.514 -49.844)" fill="#e8505b"/>
        <path id="Path_2288" data-name="Path 2288" d="M431.3,101.014l1.505,2.752,2.752,1.505-2.752,1.505-1.505,2.752-1.505-2.752-2.752-1.505,2.752-1.505Z" transform="translate(77.381 -32.79)" fill="#e8505b"/>
        <path id="Path_2289" data-name="Path 2289" d="M52.968,237.533l1.505,2.752,2.752,1.505-2.752,1.5-1.505,2.752L51.462,243.3l-2.752-1.5,2.752-1.505Z" transform="translate(-48.711 12.71)" fill="#e8505b"/>
        <path id="Path_2290" data-name="Path 2290" d="M378.119,62.562l3.476,6.355,6.355,3.476-6.355,3.476-3.476,6.355-3.476-6.355-6.355-3.476,6.355-3.476Z" transform="translate(57.799 -45.605)" fill="#e8505b"/>
        <path id="Path_2291" data-name="Path 2291" d="M75.513,205.1l3.468,6.341,6.341,3.468-6.341,3.468-3.468,6.341-3.468-6.341L65.7,214.906l6.341-3.468Z" transform="translate(-43.047 1.9)" fill="#e8505b"/>
        <path id="Path_2292" data-name="Path 2292" d="M439.11,318.565l3.468,6.341,6.341,3.468-6.341,3.468-3.468,6.341-3.468-6.341-6.341-3.468,6.341-3.468Z" transform="translate(78.133 39.717)" fill="#e8505b"/>
      </g>
    </g>
  </g>
</svg>
