<svg xmlns="http://www.w3.org/2000/svg" width="71.933" height="67.051" viewBox="0 0 71.933 67.051">
  <g id="Group_1596" data-name="Group 1596" transform="translate(-190.362 -189.004)">
    <rect id="Rectangle_196" data-name="Rectangle 196" width="13.391" height="32.185" transform="translate(190.362 223.871)" fill="#a1cc3a"/>
    <rect id="Rectangle_197" data-name="Rectangle 197" width="13.391" height="48.188" transform="translate(209.876 207.867)" fill="#a1cc3a"/>
    <rect id="Rectangle_198" data-name="Rectangle 198" width="13.391" height="32.185" transform="translate(229.39 223.871)" fill="#a1cc3a"/>
    <rect id="Rectangle_199" data-name="Rectangle 199" width="13.391" height="48.188" transform="translate(248.904 207.867)" fill="#a1cc3a"/>
    <circle id="Ellipse_142" data-name="Ellipse 142" cx="4.463" cy="4.463" r="4.463" transform="translate(192.594 204.357)" fill="#fff"/>
    <circle id="Ellipse_143" data-name="Ellipse 143" cx="4.463" cy="4.463" r="4.463" transform="translate(212.108 189.004)" fill="#fff"/>
    <circle id="Ellipse_144" data-name="Ellipse 144" cx="4.463" cy="4.463" r="4.463" transform="translate(231.622 204.357)" fill="#fff"/>
    <circle id="Ellipse_145" data-name="Ellipse 145" cx="4.463" cy="4.463" r="4.463" transform="translate(251.136 189.004)" fill="#fff"/>
    <g id="Group_1595" data-name="Group 1595" transform="translate(196.597 192.52)">
      <path id="Path_2960" data-name="Path 2960" d="M292.617,241.642,273.1,226.289l-19.053,14.99-.921-1.171L273.1,224.393l19.514,15.353,19.053-14.99.921,1.171Z" transform="translate(-253.129 -224.393)" fill="#fff"/>
    </g>
  </g>
</svg>
