<svg xmlns="http://www.w3.org/2000/svg" width="94.556" height="122" viewBox="0 0 94.556 122">
  <g id="Group_1586" data-name="Group 1586" transform="translate(-262.87 -190.362)">
    <path id="Path_2949" data-name="Path 2949" d="M397.509,432.4a31.369,31.369,0,1,0,31.369,31.369A31.368,31.368,0,0,0,397.509,432.4Zm0,52.133a20.764,20.764,0,1,1,20.763-20.764A20.765,20.765,0,0,1,397.509,484.533Z" transform="translate(-83.929 -196.708)" fill="#fff"/>
    <circle id="Ellipse_140" data-name="Ellipse 140" cx="13.006" cy="13.006" r="13.006" transform="translate(277.025 190.362)" fill="#a1cc3a"/>
    <path id="Path_2950" data-name="Path 2950" d="M314.578,359.14c-.332-.009-.665-.015-1-.015A34.941,34.941,0,0,0,279.492,386.4H262.87V370.338a23.717,23.717,0,0,1,23.718-23.718h7.078A23.71,23.71,0,0,1,314.578,359.14Z" transform="translate(0 -126.993)" fill="#a1cc3a"/>
    <path id="Path_2951" data-name="Path 2951" d="M643.539,716.939a10.045,10.045,0,0,1-14.2-.33l-10.6-11.1a35.09,35.09,0,0,0,14.483-13.915l10.645,11.151A10.044,10.044,0,0,1,643.539,716.939Z" transform="translate(-289.22 -407.355)" fill="#fff"/>
    <g id="Group_1584" data-name="Group 1584" transform="translate(300.915 256.763)">
      <path id="Path_2952" data-name="Path 2952" d="M467.415,561.2a1.4,1.4,0,0,1-.993-2.4l13.485-13.485a1.4,1.4,0,0,1,1.986,1.987l-13.485,13.485A1.4,1.4,0,0,1,467.415,561.2Z" transform="translate(-466.01 -544.905)" fill="#fff"/>
    </g>
    <g id="Group_1585" data-name="Group 1585" transform="translate(307.658 263.505)">
      <path id="Path_2953" data-name="Path 2953" d="M503.415,597.2a1.4,1.4,0,0,1-.993-2.4l13.484-13.485a1.4,1.4,0,0,1,1.987,1.987l-13.485,13.485A1.4,1.4,0,0,1,503.415,597.2Z" transform="translate(-502.011 -580.905)" fill="#fff"/>
    </g>
  </g>
</svg>
