<svg xmlns="http://www.w3.org/2000/svg" width="486.621" height="424.5" viewBox="0 0 486.621 424.5"><g transform="translate(-217.379 -535.5)"><g transform="translate(252 560)" fill="#0e0e0e" stroke="#fff" stroke-width="2"><rect width="379" height="400" rx="63" stroke="none"/><rect x="1" y="1" width="377" height="398" rx="62" fill="none"/></g><g transform="translate(19 10)"><path d="M4217.867,1998.4v201.067h187.2" transform="translate(-4004 -1276)" fill="none" stroke="#fff" stroke-linecap="round" stroke-linejoin="round" stroke-width="3"/><circle cx="5" cy="5" r="5" transform="translate(209 712)" fill="none" stroke="#fff" stroke-width="3"/><circle cx="5" cy="5" r="5" transform="translate(401 918)" fill="none" stroke="#fff" stroke-width="3"/></g><g transform="translate(455 537)"><path d="M4405.067,2199.467V1998.4h-187.2" transform="translate(-4207.934 -1993.867)" fill="none" stroke="#fff" stroke-linecap="round" stroke-linejoin="round" stroke-width="3"/><circle cx="5" cy="5" r="5" transform="translate(192 206)" fill="none" stroke="#fff" stroke-width="3"/><circle cx="5" cy="5" r="5" fill="none" stroke="#fff" stroke-width="3"/></g><text transform="translate(625 897)" fill="#fff" font-size="133" font-family="PlayfairDisplay-Bold, Playfair Display" font-weight="700" letter-spacing="0.01em"><tspan x="-78.337" y="0">02</tspan></text><g transform="translate(-4 3)"><line x1="22" y2="22" transform="translate(648.5 759)" fill="none" stroke="#fff" stroke-linecap="round" stroke-width="3"/><line x1="22" y2="22" transform="translate(648.5 767)" fill="none" stroke="#fff" stroke-linecap="round" stroke-width="3"/><line x1="22" y2="22" transform="translate(648.5 775)" fill="none" stroke="#fff" stroke-linecap="round" stroke-width="3"/><line x1="22" y2="22" transform="translate(648.5 783)" fill="none" stroke="#fff" stroke-linecap="round" stroke-width="3"/><line x1="22" y2="22" transform="translate(648.5 791)" fill="none" stroke="#fff" stroke-linecap="round" stroke-width="3"/></g><g transform="translate(-429 -105)"><line x1="22" y2="22" transform="translate(648.5 759)" fill="none" stroke="#fff" stroke-linecap="round" stroke-width="3"/><line x1="22" y2="22" transform="translate(648.5 767)" fill="none" stroke="#fff" stroke-linecap="round" stroke-width="3"/><line x1="22" y2="22" transform="translate(648.5 775)" fill="none" stroke="#fff" stroke-linecap="round" stroke-width="3"/><line x1="22" y2="22" transform="translate(648.5 783)" fill="none" stroke="#fff" stroke-linecap="round" stroke-width="3"/><line x1="22" y2="22" transform="translate(648.5 791)" fill="none" stroke="#fff" stroke-linecap="round" stroke-width="3"/></g></g></svg>