<svg xmlns="http://www.w3.org/2000/svg" width="93.613" height="63.498" viewBox="0 0 93.613 63.498">
  <g id="Group_619" data-name="Group 619" transform="translate(-1168.502 -187.484)">
    <g id="Group_618" data-name="Group 618" transform="translate(1168.502 187.484)">
      <g id="Group_604" data-name="Group 604" transform="translate(22.095 9.337)">
        <g id="Group_602" data-name="Group 602" transform="translate(0.769 0.77)">
          <path id="Path_1831" data-name="Path 1831" d="M1193.226,227.144l37.509.076,23.745-32.665H1184.5Z" transform="translate(-1184.499 -194.556)" fill="#a1cc3a"/>
        </g>
        <g id="Group_603" data-name="Group 603">
          <path id="Path_1832" data-name="Path 1832" d="M1230.965,228.221h0l-37.508-.076a.77.77,0,0,1,0-1.539h0l37.116.077,22.628-31.126H1184.73a.77.77,0,0,1,0-1.539h69.981a.77.77,0,0,1,.622,1.222L1231.587,227.9A.766.766,0,0,1,1230.965,228.221Z" transform="translate(-1183.961 -194.017)" fill="#fff"/>
        </g>
      </g>
      <g id="Group_605" data-name="Group 605">
        <path id="Path_1833" data-name="Path 1833" d="M1253.9,240.065h-51.365a.772.772,0,0,1-.743-.572l-13.525-50.47h-18.995a.77.77,0,0,1,0-1.539h19.583a.769.769,0,0,1,.743.572l13.526,50.47H1253.9a.77.77,0,0,1,0,1.539Z" transform="translate(-1168.502 -187.484)" fill="#fff"/>
      </g>
      <g id="Group_606" data-name="Group 606" transform="translate(25.114 20.631)">
        <path id="Path_1834" data-name="Path 1834" d="M1245.444,203.457h-58.6a.769.769,0,0,1,0-1.538h58.6a.769.769,0,0,1,0,1.538Z" transform="translate(-1186.073 -201.919)" fill="#fff"/>
      </g>
      <g id="Group_607" data-name="Group 607" transform="translate(28.019 31.477)">
        <path id="Path_1835" data-name="Path 1835" d="M1236.841,211.045h-47.966a.769.769,0,1,1,0-1.538h47.966a.769.769,0,0,1,0,1.538Z" transform="translate(-1188.106 -209.507)" fill="#fff"/>
      </g>
      <g id="Group_610" data-name="Group 610" transform="translate(40.495 51.256)">
        <g id="Group_608" data-name="Group 608" transform="translate(0.769 0.769)">
          <path id="Path_1836" data-name="Path 1836" d="M1205.085,224.44a5.262,5.262,0,0,0-4.708,0,5.358,5.358,0,1,0,4.708,0Zm-2.354,9.379a4.583,4.583,0,1,1,4.589-4.577A4.6,4.6,0,0,1,1202.731,233.819Z" transform="translate(-1197.373 -223.884)" fill="#e84c3d"/>
        </g>
        <g id="Group_609" data-name="Group 609">
          <path id="Path_1837" data-name="Path 1837" d="M1206.758,224.671a6.126,6.126,0,0,0-9.923,4.8,6.126,6.126,0,1,0,9.923-4.8Zm-3.8,9.379a4.583,4.583,0,1,1,4.589-4.577A4.6,4.6,0,0,1,1202.962,234.05Z" transform="translate(-1196.835 -223.346)" fill="#fff"/>
        </g>
      </g>
      <g id="Group_613" data-name="Group 613" transform="translate(67.144 51.256)">
        <g id="Group_611" data-name="Group 611" transform="translate(0.767 0.769)">
          <path id="Path_1838" data-name="Path 1838" d="M1223.729,224.44a5.261,5.261,0,0,0-4.708,0,5.358,5.358,0,1,0,4.708,0Zm-2.354,9.379a4.583,4.583,0,1,1,4.589-4.577A4.591,4.591,0,0,1,1221.375,233.819Z" transform="translate(-1216.017 -223.884)" fill="#e84c3d"/>
        </g>
        <g id="Group_612" data-name="Group 612">
          <path id="Path_1839" data-name="Path 1839" d="M1225.4,224.671a6.121,6.121,0,1,0-3.8,10.917,6.114,6.114,0,0,0,3.8-10.917Zm-3.8,9.379a4.583,4.583,0,1,1,4.589-4.577A4.591,4.591,0,0,1,1221.606,234.05Z" transform="translate(-1215.48 -223.346)" fill="#fff"/>
        </g>
      </g>
      <g id="Group_614" data-name="Group 614" transform="translate(50.083 9.337)">
        <path id="Path_1840" data-name="Path 1840" d="M1204.312,228.01a.769.769,0,0,1-.769-.769V194.787a.769.769,0,1,1,1.538,0v32.454A.768.768,0,0,1,1204.312,228.01Z" transform="translate(-1203.543 -194.017)" fill="#fff"/>
      </g>
      <g id="Group_615" data-name="Group 615" transform="translate(62.639 9.337)">
        <path id="Path_1841" data-name="Path 1841" d="M1213.1,228.221a.769.769,0,0,1-.769-.769V194.787a.77.77,0,1,1,1.54,0v32.664A.77.77,0,0,1,1213.1,228.221Z" transform="translate(-1212.328 -194.017)" fill="#fff"/>
      </g>
      <g id="Group_616" data-name="Group 616" transform="translate(75.358 9.337)">
        <path id="Path_1842" data-name="Path 1842" d="M1222,217.694a.768.768,0,0,1-.769-.769V194.787a.769.769,0,1,1,1.538,0v22.138A.768.768,0,0,1,1222,217.694Z" transform="translate(-1221.227 -194.017)" fill="#fff"/>
      </g>
      <g id="Group_617" data-name="Group 617" transform="translate(37.488 9.337)">
        <path id="Path_1843" data-name="Path 1843" d="M1195.5,228.01a.769.769,0,0,1-.769-.769V194.787a.769.769,0,1,1,1.538,0v32.454A.768.768,0,0,1,1195.5,228.01Z" transform="translate(-1194.731 -194.017)" fill="#fff"/>
      </g>
    </g>
  </g>
</svg>
