<svg xmlns="http://www.w3.org/2000/svg" width="143.901" height="122" viewBox="0 0 143.901 122">
  <g id="Group_781" data-name="Group 781" transform="translate(-284.895 -177.09)">
    <g id="Group_217" data-name="Group 217" transform="translate(367.163 177.09)">
      <path id="Path_508" data-name="Path 508" d="M550.641,187.842l10.3-10.752H530.89v30.888h3.027v-9.953h27.213Zm-16.725-7.722h19.932l-7.475,7.8,7.291,7.08H533.917Z" transform="translate(-530.89 -177.09)" fill="#fff"/>
    </g>
    <g id="Group_214" data-name="Group 214" transform="translate(284.895 207.122)">
      <path id="Path_2882" data-name="Path 2882" d="M519.737,288.477a5.26,5.26,0,0,0-2.629,1.318,12.637,12.637,0,0,0-1.515,1.672c-1.08,1.348-1.816,2.174-3.261,2.174s-2.177-.826-3.257-2.174c-1.1-1.371-2.465-3.077-5.154-3.077s-4.053,1.706-5.15,3.077c-1.08,1.348-1.816,2.174-3.257,2.174s-2.18-.826-3.261-2.174a13.087,13.087,0,0,0-1.482-1.645,5.276,5.276,0,0,0-2.612-1.334l14.29-21.6v.856h3.027v-.12Z" transform="translate(-420.182 -266.89)" fill="#fff"/>
      <path id="Path_2883" data-name="Path 2883" d="M332.6,365.036l-11.421-15.354-35.567,49.131a3.7,3.7,0,0,0-.291,3.9,3.789,3.789,0,0,0,3.378,2.04H424.518A4.278,4.278,0,0,0,428.3,402.5a4.192,4.192,0,0,0-.234-4.354l-42.6-62.3v.779a2.986,2.986,0,0,0-2.288,1.043,14,14,0,0,0-.973,1.134c-1.1,1.368-2.465,3.073-5.154,3.073s-4.053-1.706-5.15-3.073c-1.08-1.351-1.816-2.177-3.261-2.177s-2.177.826-3.257,2.177c-1.1,1.368-2.465,3.073-5.15,3.073s-4.053-1.706-5.15-3.073c-.328-.411-.625-.776-.92-1.08a3.031,3.031,0,0,0-2.341-1.1M302.05,390.76l6.943-10.6a1.17,1.17,0,1,1,1.956,1.284l-6.943,10.6a1.172,1.172,0,0,1-.98.528,1.157,1.157,0,0,1-.639-.191A1.171,1.171,0,0,1,302.05,390.76Zm107.359-.191a1.149,1.149,0,0,1-.639.191,1.164,1.164,0,0,1-.98-.528l-13.886-21.2a1.172,1.172,0,0,1,1.96-1.284l13.882,21.2A1.168,1.168,0,0,1,409.408,390.569Z" transform="translate(-284.895 -312.788)" fill="#a1cc3a"/>
    </g>
  </g>
</svg>
