<svg xmlns="http://www.w3.org/2000/svg" width="75.589" height="75.594" viewBox="0 0 75.589 75.594">
  <g id="Group_588" data-name="Group 588" transform="translate(-1067.535 -186.838)">
    <g id="Group_587" data-name="Group 587" transform="translate(-47 1)">
      <g id="Group_575" data-name="Group 575" transform="translate(1114.535 185.838)">
        <g id="Group_573" data-name="Group 573" transform="translate(1.081 1.345)">
          <path id="Path_1815" data-name="Path 1815" d="M1188.6,223.108a36.711,36.711,0,1,1-41.38-36.417c-4.242,2.146-7.88,7.226-10.379,14.084a4.863,4.863,0,0,0-1.006-.117,4.188,4.188,0,0,0-1.207,8.2,71.446,71.446,0,0,0,.3,28.688,3.354,3.354,0,0,0,.067,6.707,3.315,3.315,0,0,0,1.71-.469c3.336,9.423,8.836,15.56,15.056,15.56s11.72-6.137,15.057-15.56a3.315,3.315,0,0,0,1.71.469,3.354,3.354,0,0,0,.067-6.707,68.843,68.843,0,0,0,1.609-15.09c0-17.32-5.969-31.857-14.017-35.814A36.721,36.721,0,0,1,1188.6,223.108Z" transform="translate(-1115.18 -186.64)" fill="#a1cc3a"/>
        </g>
        <g id="Group_574" data-name="Group 574">
          <path id="Path_1816" data-name="Path 1816" d="M1152.337,261.432a37.8,37.8,0,1,1,37.787-37.789A37.838,37.838,0,0,1,1152.337,261.432Zm0-73.413a35.616,35.616,0,1,0,35.607,35.624A35.665,35.665,0,0,0,1152.337,188.019Z" transform="translate(-1114.535 -185.838)" fill="#fff"/>
        </g>
      </g>
      <g id="Group_578" data-name="Group 578" transform="translate(1132.45 185.838)">
        <g id="Group_577" data-name="Group 577">
          <g id="Group_576" data-name="Group 576">
            <path id="Path_1817" data-name="Path 1817" d="M1145.09,261.432c-6.626,0-12.775-6.167-16.445-16.493a1.088,1.088,0,0,1,.7-1.405,2.723,2.723,0,0,0,1.237-4.381,2.675,2.675,0,0,0-2.062-.951,2.177,2.177,0,0,0-.58.065,1.116,1.116,0,0,1-.864-.117,1.1,1.1,0,0,1-.5-.713,70.966,70.966,0,0,1,.154-28.358,1.093,1.093,0,0,1,.495-.7,1.062,1.062,0,0,1,.845-.126,2.675,2.675,0,0,0,3.34-2.183c0-.029.01-.057.017-.087a1.784,1.784,0,0,0,.03-.369,2.75,2.75,0,0,0-1.87-2.579,1.09,1.09,0,0,1-.681-1.417c3.744-10.03,9.642-15.784,16.185-15.784,6.858,0,13.123,6.49,16.76,17.362.252.768.468,1.434.672,2.129l.008.03a67.128,67.128,0,0,1,2.445,18.284,68.735,68.735,0,0,1-1.353,13.779,1.083,1.083,0,0,1-.5.711,1.1,1.1,0,0,1-.862.121,2.143,2.143,0,0,0-.585-.067,2.718,2.718,0,0,0-.806,5.315,1.09,1.09,0,0,1,.7,1.405C1157.9,255.254,1151.737,261.432,1145.09,261.432Zm-14.049-16.292c3.365,8.856,8.575,14.111,14.049,14.111,5.491,0,10.712-5.263,14.081-14.134a4.9,4.9,0,0,1,2.505-9.109h0a67.167,67.167,0,0,0,1.117-12.364,65.636,65.636,0,0,0-2.1-16.747,90.932,90.932,0,0,1-15.471,1.348h0a.113.113,0,0,0-.034,0h0a90.591,90.591,0,0,1-11.909-.795,4.863,4.863,0,0,1-4.547,3.073l-.075,0a69.127,69.127,0,0,0-.138,25.5h0a4.919,4.919,0,0,1,4.847,5.692A5,5,0,0,1,1131.041,245.14Zm14.146-39.077h0a88.671,88.671,0,0,0,14.887-1.271q-.131-.4-.262-.8c-3.357-10.038-8.85-15.972-14.724-15.972-5.305,0-10.414,5-13.782,13.432a4.887,4.887,0,0,1,2.316,3.845q.583.078,1.165.146a87.811,87.811,0,0,0,10.3.622c.03,0,.064,0,.1,0Z" transform="translate(-1125.22 -185.838)" fill="#fff"/>
          </g>
        </g>
      </g>
      <g id="Group_581" data-name="Group 581" transform="translate(1114.535 222.552)">
        <g id="Group_579" data-name="Group 579" transform="translate(1.089 1.091)">
          <line id="Line_40" data-name="Line 40" x2="73.41" fill="#00adef"/>
        </g>
        <g id="Group_580" data-name="Group 580">
          <path id="Path_1818" data-name="Path 1818" d="M1189.035,209.916h-73.41a1.091,1.091,0,0,1,0-2.181h73.41a1.091,1.091,0,0,1,0,2.181Z" transform="translate(-1114.535 -207.735)" fill="#fff"/>
        </g>
      </g>
      <g id="Group_582" data-name="Group 582" transform="translate(1151.249 185.838)">
        <path id="Path_1819" data-name="Path 1819" d="M1137.52,261.432a1.09,1.09,0,0,1-1.088-1.091V186.928a1.089,1.089,0,1,1,2.178,0v73.413A1.09,1.09,0,0,1,1137.52,261.432Z" transform="translate(-1136.432 -185.838)" fill="#fff"/>
      </g>
      <g id="Group_583" data-name="Group 583" transform="translate(1121.494 200.715)">
        <path id="Path_1820" data-name="Path 1820" d="M1133.153,204.52a4.909,4.909,0,0,1-4.9-4.825c-2.884-.684-5.846-1.529-8.821-2.523a1.09,1.09,0,1,1,.691-2.067c2.892.966,5.769,1.791,8.571,2.455a4.91,4.91,0,0,1,9.354,1.734,89.5,89.5,0,0,0,40.867-4.187,1.09,1.09,0,1,1,.7,2.064,91.644,91.644,0,0,1-41.905,4.277A4.869,4.869,0,0,1,1133.153,204.52Zm-2.677-5.426a2.4,2.4,0,0,0-.045.52,2.728,2.728,0,0,0,2.723,2.726,2.692,2.692,0,0,0,2.678-2.272c0-.028.01-.057.017-.084a1.955,1.955,0,0,0,.03-.371,2.726,2.726,0,0,0-5.394-.555l-.005.025Z" transform="translate(-1118.685 -194.711)" fill="#fff"/>
      </g>
      <g id="Group_584" data-name="Group 584" transform="translate(1121.494 238.268)">
        <path id="Path_1821" data-name="Path 1821" d="M1119.776,224.306a1.09,1.09,0,0,1-.349-2.123c3.067-1.034,6.274-1.94,9.53-2.694a1.091,1.091,0,0,1,.491,2.126c-3.187.734-6.324,1.623-9.326,2.634A1.083,1.083,0,0,1,1119.776,224.306Zm59.489,0a1.038,1.038,0,0,1-.346-.057,95.83,95.83,0,0,0-9.322-2.649,1.089,1.089,0,1,1,.479-2.124,96.618,96.618,0,0,1,9.535,2.708,1.089,1.089,0,0,1-.347,2.123Zm-42.569-4.069a1.091,1.091,0,0,1-.157-2.17,89.825,89.825,0,0,1,25.965-.03,1.09,1.09,0,0,1-.313,2.158,87.562,87.562,0,0,0-25.334.03A1.3,1.3,0,0,1,1136.7,220.236Z" transform="translate(-1118.686 -217.108)" fill="#fff"/>
      </g>
      <g id="Group_585" data-name="Group 585" transform="translate(1164.003 236.007)">
        <path id="Path_1822" data-name="Path 1822" d="M1148.942,225.567a4.9,4.9,0,1,1,4.845-4.108A4.909,4.909,0,0,1,1148.942,225.567Zm0-7.627a2.724,2.724,0,1,0,0,5.448,2.762,2.762,0,0,0,2.7-2.284,2.731,2.731,0,0,0-2.7-3.164Z" transform="translate(-1144.039 -215.76)" fill="#fff"/>
      </g>
      <g id="Group_586" data-name="Group 586" transform="translate(1130.846 236.023)">
        <path id="Path_1823" data-name="Path 1823" d="M1129.167,225.576a4.895,4.895,0,1,1,4.847-4.115A4.908,4.908,0,0,1,1129.167,225.576Zm0-7.627a2.741,2.741,0,1,0,2.062.951A2.675,2.675,0,0,0,1129.167,217.949Z" transform="translate(-1124.263 -215.769)" fill="#fff"/>
      </g>
    </g>
  </g>
</svg>
