<svg xmlns="http://www.w3.org/2000/svg" width="61.318" height="75.723" viewBox="0 0 61.318 75.723">
  <g id="Group_572" data-name="Group 572" transform="translate(-962.496 -183.454)">
    <g id="Group_571" data-name="Group 571" transform="translate(962.496 183.454)">
      <g id="Group_562" data-name="Group 562">
        <g id="Group_560" data-name="Group 560" transform="translate(0.594 0.61)">
          <path id="Path_1808" data-name="Path 1808" d="M969.054,187.882a22.821,22.821,0,1,1-6.144,31.683A22.824,22.824,0,0,1,969.054,187.882Z" transform="translate(-959.002 -183.974)" fill="#a1cc3a"/>
        </g>
        <g id="Group_561" data-name="Group 561">
          <path id="Path_1809" data-name="Path 1809" d="M977.455,229.877a23.42,23.42,0,1,1,17.567-3.577A23.285,23.285,0,0,1,977.455,229.877Zm8.688-44.8a22.215,22.215,0,1,0,14.182,9.378A22.073,22.073,0,0,0,986.143,185.078Z" transform="translate(-958.496 -183.454)" fill="#fff"/>
        </g>
      </g>
      <g id="Group_564" data-name="Group 564" transform="translate(32.638 39.64)">
        <g id="Group_563" data-name="Group 563">
          <path id="Path_1810" data-name="Path 1810" d="M992.224,230.258a.606.606,0,0,1-.387-.256l-5.46-8.084a.606.606,0,0,1,.24-.885,22.531,22.531,0,0,0,5.455-3.684.6.6,0,0,1,.479-.154.593.593,0,0,1,.43.262l5.46,8.078a.6.6,0,0,1-.161.84l-5.6,3.788a.6.6,0,0,1-.453.094Zm-4.457-8.446,4.735,7.01,4.6-3.109-4.735-7.005a23.837,23.837,0,0,1-4.6,3.1Z" transform="translate(-986.274 -217.191)" fill="#fff"/>
        </g>
      </g>
      <g id="Group_566" data-name="Group 566" transform="translate(34.767 45.474)">
        <g id="Group_565" data-name="Group 565">
          <path id="Path_1811" data-name="Path 1811" d="M1005.122,252.255a7.948,7.948,0,0,1-5.11-3.366l-11.824-17.513a.607.607,0,0,1,.163-.84l12.259-8.275a.606.606,0,0,1,.841.162l11.823,17.513a7.989,7.989,0,0,1-8.152,12.32ZM989.53,231.2l11.485,17.01a6.789,6.789,0,0,0,11.254-7.6L1000.786,223.6Z" transform="translate(-988.086 -222.156)" fill="#fff"/>
        </g>
      </g>
      <g id="Group_568" data-name="Group 568" transform="translate(48.824 62.8)">
        <g id="Group_567" data-name="Group 567">
          <path id="Path_1812" data-name="Path 1812" d="M1002.931,243.931a3.562,3.562,0,0,1-1.321-6.451,3.656,3.656,0,0,1,4.948.958,3.561,3.561,0,0,1-3.627,5.493Zm1.124-5.8a2.35,2.35,0,0,0-2.4,3.627,2.42,2.42,0,0,0,3.266.631,2.357,2.357,0,0,0,.633-3.269A2.334,2.334,0,0,0,1004.055,238.126Z" transform="translate(-1000.049 -236.902)" fill="#fff"/>
        </g>
      </g>
      <g id="Group_569" data-name="Group 569" transform="translate(21.633 21.658)">
        <path id="Path_1813" data-name="Path 1813" d="M978.353,205.413a1.778,1.778,0,0,1-1.143-.757,1.8,1.8,0,0,1,.476-2.477,1.841,1.841,0,0,1,2.489.475,1.789,1.789,0,0,1-1.821,2.759Zm.449-2.318a.573.573,0,0,0-.59.885.594.594,0,0,0,.808.155.573.573,0,0,0-.219-1.04Z" transform="translate(-976.908 -201.887)" fill="#fff"/>
      </g>
      <g id="Group_570" data-name="Group 570" transform="translate(17.46 15.918)">
        <path id="Path_1814" data-name="Path 1814" d="M980.382,205.123a.606.606,0,0,1,.121-1.2l11.055.086a.6.6,0,1,1-.009,1.209l-11.055-.085A.589.589,0,0,1,980.382,205.123Zm-1.912-.954a.607.607,0,0,1-.363-.224l-4.625-5.968a.6.6,0,0,1,.957-.74l4.625,5.968a.605.605,0,0,1-.593.965Z" transform="translate(-973.356 -197.002)" fill="#fff"/>
      </g>
    </g>
  </g>
</svg>
