<svg xmlns="http://www.w3.org/2000/svg" width="126.588" height="122" viewBox="0 0 126.588 122">
  <g id="Group_1540" data-name="Group 1540" transform="translate(-405.988 -171.846)">
    <g id="Group_782" data-name="Group 782" transform="translate(405.988 171.846)">
      <g id="Group_213" data-name="Group 213">
        <g id="Group_209" data-name="Group 209" transform="translate(49.544 47.684)">
          <path id="Path_498" data-name="Path 498" d="M551.425,329.217a11.143,11.143,0,0,1-5.822-1.634,7.514,7.514,0,0,1-.695-.459v2.469c.23.133.459.251.695.369a13.3,13.3,0,0,0,11.644,0V327.59A11.216,11.216,0,0,1,551.425,329.217Zm6.518-22.836c-.23-.133-.459-.258-.7-.369a13.3,13.3,0,0,0-11.644,0c-.236.118-.466.236-.695.369a13.308,13.308,0,0,0,0,23.212c.23.132.459.25.695.369a13.3,13.3,0,0,0,11.644,0c.236-.111.466-.236.7-.369a13.3,13.3,0,0,0,0-23.212Zm0,20.741c-.23.167-.459.32-.7.466a11.206,11.206,0,0,1-11.644-.007,7.489,7.489,0,0,1-.695-.459,11.217,11.217,0,0,1,0-18.276,7.453,7.453,0,0,1,.695-.459,11.205,11.205,0,0,1,11.644-.007c.236.146.466.3.7.466a11.209,11.209,0,0,1,0,18.276Z" transform="translate(-538.109 -304.67)" fill="#fff"/>
        </g>
        <g id="Group_212" data-name="Group 212">
          <path id="Path_501" data-name="Path 501" d="M569.426,213.854l-1.54-2.321-4.013,2.656V171.846H561.1V214.19l-4.018-2.654-1.54,2.321,6.94,4.592Z" transform="translate(-499.627 -171.846)" fill="#fff"/>
          <path id="Path_502" data-name="Path 502" d="M555.66,387.434l1.54,2.321,4.013-2.655v42.342H564V387.1l4.013,2.655,1.54-2.321-6.939-4.592Z" transform="translate(-499.701 -307.441)" fill="#fff"/>
          <path id="Path_503" data-name="Path 503" d="M445.678,321.838l2.655,4.013H405.988v2.783h42.343l-2.655,4.013,2.321,1.54,4.593-6.94L448,320.307Z" transform="translate(-405.988 -266.899)" fill="#fff"/>
          <path id="Path_504" data-name="Path 504" d="M664.5,325.832H622.156l2.655-4.013-2.32-1.54-4.593,6.939,4.593,6.94,2.32-1.54-2.655-4.012H664.5Z" transform="translate(-537.909 -266.881)" fill="#fff"/>
        </g>
      </g>
    </g>
    <path id="Path_2884" data-name="Path 2884" d="M468.978,183.01V195.9a45.216,45.216,0,0,0-39.388,38.6H416.67A58.028,58.028,0,0,1,468.978,183.01Z" transform="translate(-6.779 -7.085)" fill="#a1cc3a"/>
    <path id="Path_2885" data-name="Path 2885" d="M642.43,235.245h-12.9a45.22,45.22,0,0,0-39.012-39.209V183.13A58.024,58.024,0,0,1,642.43,235.245Z" transform="translate(-114.547 -7.161)" fill="#a1cc3a"/>
    <path id="Path_2886" data-name="Path 2886" d="M642.046,356.45A58.037,58.037,0,0,1,589.91,408.6V395.7a45.218,45.218,0,0,0,39.235-39.246Z" transform="translate(-114.159 -118.847)" fill="#a1cc3a"/>
    <path id="Path_2887" data-name="Path 2887" d="M468.533,394.544v12.9A58.035,58.035,0,0,1,416.32,354.63H429.2A45.216,45.216,0,0,0,468.533,394.544Z" transform="translate(-6.557 -117.692)" fill="#a1cc3a"/>
    <path id="Path_2888" data-name="Path 2888" d="M505.792,240.86v11.4a25.813,25.813,0,0,0-19.643,18.952H474.68A37.039,37.039,0,0,1,505.792,240.86Z" transform="translate(-42.901 -44.255)" fill="#a1cc3a"/>
    <path id="Path_2889" data-name="Path 2889" d="M621.282,272H609.86a25.825,25.825,0,0,0-19.34-19.515V241.05A37.048,37.048,0,0,1,621.282,272Z" transform="translate(-115.256 -44.38)" fill="#a1cc3a"/>
    <path id="Path_2890" data-name="Path 2890" d="M620.894,356.45a37.04,37.04,0,0,1-30.984,31V376.024a25.818,25.818,0,0,0,19.563-19.574Z" transform="translate(-114.871 -118.386)" fill="#a1cc3a"/>
    <path id="Path_2891" data-name="Path 2891" d="M505.214,374.872v11.422A37.036,37.036,0,0,1,474.12,354.63h11.374A25.822,25.822,0,0,0,505.214,374.872Z" transform="translate(-42.552 -117.227)" fill="#a1cc3a"/>
  </g>
</svg>
