<svg xmlns="http://www.w3.org/2000/svg" width="64.399" height="75.723" viewBox="0 0 64.399 75.723">
  <g id="Group_601" data-name="Group 601" transform="translate(-1031.419 -182.752)">
    <g id="Group_600" data-name="Group 600" transform="translate(1031.419 182.752)">
      <g id="Group_589" data-name="Group 589">
        <path id="Path_1824" data-name="Path 1824" d="M1057.539,245.159a.582.582,0,0,1-.161-.022l-4.442-1.191a.619.619,0,0,1-.457-.67l.961-8.467a24.179,24.179,0,0,1-3.654-2.106l-6.851,5.062a.622.622,0,0,1-.809-.06l-3.255-3.253a.619.619,0,0,1-.06-.809l5.064-6.844a24.589,24.589,0,0,1-2.113-3.653l-8.462.955a.62.62,0,0,1-.671-.458l-1.19-4.45a.622.622,0,0,1,.351-.731l7.808-3.4a23.647,23.647,0,0,1,0-4.221l-7.808-3.4a.622.622,0,0,1-.353-.731l1.19-4.441a.622.622,0,0,1,.67-.458l8.47.952a24.368,24.368,0,0,1,2.106-3.649l-5.064-6.845a.622.622,0,0,1,.059-.81l3.255-3.254a.621.621,0,0,1,.809-.061l6.845,5.056a23.951,23.951,0,0,1,3.651-2.109l-.952-8.457a.621.621,0,0,1,.455-.67l4.45-1.2a.622.622,0,0,1,.732.353l3.395,7.813a23.556,23.556,0,0,1,4.214-.006l3.4-7.808a.622.622,0,0,1,.731-.351l4.443,1.2a.622.622,0,0,1,.456.67l-.955,8.46a24.519,24.519,0,0,1,3.645,2.106l6.853-5.056a.619.619,0,0,1,.809.061l3.254,3.254a.622.622,0,0,1,.06.809l-5.057,6.845a23.871,23.871,0,0,1,2.11,3.65l8.457-.952a.627.627,0,0,1,.67.458l1.191,4.441a.622.622,0,0,1-.353.731l-7.806,3.4a23.462,23.462,0,0,1,0,4.215l7.806,3.4a.622.622,0,0,1,.353.731l-1.191,4.45a.635.635,0,0,1-.671.458l-8.915-1.014a.621.621,0,0,1-.547-.688.628.628,0,0,1,.688-.548l8.382.953.914-3.416-7.732-3.364a.622.622,0,0,1-.37-.638,22.113,22.113,0,0,0,0-4.855.621.621,0,0,1,.368-.639l7.732-3.37-.913-3.407-8.376.943a.624.624,0,0,1-.639-.369,22.449,22.449,0,0,0-2.431-4.207.622.622,0,0,1,0-.736l5.006-6.778-2.5-2.5-6.787,5.006a.621.621,0,0,1-.735,0,23.245,23.245,0,0,0-4.208-2.431.622.622,0,0,1-.363-.638l.945-8.376-3.409-.919-3.372,7.73a.616.616,0,0,1-.636.369,22.357,22.357,0,0,0-4.857.008.614.614,0,0,1-.639-.371l-3.363-7.736-3.415.92.943,8.375a.621.621,0,0,1-.367.639,22.737,22.737,0,0,0-4.211,2.43.623.623,0,0,1-.735,0l-6.778-5-2.5,2.5,5.014,6.778a.624.624,0,0,1,0,.735,23.05,23.05,0,0,0-2.43,4.211.623.623,0,0,1-.638.367l-8.387-.943-.914,3.407,7.731,3.363a.624.624,0,0,1,.372.638,22.243,22.243,0,0,0,0,4.863.625.625,0,0,1-.371.639l-7.732,3.364.914,3.416,8.378-.946a.629.629,0,0,1,.638.366,23.306,23.306,0,0,0,2.439,4.215.626.626,0,0,1,0,.736l-5.014,6.775,2.5,2.495,6.784-5.013a.622.622,0,0,1,.736,0,22.957,22.957,0,0,0,4.215,2.43.624.624,0,0,1,.365.639l-.952,8.383,3.407.914,3.369-7.73a.616.616,0,0,1,.638-.369,22.531,22.531,0,0,0,4.858,0,.622.622,0,1,1,.134,1.236,23.56,23.56,0,0,1-4.67.045l-3.4,7.806A.623.623,0,0,1,1057.539,245.159Z" transform="translate(-1031.419 -180.752)" fill="#fff"/>
      </g>
      <g id="Group_592" data-name="Group 592" transform="translate(13.351 13.347)">
        <g id="Group_590" data-name="Group 590" transform="translate(0.614 0.622)">
          <path id="Path_1825" data-name="Path 1825" d="M1051.464,194.128a18.232,18.232,0,1,1-6.675,24.908A18.233,18.233,0,0,1,1051.464,194.128Z" transform="translate(-1042.345 -191.681)" fill="#a1cc3a"/>
        </g>
        <g id="Group_591" data-name="Group 591">
          <path id="Path_1826" data-name="Path 1826" d="M1060.731,228.91a18.857,18.857,0,1,1,16.315-28.281,18.859,18.859,0,0,1-16.315,28.281Zm-.033-36.471a17.618,17.618,0,1,0,15.272,8.812A17.605,17.605,0,0,0,1060.7,192.439Z" transform="translate(-1041.865 -191.195)" fill="#fff"/>
        </g>
      </g>
      <g id="Group_594" data-name="Group 594" transform="translate(38.255 45.847)">
        <g id="Group_593" data-name="Group 593">
          <path id="Path_1827" data-name="Path 1827" d="M1065.873,227.325a.627.627,0,0,1-.539-.312l-3.9-6.752a.622.622,0,0,1,.313-.891,17.774,17.774,0,0,0,4.517-2.609.623.623,0,0,1,.929.174l3.894,6.752a.624.624,0,0,1-.229.85l-4.674,2.7A.613.613,0,0,1,1065.873,227.325Zm-3.009-7.072,3.235,5.6,3.6-2.082-3.228-5.6a19.257,19.257,0,0,1-3.6,2.082Z" transform="translate(-1061.35 -216.624)" fill="#fff"/>
        </g>
      </g>
      <g id="Group_596" data-name="Group 596" transform="translate(39.374 51)">
        <g id="Group_595" data-name="Group 595">
          <path id="Path_1828" data-name="Path 1828" d="M1076.428,245.379h0a6.562,6.562,0,0,1-5.675-3.259l-8.444-14.628a.619.619,0,0,1,.229-.85l10.239-5.9a.62.62,0,0,1,.849.227l8.444,14.62a6.523,6.523,0,0,1-5.641,9.791Zm-12.731-17.97,8.133,14.088a5.29,5.29,0,0,0,9.162-5.289l-8.134-14.081Z" transform="translate(-1062.225 -220.656)" fill="#fff"/>
        </g>
      </g>
      <g id="Group_598" data-name="Group 598" transform="translate(50.52 65.666)">
        <g id="Group_597" data-name="Group 597">
          <path id="Path_1829" data-name="Path 1829" d="M1072.129,232.452a2.365,2.365,0,1,1-.866,3.231A2.351,2.351,0,0,1,1072.129,232.452Z" transform="translate(-1070.947 -232.131)" fill="#fff"/>
        </g>
      </g>
      <g id="Group_599" data-name="Group 599" transform="translate(18.575 39.087)">
        <path id="Path_1830" data-name="Path 1830" d="M1059.608,220.081a15.655,15.655,0,0,1-13.572-7.814.621.621,0,0,1,1.076-.621,14.414,14.414,0,0,0,19.663,5.267.622.622,0,0,1,.623,1.077A15.534,15.534,0,0,1,1059.608,220.081Z" transform="translate(-1045.952 -211.335)" fill="#fff"/>
      </g>
    </g>
  </g>
</svg>
