<svg xmlns="http://www.w3.org/2000/svg" width="121.54" height="122.59" viewBox="0 0 121.54 122.59">
  <g id="Group_1541" data-name="Group 1541" transform="translate(-576.5 -633.72)">
    <g id="Group_224" data-name="Group 224" transform="translate(614.459 633.72)">
      <g id="Group_220" data-name="Group 220" transform="translate(0 51.653)">
        <path id="Path_2892" data-name="Path 2892" d="M646.828,701.019v.01a16.494,16.494,0,1,1-16.489-16.5,16.143,16.143,0,0,1,5.835,1.088l-5.459,5.459c-.153-.01-.295-.01-.437-.01a10,10,0,1,0,9.912,8.651l5.266-5.266A16.355,16.355,0,0,1,646.828,701.019Z" transform="translate(-613.84 -684.53)" fill="#a1cc3a"/>
      </g>
      <g id="Group_223" data-name="Group 223" transform="translate(15.744)">
        <path id="Path_513" data-name="Path 513" d="M686.607,644.859V633.72l-14.685,15.533v9.02l-4.318,4.34-1.494,1.509-11.845,11.909-1.494,1.5-11.852,11.924-1.5,1.5-10.09,10.154,1.5,1.5,10.1-10.156,1.5-1.509,11.852-11.916,1.494-1.508,11.836-11.905,1.5-1.5,4.3-4.326,10.394.269,13.36-14.794Zm-3.724,13.056-8.836-.234V650.1l10.436-11.038V646.9l8.065.311Z" transform="translate(-629.327 -633.72)" fill="#fff"/>
      </g>
    </g>
    <path id="Path_2893" data-name="Path 2893" d="M685.285,701.7a54.378,54.378,0,1,1-20.474-42.534l-9.942,9.942a40.4,40.4,0,1,0,8.265,8.133l9.912-9.912A54.146,54.146,0,0,1,685.285,701.7Z" transform="translate(0 0.225)" fill="#a1cc3a"/>
    <path id="Path_2894" data-name="Path 2894" d="M666.037,701.388a35.468,35.468,0,1,1-15.066-29l-10.166,10.166a21.2,21.2,0,0,0-10.227-2.6,21.435,21.435,0,1,0,21.44,21.44,21.2,21.2,0,0,0-2.9-10.755l10.115-10.115A35.251,35.251,0,0,1,666.037,701.388Z" transform="translate(0.309 0.534)" fill="#a1cc3a"/>
  </g>
</svg>
