<svg xmlns="http://www.w3.org/2000/svg" width="71.388" height="84.635" viewBox="0 0 71.388 84.635">
  <g id="Group_1612" data-name="Group 1612" transform="translate(-322.55 -277.5)">
    <g id="Group_1611" data-name="Group 1611" transform="translate(322.55 277.5)">
      <path id="Path_2976" data-name="Path 2976" d="M322.55,277.5v77.728h38.5a19.107,19.107,0,0,1-1.6-4.334H326.884v-69.06H377v45.343q.614-.039,1.238-.04a19.381,19.381,0,0,1,3.1.248V277.5Z" transform="translate(-322.55 -277.5)" fill="#a1cc3a"/>
      <rect id="Rectangle_208" data-name="Rectangle 208" width="32.579" height="7.436" transform="translate(12.866 19.123)" fill="#a1cc3a"/>
      <rect id="Rectangle_209" data-name="Rectangle 209" width="32.579" height="7.436" transform="translate(12.866 33.553)" fill="#a1cc3a"/>
      <rect id="Rectangle_210" data-name="Rectangle 210" width="16.289" height="7.436" transform="translate(12.866 47.983)" fill="#a1cc3a"/>
    </g>
    <path id="Path_2977" data-name="Path 2977" d="M568.908,584.57a15.7,15.7,0,1,0,15.7,15.7A15.7,15.7,0,0,0,568.908,584.57Zm5.237,8.826-4.138,6.184a1.281,1.281,0,0,1,.2.69,1.3,1.3,0,0,1-2.576.217l-3.892-1.253a.433.433,0,1,1,.265-.825l3.779,1.217a1.3,1.3,0,0,1,1.125-.654,1.279,1.279,0,0,1,.418.069l4.1-6.129a.433.433,0,0,1,.719.484Z" transform="translate(-190.671 -253.834)" fill="#fff"/>
  </g>
</svg>
