<svg xmlns="http://www.w3.org/2000/svg" width="74" height="74" viewBox="0 0 74 74">
  <g id="Group_1609" data-name="Group 1609" transform="translate(-98.96 -98.96)">
    <path id="Path_2971" data-name="Path 2971" d="M171.565,125.861a37.249,37.249,0,1,0,1.4,10.1A37.016,37.016,0,0,0,171.565,125.861Zm-9.239,21.233a28.578,28.578,0,1,1,0-22.268q.218.515.414,1.035a28.761,28.761,0,0,1,0,20.2Q162.543,146.58,162.326,147.094Z" fill="#a1cc3a"/>
    <path id="Path_2972" data-name="Path 2972" d="M292.862,307.1A14.242,14.242,0,1,1,302.9,282.763h10.217a22.632,22.632,0,1,0,0,20.2H302.9A14.147,14.147,0,0,1,292.862,307.1Z" transform="translate(-156.902 -156.902)" fill="#fff"/>
  </g>
</svg>
