<svg xmlns="http://www.w3.org/2000/svg" width="92.05" height="122" viewBox="0 0 92.05 122">
  <g id="Group_1605" data-name="Group 1605" transform="translate(-198.702 -245.553)">
    <path id="Rectangle_201" data-name="Rectangle 201" d="M21.466,0h0A21.466,21.466,0,0,1,42.932,21.466v1.545a0,0,0,0,1,0,0H0a0,0,0,0,1,0,0V21.466A21.466,21.466,0,0,1,21.466,0Z" transform="translate(223.127 318.52)" fill="#fff"/>
    <circle id="Ellipse_147" data-name="Ellipse 147" cx="10.371" cy="10.371" r="10.371" transform="translate(234.222 295.905)" fill="#fff"/>
    <path id="Rectangle_202" data-name="Rectangle 202" d="M13.635,0h0A13.635,13.635,0,0,1,27.271,13.635v.981a0,0,0,0,1,0,0H0a0,0,0,0,1,0,0v-.981A13.635,13.635,0,0,1,13.635,0Z" transform="translate(206.582 260.044)" fill="#a1cc3a"/>
    <circle id="Ellipse_148" data-name="Ellipse 148" cx="6.588" cy="6.588" r="6.588" transform="translate(213.63 245.678)" fill="#a1cc3a"/>
    <path id="Rectangle_203" data-name="Rectangle 203" d="M13.635,0h0A13.635,13.635,0,0,1,27.271,13.635v.981a0,0,0,0,1,0,0H0a0,0,0,0,1,0,0v-.981A13.635,13.635,0,0,1,13.635,0Z" transform="translate(254.224 259.918)" fill="#a1cc3a"/>
    <circle id="Ellipse_149" data-name="Ellipse 149" cx="6.588" cy="6.588" r="6.588" transform="translate(261.272 245.553)" fill="#a1cc3a"/>
    <path id="Path_2966" data-name="Path 2966" d="M290.752,457.842H283.83a39.251,39.251,0,0,0-38.084-38.084v-6.779H243.44v6.779a39.25,39.25,0,0,0-38.083,38.084H198.7v2.306h6.655a39.25,39.25,0,0,0,38.083,38.084v7.051h2.306v-7.051a39.25,39.25,0,0,0,38.084-38.084h6.922Zm-45.006,38.082v-6.4H243.44v6.4a36.994,36.994,0,0,1-35.776-35.776h6.8v-2.306h-6.8a36.993,36.993,0,0,1,35.776-35.776v6.673h2.306v-6.673a36.994,36.994,0,0,1,35.776,35.776h-6.53v2.306h6.53A36.994,36.994,0,0,1,245.746,495.924Z" transform="translate(0 -137.729)" fill="#fff"/>
  </g>
</svg>
