<svg xmlns="http://www.w3.org/2000/svg" width="687.485" height="430" viewBox="0 0 687.485 430">
  <g id="Group_1275" data-name="Group 1275" transform="translate(-1666.327 -546.417)">
    <g id="Group_1274" data-name="Group 1274" transform="translate(1666.327 546.417)">
      <g id="Group_1273" data-name="Group 1273">
        <path id="Path_2293" data-name="Path 2293" d="M2278.584,1252.043s49.374,11.7,73.679-41.342c31.533-68.821-12.724-134.2-89.069-138.907-110.11-6.791-49.086-182.587-222.839-134.889-48.856,13.412-155.122-55.825-217.678,61.489-10.637,19.948-42.435,18.969-84.8,53-74.732,60.032-47.829,201.285,15.138,201.927S2278.584,1252.043,2278.584,1252.043Z" transform="translate(-1685.4 -823.527)" fill="#d9e9fe"/>
        <path id="Path_2294" data-name="Path 2294" d="M1952.237,1973.087s2.295-15.039,31.581-19.085,56.518-36.486,104.815-31.778,88.373,34.251,143.349,25.2,89.4,2.486,101.731,11.586,63.365-2.136,67.135,14.539Z" transform="translate(-1873.613 -1543.548)" fill="#3a4ace"/>
        <path id="Path_2295" data-name="Path 2295" d="M2335.578,805.248s-33.054-1.617-15.519,99.123c0,0,11.8,34.2-3.1,56.236h219.207V805.248Z" transform="translate(-2136.568 -734.07)" fill="#afcdfb"/>
        <g id="Group_1257" data-name="Group 1257" transform="translate(78.624 208.648)">
          <g id="Group_1252" data-name="Group 1252" transform="translate(117.016 87.395)">
            <path id="Path_2296" data-name="Path 2296" d="M2453.181,1660.008s-15.315-17.866-.944-29.215c0,0,10.5-6.354,19.054-5.839,0,0-12.127,20.336-8.2,22.359s11.879-23.635,11.879-23.635,23.886-2.316,31.57,1.379c0,0-20.419,16.709-16.119,17.7s26.356-15.407,26.356-15.407,22.231,3.783,21.046,17.345-8.846,17.75-12.212,17.388-23.062-7.878-23.491-5.119,11.426,11.774,19.728,12.2c0,0-15.673,17.285-26.091,12.3s-11.306-12.9-17.8-15.862-12.036-2.958-9.355.066,14.432,5.965,18.146,12.533,7.045,11-3.732,9.376-28.3-9.507-29.065-18.538Z" transform="translate(-2427.297 -1622.962)" fill="#3566c9"/>
            <g id="Group_1251" data-name="Group 1251" transform="translate(0 22)">
              <path id="Path_2297" data-name="Path 2297" d="M2510.173,1703.067s-60.382-2.327-73.716,14.942a43.671,43.671,0,0,1-12.024,16.875l-1.414,3.855s10.463-11.033,14.207-11.7C2437.226,1727.038,2431.371,1705.644,2510.173,1703.067Z" transform="translate(-2410.573 -1702.962)" fill="#3566c9"/>
              <path id="Path_2298" data-name="Path 2298" d="M2391.62,1815.035s-12.96,9.585-13.86,26.711l2.352.21s4.14-17.708,11.621-24.633S2391.62,1815.035,2391.62,1815.035Z" transform="translate(-2377.76 -1783.114)" fill="#3566c9"/>
            </g>
          </g>
          <g id="Group_1254" data-name="Group 1254" transform="translate(0 38.887)">
            <path id="Path_2299" data-name="Path 2299" d="M2041.594,1509.651s24.361-13.642,12.992-32.157c0,0-9.095-11.369-18.839-14.292,0,0,5.2,27.609,0,28.259s-3.573-31.182-3.573-31.182-25.66-12.343-35.729-11.369c0,0,15.915,26.96,10.719,26.31s-23.062-27.934-23.062-27.934-26.31-4.872-30.532,10.719,2.6,23.386,6.5,24.361,28.909.649,28.259,3.9-17.54,8.445-26.959,5.522c0,0,10.394,25.66,24.036,24.361s17.865-9.744,26.31-10.394,14.617,1.624,10.394,3.9-18.515.746-25.335,6.544-12.343,9.372.324,11.97,35.4.975,39.952-8.77Z" transform="translate(-1952.237 -1446.566)" fill="#6d89d0"/>
            <g id="Group_1253" data-name="Group 1253" transform="translate(13.35 16.312)">
              <path id="Path_2300" data-name="Path 2300" d="M2000.785,1505.883s68.211,22.087,76.006,46.773c0,0-.325,11.044,6.5,23.712v4.872s-7.146-16.565-11.044-18.839C2072.244,1562.4,2087.51,1540.963,2000.785,1505.883Z" transform="translate(-2000.785 -1505.883)" fill="#6d89d0"/>
              <path id="Path_2301" data-name="Path 2301" d="M2292.208,1754.2s10.519,15.974,4.522,35.419l-2.707-.727s2.627-21.417-2.877-32.189S2292.208,1754.2,2292.208,1754.2Z" transform="translate(-2209.706 -1683.717)" fill="#6d89d0"/>
            </g>
          </g>
          <g id="Group_1256" data-name="Group 1256" transform="translate(107.002)">
            <path id="Path_2302" data-name="Path 2302" d="M2362.455,1388.313s-32.112-17.983-17.126-42.388c0,0,11.989-14.986,24.833-18.839,0,0-6.851,36.394,0,37.25s4.71-41.1,4.71-41.1,33.825-16.27,47.1-14.985c0,0-20.98,35.537-14.129,34.681s30.4-36.822,30.4-36.822,34.681-6.423,40.248,14.129-3.425,30.828-8.563,32.112-38.107.856-37.25,5.138,23.121,11.132,35.538,7.279c0,0-13.7,33.825-31.685,32.112s-23.549-12.845-34.681-13.7-19.267,2.141-13.7,5.138,24.405.982,33.4,8.626,16.271,12.354-.428,15.779-46.67,1.285-52.665-11.56Z" transform="translate(-2341.344 -1305.155)" fill="#3a4ace"/>
            <g id="Group_1255" data-name="Group 1255" transform="translate(4.151 21.502)">
              <path id="Path_2303" data-name="Path 2303" d="M2495.728,1383.347s-89.915,29.115-100.19,61.656c0,0,.428,14.558-8.563,31.256v6.423s9.419-21.836,14.557-24.834C2401.531,1457.847,2381.407,1429.589,2495.728,1383.347Z" transform="translate(-2378.577 -1383.347)" fill="#6d89d0"/>
              <path id="Path_2304" data-name="Path 2304" d="M2364.835,1710.676s-13.867,21.056-5.962,46.688l3.568-.958s-3.463-28.232,3.792-42.431S2364.835,1710.676,2364.835,1710.676Z" transform="translate(-2356.438 -1617.765)" fill="#6d89d0"/>
            </g>
          </g>
          <path id="Path_2305" data-name="Path 2305" d="M2248.338,1927.281a62.9,62.9,0,0,0,62.9-62.9H2185.435A62.9,62.9,0,0,0,2248.338,1927.281Z" transform="translate(-2121.307 -1710.595)" fill="#fb7369"/>
          <path id="Path_2306" data-name="Path 2306" d="M2284.028,1926.8a62.946,62.946,0,0,1-70.715-62.422h15.627A62.913,62.913,0,0,0,2284.028,1926.8Z" transform="translate(-2141.519 -1710.594)" fill="#f2564b"/>
          <path id="Path_2307" data-name="Path 2307" d="M2309.819,2084.3H2182.276a7.761,7.761,0,0,1,7.76-7.761h112.022a7.761,7.761,0,0,1,7.761,7.761Z" transform="translate(-2119.017 -1864.414)" fill="#fb7369"/>
          <rect id="Rectangle_163" data-name="Rectangle 163" width="129.305" height="1.93" transform="translate(62.06 153.783)" fill="#f2564b"/>
        </g>
        <g id="Group_1259" data-name="Group 1259" transform="translate(398.453 92.265)">
          <path id="Path_2308" data-name="Path 2308" d="M3232.4,912.927s-11.019-20.792,5.491-28.709c0,0,11.635-3.9,19.872-1.514,0,0-16.3,17.178-12.912,20.013s16.777-20.45,16.777-20.45,23.812,2.983,30.5,8.273c0,0-23.589,11.821-19.613,13.735s29.1-9.246,29.1-9.246,20.86,8.571,16.726,21.542-12.525,15.375-15.731,14.284-20.77-12.748-21.793-10.151,8.563,13.995,16.569,16.228c0,0-19.085,13.424-28.153,6.27s-8.2-15.063-13.883-19.382-11.094-5.528-9.142-1.989,12.771,8.987,14.952,16.21,4.46,12.276-5.7,8.329-25.518-15.487-24.286-24.465Z" transform="translate(-3197.585 -881.933)" fill="#3566c9"/>
          <g id="Group_1258" data-name="Group 1258" transform="translate(0 25.197)">
            <path id="Path_2309" data-name="Path 2309" d="M3270.537,980.962s-58.4-15.524-75.2-1.6a43.668,43.668,0,0,1-15.434,13.824l-2.227,3.451s12.63-8.467,16.429-8.3C3194.107,988.338,3193.091,966.18,3270.537,980.962Z" transform="translate(-3160.519 -973.562)" fill="#3566c9"/>
            <path id="Path_2310" data-name="Path 2310" d="M3134.665,1042.815s-14.749,6.507-19.386,23.018l2.249.722s7.925-16.368,16.744-21.482S3134.665,1042.815,3134.665,1042.815Z" transform="translate(-3115.279 -1023.194)" fill="#3566c9"/>
          </g>
        </g>
        <g id="Group_1261" data-name="Group 1261" transform="translate(338.735)">
          <path id="Path_2311" data-name="Path 2311" d="M2920.1,632.174s-32.634-17.019-18.381-41.86c0,0,11.537-15.336,24.261-19.57,0,0-5.764,36.582,1.109,37.234s3.484-41.226,3.484-41.226,33.326-17.27,46.631-16.381c0,0-19.913,36.146-13.091,35.086s29.29-37.711,29.29-37.711,34.475-7.452,40.65,12.925-2.506,30.916-7.6,32.353-38.064,1.99-37.081,6.245,23.442,10.439,35.739,6.218c0,0-12.688,34.218-30.714,33.041s-23.921-12.138-35.074-12.663-19.195,2.713-13.542,5.543,24.423.255,33.638,7.628,16.631,11.864.042,15.785-46.611,2.674-52.985-9.987Z" transform="translate(-2898.116 -546.417)" fill="#3a4ace"/>
          <g id="Group_1260" data-name="Group 1260" transform="translate(6.844 21.146)">
            <path id="Path_2312" data-name="Path 2312" d="M3056.256,623.313s-89.008,31.779-98.311,64.611c0,0,.861,14.539-7.629,31.5l.191,6.419s8.766-22.107,13.812-25.255C2964.319,700.585,2943.363,672.938,3056.256,623.313Z" transform="translate(-2942.805 -623.313)" fill="#6d89d0"/>
            <path id="Path_2313" data-name="Path 2313" d="M2930.514,961.953s-13.233,21.46-4.569,46.845l3.537-1.064s-4.3-28.117,2.527-42.525S2930.514,961.953,2930.514,961.953Z" transform="translate(-2923.004 -865.844)" fill="#6d89d0"/>
          </g>
        </g>
        <rect id="Rectangle_164" data-name="Rectangle 164" width="228.859" height="298.463" transform="translate(212.909 130.806)" fill="#9abcef"/>
        <rect id="Rectangle_165" data-name="Rectangle 165" width="225.011" height="298.463" transform="translate(220.391 130.806)" fill="#f8fbff"/>
        <path id="Path_2314" data-name="Path 2314" d="M3741.516,1972.086h-45.342c-2.43-2.061,1.681-6.742,5.977-7.057a26.524,26.524,0,0,1,6.921.819c.624-8.287,4.187-45.543,17.616-44.046,15.1,1.676,0,16.406-4.268,25.128a207.306,207.306,0,0,0-8.021,20.095c1.226.266,2.495.526,3.791.765,2-6.145,9.448-26.815,18.918-25.61,11.118,1.41,6.649,9.7-1.231,14.616-5.781,3.618-12.881,8.759-16.255,11.243a48.187,48.187,0,0,0,8.868.711C3736.255,1968.565,3740.046,1970.854,3741.516,1972.086Z" transform="translate(-3137.453 -1543.548)" fill="#3a4ace"/>
        <path id="Path_2315" data-name="Path 2315" d="M2641.762,864.872l0,0H2416.747c1.245-17.016-.63-29.372-3.635-38.257-5.771-17.085-15.716-21.371-15.716-21.371H2609.6c18.112,0,32.156,10.911,35.978,25.394.143.545.276,1.088.391,1.63C2649.6,848.842,2641.911,864.57,2641.762,864.872Z" transform="translate(-2196.356 -734.071)" fill="#f8fbff"/>
        <path id="Path_2316" data-name="Path 2316" d="M2683.2,921.216l0,0H2458.18c1.244-17.016-.63-29.372-3.635-38.257,23,4.211,79.948,13.183,140.909,11.672,39.437-.978,70.6-3.617,91.952-6.019C2691.035,905.186,2683.344,920.914,2683.2,921.216Z" transform="translate(-2237.79 -790.415)" fill="#f8fbff"/>
        <g id="Group_1263" data-name="Group 1263" transform="translate(249.601 194.03)">
          <rect id="Rectangle_166" data-name="Rectangle 166" width="123.782" height="5.597" rx="0.349" transform="translate(14.809 0)" fill="#bbd5fc"/>
          <rect id="Rectangle_167" data-name="Rectangle 167" width="77.128" height="5.597" rx="0.349" transform="translate(14.809 9.417)" fill="#bbd5fc"/>
          <g id="Group_1262" data-name="Group 1262">
            <path id="Path_2317" data-name="Path 2317" d="M2577.3,1266.1v-11.433h-1.509q-1.373,0-1.373-1.143,0-.823,1.075-1.166a7.979,7.979,0,0,1,1.749-.275q1.2-.091,1.932-.091.709,0,.892.286a3.406,3.406,0,0,1,.183,1.452V1266.1h1.555q1.509,0,1.509,1.3,0,1.371-1.509,1.372h-6.266a1.726,1.726,0,0,1-1.109-.354,1.2,1.2,0,0,1-.446-.995q0-1.325,1.532-1.326Z" transform="translate(-2573.988 -1251.997)" fill="#bbd5fc"/>
          </g>
        </g>
        <g id="Group_1265" data-name="Group 1265" transform="translate(249.507 252.976)">
          <rect id="Rectangle_168" data-name="Rectangle 168" width="123.782" height="5.597" rx="0.349" transform="translate(14.903)" fill="#d2e4fd"/>
          <rect id="Rectangle_169" data-name="Rectangle 169" width="77.128" height="5.597" rx="0.349" transform="translate(14.903 9.417)" fill="#d2e4fd"/>
          <g id="Group_1264" data-name="Group 1264" transform="translate(0 0)">
            <path id="Path_2318" data-name="Path 2318" d="M2583.306,1480.223q0,1.143-1.6,1.142h-6.628q-1.434,0-1.435-1.151a1.455,1.455,0,0,1,.385-.849q.565-.646,1.656-1.94,1.657-2.082,2.769-3.6.383-.5,1.091-1.536a3.709,3.709,0,0,0,.586-1.738,1.787,1.787,0,0,0-.505-1.3,1.733,1.733,0,0,0-1.293-.515,1.983,1.983,0,0,0-1.334.485,2.3,2.3,0,0,0-.606,1.212,13.634,13.634,0,0,1-.364,1.334,1.023,1.023,0,0,1-.99.647,1.133,1.133,0,0,1-.95-.445,1.513,1.513,0,0,1-.323-1.01,4.887,4.887,0,0,1,.222-1.435,4.312,4.312,0,0,1,1.718-2.385,4.986,4.986,0,0,1,2.85-.788,4.413,4.413,0,0,1,3.071,1.113,3.894,3.894,0,0,1,1.273,3,5.22,5.22,0,0,1-.91,2.793q-.5.79-2.081,2.793-.809,1.033-2.546,3h4.365Q2583.306,1479.041,2583.306,1480.223Z" transform="translate(-2573.646 -1466.351)" fill="#d2e4fd"/>
          </g>
        </g>
        <g id="Group_1267" data-name="Group 1267" transform="translate(249.252 301.526)">
          <rect id="Rectangle_170" data-name="Rectangle 170" width="123.782" height="5.597" rx="0.349" transform="translate(15.158 0.622)" fill="#d2e4fd"/>
          <rect id="Rectangle_171" data-name="Rectangle 171" width="77.128" height="5.597" rx="0.349" transform="translate(15.158 10.039)" fill="#d2e4fd"/>
          <g id="Group_1266" data-name="Group 1266">
            <path id="Path_2319" data-name="Path 2319" d="M2582.633,1653.845a4.333,4.333,0,0,1-1.508,3.449,5.311,5.311,0,0,1-3.615,1.239,5.062,5.062,0,0,1-2.892-.805,3.682,3.682,0,0,1-1.9-3.078,1.292,1.292,0,0,1,.33-.889,1.083,1.083,0,0,1,.847-.372,1.3,1.3,0,0,1,1.012.723,15.79,15.79,0,0,0,.888,1.322,2.3,2.3,0,0,0,1.756.723,2.194,2.194,0,0,0,2.066-1.074,2.862,2.862,0,0,0,.289-1.364q0-2.023-2.375-2.251-1.343-.123-1.343-1.136a1.081,1.081,0,0,1,.78-1.054q1.456-.536,1.477-.557a1.994,1.994,0,0,0,.78-1.8,1.615,1.615,0,0,0-.453-1.208,1.659,1.659,0,0,0-1.215-.444,2.222,2.222,0,0,0-1.482.454,2.974,2.974,0,0,0-.762,1.343.941.941,0,0,1-.947.723.97.97,0,0,1-.813-.433,1.57,1.57,0,0,1-.319-.95,2.64,2.64,0,0,1,.352-1.281,3.958,3.958,0,0,1,1.776-1.673,5.2,5.2,0,0,1,2.4-.558,4.175,4.175,0,0,1,2.923,1.064,3.608,3.608,0,0,1,1.167,2.8,3.836,3.836,0,0,1-1.735,3.305A3.744,3.744,0,0,1,2582.633,1653.845Z" transform="translate(-2572.718 -1642.898)" fill="#d2e4fd"/>
          </g>
        </g>
        <g id="Group_1268" data-name="Group 1268" transform="translate(275.509 144.126)">
          <rect id="Rectangle_172" data-name="Rectangle 172" width="78.962" height="6.503" rx="0.405" transform="translate(19.908)" fill="#bbd5fc"/>
          <path id="Rectangle_173" data-name="Rectangle 173" d="M.4,0H118.374a.4.4,0,0,1,.4.4V6.1a.405.405,0,0,1-.405.405H.405A.405.405,0,0,1,0,6.1V.4A.4.4,0,0,1,.4,0Z" transform="translate(0 10.026)" fill="#bbd5fc"/>
        </g>
        <g id="Group_1269" data-name="Group 1269" transform="translate(234.109 172.063)">
          <path id="Path_2320" data-name="Path 2320" d="M2609.721,1229.861c-24.512,0-47.773-3.076-65.114-7.472-17.519-4.442-26.956-11.7-26.956-18.141,0-5.836,7.691-11.2,22.241-15.522h0c-13.944,4.139-21.4,10.216-21.4,15.522,0,5.888,9.666,11.715,26.52,15.988,17.279,4.381,40.261,6.794,64.71,6.794s47.431-2.413,64.71-6.794c16.854-4.273,26.52-10.1,26.52-15.988,0-6.235-10.178-13.984-26.563-20.223-18.63-7.094-41.6-9.726-64.667-9.726-43.313,0-61.143,5.056-76.613,11.392h0c15.537-6.364,33.146-13.576,76.613-13.576,23.163,0,46.228,3.925,64.946,11.052,16.731,6.37,27.125,14.448,27.125,21.08,0,6.439-9.649,12.431-27.168,16.873C2657.281,1225.518,2634.233,1229.861,2609.721,1229.861Z" transform="translate(-2517.651 -1172.116)" fill="#fb7369"/>
        </g>
        <g id="Group_1272" data-name="Group 1272" transform="translate(346.621 158.417)">
          <path id="Path_2321" data-name="Path 2321" d="M3367.683,1586.821s-.807,7.847-1.693,9.331-4.656,6.228-6.263,7.158.981-6.249.654-7.647-1.323,2.55-2.03,2.643-.526-3.46-.551-4.753,3.445-4.484,4.668-7.237S3367.683,1586.821,3367.683,1586.821Z" transform="translate(-3239.273 -1457.967)" fill="#fc9490"/>
          <path id="Path_2322" data-name="Path 2322" d="M3008.485,1292.063l-1.8-3.4s.895-6.064-6.7-9.9c0,0-2.776-1.131-4.344,1.134-1.444,2.086,2.751,1.709,2.526,5.278a6.563,6.563,0,0,0,3.827,6.825l1.948,2.257Z" transform="translate(-2976.484 -1235.583)" fill="#fc9490"/>
          <path id="Path_2323" data-name="Path 2323" d="M3095.722,1295.2s-6.525,32.024-42.43,42.487c-11.208,3.267-36.671-33.634-36.671-33.634s.9-3.4,6.5-2.62c0,0,24.792,16.413,27.914,18.2,2.77,1.582,20.983-20.338,29.287-23.874A21.193,21.193,0,0,1,3095.722,1295.2Z" transform="translate(-2991.919 -1246.855)" fill="#f2564b"/>
          <g id="Group_1270" data-name="Group 1270" transform="translate(0 42.047)">
            <rect id="Rectangle_174" data-name="Rectangle 174" width="6.706" height="33.734" transform="translate(7.243 6.629) rotate(-81.268)" fill="#fb7369"/>
            <path id="Path_2324" data-name="Path 2324" d="M2926.793,1277.517l7.243,4.5,1.018-6.629Z" transform="translate(-2926.793 -1275.394)" fill="#fc9490"/>
            <path id="Path_2325" data-name="Path 2325" d="M3078.938,1296.811l-.322,2.1a2.362,2.362,0,0,1-2.693,1.975l-1.542-.237,1.018-6.628,1.677.258A2.224,2.224,0,0,1,3078.938,1296.811Z" transform="translate(-3033.795 -1288.896)" fill="#fc9490"/>
          </g>
          <g id="Group_1271" data-name="Group 1271" transform="translate(65.841 120.827)">
            <path id="Path_2326" data-name="Path 2326" d="M3417.6,2025.28s4.454,4.065,3.585,6.953-4.889,4.813-5.432,8.344-2.716,5.456-4.671,5.456h-9.323s-1.439-2.484,2.037-3.233,4.787-4.9,4.57-8.748a67.92,67.92,0,0,1,.326-8.986l7.388-1.712Z" transform="translate(-3336.776 -1896.45)" fill="#293eb7"/>
            <path id="Path_2327" data-name="Path 2327" d="M3192.4,2059.15s.8,9.251-1.156,10.214l-25.026-.051s0-2.888,4.019-3.531,11.082-2.995,12.276-8.237S3192.4,2059.15,3192.4,2059.15Z" transform="translate(-3166.221 -1919.806)" fill="#293eb7"/>
            <path id="Path_2328" data-name="Path 2328" d="M3184.6,1587.459s1.32,16.216,2.871,35.708c2.109,26.479,4.645,59,4.9,65.166.434,10.7,2.174,27.814,2.174,27.814s4.126,4.066,12.385,2.353c0,0,7.359-24.432,9.461-50.282.032-.423.065-.851.1-1.277,1.955-26.316,5-81.729,5-81.729Z" transform="translate(-3179.544 -1578.795)" fill="#3a4ace"/>
            <path id="Path_2329" data-name="Path 2329" d="M3184.6,1587.459s1.32,16.216,2.871,35.708l28.916,45.051c.032-.423.065-.851.1-1.277,1.955-26.316,5-81.729,5-81.729Z" transform="translate(-3179.544 -1578.795)" fill="#293eb7"/>
            <path id="Path_2330" data-name="Path 2330" d="M3206.518,1572.463s23.792,58.728,39.436,86.327,20.533,35.3,20.533,35.3,8.962-3.53,9.777-5.937c0,0-5.982-53.281-16.459-66.27-5.92-7.339-12.874-29.364-13.2-37.066s-2.118-22.945-2.118-22.945Z" transform="translate(-3195.437 -1561.873)" fill="#3a4ace"/>
          </g>
          <path id="Path_2331" data-name="Path 2331" d="M3253.442,1219.84s-16.1,7.768-25.379,4.885a21.9,21.9,0,0,1,6.282-5.026c-.321-1.863-.571-3.479-.714-4.85a44.9,44.9,0,0,1-.392-4.956l6.21-4.885,5.89-4.675C3244.875,1213.479,3253.442,1219.84,3253.442,1219.84Z" transform="translate(-3145.216 -1178.928)" fill="#fc9490"/>
          <path id="Path_2332" data-name="Path 2332" d="M3226.884,1344.564c.036.984-2.07,2.108-3,2.531-6.889,3.023-13.314,5.131-20.6,5.834-8.6.879-18.775-1.054-22.273-.984a1.454,1.454,0,0,1-.964-.386c-.25-.176-.428-10.544-.25-23.583,0-.528,0-1.055.036-1.582v-.175c.072-5.1.25-10.438.5-15.781.5-11.739,1.428-23.057,3-29.313,1.892-7.381,6.175-12.266,10.066-15.816l3.213-2.812a15.435,15.435,0,0,0,9.995-1.194c3.712-1.793,7.709-3.726,8.352-3.234,4.854,3.55,8.138,11.528,9.887,21.721a113,113,0,0,1,1.463,19.33c0,2.531-.072,5.131-.215,7.7a242.692,242.692,0,0,0,.5,33C3226.742,1341.858,3226.848,1343.439,3226.884,1344.564Z" transform="translate(-3110.175 -1220.729)" fill="#fb7369"/>
          <path id="Path_2333" data-name="Path 2333" d="M3276.168,1401.4c-56.371-.113-10.4-61.169-10.4-61.169l9.133-2.966a177.454,177.454,0,0,1,1.058,20.652c0,2.7-.052,5.482-.155,8.224C3275.188,1381.007,3275.807,1393.924,3276.168,1401.4Z" transform="translate(-3159.744 -1278.201)" fill="#f2564b"/>
          <path id="Path_2334" data-name="Path 2334" d="M3259.092,1217.684s-4.069,7.416-11.815,9.49a44.9,44.9,0,0,1-.392-4.956l6.21-4.885Z" transform="translate(-3158.862 -1191.252)" fill="#f48484"/>
          <path id="Path_2335" data-name="Path 2335" d="M3228.686,1168.364s15.357,2.512,16.8-6.928,4.395-15.475-5.349-17.478-12.2,1.316-13.463,4.353S3224.728,1167.468,3228.686,1168.364Z" transform="translate(-3143.495 -1137.612)" fill="#fc9490"/>
          <path id="Path_2336" data-name="Path 2336" d="M3237.981,1127.706c.14-.16.461-.289,1.176-.328a2.9,2.9,0,0,0-1.336-.377c-.15-.995-.679-2.756-2.392-3.184a2.149,2.149,0,0,1,1.041,1.549c-1.984-2.037-6.234-3.52-18-2.591-15.511,1.224-10.4,11.155-8.391,12.339s7.063-2.062,10.8-1.765,4.453,5.7,5.722,6.445.77-.57,2.487-1.346,1.881,2.069,1.385,3.92,1.863,4.291,1.863,4.291l2.385-2.568c2.385-2.568,4.632-13.445,3.548-15.763C3238.173,1128.122,3238.079,1127.915,3237.981,1127.706Z" transform="translate(-3130.409 -1122.492)" fill="#2c3a64"/>
          <path id="Path_2337" data-name="Path 2337" d="M3288.432,1257.99s9.716,4.6,14.375,11.675c7.227,10.972,15.6,50.96,15.758,54.663s-6.114,29.845-6.114,29.845-6.358-.419-8-3.628c0,0,1.27-26.861.465-28.588s-26.5-36.031-23.616-43.351S3288.432,1257.99,3288.432,1257.99Z" transform="translate(-3183.651 -1220.729)" fill="#fb7369"/>
          <path id="Path_2338" data-name="Path 2338" d="M3023.988,1298.567s.529-2.087-.919-3.025-2.78-3.49-3.39-3.144c-1.264.716.692,2.943.334,5.719C3019.887,1299.089,3022.151,1301.638,3023.988,1298.567Z" transform="translate(-2993.823 -1245.651)" fill="#fc9490"/>
        </g>
        <path id="Path_2339" data-name="Path 2339" d="M2067.817,1901.5s-22.824-58.443-38.831-49.137S2067.817,1901.5,2067.817,1901.5Z" transform="translate(-1927.134 -1492.507)" fill="#3a4ace"/>
        <path id="Path_2340" data-name="Path 2340" d="M2015.469,1976.173s-30.152-26.058-43.926-21.218S2015.469,1976.173,2015.469,1976.173Z" transform="translate(-1886.07 -1567.181)" fill="#3a4ace"/>
        <path id="Path_2341" data-name="Path 2341" d="M3297.858,2007.506s6.948-24.16,15.1-21.31S3297.858,2007.506,3297.858,2007.506Z" transform="translate(-2849.197 -1590.097)" fill="#3a4ace"/>
        <path id="Path_2342" data-name="Path 2342" d="M3320.917,2036.483s17.738-11.643,21.635-8.044S3320.917,2036.483,3320.917,2036.483Z" transform="translate(-2865.915 -1620.392)" fill="#3a4ace"/>
        <path id="Path_2343" data-name="Path 2343" d="M2731.257,1862.516H2592.894a1.689,1.689,0,0,1-1.684-1.684h0a1.689,1.689,0,0,1,1.684-1.684h138.364a1.688,1.688,0,0,1,1.683,1.684h0A1.688,1.688,0,0,1,2731.257,1862.516Z" transform="translate(-2336.873 -1498.155)" fill="#d2e4fd"/>
        <path id="Path_2344" data-name="Path 2344" d="M2731.257,1887.024H2592.894a1.689,1.689,0,0,1-1.684-1.684h0a1.689,1.689,0,0,1,1.684-1.684h138.364a1.688,1.688,0,0,1,1.683,1.684h0A1.688,1.688,0,0,1,2731.257,1887.024Z" transform="translate(-2336.873 -1515.923)" fill="#d2e4fd"/>
        <path id="Path_2345" data-name="Path 2345" d="M2731.257,1914.184H2592.894a1.688,1.688,0,0,1-1.684-1.684h0a1.689,1.689,0,0,1,1.684-1.684h138.364a1.688,1.688,0,0,1,1.683,1.684h0A1.688,1.688,0,0,1,2731.257,1914.184Z" transform="translate(-2336.873 -1535.615)" fill="#d2e4fd"/>
        <rect id="Rectangle_175" data-name="Rectangle 175" width="123.455" height="3.368" rx="0.21" transform="translate(254.337 382.67)" fill="#d2e4fd"/>
        <path id="Rectangle_176" data-name="Rectangle 176" d="M.092,0h687.3a.091.091,0,0,1,.091.091V1.371a.092.092,0,0,1-.092.092H.09A.09.09,0,0,1,0,1.373V.092A.092.092,0,0,1,.092,0Z" transform="translate(0 428.538)" fill="#1c468a"/>
      </g>
    </g>
  </g>
</svg>
