<svg id="Group_1957" data-name="Group 1957" xmlns="http://www.w3.org/2000/svg" xmlns:xlink="http://www.w3.org/1999/xlink" width="713" height="528.123" viewBox="0 0 713 528.123">
  <defs>
    <linearGradient id="linear-gradient" x1="1" y1="0.5" x2="0" y2="0.5" gradientUnits="objectBoundingBox">
      <stop offset="0" stop-color="#e39a65"/>
      <stop offset="1" stop-color="#e95f8d"/>
    </linearGradient>
    <radialGradient id="radial-gradient" cx="0.807" cy="-0.023" r="1.117" gradientTransform="matrix(-1.08, 0, 0, 1, 1.704, 0)" gradientUnits="objectBoundingBox">
      <stop offset="0" stop-color="#e39a65"/>
      <stop offset="0.474" stop-color="#a92ffb"/>
      <stop offset="0.595" stop-color="#881bfa"/>
      <stop offset="0.742" stop-color="#6507fa"/>
      <stop offset="0.802" stop-color="#0d0c6f"/>
    </radialGradient>
    <radialGradient id="radial-gradient-2" cx="0.99" cy="0.384" r="1.712" gradientTransform="matrix(-0.573, 0, 0, 1, 1.348, 0)" gradientUnits="objectBoundingBox">
      <stop offset="0" stop-color="#e39a65"/>
      <stop offset="0.474" stop-color="#a92ffb"/>
      <stop offset="0.568" stop-color="#881bfa"/>
      <stop offset="0.683" stop-color="#6507fa"/>
      <stop offset="0.738" stop-color="#0d0c6f"/>
    </radialGradient>
    <radialGradient id="radial-gradient-3" cx="0.899" cy="0.074" r="1.524" gradientTransform="matrix(-0.577, 0, 0, 1, 1.25, 0)" gradientUnits="objectBoundingBox">
      <stop offset="0" stop-color="#e39a65"/>
      <stop offset="0.474" stop-color="#a92ffb"/>
      <stop offset="0.588" stop-color="#881bfa"/>
      <stop offset="0.726" stop-color="#6507fa"/>
      <stop offset="1" stop-color="#3919bb"/>
    </radialGradient>
    <radialGradient id="radial-gradient-4" cx="1.116" cy="0.206" r="1.121" gradientTransform="matrix(-1.077, 0, 0, 1, 2.365, 0)" xlink:href="#radial-gradient-3"/>
    <linearGradient id="linear-gradient-5" x1="1" y1="0.5" x2="0" y2="0.5" gradientUnits="objectBoundingBox">
      <stop offset="0" stop-color="#3919bb"/>
      <stop offset="1" stop-color="#6507fa"/>
    </linearGradient>
    <radialGradient id="radial-gradient-5" cx="2.084" cy="-0.321" r="2.658" gradientTransform="matrix(-1.077, 0, 0, 1, 4.45, 0)" xlink:href="#radial-gradient-3"/>
    <radialGradient id="radial-gradient-6" cx="1.082" cy="0.242" r="2.243" gradientTransform="matrix(-1.318, 0, 0, 1, 2.694, 0)" gradientUnits="objectBoundingBox">
      <stop offset="0" stop-color="#e39a65"/>
      <stop offset="0.153" stop-color="#a92ffb"/>
      <stop offset="0.409" stop-color="#3919bb"/>
      <stop offset="0.931" stop-color="#3919bb"/>
    </radialGradient>
    <linearGradient id="linear-gradient-7" x1="1" y1="0.5" x2="0" y2="0.5" gradientUnits="objectBoundingBox">
      <stop offset="0" stop-color="#e39a65"/>
      <stop offset="0.252" stop-color="#a92ffb"/>
      <stop offset="0.556" stop-color="#3919bb"/>
    </linearGradient>
    <linearGradient id="linear-gradient-8" x1="1" y1="0.5" x2="0" y2="0.5" gradientUnits="objectBoundingBox">
      <stop offset="0" stop-color="#4f1fec"/>
      <stop offset="1" stop-color="#a92ffb"/>
    </linearGradient>
    <linearGradient id="linear-gradient-10" x1="1" y1="0.5" x2="-0.261" y2="0.5" gradientUnits="objectBoundingBox">
      <stop offset="0" stop-color="#131060"/>
      <stop offset="0.186" stop-color="#140f62"/>
      <stop offset="0.282" stop-color="#190f6a"/>
      <stop offset="0.358" stop-color="#220f77"/>
      <stop offset="0.424" stop-color="#2e0f8a"/>
      <stop offset="0.482" stop-color="#3d0ea3"/>
      <stop offset="0.536" stop-color="#510ec1"/>
      <stop offset="0.585" stop-color="#670de5"/>
      <stop offset="0.607" stop-color="#740df8"/>
      <stop offset="0.618" stop-color="#7a14ef"/>
      <stop offset="0.683" stop-color="#9b3bc2"/>
      <stop offset="0.748" stop-color="#b75c9d"/>
      <stop offset="0.812" stop-color="#cc7680"/>
      <stop offset="0.876" stop-color="#db886b"/>
      <stop offset="0.939" stop-color="#e4935f"/>
      <stop offset="1" stop-color="#e8975b"/>
    </linearGradient>
    <radialGradient id="radial-gradient-7" cx="1.135" cy="0.092" r="3.209" gradientTransform="matrix(-0.577, 0, 0, 1, 1.522, 0)" gradientUnits="objectBoundingBox">
      <stop offset="0" stop-color="#e39a65"/>
      <stop offset="0.252" stop-color="#a92ffb"/>
      <stop offset="0.736" stop-color="#3919bb"/>
    </radialGradient>
    <linearGradient id="linear-gradient-11" x1="1.089" y1="0.5" x2="-0.209" y2="0.5" xlink:href="#linear-gradient-10"/>
  </defs>
  <path id="Path_3166" data-name="Path 3166" d="M507.572,328.511A11.324,11.324,0,0,0,513.234,327l19.083-11.018a3.533,3.533,0,0,0,0-6.122l-19.083-11.018a11.354,11.354,0,0,0-11.321,0l-19.085,11.018a3.533,3.533,0,0,0,0,6.122L501.912,327A11.314,11.314,0,0,0,507.572,328.511Zm0-28.158a8.3,8.3,0,0,1,4.15,1.106l19.083,11.02a.508.508,0,0,1,0,.881L511.72,324.378h0a8.32,8.32,0,0,1-8.294,0L484.339,313.36a.51.51,0,0,1,0-.881l19.087-11.02A8.3,8.3,0,0,1,507.572,300.353Z" transform="translate(-481.059 125.09)" fill="url(#linear-gradient)"/>
  <path id="Path_3167" data-name="Path 3167" d="M480.944,297.876a18.367,18.367,0,0,0,9.2-2.457l32.843-18.963a4.988,4.988,0,0,0,0-8.644L490.141,248.85a18.432,18.432,0,0,0-18.392,0L438.9,267.812a4.992,4.992,0,0,0,0,8.646l32.845,18.961A18.4,18.4,0,0,0,480.944,297.876Zm7.683-5.076a15.426,15.426,0,0,1-15.368,0l-32.843-18.961a1.968,1.968,0,0,1,0-3.407l32.845-18.961a15.417,15.417,0,0,1,15.368,0l32.843,18.961a1.967,1.967,0,0,1,0,3.4Z" transform="translate(-399.848 93.202)" fill="url(#linear-gradient)"/>
  <path id="Path_3168" data-name="Path 3168" d="M119.719,316.228a18.377,18.377,0,0,0,9.2-2.455l32.845-18.963a4.991,4.991,0,0,0,0-8.646L128.918,267.2a18.428,18.428,0,0,0-18.392,0L77.683,286.166a4.988,4.988,0,0,0,0,8.644l32.841,18.963A18.382,18.382,0,0,0,119.719,316.228Zm0-48.456a15.376,15.376,0,0,1,7.685,2.05l32.843,18.963a1.966,1.966,0,0,1,0,3.4L127.4,311.152h0a15.417,15.417,0,0,1-15.368,0L79.193,292.19a1.965,1.965,0,0,1,0-3.4l32.845-18.965A15.375,15.375,0,0,1,119.721,267.772Z" transform="translate(548.743 104.691)" fill="url(#linear-gradient)"/>
  <g id="Group_1950" data-name="Group 1950" transform="translate(103.727 45.069)">
    <path id="Path_3169" data-name="Path 3169" d="M328.624,436.687,563.475,301.1c3.423-1.977,2.994-5.429-.959-7.711L411.787,206.36c-3.953-2.281-9.932-2.53-13.355-.553L163.58,341.4c-3.423,1.976-2.994,5.428.959,7.711l150.73,87.023C319.221,438.414,325.2,438.663,328.624,436.687Z" transform="translate(-96.49 21.888)" fill="#020230" opacity="0.6"/>
    <path id="Path_3170" data-name="Path 3170" d="M335.531,469.107a15.015,15.015,0,0,0,7.39-1.732h0l268.035-154.75c2.189-1.263,3.4-3.086,3.4-5.132,0-2.35-1.636-4.642-4.488-6.29L427.153,194.157c-5.011-2.894-12.374-3.172-16.765-.636L142.354,348.273c-2.19,1.262-3.4,3.085-3.4,5.13,0,2.35,1.636,4.641,4.49,6.288L326.157,466.737A19.172,19.172,0,0,0,335.531,469.107Zm82.212-274.28a16.309,16.309,0,0,1,7.888,1.946L608.339,303.82c1.873,1.081,2.984,2.452,2.984,3.672a3.2,3.2,0,0,1-1.88,2.512L341.408,464.754h0c-3.421,1.979-9.709,1.689-13.725-.631L144.971,357.076c-1.873-1.081-2.984-2.452-2.984-3.673a3.2,3.2,0,0,1,1.88-2.511L411.9,196.141A11.984,11.984,0,0,1,417.743,194.827Z" transform="translate(-108.777 13.947)" fill="url(#linear-gradient)"/>
    <path id="Path_3171" data-name="Path 3171" d="M269.486,201.23,503.413,66.171a6.059,6.059,0,0,1,4.774-.686h0l0,0,.021.007L512.542,67l-1.525.361a7.579,7.579,0,0,1,1.429,2.675l52.9,171.763c1.311,4.259-.61,9.433-4.288,11.558L327.131,388.416a6.856,6.856,0,0,1-1.72.7l.579,1.262-4.137-1.454.01,0a6.617,6.617,0,0,1-3.764-4.376L265.2,212.788C263.887,208.528,265.807,203.354,269.486,201.23Z" transform="translate(-264.786 -65.264)" fill="url(#radial-gradient)"/>
    <path id="Path_3172" data-name="Path 3172" d="M167.19,319.775l-.083.1,231.059-133.4c3.4-1.963,9.337-1.717,13.26.55l149.288,86.191,4.978-1.9-1.4,6.984-.007,0a4.18,4.18,0,0,1-2.241,2.8l-233.2,134.636c-3.4,1.963-9.335,1.715-13.26-.55l-149.667-86.41a5.982,5.982,0,0,1-3.171-3.7l-.01.01-1.428-6.8Z" transform="translate(-96.471 9.79)" fill="url(#radial-gradient-2)"/>
    <path id="Path_3173" data-name="Path 3173" d="M328.624,412.575,563.475,276.984c3.423-1.976,2.994-5.428-.959-7.709L411.787,182.25c-3.953-2.281-9.932-2.53-13.355-.553L163.58,317.289c-3.423,1.976-2.994,5.428.959,7.709l150.73,87.025C319.221,414.3,325.2,414.553,328.624,412.575Z" transform="translate(-96.49 6.794)" fill="url(#radial-gradient-3)"/>
    <path id="Path_3174" data-name="Path 3174" d="M164.531,287.611l150.73,87.023c3.951,2.283,9.932,2.53,13.355.555L563.466,239.6a4.382,4.382,0,0,0,2.135-2.436c.454,1.574-.21,3.153-2.135,4.264L328.616,377.018c-3.423,1.976-9.4,1.727-13.355-.555L164.531,289.44c-2.607-1.506-3.646-3.512-3.094-5.275A6.217,6.217,0,0,0,164.531,287.611Z" transform="translate(-96.481 42.353)" fill="#fff"/>
    <g id="Group_1946" data-name="Group 1946" transform="translate(128.742 218.73)" opacity="0.4">
      <path id="Path_3175" data-name="Path 3175" d="M238.892,230.781l7.929-4.577c.636-.367.556-1.01-.179-1.434l-9.358-5.4a2.762,2.762,0,0,0-2.485-.1l-7.929,4.577c-.637.367-.556,1.01.179,1.434l9.358,5.4A2.763,2.763,0,0,0,238.892,230.781Z" transform="translate(-12.669 -187.737)" fill="#06033e"/>
      <path id="Path_3176" data-name="Path 3176" d="M246.421,235.129l7.93-4.579c.636-.367.556-1.008-.179-1.433l-9.36-5.4a2.76,2.76,0,0,0-2.483-.1l-7.929,4.579c-.637.368-.558,1.008.177,1.433l9.36,5.4A2.755,2.755,0,0,0,246.421,235.129Z" transform="translate(-32.444 -185.015)" fill="#06033e"/>
      <path id="Path_3177" data-name="Path 3177" d="M253.952,239.476l7.929-4.577c.637-.367.558-1.01-.177-1.434l-9.36-5.4a2.759,2.759,0,0,0-2.483-.1l-7.93,4.577c-.636.368-.556,1.01.179,1.434l9.36,5.4A2.759,2.759,0,0,0,253.952,239.476Z" transform="translate(-52.219 -182.293)" fill="#06033e"/>
      <path id="Path_3178" data-name="Path 3178" d="M262.864,235.552l7.93-4.577c.636-.367.556-1.01-.179-1.434L262.758,225a2.759,2.759,0,0,0-2.483-.1l-7.929,4.577c-.637.367-.558,1.01.177,1.434l7.857,4.537A2.759,2.759,0,0,0,262.864,235.552Z" transform="translate(-78.066 -184.207)" fill="#06033e"/>
      <path id="Path_3179" data-name="Path 3179" d="M270.394,239.9l7.929-4.577c.637-.367.558-1.01-.177-1.434l-7.857-4.535a2.759,2.759,0,0,0-2.483-.1l-7.929,4.577c-.637.368-.558,1.01.177,1.434l7.857,4.535A2.754,2.754,0,0,0,270.394,239.9Z" transform="translate(-97.841 -181.485)" fill="#06033e"/>
      <path id="Path_3180" data-name="Path 3180" d="M277.925,244.247l7.929-4.577c.637-.367.556-1.01-.179-1.434l-7.855-4.535a2.763,2.763,0,0,0-2.485-.1l-7.929,4.579c-.636.366-.556,1.008.179,1.433l7.856,4.537A2.763,2.763,0,0,0,277.925,244.247Z" transform="translate(-117.616 -178.763)" fill="#06033e"/>
      <path id="Path_3181" data-name="Path 3181" d="M285.456,248.6l7.929-4.577c.636-.367.556-1.01-.179-1.434l-7.855-4.537a2.762,2.762,0,0,0-2.485-.1l-7.929,4.577c-.637.367-.556,1.01.179,1.434l7.855,4.535A2.763,2.763,0,0,0,285.456,248.6Z" transform="translate(-137.391 -176.041)" fill="#06033e"/>
      <path id="Path_3182" data-name="Path 3182" d="M292.985,252.942l7.929-4.577c.637-.367.558-1.01-.177-1.434l-7.857-4.535a2.754,2.754,0,0,0-2.483-.1l-7.929,4.577c-.637.367-.558,1.01.177,1.434l7.857,4.535A2.759,2.759,0,0,0,292.985,252.942Z" transform="translate(-157.166 -173.32)" fill="#06033e"/>
      <path id="Path_3183" data-name="Path 3183" d="M300.515,257.29l7.929-4.577c.637-.367.558-1.01-.177-1.434l-7.857-4.537a2.759,2.759,0,0,0-2.483-.1L290,251.217c-.637.367-.558,1.01.177,1.434l7.857,4.537A2.759,2.759,0,0,0,300.515,257.29Z" transform="translate(-176.94 -170.598)" fill="#06033e"/>
      <path id="Path_3184" data-name="Path 3184" d="M308.046,261.638l7.929-4.579c.636-.368.556-1.01-.179-1.434l-7.856-4.535a2.762,2.762,0,0,0-2.485-.1l-7.929,4.577c-.636.367-.556,1.01.179,1.434l7.855,4.535A2.763,2.763,0,0,0,308.046,261.638Z" transform="translate(-196.715 -167.876)" fill="#06033e"/>
      <path id="Path_3185" data-name="Path 3185" d="M315.576,265.985l7.929-4.577c.636-.368.556-1.01-.179-1.434l-7.855-4.535a2.763,2.763,0,0,0-2.485-.1l-7.929,4.579c-.636.367-.556,1.008.179,1.433l7.856,4.537A2.762,2.762,0,0,0,315.576,265.985Z" transform="translate(-216.49 -165.154)" fill="#06033e"/>
      <path id="Path_3186" data-name="Path 3186" d="M323.106,270.333l7.93-4.577c.636-.369.556-1.01-.179-1.434L323,259.785a2.759,2.759,0,0,0-2.483-.1l-7.929,4.577c-.637.367-.558,1.01.177,1.434l7.857,4.537A2.759,2.759,0,0,0,323.106,270.333Z" transform="translate(-236.265 -162.432)" fill="#06033e"/>
      <path id="Path_3187" data-name="Path 3187" d="M330.636,274.68l7.929-4.577c.637-.367.558-1.01-.177-1.434l-7.857-4.535a2.76,2.76,0,0,0-2.483-.1l-7.93,4.579c-.636.368-.556,1.01.179,1.434l7.857,4.535A2.759,2.759,0,0,0,330.636,274.68Z" transform="translate(-256.04 -159.71)" fill="#06033e"/>
      <path id="Path_3188" data-name="Path 3188" d="M273.959,233.494l7.929-4.579c.637-.367.558-1.01-.177-1.434l-7.857-4.535a2.759,2.759,0,0,0-2.483-.1l-7.93,4.577c-.636.367-.556,1.01.179,1.434l7.857,4.535A2.759,2.759,0,0,0,273.959,233.494Z" transform="translate(-107.203 -185.495)" fill="#06033e"/>
      <path id="Path_3189" data-name="Path 3189" d="M266.317,229.081l7.929-4.577c.636-.367.556-1.01-.179-1.434l-7.855-4.535a2.758,2.758,0,0,0-2.485-.1l-7.929,4.577c-.636.369-.556,1.01.179,1.434l7.856,4.537A2.763,2.763,0,0,0,266.317,229.081Z" transform="translate(-87.133 -188.258)" fill="#06033e"/>
      <path id="Path_3190" data-name="Path 3190" d="M253.036,226.694l17.077-9.859c.636-.367.556-1.01-.179-1.434l-7.855-4.535a2.763,2.763,0,0,0-2.485-.1l-17.077,9.86c-.636.367-.556,1.01.179,1.434l7.855,4.535A2.763,2.763,0,0,0,253.036,226.694Z" transform="translate(-61.404 -193.058)" fill="#06033e"/>
      <path id="Path_3191" data-name="Path 3191" d="M260.366,220.605l13.859-8c.636-.367.556-1.01-.179-1.434l-7.857-4.535a2.76,2.76,0,0,0-2.483-.1l-13.859,8c-.636.367-.556,1.01.179,1.434l7.855,4.535A2.763,2.763,0,0,0,260.366,220.605Z" transform="translate(-77.435 -195.708)" fill="#06033e"/>
      <path id="Path_3192" data-name="Path 3192" d="M281.49,237.841l7.929-4.577c.636-.367.556-1.01-.179-1.434l-7.855-4.535a2.763,2.763,0,0,0-2.485-.1l-7.929,4.579c-.636.367-.556,1.01.179,1.433l7.855,4.537A2.762,2.762,0,0,0,281.49,237.841Z" transform="translate(-126.978 -182.774)" fill="#06033e"/>
      <path id="Path_3193" data-name="Path 3193" d="M289.02,242.189l7.93-4.577c.636-.369.556-1.01-.179-1.434l-7.855-4.537a2.763,2.763,0,0,0-2.485-.1l-7.929,4.577c-.637.367-.558,1.01.179,1.434l7.855,4.537A2.759,2.759,0,0,0,289.02,242.189Z" transform="translate(-146.753 -180.052)" fill="#06033e"/>
      <path id="Path_3194" data-name="Path 3194" d="M296.55,246.536l7.929-4.577c.637-.367.558-1.01-.177-1.434l-7.857-4.535a2.765,2.765,0,0,0-2.483-.1l-7.929,4.579c-.637.367-.558,1.01.177,1.434l7.857,4.535A2.754,2.754,0,0,0,296.55,246.536Z" transform="translate(-166.528 -177.33)" fill="#06033e"/>
      <path id="Path_3195" data-name="Path 3195" d="M304.08,250.884l7.929-4.577c.637-.367.558-1.01-.179-1.434l-7.855-4.537a2.759,2.759,0,0,0-2.483-.1l-7.93,4.577c-.636.367-.556,1.01.179,1.434l7.855,4.537A2.762,2.762,0,0,0,304.08,250.884Z" transform="translate(-186.302 -174.608)" fill="#06033e"/>
      <path id="Path_3196" data-name="Path 3196" d="M311.611,255.232l7.929-4.579c.636-.367.556-1.008-.179-1.434l-7.856-4.535a2.762,2.762,0,0,0-2.485-.1l-7.929,4.577c-.636.367-.556,1.01.179,1.434l7.855,4.535A2.763,2.763,0,0,0,311.611,255.232Z" transform="translate(-206.077 -171.886)" fill="#06033e"/>
      <path id="Path_3197" data-name="Path 3197" d="M319.142,259.579,327.071,255c.636-.367.556-1.01-.179-1.434l-7.856-4.535a2.763,2.763,0,0,0-2.485-.1l-7.929,4.579c-.637.367-.558,1.01.179,1.434l7.855,4.535A2.762,2.762,0,0,0,319.142,259.579Z" transform="translate(-225.853 -169.164)" fill="#06033e"/>
      <path id="Path_3198" data-name="Path 3198" d="M326.671,263.927l7.929-4.577c.637-.367.558-1.01-.177-1.434l-7.857-4.537a2.759,2.759,0,0,0-2.483-.1l-7.929,4.577c-.637.368-.558,1.01.177,1.434l7.857,4.535A2.754,2.754,0,0,0,326.671,263.927Z" transform="translate(-245.627 -166.443)" fill="#06033e"/>
      <path id="Path_3199" data-name="Path 3199" d="M334.2,268.274l7.929-4.577c.637-.367.558-1.01-.179-1.434l-7.855-4.535a2.754,2.754,0,0,0-2.483-.1l-7.93,4.577c-.636.367-.556,1.01.179,1.434l7.857,4.535A2.754,2.754,0,0,0,334.2,268.274Z" transform="translate(-265.402 -163.721)" fill="#06033e"/>
      <path id="Path_3200" data-name="Path 3200" d="M341.732,272.622l7.929-4.577c.636-.367.556-1.01-.179-1.434l-7.856-4.535a2.763,2.763,0,0,0-2.485-.1l-7.929,4.577c-.636.367-.556,1.01.179,1.434l7.855,4.537A2.762,2.762,0,0,0,341.732,272.622Z" transform="translate(-285.176 -160.999)" fill="#06033e"/>
      <path id="Path_3201" data-name="Path 3201" d="M349.357,282.434l17.3-9.987c.636-.369.556-1.01-.179-1.434l-7.855-4.537a2.762,2.762,0,0,0-2.485-.1l-17.3,9.989c-.637.366-.556,1.008.179,1.433l7.855,4.537A2.762,2.762,0,0,0,349.357,282.434Z" transform="translate(-314.569 -158.243)" fill="#06033e"/>
      <path id="Path_3202" data-name="Path 3202" d="M365.675,273.37l14.6-8.431c.637-.368.558-1.01-.179-1.434l-7.855-4.535a2.763,2.763,0,0,0-2.485-.1l-14.6,8.429c-.636.367-.556,1.01.179,1.434l7.857,4.537A2.76,2.76,0,0,0,365.675,273.37Z" transform="translate(-354.727 -162.942)" fill="#06033e"/>
      <path id="Path_3203" data-name="Path 3203" d="M294.677,236.991l7.929-4.579c.636-.367.556-1.008-.179-1.434l-7.855-4.535a2.763,2.763,0,0,0-2.485-.1l-7.929,4.577c-.636.367-.556,1.01.179,1.434l7.855,4.535A2.763,2.763,0,0,0,294.677,236.991Z" transform="translate(-161.608 -183.306)" fill="#06033e"/>
      <path id="Path_3204" data-name="Path 3204" d="M286.959,232.535l7.929-4.577c.637-.369.558-1.01-.177-1.434l-7.857-4.537a2.759,2.759,0,0,0-2.483-.1l-7.929,4.577c-.637.367-.558,1.01.177,1.434l7.857,4.535A2.754,2.754,0,0,0,286.959,232.535Z" transform="translate(-141.341 -186.096)" fill="#06033e"/>
      <path id="Path_3205" data-name="Path 3205" d="M279.242,228.079l7.929-4.577c.636-.367.556-1.01-.179-1.434l-7.855-4.537a2.768,2.768,0,0,0-2.485-.1l-7.929,4.577c-.636.367-.556,1.01.179,1.434l7.855,4.537A2.762,2.762,0,0,0,279.242,228.079Z" transform="translate(-121.075 -188.885)" fill="#06033e"/>
      <path id="Path_3206" data-name="Path 3206" d="M271.524,223.623l7.93-4.577c.636-.367.556-1.01-.179-1.434l-7.857-4.535a2.76,2.76,0,0,0-2.483-.1l-7.929,4.579c-.637.368-.558,1.01.177,1.434l7.857,4.535A2.759,2.759,0,0,0,271.524,223.623Z" transform="translate(-100.808 -191.675)" fill="#06033e"/>
      <path id="Path_3207" data-name="Path 3207" d="M302.207,241.338l7.93-4.577c.636-.367.556-1.01-.179-1.434l-7.857-4.535a2.76,2.76,0,0,0-2.483-.1l-7.929,4.579c-.637.367-.558,1.008.179,1.433l7.855,4.537A2.759,2.759,0,0,0,302.207,241.338Z" transform="translate(-181.383 -180.584)" fill="#06033e"/>
      <path id="Path_3208" data-name="Path 3208" d="M309.737,245.686l7.929-4.577c.637-.367.558-1.01-.177-1.434l-7.857-4.537a2.759,2.759,0,0,0-2.483-.1l-7.929,4.577c-.637.367-.558,1.01.177,1.434l7.857,4.535A2.755,2.755,0,0,0,309.737,245.686Z" transform="translate(-201.157 -177.863)" fill="#06033e"/>
      <path id="Path_3209" data-name="Path 3209" d="M317.268,250.033l7.929-4.577c.637-.367.556-1.01-.179-1.434l-7.855-4.535a2.758,2.758,0,0,0-2.485-.1l-7.929,4.577c-.636.367-.556,1.01.179,1.434l7.855,4.535A2.763,2.763,0,0,0,317.268,250.033Z" transform="translate(-220.932 -175.141)" fill="#06033e"/>
      <path id="Path_3210" data-name="Path 3210" d="M324.8,254.381l7.929-4.577c.636-.367.556-1.01-.179-1.434l-7.855-4.537a2.762,2.762,0,0,0-2.485-.1l-7.929,4.577c-.636.367-.556,1.01.179,1.434l7.855,4.537A2.763,2.763,0,0,0,324.8,254.381Z" transform="translate(-240.707 -172.419)" fill="#06033e"/>
      <path id="Path_3211" data-name="Path 3211" d="M332.328,258.729l7.93-4.579c.636-.367.556-1.01-.179-1.433l-7.857-4.537a2.759,2.759,0,0,0-2.483-.1l-7.929,4.577c-.637.367-.558,1.01.177,1.434l7.857,4.535A2.76,2.76,0,0,0,332.328,258.729Z" transform="translate(-260.482 -169.697)" fill="#06033e"/>
      <path id="Path_3212" data-name="Path 3212" d="M339.858,263.076l7.929-4.577c.637-.367.558-1.01-.177-1.434l-7.857-4.535a2.76,2.76,0,0,0-2.483-.1L329.341,257c-.637.367-.558,1.008.177,1.433l7.857,4.537A2.759,2.759,0,0,0,339.858,263.076Z" transform="translate(-280.257 -166.975)" fill="#06033e"/>
      <path id="Path_3213" data-name="Path 3213" d="M347.389,267.424l7.929-4.577c.637-.369.556-1.01-.179-1.434l-7.855-4.537a2.763,2.763,0,0,0-2.485-.1l-7.929,4.577c-.636.367-.556,1.01.179,1.434l7.855,4.535A2.758,2.758,0,0,0,347.389,267.424Z" transform="translate(-300.032 -164.253)" fill="#06033e"/>
      <path id="Path_3214" data-name="Path 3214" d="M354.92,271.771l7.929-4.577c.636-.368.556-1.01-.179-1.434l-7.855-4.535a2.768,2.768,0,0,0-2.485-.1L344.4,265.7c-.637.367-.556,1.01.179,1.434l7.855,4.535A2.763,2.763,0,0,0,354.92,271.771Z" transform="translate(-319.807 -161.531)" fill="#06033e"/>
      <path id="Path_3215" data-name="Path 3215" d="M362.449,276.119l7.929-4.577c.637-.367.558-1.01-.177-1.434l-7.857-4.537a2.759,2.759,0,0,0-2.483-.1l-7.929,4.577c-.637.367-.558,1.01.177,1.434l7.857,4.537A2.759,2.759,0,0,0,362.449,276.119Z" transform="translate(-339.582 -158.81)" fill="#06033e"/>
      <path id="Path_3216" data-name="Path 3216" d="M290.712,226.237l7.929-4.577c.636-.367.556-1.01-.179-1.434l-7.855-4.535a2.758,2.758,0,0,0-2.485-.1l-7.929,4.577c-.636.369-.556,1.01.179,1.434l7.855,4.537A2.763,2.763,0,0,0,290.712,226.237Z" transform="translate(-151.195 -190.039)" fill="#06033e"/>
      <path id="Path_3217" data-name="Path 3217" d="M283.22,221.911l7.929-4.577c.636-.367.556-1.01-.179-1.434l-7.856-4.535a2.758,2.758,0,0,0-2.485-.1l-7.929,4.577c-.637.369-.556,1.01.179,1.434l7.855,4.537A2.762,2.762,0,0,0,283.22,221.911Z" transform="translate(-131.519 -192.747)" fill="#06033e"/>
      <path id="Path_3218" data-name="Path 3218" d="M275.726,217.585l7.93-4.577c.636-.367.556-1.01-.179-1.434l-7.857-4.535a2.754,2.754,0,0,0-2.483-.1l-7.929,4.577c-.637.369-.558,1.01.177,1.434l7.857,4.537A2.759,2.759,0,0,0,275.726,217.585Z" transform="translate(-111.843 -195.455)" fill="#06033e"/>
      <path id="Path_3219" data-name="Path 3219" d="M268.233,213.259l7.929-4.577c.637-.367.558-1.01-.177-1.434l-7.857-4.535a2.755,2.755,0,0,0-2.483-.1l-7.929,4.577c-.637.369-.558,1.01.177,1.434l7.857,4.537A2.759,2.759,0,0,0,268.233,213.259Z" transform="translate(-92.166 -198.163)" fill="#06033e"/>
      <path id="Path_3220" data-name="Path 3220" d="M270.678,207.642l7.929-4.577c.637-.369.558-1.01-.177-1.434l-2.6-1.5a2.758,2.758,0,0,0-2.485-.1l-7.929,4.577c-.636.367-.556,1.01.179,1.434l2.6,1.5A2.759,2.759,0,0,0,270.678,207.642Z" transform="translate(-107.139 -199.779)" fill="#06033e"/>
      <path id="Path_3221" data-name="Path 3221" d="M280.457,213.287l7.929-4.577c.637-.368.558-1.01-.177-1.434l-2.6-1.5a2.757,2.757,0,0,0-2.485-.1l-7.929,4.577c-.637.367-.556,1.01.179,1.434l2.6,1.5A2.759,2.759,0,0,0,280.457,213.287Z" transform="translate(-132.818 -196.245)" fill="#06033e"/>
      <path id="Path_3222" data-name="Path 3222" d="M287.92,217.6l7.929-4.577c.636-.368.556-1.01-.179-1.434l-2.6-1.5a2.757,2.757,0,0,0-2.485-.1l-7.929,4.577c-.636.367-.556,1.01.179,1.434l2.6,1.5A2.762,2.762,0,0,0,287.92,217.6Z" transform="translate(-152.412 -193.548)" fill="#06033e"/>
      <path id="Path_3223" data-name="Path 3223" d="M295.38,221.9l7.929-4.577c.637-.367.558-1.01-.177-1.434l-2.6-1.5a2.76,2.76,0,0,0-2.483-.1l-7.929,4.579c-.637.367-.558,1.01.177,1.434l2.6,1.5A2.759,2.759,0,0,0,295.38,221.9Z" transform="translate(-172.007 -190.851)" fill="#06033e"/>
      <path id="Path_3224" data-name="Path 3224" d="M302.843,226.211l7.929-4.577c.636-.367.556-1.01-.179-1.434l-2.6-1.5a2.763,2.763,0,0,0-2.485-.1l-7.929,4.579c-.636.367-.556,1.01.179,1.434l2.6,1.5A2.763,2.763,0,0,0,302.843,226.211Z" transform="translate(-191.601 -188.154)" fill="#06033e"/>
      <path id="Path_3225" data-name="Path 3225" d="M344.5,250.262l7.929-4.579c.636-.368.556-1.01-.179-1.434l-2.6-1.5a2.759,2.759,0,0,0-2.483-.1l-7.93,4.577c-.636.367-.556,1.01.179,1.434l2.6,1.5A2.763,2.763,0,0,0,344.5,250.262Z" transform="translate(-300.995 -173.097)" fill="#06033e"/>
      <path id="Path_3226" data-name="Path 3226" d="M351.96,254.569l7.929-4.577c.637-.367.558-1.01-.177-1.434l-2.6-1.5a2.759,2.759,0,0,0-2.483-.1l-7.929,4.577c-.637.367-.558,1.01.177,1.434l2.6,1.5A2.754,2.754,0,0,0,351.96,254.569Z" transform="translate(-320.589 -170.4)" fill="#06033e"/>
      <path id="Path_3227" data-name="Path 3227" d="M359.423,258.878l7.929-4.579c.636-.367.556-1.01-.179-1.434l-2.6-1.5a2.762,2.762,0,0,0-2.485-.1l-7.929,4.577c-.636.367-.556,1.01.179,1.434l2.6,1.5A2.768,2.768,0,0,0,359.423,258.878Z" transform="translate(-340.183 -167.703)" fill="#06033e"/>
      <path id="Path_3228" data-name="Path 3228" d="M366.884,263.185l7.929-4.577c.637-.367.558-1.01-.179-1.434l-2.6-1.5a2.759,2.759,0,0,0-2.483-.1l-7.929,4.577c-.637.368-.558,1.01.177,1.434l2.6,1.5A2.758,2.758,0,0,0,366.884,263.185Z" transform="translate(-359.778 -165.006)" fill="#06033e"/>
      <path id="Path_3229" data-name="Path 3229" d="M298.243,230.585l7.929-4.579c.636-.367.556-1.008-.179-1.434l-7.855-4.535a2.763,2.763,0,0,0-2.485-.1l-7.929,4.577c-.637.367-.556,1.01.179,1.434l7.855,4.535A2.763,2.763,0,0,0,298.243,230.585Z" transform="translate(-170.97 -187.317)" fill="#06033e"/>
      <path id="Path_3230" data-name="Path 3230" d="M305.772,234.932l7.929-4.577c.637-.367.558-1.01-.177-1.434l-7.857-4.535a2.759,2.759,0,0,0-2.483-.1l-7.929,4.579c-.637.367-.558,1.01.177,1.433l7.857,4.537A2.759,2.759,0,0,0,305.772,234.932Z" transform="translate(-190.745 -184.595)" fill="#06033e"/>
      <path id="Path_3231" data-name="Path 3231" d="M313.3,239.28l7.929-4.577c.637-.367.558-1.01-.177-1.434l-7.857-4.537a2.759,2.759,0,0,0-2.483-.1l-7.93,4.577c-.636.367-.556,1.01.179,1.434l7.857,4.537A2.759,2.759,0,0,0,313.3,239.28Z" transform="translate(-210.52 -181.873)" fill="#06033e"/>
      <path id="Path_3232" data-name="Path 3232" d="M320.833,243.627l7.929-4.577c.636-.367.556-1.01-.179-1.434l-7.855-4.535a2.762,2.762,0,0,0-2.485-.1l-7.929,4.577c-.636.367-.556,1.01.179,1.434l7.855,4.535A2.758,2.758,0,0,0,320.833,243.627Z" transform="translate(-230.295 -179.151)" fill="#06033e"/>
      <path id="Path_3233" data-name="Path 3233" d="M328.364,247.975l7.929-4.577c.636-.367.556-1.01-.179-1.434l-7.855-4.537a2.768,2.768,0,0,0-2.485-.1l-7.929,4.577c-.637.367-.556,1.01.179,1.434l7.855,4.537A2.763,2.763,0,0,0,328.364,247.975Z" transform="translate(-250.069 -176.429)" fill="#06033e"/>
      <path id="Path_3234" data-name="Path 3234" d="M335.893,252.323l7.929-4.579c.637-.367.558-1.008-.177-1.433l-7.857-4.537a2.759,2.759,0,0,0-2.483-.1l-7.929,4.577c-.637.367-.558,1.01.177,1.434l7.857,4.535A2.76,2.76,0,0,0,335.893,252.323Z" transform="translate(-269.845 -173.707)" fill="#06033e"/>
      <path id="Path_3235" data-name="Path 3235" d="M343.423,256.67l7.929-4.577c.637-.367.558-1.01-.177-1.434l-7.857-4.535a2.76,2.76,0,0,0-2.483-.1L332.9,250.6c-.636.367-.556,1.008.179,1.434l7.857,4.535A2.759,2.759,0,0,0,343.423,256.67Z" transform="translate(-289.619 -170.986)" fill="#06033e"/>
      <path id="Path_3236" data-name="Path 3236" d="M350.954,261.018l7.929-4.577c.636-.367.556-1.01-.179-1.434l-7.855-4.537a2.763,2.763,0,0,0-2.485-.1l-7.929,4.577c-.636.367-.556,1.01.179,1.434l7.855,4.537A2.762,2.762,0,0,0,350.954,261.018Z" transform="translate(-309.394 -168.264)" fill="#06033e"/>
      <path id="Path_3237" data-name="Path 3237" d="M358.484,265.365l7.93-4.577c.636-.368.556-1.01-.179-1.434l-7.857-4.535a2.759,2.759,0,0,0-2.483-.1l-7.929,4.577c-.637.367-.558,1.01.179,1.434L356,265.262A2.759,2.759,0,0,0,358.484,265.365Z" transform="translate(-329.169 -165.542)" fill="#06033e"/>
      <path id="Path_3238" data-name="Path 3238" d="M245.705,234.549l23.352-13.482c.637-.367.558-1.01-.179-1.434l-7.855-4.535a2.758,2.758,0,0,0-2.485-.1l-23.35,13.482c-.637.367-.558,1.01.177,1.434l7.857,4.535A2.759,2.759,0,0,0,245.705,234.549Z" transform="translate(-48.429 -190.409)" fill="#06033e"/>
      <path id="Path_3239" data-name="Path 3239" d="M338.216,287.962l23.352-13.482c.637-.369.556-1.01-.179-1.434l-7.855-4.537a2.762,2.762,0,0,0-2.485-.1L327.7,281.888c-.637.367-.558,1.01.177,1.434l7.857,4.535A2.76,2.76,0,0,0,338.216,287.962Z" transform="translate(-291.368 -156.97)" fill="#06033e"/>
      <path id="Path_3240" data-name="Path 3240" d="M319.09,277.085l7.929-4.579c.636-.367.556-1.01-.179-1.434l-9.358-5.4a2.762,2.762,0,0,0-2.485-.1l-7.929,4.577c-.636.367-.556,1.01.179,1.434l9.358,5.4A2.763,2.763,0,0,0,319.09,277.085Z" transform="translate(-223.273 -158.749)" fill="#06033e"/>
      <path id="Path_3241" data-name="Path 3241" d="M261.483,246.567l12.68-7.32c.637-.367.556-1.01-.179-1.434l-9.358-5.4a2.757,2.757,0,0,0-2.485-.1l-12.68,7.32c-.637.367-.556,1.01.179,1.434l9.358,5.4A2.763,2.763,0,0,0,261.483,246.567Z" transform="translate(-76.746 -179.571)" fill="#06033e"/>
      <path id="Path_3242" data-name="Path 3242" d="M308.911,273.95l12.682-7.321c.636-.368.556-1.01-.179-1.434l-9.36-5.4a2.759,2.759,0,0,0-2.483-.1l-12.68,7.321c-.637.367-.558,1.01.177,1.434l9.36,5.4A2.754,2.754,0,0,0,308.911,273.95Z" transform="translate(-201.298 -162.428)" fill="#06033e"/>
      <path id="Path_3243" data-name="Path 3243" d="M272.347,252.841l12.68-7.322c.637-.368.558-1.01-.177-1.433l-9.36-5.4a2.755,2.755,0,0,0-2.483-.1L260.325,245.9c-.636.367-.556,1.008.179,1.434l9.36,5.4A2.759,2.759,0,0,0,272.347,252.841Z" transform="translate(-105.276 -175.644)" fill="#06033e"/>
      <path id="Path_3244" data-name="Path 3244" d="M315.858,238.514l-55.131,31.83a.754.754,0,0,0,0,1.429l9.543,5.511a2.738,2.738,0,0,0,2.478,0l55.131-31.83Z" transform="translate(-148.213 -175.529)" fill="#06033e"/>
      <path id="Path_3245" data-name="Path 3245" d="M338.1,280.514l-8.833,5.1c-.522.3-.455.828.146,1.176L333.24,289a2.264,2.264,0,0,0,2.036.085l8.831-5.1c.522-.3.457-.828-.146-1.176l-3.828-2.21A2.264,2.264,0,0,0,338.1,280.514Z" transform="translate(-276.502 -149.362)" fill="#06033e"/>
      <path id="Path_3246" data-name="Path 3246" d="M330.5,276.13l-8.833,5.1c-.522.3-.457.828.146,1.176l3.828,2.211a2.269,2.269,0,0,0,2.036.085l8.833-5.1c.522-.3.457-.828-.146-1.176l-3.828-2.211A2.269,2.269,0,0,0,330.5,276.13Z" transform="translate(-256.563 -152.107)" fill="#06033e"/>
      <path id="Path_3247" data-name="Path 3247" d="M322.974,271.783l-8.833,5.1c-.522.3-.455.828.146,1.176l3.829,2.21a2.264,2.264,0,0,0,2.036.085l8.831-5.1c.522-.3.457-.828-.146-1.176l-3.828-2.21A2.264,2.264,0,0,0,322.974,271.783Z" transform="translate(-236.788 -154.828)" fill="#06033e"/>
      <path id="Path_3248" data-name="Path 3248" d="M334.661,273.73l-8.831,5.1c-.522.3-.457.828.146,1.174l3.828,2.211a2.264,2.264,0,0,0,2.036.085l8.833-5.1c.522-.3.455-.828-.146-1.176l-3.829-2.21A2.259,2.259,0,0,0,334.661,273.73Z" transform="translate(-267.482 -153.61)" fill="#06033e"/>
    </g>
    <g id="Group_1947" data-name="Group 1947" transform="translate(128.742 218.73)" opacity="0.4">
      <path id="Path_3249" data-name="Path 3249" d="M238.892,230.781l7.929-4.577c.636-.367.556-1.01-.179-1.434l-9.358-5.4a2.762,2.762,0,0,0-2.485-.1l-7.929,4.577c-.637.367-.556,1.01.179,1.434l9.358,5.4A2.763,2.763,0,0,0,238.892,230.781Z" transform="translate(-12.669 -187.737)" fill="#06033e"/>
      <path id="Path_3250" data-name="Path 3250" d="M246.421,235.129l7.93-4.579c.636-.367.556-1.008-.179-1.433l-9.36-5.4a2.76,2.76,0,0,0-2.483-.1l-7.929,4.579c-.637.368-.558,1.008.177,1.433l9.36,5.4A2.755,2.755,0,0,0,246.421,235.129Z" transform="translate(-32.444 -185.015)" fill="#06033e"/>
      <path id="Path_3251" data-name="Path 3251" d="M253.952,239.476l7.929-4.577c.637-.367.558-1.01-.177-1.434l-9.36-5.4a2.759,2.759,0,0,0-2.483-.1l-7.93,4.577c-.636.368-.556,1.01.179,1.434l9.36,5.4A2.759,2.759,0,0,0,253.952,239.476Z" transform="translate(-52.219 -182.293)" fill="#06033e"/>
      <path id="Path_3252" data-name="Path 3252" d="M262.864,235.552l7.93-4.577c.636-.367.556-1.01-.179-1.434L262.758,225a2.759,2.759,0,0,0-2.483-.1l-7.929,4.577c-.637.367-.558,1.01.177,1.434l7.857,4.537A2.759,2.759,0,0,0,262.864,235.552Z" transform="translate(-78.066 -184.207)" fill="#06033e"/>
      <path id="Path_3253" data-name="Path 3253" d="M270.394,239.9l7.929-4.577c.637-.367.558-1.01-.177-1.434l-7.857-4.535a2.759,2.759,0,0,0-2.483-.1l-7.929,4.577c-.637.368-.558,1.01.177,1.434l7.857,4.535A2.754,2.754,0,0,0,270.394,239.9Z" transform="translate(-97.841 -181.485)" fill="#06033e"/>
      <path id="Path_3254" data-name="Path 3254" d="M277.925,244.247l7.929-4.577c.637-.367.556-1.01-.179-1.434l-7.855-4.535a2.763,2.763,0,0,0-2.485-.1l-7.929,4.579c-.636.366-.556,1.008.179,1.433l7.856,4.537A2.763,2.763,0,0,0,277.925,244.247Z" transform="translate(-117.616 -178.763)" fill="#06033e"/>
      <path id="Path_3255" data-name="Path 3255" d="M285.456,248.6l7.929-4.577c.636-.367.556-1.01-.179-1.434l-7.855-4.537a2.762,2.762,0,0,0-2.485-.1l-7.929,4.577c-.637.367-.556,1.01.179,1.434l7.855,4.535A2.763,2.763,0,0,0,285.456,248.6Z" transform="translate(-137.391 -176.041)" fill="#06033e"/>
      <path id="Path_3256" data-name="Path 3256" d="M292.985,252.942l7.929-4.577c.637-.367.558-1.01-.177-1.434l-7.857-4.535a2.754,2.754,0,0,0-2.483-.1l-7.929,4.577c-.637.367-.558,1.01.177,1.434l7.857,4.535A2.759,2.759,0,0,0,292.985,252.942Z" transform="translate(-157.166 -173.32)" fill="#06033e"/>
      <path id="Path_3257" data-name="Path 3257" d="M300.515,257.29l7.929-4.577c.637-.367.558-1.01-.177-1.434l-7.857-4.537a2.759,2.759,0,0,0-2.483-.1L290,251.217c-.637.367-.558,1.01.177,1.434l7.857,4.537A2.759,2.759,0,0,0,300.515,257.29Z" transform="translate(-176.94 -170.598)" fill="#06033e"/>
      <path id="Path_3258" data-name="Path 3258" d="M308.046,261.638l7.929-4.579c.636-.368.556-1.01-.179-1.434l-7.856-4.535a2.762,2.762,0,0,0-2.485-.1l-7.929,4.577c-.636.367-.556,1.01.179,1.434l7.855,4.535A2.763,2.763,0,0,0,308.046,261.638Z" transform="translate(-196.715 -167.876)" fill="#06033e"/>
      <path id="Path_3259" data-name="Path 3259" d="M315.576,265.985l7.929-4.577c.636-.368.556-1.01-.179-1.434l-7.855-4.535a2.763,2.763,0,0,0-2.485-.1l-7.929,4.579c-.636.367-.556,1.008.179,1.433l7.856,4.537A2.762,2.762,0,0,0,315.576,265.985Z" transform="translate(-216.49 -165.154)" fill="#06033e"/>
      <path id="Path_3260" data-name="Path 3260" d="M323.106,270.333l7.93-4.577c.636-.369.556-1.01-.179-1.434L323,259.785a2.759,2.759,0,0,0-2.483-.1l-7.929,4.577c-.637.367-.558,1.01.177,1.434l7.857,4.537A2.759,2.759,0,0,0,323.106,270.333Z" transform="translate(-236.265 -162.432)" fill="#06033e"/>
      <path id="Path_3261" data-name="Path 3261" d="M330.636,274.68l7.929-4.577c.637-.367.558-1.01-.177-1.434l-7.857-4.535a2.76,2.76,0,0,0-2.483-.1l-7.93,4.579c-.636.368-.556,1.01.179,1.434l7.857,4.535A2.759,2.759,0,0,0,330.636,274.68Z" transform="translate(-256.04 -159.71)" fill="#06033e"/>
      <path id="Path_3262" data-name="Path 3262" d="M273.959,233.494l7.929-4.579c.637-.367.558-1.01-.177-1.434l-7.857-4.535a2.759,2.759,0,0,0-2.483-.1l-7.93,4.577c-.636.367-.556,1.01.179,1.434l7.857,4.535A2.759,2.759,0,0,0,273.959,233.494Z" transform="translate(-107.203 -185.495)" fill="#06033e"/>
      <path id="Path_3263" data-name="Path 3263" d="M266.317,229.081l7.929-4.577c.636-.367.556-1.01-.179-1.434l-7.855-4.535a2.758,2.758,0,0,0-2.485-.1l-7.929,4.577c-.636.369-.556,1.01.179,1.434l7.856,4.537A2.763,2.763,0,0,0,266.317,229.081Z" transform="translate(-87.133 -188.258)" fill="#06033e"/>
      <path id="Path_3264" data-name="Path 3264" d="M253.036,226.694l17.077-9.859c.636-.367.556-1.01-.179-1.434l-7.855-4.535a2.763,2.763,0,0,0-2.485-.1l-17.077,9.86c-.636.367-.556,1.01.179,1.434l7.855,4.535A2.763,2.763,0,0,0,253.036,226.694Z" transform="translate(-61.404 -193.058)" fill="#06033e"/>
      <path id="Path_3265" data-name="Path 3265" d="M260.366,220.605l13.859-8c.636-.367.556-1.01-.179-1.434l-7.857-4.535a2.76,2.76,0,0,0-2.483-.1l-13.859,8c-.636.367-.556,1.01.179,1.434l7.855,4.535A2.763,2.763,0,0,0,260.366,220.605Z" transform="translate(-77.435 -195.708)" fill="#06033e"/>
      <path id="Path_3266" data-name="Path 3266" d="M281.49,237.841l7.929-4.577c.636-.367.556-1.01-.179-1.434l-7.855-4.535a2.763,2.763,0,0,0-2.485-.1l-7.929,4.579c-.636.367-.556,1.01.179,1.433l7.855,4.537A2.762,2.762,0,0,0,281.49,237.841Z" transform="translate(-126.978 -182.774)" fill="#06033e"/>
      <path id="Path_3267" data-name="Path 3267" d="M289.02,242.189l7.93-4.577c.636-.369.556-1.01-.179-1.434l-7.855-4.537a2.763,2.763,0,0,0-2.485-.1l-7.929,4.577c-.637.367-.558,1.01.179,1.434l7.855,4.537A2.759,2.759,0,0,0,289.02,242.189Z" transform="translate(-146.753 -180.052)" fill="#06033e"/>
      <path id="Path_3268" data-name="Path 3268" d="M296.55,246.536l7.929-4.577c.637-.367.558-1.01-.177-1.434l-7.857-4.535a2.765,2.765,0,0,0-2.483-.1l-7.929,4.579c-.637.367-.558,1.01.177,1.434l7.857,4.535A2.754,2.754,0,0,0,296.55,246.536Z" transform="translate(-166.528 -177.33)" fill="#06033e"/>
      <path id="Path_3269" data-name="Path 3269" d="M304.08,250.884l7.929-4.577c.637-.367.558-1.01-.179-1.434l-7.855-4.537a2.759,2.759,0,0,0-2.483-.1l-7.93,4.577c-.636.367-.556,1.01.179,1.434l7.855,4.537A2.762,2.762,0,0,0,304.08,250.884Z" transform="translate(-186.302 -174.608)" fill="#06033e"/>
      <path id="Path_3270" data-name="Path 3270" d="M311.611,255.232l7.929-4.579c.636-.367.556-1.008-.179-1.434l-7.856-4.535a2.762,2.762,0,0,0-2.485-.1l-7.929,4.577c-.636.367-.556,1.01.179,1.434l7.855,4.535A2.763,2.763,0,0,0,311.611,255.232Z" transform="translate(-206.077 -171.886)" fill="#06033e"/>
      <path id="Path_3271" data-name="Path 3271" d="M319.142,259.579,327.071,255c.636-.367.556-1.01-.179-1.434l-7.856-4.535a2.763,2.763,0,0,0-2.485-.1l-7.929,4.579c-.637.367-.558,1.01.179,1.434l7.855,4.535A2.762,2.762,0,0,0,319.142,259.579Z" transform="translate(-225.853 -169.164)" fill="#06033e"/>
      <path id="Path_3272" data-name="Path 3272" d="M326.671,263.927l7.929-4.577c.637-.367.558-1.01-.177-1.434l-7.857-4.537a2.759,2.759,0,0,0-2.483-.1l-7.929,4.577c-.637.368-.558,1.01.177,1.434l7.857,4.535A2.754,2.754,0,0,0,326.671,263.927Z" transform="translate(-245.627 -166.443)" fill="#06033e"/>
      <path id="Path_3273" data-name="Path 3273" d="M334.2,268.274l7.929-4.577c.637-.367.558-1.01-.179-1.434l-7.855-4.535a2.754,2.754,0,0,0-2.483-.1l-7.93,4.577c-.636.367-.556,1.01.179,1.434l7.857,4.535A2.754,2.754,0,0,0,334.2,268.274Z" transform="translate(-265.402 -163.721)" fill="#06033e"/>
      <path id="Path_3274" data-name="Path 3274" d="M341.732,272.622l7.929-4.577c.636-.367.556-1.01-.179-1.434l-7.856-4.535a2.763,2.763,0,0,0-2.485-.1l-7.929,4.577c-.636.367-.556,1.01.179,1.434l7.855,4.537A2.762,2.762,0,0,0,341.732,272.622Z" transform="translate(-285.176 -160.999)" fill="#06033e"/>
      <path id="Path_3275" data-name="Path 3275" d="M349.357,282.434l17.3-9.987c.636-.369.556-1.01-.179-1.434l-7.855-4.537a2.762,2.762,0,0,0-2.485-.1l-17.3,9.989c-.637.366-.556,1.008.179,1.433l7.855,4.537A2.762,2.762,0,0,0,349.357,282.434Z" transform="translate(-314.569 -158.243)" fill="#06033e"/>
      <path id="Path_3276" data-name="Path 3276" d="M365.675,273.37l14.6-8.431c.637-.368.558-1.01-.179-1.434l-7.855-4.535a2.763,2.763,0,0,0-2.485-.1l-14.6,8.429c-.636.367-.556,1.01.179,1.434l7.857,4.537A2.76,2.76,0,0,0,365.675,273.37Z" transform="translate(-354.727 -162.942)" fill="#06033e"/>
      <path id="Path_3277" data-name="Path 3277" d="M294.677,236.991l7.929-4.579c.636-.367.556-1.008-.179-1.434l-7.855-4.535a2.763,2.763,0,0,0-2.485-.1l-7.929,4.577c-.636.367-.556,1.01.179,1.434l7.855,4.535A2.763,2.763,0,0,0,294.677,236.991Z" transform="translate(-161.608 -183.306)" fill="#06033e"/>
      <path id="Path_3278" data-name="Path 3278" d="M286.959,232.535l7.929-4.577c.637-.369.558-1.01-.177-1.434l-7.857-4.537a2.759,2.759,0,0,0-2.483-.1l-7.929,4.577c-.637.367-.558,1.01.177,1.434l7.857,4.535A2.754,2.754,0,0,0,286.959,232.535Z" transform="translate(-141.341 -186.096)" fill="#06033e"/>
      <path id="Path_3279" data-name="Path 3279" d="M279.242,228.079l7.929-4.577c.636-.367.556-1.01-.179-1.434l-7.855-4.537a2.768,2.768,0,0,0-2.485-.1l-7.929,4.577c-.636.367-.556,1.01.179,1.434l7.855,4.537A2.762,2.762,0,0,0,279.242,228.079Z" transform="translate(-121.075 -188.885)" fill="#06033e"/>
      <path id="Path_3280" data-name="Path 3280" d="M271.524,223.623l7.93-4.577c.636-.367.556-1.01-.179-1.434l-7.857-4.535a2.76,2.76,0,0,0-2.483-.1l-7.929,4.579c-.637.368-.558,1.01.177,1.434l7.857,4.535A2.759,2.759,0,0,0,271.524,223.623Z" transform="translate(-100.808 -191.675)" fill="#06033e"/>
      <path id="Path_3281" data-name="Path 3281" d="M302.207,241.338l7.93-4.577c.636-.367.556-1.01-.179-1.434l-7.857-4.535a2.76,2.76,0,0,0-2.483-.1l-7.929,4.579c-.637.367-.558,1.008.179,1.433l7.855,4.537A2.759,2.759,0,0,0,302.207,241.338Z" transform="translate(-181.383 -180.584)" fill="#06033e"/>
      <path id="Path_3282" data-name="Path 3282" d="M309.737,245.686l7.929-4.577c.637-.367.558-1.01-.177-1.434l-7.857-4.537a2.759,2.759,0,0,0-2.483-.1l-7.929,4.577c-.637.367-.558,1.01.177,1.434l7.857,4.535A2.755,2.755,0,0,0,309.737,245.686Z" transform="translate(-201.157 -177.863)" fill="#06033e"/>
      <path id="Path_3283" data-name="Path 3283" d="M317.268,250.033l7.929-4.577c.637-.367.556-1.01-.179-1.434l-7.855-4.535a2.758,2.758,0,0,0-2.485-.1l-7.929,4.577c-.636.367-.556,1.01.179,1.434l7.855,4.535A2.763,2.763,0,0,0,317.268,250.033Z" transform="translate(-220.932 -175.141)" fill="#06033e"/>
      <path id="Path_3284" data-name="Path 3284" d="M324.8,254.381l7.929-4.577c.636-.367.556-1.01-.179-1.434l-7.855-4.537a2.762,2.762,0,0,0-2.485-.1l-7.929,4.577c-.636.367-.556,1.01.179,1.434l7.855,4.537A2.763,2.763,0,0,0,324.8,254.381Z" transform="translate(-240.707 -172.419)" fill="#06033e"/>
      <path id="Path_3285" data-name="Path 3285" d="M332.328,258.729l7.93-4.579c.636-.367.556-1.01-.179-1.433l-7.857-4.537a2.759,2.759,0,0,0-2.483-.1l-7.929,4.577c-.637.367-.558,1.01.177,1.434l7.857,4.535A2.76,2.76,0,0,0,332.328,258.729Z" transform="translate(-260.482 -169.697)" fill="#06033e"/>
      <path id="Path_3286" data-name="Path 3286" d="M339.858,263.076l7.929-4.577c.637-.367.558-1.01-.177-1.434l-7.857-4.535a2.76,2.76,0,0,0-2.483-.1L329.341,257c-.637.367-.558,1.008.177,1.433l7.857,4.537A2.759,2.759,0,0,0,339.858,263.076Z" transform="translate(-280.257 -166.975)" fill="#06033e"/>
      <path id="Path_3287" data-name="Path 3287" d="M347.389,267.424l7.929-4.577c.637-.369.556-1.01-.179-1.434l-7.855-4.537a2.763,2.763,0,0,0-2.485-.1l-7.929,4.577c-.636.367-.556,1.01.179,1.434l7.855,4.535A2.758,2.758,0,0,0,347.389,267.424Z" transform="translate(-300.032 -164.253)" fill="#06033e"/>
      <path id="Path_3288" data-name="Path 3288" d="M354.92,271.771l7.929-4.577c.636-.368.556-1.01-.179-1.434l-7.855-4.535a2.768,2.768,0,0,0-2.485-.1L344.4,265.7c-.637.367-.556,1.01.179,1.434l7.855,4.535A2.763,2.763,0,0,0,354.92,271.771Z" transform="translate(-319.807 -161.531)" fill="#06033e"/>
      <path id="Path_3289" data-name="Path 3289" d="M362.449,276.119l7.929-4.577c.637-.367.558-1.01-.177-1.434l-7.857-4.537a2.759,2.759,0,0,0-2.483-.1l-7.929,4.577c-.637.367-.558,1.01.177,1.434l7.857,4.537A2.759,2.759,0,0,0,362.449,276.119Z" transform="translate(-339.582 -158.81)" fill="#06033e"/>
      <path id="Path_3290" data-name="Path 3290" d="M290.712,226.237l7.929-4.577c.636-.367.556-1.01-.179-1.434l-7.855-4.535a2.758,2.758,0,0,0-2.485-.1l-7.929,4.577c-.636.369-.556,1.01.179,1.434l7.855,4.537A2.763,2.763,0,0,0,290.712,226.237Z" transform="translate(-151.195 -190.039)" fill="#06033e"/>
      <path id="Path_3291" data-name="Path 3291" d="M283.22,221.911l7.929-4.577c.636-.367.556-1.01-.179-1.434l-7.856-4.535a2.758,2.758,0,0,0-2.485-.1l-7.929,4.577c-.637.369-.556,1.01.179,1.434l7.855,4.537A2.762,2.762,0,0,0,283.22,221.911Z" transform="translate(-131.519 -192.747)" fill="#06033e"/>
      <path id="Path_3292" data-name="Path 3292" d="M275.726,217.585l7.93-4.577c.636-.367.556-1.01-.179-1.434l-7.857-4.535a2.754,2.754,0,0,0-2.483-.1l-7.929,4.577c-.637.369-.558,1.01.177,1.434l7.857,4.537A2.759,2.759,0,0,0,275.726,217.585Z" transform="translate(-111.843 -195.455)" fill="#06033e"/>
      <path id="Path_3293" data-name="Path 3293" d="M268.233,213.259l7.929-4.577c.637-.367.558-1.01-.177-1.434l-7.857-4.535a2.755,2.755,0,0,0-2.483-.1l-7.929,4.577c-.637.369-.558,1.01.177,1.434l7.857,4.537A2.759,2.759,0,0,0,268.233,213.259Z" transform="translate(-92.166 -198.163)" fill="#06033e"/>
      <path id="Path_3294" data-name="Path 3294" d="M270.678,207.642l7.929-4.577c.637-.369.558-1.01-.177-1.434l-2.6-1.5a2.758,2.758,0,0,0-2.485-.1l-7.929,4.577c-.636.367-.556,1.01.179,1.434l2.6,1.5A2.759,2.759,0,0,0,270.678,207.642Z" transform="translate(-107.139 -199.779)" fill="#06033e"/>
      <path id="Path_3295" data-name="Path 3295" d="M280.457,213.287l7.929-4.577c.637-.368.558-1.01-.177-1.434l-2.6-1.5a2.757,2.757,0,0,0-2.485-.1l-7.929,4.577c-.637.367-.556,1.01.179,1.434l2.6,1.5A2.759,2.759,0,0,0,280.457,213.287Z" transform="translate(-132.818 -196.245)" fill="#06033e"/>
      <path id="Path_3296" data-name="Path 3296" d="M287.92,217.6l7.929-4.577c.636-.368.556-1.01-.179-1.434l-2.6-1.5a2.757,2.757,0,0,0-2.485-.1l-7.929,4.577c-.636.367-.556,1.01.179,1.434l2.6,1.5A2.762,2.762,0,0,0,287.92,217.6Z" transform="translate(-152.412 -193.548)" fill="#06033e"/>
      <path id="Path_3297" data-name="Path 3297" d="M295.38,221.9l7.929-4.577c.637-.367.558-1.01-.177-1.434l-2.6-1.5a2.76,2.76,0,0,0-2.483-.1l-7.929,4.579c-.637.367-.558,1.01.177,1.434l2.6,1.5A2.759,2.759,0,0,0,295.38,221.9Z" transform="translate(-172.007 -190.851)" fill="#06033e"/>
      <path id="Path_3298" data-name="Path 3298" d="M302.843,226.211l7.929-4.577c.636-.367.556-1.01-.179-1.434l-2.6-1.5a2.763,2.763,0,0,0-2.485-.1l-7.929,4.579c-.636.367-.556,1.01.179,1.434l2.6,1.5A2.763,2.763,0,0,0,302.843,226.211Z" transform="translate(-191.601 -188.154)" fill="#06033e"/>
      <path id="Path_3299" data-name="Path 3299" d="M344.5,250.262l7.929-4.579c.636-.368.556-1.01-.179-1.434l-2.6-1.5a2.759,2.759,0,0,0-2.483-.1l-7.93,4.577c-.636.367-.556,1.01.179,1.434l2.6,1.5A2.763,2.763,0,0,0,344.5,250.262Z" transform="translate(-300.995 -173.097)" fill="#06033e"/>
      <path id="Path_3300" data-name="Path 3300" d="M351.96,254.569l7.929-4.577c.637-.367.558-1.01-.177-1.434l-2.6-1.5a2.759,2.759,0,0,0-2.483-.1l-7.929,4.577c-.637.367-.558,1.01.177,1.434l2.6,1.5A2.754,2.754,0,0,0,351.96,254.569Z" transform="translate(-320.589 -170.4)" fill="#06033e"/>
      <path id="Path_3301" data-name="Path 3301" d="M359.423,258.878l7.929-4.579c.636-.367.556-1.01-.179-1.434l-2.6-1.5a2.762,2.762,0,0,0-2.485-.1l-7.929,4.577c-.636.367-.556,1.01.179,1.434l2.6,1.5A2.768,2.768,0,0,0,359.423,258.878Z" transform="translate(-340.183 -167.703)" fill="#06033e"/>
      <path id="Path_3302" data-name="Path 3302" d="M366.884,263.185l7.929-4.577c.637-.367.558-1.01-.179-1.434l-2.6-1.5a2.759,2.759,0,0,0-2.483-.1l-7.929,4.577c-.637.368-.558,1.01.177,1.434l2.6,1.5A2.758,2.758,0,0,0,366.884,263.185Z" transform="translate(-359.778 -165.006)" fill="#06033e"/>
      <path id="Path_3303" data-name="Path 3303" d="M298.243,230.585l7.929-4.579c.636-.367.556-1.008-.179-1.434l-7.855-4.535a2.763,2.763,0,0,0-2.485-.1l-7.929,4.577c-.637.367-.556,1.01.179,1.434l7.855,4.535A2.763,2.763,0,0,0,298.243,230.585Z" transform="translate(-170.97 -187.317)" fill="#06033e"/>
      <path id="Path_3304" data-name="Path 3304" d="M305.772,234.932l7.929-4.577c.637-.367.558-1.01-.177-1.434l-7.857-4.535a2.759,2.759,0,0,0-2.483-.1l-7.929,4.579c-.637.367-.558,1.01.177,1.433l7.857,4.537A2.759,2.759,0,0,0,305.772,234.932Z" transform="translate(-190.745 -184.595)" fill="#06033e"/>
      <path id="Path_3305" data-name="Path 3305" d="M313.3,239.28l7.929-4.577c.637-.367.558-1.01-.177-1.434l-7.857-4.537a2.759,2.759,0,0,0-2.483-.1l-7.93,4.577c-.636.367-.556,1.01.179,1.434l7.857,4.537A2.759,2.759,0,0,0,313.3,239.28Z" transform="translate(-210.52 -181.873)" fill="#06033e"/>
      <path id="Path_3306" data-name="Path 3306" d="M320.833,243.627l7.929-4.577c.636-.367.556-1.01-.179-1.434l-7.855-4.535a2.762,2.762,0,0,0-2.485-.1l-7.929,4.577c-.636.367-.556,1.01.179,1.434l7.855,4.535A2.758,2.758,0,0,0,320.833,243.627Z" transform="translate(-230.295 -179.151)" fill="#06033e"/>
      <path id="Path_3307" data-name="Path 3307" d="M328.364,247.975l7.929-4.577c.636-.367.556-1.01-.179-1.434l-7.855-4.537a2.768,2.768,0,0,0-2.485-.1l-7.929,4.577c-.637.367-.556,1.01.179,1.434l7.855,4.537A2.763,2.763,0,0,0,328.364,247.975Z" transform="translate(-250.069 -176.429)" fill="#06033e"/>
      <path id="Path_3308" data-name="Path 3308" d="M335.893,252.323l7.929-4.579c.637-.367.558-1.008-.177-1.433l-7.857-4.537a2.759,2.759,0,0,0-2.483-.1l-7.929,4.577c-.637.367-.558,1.01.177,1.434l7.857,4.535A2.76,2.76,0,0,0,335.893,252.323Z" transform="translate(-269.845 -173.707)" fill="#06033e"/>
      <path id="Path_3309" data-name="Path 3309" d="M343.423,256.67l7.929-4.577c.637-.367.558-1.01-.177-1.434l-7.857-4.535a2.76,2.76,0,0,0-2.483-.1L332.9,250.6c-.636.367-.556,1.008.179,1.434l7.857,4.535A2.759,2.759,0,0,0,343.423,256.67Z" transform="translate(-289.619 -170.986)" fill="#06033e"/>
      <path id="Path_3310" data-name="Path 3310" d="M350.954,261.018l7.929-4.577c.636-.367.556-1.01-.179-1.434l-7.855-4.537a2.763,2.763,0,0,0-2.485-.1l-7.929,4.577c-.636.367-.556,1.01.179,1.434l7.855,4.537A2.762,2.762,0,0,0,350.954,261.018Z" transform="translate(-309.394 -168.264)" fill="#06033e"/>
      <path id="Path_3311" data-name="Path 3311" d="M358.484,265.365l7.93-4.577c.636-.368.556-1.01-.179-1.434l-7.857-4.535a2.759,2.759,0,0,0-2.483-.1l-7.929,4.577c-.637.367-.558,1.01.179,1.434L356,265.262A2.759,2.759,0,0,0,358.484,265.365Z" transform="translate(-329.169 -165.542)" fill="#06033e"/>
      <path id="Path_3312" data-name="Path 3312" d="M245.705,234.549l23.352-13.482c.637-.367.558-1.01-.179-1.434l-7.855-4.535a2.758,2.758,0,0,0-2.485-.1l-23.35,13.482c-.637.367-.558,1.01.177,1.434l7.857,4.535A2.759,2.759,0,0,0,245.705,234.549Z" transform="translate(-48.429 -190.409)" fill="#06033e"/>
      <path id="Path_3313" data-name="Path 3313" d="M338.216,287.962l23.352-13.482c.637-.369.556-1.01-.179-1.434l-7.855-4.537a2.762,2.762,0,0,0-2.485-.1L327.7,281.888c-.637.367-.558,1.01.177,1.434l7.857,4.535A2.76,2.76,0,0,0,338.216,287.962Z" transform="translate(-291.368 -156.97)" fill="#06033e"/>
      <path id="Path_3314" data-name="Path 3314" d="M319.09,277.085l7.929-4.579c.636-.367.556-1.01-.179-1.434l-9.358-5.4a2.762,2.762,0,0,0-2.485-.1l-7.929,4.577c-.636.367-.556,1.01.179,1.434l9.358,5.4A2.763,2.763,0,0,0,319.09,277.085Z" transform="translate(-223.273 -158.749)" fill="#06033e"/>
      <path id="Path_3315" data-name="Path 3315" d="M261.483,246.567l12.68-7.32c.637-.367.556-1.01-.179-1.434l-9.358-5.4a2.757,2.757,0,0,0-2.485-.1l-12.68,7.32c-.637.367-.556,1.01.179,1.434l9.358,5.4A2.763,2.763,0,0,0,261.483,246.567Z" transform="translate(-76.746 -179.571)" fill="#06033e"/>
      <path id="Path_3316" data-name="Path 3316" d="M308.911,273.95l12.682-7.321c.636-.368.556-1.01-.179-1.434l-9.36-5.4a2.759,2.759,0,0,0-2.483-.1l-12.68,7.321c-.637.367-.558,1.01.177,1.434l9.36,5.4A2.754,2.754,0,0,0,308.911,273.95Z" transform="translate(-201.298 -162.428)" fill="#06033e"/>
      <path id="Path_3317" data-name="Path 3317" d="M272.347,252.841l12.68-7.322c.637-.368.558-1.01-.177-1.433l-9.36-5.4a2.755,2.755,0,0,0-2.483-.1L260.325,245.9c-.636.367-.556,1.008.179,1.434l9.36,5.4A2.759,2.759,0,0,0,272.347,252.841Z" transform="translate(-105.276 -175.644)" fill="#06033e"/>
      <path id="Path_3318" data-name="Path 3318" d="M315.858,238.514l-55.131,31.83a.754.754,0,0,0,0,1.429l9.543,5.511a2.738,2.738,0,0,0,2.478,0l55.131-31.83Z" transform="translate(-148.213 -175.529)" fill="#06033e"/>
      <path id="Path_3319" data-name="Path 3319" d="M338.1,280.514l-8.833,5.1c-.522.3-.455.828.146,1.176L333.24,289a2.264,2.264,0,0,0,2.036.085l8.831-5.1c.522-.3.457-.828-.146-1.176l-3.828-2.21A2.264,2.264,0,0,0,338.1,280.514Z" transform="translate(-276.502 -149.362)" fill="#06033e"/>
      <path id="Path_3320" data-name="Path 3320" d="M330.5,276.13l-8.833,5.1c-.522.3-.457.828.146,1.176l3.828,2.211a2.269,2.269,0,0,0,2.036.085l8.833-5.1c.522-.3.457-.828-.146-1.176l-3.828-2.211A2.269,2.269,0,0,0,330.5,276.13Z" transform="translate(-256.563 -152.107)" fill="#06033e"/>
      <path id="Path_3321" data-name="Path 3321" d="M322.974,271.783l-8.833,5.1c-.522.3-.455.828.146,1.176l3.829,2.21a2.264,2.264,0,0,0,2.036.085l8.831-5.1c.522-.3.457-.828-.146-1.176l-3.828-2.21A2.264,2.264,0,0,0,322.974,271.783Z" transform="translate(-236.788 -154.828)" fill="#06033e"/>
      <path id="Path_3322" data-name="Path 3322" d="M334.661,273.73l-8.831,5.1c-.522.3-.457.828.146,1.174l3.828,2.211a2.264,2.264,0,0,0,2.036.085l8.833-5.1c.522-.3.455-.828-.146-1.176l-3.829-2.21A2.259,2.259,0,0,0,334.661,273.73Z" transform="translate(-267.482 -153.61)" fill="#06033e"/>
    </g>
    <path id="Path_3323" data-name="Path 3323" d="M324.681,389.274,558.608,254.217c3.678-2.124,5.6-7.3,4.288-11.558L509.994,70.9c-1.311-4.259-5.355-5.99-9.033-3.867L267.034,202.088c-3.678,2.124-5.6,7.3-4.288,11.558l52.9,171.762C316.957,389.668,321,391.4,324.681,389.274Z" transform="translate(-258.349 -64.727)" fill="url(#radial-gradient-4)"/>
    <path id="Path_3324" data-name="Path 3324" d="M325.041,380.874l226.9-131.107c3.52-2.033,5.358-6.984,4.1-11.06L505.464,74.5c-1.254-4.077-5.124-5.733-8.644-3.7l-226.9,131.107c-3.52,2.033-5.358,6.986-4.1,11.062l50.577,164.2C317.65,381.249,321.52,382.906,325.041,380.874Z" transform="translate(-256.504 -62.341)" fill="url(#linear-gradient-5)"/>
    <path id="Path_3325" data-name="Path 3325" d="M325.041,380.874l226.9-131.107c3.52-2.033,5.358-6.984,4.1-11.06L505.464,74.5c-1.254-4.077-5.124-5.733-8.644-3.7l-226.9,131.107c-3.52,2.033-5.358,6.986-4.1,11.062l50.577,164.2C317.65,381.249,321.52,382.906,325.041,380.874Z" transform="translate(-256.504 -62.341)" fill="#06033e" opacity="0.4"/>
    <path id="Path_3326" data-name="Path 3326" d="M325.041,380.874l226.9-131.107c3.52-2.033,5.358-6.984,4.1-11.06L505.464,74.5c-1.254-4.077-5.124-5.733-8.644-3.7l-226.9,131.107c-3.52,2.033-5.358,6.986-4.1,11.062l50.577,164.2C317.65,381.249,321.52,382.906,325.041,380.874Z" transform="translate(-256.504 -62.341)" fill="#06033e" opacity="0.4"/>
    <path id="Path_3327" data-name="Path 3327" d="M344.812,311.99l153.6-88.679a6.8,6.8,0,0,0,2.815-7.59L466.489,102.943c-.86-2.8-3.515-3.933-5.932-2.54l-153.6,88.68a6.8,6.8,0,0,0-2.815,7.589L338.88,309.45C339.742,312.247,342.4,313.385,344.812,311.99Z" transform="translate(-264.084 -43.637)" fill="#06033e" opacity="0.5"/>
    <g id="Group_1948" data-name="Group 1948" transform="translate(60.543 58.893)">
      <path id="Path_3328" data-name="Path 3328" d="M332.051,313.664l153.6-88.678a6.806,6.806,0,0,0,2.815-7.59L453.727,104.617c-.86-2.8-3.516-3.933-5.93-2.54l-153.6,88.68a6.8,6.8,0,0,0-2.816,7.589l34.736,112.778C326.979,313.921,329.634,315.059,332.051,313.664Z" transform="translate(-291.113 -101.482)" fill="url(#radial-gradient-5)"/>
    </g>
    <g id="Group_1949" data-name="Group 1949" transform="translate(60.543 58.893)" opacity="0.5">
      <path id="Path_3329" data-name="Path 3329" d="M332.051,313.664l153.6-88.678a6.806,6.806,0,0,0,2.815-7.59L453.727,104.617c-.86-2.8-3.516-3.933-5.93-2.54l-153.6,88.68a6.8,6.8,0,0,0-2.816,7.589l34.736,112.778C326.979,313.921,329.634,315.059,332.051,313.664Z" transform="translate(-291.113 -101.482)" fill="#06033e"/>
    </g>
    <path id="Path_3330" data-name="Path 3330" d="M316.716,190.757l153.6-88.68a3.824,3.824,0,0,1,4.322.148,4.137,4.137,0,0,0-2.218.568l-153.6,88.68A6.8,6.8,0,0,0,316,199.061L350.739,311.84a4.634,4.634,0,0,0,1.61,2.392,4.063,4.063,0,0,1-3.714-3.107L313.9,198.346A6.8,6.8,0,0,1,316.716,190.757Z" transform="translate(-253.086 -42.589)" fill="#fff"/>
    <path id="Path_3331" data-name="Path 3331" d="M267.752,313.819a11.557,11.557,0,0,0,5.691-1.335v0l61.538-35.528a4.449,4.449,0,0,0,2.529-3.792c0-1.745-1.237-3.459-3.394-4.7l-31.676-18.29c-3.872-2.233-9.551-2.452-12.939-.5L227.964,285.2a4.448,4.448,0,0,0-2.53,3.792c0,1.743,1.237,3.459,3.394,4.7l31.679,18.291A14.837,14.837,0,0,0,267.752,313.819Zm27.412-63.68a13.211,13.211,0,0,1,6.387,1.572L333.227,270c1.594.92,2.507,2.075,2.507,3.166a2.805,2.805,0,0,1-1.642,2.25l-61.538,35.531c-2.792,1.608-7.9,1.384-11.16-.5l-31.677-18.288c-1.594-.919-2.506-2.072-2.506-3.164a2.81,2.81,0,0,1,1.642-2.252l61.536-35.528A9.763,9.763,0,0,1,295.164,250.139Z" transform="translate(27.45 49.353)" fill="#06033e" opacity="0.4"/>
  </g>
  <g id="Group_1952" data-name="Group 1952" transform="translate(215.992 141.343)">
    <g id="Group_1951" data-name="Group 1951" transform="translate(42.707 7.583)">
      <path id="Path_3332" data-name="Path 3332" d="M334.977,141.826l9.495-5.483a2.475,2.475,0,0,0,1.055-2.73h0a1.406,1.406,0,0,0-2.135-.889l-9.495,5.483a2.474,2.474,0,0,0-1.055,2.73h0A1.406,1.406,0,0,0,334.977,141.826Z" transform="translate(-310.132 -127.026)" fill="#fff"/>
      <path id="Path_3333" data-name="Path 3333" d="M346.115,150.858l14-8.085a2.475,2.475,0,0,0,1.055-2.73h0a1.406,1.406,0,0,0-2.135-.888l-14,8.083a2.479,2.479,0,0,0-1.055,2.732h0A1.406,1.406,0,0,0,346.115,150.858Z" transform="translate(-343.891 -122.999)" fill="#fff"/>
      <path id="Path_3334" data-name="Path 3334" d="M323.2,167.824l9.5-5.481a2.481,2.481,0,0,0,1.055-2.732h0a1.406,1.406,0,0,0-2.135-.888l-9.5,5.483a2.473,2.473,0,0,0-1.055,2.73h0A1.406,1.406,0,0,0,323.2,167.824Z" transform="translate(-279.205 -110.749)" fill="#fff"/>
      <path id="Path_3335" data-name="Path 3335" d="M332.828,175.986l14-8.085a2.48,2.48,0,0,0,1.055-2.73h0a1.407,1.407,0,0,0-2.135-.889l-14,8.085a2.475,2.475,0,0,0-1.055,2.73h0A1.406,1.406,0,0,0,332.828,175.986Z" transform="translate(-308.997 -107.268)" fill="#fff"/>
      <path id="Path_3336" data-name="Path 3336" d="M319.674,136.4l5.932-3.424a2.475,2.475,0,0,0,1.055-2.73h0a1.406,1.406,0,0,0-2.135-.889l-5.932,3.426a2.475,2.475,0,0,0-1.055,2.73h0A1.406,1.406,0,0,0,319.674,136.4Z" transform="translate(-266.385 -129.134)" fill="#fff"/>
      <path id="Path_3337" data-name="Path 3337" d="M323.154,150.915l18.124-10.465a2.474,2.474,0,0,0,1.055-2.73h0a1.406,1.406,0,0,0-2.135-.889L322.074,147.3a2.475,2.475,0,0,0-1.055,2.73h0A1.406,1.406,0,0,0,323.154,150.915Z" transform="translate(-287.714 -124.455)" fill="#fff"/>
      <path id="Path_3338" data-name="Path 3338" d="M320.37,153.2l5.933-3.424a2.48,2.48,0,0,0,1.055-2.73h0a1.406,1.406,0,0,0-2.135-.889l-5.933,3.424a2.481,2.481,0,0,0-1.055,2.732h0A1.406,1.406,0,0,0,320.37,153.2Z" transform="translate(-268.215 -118.616)" fill="#fff"/>
      <path id="Path_3339" data-name="Path 3339" d="M333.039,188.1l15.844-9.148a2.476,2.476,0,0,0,1.055-2.73h0a1.406,1.406,0,0,0-2.135-.889l-15.844,9.148a2.477,2.477,0,0,0-1.055,2.73h0A1.406,1.406,0,0,0,333.039,188.1Z" transform="translate(-311.395 -100.347)" fill="#fff"/>
      <path id="Path_3340" data-name="Path 3340" d="M317.588,161.3l3.808-2.2a2.478,2.478,0,0,0,1.055-2.732h0a1.406,1.406,0,0,0-2.135-.888l-3.808,2.2a2.476,2.476,0,0,0-1.055,2.73h0A1.405,1.405,0,0,0,317.588,161.3Z" transform="translate(-258.784 -112.776)" fill="#fff"/>
      <path id="Path_3341" data-name="Path 3341" d="M314.806,171.159l4.729-2.73a2.473,2.473,0,0,0,1.055-2.73h0a1.405,1.405,0,0,0-2.135-.888l-4.729,2.73a2.475,2.475,0,0,0-1.055,2.73h0A1.406,1.406,0,0,0,314.806,171.159Z" transform="translate(-252.398 -106.937)" fill="#fff"/>
      <path id="Path_3342" data-name="Path 3342" d="M321.36,179.412l12.467-7.2a2.475,2.475,0,0,0,1.055-2.73h0a1.4,1.4,0,0,0-2.135-.888l-12.467,7.2a2.477,2.477,0,0,0-1.055,2.73h0A1.406,1.406,0,0,0,321.36,179.412Z" transform="translate(-277.348 -104.568)" fill="#fff"/>
      <path id="Path_3343" data-name="Path 3343" d="M313.416,178.268l8.963-5.174a2.476,2.476,0,0,0,1.055-2.732h0a1.406,1.406,0,0,0-2.135-.888l-8.963,5.176a2.474,2.474,0,0,0-1.055,2.73h0A1.406,1.406,0,0,0,313.416,178.268Z" transform="translate(-252.98 -104.018)" fill="#fff"/>
      <path id="Path_3344" data-name="Path 3344" d="M347.6,190.712l5.756-3.324a2.479,2.479,0,0,0,1.055-2.732h0a1.406,1.406,0,0,0-2.135-.888l-5.756,3.324a2.475,2.475,0,0,0-1.055,2.73h0A1.406,1.406,0,0,0,347.6,190.712Z" transform="translate(-339.551 -95.068)" fill="#fff"/>
      <path id="Path_3345" data-name="Path 3345" d="M327.845,163.239l15.844-9.148a2.475,2.475,0,0,0,1.055-2.73h0a1.4,1.4,0,0,0-2.135-.888l-15.844,9.147a2.478,2.478,0,0,0-1.055,2.732h0A1.406,1.406,0,0,0,327.845,163.239Z" transform="translate(-297.756 -115.914)" fill="#fff"/>
    </g>
    <path id="Path_3346" data-name="Path 3346" d="M321.762,161.056l27.614-15.942a2.476,2.476,0,0,0,1.055-2.732h0a1.406,1.406,0,0,0-2.135-.888l-27.614,15.943a2.475,2.475,0,0,0-1.055,2.73h0A1.406,1.406,0,0,0,321.762,161.056Z" transform="translate(-250.843 -113.952)" fill="#e8975b"/>
    <path id="Path_3347" data-name="Path 3347" d="M318.979,163.588l15.844-9.148a2.476,2.476,0,0,0,1.055-2.73h0a1.407,1.407,0,0,0-2.135-.889L317.9,159.968a2.477,2.477,0,0,0-1.055,2.73h0A1.406,1.406,0,0,0,318.979,163.588Z" transform="translate(-231.766 -108.113)" fill="#e8975b"/>
    <path id="Path_3348" data-name="Path 3348" d="M341.44,165.264l5.756-3.324a2.477,2.477,0,0,0,1.055-2.73h0a1.406,1.406,0,0,0-2.135-.889l-5.756,3.324a2.475,2.475,0,0,0-1.055,2.73h0A1.406,1.406,0,0,0,341.44,165.264Z" transform="translate(-280.659 -103.417)" fill="#e8975b"/>
    <path id="Path_3349" data-name="Path 3349" d="M360.027,170.488l34.089-19.682a2.476,2.476,0,0,0,1.055-2.732h0a1.406,1.406,0,0,0-2.135-.888l-34.089,19.682a2.475,2.475,0,0,0-1.055,2.73h0A1.406,1.406,0,0,0,360.027,170.488Z" transform="translate(-357.802 -110.388)" fill="#e8975b"/>
    <path id="Path_3350" data-name="Path 3350" d="M316.2,174.762l19.046-11a2.477,2.477,0,0,0,1.055-2.73h0a1.406,1.406,0,0,0-2.135-.889l-19.046,11a2.475,2.475,0,0,0-1.055,2.73h0A1.406,1.406,0,0,0,316.2,174.762Z" transform="translate(-227.662 -102.274)" fill="#f8359e"/>
    <path id="Path_3351" data-name="Path 3351" d="M321.065,136.395l14-8.083a2.478,2.478,0,0,0,1.055-2.732h0a1.406,1.406,0,0,0-2.135-.888l-14,8.083a2.478,2.478,0,0,0-1.055,2.732h0A1.406,1.406,0,0,0,321.065,136.395Z" transform="translate(-235.401 -124.471)" fill="#f8359e"/>
    <path id="Path_3352" data-name="Path 3352" d="M307.154,184.307l16.217-9.363a2.476,2.476,0,0,0,1.055-2.73h0a1.407,1.407,0,0,0-2.135-.889l-16.217,9.363a2.476,2.476,0,0,0-1.055,2.732h0A1.406,1.406,0,0,0,307.154,184.307Z" transform="translate(-201.083 -95.276)" fill="#e8975b"/>
  </g>
  <g id="Group_1953" data-name="Group 1953" transform="translate(179.776 177.095)">
    <path id="Path_3353" data-name="Path 3353" d="M378.666,153.273l6.942-4.008a1.809,1.809,0,0,0,.771-2h0a1.027,1.027,0,0,0-1.559-.65l-6.942,4.008a1.809,1.809,0,0,0-.771,2h0A1.028,1.028,0,0,0,378.666,153.273Z" transform="translate(-344.053 -146.458)" fill="#fff"/>
    <path id="Path_3354" data-name="Path 3354" d="M386.809,157.974l6.942-4.008a1.81,1.81,0,0,0,.771-2h0a1.028,1.028,0,0,0-1.561-.65l-6.94,4.008a1.809,1.809,0,0,0-.772,2h0A1.029,1.029,0,0,0,386.809,157.974Z" transform="translate(-365.436 -143.515)" fill="#fff"/>
    <path id="Path_3355" data-name="Path 3355" d="M394.951,162.674l6.942-4.007a1.81,1.81,0,0,0,.771-2h0a1.028,1.028,0,0,0-1.561-.65l-6.94,4.007a1.813,1.813,0,0,0-.772,2h0A1.028,1.028,0,0,0,394.951,162.674Z" transform="translate(-386.817 -140.572)" fill="#fff"/>
    <path id="Path_3356" data-name="Path 3356" d="M403.093,163.493l.208-.125a1.812,1.812,0,0,0,.772-2h0a1.028,1.028,0,0,0-1.561-.649l-.208.125a1.812,1.812,0,0,0-.772,2h0A1.028,1.028,0,0,0,403.093,163.493Z" transform="translate(-401.467 -137.629)" fill="#f8359e"/>
  </g>
  <path id="Path_3357" data-name="Path 3357" d="M205.831,239.9a25.4,25.4,0,0,0,12.7-3.394h0l46.5-26.846a6.438,6.438,0,0,0,0-11.151l-46.5-26.843a25.471,25.471,0,0,0-25.409,0l-46.5,26.845a6.438,6.438,0,0,0,0,11.151l46.5,26.844A25.409,25.409,0,0,0,205.831,239.9Zm11.19-6.015a22.456,22.456,0,0,1-22.384,0l-46.5-26.845a3.412,3.412,0,0,1,0-5.909l46.5-26.846a22.448,22.448,0,0,1,22.384,0l46.5,26.844a3.412,3.412,0,0,1,0,5.909Z" transform="translate(333.812 44.292)" fill="url(#linear-gradient)"/>
  <g id="Group_1956" data-name="Group 1956" transform="translate(489.796 80.93)">
    <ellipse id="Ellipse_297" data-name="Ellipse 297" cx="31.937" cy="18.439" rx="31.937" ry="18.439" transform="translate(18.145 149.638)" fill="#020230" opacity="0.6"/>
    <path id="Path_3358" data-name="Path 3358" d="M154.825,109.863H245.79l-8.46,98.489h0c0,5.472-3.615,10.942-10.844,15.114-14.457,8.348-37.9,8.348-52.357,0-7.229-4.172-10.843-9.643-10.843-15.114Z" transform="translate(-152.085 -73.203)" fill="url(#radial-gradient-6)"/>
    <path id="Path_3359" data-name="Path 3359" d="M154.825,109.863H245.79l-1.392,16.2a35.4,35.4,0,0,1-8.431,7.584c-17.381,11.53-46.063,13.753-65.632,5.449l3.026,72.034a14.143,14.143,0,0,0,3.25,8.589c2.946,3.468,8.623,7.548,19.535,9.855-8.042-.522-15.849-2.55-22.018-6.112-7.229-4.172-10.843-9.643-10.843-15.114L156.5,129.366h0Z" transform="translate(-152.085 -73.203)" fill="#06033e" opacity="0.4"/>
    <ellipse id="Ellipse_298" data-name="Ellipse 298" cx="45.482" cy="26.259" rx="45.482" ry="26.259" transform="translate(2.74 10.401)" fill="#06033e" opacity="0.4"/>
    <ellipse id="Ellipse_299" data-name="Ellipse 299" cx="39.175" cy="22.618" rx="39.175" ry="22.618" transform="translate(9.048 4.787)" fill="#06033e" opacity="0.4"/>
    <path id="Path_3360" data-name="Path 3360" d="M153.189,122.693l0,.007.007-.08c0-.044.01-.089.015-.135l.873-8.818.037.1c.39-6.673,4.987-13.282,13.812-18.378,18.467-10.662,48.408-10.662,66.873,0,9.047,5.223,13.651,12.038,13.833,18.883l.011-.024.831,7.852c.023.2.05.41.065.613l.015.13-.01-.006c.5,7.481-4.189,15.056-14.082,20.766-18.833,10.873-49.369,10.875-68.2,0C157.309,137.856,152.621,130.222,153.189,122.693Z" transform="translate(-153.143 -87.271)" fill="url(#linear-gradient-7)"/>
    <ellipse id="Ellipse_300" data-name="Ellipse 300" cx="39.175" cy="22.618" rx="39.175" ry="22.618" transform="translate(9.048 4.787)" fill="url(#linear-gradient-8)"/>
    <ellipse id="Ellipse_301" data-name="Ellipse 301" cx="39.175" cy="22.618" rx="39.175" ry="22.618" transform="translate(10.907 4.787)" fill="url(#linear-gradient-8)"/>
    <path id="Path_3361" data-name="Path 3361" d="M214.662,100.254c-15.3-8.833-40.1-8.833-55.4,0-.2.112-.358.236-.548.35a31.173,31.173,0,0,1,5.2-3.719c15.3-8.833,40.1-8.834,55.4,0,15.1,8.721,15.267,22.781.548,31.637C229.685,119.759,227.963,107.934,214.662,100.254Z" transform="translate(-143.385 -85.475)" fill="#06033e" opacity="0.4"/>
    <path id="Path_3362" data-name="Path 3362" d="M225.578,100.811c-15.3-8.833-40.1-8.831-55.4,0-6.786,3.916-10.553,8.912-11.322,14.03-.963-6.423,2.807-13.039,11.322-17.955,15.3-8.833,40.1-8.834,55.4,0,8.514,4.917,12.283,11.532,11.321,17.957C236.131,109.723,232.362,104.728,225.578,100.811Z" transform="translate(-149.654 -85.475)" fill="url(#linear-gradient-10)"/>
    <path id="Path_3363" data-name="Path 3363" d="M167.339,95.642c18.441-10.864,48.491-11.129,67.119-.59s18.781,27.887.34,38.751-48.489,11.129-67.119.59S148.9,106.506,167.339,95.642Zm6.028,35.074a51.065,51.065,0,0,0,17.813,5.87l.711-2.337a2.241,2.241,0,0,1,2.145-1.587H208.1a2.241,2.241,0,0,1,2.143,1.587l.711,2.337a51.013,51.013,0,0,0,17.812-5.872c15.3-8.833,15.3-23.153,0-31.986s-40.1-8.831-55.4,0S158.069,121.883,173.367,130.716Z" transform="translate(-152.846 -87.318)" fill="url(#radial-gradient-7)"/>
    <g id="Group_1954" data-name="Group 1954" transform="translate(0.772 3.112)">
      <path id="Path_3364" data-name="Path 3364" d="M170.176,95.857c15.3-8.833,40.1-8.834,55.4,0,8.018,4.628,11.826,10.764,11.439,16.828-.351-5.506-4.159-10.951-11.439-15.155-15.3-8.833-40.1-8.833-55.4,0-7.281,4.2-11.09,9.649-11.441,15.155C158.348,106.623,162.157,100.486,170.176,95.857Z" transform="translate(-150.425 -89.232)" fill="#fff"/>
      <path id="Path_3365" data-name="Path 3365" d="M167.678,122.582c18.628,10.538,48.679,10.273,67.119-.59,8.776-5.171,13.33-11.808,13.7-18.483.363,7.228-4.189,14.555-13.7,20.158-18.439,10.864-48.491,11.129-67.119.59-9.763-5.522-14.441-12.917-14.038-20.267C153.982,110.778,158.657,117.479,167.678,122.582Z" transform="translate(-153.617 -80.294)" fill="#fff"/>
    </g>
    <path id="Rectangle_125" data-name="Rectangle 125" d="M.653,0H9.88a.654.654,0,0,1,.654.654V1.62a.654.654,0,0,1-.654.654H.654A.654.654,0,0,1,0,1.62V.653A.653.653,0,0,1,.653,0Z" transform="translate(42.957 48.213)" fill="#0c0a78"/>
    <path id="Path_3366" data-name="Path 3366" d="M180.62,116.968h8.408a1.063,1.063,0,0,1,1.062,1.062v.15a1.018,1.018,0,0,1-.057.281,1.049,1.049,0,0,0-1-.779H180.62a1.051,1.051,0,0,0-1.007.779,1.081,1.081,0,0,1-.057-.281v-.15A1.064,1.064,0,0,1,180.62,116.968Z" transform="translate(-136.601 -68.755)" fill="url(#linear-gradient-11)"/>
    <g id="Group_1955" data-name="Group 1955" transform="translate(39.604 106.245)">
      <path id="Path_3367" data-name="Path 3367" d="M175.024,167.309a7.267,7.267,0,0,0,14.046-3.735c-1.031-3.88-4.69-4.977-8.568-3.946S173.993,163.43,175.024,167.309Z" transform="translate(-167.692 -148.521)" fill="#e8975b"/>
      <path id="Path_3368" data-name="Path 3368" d="M185.3,161.861a3.218,3.218,0,1,0,4.5-4.6c-1.463-1.429-4.244-2.133-5.486-.863S183.839,160.432,185.3,161.861Z" transform="translate(-183.692 -150.73)" fill="#e8975b"/>
      <path id="Path_3369" data-name="Path 3369" d="M178.571,157.708a3.217,3.217,0,1,0,6.335-1.127c-.358-2.015-2.211-4.2-3.961-3.894S178.211,155.695,178.571,157.708Z" transform="translate(-169.36 -152.657)" fill="#e8975b"/>
      <path id="Path_3370" data-name="Path 3370" d="M173.062,156.389a3.218,3.218,0,1,0,5.951,2.449c.779-1.893.39-4.735-1.254-5.412S173.84,154.5,173.062,156.389Z" transform="translate(-154.483 -152.268)" fill="#e8975b"/>
    </g>
  </g>
  <path id="Path_3371" data-name="Path 3371" d="M194.214,155.879s-25.431-8.522-15.135-37.744,30.347-38.128,22.27-61.5c0,0,12.657,18.924.829,44.528s-14.421,22.662-14.283,34.907a22.094,22.094,0,0,0,11.917,19.813Z" transform="translate(340.826 -25.599)" fill="#fff" opacity="0.5"/>
  <path id="Path_3372" data-name="Path 3372" d="M199.686,72.644s2.649-17.48-13.748-35.1c0,0,14.5,32.386,9.756,48.375C195.694,85.922,199.53,75.759,199.686,72.644Z" transform="translate(333.066 -37.547)" fill="#fff" opacity="0.5"/>
</svg>
