<svg xmlns="http://www.w3.org/2000/svg" xmlns:xlink="http://www.w3.org/1999/xlink" width="665.353" height="513.292" viewBox="0 0 665.353 513.292">
  <defs>
    <linearGradient id="linear-gradient" y1="0.5" x2="1" y2="0.5" gradientUnits="objectBoundingBox">
      <stop offset="0" stop-color="#53cd9f"/>
      <stop offset="1" stop-color="#0d7a5c"/>
    </linearGradient>
    <linearGradient id="linear-gradient-2" x1="0.547" y1="-0.451" x2="0.485" y2="0.795" xlink:href="#linear-gradient"/>
    <linearGradient id="linear-gradient-3" x1="0.549" y1="-0.476" x2="0.485" y2="0.803" xlink:href="#linear-gradient"/>
    <linearGradient id="linear-gradient-8" x1="-0.083" y1="0.5" x2="1.083" y2="0.5" xlink:href="#linear-gradient"/>
    <linearGradient id="linear-gradient-9" x1="-0.124" y1="0.5" x2="1.124" y2="0.5" xlink:href="#linear-gradient"/>
    <linearGradient id="linear-gradient-10" x1="-0.047" y1="0.5" x2="1.047" y2="0.5" xlink:href="#linear-gradient"/>
    <linearGradient id="linear-gradient-17" x1="0.869" y1="-0.937" x2="0.126" y2="1.957" gradientUnits="objectBoundingBox">
      <stop offset="0" stop-color="#fb9a2b"/>
      <stop offset="1" stop-color="#e65925"/>
    </linearGradient>
    <linearGradient id="linear-gradient-18" x1="1.052" y1="-1.647" x2="0.113" y2="2.008" xlink:href="#linear-gradient-17"/>
    <linearGradient id="linear-gradient-19" x1="-0.103" y1="-5.07" x2="0.82" y2="3.275" xlink:href="#linear-gradient"/>
    <linearGradient id="linear-gradient-20" x1="0.204" y1="-3.053" x2="0.855" y2="4.68" xlink:href="#linear-gradient"/>
    <linearGradient id="linear-gradient-21" x1="-0.055" y1="-11.754" x2="0.513" y2="0.99" xlink:href="#linear-gradient"/>
    <linearGradient id="linear-gradient-22" x1="-0.294" y1="-1.342" x2="2.688" y2="5.603" xlink:href="#linear-gradient-17"/>
    <linearGradient id="linear-gradient-23" x1="-1.918" y1="-20.044" x2="0.042" y2="-3.391" xlink:href="#linear-gradient-17"/>
    <linearGradient id="linear-gradient-24" x1="-0.937" y1="-4.461" x2="1.846" y2="4.948" xlink:href="#linear-gradient-17"/>
    <linearGradient id="linear-gradient-25" x1="0.352" y1="-0.345" x2="0.694" y2="1.837" gradientUnits="objectBoundingBox">
      <stop offset="0" stop-color="#c9cd55"/>
      <stop offset="0.507" stop-color="#659c52"/>
      <stop offset="1" stop-color="#287f50"/>
    </linearGradient>
    <linearGradient id="linear-gradient-26" x1="0" y1="0.5" x2="1" y2="0.5" xlink:href="#linear-gradient-17"/>
    <linearGradient id="linear-gradient-28" x1="0.406" y1="-0.284" x2="0.7" y2="2.207" xlink:href="#linear-gradient-25"/>
    <linearGradient id="linear-gradient-29" x1="0.086" y1="2.19" x2="0.753" y2="-0.463" xlink:href="#linear-gradient-25"/>
    <linearGradient id="linear-gradient-30" y1="0.5" x2="1" y2="0.5" gradientUnits="objectBoundingBox">
      <stop offset="0.024" stop-color="#629d36"/>
      <stop offset="0.739" stop-color="#a0cc3a"/>
    </linearGradient>
    <linearGradient id="linear-gradient-31" x1="0.408" y1="0.013" x2="0.861" y2="2.157" xlink:href="#linear-gradient-25"/>
    <linearGradient id="linear-gradient-32" x1="-0.422" y1="1.539" x2="0.141" y2="0.901" xlink:href="#linear-gradient-25"/>
    <linearGradient id="linear-gradient-33" x1="1.369" y1="0.156" x2="-0.391" y2="0.723" gradientUnits="objectBoundingBox">
      <stop offset="0" stop-color="#00503e"/>
      <stop offset="1" stop-color="#023222"/>
    </linearGradient>
    <linearGradient id="linear-gradient-34" x1="1.051" y1="0.237" x2="-0.071" y2="0.781" xlink:href="#linear-gradient-33"/>
    <linearGradient id="linear-gradient-35" x1="0.931" y1="-0.146" x2="0.36" y2="0.734" xlink:href="#linear-gradient-25"/>
    <linearGradient id="linear-gradient-36" x1="1.808" y1="2.51" x2="1.055" y2="1.368" xlink:href="#linear-gradient-25"/>
    <linearGradient id="linear-gradient-37" x1="0.264" y1="-2.423" x2="1.844" y2="15.847" xlink:href="#linear-gradient"/>
    <linearGradient id="linear-gradient-38" x1="-1.902" y1="-8.949" x2="2.948" y2="10.615" xlink:href="#linear-gradient-17"/>
  </defs>
  <g id="Group_150" data-name="Group 150" transform="translate(-782.96 -295.894)">
    <g id="Group_119" data-name="Group 119" transform="translate(782.96 804.846)">
      <path id="Path_217" data-name="Path 217" d="M1446.142,1723.1H785.2a2.22,2.22,0,0,0-2.239,2.025,2.17,2.17,0,0,0,2.165,2.314h661.012a2.17,2.17,0,0,0,2.17-2.17h0A2.17,2.17,0,0,0,1446.142,1723.1Z" transform="translate(-782.96 -1723.1)" fill="url(#linear-gradient)"/>
    </g>
    <g id="Group_125" data-name="Group 125" transform="translate(975.257 299.309)">
      <circle id="Ellipse_10" data-name="Ellipse 10" cx="35.624" cy="35.624" r="35.624" transform="matrix(0.994, -0.113, 0.113, 0.994, 0, 24.949)" fill="url(#linear-gradient-2)"/>
      <path id="Path_218" data-name="Path 218" d="M1383.549,432.811a34.7,34.7,0,1,1,18.588-45.411A34.736,34.736,0,0,1,1383.549,432.811Z" transform="translate(-1330.719 -344.488)" fill="url(#linear-gradient-3)"/>
      <circle id="Ellipse_11" data-name="Ellipse 11" cx="28.333" cy="28.333" r="28.333" transform="translate(0.585 66.094) rotate(-58.892)" fill="#fff"/>
      <path id="Path_219" data-name="Path 219" d="M1394.68,439.765a26.857,26.857,0,1,1,14.389-35.151A26.887,26.887,0,0,1,1394.68,439.765Z" transform="translate(-1344.874 -358.658)" fill="#fff"/>
      <g id="Group_120" data-name="Group 120" transform="translate(12.121 29.034)">
        <path id="Path_220" data-name="Path 220" d="M1361.5,484.739l-4.435,1.859a1.433,1.433,0,1,0,1.108,2.643l4.435-1.859a1.433,1.433,0,1,0-1.108-2.643Z" transform="translate(-1356.19 -449.773)" fill="url(#linear-gradient)"/>
        <path id="Path_221" data-name="Path 221" d="M1454.81,519.656a1.434,1.434,0,0,0-.768,1.875l1.859,4.435a1.433,1.433,0,1,0,2.643-1.108l-1.859-4.435A1.434,1.434,0,0,0,1454.81,519.656Z" transform="translate(-1419.076 -472.238)" fill="url(#linear-gradient)"/>
        <path id="Path_222" data-name="Path 222" d="M1494.162,429.14,1489.727,431a1.433,1.433,0,1,0,1.108,2.643l4.435-1.859a1.433,1.433,0,0,0-1.108-2.643Z" transform="translate(-1441.541 -414)" fill="url(#linear-gradient)"/>
        <path id="Path_223" data-name="Path 223" d="M1399.211,387a1.434,1.434,0,0,0-.768,1.875l1.859,4.435a1.433,1.433,0,1,0,2.643-1.108l-1.859-4.435A1.434,1.434,0,0,0,1399.211,387Z" transform="translate(-1383.304 -386.887)" fill="url(#linear-gradient)"/>
      </g>
      <g id="Group_121" data-name="Group 121" transform="translate(37.935 10.623)">
        <path id="Rectangle_40" data-name="Rectangle 40" d="M2.351,0H4.965A2.349,2.349,0,0,1,7.314,2.349V5.794a2.35,2.35,0,0,1-2.35,2.35H2.351A2.351,2.351,0,0,1,0,5.792V2.351A2.351,2.351,0,0,1,2.351,0Z" transform="matrix(0.07, -0.998, 0.998, 0.07, 0, 7.296)" fill="url(#linear-gradient-8)"/>
      </g>
      <g id="Group_122" data-name="Group 122" transform="translate(2.611 23.578)">
        <path id="Rectangle_41" data-name="Rectangle 41" d="M2.351,0H5.794A2.349,2.349,0,0,1,8.143,2.349V4.965A2.349,2.349,0,0,1,5.794,7.314H2.351A2.351,2.351,0,0,1,0,4.963V2.351A2.351,2.351,0,0,1,2.351,0Z" transform="translate(0 6.192) rotate(-49.497)" fill="url(#linear-gradient-9)"/>
      </g>
      <g id="Group_123" data-name="Group 123" transform="translate(10.04)">
        <rect id="Rectangle_42" data-name="Rectangle 42" width="9.914" height="5.691" rx="2.288" transform="matrix(0.922, -0.387, 0.387, 0.922, 6.746, 13.634)" fill="url(#linear-gradient-10)"/>
        <path id="Path_224" data-name="Path 224" d="M1362.057,325.386a8.911,8.911,0,1,1,5.19-2.171l.851,2.029a11.028,11.028,0,1,0-5.188,2.175Z" transform="translate(-1350.354 -305.47)" fill="url(#linear-gradient)"/>
        <path id="Path_225" data-name="Path 225" d="M1386.514,357.884q1.337-.56,2.692-1.006l-2.264-5.4-4.22,1.768,2.236,5.334Q1385.724,358.216,1386.514,357.884Z" transform="translate(-1371.179 -335.071)" fill="url(#linear-gradient)"/>
      </g>
      <g id="Group_124" data-name="Group 124" transform="translate(36.808 34.923)">
        <path id="Path_226" data-name="Path 226" d="M1430.441,457.577a2.613,2.613,0,1,1-3.42-1.4A2.613,2.613,0,0,1,1430.441,457.577Z" transform="translate(-1425.417 -437.226)" fill="url(#linear-gradient)"/>
        <path id="Path_227" data-name="Path 227" d="M1433.636,403.4l-1.865,21.471a.983.983,0,0,1-1.959-.17C1429.819,424.618,1429.654,425.564,1433.636,403.4Z" transform="translate(-1428.242 -403.402)" fill="url(#linear-gradient)"/>
        <path id="Path_228" data-name="Path 228" d="M1449.97,472.291l-19.259-9.672a.983.983,0,1,1,.883-1.757C1431.67,460.9,1430.852,460.4,1449.97,472.291Z" transform="translate(-1428.475 -440.304)" fill="url(#linear-gradient)"/>
        <path id="Path_229" data-name="Path 229" d="M1431.8,460.963a1.068,1.068,0,1,1-1.4-.572A1.068,1.068,0,0,1,1431.8,460.963Z" transform="translate(-1428.205 -440.015)" fill="url(#linear-gradient)"/>
      </g>
    </g>
    <g id="Group_126" data-name="Group 126" transform="translate(1269.791 470.974)">
      <path id="Path_230" data-name="Path 230" d="M2158,825.749a1.047,1.047,0,0,0-1.057-.317c-1.882.509-5.291-.25-6.976-.839l-1.835-9.088c1.324-1.2,4.172-3.219,6.1-3.48a1.046,1.046,0,0,0,.851-.7l2.323-6.908a1.045,1.045,0,0,0-.254-1.073c-1.382-1.376-2.429-4.708-2.761-6.462l6.952-6.133c1.7.549,4.874,2,6.066,3.546a1.046,1.046,0,0,0,1.034.385l7.143-1.442a1.047,1.047,0,0,0,.8-.757c.5-1.884,2.862-4.457,4.215-5.622l8.787,2.955c.374,1.745.7,5.222-.037,7.026a1.046,1.046,0,0,0,.183,1.088l4.821,5.465a1.047,1.047,0,0,0,1.057.317c1.882-.509,5.291.25,6.977.839l1.835,9.087c-1.325,1.2-4.172,3.219-6.1,3.481a1.044,1.044,0,0,0-.85.7l-2.323,6.907a1.048,1.048,0,0,0,.254,1.074c1.382,1.375,2.429,4.707,2.761,6.461l-6.953,6.133c-1.7-.549-4.874-2-6.067-3.546a1.045,1.045,0,0,0-1.034-.385l-7.143,1.443a1.046,1.046,0,0,0-.8.756c-.5,1.885-2.862,4.457-4.215,5.622l-8.787-2.955c-.374-1.746-.7-5.223.038-7.027a1.046,1.046,0,0,0-.182-1.088Zm19.989-2.229a9.13,9.13,0,1,0-10.757-7.143A9.131,9.131,0,0,0,2177.991,823.519Zm1.159,5.74a14.986,14.986,0,1,0-17.656-11.723A14.986,14.986,0,0,0,2179.15,829.259Z" transform="translate(-2148.134 -786.856)" fill="url(#linear-gradient-17)"/>
      <path id="Path_231" data-name="Path 231" d="M2301.545,916a.83.83,0,0,1,.637-.6l5.656-1.142a.827.827,0,0,1,.818.305c.945,1.222,3.458,2.373,4.8,2.808l5.5-4.856c-.263-1.389-1.091-4.027-2.186-5.116a.83.83,0,0,1-.2-.851l1.839-5.469a.828.828,0,0,1,.673-.556c1.53-.207,3.785-1.808,4.834-2.756l-1.453-7.2c-1.335-.466-4.034-1.068-5.524-.664a.829.829,0,0,1-.837-.251l-3.817-4.327a.83.83,0,0,1-.146-.862c.586-1.429.327-4.182.03-5.564l-6.958-2.34c-1.072.923-2.941,2.96-3.337,4.452a.829.829,0,0,1-.636.6l-5.656,1.142a.828.828,0,0,1-.818-.305c-.944-1.222-3.458-2.374-4.8-2.808l-5.505,4.856c.263,1.389,1.093,4.027,2.187,5.116a.829.829,0,0,1,.2.85l-1.839,5.469a.83.83,0,0,1-.674.556c-1.53.207-3.784,1.808-4.833,2.756l1.453,7.2c1.334.466,4.033,1.068,5.523.665a.829.829,0,0,1,.837.251l3.817,4.327a.827.827,0,0,1,.145.862c-.586,1.429-.326,4.182-.029,5.563l6.957,2.34C2299.279,919.528,2301.149,917.491,2301.545,916Zm1.949-8.677a8.994,8.994,0,1,1,7.035-10.6A8.994,8.994,0,0,1,2303.493,907.322Z" transform="translate(-2232.656 -844.572)" fill="url(#linear-gradient-18)"/>
    </g>
    <path id="Path_232" data-name="Path 232" d="M1192.234,629.488l-6.286-2.369-5.515,3.835a.923.923,0,0,1-1.449-.8l.311-6.711-5.351-4.06a.923.923,0,0,1,.314-1.626l6.478-1.778,2.208-6.344a.923.923,0,0,1,1.643-.2l3.692,5.612,6.716.14a.923.923,0,0,1,.7,1.5l-4.2,5.246,1.942,6.431A.923.923,0,0,1,1192.234,629.488Z" transform="translate(-251.32 -201.46)" fill="url(#linear-gradient-19)"/>
    <path id="Path_233" data-name="Path 233" d="M1195.805,517.437l-3.417-9.174-8.741,2.614-3.765-8.888-8.661,1.468-3.9-6.191-3.134,1.977,5.222,8.28,8.208-1.391,3.916,9.247,8.6-2.571,3.1,8.313Z" transform="translate(-245.276 -129.562)" fill="url(#linear-gradient-20)"/>
    <path id="Path_234" data-name="Path 234" d="M2218.266,663.782l-8.586-4.7-4.9,7.7-8.662-4.26-5.59,6.777-7-2.128-1.077,3.545,9.367,2.846,5.3-6.422,9.011,4.431,4.82-7.569,7.781,4.262Z" transform="translate(-900.42 -233.671)" fill="url(#linear-gradient-21)"/>
    <path id="Path_235" data-name="Path 235" d="M1641.664,346.325l-3.673,9.074,8.213,3.973-3.224,9.1,7.38,4.765-1.3,7.2,3.646.658,1.738-9.634-6.994-4.515,3.354-9.465-8.077-3.907,3.329-8.223Z" transform="translate(-550.121 -31.82)" fill="url(#linear-gradient-22)"/>
    <path id="Path_236" data-name="Path 236" d="M2217.431,977.15l-1.8-3.557-4.066.138-1.742-4.131-4.285,1.482-2.176-4.584-4.115.878-2.814-4.068,1.54-1.065,2.1,3.042,4.341-.927,2.091,4.407,4.358-1.507,1.922,4.558,3.97-.135,1.674,3.3,2.588-.634.445,1.819Z" transform="translate(-909.417 -428.724)" fill="url(#linear-gradient-23)"/>
    <path id="Path_237" data-name="Path 237" d="M2032.915,496.068l-1.9-5.652,8.756-4.062-1.759-8.607,6.056-4.111-2.081-3.066-8.1,5.5,1.667,8.157-9.11,4.226,2.859,8.505Z" transform="translate(-800.049 -112.386)" fill="url(#linear-gradient-24)"/>
    <g id="Group_128" data-name="Group 128" transform="translate(1251.592 362.249)">
      <path id="Path_238" data-name="Path 238" d="M2148.528,490.367c9.656,14.757-3.477,35.236-20.671,32.189a13.022,13.022,0,0,0-9.072,1.868l-9.508,5.861a5.488,5.488,0,0,1-7.565-1.609l-3.658-5.59a6.224,6.224,0,0,1,1.248-8.042c8.6-7.364,12.257-9.453,13.412-15.628C2116.093,481.352,2138.871,475.607,2148.528,490.367Z" transform="translate(-2097.101 -481.969)" fill="#edfdfc"/>
      <g id="Group_127" data-name="Group 127" transform="translate(10.812 7.88)">
        <path id="Path_239" data-name="Path 239" d="M2145.36,512.7a18.154,18.154,0,0,1-.45-2.6c-.439-5.159,3.548-6.942,5.648-5.612a3.8,3.8,0,0,1,1.117,4.7c-.695,1.682-2.2,2.9-3.728,4.231a24.915,24.915,0,0,0,3.826,7.855c4.7-2.833,8.061-1.284,8.279,1.28a4.18,4.18,0,0,1-2.509,4.036c-.951.414-3.413.983-6.327-2.241-7.937,5.6-18.294,13.869-18.327,13.893l-1.315-1.828c.032-.025,10.331-8.242,18.239-13.831a27.042,27.042,0,0,1-3.785-7.479c-9.045,7.9-17.018,14.138-17.3,14.364l-1.31-1.832C2128,527.166,2135.724,521.153,2145.36,512.7Zm3.814-6.284c-.7-.266-2.563.505-1.814,4.528C2149.456,509.108,2150.093,508.3,2149.175,506.417Zm4.047,16.628c1.156,1.2,2.9,2.288,4.079.989C2158.808,522.368,2156.653,521.12,2153.221,523.045Z" transform="translate(-2127.421 -504.066)" fill="#b7d972"/>
      </g>
      <path id="Path_240" data-name="Path 240" d="M2119.028,570.394c-.081.047-.164.087-.243.136l-9.508,5.861a5.488,5.488,0,0,1-7.565-1.609l-3.658-5.59a6.224,6.224,0,0,1,1.248-8.043c3.825-3.276,6.671-5.507,8.755-7.519Z" transform="translate(-2097.101 -528.076)" fill="#b7d972"/>
    </g>
    <g id="Group_132" data-name="Group 132" transform="translate(824.35 546.582)">
      <g id="Group_131" data-name="Group 131" transform="translate(0 0)">
        <g id="Group_129" data-name="Group 129" transform="translate(12.653 57.944)">
          <path id="Path_241" data-name="Path 241" d="M944.2,1238.414s-.308-1.511-.372-2.021c-.075-.6-.16-2.408-.16-2.408s0-6.317.465-6.28,1.072,1.121,1.209,1.511.334.832.471,1.222a.8.8,0,0,0,1.036.474c.5-.136.289-1.809.1-2.372a65.49,65.49,0,0,0-3.333-6.614c-.29-.562,1.724-11.52,2.116-15.328h0c.827-6.216,1.988-12.564,2.079-13.222l11.069-24.466-7.389-7.546s-12.666,26.981-13.145,28.4c-.228.677-1.029,15.231-1.023,15.232.058,7.191.127,13.529.1,14.746,0,0-1.043,3.625-1.843,5.893a20.779,20.779,0,0,0-.752,5.351,15.494,15.494,0,0,0-.2,5.258c.333,2.473,1.159-.038,1.159-.038s.212-4.7.582-4.626c.285.058.017,2.621.356,5.361.087.7.176,1.4.262,2.038.228,1.674,1.329,2,1.372.208a16.783,16.783,0,0,0-.092-2.434,13.88,13.88,0,0,1,.049-2.288,18.313,18.313,0,0,1,.065-2.358c.074.04.272-.234.388.511.139.9.012,2.868.32,4.167.174.737.445,2.3.445,2.3a15.838,15.838,0,0,0,.869,2.477c.821-.035.819-1.964.45-2.932a11.244,11.244,0,0,0-.247-2.377s.079-3.467.572-3.469c.406,0,1.83,8.318,2.651,8.225C944.516,1240.937,944.2,1238.414,944.2,1238.414Z" transform="translate(-934.508 -1161.365)" fill="#f7a491"/>
        </g>
        <path id="Path_242" data-name="Path 242" d="M967.848,1159.785a52.559,52.559,0,0,1-7.031-1.7c-3.249-1.209-5.387-2.268-5.387-2.268s3.567-15.267,8.018-24.538c1.839-3.832,3.7-5.681,6.294-6.124.016,0,5.47,3.591,5.253,12.248C974.945,1139.434,967.848,1159.785,967.848,1159.785Z" transform="translate(-935.316 -1080.123)" fill="url(#linear-gradient-25)"/>
        <g id="Group_130" data-name="Group 130">
          <path id="Path_243" data-name="Path 243" d="M1029.862,1366.141l5.954,54.777s-2.91,11.584-2.559,14.875,6.472,46.462,6.472,46.462l-.258,2.422-.007,7.151h22.719a101.516,101.516,0,0,1-11.567-6.618,4.8,4.8,0,0,1-1.928-3.427c-1.8-13.306,1.763-57.691,1.763-57.691l2.807-57.774Z" transform="translate(-983.205 -1235.172)" fill="#f7a491"/>
          <path id="Path_244" data-name="Path 244" d="M948.511,1398.452c-1.283.334-3.258,47.433-4.321,49.521-6.736,13.234-8.337,53.47-8.337,53.47l-1.957,5.729-2.1,7.026s6.727,1.842,10.255-.164l-.391-6.926-.358-6.334,17-50.128,9.3-51.13Z" transform="translate(-920.112 -1255.961)" fill="#f7a491"/>
          <path id="Path_245" data-name="Path 245" d="M1013.283,1115.526c-2.742-3.858-14.053-15.032-15.31-15.009-3.663.066-15.688.071-18.038,1.3l.014,2.631a141.645,141.645,0,0,0,4.525,34.872c2.063,7.937,4.018,16.413,3.776,19.457l.058.057a16.316,16.316,0,0,0,24.292-1.2h0a144.6,144.6,0,0,1,.952-16.133C1015.087,1129.441,1020.093,1125.109,1013.283,1115.526Z" transform="translate(-951.082 -1064.271)" fill="#b7d972"/>
          <path id="Path_246" data-name="Path 246" d="M1018.612,1061.854s.317,7.848-.368,10.823-1.6,3.2,4.281,4.106c2.309.356,4.536.886,4.536.886s-.6-4.37-.694-6.214c-.15-3.038.679-12.419.679-12.419Z" transform="translate(-975.407 -1037.583)" fill="#f7a491"/>
          <path id="Path_247" data-name="Path 247" d="M1025.358,1065.759a10.327,10.327,0,0,0,3.381,1.235c.2-3.706.576-7.958.576-7.958l-8.046,2.687A10.7,10.7,0,0,0,1025.358,1065.759Z" transform="translate(-977.676 -1037.583)" fill="#f47458"/>
          <path id="Path_248" data-name="Path 248" d="M1013.78,1004.781a10.282,10.282,0,0,0-5.214,4.885c-1.855,3.7-2.547,14.1,4.762,18.166,3.617,2.013,7.791,2.395,9.755.624,2-1.807,1.761-5.821,1.56-9.159C1024.246,1012.687,1022.792,1002.679,1013.78,1004.781Z" transform="translate(-968.709 -1002.493)" fill="#f7a491"/>
          <path id="Path_249" data-name="Path 249" d="M1002.891,1037.208c.415,1.736-.139,3.412-1.237,3.743s-2.324-.808-2.739-2.544.139-3.412,1.237-3.742S1002.476,1035.472,1002.891,1037.208Z" transform="translate(-963.205 -1021.865)" fill="#f7a491"/>
          <path id="Path_250" data-name="Path 250" d="M941.556,1703.068a10.883,10.883,0,0,1-7.766.09l-2.154,7.053s6.774,2.007,10.3,0Z" transform="translate(-920.007 -1451.948)" fill="url(#linear-gradient-26)"/>
          <path id="Path_251" data-name="Path 251" d="M967.72,1476.892c0,.007.005.007.008,0Z" transform="translate(-943.223 -1306.428)" fill="#f47458"/>
          <path id="Path_252" data-name="Path 252" d="M1055.643,1707.442h23.619c.873-.081,1.086-.816.783-1.269-.623-.933-3.378-1.617-6.476-3.1-5.432.589-16.831-3.271-17.689-4.569C1055.385,1701.1,1055.158,1707.331,1055.643,1707.442Z" transform="translate(-999.619 -1449.01)" fill="url(#linear-gradient-26)"/>
          <path id="Path_253" data-name="Path 253" d="M1092.6,1176.391c.458-.636,1.989-3.747,1.989-3.747s1.588-5.329,1.259-5.259a5.935,5.935,0,0,0-1.624,2.409c-.474.985-.992,2.711-1.482,3.564-.86,1.5-1.822,2.12-1.584,1.543.174-.42.763-.767,1.282-1.663,1.262-2.182,2.378-5.749,1.892-5.677-.427.063-1.648,2.523-3,4.434a13.973,13.973,0,0,1-3.314,2.541,4.514,4.514,0,0,1,.214-1.17c.134-.417,2.009-2.905,1.276-3.219s-5.2,5.076-5.2,5.076l-1.834,3.125-.162.12h-.006s-22.275,8.733-23.022,8.5c-1.752-.555-7.739-17.906-7.739-17.906l-12.463,2.247c-.18-.1,13.1,25.826,15.579,27.1,2.175,1.116,25.329-10.947,29.679-13.528,5.99-2.306,8.329-5.048,9.3-6.451.522-.755,2.53-4.034,2.53-4.034s.431-4.544.1-4.584c-1.1-.135-1.4,4.148-1.4,4.148s-1.486,2.021-1.744,2.286C1092.484,1176.9,1092.6,1176.391,1092.6,1176.391Z" transform="translate(-989.134 -1107.293)" fill="#f8a492"/>
          <path id="Path_254" data-name="Path 254" d="M1016.142,1116.968c-1.7,7.209,7.371,23.282,7.371,23.282s12.924-6.277,15.2-8.982c0,0-8.915-14.712-9.468-15.673-1.193-2.075-5.381-6.365-8.2-5.577C1019.243,1110.519,1016.142,1116.968,1016.142,1116.968Z" transform="translate(-974.241 -1070.323)" fill="url(#linear-gradient-28)"/>
          <path id="Path_255" data-name="Path 255" d="M942.981,1027.745c.966-6.614,11.935-20.09,7.7-25.722-3.428-4.557-9.405-3.194-13.213-1.884-17.27,5.941-16.278,27.651-21.729,31.046-9.884,6.155-15.964,9.988-16.676,23.856-.845,16.447,13.123,24.847,29.921,20.822,9.032-2.164,11.426-5.119,15.048-13.648,1.633-3.845,4.926-15.838,4.025-21.7C947.248,1035.273,942.2,1033.073,942.981,1027.745Z" transform="translate(-899.026 -998.877)" fill="#473b1e"/>
          <path id="Path_256" data-name="Path 256" d="M1034.965,1039.438c0,1.958-.711,3.545-1.588,3.545s-1.588-1.587-1.588-3.545.711-3.546,1.588-3.546S1034.965,1037.48,1034.965,1039.438Z" transform="translate(-984.445 -1022.692)" fill="#f7a491"/>
          <path id="Path_257" data-name="Path 257" d="M1015.366,1333.917l.808-32.5a64.306,64.306,0,0,0-5.322-26.65l-6.141-14.094a37.159,37.159,0,0,1-7.437,1.808c-5.679.656-11.265,0-16.913-.662a4.431,4.431,0,0,1-.078.574c-1.025,4.786-6.733,15.456-9.138,30.039-2.729,16.554-3.751,41.313-3.409,43.255C993.836,1336.876,1000.057,1337.817,1015.366,1333.917Z" transform="translate(-943.193 -1167.317)" fill="#473b1e"/>
        </g>
      </g>
    </g>
    <g id="Group_137" data-name="Group 137" transform="translate(1011.179 391.641)">
      <g id="Group_134" data-name="Group 134" transform="translate(202.723 158.857)">
        <path id="Path_258" data-name="Path 258" d="M1999.148,1009.855l19.658,19.658s37.435,14.639,41.617,23.632-3.764,8.574-12.548,7.319-33.669-16.73-33.669-16.73l-22.8-26.35Z" transform="translate(-1991.41 -1009.855)" fill="url(#linear-gradient-29)"/>
        <path id="Path_259" data-name="Path 259" d="M2133.994,1117.078l-4.862-1.726-9.412,4.392s-4.862,3.294-7.215,11.45,0,56.935,3.921,64.778S2133.994,1117.078,2133.994,1117.078Z" transform="translate(-2068.719 -1077.731)" fill="#edfdfc"/>
        <path id="Path_260" data-name="Path 260" d="M2261.024,1651.885s3.457,2.226,3.741,3.251,2.819,12.109,1.871,13.394-4.423.663-3.073,1.6c1.019.707,7.591,1.247,11.791.114,1.226-.331.666-10.692.846-12.27.262-2.292,1.849-7.5.886-8.852-.469-.661-3.167-1.823-5.592-2.769a20.077,20.077,0,0,1-5.385-3.809Z" transform="translate(-2164.878 -1416.921)" fill="#f7a491"/>
        <path id="Path_261" data-name="Path 261" d="M2274.009,1652.978s-2.042,19.663-4.43,21.115c-.635.385-3.995.673-4.3,2.278-.008.04-.078,1.647.941,1.686l12.744-.04s.134-9.667.052-13.455c0,0,1.76-9.668,1.186-10.391S2274.009,1652.978,2274.009,1652.978Z" transform="translate(-2167.61 -1423.636)" fill="#002a24"/>
        <path id="Path_262" data-name="Path 262" d="M2400.889,1651.885s3.458,2.226,3.741,3.251,2.818,12.109,1.87,13.394-4.423.663-3.073,1.6c1.019.707,7.59,1.247,11.791.114,1.226-.331.666-10.692.846-12.27.261-2.292,1.849-7.5.886-8.852-.47-.661-3.167-1.823-5.592-2.769a20.077,20.077,0,0,1-5.385-3.809Z" transform="translate(-2254.866 -1416.921)" fill="#f7a491"/>
        <path id="Path_263" data-name="Path 263" d="M2179.824,1310.385s11.652,23.14,14.042,29.352l17.758,45.056,39.164,46.071s-2.866,7.4-7.2,9.386c0,0-47.219-38.129-51.1-44.134-5.921-9.154-32.879-65.238-32.879-65.238l-5.012-10.787Z" transform="translate(-2096.399 -1203.214)" fill="#473b1e"/>
        <path id="Path_264" data-name="Path 264" d="M2134.066,1297.117l.187,19.732s-8.43,64.451-6.8,68.28c3.984,9.342,47.786,40.989,47.786,40.989l5.96-10.247-31.474-35.133,11.92-34.193c3.336-7.942,10.43-23.291,10.25-31.9-.154-7.381-14.786-24.5-14.786-24.5Z" transform="translate(-2078.806 -1190.191)" fill="#473b1e"/>
        <path id="Path_265" data-name="Path 265" d="M2148.5,1207.94c11.6-2.636,21-6.737,21.959-9.974.436-1.464-6.036-16.186-10.8-35.843-1.554-6.417-1.275-12.446-3.764-34.924-.529-4.768-2.5-14.761-9.886-17.339a11.078,11.078,0,0,0-4.041-.789c-.061.011-9.394.074-13.664,2.443-1.053,1.431-4.981,9.255-6.027,30.586-.456,9.313-2.316,39.215-1.934,44.074q.085,1.081.216,2.093C2122.23,1201.174,2135.8,1210.823,2148.5,1207.94Z" transform="translate(-2074.331 -1073.686)" fill="#b7d972"/>
        <path id="Path_266" data-name="Path 266" d="M2139,1111.833c.008,0,.02,0,.034,0,4.73-.522,16.63-16.113,16.63-16.113l-.026-.043-7.343-11.628s-10.815,1.968-8.7,5.262,3.3,11.191,3.3,11.191c-.036.09-.083.2-.148.329C2142.008,1102.446,2139.583,1107.225,2139,1111.833Z" transform="translate(-2086.368 -1057.59)" fill="#f7a491"/>
        <path id="Path_267" data-name="Path 267" d="M2140.182,1089.311c-2.116-3.29,8.7-5.26,8.7-5.26l.611.968a6.294,6.294,0,0,1-.3,2.207,14.132,14.132,0,0,1-6.894,7.6A20.945,20.945,0,0,0,2140.182,1089.311Z" transform="translate(-2086.952 -1057.592)" fill="#fe875e"/>
        <g id="Group_133" data-name="Group 133" transform="translate(40.411 1.685)">
          <path id="Path_268" data-name="Path 268" d="M2122.226,1030.348c.234-.222,8.435,13.268,6.466,18.824s-8.6,9.985-12.531,8c-4.353-2.192-10.934-17.665-6.967-24.228S2122.226,1030.348,2122.226,1030.348Z" transform="translate(-2106.815 -1023.962)" fill="#f7a491"/>
          <path id="Path_269" data-name="Path 269" d="M2108.264,1014.912c4.827-1.037,13.45.388,18.3,3.8,5.97,4.2,6.167,11.653,3.477,16.525s-1.07,8.46-1.07,8.46-8.39-.527-10.089-6.237c-.713-2.4.174-4.02-1.438-5.371-1.242-1.041-2.285-4.068-3.516-6.5,0,0-5.412-2.877-7.473-.509C2105.755,1025.891,2102.071,1016.242,2108.264,1014.912Z" transform="translate(-2104.73 -1014.58)" fill="#473b1e"/>
          <path id="Path_270" data-name="Path 270" d="M2137.255,1059.309c.734,1.762,2.159,2.845,3.184,2.418s1.26-2.2.526-3.963-2.16-2.845-3.184-2.418S2136.521,1057.547,2137.255,1059.309Z" transform="translate(-2125.382 -1040.749)" fill="#f7a491"/>
        </g>
        <path id="Path_271" data-name="Path 271" d="M2413.926,1653.041s-2.1,19.64-4.485,21.093c-.634.385-4,.674-4.3,2.279-.008.04-.1,1.7.94,1.673l12.731-.026s.146-9.667.065-13.455c0,0,1.76-9.667,1.185-10.391S2413.926,1653.041,2413.926,1653.041Z" transform="translate(-2257.596 -1423.676)" fill="#002a24"/>
      </g>
      <g id="Group_136" data-name="Group 136" transform="translate(0)">
        <g id="Group_135" data-name="Group 135">
          <path id="Path_272" data-name="Path 272" d="M1500.479,861.848c-10.118-21.166-12.9-52.753-1.87-77.807,18.59-42.289,69.743-59.547,65.976-107.474-.948-12.072-6.319-21.782-14.23-28.029-20.82-16.44-54.318-7.739-78.227,3.741q-22.907,11.007-42.542,31.211l-6.651-84.648c28.7-20.365,63.427-31.014,98.088-33.737,71.027-5.581,125.874,21.058,131.456,92.1,5.091,64.8-38.7,93.5-68.07,125.892-16.3,17.979-19.988,31.83-18.727,47.873.652,8.294,3.763,18.535,8.763,25.062Zm51,115.754c-69.04,5.425-77.034-87.325-7.292-92.805C1612.882,879.4,1620.252,972.2,1551.478,977.6Z" transform="translate(-1422.934 -564.388)" fill="url(#linear-gradient-30)"/>
        </g>
      </g>
      <path id="Path_273" data-name="Path 273" d="M1950.54,994.468c-.129-.584.346-.123-.533-4.7a8.622,8.622,0,0,0-1.69-3.453,7.892,7.892,0,0,0-1.566-1.37.784.784,0,0,0-1.25.732c.158.435.973,1.937,1.131,2.371s.23,1.5-.132,1.857-6.078-6.2-6.434-6.777a22.734,22.734,0,0,1-.979-2.621s-.5-1.552-1.107-1.156c-.4.259-.836,1.537.31,4.056,1,2.2,2.388,3.957,2.231,4.087-.411.339-2.894-2.635-2.894-2.635a13.114,13.114,0,0,0-1.454-2.246c-.37-1.1-1.043-2.47-1.749-1.934a14.271,14.271,0,0,0,.338,2.446s.866,1.552,1.236,2.315c.651,1.347,2.133,2.982,2.642,3.86.423.73.012.561-.021.647a19.348,19.348,0,0,1-1.643-1.947,16.136,16.136,0,0,1-1.636-1.964,19.467,19.467,0,0,0-1.622-2.189c-1.286-1.536-1.971-.492-.992,1.127.373.617.784,1.285,1.2,1.96,1.63,2.627,3.64,4.68,3.444,4.928-.253.321-3.709-3.638-3.709-3.638s-2.436-1.624-.987.765a24.545,24.545,0,0,0,3.584,4.619c.574.5,2.1,2.851,4.349,4.281s5.889,3.587,5.889,3.587c.418.505,1.485,2.148,2.96,4.468l5.446-6.553A42.656,42.656,0,0,1,1950.54,994.468Z" transform="translate(-1750.604 -831.333)" fill="#f8a492"/>
      <path id="Path_274" data-name="Path 274" d="M1971.548,1035.88l7.529-6.588,25.853,25.514s40.024,3.509,40.128,3.538l1.6.5c14.519,5.014,8.542,16.862,5.745,18.7-6.517,4.271-42.705,1.711-54.3-5.481C1988.563,1066.138,1971.548,1035.88,1971.548,1035.88Z" transform="translate(-1775.908 -863.504)" fill="url(#linear-gradient-31)"/>
    </g>
    <g id="Group_140" data-name="Group 140" transform="translate(927.281 507.379)">
      <path id="Path_275" data-name="Path 275" d="M1216.025,1141.838a8.641,8.641,0,0,0,.821,2.125c2.365,4.594,7.853,11.15,7.853,11.15l4.245-10.207s-.692-3.205-1.892-7.786C1222.952,1138.262,1219.047,1138.923,1216.025,1141.838Z" transform="translate(-1205.913 -1048.618)" fill="#f8a492"/>
      <path id="Path_276" data-name="Path 276" d="M1222.476,1061.141s-23.675,10.88-24.441,10.672c-.493-.133-9.711-16.6-9.809-32.086-.046-7.152,6.914-15.756,14.679-14.054,3.91.857,3.849,2.017,9.632,10.987S1222.476,1061.141,1222.476,1061.141Z" transform="translate(-1188.026 -976.774)" fill="url(#linear-gradient-32)"/>
      <path id="Path_277" data-name="Path 277" d="M1338.085,1672.572s-.562,9.923-.565,9.944c-.207,1.26-1.02,4.373-1.02,5.518,0,4.3,19.145-3.653,14.854-5.559-.388-.173-2.423-1.478-2.55-2.943-.2-2.256-.7-6.821-.7-6.821Z" transform="translate(-1283.425 -1393.124)" fill="#f7a491"/>
      <path id="Path_278" data-name="Path 278" d="M1350.083,1699.907a69,69,0,0,1-6.8,1.646c-2.3.329-5.337-2.442-6.965-1.694-1.792.824-1.722,8.238-1.722,8.238s24.1,2.111,30.881-.073C1368.165,1707.16,1359.272,1702.972,1350.083,1699.907Z" transform="translate(-1282.202 -1410.597)" fill="#473b1e"/>
      <path id="Path_279" data-name="Path 279" d="M1228.265,1672.572s-.562,9.923-.565,9.944c-.207,1.26-1.02,4.373-1.02,5.518,0,4.3,19.144-3.653,14.854-5.559-.388-.173-3.026-2.453-3.153-3.917-.2-2.256-.093-5.846-.093-5.846Z" transform="translate(-1212.768 -1393.124)" fill="#f7a491"/>
      <path id="Path_280" data-name="Path 280" d="M1240.008,1699.907a69,69,0,0,1-6.8,1.646c-2.3.329-5.337-2.442-6.965-1.694-1.792.824-1.864,8.238-1.864,8.238s24.213,2.461,31.023-.073C1258.049,1707.041,1249.2,1702.972,1240.008,1699.907Z" transform="translate(-1211.289 -1410.597)" fill="#473b1e"/>
      <g id="Group_138" data-name="Group 138" transform="translate(21.348 20.807)">
        <path id="Path_281" data-name="Path 281" d="M1247.531,1025.2l16.861-25.208c.071-.221.224-.673.458-1.363.849-2.5,2.616-7.706,4.156-12.884l.016-.055c.484-1.81,1.509-4.967,2.5-8.022,1.1-3.4,2.47-7.607,2.518-8.326-.043-.123-.122-.343-.228-.636a61.478,61.478,0,0,1-1.749-7.565c-.188-1.129-.376-3.875.882-3.875,1.978,0,1.035,2.742,1.947,4.454a45.535,45.535,0,0,0,1.371-5.713l.331-5.359c.063-.4-.339-3.361,1.048-3.361l.066,0c1.246.1,1.218,3.24,1.737,8.557.164-.612.328-1.35.451-2.028a20.69,20.69,0,0,1,.422-2.805c-.25-1.481-.1-3.818,1.373-3.6.741.111.68,3.371.68,3.371-.008.448-.052,3.9-.029,4.576.153-1.157.745-6.091,1.9-6.091.962,0,1.039,1.328,1.019,2.379-.012.622-.616,5.967-.65,6.589.453-.811.99-5.521,1.439-5.521,1.875,0,1.2,6.7.508,8.443a8.126,8.126,0,0,0-.213.935,17.213,17.213,0,0,1-1.608,4.983c-1.177,2.15-2.8,5.568-3.049,6.092-.182,1.068-.746,4.907-1.455,9.737-.3,2.067-.636,4.333-.984,6.68l-.018,0c-.064.508-.416,2.123-1.749,8.183-1.825,8.293-2.015,8.651-2.1,8.8-.792,1.5-18.972,27.845-19.746,28.966l-.456.661Z" transform="translate(-1247.531 -947.288)" fill="#f7a491"/>
        <path id="Path_282" data-name="Path 282" d="M1328.609,993.9s-1.368-3.735-3.8-3.742a2.652,2.652,0,0,1,2.529.462C1328.5,991.606,1328.609,993.9,1328.609,993.9Z" transform="translate(-1297.248 -974.78)" fill="#f47458"/>
      </g>
      <g id="Group_139" data-name="Group 139" transform="translate(0 0)">
        <path id="Path_283" data-name="Path 283" d="M1232.191,979.117l-2.171,14.65s8.27,7.088,13.092,5.592c4.045-1.254,1.271-6.9,1.271-6.9s-2.155-7.821-1.494-11.92S1232.191,979.117,1232.191,979.117Z" transform="translate(-1214.917 -946.408)" fill="#f7a491"/>
        <path id="Path_284" data-name="Path 284" d="M1236.912,983.548a32.173,32.173,0,0,0,9.361,2.815,20.74,20.74,0,0,1-.221-5.82c.305-1.892-1.951-2.339-4.468-2.274-3.294.3-6.231.851-6.231.851l-.417,2.815A6.874,6.874,0,0,0,1236.912,983.548Z" transform="translate(-1218.08 -946.41)" fill="#fe875e"/>
        <path id="Path_285" data-name="Path 285" d="M1206.8,919.071c-.341,0,3.269,16.367,8.857,19.182s13.921,1.348,15.484-3.06c1.729-4.875-4.579-21.572-12.438-23.693S1206.8,919.071,1206.8,919.071Z" transform="translate(-1199.961 -903.26)" fill="#f7a491"/>
        <path id="Path_286" data-name="Path 286" d="M1200.97,889.715a18.482,18.482,0,0,0-7.2,8.49c-2.095,1.061-4.63,3.356-5.846,9.539-1.5,7.6,3.822,13.462,9.462,15.225s6.591,5.745,6.591,5.745l.558-4.286s-1.254-3.731-3.141-5.6.894-4.59,1.138-6.809c.188-1.709-.991-5.029-.736-7.833,0,0,3.134-5.068,6.222-6.32C1213.283,895.732,1206.7,886.19,1200.97,889.715Z" transform="translate(-1187.667 -888.942)" fill="#002a24"/>
        <path id="Path_287" data-name="Path 287" d="M1223.732,956.708c.73,1.89.432,3.767-.667,4.192s-2.581-.763-3.312-2.653-.432-3.766.666-4.191S1223,954.818,1223.732,956.708Z" transform="translate(-1208.054 -930.779)" fill="#f7a491"/>
      </g>
      <path id="Path_288" data-name="Path 288" d="M1290,1138.759l32.523-5.659s-3.7-9.943-5.022-9.943S1292.9,1134,1292.9,1134l-1.851,3.967Z" transform="translate(-1253.505 -1039.634)" fill="#f8a492"/>
      <path id="Path_289" data-name="Path 289" d="M1233.282,1230.781s-3.244,16.74-1.922,29.433,1.426,57.781,1.426,57.781l-5.045,72.142,11.971.279s14.2-72.108,13.931-70.256,4.76-50.771,4.76-50.771L1241.48,1229.2Z" transform="translate(-1213.45 -1107.858)" fill="url(#linear-gradient-33)"/>
      <path id="Path_290" data-name="Path 290" d="M1250.733,1221.4s-2.115,15.073.529,21.684,22.68,71.474,22.945,76.764,6.928,63.743,6.928,63.743l13.92-.418,3.011-64.99-6.306-81.683-6.122-20.652Z" transform="translate(-1227.728 -1099.271)" fill="url(#linear-gradient-34)"/>
      <path id="Path_291" data-name="Path 291" d="M1230.02,1013.193s3.433,2.4,6.634,2.125,7.728-3.432,7.728-3.432l-.629-2.276s-8.282-1.287-8.492-1.148S1230.02,1013.193,1230.02,1013.193Z" transform="translate(-1214.917 -965.834)" fill="#f7a491"/>
      <path id="Path_292" data-name="Path 292" d="M1332.616,1099.62s12.3,12.39,17.855,10.274,7.851-9.347-5.7-19.926C1332.647,1080.5,1332.616,1099.62,1332.616,1099.62Z" transform="translate(-1280.926 -1016.587)" fill="#f8a492"/>
      <path id="Path_293" data-name="Path 293" d="M1254.226,1069.931c-1.828-10.611-15.073-43.631-16.13-49.713-.514-2.958-7.658-3.024-14.464-2.637-7.188.408-14.328,1.378-14.328,1.378s-6.363,1.116-9.163,3.915-3.543,10.543.481,25.241c3.177,11.6,7.115,17.973,9.064,26.424.4,2.835.733,5.632,1.181,8.9.716,12.637-.008,29.331-.008,29.331s34.641,7.668,47.6-3.966C1258.457,1108.8,1256.1,1080.8,1254.226,1069.931Z" transform="translate(-1194.201 -971.599)" fill="url(#linear-gradient-35)"/>
      <path id="Path_294" data-name="Path 294" d="M1310.833,1047.88s-13.592,11.975-14.386,11.975c-.51,0-19.4-14.827-23.756-27.008-2.41-6.735,2.645-14.269,8.419-14.243,4,.017,5.781,1.118,13.714,8.258S1310.833,1047.88,1310.833,1047.88Z" transform="translate(-1241.975 -972.365)" fill="url(#linear-gradient-36)"/>
    </g>
    <g id="Group_141" data-name="Group 141" transform="translate(1144.159 304.063)">
      <path id="Path_295" data-name="Path 295" d="M1855.453,360.232l-29.472,19.938a6.541,6.541,0,0,1-9.083-1.752l-19.938-29.471a6.541,6.541,0,0,1,1.752-9.082l29.471-19.938a6.541,6.541,0,0,1,9.083,1.752l19.938,29.471A6.541,6.541,0,0,1,1855.453,360.232Z" transform="translate(-1795.837 -318.802)" fill="#b7d972"/>
      <path id="Path_296" data-name="Path 296" d="M1866.454,363.145a16.675,16.675,0,1,1-23.156-4.468A16.675,16.675,0,0,1,1866.454,363.145Z" transform="translate(-1821.655 -342.614)" fill="#fff"/>
      <path id="Path_297" data-name="Path 297" d="M1867.332,383.366l6.841,7.46a1.342,1.342,0,0,1-1.978,1.814,1.375,1.375,0,0,1-.2-.289Z" transform="translate(-1841.836 -360.342)" fill="#b7d972"/>
      <path id="Path_298" data-name="Path 298" d="M1880.867,394.022l10.319-5.777-9,7.67a1.159,1.159,0,1,1-1.5-1.764A1.228,1.228,0,0,1,1880.867,394.022Z" transform="translate(-1850.163 -363.481)" fill="#b7d972"/>
    </g>
    <path id="Rectangle_43" data-name="Rectangle 43" d="M25.657,0H72.989A25.657,25.657,0,0,1,98.646,25.657v0A25.657,25.657,0,0,1,72.989,51.314H25.657A25.657,25.657,0,0,1,0,25.657v0A25.657,25.657,0,0,1,25.657,0Z" transform="translate(834.103 455.603)" fill="#b7d972"/>
    <path id="Path_299" data-name="Path 299" d="M1170.17,811.889l24.3,10.889L1178.2,800.01Z" transform="translate(-249.128 -324.345)" fill="#b7d972"/>
    <g id="Group_142" data-name="Group 142" transform="translate(858.439 475.818)">
      <path id="Path_300" data-name="Path 300" d="M1003.13,804.221a4.284,4.284,0,1,1-4.255-3.782A4.039,4.039,0,0,1,1003.13,804.221Z" transform="translate(-994.62 -800.439)" fill="#fff"/>
      <path id="Path_301" data-name="Path 301" d="M1058.649,804.221a4.285,4.285,0,1,1-4.255-3.782A4.039,4.039,0,0,1,1058.649,804.221Z" transform="translate(-1030.34 -800.439)" fill="#fff"/>
      <path id="Path_302" data-name="Path 302" d="M1114.167,804.221a4.285,4.285,0,1,1-4.255-3.782A4.039,4.039,0,0,1,1114.167,804.221Z" transform="translate(-1066.06 -800.439)" fill="#fff"/>
    </g>
    <g id="Group_143" data-name="Group 143" transform="translate(1131.831 295.894)">
      <path id="Path_303" data-name="Path 303" d="M1765.271,305.991l-4-8.536,3.327-1.561,2.27,4.839,5.545-3.354,1.9,3.144Z" transform="translate(-1761.266 -295.894)" fill="url(#linear-gradient-37)"/>
    </g>
    <g id="Group_144" data-name="Group 144" transform="translate(899.084 419.259)">
      <path id="Path_304" data-name="Path 304" d="M1118.712,651.357l-8.881,3.167-1.235-3.461,5.035-1.8-2.807-5.841,3.312-1.592Z" transform="translate(-1108.597 -641.834)" fill="url(#linear-gradient-38)"/>
    </g>
    <g id="Group_145" data-name="Group 145" transform="translate(1277.143 340.99)">
      <path id="Path_305" data-name="Path 305" d="M2168.825,424.157q.99,3.154,1.979,6.309c.516,1.646.9,4.317,2.506,5.25a.929.929,0,0,0,1.262-.331c.8-1.753-.349-4-.9-5.711q-1.007-3.149-2.014-6.3c-.574-1.795-3.4-1.033-2.835.782Z" transform="translate(-2168.75 -422.353)" fill="#b7d972"/>
    </g>
    <g id="Group_146" data-name="Group 146" transform="translate(1296.195 339.5)">
      <path id="Path_306" data-name="Path 306" d="M2225.459,419.193c-3.406,11.626-3.44,11.276-3.188,12.463a1.259,1.259,0,0,0,2.088.551c.8-.821.6-.58,3.888-12.245a1.447,1.447,0,0,0-2.788-.768Z" transform="translate(-2222.178 -418.176)" fill="#b7d972"/>
    </g>
    <g id="Group_147" data-name="Group 147" transform="translate(1310.258 358.669)">
      <path id="Path_307" data-name="Path 307" d="M2263.823,479.652l6.02-2.888c1.785-.856,4.088-1.537,5.309-3.159.537-.713-.2-1.653-.961-1.676-1.983-.058-4.1,1.461-5.828,2.3l-6.005,2.914c-1.682.817-.211,3.311,1.466,2.507Z" transform="translate(-2261.614 -471.927)" fill="#b7d972"/>
    </g>
    <g id="Group_148" data-name="Group 148" transform="translate(1305.581 398.9)">
      <path id="Path_308" data-name="Path 308" d="M2248.81,587.162a96.17,96.17,0,0,0,6.453,7.8c1.255,1.305,3.079-.611,1.958-1.958-2.162-2.595-4.383-5.124-6.47-7.784-1.092-1.391-3.007.564-1.94,1.94Z" transform="translate(-2248.498 -584.744)" fill="#b7d972"/>
    </g>
    <g id="Group_149" data-name="Group 149" transform="translate(1312.763 385.079)">
      <path id="Path_309" data-name="Path 309" d="M2269.341,548.666c1.858.815,3.74,1.571,5.629,2.311,1.725.675,3.773,1.882,5.641,1.617.991-.141,1.105-1.464.548-2.077-.7-.768-1.073-.709-5.176-2.29-1.852-.714-3.689-1.463-5.548-2.157-1.492-.558-2.571,1.95-1.095,2.6Z" transform="translate(-2268.637 -545.988)" fill="#b7d972"/>
    </g>
  </g>
</svg>
