<svg xmlns="http://www.w3.org/2000/svg" xmlns:xlink="http://www.w3.org/1999/xlink" width="502.485" height="534.062" viewBox="0 0 502.485 534.062"><defs><radialGradient id="a" cx="0.5" cy="0.5" r="0.5" gradientUnits="objectBoundingBox"><stop offset="0" stop-color="#82ffff"/><stop offset="0.026" stop-color="#7cfefd" stop-opacity="0.957"/><stop offset="0.186" stop-color="#5bfcf6" stop-opacity="0.706"/><stop offset="0.343" stop-color="#3ffaef" stop-opacity="0.49"/><stop offset="0.495" stop-color="#28f8ea" stop-opacity="0.314"/><stop offset="0.64" stop-color="#17f7e6" stop-opacity="0.176"/><stop offset="0.776" stop-color="#0af6e3" stop-opacity="0.078"/><stop offset="0.9" stop-color="#02f6e1" stop-opacity="0.02"/><stop offset="1" stop-color="#00f6e1" stop-opacity="0"/></radialGradient><linearGradient id="b" y1="0.5" x2="1" y2="0.5" gradientUnits="objectBoundingBox"><stop offset="0" stop-color="#007bbb"/><stop offset="1" stop-color="#00f6e1"/></linearGradient><linearGradient id="c" x1="0.09" y1="-0.408" x2="1.063" y2="1.748" gradientUnits="objectBoundingBox"><stop offset="0" stop-color="#007bbb"/><stop offset="0.207" stop-color="#00a1c6"/><stop offset="0.438" stop-color="#00c6d2"/><stop offset="0.655" stop-color="#00e0da"/><stop offset="0.849" stop-color="#00f0df"/><stop offset="1" stop-color="#00f6e1"/></linearGradient><linearGradient id="d" x1="0.087" y1="-0.628" x2="1.064" y2="1.775" gradientUnits="objectBoundingBox"><stop offset="0" stop-color="#00f6e1"/><stop offset="0.151" stop-color="#00f0df"/><stop offset="0.345" stop-color="#00e0da"/><stop offset="0.562" stop-color="#00c6d2"/><stop offset="0.793" stop-color="#00a1c6"/><stop offset="1" stop-color="#007bbb"/></linearGradient><linearGradient id="e" x1="0.501" y1="-0.911" x2="0.501" y2="1.343" xlink:href="#c"/><linearGradient id="f" x1="0.5" y1="-0.999" x2="0.5" y2="1.317" gradientUnits="objectBoundingBox"><stop offset="0" stop-color="#00f6e1"/><stop offset="0.15" stop-color="#00d1d1"/><stop offset="0.451" stop-color="#008db3"/><stop offset="0.703" stop-color="#005b9e"/><stop offset="0.893" stop-color="#003c90"/><stop offset="1" stop-color="#00318c"/></linearGradient><linearGradient id="j" x1="-0.041" y1="-0.04" x2="0.667" y2="0.667" gradientUnits="objectBoundingBox"><stop offset="0" stop-color="#fff"/><stop offset="1" stop-color="#fff" stop-opacity="0"/></linearGradient><linearGradient id="k" x1="-0.302" y1="-0.303" x2="0.783" y2="0.783" gradientUnits="objectBoundingBox"><stop offset="0" stop-color="#fff"/><stop offset="0.016" stop-color="#fff" stop-opacity="0.98"/><stop offset="0.3" stop-color="#fff" stop-opacity="0.635"/><stop offset="0.55" stop-color="#fff" stop-opacity="0.365"/><stop offset="0.757" stop-color="#fff" stop-opacity="0.169"/><stop offset="0.913" stop-color="#fff" stop-opacity="0.047"/><stop offset="1" stop-color="#fff" stop-opacity="0"/></linearGradient><clipPath id="l"><path d="M423.169,379.729c.311,2.453,26.044,31.558,24.975,54.818-3.67,79.768-86.352,5.9-97.732,7.339-25.112,3.176-17.616-46.17-18.183-50.655s19.33-10.7,44.443-13.87S422.6,375.245,423.169,379.729Z" transform="translate(-331.603 -375.529)" fill="none"/></clipPath><linearGradient id="m" x1="0.639" y1="0.111" x2="0.639" y2="1.628" gradientUnits="objectBoundingBox"><stop offset="0" stop-color="#00fff3"/><stop offset="1" stop-color="#0027d6"/></linearGradient><linearGradient id="n" x1="0.541" y1="1.674" x2="0.458" y2="-0.401" xlink:href="#m"/><linearGradient id="o" x1="0.844" y1="0.396" x2="0.844" y2="1.604" xlink:href="#m"/><linearGradient id="p" x1="1.304" y1="0.624" x2="1.304" y2="2.215" xlink:href="#m"/><linearGradient id="q" x1="1.834" y1="0.045" x2="1.834" y2="1.631" xlink:href="#m"/><linearGradient id="r" x1="1.148" y1="-0.488" x2="1.148" y2="0.804" xlink:href="#m"/><linearGradient id="s" x1="1.32" y1="-0.348" x2="1.32" y2="0.929" xlink:href="#m"/><linearGradient id="t" x1="1.479" y1="-0.736" x2="1.479" y2="0.062" xlink:href="#m"/><linearGradient id="u" x1="1.604" y1="2.214" x2="1.604" y2="3.591" xlink:href="#m"/><linearGradient id="v" x1="1.372" y1="2.501" x2="1.372" y2="4.859" xlink:href="#m"/><linearGradient id="w" x1="0.5" y1="0.204" x2="0.5" y2="1.79" xlink:href="#m"/><linearGradient id="x" x1="0.5" y1="1.945" x2="0.5" y2="3.531" xlink:href="#m"/><linearGradient id="y" x1="0.5" y1="-3.365" x2="0.5" y2="-1.779" xlink:href="#m"/><linearGradient id="z" x1="0.5" y1="-52.762" x2="0.5" y2="-51.176" xlink:href="#m"/><linearGradient id="aa" x1="0.5" y1="5.39" x2="0.5" y2="6.976" xlink:href="#m"/><linearGradient id="ab" x1="0.5" y1="-3.231" x2="0.5" y2="-1.645" xlink:href="#m"/><linearGradient id="ac" x1="0.5" y1="-1.94" x2="0.5" y2="-0.353" xlink:href="#m"/><linearGradient id="ad" x1="0.5" y1="-1.955" x2="0.5" y2="-0.369" xlink:href="#m"/><linearGradient id="ae" x1="0.5" y1="6.367" x2="0.5" y2="7.953" xlink:href="#m"/><linearGradient id="af" x1="0" y1="0.5" x2="1" y2="0.5" xlink:href="#m"/><linearGradient id="ag" x1="0.5" y1="-0.733" x2="0.5" y2="1.172" xlink:href="#m"/><linearGradient id="ah" x1="0.5" y1="-0.733" x2="0.5" y2="1.172" xlink:href="#m"/><linearGradient id="ak" x1="0" y1="0.5" x2="1" y2="0.5" xlink:href="#m"/><linearGradient id="al" x1="0" y1="0.5" x2="1" y2="0.5" xlink:href="#m"/><linearGradient id="am" x1="0" y1="0.5" x2="1" y2="0.5" xlink:href="#m"/><linearGradient id="an" x1="0" y1="0.5" x2="1" y2="0.5" xlink:href="#m"/><linearGradient id="ao" x1="0" y1="0.5" x2="1" y2="0.5" xlink:href="#m"/><linearGradient id="ap" x1="0" y1="0.5" x2="1" y2="0.5" xlink:href="#m"/><linearGradient id="ar" x1="0" y1="0.5" x2="1" y2="0.5" xlink:href="#m"/><linearGradient id="as" x1="0" y1="0.5" x2="1" y2="0.5" xlink:href="#m"/><linearGradient id="at" x1="0" y1="0.5" x2="1" y2="0.5" xlink:href="#m"/><linearGradient id="au" x1="0" y1="0.5" x2="1" y2="0.5" xlink:href="#m"/><linearGradient id="av" x1="0" y1="0.5" x2="1" y2="0.5" xlink:href="#m"/><linearGradient id="aw" x1="0" y1="0.5" x2="1" y2="0.5" xlink:href="#m"/><linearGradient id="ax" x1="0" y1="0.5" x2="1" y2="0.5" xlink:href="#m"/><linearGradient id="ay" x1="0" y1="0.5" x2="1" y2="0.5" xlink:href="#m"/><linearGradient id="ba" x1="0" y1="0.5" x2="1" y2="0.5" xlink:href="#m"/><linearGradient id="bc" x1="0" y1="0.5" x2="1" y2="0.5" xlink:href="#m"/><linearGradient id="bd" x1="0" y1="0.5" x2="1" y2="0.5" xlink:href="#m"/><linearGradient id="be" x1="0" y1="0.5" x2="1" y2="0.5" xlink:href="#m"/><linearGradient id="bh" x1="0" y1="0.5" x2="1" y2="0.5" xlink:href="#m"/></defs><g transform="translate(1.405 2.368)"><path d="M477.969,259.884c-160.158,67.5-202.973,35.334-232.785-6.72,6.229,24.786,16.23,47.982,44.841,64.457,28.094,16.661,74.8,26.6,142.513,29.15-15.078,14.093-28.413,25.981-39.1,36.9C337.365,367.639,294.761,349,270.52,327.047c-25.033-21.806-31.7-46.919-34.184-72.565-7.007,24.577-9.821,49.689,5.724,78.105,14.754,28.273,47.868,59.852,94.447,94.042-9.853,5.42-17.06,11.809-22.524,20.4-50.815-45.691-80.622-83.985-91.818-115.562-11.714-31.761-4.816-56.8,5.852-80.257C191.177,286.664,167.34,332,260.86,477.006H215.729c-67.508-160.164-35.336-202.971,6.723-232.782-24.787,6.227-47.984,16.223-64.462,44.831-16.663,28.091-26.608,74.792-29.155,142.5-14.094-15.08-25.981-28.417-36.9-39.109,16.033-56.065,34.677-98.661,56.627-122.9,21.806-25.027,46.919-31.693,72.566-34.17-24.578-7.008-49.688-9.829-78.1,5.71-28.272,14.748-59.85,47.857-94.041,94.431-5.42-9.852-11.81-17.057-20.407-22.52,45.688-50.812,83.983-80.614,115.559-91.808,31.76-11.71,56.8-4.812,80.256,5.857-35.451-36.842-80.785-60.684-225.8,32.832V214.757c160.168-67.509,202.981-35.334,232.795,6.724-6.228-24.786-16.225-47.984-44.833-64.463-28.091-16.663-74.791-26.61-142.5-29.161C59.14,113.766,72.477,101.88,83.171,90.964c56.06,16.034,98.656,34.68,122.892,56.632,25.027,21.808,31.7,46.921,34.174,72.567,7.007-24.578,9.824-49.69-5.72-78.109C219.765,113.778,186.651,82.2,140.07,48c9.852-5.419,17.059-11.808,22.524-20.4,50.818,45.7,80.625,83.994,91.822,115.573,11.713,31.765,4.814,56.809-5.855,80.264,36.839-35.451,60.679-80.79-32.832-225.8H260.86c67.5,160.167,35.323,202.983-6.733,232.793,24.785-6.229,47.983-16.23,64.461-44.841,16.662-28.1,26.606-74.8,29.155-142.514,14.093,15.077,25.979,28.411,36.9,39.1-16.033,56.067-34.676,98.671-56.627,122.912-21.806,25.033-46.919,31.7-72.566,34.183,24.578,7.008,49.69,9.824,78.109-5.722,28.274-14.756,59.856-47.872,94.049-94.454,5.419,9.852,11.808,17.06,20.4,22.524-45.692,50.816-83.989,80.626-115.567,91.825-31.762,11.716-56.805,4.822-80.26-5.846,35.447,36.837,80.784,60.67,225.788-32.835Z" transform="translate(0)" fill-rule="evenodd" fill="url(#a)"/><g transform="translate(126.124 106.001)"><path d="M322.858,197.8l-18.052,57.687a5.946,5.946,0,0,0,3.246,7.253c5.6,2.4,15.669,3.153,26.5-13.157,16.423-24.74,21.885-41.625,21.885-41.625" transform="translate(-77.521 -74.2)" fill="#eca87d"/><path d="M338.909,233.3l-3.255-14.747-7.142-8.6-7.812-2.678-2.577,3.679-13.437,42.941,19.879-31.584Z" transform="translate(-77.496 -72.696)" fill="#ec8f62"/><path d="M308.62,262.3a5.946,5.946,0,0,1-3.246-7.253l17.877-57.128-.393-.118-18.052,57.687a5.946,5.946,0,0,0,3.246,7.253c4.068,1.746,10.49,2.612,17.847-3.283C318.78,264.869,312.583,264,308.62,262.3Z" transform="translate(-77.521 -74.2)" fill="#fff2b2"/><g transform="translate(5.832 138.424)"><path d="M235.445,279.76V263.2H219.158a44.8,44.8,0,0,0-7.241-17.367l11.55-11.55-11.712-11.71-11.6,11.6a44.8,44.8,0,0,0-17.319-7.012V210.593H166.279v16.662a44.781,44.781,0,0,0-17.043,7.191l-11.874-11.875-11.71,11.71L137.572,246.2a44.8,44.8,0,0,0-6.962,17H113.673V279.76H130.61a44.8,44.8,0,0,0,6.962,17l-11.921,11.921,11.71,11.71,11.874-11.875a44.782,44.782,0,0,0,17.043,7.191v16.662H182.84V315.8a44.8,44.8,0,0,0,17.319-7.012l11.6,11.6,11.712-11.71-11.55-11.55a44.8,44.8,0,0,0,7.241-17.367Zm-60.561,20.257A28.213,28.213,0,1,1,203.1,271.8,28.213,28.213,0,0,1,174.883,300.017Z" transform="translate(-113.673 -210.593)" fill="url(#b)"/></g><path d="M294.825,188.352l-16.474,58.757a5.994,5.994,0,0,0,3.028,6.957c6.23,3.2,18.465,6.011,30.324-11.2,16.879-24.5,21.885-41.627,21.885-41.627" transform="translate(-81.715 -75.702)" fill="#ecb37d"/><path d="M282.037,253.559a5.994,5.994,0,0,1-3.028-6.957L295.3,188.508l-.472-.156-16.474,58.756a6,6,0,0,0,3.028,6.958c4.878,2.5,13.436,4.769,22.613-2.624C295.066,258.211,286.8,256,282.037,253.559Z" transform="translate(-81.715 -75.702)" fill="#fff2b2"/><path d="M280.912,235.084s16.608-4.685,32.453-25.725l13.3,6.125L309.93,196.62" transform="translate(-81.273 -74.388)" fill="#ec8f62"/><path d="M289.726,172.694l-30.409,58.753a6.229,6.229,0,0,0,2.094,7.622c5.778,4.005,17.419,8.281,31.435-6.972a220.4,220.4,0,0,0,31.433-44.28l-21.519-15.492-12.99-1.984" transform="translate(-84.788 -78.563)" fill="#ecb37d"/><path d="M289.726,172.694l-30.409,58.753a6.229,6.229,0,0,0,2.094,7.622c5.778,4.005,17.419,8.281,31.435-6.972a220.4,220.4,0,0,0,31.433-44.28l-21.519-15.492-12.99-1.984" transform="translate(-84.788 -78.563)" fill="#fff2b2"/><path d="M290.719,170.632,260.5,231.113a6.229,6.229,0,0,0,2.093,7.622c5.778,4.005,17.419,8.281,31.435-6.972a220.4,220.4,0,0,0,31.433-44.28l-21.519-15.492-12.99-1.985" transform="translate(-84.6 -78.617)" fill="#ecb37d"/><path d="M284.375,176.358l8.434,9.823,10.042,29.775,12.469-17.32-4.481-10.582-13.878-13.447" transform="translate(-80.722 -77.886)" fill="#ec8f62"/><path d="M418.261,197.688l-77.636-46.975-80.108-23.932-35.588,1.975a6.144,6.144,0,0,0-5.8,5.849c-.327,7.241-2.583,21.616,23.223,27.376,41.658,9.3,66.7,26.358,66.7,26.358s37.465,43.141,45.909,51.449,14.351,45-19.6,55.733c-39.936,12.62-56.52.278-74.208-9.35-26.933-14.661-49.048-20.992-64.726-8.766-11.739,9.155-16.115,19.723-16.545,27.623a7.343,7.343,0,0,0,6.041,7.6A185.86,185.86,0,0,1,227.331,325.5c24.767,11.143,35.534,32.27,73.971,48.051,0,0,24.424,26.5,40.746,35.279l3.7,22.725,112.067-13.874s-7.059-174.3-6.942-186.85-4.8-29.46-27.309-45.666-62.82-44.213-62.82-44.213l-20.12,9.766" transform="translate(-97.326 -85.483)" fill="#ecb98c"/><path d="M236.775,159.083q4.132.921,8.038,1.94l6.426-4.661-36.3-11.337C217.316,150.568,223.111,156.033,236.775,159.083Z" transform="translate(-91.754 -82.585)" fill="#ec9b6c"/><path d="M318.586,148.19l73.522,44.485-61.793-50Z" transform="translate(-75.287 -82.959)" fill="#e7a375"/><path d="M244.9,127.272h0l-25.355,1.407a6.144,6.144,0,0,0-5.8,5.849C240.146,136.206,244.9,127.272,244.9,127.272Z" transform="translate(-91.944 -85.406)" fill="#ece6ca"/><path d="M179.871,282.117a7.343,7.343,0,0,0,6.041,7.6,188.217,188.217,0,0,1,30.6,8.454c2.415-2.683,5.968-8.123,2.631-14.484-3.934-7.5-23.319-15.973-36.945-11.372A29.989,29.989,0,0,0,179.871,282.117Z" transform="translate(-97.326 -62.57)" fill="#ece6ca"/><path d="M407.968,195.2l-73.521-44.486-80.108-23.931-35.587,1.975,34.841-.387,80.854,24.173Z" transform="translate(-91.148 -85.483)" fill="#fff2b2"/><path d="M328.707,143.253l8.391-4.247,54.115,37.986-54.222-36.565Z" transform="translate(-73.679 -83.541)" fill="#fff2b2"/><path d="M209.428,251.271c-1.152-.072,12.561-2.886,37.932,10.463s45.322,27.558,83.3,14.057c0,0-13.282,11.356-43.186,7.084S244.784,253.455,209.428,251.271Z" transform="translate(-92.64 -65.753)" fill="#fff2b2"/><ellipse cx="56.486" cy="12.084" rx="56.486" ry="12.084" transform="matrix(0.992, -0.125, 0.125, 0.992, 246.848, 334.018)" fill="#ecdbbf"/><ellipse cx="56.486" cy="11.72" rx="56.486" ry="11.72" transform="matrix(0.992, -0.125, 0.125, 0.992, 246.94, 334.741)" fill="url(#c)"/><path d="M435.076,377.835a2.344,2.344,0,0,0-.067-.265c.1,6.384-24.056,14.581-54.57,18.44s-55.954,1.934-57.443-4.274a2.391,2.391,0,0,0,0,.273c.812,6.421,26.56,8.454,57.51,4.54S435.889,384.257,435.076,377.835Z" transform="translate(-74.587 -45.641)" fill="url(#d)"/><ellipse cx="45.832" cy="8.409" rx="45.832" ry="8.409" transform="matrix(0.992, -0.125, 0.125, 0.992, 257.926, 336.7)" fill="url(#e)"/><ellipse cx="45.832" cy="8.185" rx="45.832" ry="8.185" transform="matrix(0.992, -0.125, 0.125, 0.992, 257.982, 337.144)" fill="url(#f)"/><path d="M242.146,257.654l-56.283,9.731s3.135-7.355,12.618-11.809S220.117,247.468,242.146,257.654Z" transform="translate(-96.373 -65.732)" fill="#ec9b6c"/><g transform="translate(17.011 35.634)"><path d="M197.856,164.23V154.093h-9.97a27.418,27.418,0,0,0-4.432-10.63l7.069-7.07-7.168-7.168-7.1,7.1a27.427,27.427,0,0,0-10.6-4.291V121.894H155.519v10.2a27.4,27.4,0,0,0-10.431,4.4l-7.268-7.268-7.168,7.168,7.3,7.3a27.419,27.419,0,0,0-4.261,10.4H123.32V164.23h10.367a27.427,27.427,0,0,0,4.261,10.4l-7.3,7.3,7.168,7.168,7.268-7.267a27.435,27.435,0,0,0,10.431,4.4v10.2h10.138V186.291a27.41,27.41,0,0,0,10.6-4.292l7.1,7.1,7.168-7.168-7.069-7.069a27.425,27.425,0,0,0,4.432-10.63Zm-37.069,12.4a17.268,17.268,0,1,1,17.268-17.268A17.269,17.269,0,0,1,160.787,176.628Z" transform="translate(-123.32 -121.894)" fill="url(#b)"/></g><g transform="translate(94.794 45.955)"><path d="M213.688,144v-3.161h-3.11a8.533,8.533,0,0,0-1.381-3.316l2.2-2.205-2.235-2.235-2.213,2.213a8.555,8.555,0,0,0-3.306-1.338V130.8h-3.163v3.18a8.561,8.561,0,0,0-3.253,1.373l-2.267-2.267-2.235,2.235L195,137.6a8.554,8.554,0,0,0-1.328,3.245H190.44V144h3.234A8.562,8.562,0,0,0,195,147.249l-2.275,2.275,2.235,2.237,2.267-2.268a8.543,8.543,0,0,0,3.253,1.373v3.181h3.163v-3.163a8.555,8.555,0,0,0,3.306-1.338l2.213,2.215,2.235-2.237-2.2-2.2A8.54,8.54,0,0,0,210.578,144Zm-11.562,3.867a5.386,5.386,0,1,1,5.386-5.386A5.386,5.386,0,0,1,202.126,147.871Z" transform="translate(-190.44 -130.8)" fill="url(#b)"/></g><g transform="translate(66.717)"><path d="M189.459,104.349v-3.161H186.35a8.535,8.535,0,0,0-1.383-3.316l2.205-2.205-2.235-2.235-2.213,2.215a8.56,8.56,0,0,0-3.307-1.338V91.145h-3.161v3.181A8.559,8.559,0,0,0,173,95.7l-2.268-2.267L168.5,95.667l2.276,2.276a8.563,8.563,0,0,0-1.329,3.245h-3.233v3.161h3.233a8.556,8.556,0,0,0,1.329,3.245L168.5,109.87l2.235,2.235L173,109.839a8.561,8.561,0,0,0,3.253,1.373v3.18h3.161V111.23a8.56,8.56,0,0,0,3.307-1.338l2.213,2.213,2.235-2.235-2.205-2.205a8.535,8.535,0,0,0,1.383-3.316ZM177.9,108.216a5.386,5.386,0,1,1,5.385-5.385A5.385,5.385,0,0,1,177.9,108.216Z" transform="translate(-166.212 -91.145)" fill="url(#b)"/></g><rect width="118.61" height="118.61" rx="13.799" transform="translate(51.616 72.893)" fill="#30fff3"/><text transform="translate(67.042 148.651)" fill="#06acd7" font-size="43" font-family="Poppins-Bold, Poppins" font-weight="700"><tspan x="0" y="0">APP</tspan></text><g transform="translate(67.699 125.286)"><path d="M235.463,200.239a4.234,4.234,0,0,0-2.624-.983h-5.464v.423h5.464a4.235,4.235,0,0,1,2.624.984,3.342,3.342,0,0,1,1.248,2.655c0-.074.019-.139.019-.216A3.406,3.406,0,0,0,235.463,200.239Z" transform="translate(-157.477 -199.256)" fill="#0682c2"/><path d="M181.3,203.594l-2.885,5.989h.2l2.681-5.566,2.722,5.566h.207Z" transform="translate(-165.255 -198.567)" fill="#0682c2"/><path d="M211.623,200.239a4.234,4.234,0,0,0-2.624-.983h-5.464v.423H209a4.235,4.235,0,0,1,2.624.984,3.342,3.342,0,0,1,1.248,2.655c0-.074.019-.139.019-.216A3.406,3.406,0,0,0,211.623,200.239Z" transform="translate(-161.264 -199.256)" fill="#0682c2"/><path d="M196.653,220.858a5.866,5.866,0,0,1-2.492.743,2.071,2.071,0,0,1-1.246-.394,2.587,2.587,0,0,1-.787-.83q-.242-.436-.678-1.312l-2.273-4.721H177.069l-2.274,4.721c-.292.584-.517,1.006-.678,1.268a3.1,3.1,0,0,1-.786.809,2.016,2.016,0,0,1-1.247.415,5.858,5.858,0,0,1-2.49-.743c-1.571-.758-2.4-1.618-2.514-2.577-.007.067-.022.143-.022.2q0,1.575,2.536,2.8a5.841,5.841,0,0,0,2.49.743,2.009,2.009,0,0,0,1.247-.415,3.079,3.079,0,0,0,.786-.809c.161-.262.386-.684.678-1.267l2.274-4.722h12.109l2.273,4.722q.436.874.678,1.311a2.589,2.589,0,0,0,.787.831,2.078,2.078,0,0,0,1.246.393,5.866,5.866,0,0,0,2.492-.743q2.534-1.267,2.536-2.842a1.9,1.9,0,0,0-.023-.2C199.054,219.2,198.223,220.072,196.653,220.858Z" transform="translate(-167.059 -196.859)" fill="#0682c2"/><path d="M204.115,219.545a1.923,1.923,0,0,1-1.18.918,7.685,7.685,0,0,1-2.23.262,6.729,6.729,0,0,1-1.88-.219,3.442,3.442,0,0,1-1.137-.524,1.832,1.832,0,0,1-.59-.9,3.976,3.976,0,0,1-.219-1.006q-.023-.415-.022-1.246v.423q0,.831.022,1.246a3.976,3.976,0,0,0,.219,1.006,1.827,1.827,0,0,0,.59.9,3.441,3.441,0,0,0,1.137.524,6.729,6.729,0,0,0,1.88.219,7.645,7.645,0,0,0,2.23-.262,1.923,1.923,0,0,0,1.18-.918,3.529,3.529,0,0,0,.416-1.159,12.893,12.893,0,0,0,.065-1.508v-.424a12.916,12.916,0,0,1-.065,1.509A3.529,3.529,0,0,1,204.115,219.545Z" transform="translate(-162.325 -196.463)" fill="#0682c2"/><path d="M227.955,219.545a1.922,1.922,0,0,1-1.181.918,7.675,7.675,0,0,1-2.228.262,6.729,6.729,0,0,1-1.88-.219,3.441,3.441,0,0,1-1.137-.524,1.824,1.824,0,0,1-.59-.9,3.878,3.878,0,0,1-.219-1.006q-.023-.415-.022-1.246v.423q0,.831.022,1.246a3.878,3.878,0,0,0,.219,1.006,1.819,1.819,0,0,0,.59.9,3.441,3.441,0,0,0,1.137.524,6.729,6.729,0,0,0,1.88.219,7.636,7.636,0,0,0,2.228-.262,1.922,1.922,0,0,0,1.181-.918,3.5,3.5,0,0,0,.415-1.159,12.587,12.587,0,0,0,.066-1.508v-.424a12.609,12.609,0,0,1-.066,1.509A3.5,3.5,0,0,1,227.955,219.545Z" transform="translate(-158.537 -196.463)" fill="#0682c2"/><path d="M243.287,207.72a10.185,10.185,0,0,1-2.908,3.65,14.154,14.154,0,0,1-3.737,2.077,11.024,11.024,0,0,1-3.8.721h-5.464v.423h5.464a11.024,11.024,0,0,0,3.8-.721,14.121,14.121,0,0,0,3.737-2.077,10.175,10.175,0,0,0,2.908-3.65,11.409,11.409,0,0,0,1.136-5.136c0-.072-.009-.14-.01-.212A11.351,11.351,0,0,1,243.287,207.72Z" transform="translate(-157.477 -198.694)" fill="#0682c2"/><path d="M219.447,207.72a10.185,10.185,0,0,1-2.908,3.65,14.154,14.154,0,0,1-3.737,2.077,11.019,11.019,0,0,1-3.8.721h-5.464v.423H209a11.019,11.019,0,0,0,3.8-.721,14.122,14.122,0,0,0,3.737-2.077,10.175,10.175,0,0,0,2.908-3.65,11.425,11.425,0,0,0,1.137-5.136c0-.072-.01-.14-.012-.212A11.367,11.367,0,0,1,219.447,207.72Z" transform="translate(-161.264 -198.694)" fill="#0682c2"/></g><rect width="155.634" height="155.634" rx="13.799" transform="translate(0.87 132.198) rotate(-45)" fill="none" stroke="#0058f3" stroke-miterlimit="10" stroke-width="0.75"/><path d="M255.8,154.045H169.171a15.991,15.991,0,0,0-15.99,15.991v1.128a15.99,15.99,0,0,1,15.99-15.99H255.8a15.99,15.99,0,0,1,15.99,15.99v-1.128A15.991,15.991,0,0,0,255.8,154.045Z" transform="translate(-101.565 -81.152)" fill="#a5fff3"/><path d="M256.958,159.171a11.185,11.185,0,0,0-2.7-.341H169.19a11.224,11.224,0,0,0-11.224,11.225v85.07a11.2,11.2,0,0,0,.357,2.763C168.5,228.851,194.608,178.881,256.958,159.171Z" transform="translate(-100.805 -80.392)" fill="url(#j)"/><path d="M256.136,207.885a5.572,5.572,0,0,1,.169,1.342V251.56a5.586,5.586,0,0,1-5.586,5.586H208.386a5.6,5.6,0,0,1-1.374-.177C221.461,251.907,246.328,238.913,256.136,207.885Z" transform="translate(-93.013 -72.599)" fill="url(#k)"/><rect width="4.419" height="19.704" rx="1.907" transform="translate(74.622 162.76) rotate(45)" fill="#00beda" opacity="0.39" style="mix-blend-mode:multiply;isolation:isolate"/><rect width="4.419" height="19.704" rx="1.907" transform="translate(55.735 154.954)" fill="#00beda" opacity="0.39" style="mix-blend-mode:multiply;isolation:isolate"/><rect width="4.419" height="19.704" rx="1.907" transform="translate(84.246 180.574) rotate(90)" fill="#00beda" opacity="0.39" style="mix-blend-mode:multiply;isolation:isolate"/><g transform="translate(73.502 21.516)"><circle cx="7.583" cy="7.583" r="7.583" transform="translate(29.836)" fill="none" stroke="#9ffbf3" stroke-miterlimit="10" stroke-width="0.75"/><circle cx="3.215" cy="3.215" r="3.215" transform="translate(34.204 4.368)" fill="none" stroke="#9ffbf3" stroke-miterlimit="10" stroke-width="0.75"/><path d="M176.5,119.553s29.954-8.606,65.65,0" transform="translate(-171.362 -108.756)" fill="none" stroke="#9ffbf3" stroke-linecap="round" stroke-linejoin="round" stroke-width="1"/><rect width="5.138" height="5.138" transform="translate(70.906 8.408)" fill="none" stroke="#9ffbf3" stroke-linecap="round" stroke-linejoin="round" stroke-width="1"/><rect width="5.138" height="5.138" transform="translate(0 8.408)" fill="none" stroke="#9ffbf3" stroke-linecap="round" stroke-linejoin="round" stroke-width="1"/></g><g transform="translate(0 94.176)"><circle cx="7.583" cy="7.583" r="7.583" transform="translate(0 31.042)" fill="none" stroke="#9ffbf3" stroke-miterlimit="10" stroke-width="0.75"/><circle cx="3.215" cy="3.215" r="3.215" transform="translate(4.368 35.409)" fill="none" stroke="#9ffbf3" stroke-miterlimit="10" stroke-width="0.75"/><path d="M118.483,242.6s-8.607-29.954,0-65.651" transform="translate(-107.685 -171.69)" fill="none" stroke="#9ffbf3" stroke-linecap="round" stroke-linejoin="round" stroke-width="1"/><rect width="5.138" height="5.138" transform="translate(8.408 5.138) rotate(-90)" fill="none" stroke="#9ffbf3" stroke-linecap="round" stroke-linejoin="round" stroke-width="1"/><rect width="5.138" height="5.138" transform="translate(8.408 76.044) rotate(-90)" fill="none" stroke="#9ffbf3" stroke-linecap="round" stroke-linejoin="round" stroke-width="1"/></g><g transform="translate(205.609 94.176)"><circle cx="7.583" cy="7.583" r="7.583" transform="translate(0 31.042)" fill="none" stroke="#9ffbf3" stroke-miterlimit="10" stroke-width="0.75"/><circle cx="3.215" cy="3.215" r="3.215" transform="translate(4.368 35.409)" fill="none" stroke="#9ffbf3" stroke-miterlimit="10" stroke-width="0.75"/><path d="M289.832,242.6s8.607-29.954,0-65.651" transform="translate(-285.464 -171.69)" fill="none" stroke="#9ffbf3" stroke-linecap="round" stroke-linejoin="round" stroke-width="1"/><rect width="5.138" height="5.138" transform="translate(1.62 5.138) rotate(-90)" fill="none" stroke="#9ffbf3" stroke-linecap="round" stroke-linejoin="round" stroke-width="1"/><rect width="5.138" height="5.138" transform="translate(1.62 76.044) rotate(-90)" fill="none" stroke="#9ffbf3" stroke-linecap="round" stroke-linejoin="round" stroke-width="1"/></g><g transform="translate(49.211 223.461)"><circle cx="12.137" cy="12.137" r="12.137" transform="translate(49.685)" fill="none" stroke="#9ffbf3" stroke-miterlimit="10" stroke-width="0.75"/><circle cx="5.146" cy="5.146" r="5.146" transform="translate(56.676 6.991)" fill="none" stroke="#9ffbf3" stroke-miterlimit="10" stroke-width="0.75"/><path d="M263.443,290.005s-47.945,13.775-105.079,0" transform="translate(-149.952 -283.014)" fill="none" stroke="#9ffbf3" stroke-linecap="round" stroke-linejoin="round" stroke-width="1"/><rect width="8.224" height="8.224" transform="translate(8.224 10.817) rotate(180)" fill="none" stroke="#9ffbf3" stroke-linecap="round" stroke-linejoin="round" stroke-width="1"/><rect width="8.224" height="8.224" transform="translate(121.715 10.817) rotate(180)" fill="none" stroke="#9ffbf3" stroke-linecap="round" stroke-linejoin="round" stroke-width="1"/></g><g transform="translate(258.384 329.563)"><g clip-path="url(#l)"><g transform="translate(0.491 -21.32)"><path d="M392.4,383.3l-4.338-12.481-8.686,3.019a21.447,21.447,0,0,0-2.308-2.443l4.117-8.5-11.892-5.758-4.311,8.9a21.366,21.366,0,0,0-2.742-.131l-2.868-8.251-12.48,4.338,2.867,8.251A21.456,21.456,0,0,0,347.73,372l-8.034-3.891L333.937,380l7.6,3.681a21.4,21.4,0,0,0-.307,3.408l-9.2,3.2,4.338,12.481,8.749-3.041a21.339,21.339,0,0,0,2.245,2.7l-3.919,8.095,11.892,5.758,3.725-7.695a21.335,21.335,0,0,0,4.132.308l2.27,6.533,12.481-4.336-2.271-6.534a21.437,21.437,0,0,0,3.09-2.851l6.1,2.95,5.757-11.892-6.528-3.16a21.332,21.332,0,0,0,.082-3.445Zm-25.96,14.815a11.341,11.341,0,1,1,6.989-14.436A11.341,11.341,0,0,1,366.436,398.113Z" transform="translate(-332.027 -357.132)" fill="url(#m)"/><path d="M388.058,369.415l-8.686,3.019a21.447,21.447,0,0,0-2.308-2.443l1.954-4.034c-.148,0-.233,0-.233,0l-15.37,1.014-14.854,2.862c-.282.25-.561.505-.831.768l-.9-.436-6.724,1.3-3.314,1.241-2.857,5.9,7.6,3.681a21.4,21.4,0,0,0-.307,3.408l-9.2,3.2,2.016,5.8h0s6.04-5.484,17.395-9.83a11.33,11.33,0,0,1,20.913-4.83,90.077,90.077,0,0,1,19.512.33h0Z" transform="translate(-332.027 -355.73)" opacity="0.63" fill="url(#n)" style="mix-blend-mode:multiply;isolation:isolate"/><path d="M370.962,380.837c-.05-.145-.115-.28-.17-.422a11.327,11.327,0,0,1-21.382,7.432c.045.145.078.292.129.437a11.341,11.341,0,1,0,21.424-7.447Z" transform="translate(-329.266 -353.433)" fill="url(#o)"/><path d="M358.394,366.766a21.37,21.37,0,0,1,2.742.13l4.311-8.9,11.313,5.477.28-.578-11.892-5.758-4.311,8.9a21.366,21.366,0,0,0-2.742-.131Z" transform="translate(-327.886 -357.132)" fill="url(#p)"/><rect width="13.213" height="0.91" transform="translate(14.861 4.86) rotate(-19.165)" fill="url(#q)"/><path d="M345.627,396.515l-3.752,7.751.578.28,3.64-7.516C345.931,396.865,345.784,396.685,345.627,396.515Z" transform="translate(-330.462 -350.875)" fill="url(#r)"/><path d="M339.731,367.466l8.036,3.89a21.308,21.308,0,0,1,2.026-1.758l-.3-.86a21.609,21.609,0,0,0-2.026,1.758l-8.034-3.89L333.675,378.5l.579.28Z" transform="translate(-331.765 -355.627)" fill="url(#s)"/><path d="M341.838,380.812l-.387-.188a22.146,22.146,0,0,0-.219,2.736l-9.2,3.2.3.86,9.2-3.2A21.5,21.5,0,0,1,341.838,380.812Z" transform="translate(-332.027 -353.4)" fill="url(#t)"/><path d="M373.157,371.96a22.612,22.612,0,0,0-1.823-1.969l-.187.385a21.357,21.357,0,0,1,2.307,2.444l8.687-3.019-.3-.86Z" transform="translate(-325.812 -355.256)" fill="url(#u)"/><path d="M377.2,385.988l5.948,2.881.28-.579-6.185-2.994C377.233,385.527,377.228,385.759,377.2,385.988Z" transform="translate(-324.85 -352.658)" fill="url(#v)"/><g transform="translate(57.946 54.847)"><path d="M427.22,423.666a18.923,18.923,0,0,0-1.079-2.882l4.58-4.58-8.343-8.344-4.276,4.276a19.108,19.108,0,0,0-3.442-1.5V404.46h-11.8v6.177a19.085,19.085,0,0,0-3.4,1.472l-5.4-5.4-8.343,8.343,5.678,5.68a19.151,19.151,0,0,0-1.1,2.933h-8.271v11.8h8.7a19.067,19.067,0,0,0,1.259,2.784l-5.334,5.333L395,451.926l5.638-5.637a18.912,18.912,0,0,0,2.224.889v7.8h11.8v-7.8a19.128,19.128,0,0,0,2.275-.913l6.246,6.246,8.344-8.344L425.56,438.2a19.2,19.2,0,0,0,1.231-2.737H435v-11.8Zm-8.332,5.242a10.128,10.128,0,1,1-10.127-10.127A10.127,10.127,0,0,1,418.888,428.907Z" transform="translate(-382.029 -404.46)" fill="url(#w)"/><g transform="translate(0 10.188)"><path d="M416.612,426.243c0,.137-.015.27-.02.407a10.115,10.115,0,0,0-20.215,0c-.006-.137-.021-.27-.021-.407a10.128,10.128,0,0,1,20.256,0Z" transform="translate(-379.753 -412.796)" fill="url(#x)"/><path d="M410.187,440.978a18.941,18.941,0,0,0,2.275-.914l6.246,6.247,7.937-7.937.407.406-8.344,8.344-6.246-6.246a19.129,19.129,0,0,1-2.275.913Z" transform="translate(-377.556 -409.26)" fill="url(#y)"/><rect width="11.799" height="0.812" transform="translate(20.832 39.52)" fill="url(#z)"/><path d="M390.655,419.094l-5.437-5.437.406-.406,5.273,5.273C390.81,418.71,390.738,418.905,390.655,419.094Z" transform="translate(-381.522 -413.251)" fill="url(#aa)"/><path d="M394.365,445.806,400,440.169a18.928,18.928,0,0,0,2.224.889v.812a18.907,18.907,0,0,1-2.224-.889l-5.638,5.637-8.344-8.343.407-.407Z" transform="translate(-381.395 -409.34)" fill="url(#ab)"/><path d="M391.989,433.3l-.271.271a19.776,19.776,0,0,1-.987-2.242h-8.7v-.812h8.7A19.065,19.065,0,0,0,391.989,433.3Z" transform="translate(-382.029 -410.508)" fill="url(#ac)"/><path d="M420.823,431.326a19.81,19.81,0,0,1-.961,2.195l-.27-.27a19.192,19.192,0,0,0,1.231-2.737h8.212v.812Z" transform="translate(-376.061 -410.508)" fill="url(#ad)"/><path d="M420.094,418.417l4.174-4.174.406.407-4.339,4.339C420.254,418.8,420.182,418.6,420.094,418.417Z" transform="translate(-375.982 -413.093)" fill="url(#ae)"/></g></g><g transform="translate(65.381 8.601)"><path d="M414.3,379.237v-3.516h-3.458a9.49,9.49,0,0,0-1.537-3.686l2.452-2.452-2.487-2.486-2.461,2.463a9.5,9.5,0,0,0-3.677-1.489v-3.516h-3.515v3.537a9.518,9.518,0,0,0-3.618,1.526l-2.521-2.521-2.487,2.486,2.531,2.531a9.509,9.509,0,0,0-1.478,3.608h-3.6v3.516h3.6a9.509,9.509,0,0,0,1.478,3.608l-2.531,2.531,2.487,2.486,2.521-2.521a9.5,9.5,0,0,0,3.618,1.526V390.4h3.515v-3.516A9.515,9.515,0,0,0,406.8,385.4l2.461,2.461,2.487-2.486-2.452-2.451a9.5,9.5,0,0,0,1.537-3.687Zm-12.857,4.3a5.989,5.989,0,1,1,5.989-5.989A5.989,5.989,0,0,1,401.439,383.537Z" transform="translate(-388.445 -364.554)" fill="url(#af)"/><g transform="translate(0 7.529)" opacity="0.63" style="mix-blend-mode:multiply;isolation:isolate"><path d="M399.01,371.051h-4.5l-1.056.132a9.512,9.512,0,0,0-1.416,3.506h-3.6v2.935a25.454,25.454,0,0,1,7.012-1.176A5.98,5.98,0,0,1,399.01,371.051Z" transform="translate(-388.445 -371.051)" fill="url(#ag)"/><path d="M407.89,372.263l-5.969-1.121a5.883,5.883,0,0,1,2.985,7.4,26.027,26.027,0,0,1,3.2,1.61,9.471,9.471,0,0,0,.59-1.963h3.017c.152-.1.307-.2.442-.3v-3.218H408.7A9.452,9.452,0,0,0,407.89,372.263Z" transform="translate(-386.304 -371.037)" fill="url(#ah)"/></g><g transform="translate(0 0)"><rect width="3.516" height="0.303" transform="translate(11.168)" fill="url(#af)"/><path d="M406.468,376.049c0-.051-.007-.1-.008-.151a5.983,5.983,0,0,1-11.962,0c0,.05-.008.1-.008.151a5.989,5.989,0,0,0,11.978,0Z" transform="translate(-387.485 -362.752)" fill="url(#af)"/><path d="M393.056,380.436l-2.417,2.416.152.152,2.379-2.379C393.129,380.563,393.1,380.5,393.056,380.436Z" transform="translate(-388.096 -362.031)" fill="url(#ak)"/><path d="M401.115,368.024a9.516,9.516,0,0,1,3.677,1.489l2.461-2.461,2.335,2.334.152-.152-2.487-2.486-2.461,2.463a9.5,9.5,0,0,0-3.677-1.489Z" transform="translate(-386.432 -364.206)" fill="url(#al)"/><path d="M393.519,371.355l-.114-.115a9.5,9.5,0,0,0-1.364,3.419h-3.6v.3h3.6A9.509,9.509,0,0,1,393.519,371.355Z" transform="translate(-388.445 -363.492)" fill="url(#am)"/><path d="M407.979,374.67a9.508,9.508,0,0,0-1.421-3.5l-.116.116a9.482,9.482,0,0,1,1.537,3.686h3.458v-.3Z" transform="translate(-385.586 -363.503)" fill="url(#an)"/><path d="M393.126,367.052l2.521,2.521a9.5,9.5,0,0,1,3.618-1.526v-.3a9.518,9.518,0,0,0-3.618,1.526l-2.521-2.521-2.487,2.486.152.152Z" transform="translate(-388.096 -364.206)" fill="url(#ao)"/><path d="M406.442,380.693l2.3,2.3.152-.152-2.336-2.336C406.517,380.566,406.484,380.632,406.442,380.693Z" transform="translate(-385.586 -362.02)" fill="url(#ap)"/></g></g><g transform="translate(59.18 32.868)"><path d="M400.582,395.428v-2.379h-2.34a6.429,6.429,0,0,0-1.039-2.494l1.658-1.658-1.682-1.682-1.665,1.665a6.447,6.447,0,0,0-2.487-1.007v-2.379h-2.379v2.393a6.457,6.457,0,0,0-2.448,1.033l-1.7-1.7-1.682,1.682,1.712,1.712a6.447,6.447,0,0,0-1,2.441h-2.432v2.379h2.432a6.439,6.439,0,0,0,1,2.441l-1.712,1.712,1.682,1.682,1.7-1.7a6.438,6.438,0,0,0,2.448,1.033v2.393h2.379V400.6a6.429,6.429,0,0,0,2.487-1.007l1.665,1.665,1.682-1.682-1.658-1.658a6.421,6.421,0,0,0,1.039-2.494Zm-8.7,2.909a4.051,4.051,0,1,1,4.051-4.051A4.051,4.051,0,0,1,391.885,398.337Z" transform="translate(-383.094 -385.494)" fill="url(#af)"/><g transform="translate(0 0.001)"><rect width="2.378" height="0.205" transform="translate(7.555)" fill="url(#ar)"/><path d="M395.287,393.271c0-.035,0-.068-.006-.1a4.047,4.047,0,0,1-8.092,0c0,.035,0,.068,0,.1a4.051,4.051,0,0,0,8.1,0Z" transform="translate(-382.444 -384.275)" fill="url(#as)"/><path d="M386.213,396.239l-1.634,1.634.1.1,1.61-1.61C386.263,396.325,386.241,396.281,386.213,396.239Z" transform="translate(-382.858 -383.788)" fill="url(#at)"/><path d="M391.666,387.842a6.429,6.429,0,0,1,2.487,1.007l1.665-1.665,1.58,1.578.1-.1-1.682-1.682-1.665,1.665a6.447,6.447,0,0,0-2.487-1.007Z" transform="translate(-381.732 -385.259)" fill="url(#au)"/><path d="M386.527,390.095l-.078-.078a6.457,6.457,0,0,0-.922,2.313h-2.432v.205h2.432A6.439,6.439,0,0,1,386.527,390.095Z" transform="translate(-383.094 -384.776)" fill="url(#av)"/><path d="M396.308,392.337a6.414,6.414,0,0,0-.961-2.366l-.079.078a6.429,6.429,0,0,1,1.039,2.494h2.34v-.205Z" transform="translate(-381.16 -384.783)" fill="url(#aw)"/><path d="M386.26,387.184l1.7,1.7a6.438,6.438,0,0,1,2.448-1.033v-.205a6.457,6.457,0,0,0-2.448,1.033l-1.7-1.7-1.682,1.682.1.1Z" transform="translate(-382.858 -385.259)" fill="url(#ax)"/><path d="M395.269,396.412l1.556,1.556.1-.1-1.58-1.58C395.32,396.327,395.3,396.372,395.269,396.412Z" transform="translate(-381.16 -383.78)" fill="url(#ay)"/></g></g><g transform="translate(27.64 61.039)"><path d="M373.222,419.655V417.3H370.9a6.364,6.364,0,0,0-1.031-2.474l1.646-1.644-1.669-1.668-1.651,1.651a6.381,6.381,0,0,0-2.467-1V409.8H363.37v2.373a6.4,6.4,0,0,0-2.428,1.024l-1.691-1.691-1.668,1.668,1.7,1.7a6.374,6.374,0,0,0-.992,2.421h-2.412v2.358h2.412a6.381,6.381,0,0,0,.992,2.421l-1.7,1.7,1.668,1.668,1.691-1.691a6.4,6.4,0,0,0,2.428,1.024v2.372h2.358v-2.358a6.382,6.382,0,0,0,2.467-1l1.651,1.651,1.669-1.668-1.646-1.644a6.372,6.372,0,0,0,1.031-2.474ZM364.6,422.54a4.018,4.018,0,1,1,4.018-4.019A4.019,4.019,0,0,1,364.6,422.54Z" transform="translate(-355.878 -409.803)" fill="url(#af)"/><g transform="translate(0 0.001)"><rect width="2.359" height="0.203" transform="translate(7.492)" fill="url(#ba)"/><path d="M367.97,417.516c0-.035,0-.068,0-.1a4.014,4.014,0,0,1-8.026,0c0,.034-.006.067-.006.1a4.018,4.018,0,0,0,8.037,0Z" transform="translate(-355.234 -408.594)" fill="url(#af)"/><path d="M358.971,420.459l-1.621,1.621.1.1,1.6-1.6C359.02,420.545,359,420.5,358.971,420.459Z" transform="translate(-355.644 -408.111)" fill="url(#bc)"/><path d="M364.378,412.131a6.381,6.381,0,0,1,2.467,1l1.651-1.651,1.567,1.566.1-.1-1.669-1.668-1.651,1.651a6.381,6.381,0,0,0-2.467-1Z" transform="translate(-354.528 -409.57)" fill="url(#bd)"/><path d="M359.282,414.366l-.076-.077a6.4,6.4,0,0,0-.915,2.295h-2.412v.2h2.412A6.381,6.381,0,0,1,359.282,414.366Z" transform="translate(-355.878 -409.091)" fill="url(#be)"/><path d="M368.983,416.591a6.356,6.356,0,0,0-.954-2.348l-.078.078a6.36,6.36,0,0,1,1.031,2.473h2.32v-.2Z" transform="translate(-353.96 -409.098)" fill="url(#an)"/><path d="M359.018,411.479l1.691,1.691a6.378,6.378,0,0,1,2.428-1.023v-.2a6.4,6.4,0,0,0-2.428,1.024l-1.691-1.691-1.668,1.668.1.1Z" transform="translate(-355.644 -409.57)" fill="url(#af)"/><path d="M367.952,420.631l1.544,1.544.1-.1-1.568-1.567C368,420.547,367.98,420.591,367.952,420.631Z" transform="translate(-353.96 -408.103)" fill="url(#bh)"/></g></g></g></g></g></g><g transform="translate(117.825 285.839)"><path d="M162.262,246.745,108.329,269.6a6.442,6.442,0,0,0,.306,11.984l18.639,6.8,6.8,18.64a6.442,6.442,0,0,0,11.984.306l22.851-53.935A5.069,5.069,0,0,0,162.262,246.745Z" transform="translate(-101.016 -246.329)" fill="#00bcff" fill-rule="evenodd"/><path d="M163.315,247.459l-59.121,24.12a4.363,4.363,0,0,0,.154,8.139l23.389,8.53,8.532,23.391a4.363,4.363,0,0,0,8.139.153l24.118-59.121A4,4,0,0,0,163.315,247.459Z" transform="translate(-101.48 -246.198)" fill="#004dd6" fill-rule="evenodd"/><path d="M124.138,287.971l8.532,23.391a4.363,4.363,0,0,0,8.139.153l24.118-59.121a3.911,3.911,0,0,0-.233-3.5Z" transform="translate(-97.88 -245.921)" fill="#0040d0" fill-rule="evenodd"/></g><rect width="4.87" height="21.716" rx="2.101" transform="translate(201.219 268.025) rotate(45)" fill="#e6f8ff"/><rect width="4.87" height="21.716" rx="2.101" transform="translate(180.403 259.422)" fill="#e6f8ff"/><rect width="4.87" height="15.252" rx="2.101" transform="translate(163.066 272.266) rotate(-45)" fill="#e6f8ff"/><rect width="4.87" height="15.252" rx="2.101" transform="translate(155.961 289.011) rotate(-90)" fill="#e6f8ff"/><rect width="4.87" height="15.252" rx="2.101" transform="translate(188.568 315.281) rotate(180)" fill="#e6f8ff"/><rect width="4.87" height="15.252" rx="2.101" transform="translate(192.441 301.641) rotate(-45)" fill="#e6f8ff"/><rect width="4.87" height="21.716" rx="2.101" transform="translate(211.826 287.658) rotate(90)" fill="#e6f8ff"/><g transform="translate(294.177 75.899)"><rect width="58.427" height="12.717" rx="5.487" transform="translate(54.478 41.314) rotate(-45)" fill="#e6f8ff"/><rect width="12.116" height="24.061" rx="5.227" transform="translate(50.843 37.679) rotate(-45)" fill="#0025ba"/><g transform="translate(0 32.435)"><path d="M314.8,154.3a35.829,35.829,0,1,1,0-50.669A35.869,35.869,0,0,1,314.8,154.3Zm-46.861-46.86a30.442,30.442,0,1,0,43.052,0A30.477,30.477,0,0,0,267.941,107.443Z" transform="translate(-253.656 -93.157)" fill="#004dd6"/></g><g transform="translate(0 32.435)"><path d="M264.6,104.1a35.867,35.867,0,0,1,50.432-.227c-.078-.078-.148-.16-.226-.238A35.829,35.829,0,0,0,264.133,154.3c.078.078.159.149.238.226A35.864,35.864,0,0,1,264.6,104.1Z" transform="translate(-253.656 -93.157)" fill="#008fff"/><path d="M309.467,148.968a30.477,30.477,0,0,0,0-43.052c-.078-.079-.16-.15-.239-.226a30.436,30.436,0,0,1-43.04,43.04c.077.079.148.16.226.238A30.479,30.479,0,0,0,309.467,148.968Z" transform="translate(-251.665 -91.166)" fill="#008fff"/></g><g transform="translate(8.473 40.91)"><path d="M301.154,146.152c.032-.032.067-.063.1-.1a27.34,27.34,0,0,0,0-38.666c-.034-.032-.068-.063-.1-.1Z" transform="translate(-254.583 -99.387)" fill="#7afff3" fill-rule="evenodd" opacity="0.46"/><path d="M291.936,154.171V101.444a27.442,27.442,0,0,0-8.278-.954v54.632A27.445,27.445,0,0,0,291.936,154.171Z" transform="translate(-257.363 -100.471)" fill="#7afff3" fill-rule="evenodd" opacity="0.46"/><path d="M294.071,102.47v50.039a27.138,27.138,0,0,0,4.122-2.254v-45.53A27.043,27.043,0,0,0,294.071,102.47Z" transform="translate(-255.708 -100.154)" fill="#7afff3" fill-rule="evenodd" opacity="0.46"/><path d="M264.131,113.03a27.4,27.4,0,0,0,.041,25.636C264.149,130.2,264.131,120.88,264.131,113.03Z" transform="translate(-260.968 -98.476)" fill="#7afff3" fill-rule="evenodd" opacity="0.46"/></g></g></g></svg>