<svg xmlns="http://www.w3.org/2000/svg" width="52.074" height="46.08" viewBox="0 0 52.074 46.08">
  <g id="Creation_Icon_-_Black" data-name="Creation Icon - Black" transform="translate(-31.61 -413.2)">
    <path id="Path_4198" data-name="Path 4198" d="M69.26,420.188a.55.55,0,0,0,.132-.022l.1-.033A1.743,1.743,0,0,1,69.26,420.188Zm-24.237-.055.1.033a.831.831,0,0,0,.176.033A2.006,2.006,0,0,1,45.024,420.133Zm33.6,17.695a2.161,2.161,0,0,1-.472-.362.818.818,0,0,1-.132-.154.3.3,0,0,1-.077-.088.625.625,0,0,1-.088-.143.193.193,0,0,1-.044-.055,1.2,1.2,0,0,1-.154-.34,1.5,1.5,0,0,1-.077-.263V436.4a2,2,0,0,1,0-.834v-.022a1.455,1.455,0,0,1,.2-.527.164.164,0,0,1,.033-.077.23.23,0,0,1,.044-.066,1.685,1.685,0,0,1,.274-.351.755.755,0,0,1,.143-.121.644.644,0,0,1,.2-.154.291.291,0,0,1,.066-.055c.022-.011.033-.011.044-.022a.789.789,0,0,0,.285-1.076l-.351-.6a3.506,3.506,0,0,0-1.361.779l-.121.121a3.2,3.2,0,0,0-.307.351,3.3,3.3,0,0,0-.274.406,2.965,2.965,0,0,0-.362.878,2.044,2.044,0,0,0-.077.373,3.111,3.111,0,0,0,0,1.164,2.043,2.043,0,0,0,.077.373,3.09,3.09,0,0,0,.362.878,4.443,4.443,0,0,0,.318.472c.011.011.011.022.022.033.11.121.22.241.34.351,0,.011.011.011.022.022a3.671,3.671,0,0,0,1.361.79l.329-.56c.011-.022.011-.033.022-.044a.784.784,0,0,0-.241-1.054Zm-9.231,13.984a2.163,2.163,0,0,0-.384-.077,2.455,2.455,0,0,0-.571-.055,3.668,3.668,0,0,0-2.591,1.076,3.933,3.933,0,0,0-.285.318,1.576,1.576,0,0,1-.121.165,2.172,2.172,0,0,0-.209.34,2.624,2.624,0,0,0-.22.472,2.791,2.791,0,0,0-.154.516,3.6,3.6,0,0,0,0,1.581h.7a.794.794,0,0,0,.79-.79,2.1,2.1,0,0,1,2.086-2.1,1.815,1.815,0,0,1,.351.033.388.388,0,0,1,.154.033,1.56,1.56,0,0,1,.362.121c.044.022.1.044.143.066.011.011.033.022.044.033a.793.793,0,0,0,1.076-.3l.351-.6a3.671,3.671,0,0,0-1.361-.79A.914.914,0,0,0,69.392,451.812ZM38.514,435.4a2.045,2.045,0,0,0-.077-.373,4.1,4.1,0,0,0-.318-.79.7.7,0,0,0-.088-.154,2.553,2.553,0,0,0-.187-.285,3.805,3.805,0,0,0-.274-.318c-.022-.033-.055-.055-.077-.088l-.121-.121a3.506,3.506,0,0,0-1.361-.779l-.329.56a.152.152,0,0,0-.033.044.789.789,0,0,0,.285,1.076.965.965,0,0,1,.11.066c.011.011.033.022.044.033a1.46,1.46,0,0,1,.285.23,1.92,1.92,0,0,1,.132.154.829.829,0,0,1,.121.154,1.538,1.538,0,0,1,.11.176,1.9,1.9,0,0,1,.209.56.861.861,0,0,1,.022.154,2.5,2.5,0,0,1,.022.285,1.923,1.923,0,0,1-.044.439,1.9,1.9,0,0,1-.209.56,1.544,1.544,0,0,1-.11.176.828.828,0,0,1-.121.154,1.9,1.9,0,0,1-.132.154,1.988,1.988,0,0,1-.483.362.785.785,0,0,0-.241,1.043l.362.615a3.671,3.671,0,0,0,1.361-.79c.011-.011.022-.011.022-.022a.714.714,0,0,0,.1-.088,2.194,2.194,0,0,0,.209-.242,1.157,1.157,0,0,0,.11-.132,3.432,3.432,0,0,0,.22-.329.7.7,0,0,0,.088-.154,4.1,4.1,0,0,0,.318-.79,2.044,2.044,0,0,0,.077-.373,3.111,3.111,0,0,0,0-1.164ZM49.6,454.336a.619.619,0,0,0-.044-.132,1.287,1.287,0,0,0-.1-.263,2.729,2.729,0,0,0-.34-.637,1.725,1.725,0,0,0-.209-.285c-.066-.088-.154-.176-.231-.263a3.714,3.714,0,0,0-2.6-1.076,2.55,2.55,0,0,0-.582.055,2.043,2.043,0,0,0-.373.077.629.629,0,0,0-.154.044,3.528,3.528,0,0,0-1.361.79l.307.538.033.066a.8.8,0,0,0,1.076.307.011.011,0,0,1,.011-.011v-.011a.1.1,0,0,1,.077-.033.164.164,0,0,1,.077-.033,1.622,1.622,0,0,1,.384-.143.441.441,0,0,1,.165-.033,1.7,1.7,0,0,1,.34-.033,2.08,2.08,0,0,1,2.086,2.1.8.8,0,0,0,.79.79h.7a3.71,3.71,0,0,0,.088-.79A3.529,3.529,0,0,0,49.6,454.336Zm.055-38.506h-.7a.792.792,0,0,0-.79.779,2.08,2.08,0,0,1-2.086,2.1,1.892,1.892,0,0,1-.428-.044,2.73,2.73,0,0,1-.582-.209c-.011-.011-.022-.022-.033-.022a.79.79,0,0,0-1.087.285h.011l-.351.615a3.506,3.506,0,0,0,1.361.779c.011.011.033.011.055.022l.1.033a.831.831,0,0,0,.176.033,3.645,3.645,0,0,0,3.381-.988,1.8,1.8,0,0,0,.231-.263,2.225,2.225,0,0,0,.2-.253,3.313,3.313,0,0,0,.373-.7,1.555,1.555,0,0,0,.077-.242.146.146,0,0,0,.033-.088,3.608,3.608,0,0,0,.066-1.833ZM70.6,418.783l-.033-.066a.78.78,0,0,0-1.076-.285,2.192,2.192,0,0,1-.231.11,1.811,1.811,0,0,1-.4.121,1.892,1.892,0,0,1-.428.044,2.1,2.1,0,0,1-2.086-2.1.785.785,0,0,0-.79-.779h-.7a3.687,3.687,0,0,0-.088.779,3.9,3.9,0,0,0,.088.8c0,.022.011.033.011.055.044.154.088.307.143.45a2.627,2.627,0,0,0,.22.472,3.6,3.6,0,0,0,.615.823,3.623,3.623,0,0,0,2.591,1.076,3.382,3.382,0,0,0,.823-.1.55.55,0,0,0,.132-.022l.1-.033a.157.157,0,0,0,.066-.022,3.4,3.4,0,0,0,1.361-.79Z" transform="translate(0.384 0.257)" fill="#243036"/>
    <path id="Path_4199" data-name="Path 4199" d="M77.111,438.695a3.671,3.671,0,0,0,1.361.79l-3.8,6.575-.033.066-3.765,6.52a3.671,3.671,0,0,0-1.361-.79.914.914,0,0,0-.165-.044,1.491,1.491,0,0,0-.384-.077,2.455,2.455,0,0,0-.571-.055,3.668,3.668,0,0,0-2.591,1.076,3.933,3.933,0,0,0-.285.318,1.576,1.576,0,0,1-.121.165,2.172,2.172,0,0,0-.209.34,2.624,2.624,0,0,0-.22.472,2.791,2.791,0,0,0-.154.516,3.6,3.6,0,0,0,0,1.581h-15.2a3.71,3.71,0,0,0,.088-.79,3.529,3.529,0,0,0-.143-1.021.619.619,0,0,0-.044-.132,1.287,1.287,0,0,0-.1-.263,2.729,2.729,0,0,0-.34-.637,1.725,1.725,0,0,0-.209-.285c-.066-.088-.154-.176-.231-.263a3.714,3.714,0,0,0-2.6-1.076,2.55,2.55,0,0,0-.582.055,2.043,2.043,0,0,0-.373.077.629.629,0,0,0-.154.044,3.528,3.528,0,0,0-1.361.79l-3.8-6.586h-.011c-.011-.011-.011-.033-.022-.044l-3.765-6.531a3.671,3.671,0,0,0,1.361-.79c.011-.011.022-.011.022-.022a.714.714,0,0,0,.1-.088,2.194,2.194,0,0,0,.209-.242,1.157,1.157,0,0,0,.11-.132,3.432,3.432,0,0,0,.22-.329.7.7,0,0,0,.088-.154,3.135,3.135,0,0,0,.318-.79,2.044,2.044,0,0,0,.077-.373,3.111,3.111,0,0,0,0-1.164,2.045,2.045,0,0,0-.077-.373,3.137,3.137,0,0,0-.318-.79.7.7,0,0,0-.088-.154,2.553,2.553,0,0,0-.187-.285,1.839,1.839,0,0,0-.274-.318c-.022-.033-.055-.055-.077-.088l-.121-.121a3.506,3.506,0,0,0-1.361-.779l3.787-6.586c.011-.022.033-.044.044-.066l3.765-6.509a3.506,3.506,0,0,0,1.361.779c.011.011.033.011.055.022l.1.033a.831.831,0,0,0,.176.033,3.645,3.645,0,0,0,3.381-.988,1.8,1.8,0,0,0,.231-.263,2.225,2.225,0,0,0,.2-.253,3.313,3.313,0,0,0,.373-.7,1.555,1.555,0,0,0,.077-.242.146.146,0,0,0,.033-.088,3.608,3.608,0,0,0,.066-1.833h15.2a3.687,3.687,0,0,0-.088.779,3.9,3.9,0,0,0,.088.8c0,.022.011.033.011.055a2.148,2.148,0,0,0,.143.45,2.627,2.627,0,0,0,.22.472,3.6,3.6,0,0,0,.615.823,3.623,3.623,0,0,0,2.591,1.076,3.382,3.382,0,0,0,.823-.1.55.55,0,0,0,.132-.022l.1-.033a.157.157,0,0,0,.066-.022,3.4,3.4,0,0,0,1.361-.79l3.8,6.586c.011.011.022.033.033.044l3.765,6.542a3.506,3.506,0,0,0-1.361.779l-.121.121a3.2,3.2,0,0,0-.307.351,3.3,3.3,0,0,0-.274.406,2.965,2.965,0,0,0-.362.878,1.41,1.41,0,0,0-.077.373,3.111,3.111,0,0,0,0,1.164,1.41,1.41,0,0,0,.077.373,3.09,3.09,0,0,0,.362.878,2.736,2.736,0,0,0,.318.472c.011.011.011.022.022.033.077.088.154.176.241.263a.714.714,0,0,0,.1.088C77.089,438.684,77.1,438.684,77.111,438.695Z" transform="translate(0.426 0.257)" fill="#243036"/>
    <path id="Path_4200" data-name="Path 4200" d="M38.9,433.935a2.045,2.045,0,0,0-.077-.373,3.137,3.137,0,0,0-.318-.79.7.7,0,0,0-.088-.154,2.553,2.553,0,0,0-.187-.285,3.805,3.805,0,0,0-.274-.318c-.022-.033-.055-.055-.077-.088l-.121-.121a3.506,3.506,0,0,0-1.361-.779,3.419,3.419,0,0,0-1.12-.176,3.673,3.673,0,0,0-3.666,3.666,3.673,3.673,0,0,0,3.666,3.677,3.734,3.734,0,0,0,1.12-.176,3.671,3.671,0,0,0,1.361-.79c.011-.011.022-.011.022-.022a.714.714,0,0,0,.1-.088,2.194,2.194,0,0,0,.209-.242,1.157,1.157,0,0,0,.11-.132,3.432,3.432,0,0,0,.22-.329.7.7,0,0,0,.088-.154,3.135,3.135,0,0,0,.318-.79,2.044,2.044,0,0,0,.077-.373,3.111,3.111,0,0,0,0-1.164Zm-1.57,1.021a1.9,1.9,0,0,1-.209.56,1.544,1.544,0,0,1-.11.176.828.828,0,0,1-.121.154,1.9,1.9,0,0,1-.132.154,1.988,1.988,0,0,1-.483.362,2.173,2.173,0,0,1-1,.252A2.139,2.139,0,0,1,33.794,436a2.086,2.086,0,0,1,1.482-3.567,2.081,2.081,0,0,1,1.043.274.965.965,0,0,1,.11.066c.011.011.033.022.044.033a1.878,1.878,0,0,1,.285.23,1.92,1.92,0,0,1,.132.154.829.829,0,0,1,.121.154,1.538,1.538,0,0,1,.11.176,1.9,1.9,0,0,1,.209.56.861.861,0,0,1,.022.154,2.5,2.5,0,0,1,.022.285A1.923,1.923,0,0,1,37.329,434.955Z" transform="translate(0 1.724)" fill="#243036"/>
    <path id="Path_4201" data-name="Path 4201" d="M48.991,451.146a.618.618,0,0,0-.044-.132,1.287,1.287,0,0,0-.1-.263,2.729,2.729,0,0,0-.34-.637,1.726,1.726,0,0,0-.209-.285c-.066-.088-.154-.176-.231-.263a3.714,3.714,0,0,0-2.6-1.076,2.552,2.552,0,0,0-.582.055,2.043,2.043,0,0,0-.373.077.63.63,0,0,0-.154.044,3.528,3.528,0,0,0-1.361.79,1.162,1.162,0,0,0-.132.11,3.675,3.675,0,0,0,5.2,5.192,3.621,3.621,0,0,0,.977-1.8,3.71,3.71,0,0,0,.088-.79A3.529,3.529,0,0,0,48.991,451.146Zm-2.042,2.492a2.1,2.1,0,0,1-3.578-1.471,2.1,2.1,0,0,1,.615-1.482,1.669,1.669,0,0,1,.428-.318.011.011,0,0,1,.011-.011.477.477,0,0,1,.077-.044.164.164,0,0,1,.077-.033,1.62,1.62,0,0,1,.384-.143.441.441,0,0,1,.165-.033,1.705,1.705,0,0,1,.34-.033,2.1,2.1,0,0,1,1.482,3.567Z" transform="translate(0.994 3.447)" fill="#243036"/>
    <path id="Path_4202" data-name="Path 4202" d="M49.046,416.087a3.617,3.617,0,0,0-.977-1.811,3.677,3.677,0,0,0-6.279,2.591,3.675,3.675,0,0,0,1.076,2.6,1.315,1.315,0,0,0,.132.121,3.506,3.506,0,0,0,1.361.779c.011.011.033.011.055.022a2.011,2.011,0,0,0,.274.066,3.645,3.645,0,0,0,3.381-.988,1.8,1.8,0,0,0,.231-.263,2.228,2.228,0,0,0,.2-.252,3.312,3.312,0,0,0,.373-.7,1.553,1.553,0,0,0,.077-.241.146.146,0,0,0,.033-.088,3.608,3.608,0,0,0,.066-1.833Zm-2.1,2.261a2.073,2.073,0,0,1-1.482.615,1.891,1.891,0,0,1-.428-.044,1.563,1.563,0,0,1-.384-.121,2.177,2.177,0,0,1-.67-.45,2.08,2.08,0,0,1,0-2.953,2.092,2.092,0,0,1,2.964,2.953Z" transform="translate(0.994 0)" fill="#243036"/>
    <path id="Path_4203" data-name="Path 4203" d="M68.438,414.276a3.67,3.67,0,0,0-5.192,0,3.552,3.552,0,0,0-.988,1.811,3.687,3.687,0,0,0-.088.779,3.9,3.9,0,0,0,.088.8c0,.022.011.033.011.055.044.154.088.307.143.45a2.626,2.626,0,0,0,.22.472,3.6,3.6,0,0,0,.615.823,3.623,3.623,0,0,0,2.591,1.076,3.382,3.382,0,0,0,.823-.1,1.753,1.753,0,0,0,.231-.055.156.156,0,0,0,.066-.022,3.4,3.4,0,0,0,1.361-.79,1.2,1.2,0,0,0,.121-.11,3.67,3.67,0,0,0,0-5.192Zm-2.173,4.643a1.891,1.891,0,0,1-.428.044,2.1,2.1,0,1,1,1.482-.615,2.264,2.264,0,0,1-.659.45A1.811,1.811,0,0,1,66.264,418.919Z" transform="translate(2.985 0)" fill="#243036"/>
    <path id="Path_4204" data-name="Path 4204" d="M78.628,431.926a3.648,3.648,0,0,0-2.6-1.076,3.4,3.4,0,0,0-1.109.176,3.506,3.506,0,0,0-1.361.779l-.121.121a3.2,3.2,0,0,0-.307.351,3.3,3.3,0,0,0-.274.406,2.965,2.965,0,0,0-.362.878,2.044,2.044,0,0,0-.077.373,3.111,3.111,0,0,0,0,1.164,2.043,2.043,0,0,0,.077.373,3.09,3.09,0,0,0,.362.878,4.443,4.443,0,0,0,.318.472c.011.011.011.022.022.033.077.088.154.176.241.263a.714.714,0,0,0,.1.088c0,.011.011.011.022.022a3.671,3.671,0,0,0,1.361.79,3.67,3.67,0,0,0,4.786-3.5A3.668,3.668,0,0,0,78.628,431.926ZM77.508,436a2.1,2.1,0,0,1-1.482.615,2.245,2.245,0,0,1-1-.252,2.161,2.161,0,0,1-.472-.362h-.011a.827.827,0,0,1-.121-.154.3.3,0,0,1-.077-.088.5.5,0,0,1-.088-.143,1,1,0,0,1-.077-.154,1.649,1.649,0,0,1-.121-.241,1.5,1.5,0,0,1-.077-.263v-.022a2,2,0,0,1,0-.834v-.022a1.455,1.455,0,0,1,.2-.527c.033-.044.044-.1.077-.143a1.685,1.685,0,0,1,.274-.351c0-.011,0-.011.011-.022a.515.515,0,0,1,.132-.1.644.644,0,0,1,.2-.154,2.1,2.1,0,0,1,2.634.252,2.094,2.094,0,0,1,0,2.964Z" transform="translate(3.98 1.724)" fill="#243036"/>
    <path id="Path_4205" data-name="Path 4205" d="M68.438,449.566a1.2,1.2,0,0,0-.121-.11,3.672,3.672,0,0,0-1.361-.79.916.916,0,0,0-.165-.044,2.163,2.163,0,0,0-.384-.077,2.457,2.457,0,0,0-.571-.055,3.668,3.668,0,0,0-2.591,1.076,3.933,3.933,0,0,0-.285.318,1.573,1.573,0,0,1-.121.165,2.175,2.175,0,0,0-.209.34,2.624,2.624,0,0,0-.22.472,2.791,2.791,0,0,0-.154.516,3.6,3.6,0,0,0,0,1.581,3.555,3.555,0,0,0,.988,1.8,3.671,3.671,0,1,0,5.192-5.192Zm-1.12,4.072a2.088,2.088,0,1,1-1.482-3.567,1.818,1.818,0,0,1,.351.033.388.388,0,0,1,.154.033,1.561,1.561,0,0,1,.362.121.61.61,0,0,1,.187.1,1.59,1.59,0,0,1,.428.329,2.08,2.08,0,0,1,0,2.953Z" transform="translate(2.985 3.447)" fill="#243036"/>
  </g>
</svg>
