<svg xmlns="http://www.w3.org/2000/svg" width="26.52" height="46.08" viewBox="0 0 26.52 46.08">
  <g id="Representation_Icon_-_Black" data-name="Representation Icon - Black" transform="translate(-233.01 -410.89)">
    <path id="Path_4207" data-name="Path 4207" d="M255.65,434.33a12.95,12.95,0,0,0-3.86-2.67l5.72-19.79a.576.576,0,0,0,.05-.26.717.717,0,0,0-.72-.72h-7.9a.726.726,0,0,0-.69.52l-1.98,6.85-1.98-6.85a.706.706,0,0,0-.7-.52H235.7a.717.717,0,0,0-.72.72.751.751,0,0,0,.05.26l5.72,19.79a12.9,12.9,0,0,0-3.85,2.67,13.255,13.255,0,1,0,18.75,0Zm-2.14,8.43-3.8,2.75,1.46,4.46a.725.725,0,0,1-.46.91.71.71,0,0,1-.69-.14l-3.75-2.73-3.79,2.76a.718.718,0,0,1-1-.16.7.7,0,0,1-.1-.64h-.01l1.46-4.46-3.8-2.75a.728.728,0,0,1-.16-1.01.737.737,0,0,1,.64-.29l4.64.01,1.44-4.47a.72.72,0,0,1,1.37.01l1.44,4.46,4.69-.01a.717.717,0,0,1,.42,1.3Z" fill="#243036"/>
  </g>
</svg>
