<svg xmlns="http://www.w3.org/2000/svg" width="38.28" height="46.08" viewBox="0 0 38.28 46.08">
  <g id="Reservation_Icon_-_Black" data-name="Reservation Icon - Black" transform="translate(-227.13 -36.49)">
    <path id="Path_4208" data-name="Path 4208" d="M265.41,58.25a5.3,5.3,0,0,1-7,5.03c-.12-.04-.25-.09-.37-.14V74.05a.715.715,0,0,1-.71.72H247.28a4.372,4.372,0,0,1,.23.49,5.318,5.318,0,0,1,.39,2,5.31,5.31,0,1,1-10.62,0,5.313,5.313,0,0,1,.38-2c.07-.17.15-.33.23-.49H227.85a.717.717,0,0,1-.72-.72V44.58a.717.717,0,0,1,.72-.72h9.84c-.05-.12-.09-.24-.14-.37a5.249,5.249,0,0,1-.27-1.69,5.31,5.31,0,1,1,10.62,0,5.254,5.254,0,0,1-.28,1.69c-.04.13-.09.25-.14.37h9.85a.715.715,0,0,1,.71.72v8.77c.12-.05.25-.1.37-.14a5.306,5.306,0,0,1,7,5.04Z" fill="#243036"/>
  </g>
</svg>
