<svg xmlns="http://www.w3.org/2000/svg" xmlns:xlink="http://www.w3.org/1999/xlink" width="475.342" height="551.303" viewBox="0 0 475.342 551.303">
  <defs>
    <linearGradient id="linear-gradient" x1="0.512" y1="0.049" x2="0.472" y2="0.904" gradientUnits="objectBoundingBox">
      <stop offset="0" stop-color="#323974"/>
      <stop offset="1" stop-color="#272e67"/>
    </linearGradient>
    <linearGradient id="linear-gradient-2" x1="0.458" y1="0.103" x2="0.56" y2="1.061" xlink:href="#linear-gradient"/>
  </defs>
  <g id="Group_2184" data-name="Group 2184" transform="translate(-61.807 -35.729)">
    <path id="Path_2019" data-name="Path 2019" d="M408.326,363.267,305.352,422.721,160.352,339l102.974-59.454Z" transform="translate(44.974 111.276)" fill="#f0eeff"/>
    <path id="Path_2020" data-name="Path 2020" d="M362.016,384.677l-76.582,71.516L111.017,393.932,187.6,322.416Z" transform="translate(22.458 130.839)" fill="#f2f1ff"/>
    <g id="Group_2100" data-name="Group 2100" transform="translate(412.207 488.8)">
      <g id="Group_2099" data-name="Group 2099">
        <g id="Group_2098" data-name="Group 2098">
          <path id="Path_2021" data-name="Path 2021" d="M324.29,372.016,302.4,359.379l21.75-12.557,21.887,12.636Z" transform="translate(-302.403 -346.822)" fill="#fe8ea7"/>
          <path id="Path_2022" data-name="Path 2022" d="M339.182,355.5l-21.75,12.558v24.3l21.75-12.558Z" transform="translate(-295.544 -342.863)" fill="#fe486e"/>
          <path id="Path_2023" data-name="Path 2023" d="M302.4,355.444l21.887,12.637v24.3L302.4,379.74Z" transform="translate(-302.403 -342.887)" fill="#ff698d"/>
        </g>
      </g>
    </g>
    <g id="Group_2103" data-name="Group 2103" transform="translate(444.595 321.213)">
      <g id="Group_2102" data-name="Group 2102">
        <g id="Group_2101" data-name="Group 2101">
          <path id="Path_2024" data-name="Path 2024" d="M371.063,285.188l-46.422-26.8,46.132-26.634,46.422,26.8Z" transform="translate(-324.642 -231.752)" fill="#edecf8"/>
          <path id="Path_2025" data-name="Path 2025" d="M402.649,250.155l-46.133,26.634v51.53l46.133-26.634Z" transform="translate(-310.095 -223.353)" fill="#bfbeed"/>
          <path id="Path_2026" data-name="Path 2026" d="M324.642,250.04l46.422,26.8v51.53l-46.422-26.8Z" transform="translate(-324.642 -223.405)" fill="#e1def8"/>
        </g>
      </g>
    </g>
    <g id="Group_2106" data-name="Group 2106" transform="translate(129.444 333.936)">
      <g id="Group_2105" data-name="Group 2105" transform="translate(0)">
        <g id="Group_2104" data-name="Group 2104">
          <path id="Path_2027" data-name="Path 2027" d="M155.576,294.965l-47.327-27.324,47.032-27.154,47.328,27.324Z" transform="translate(-108.249 -240.487)" fill="#edecf8"/>
          <path id="Path_2028" data-name="Path 2028" d="M187.779,259.249,140.746,286.4v52.535l47.033-27.154Z" transform="translate(-93.418 -231.925)" fill="#bfbeed"/>
          <path id="Path_2029" data-name="Path 2029" d="M108.249,259.132l47.327,27.324v52.535l-47.327-27.324Z" transform="translate(-108.249 -231.978)" fill="#e1def8"/>
        </g>
      </g>
    </g>
    <g id="Group_2115" data-name="Group 2115" transform="translate(61.807 205.451)">
      <g id="Group_2107" data-name="Group 2107" transform="translate(59.947 34.775)">
        <path id="Path_2030" data-name="Path 2030" d="M109.367,221.728c-2.07-7.394-3.3-12.171-5.737-24.176a32.415,32.415,0,0,1-.479-9.911,18.967,18.967,0,0,1,3.622-8.788c.856-1.266,1.992-2.594,3.524-2.7,1.4-.1,2.607.858,3.575,1.834,5.837,5.875,8.368,14.675,8.881,22.766.475,7.528,1.7,10.605,2.11,18.165a22.535,22.535,0,0,1,.042,4.41c-1.006,6.836-2.276,5.9-6.529,3.206C116.3,225.213,110.493,225.746,109.367,221.728Z" transform="translate(-102.969 -176.143)" fill="#edecf8"/>
        <path id="Path_2031" data-name="Path 2031" d="M141.931,243.59c-2.715.313-5.6-1.79-7.8-3.571-5.287-4.289-24.76-21.868-26.908-31.691-.54-2.48,2.148-3.513,4.218-5.25,1.561-1.314,10.161,1.266,11.775,3.211,2.531,3.055,15.318,17.89,22.085,27.846a8.622,8.622,0,0,1,1.819,4.225C147.2,240.713,144.034,243.35,141.931,243.59Z" transform="translate(-101.058 -164.014)" fill="#edecf8"/>
      </g>
      <path id="Path_2032" data-name="Path 2032" d="M79.72,287.518a6.777,6.777,0,0,0,.714,2.126c.374,1.069.874,2.157,1.183,3.229a58.067,58.067,0,0,1,2.24,13.6c.128,2.62.993,5.563-.8,7.838a8.94,8.94,0,0,1-8.281,2.831c-2.938-.7-3.87-4.014-4.537-6.565A106.281,106.281,0,0,1,68.3,299.5a19.269,19.269,0,0,1-.067-7.029,9.068,9.068,0,0,1,1.63-3.555,6.945,6.945,0,0,1,1.465-1.427c.551-.392,1.054-.524,1.458-1.082a13.1,13.1,0,0,1,2.466-3.163,3.14,3.14,0,0,1,3.328.211,4.766,4.766,0,0,1,1.9,2.988c-.066.363-.65.623-.738.982A.615.615,0,0,0,79.72,287.518Z" transform="translate(-59.012 -92.667)" fill="#252956"/>
      <path id="Path_2033" data-name="Path 2033" d="M93.155,282.915c1.11.652,2.123,1.451,3.219,2.128s2.2,1.175,3.268,1.869q3.526,2.294,7.263,4.237a60.029,60.029,0,0,1,5.578,3.067,15.054,15.054,0,0,1,3.682,3.316,2.237,2.237,0,0,1,.629,2.067,7.99,7.99,0,0,1-.894,2.313,7.907,7.907,0,0,1-2.97,3.532,6.085,6.085,0,0,1-4.4.275,14.735,14.735,0,0,1-6.2-3.481,13.5,13.5,0,0,0-6-3.65c-1.879-.507-3.909-.591-5.607-1.539a6.252,6.252,0,0,1-2.959-4.034c-.451-1.947.144-4.012-.191-6-.216-1.271,2.407-2.495,2.6-3.808.165-1.123-1.707-2.129-.651-2.348a4.747,4.747,0,0,1,3.437.738Z" transform="translate(-50.055 -93.612)" fill="#252956"/>
      <path id="Path_2034" data-name="Path 2034" d="M91.37,250.452l19.044,5.159c.588,3.066-.066,5.977-.39,8.332-1.113,8.054-5.47,35.5-7.234,39.5-.884,2.005-1.97,2.76-4.285,3.136a13.711,13.711,0,0,1-6.411-.558c-1.95-.639-4.136-1.631-5.109-3.522C85.57,299.745,91.324,251.228,91.37,250.452Z" transform="translate(-50.419 -107.455)" fill="#323974"/>
      <path id="Path_2035" data-name="Path 2035" d="M108.4,244.738c.955,4.372,7.647,30.23,6.66,35.157-1.218,6.08-16.025,6.037-16.59,1.9-1.755-12.844-19.587-37.5-21.71-49.61-2.18-12.43,16.6-25.771,20.231-27.728C99.315,216.553,104.071,224.944,108.4,244.738Z" transform="translate(-55.064 -128.448)" fill="#323974"/>
      <path id="Path_2036" data-name="Path 2036" d="M89.588,270.515c-1.086,8.708-3.393,36.37-5.193,40.688-.9,2.163-2.029,2.974-4.438,3.369a13.836,13.836,0,0,1-6.686-.635c-2.037-.7-4.541-1.686-5.355-3.838-.367-.97-.153-26.031.351-33.235.3-4.222,2.572-19.283,3.49-20.6,1.762-2.536.768-13.052.768-13.052s12.768,5.716,15.127,8.045C93.506,257.034,90.134,266.129,89.588,270.515Z" transform="translate(-59.104 -110.759)" fill="#3c4384"/>
      <path id="Path_2037" data-name="Path 2037" d="M104.5,223.332c.683.533,1.59-2.374,2.362-.387.373.96-.518,1.554-.881,2.285a23.049,23.049,0,0,0-.99,3.87c-.8,2.836-3.309,4.66-5.4,6.565a47.139,47.139,0,0,0-8.711,9.944c-2.713,4.49-1.146,9.55-.4,14.463.869,5.71,2.55,10.326,3.2,16.065.063.551-15.974,13.291-16.847,11.414-1.627-3.5-3.246-6.854-4.6-10.48-2.9-7.78-6.985-23.394-8.651-31.567-1.433-7.029-3.057-16.128-.226-22.932,1.665-4,4.733-9.108,8.415-11.642,1.912-1.315,4.037-2.562,6.064-3.739.288-.169,4.021-1.94,4.009-2.077C82.9,217.39,95.06,215.979,104.5,223.332Z" transform="translate(-61.807 -128.146)" fill="#3c4384"/>
      <path id="Path_2038" data-name="Path 2038" d="M77.351,212.259c2.493-4.556,3.953-9.768,6.391-14.354,2.308-4.341,4.917-9.132,8.237-12.768,4.582-5.019,10.519-9.981,17.346-11.644,5.406-1.318,10.927-1.666,15.621,1.622,2.3,1.611,5.228,3.916,6.475,6.364,1.4,2.742,1.385,5.789,1.557,8.631a28.468,28.468,0,0,1-1.145,11.469c-2.035,5.932-6.105,10.786-9.388,16.036a110.886,110.886,0,0,0-8.333,16.275,59.433,59.433,0,0,0-2.621,6.761c-.69,2.482-.433,5.71-1.809,7.939-2,3.233-6.7,3.136-9.979,3.018a40.864,40.864,0,0,1-13.761-2.49,36.981,36.981,0,0,1-11-6.443c-13.439-11.543-6.044-16.415-4.5-19.69C72.008,219.66,77.063,212.786,77.351,212.259Z" transform="translate(-59.425 -143.011)" fill="#e1def8"/>
      <g id="Group_2108" data-name="Group 2108" transform="translate(49.795 45.514)">
        <path id="Path_2039" data-name="Path 2039" d="M96,231.324c.885,1.4,1.925,3.06,2.792,4.446,2.547-2.154,2.665-2.365,5.09-4.567,5.023-15.979,9-31.183,9.937-47.686-1.8.59-2.71.885-4.532,1.472C106.669,200.245,103.131,215.865,96,231.324Z" transform="translate(-95.998 -183.517)" fill="#3c4384"/>
      </g>
      <path id="Path_2040" data-name="Path 2040" d="M69.663,208.058c-2.259,3.284-6.516,8.274,5.282,18.407a36.982,36.982,0,0,0,11,6.443A40.9,40.9,0,0,0,99.7,235.4c3.278.118,7.982.216,9.979-3.018a9.015,9.015,0,0,0,1.057-3.334C93.264,235.41,74.286,224.629,69.663,208.058Z" transform="translate(-59.426 -126.803)" fill="#252956"/>
      <path id="Path_2041" data-name="Path 2041" d="M72.546,213.613a30.017,30.017,0,0,1-1.551-3.072,10.794,10.794,0,0,0-4.033,5.729,13.612,13.612,0,0,0,1.867,3.677A9.338,9.338,0,0,1,72.546,213.613Z" transform="translate(-59.455 -125.67)" fill="#3c4384"/>
      <path id="Path_2042" data-name="Path 2042" d="M82.166,222.072c-1.212,1.037-1.67,3.532-1.963,5.351.759.275,1.892.491,2.667.7a36.026,36.026,0,0,1,1.877-5.137C83.976,222.742,82.912,222.376,82.166,222.072Z" transform="translate(-53.412 -120.407)" fill="#3c4384"/>
      <g id="Group_2111" data-name="Group 2111" transform="translate(42.573 67.242)">
        <g id="Group_2110" data-name="Group 2110">
          <g id="Group_2109" data-name="Group 2109">
            <path id="Path_2043" data-name="Path 2043" d="M139.1,254.108l48.364-27.923L139.4,198.436,91.039,226.359Z" transform="translate(-91.039 -198.436)" fill="#fe8ea7"/>
            <path id="Path_2044" data-name="Path 2044" d="M91.039,217.609,139.1,245.357v53.686L91.039,271.3Z" transform="translate(-91.039 -189.686)" fill="#fe486e"/>
            <path id="Path_2045" data-name="Path 2045" d="M172.4,217.489,124.04,245.412V299.1L172.4,271.175Z" transform="translate(-75.978 -189.741)" fill="#ff698d"/>
          </g>
        </g>
      </g>
      <g id="Group_2112" data-name="Group 2112" transform="translate(29.993 34.217)">
        <path id="Path_2046" data-name="Path 2046" d="M101.154,251.953c.565.01.584-.341.473-.807-.087-.37-.216-.73-.3-1.1-.009-.047-.172-.99,0-.939.217.061.379.29.521.454.2.233.363.5.555.735a6.967,6.967,0,0,1,.43.676,4.82,4.82,0,0,1,.383.692,2.191,2.191,0,0,0,.412.556c.3.319.719.6,1.149.345.6-.352.128-1.088,0-1.563-.076-.272-.668-1.06-.434-1.324.218-.245,1.13.54,1.3.683a7.914,7.914,0,0,0,2.091,1.653c.524.2,1.4.3,1.124-.542a3.986,3.986,0,0,0-1-1.309c-.47-.539-.92-1.088-1.376-1.643-.111-.134-.837-.872-.746-1,.067-.095.408.025.478.044a11.192,11.192,0,0,1,1.7.572c.434.192.839.453,1.276.648.467.21,1.666.773,1.976.05.3-.69-.9-1.507-1.363-1.8a15.763,15.763,0,0,1-2.672-2.046,7.4,7.4,0,0,1-2.268-3.69,2.192,2.192,0,0,1,.348-1.838,8.914,8.914,0,0,1,2.364,2.423,3.379,3.379,0,0,0,2.37,1.555c.5.031,1.3.151,1.6-.373a1.157,1.157,0,0,0-.364-1.4c-.38-.345-.874-.55-1.222-.934a5.836,5.836,0,0,1-.823-1.2c-.417-.776-.752-1.636-1.241-2.362a6,6,0,0,0-1.94-1.774c-.277-.163-.558-.3-.837-.45a15.389,15.389,0,0,1-1.882-1.257c-1.7-1.287-2.744-3.57-4.212-5.151-1.324-1.429-2.667,0-3.725,1.186A3.92,3.92,0,0,0,94.216,233a20.068,20.068,0,0,0,.913,3.337,22.838,22.838,0,0,1,.415,2.418c.041.287.084.572.118.859.115.968.275,1.931.45,2.892a20.447,20.447,0,0,0,1.012,3.622c.431,1.126,1.059,2.109,1.573,3.191.137.287.264.58.4.871C99.468,251,100.165,251.935,101.154,251.953Z" transform="translate(-77.02 -151.945)" fill="#ffc7ad"/>
        <path id="Path_2047" data-name="Path 2047" d="M82.554,220.6c.4-8.881,1.306-17.713,2.351-26.575a33.417,33.417,0,0,1,2.319-9.8,17.949,17.949,0,0,1,5.818-7.189,7.845,7.845,0,0,1,4.883-1.258c1.637.138,3.373.918,3.989,2.147,3.708,7.4,2.2,17.267.159,25.114a96,96,0,0,0-2.033,12.515c-.256,2.075-1.1,9.365-1.009,10.94.064,1.175,9.825,25.324,9.73,28.235-.084,2.643-3.24,4.88-5.482,5.616a6.635,6.635,0,0,1-4.043-.1c-1.3-.434-1.845-1.548-2.5-2.691-1.1-1.917-12.789-25.643-13.138-26.815a29.39,29.39,0,0,1-.939-3.532,20.39,20.39,0,0,1-.258-2.71C82.392,224.042,82.516,221.454,82.554,220.6Z" transform="translate(-82.402 -175.76)" fill="#edecf8"/>
      </g>
      <g id="Group_2114" data-name="Group 2114" transform="translate(54.088)">
        <path id="Path_2048" data-name="Path 2048" d="M103.376,181.226a16.538,16.538,0,0,0,3.232,4.958c1.449,1.586,4.027,4.639,6.43,3.418a9.092,9.092,0,0,0,2.055-1.442c3.171-2.923,4.758-8.1,3.111-12a14.224,14.224,0,0,0-3.45-4.557c-1.142-1.126-2.378-3.268-4.222-3.037a2.828,2.828,0,0,0-2.1,1.5c-.245.4-.463.8-.682,1.228-.773,1.494-2.487,2.348-3.747,3.444a8.448,8.448,0,0,0-1.462,1.26C101.45,177.547,102.741,179.713,103.376,181.226Z" transform="translate(-97.499 -144.836)" fill="#ffc7ad"/>
        <path id="Path_2049" data-name="Path 2049" d="M110.392,168.964a24.769,24.769,0,0,1,2.339,2.442,14.224,14.224,0,0,1,3.45,4.557c1.647,3.9.06,9.082-3.111,12a9.092,9.092,0,0,1-2.055,1.442,2.5,2.5,0,0,1-1.29.24C106.26,182.907,104.523,176.09,110.392,168.964Z" transform="translate(-95.477 -144.645)" fill="#f3a984"/>
        <path id="Path_2050" data-name="Path 2050" d="M112.16,184.883c-.067.526-.712,1-1.04,1.372a16.2,16.2,0,0,1-2.227,2.083,2.609,2.609,0,0,1-1.5.677c-1.034.015-1.886-1.142-2.439-1.892a3.739,3.739,0,0,1-.612-1.2c-.422-1.424,1.353-2.483,2.605-2.678.722-.115,1.343-.217,2.046-.373.811-.179,2.131-.242,2.594.569A3.054,3.054,0,0,1,112.16,184.883Z" transform="translate(-96.511 -138.347)" fill="#272e67"/>
        <path id="Path_2051" data-name="Path 2051" d="M108,185.52c-.17,1.033.853,1.937,1.37,2.849.227.4,1.037,1.468,1.532,1.6s1.072-.332,1.413-.626a25.67,25.67,0,0,0,6.128-7.512,4.9,4.9,0,0,0-.048-3.52,2.851,2.851,0,0,0-2.387-1.652c-1.044-.057-2.1,1.525-2.187,2.458A7.49,7.49,0,0,1,108,185.52Z" transform="translate(-94.821 -141.134)" fill="#e1def8"/>
        <path id="Path_2052" data-name="Path 2052" d="M112.233,187.529a22.2,22.2,0,0,1-4.848,2.109c-.6.159-1.786.613-2.579-.181-2.236-2.236-6.335-9.849-5.814-16.777a15.2,15.2,0,0,1,3.379-.191,10.1,10.1,0,0,1,3.074.45,13.02,13.02,0,0,0-.524,4.184C105.481,181.429,108.635,185.061,112.233,187.529Z" transform="translate(-98.946 -143.046)" fill="#e1def8"/>
        <path id="Path_2053" data-name="Path 2053" d="M107.007,178.021a12.086,12.086,0,0,0,1.153,4.909,11.725,11.725,0,0,0,4.62,5.154l.082.076c3.171-2.923,4.758-8.1,3.111-12a14.224,14.224,0,0,0-3.45-4.557c-1.142-1.126-2.378-3.268-4.222-3.037-1.012.119.216.467-.25,1.218C108.874,171.415,106.908,176.25,107.007,178.021Z" transform="translate(-95.268 -144.836)" fill="#f3a984"/>
        <path id="Path_2054" data-name="Path 2054" d="M106.6,160.52l28.324-1.641a17,17,0,0,1,2.3,6,26.44,26.44,0,0,1,.347,6.332c-.214,2.84-1.589,5.335-3.066,7.7-1.14,1.828-2.8,3.768-2.709,5.93.054,1.241-.006,3.737-1.331,4.381-.382.183-.852.1-1.258.3a15.346,15.346,0,0,0-2.23,1.407,26.761,26.761,0,0,1-2.916,2.493,25.145,25.145,0,0,1-3.173,1.74c-2.738,1.047-5.068-.233-7.028-2.125-2.225-2.147-4.315-3.893-4.956-7.128a50.491,50.491,0,0,1-.463-6.313,15.828,15.828,0,0,0-2.2-6.131c-.562-1.027-1.622-1.946-1.94-3.089-.264-.951.433-1.858.655-2.77C105.533,165.216,105.717,162.817,106.6,160.52Z" transform="translate(-96.531 -149.247)" fill="#ffc7ad"/>
        <path id="Path_2055" data-name="Path 2055" d="M122.791,173.642c-2.252,2.349-1.768,6.871-4.858,8.479-1.652.859-2.975-.068-4.092-1.312a7.38,7.38,0,0,1-1.452-2.335c-.28-.741-.181-1.9-.558-2.576-.952-1.692-1.486.288-1.874,1.379-.505,1.416-.92,2.986-2.766,2.25-3.3-1.321-3.96-7.591-3.985-10.527a16.7,16.7,0,0,1,4.489-11.214c1.7-1.928,5.2-2.684,5.2-2.684a10.371,10.371,0,0,1,5.44-2.584c5.8-1.1,11.753,1.49,15.834,5.547a21.59,21.59,0,0,1,5.973,12.35,8.7,8.7,0,0,1-1.388,4.806,9.613,9.613,0,0,1-1.5,2.265c-1.21,1.215-2.225-.265-3.134-1.068a15.563,15.563,0,0,0-3.427-2.324c-.53-.268-1.078-.5-1.609-.75a8.135,8.135,0,0,0-3.165-1.139A4.118,4.118,0,0,0,122.791,173.642Z" transform="translate(-97.002 -152.265)" fill="#c99c83"/>
        <g id="Group_2113" data-name="Group 2113" transform="translate(11.502 21.751)">
          <path id="Path_2056" data-name="Path 2056" d="M111.244,167.67c-2.3-1.574-4.666,1.043-4.376,4.314a13.722,13.722,0,0,0,.9,2.958c2.139,6.193,5.555,2.869,4.924.817C111.224,171,114.144,169.653,111.244,167.67Z" transform="translate(-106.843 -167.2)" fill="#ffc7ad"/>
          <path id="Path_2057" data-name="Path 2057" d="M108.785,172.338c-.122-.4-1.826-3.481.574-3.482a.914.914,0,0,1,.727,1.322c-.121.294-.368.521-.488.816a1.4,1.4,0,0,0-.089.552c.009.517.587,1.346.106,1.807C109.189,173.763,108.853,172.565,108.785,172.338Z" transform="translate(-106.277 -166.444)" fill="#f3a984"/>
        </g>
      </g>
    </g>
    <g id="Group_2116" data-name="Group 2116" transform="translate(173.946 149.329)">
      <path id="Path_2058" data-name="Path 2058" d="M172.109,113.73l13.026,7.52v18.691l-46.33,11.516Z" transform="translate(-138.805 -113.73)" fill="#e1def8"/>
      <path id="Path_2059" data-name="Path 2059" d="M145.956,144.162l35.916-25.268,2.862,6.528Z" transform="translate(-135.542 -111.374)" fill="#b4a4f5"/>
      <path id="Path_2060" data-name="Path 2060" d="M188.919,121.72l15.5,8.95-22.629,5.625-35.658,6.5Z" transform="translate(-135.461 -110.084)" fill="#e1def8"/>
    </g>
    <g id="Group_2117" data-name="Group 2117" transform="translate(228.151 35.729)">
      <path id="Path_2061" data-name="Path 2061" d="M217.329,35.729,198.493,46.6V73.631l66.995,16.651Z" transform="translate(-165.77 -35.729)" fill="#e1def8"/>
      <path id="Path_2062" data-name="Path 2062" d="M251.726,79.733,199.79,43.2l-4.139,9.438Z" transform="translate(-167.067 -32.321)" fill="#b4a4f5"/>
      <path id="Path_2063" data-name="Path 2063" d="M198.439,47.283,176.024,60.224l32.723,8.133,51.563,9.405Z" transform="translate(-176.024 -30.456)" fill="#e1def8"/>
    </g>
    <g id="Group_2118" data-name="Group 2118" transform="translate(78.317 453.728)">
      <path id="Path_2064" data-name="Path 2064" d="M127.18,322.741l-24.642,14.228v35.357l87.644,21.783Z" transform="translate(-59.728 -322.741)" fill="#3c4384"/>
      <path id="Path_2065" data-name="Path 2065" d="M172.178,380.309l-67.943-47.8-5.415,12.348Z" transform="translate(-61.425 -318.282)" fill="#272e67"/>
      <path id="Path_2066" data-name="Path 2066" d="M102.468,337.857l-29.324,16.93,42.81,10.64,67.455,12.3Z" transform="translate(-73.143 -315.842)" fill="#3c4384"/>
    </g>
    <g id="Group_2121" data-name="Group 2121" transform="translate(285.208 368.701)">
      <g id="Group_2120" data-name="Group 2120">
        <g id="Group_2119" data-name="Group 2119">
          <path id="Path_2067" data-name="Path 2067" d="M264.778,321.425,215.2,292.8l49.267-28.444,49.576,28.623Z" transform="translate(-215.201 -264.358)" fill="#fe8ea7"/>
          <path id="Path_2068" data-name="Path 2068" d="M298.509,284.012l-49.267,28.444v55.031l49.267-28.445Z" transform="translate(-199.666 -255.389)" fill="#fe486e"/>
          <path id="Path_2069" data-name="Path 2069" d="M215.2,283.889l49.576,28.623v55.031L215.2,338.92Z" transform="translate(-215.201 -255.445)" fill="#ff698d"/>
        </g>
      </g>
      <path id="Path_2070" data-name="Path 2070" d="M225.14,329.118v-30.43l8.109,4.681a22.375,22.375,0,0,1,6.217,5.4,26.373,26.373,0,0,1,4.28,7.612,24.55,24.55,0,0,1,1.538,8.465v1.4a12.6,12.6,0,0,1-1.51,6.672,5.319,5.319,0,0,1-4.263,2.659,10.911,10.911,0,0,1-6.209-1.745Zm5.431-22.217v20.315l2.626,1.516q3.183,1.837,4.867.406t1.721-5.884v-1.608a17.8,17.8,0,0,0-1.666-7.994,12.074,12.074,0,0,0-4.869-5.205Z" transform="translate(-210.666 -248.691)" fill="#e1def8"/>
    </g>
    <g id="Group_2128" data-name="Group 2128" transform="translate(279.891 303.634)">
      <g id="Group_2127" data-name="Group 2127">
        <g id="Group_2126" data-name="Group 2126">
          <g id="Group_2125" data-name="Group 2125">
            <g id="Group_2122" data-name="Group 2122">
              <path id="Path_2071" data-name="Path 2071" d="M261.126,276.748l-49.576-28.623,49.267-28.445L310.394,248.3Z" transform="translate(-211.551 -219.681)" fill="#edecf8"/>
            </g>
            <g id="Group_2123" data-name="Group 2123" transform="translate(49.576 28.623)">
              <path id="Path_2072" data-name="Path 2072" d="M294.858,239.334l-49.267,28.445V322.81l49.267-28.445Z" transform="translate(-245.591 -239.334)" fill="#bfbeed"/>
            </g>
            <g id="Group_2124" data-name="Group 2124" transform="translate(0 28.445)">
              <path id="Path_2073" data-name="Path 2073" d="M211.551,239.212l49.576,28.623v55.031l-49.576-28.623Z" transform="translate(-211.551 -239.212)" fill="#e1def8"/>
            </g>
          </g>
        </g>
      </g>
      <path id="Path_2074" data-name="Path 2074" d="M242.015,296.279l-5.431-3.134-10.57-26.126v20.022l-5.429-3.134v-30.43l5.431,3.134L236.6,282.788V262.725l5.412,3.124Z" transform="translate(-207.428 -204.257)" fill="#323974"/>
    </g>
    <g id="Group_2131" data-name="Group 2131" transform="translate(291.361 236.628)">
      <g id="Group_2130" data-name="Group 2130">
        <g id="Group_2129" data-name="Group 2129">
          <path id="Path_2075" data-name="Path 2075" d="M269,230.74l-49.576-28.622,49.267-28.445L318.27,202.3Z" transform="translate(-219.427 -173.673)" fill="#3c4384"/>
          <path id="Path_2076" data-name="Path 2076" d="M302.734,193.326l-49.267,28.444V276.8l49.267-28.445Z" transform="translate(-203.891 -164.704)" fill="#272e67"/>
          <path id="Path_2077" data-name="Path 2077" d="M219.427,193.2,269,221.826v55.031l-49.576-28.622Z" transform="translate(-219.427 -164.759)" fill="#323974"/>
        </g>
      </g>
      <path id="Path_2078" data-name="Path 2078" d="M245.179,240.7l-9.519-5.5-1.81,5.224-5.775-3.332,9.81-24.766,5.032,2.9,9.864,36.126-5.773-3.334Zm-8.054-9.729,6.589,3.8-3.312-13.3Z" transform="translate(-215.48 -156.03)" fill="#e1def8"/>
    </g>
    <g id="Group_2141" data-name="Group 2141" transform="translate(197.734 197.772)">
      <path id="Path_2079" data-name="Path 2079" d="M206.97,194.591c1.113,1.033,2.46,2.342,2.237,3.82-.217,1.433-1.456,2.106-2.307,3.173-.714.9-1.3,1.835-2.036,2.744-2.461,3.063-5,6.056-7.543,9.047-1.152,1.357-2.307,2.715-3.5,4.036a83.421,83.421,0,0,1-11.494,10.53c-1.606,1.216-4.228,3.281-6.273,3.584-2.024.3-3.658-.92-5.006-2.432-2.4-2.7-3.8-6.347-2.367-9.816s4.33-5.639,7.114-7.907c5.954-4.845,12.471-8.687,18.08-13.914,1.643-1.532,3.424-3.574,5.556-4.486a7.124,7.124,0,0,1,7.3,1.4Z" transform="translate(-149.221 -126.227)" fill="#edecf8"/>
      <g id="Group_2140" data-name="Group 2140" transform="translate(24.452)">
        <g id="Group_2139" data-name="Group 2139" style="isolation: isolate">
          <g id="Group_2133" data-name="Group 2133" transform="translate(46.286 25.656)">
            <g id="Group_2132" data-name="Group 2132">
              <path id="Path_2080" data-name="Path 2080" d="M243.469,164.609l18.9,35.637L222.61,246.791l-18.9-35.636Z" transform="translate(-203.71 -164.609)" fill="#fe486e"/>
            </g>
          </g>
          <path id="Path_2081" data-name="Path 2081" d="M218.214,204.609l18.9,35.636-46.286-25.656-18.9-35.636Z" transform="translate(-171.928 -132.408)" fill="#ff698d"/>
          <g id="Group_2136" data-name="Group 2136" transform="translate(17.547 61.992)">
            <g id="Group_2135" data-name="Group 2135" style="isolation: isolate">
              <g id="Group_2134" data-name="Group 2134">
                <path id="Path_2082" data-name="Path 2082" d="M195.137,198.038a17.644,17.644,0,0,1,3.555,2.524,10.679,10.679,0,0,1,2.157,2.725c.476.9.5,1.408.042,1.509s-1.34-.2-2.649-.925l-4.215-2.336-3.089-5.824Zm-.859,10.945,5.24,2.9-3.769-7.106,4.165,2.308,8.539,9.751,5.61,3.109-.1-.192-9.7-10.972c1.25.32,2.017.249,2.286-.227.287-.466.071-1.365-.631-2.686a20.973,20.973,0,0,0-4.733-5.687,43.3,43.3,0,0,0-7.77-5.393l-9.439-5.233Z" transform="translate(-183.977 -189.559)" fill="#e1def8"/>
              </g>
            </g>
          </g>
          <g id="Group_2138" data-name="Group 2138">
            <g id="Group_2137" data-name="Group 2137">
              <path id="Path_2083" data-name="Path 2083" d="M257.973,172.649l-39.759,46.545-46.286-25.657,39.759-46.545Z" transform="translate(-171.928 -146.993)" fill="#fe8ea7"/>
            </g>
          </g>
        </g>
      </g>
      <path id="Path_2084" data-name="Path 2084" d="M189.737,339.2c-.735-1.721-1.617-4.457-3.524-5.226-1.408-.566-2.945.3-4.225,1.124a26.775,26.775,0,0,1-6.07,2.806c-.84.2-.661-10.093-.347-11.462l-10.122,5.288c1.322,6.864.9,8.263.031,10.933l.4.692v3.766h14.041v.4c.684-.4,1.378-.8,2.1-1.139,1.864-.891,3.871-1.462,5.715-2.391,1.181-.6,2.409-1.528,2.493-2.85A4.333,4.333,0,0,0,189.737,339.2Z" transform="translate(-150.433 -65.095)" fill="#f3a984"/>
      <path id="Path_2085" data-name="Path 2085" d="M165.677,342.225c-.012.073-.022.153-.032.24a12.071,12.071,0,0,0-.063,1.573,5.117,5.117,0,0,0,.788,3.172,2.689,2.689,0,0,0,.837.667,5.707,5.707,0,0,0,.989.382,4.315,4.315,0,0,0,3.277-.068c1.187-.677,1.426-2.748.96-4.27a2.859,2.859,0,0,0-2.891-2.2,17.6,17.6,0,0,0-3.335-.009C165.812,341.742,165.728,341.911,165.677,342.225Z" transform="translate(-150.373 -58.163)" fill="#272e67"/>
      <path id="Path_2086" data-name="Path 2086" d="M165.636,340.362a7.427,7.427,0,0,0,3.7,2.329,10.781,10.781,0,0,0,7.241-1.405,9.841,9.841,0,0,0,3.22-3.959,4.125,4.125,0,0,0,.468-2.053c-.057-.347-.671-.96-1.038-.833a33.156,33.156,0,0,0,2.917-1.643c1.28-.821,2.82-1.694,4.228-1.126,1.906.769,2.786,3.5,3.523,5.227a4.338,4.338,0,0,1,.492,1.943c-.084,1.321-1.312,2.253-2.492,2.849-1.845.929-3.854,1.5-5.718,2.391a36.332,36.332,0,0,0-3.3,1.866c-.666.408-1.35.781-2.017,1.187-.548.334-1.022.727-1.563,1.062a9.877,9.877,0,0,0-.948.724,12.842,12.842,0,0,1-2.224,1.363,5.985,5.985,0,0,1-3.46.566,4.17,4.17,0,0,1-1.014-.255,3.376,3.376,0,0,1-1.107-.571,4.2,4.2,0,0,1-1.162-2.093,14.632,14.632,0,0,1-.264-3.715,15.7,15.7,0,0,1,.221-2.135c.047-.326.144-.644.2-.97A2.955,2.955,0,0,0,165.636,340.362Z" transform="translate(-150.589 -62.792)" fill="#323974"/>
      <path id="Path_2087" data-name="Path 2087" d="M176.854,351.612c.395,2.885-.932,1.3-1.853,2.234-2.137,2.16-4.5,1.979-6.262.431-.918-.984-.864-2.6-1.114-3.868-1.143-5.778-2.335-7.339-3.524-10.616a33.924,33.924,0,0,1-1.681-13.726,90.8,90.8,0,0,1,2.23-13.735,13.026,13.026,0,0,0,.537-3.508c-.048-.762-.379-1.459-.44-2.217-.2-2.4,1.041-4.777,1.194-7.155.1-1.542.026-3.268.891-4.623,1.545-2.418,5.137-2.76,7.719-1.506a13.138,13.138,0,0,1,5.051,4.411c1.188,1.784,1.293,4.41,1.41,6.513a63.948,63.948,0,0,1-.048,7.765c-.419,6.194-1.727,12.276-2.658,18.4-.37,2.434-.669,4.879-.922,7.327C177,341.435,176.379,348.109,176.854,351.612Z" transform="translate(-151.857 -80.536)" fill="#f3a984"/>
      <path id="Path_2088" data-name="Path 2088" d="M159.059,238.813a48.741,48.741,0,0,1-2.562-15.079c-.041-3.916-1.132-9.736,3.449-11.907,2.428-1.149,5.971-.472,8.2.781.733.409,3.6,1.771,4.276,2.055,4.025,1.688,7.95,3.615,11.837,5.6,2.164,1.1,4.43,2.033,6.632,3.055a22.905,22.905,0,0,1,8.013,6.292,21.576,21.576,0,0,1,4.595,7.484,24.25,24.25,0,0,1,.82,9.258c-.163,2.39-5.131,18.454-1.666,29.371,1.129,3.558,1.06,5.5-2.217,8.524-1.708,1.573-3.857.818-5.884.615-2.18-.22-4.171.421-6.417.3-5.941-.319-12.823-.8-18.085-3.848-2.04-1.183-3.813-2.935-3.9-5.425-.063-1.853.823-2.8,1.788-4.212,1.439-2.107,1.159-4.888.712-7.279a51.574,51.574,0,0,0-1.813-6.734q-1.291-3.869-2.938-7.611c-1.394-3.172-2.98-6.262-4.218-9.5Q159.356,239.69,159.059,238.813Z" transform="translate(-154.584 -117.673)" fill="#e1def8"/>
      <path id="Path_2089" data-name="Path 2089" d="M192.192,306.774c.017-.409-.124-3.654.114-3.772l-13.04,7.106c-1.532.377-2.372,1.994-2.927,3.471a42.677,42.677,0,0,0-2.509,12.794c-.224,4.26-.68,8.368-.038,12.63,1.046,6.925,3.664,14.481,4.749,21.391l8.633-.772c.269-1.95.414-3.926.642-5.881.883-7.586,3.326-14.967,3.669-22.594.239-5.272-.2-10.42.622-15.662a26.956,26.956,0,0,0-.083-4.908C192,309.313,192.13,308.038,192.192,306.774Z" transform="translate(-146.777 -75.793)" fill="#ffc7ad"/>
      <path id="Path_2090" data-name="Path 2090" d="M163.262,210.216c-.379.288-.05,1,.1,1.518a9.013,9.013,0,0,1,.02,3.635,9.318,9.318,0,0,0-.29,1.523,3.658,3.658,0,0,0,.535,1.6c1.277,2.252,4.359,2.922,6.659,3.539a17.612,17.612,0,0,0,5.759.648,6.1,6.1,0,0,0,2.53-.613,5.679,5.679,0,0,0,.731-.469c.862-.7.7-2.141.794-3.117a11.156,11.156,0,0,1,.593-2.965,5.254,5.254,0,0,1,1.777-2.147s-7.824-1.318-11.629-2q-3.1-.561-6.21-1.119a4.768,4.768,0,0,0-.907-.163A.769.769,0,0,0,163.262,210.216Z" transform="translate(-151.512 -118.198)" fill="#ffc7ad"/>
      <path id="Path_2091" data-name="Path 2091" d="M187.1,194.67a8.718,8.718,0,0,1,2.463,4.011c.767,3-.031,6.137.6,9.139.555,2.638-.689,6.067-1.165,8.731-.3,1.679-.721,3.549-2.154,4.47-.862.556-1.962.666-2.78,1.277-.5.376-1.462.772-1.922,1.2-1.366,1.255-3.5,1.065-5.193.987a17.845,17.845,0,0,1-5.182-.778c-3.086-1.11-5.317-3.762-7.334-6.344C147.875,196.18,176.239,183.89,187.1,194.67Z" transform="translate(-153.211 -127.052)" fill="#ffc7ad"/>
      <path id="Path_2092" data-name="Path 2092" d="M159.9,195.871c5.616-9.7,19.165-12.877,27.789-5.1,3.935,3.551,4.936,8.339,1.615,12.448a9.383,9.383,0,0,0-1.714,3.171c-.363,1.006-.032,2.016-1.04,2.757-1.74,1.279-2.961-.928-4.771.146-3.67,2.179-.617,8.661-3.313,11.651s-8.83,2.646-12.151,1.03C157.46,217.666,155.346,203.731,159.9,195.871Z" transform="translate(-154.03 -129.005)" fill="#d6af75"/>
      <path id="Path_2093" data-name="Path 2093" d="M174.121,201.022c-2.744.264-2.881,3.744-.591,6.041a13.614,13.614,0,0,0,2.553,1.673c5.543,3.342,6.028-1.338,4.251-2.495C176.207,203.556,177.571,200.69,174.121,201.022Z" transform="translate(-147.476 -122.347)" fill="#ffc7ad"/>
      <path id="Path_2094" data-name="Path 2094" d="M175.333,205.478c-.357-.233-3.752-1.551-1.848-3.143a.946.946,0,0,1,1.451.569c.1.313.054.658.154.97a1.486,1.486,0,0,0,.3.5c.35.4,1.354.679,1.279,1.362C176.6,206.338,175.538,205.613,175.333,205.478Z" transform="translate(-147.029 -121.82)" fill="#f3a984"/>
      <path id="Path_2095" data-name="Path 2095" d="M176.659,350.766a13.314,13.314,0,0,0,.467-8.326c-.128-.491-.019-2.218-.207-2.7l9.975-2.437a34.25,34.25,0,0,0-.456,7.436c.128,2.846,3.708,3.095,5.907,3.131,1.8.029,3.612-.07,5.418-.116l3.446,1.845-1.135,3.406c-3.648,2.82-7.139,3.739-11.425,4.5-3.7.652-6.407,2.464-10.155.641-1.21-.588-2.276-.811-2.578-2.121C175.411,353.821,175.781,352.85,176.659,350.766Z" transform="translate(-145.761 -60.139)" fill="#ffc7ad"/>
      <path id="Path_2096" data-name="Path 2096" d="M175.9,350.062c.068.918.329,1.8.434,2.7a4.646,4.646,0,0,0,.773,2.365,2.7,2.7,0,0,0,.836.667,5.753,5.753,0,0,0,.989.382,4.315,4.315,0,0,0,3.277-.068c1.187-.676,1.426-2.748.961-4.27a2.861,2.861,0,0,0-2.892-2.2,14.542,14.542,0,0,0-3.133-.022A1.573,1.573,0,0,0,175.9,350.062Z" transform="translate(-145.666 -54.556)" fill="#272e67"/>
      <path id="Path_2097" data-name="Path 2097" d="M180.9,351.28a13.938,13.938,0,0,0,2.547.728,16.775,16.775,0,0,0,6.382.073c1.335-.255,2.683-.562,4-.9,1.992-.511,4.14-1.407,5.141-3.3.97-1.839-1.611-2.566-2.847-2.769-.792-.131-3.688-.3-4.334-.306-.4,0-1.972-.256-1.972-.256s4.111-.4,5.536-.373a33.921,33.921,0,0,1,4.039.084,25.873,25.873,0,0,1,3.6.6,4.568,4.568,0,0,1,2.305,3.383,3.432,3.432,0,0,1-.315,2.123,3.566,3.566,0,0,1-1.353,1.611,21.486,21.486,0,0,1-3.843,1.858,25.87,25.87,0,0,1-6.584,1.047,25.6,25.6,0,0,1-2.6.217,12.858,12.858,0,0,0-4.084.725,27.706,27.706,0,0,0-2.8.967,6.412,6.412,0,0,1-5.435-.38,4.8,4.8,0,0,1-2.534-3.46,6.338,6.338,0,0,1,.033-2.792,9.069,9.069,0,0,1,.373-1.324c.087-.21.62-1.015.533-1.19A8.435,8.435,0,0,0,180.9,351.28Z" transform="translate(-145.794 -57.013)" fill="#323974"/>
      <path id="Path_2098" data-name="Path 2098" d="M157.15,253.839c.508,1.595,1.962,2.783,2.119,4.516a33.129,33.129,0,0,0,.312,3.5,3.982,3.982,0,0,0,.856,1.9c.294.341.667.6.976.922a4.327,4.327,0,0,1,.668,1.07,5.861,5.861,0,0,1,.734,2.684c-.01,1.034-.791,2-1.918,1.595-.29-.1-1.267-.645-1.081-1.124.052-.134.239-.066.3-.179a.473.473,0,0,0-.256-.676c-.657-.2-.709.734-.683,1.143a3.366,3.366,0,0,0,5.017,2.6,10.835,10.835,0,0,0,3.709-4.081,6.156,6.156,0,0,0,1.084-3.4,8.528,8.528,0,0,0-.144-1.691,10.916,10.916,0,0,0-.785-2.307c-.936-2.119-3.184-2.619-4.649-4.186a7.337,7.337,0,0,1-.909-1.175,4.34,4.34,0,0,1-.265-4.092c.719-1.357,2.25-2.045,3.073-3.328.964-1.491.271-3.469-.574-5.027s-1.863-3.259-1.459-4.994c.526-2.3,3.35-3.54,3.826-5.856.376-1.825-.842-3.558-1.331-5.355a7.079,7.079,0,0,1,1.066-5.9c.689-.958,1.652-1.809,1.871-2.968.392-2.081-1.787-3.9-1.71-6.019.054-1.647,1.424-2.891,2.525-4.111a4.529,4.529,0,0,0,1.424-3.5,7.687,7.687,0,0,0-1.186-3.238c-2.042-2.665-6.98-4.274-9.48-1.368a4.628,4.628,0,0,0-1.137,4.427c.387,2.026.569,3.877-.47,5.747-.952,1.711-2.377,3.165-2.887,5.1a11.014,11.014,0,0,0-.255,4.052c.165,1.086.817,1.662,1.276,2.611a7.942,7.942,0,0,1,.971,3.79c-.124,2.766-2.434,5.045-2.633,7.809a9.742,9.742,0,0,0,1.711,5.355c.357.626.685,1.309,1.1,1.9a3.757,3.757,0,0,1,.772,1.606c.262,1.826-.837,3.168-1.609,4.687a7.432,7.432,0,0,0-.8,2.85,8.65,8.65,0,0,0,.32,2.9c.13.482.312.948.412,1.435C157.077,253.59,157.111,253.715,157.15,253.839Z" transform="translate(-155.139 -123.879)" fill="#c29e67"/>
      <path id="Path_2099" data-name="Path 2099" d="M203.672,288.3c1.241-21.281-2.651-31.969-2.651-31.969s-25.975,5.764-35.737-2.624c-.578,1.257-1.668,3.482-2.163,4.742a46.3,46.3,0,0,0-3.044,15.445c-.462,8.7.336,18,1,26.675.684,8.99.549,35.5,3.256,36.137a17.178,17.178,0,0,0,4.41.336s2.024-12.787,2.568-14.139c.749,3.354.313,7.011.615,10.428a20.266,20.266,0,0,0,.39,3.3c.309,1.184,1.148,1.472,2.316,1.649,1.139.173,14.938,1.863,21.988.061a3.674,3.674,0,0,0,2.93-3.338C199.844,333.167,203.266,295.29,203.672,288.3Z" transform="translate(-152.947 -98.289)" fill="url(#linear-gradient)"/>
      <path id="Path_2100" data-name="Path 2100" d="M200.085,257.893c-.277-1.017-.466-1.558-.466-1.558s-25.973,5.764-35.737-2.624c-.23.5-.546,1.165-.868,1.851,4.36,2.728,10.824,4.094,16.507,4.4C186.427,260.331,193.519,259.071,200.085,257.893Z" transform="translate(-151.545 -98.289)" fill="#252956"/>
      <path id="Path_2101" data-name="Path 2101" d="M228.6,207.211c-.288-.454-.578-.284-.888.048-.249.264-.467.553-.721.814-.032.032-.695.657-.749.489a1.231,1.231,0,0,1,.087-.651c.08-.283.205-.549.294-.827a6.611,6.611,0,0,1,.31-.7,4.665,4.665,0,0,1,.348-.667,2.1,2.1,0,0,0,.226-.619c.1-.4.1-.885-.329-1.1-.6-.293-.931.47-1.239.826-.175.2-.491,1.086-.821,1.038-.312-.045-.165-1.181-.14-1.389a7.533,7.533,0,0,0,.216-2.527c-.117-.524-.5-1.266-1.021-.609a3.815,3.815,0,0,0-.514,1.483c-.181.657-.379,1.3-.58,1.956-.049.157-.255,1.123-.4,1.117-.111,0-.194-.338-.216-.4a10.72,10.72,0,0,1-.44-1.653c-.074-.447-.08-.906-.154-1.353-.079-.481-.261-1.729-1-1.6-.7.127-.721,1.509-.709,2.026a15,15,0,0,1-.223,3.2,7.054,7.054,0,0,1-1.739,3.737,2.079,2.079,0,0,1-1.643.687,8.49,8.49,0,0,1,.683-3.149,3.217,3.217,0,0,0-.007-2.7c-.24-.414-.562-1.11-1.137-1.073a1.1,1.1,0,0,0-.922,1.025,14.366,14.366,0,0,1-.1,1.461,5.507,5.507,0,0,1-.516,1.282c-.4.737-.906,1.455-1.226,2.224a5.731,5.731,0,0,0-.389,2.473c.015.3.055.6.08.9a14.373,14.373,0,0,1-.009,2.154c-.13,2.024-1.4,4.052-1.88,6.047-.44,1.8,1.4,2.122,2.9,2.336a3.723,3.723,0,0,0,3.166-.858,19.076,19.076,0,0,0,2.17-2.474,22.136,22.136,0,0,1,1.7-1.6c.205-.182.411-.366.619-.543.709-.6,1.391-1.232,2.061-1.874a19.3,19.3,0,0,0,2.345-2.706c.668-.934,1.118-1.947,1.71-2.923.156-.261.322-.514.482-.772A2.51,2.51,0,0,0,228.6,207.211Z" transform="translate(-129.616 -122.396)" fill="#ffc7ad"/>
      <path id="Path_2102" data-name="Path 2102" d="M188.475,224.229c-8.392-1.815-11.644,1.193-12.363,7.958-.3,2.859,1.311,5.729,3.484,7.6a14.057,14.057,0,0,0,7.183,2.812c2.841.438,15.215,1.641,18.585,1.643a42.627,42.627,0,0,0,10.273-1.4c5.974-1.465,9.934-5.614,13.173-10.633,1.318-2.04,8.151-14.819,8.451-15.982.368-1.424.119-2.212-1.255-2.91a17.638,17.638,0,0,0-6.2-2.032c-2.5-.157-3.565,1.462-5,3.332-1.1,1.435-5.729,9.149-7.428,11.312a8.015,8.015,0,0,1-6.127,3.469,30.657,30.657,0,0,1-11.31-2.118A90.483,90.483,0,0,0,188.475,224.229Z" transform="translate(-145.583 -117.657)" fill="#edecf8"/>
      <path id="Path_2103" data-name="Path 2103" d="M161.063,236.779a3.9,3.9,0,0,1-3.041,1.352.87.87,0,0,0-.229,1.7c1.816.466,3.312-.527,4.542-1.781C163.15,237.222,161.841,235.923,161.063,236.779Z" transform="translate(-154.21 -106.145)" fill="#272e67"/>
    </g>
    <g id="Group_2177" data-name="Group 2177" transform="translate(336.364 143.661)">
      <g id="Group_2148" data-name="Group 2148" transform="translate(35.284 254.746)">
        <g id="Group_2147" data-name="Group 2147" style="isolation: isolate">
          <g id="Group_2142" data-name="Group 2142" transform="translate(22.702 13.081)">
            <path id="Path_2104" data-name="Path 2104" d="M290.189,323.494,341.4,293.737l-.048,17.077-51.206,29.759Z" transform="translate(-290.142 -293.737)" fill="#bfbeed"/>
          </g>
          <g id="Group_2143" data-name="Group 2143" transform="translate(0.095)">
            <path id="Path_2105" data-name="Path 2105" d="M274.619,314.513l51.207-29.758,22.655,13.081-51.207,29.758Z" transform="translate(-274.619 -284.755)" fill="#edecf8"/>
          </g>
          <g id="Group_2144" data-name="Group 2144" transform="translate(45.311 43.239)">
            <path id="Path_2106" data-name="Path 2106" d="M305.712,344.2l51.207-29.758-.047,16.417L305.666,360.62Z" transform="translate(-305.666 -314.444)" fill="#bfbeed"/>
          </g>
          <g id="Group_2145" data-name="Group 2145" transform="translate(22.702 30.158)">
            <path id="Path_2107" data-name="Path 2107" d="M290.142,335.221l51.206-29.759L364,318.543,312.8,348.3Z" transform="translate(-290.142 -305.463)" fill="#edecf8"/>
          </g>
          <g id="Group_2146" data-name="Group 2146" transform="translate(0 29.758)">
            <path id="Path_2108" data-name="Path 2108" d="M297.3,318.268l-.048,17.078,22.655,13.08-.046,16.418-45.311-26.161.095-33.5Z" transform="translate(-274.554 -305.188)" fill="#e1def8"/>
          </g>
        </g>
      </g>
      <g id="Group_2176" data-name="Group 2176">
        <path id="Path_2109" data-name="Path 2109" d="M306.406,149.577c-1.2.546-3.323,1.975-3.454,3.51-.108,1.266,1.238,3.157,1.72,4.257,1.519,3.456,3.13,6.862,4.741,10.267.731,1.545,1.464,3.09,2.241,4.608a75.923,75.923,0,0,0,8.044,12.5c1.19,1.5,3.108,4.024,4.936,4.729,1.807.7,3.637-.154,5.271-1.346,2.917-2.126,7.793-1.167,7.337-4.812s-5.269-10.535-7.292-13.29a182.669,182.669,0,0,0-15.159-18.081,11.363,11.363,0,0,0-3.224-2.616A6.4,6.4,0,0,0,306.406,149.577Z" transform="translate(-226.312 -92.021)" fill="#edecf8"/>
        <path id="Path_2110" data-name="Path 2110" d="M360.267,200.085c-.208,6.912-3.778,18.583-15.4,7.85-7.039-6.5-18.872-17.1-25.459-24.1-7.473-7.933-4.981-13.725-1.126-16.119,5.218-3.242,8.121.466,8.775.875C347.646,181.487,360.429,194.708,360.267,200.085Z" transform="translate(-221.003 -84.025)" fill="#edecf8"/>
        <g id="Group_2158" data-name="Group 2158">
          <g id="Group_2157" data-name="Group 2157" style="isolation: isolate">
            <g id="Group_2150" data-name="Group 2150" transform="translate(41.468 47.731)">
              <g id="Group_2149" data-name="Group 2149">
                <path id="Path_2111" data-name="Path 2111" d="M345.861,142.612l-20.969,36.077L278.8,205.474,299.769,169.4Z" transform="translate(-278.8 -142.612)" fill="#bfbeed"/>
              </g>
            </g>
            <path id="Path_2112" data-name="Path 2112" d="M312.764,175.961l-20.969,36.076-41.468-47.731L271.3,128.23Z" transform="translate(-250.327 -101.444)" fill="#e1def8"/>
            <g id="Group_2154" data-name="Group 2154" transform="translate(17.048 49.121)">
              <g id="Group_2153" data-name="Group 2153" style="isolation: isolate">
                <g id="Group_2152" data-name="Group 2152">
                  <g id="Group_2151" data-name="Group 2151">
                    <path id="Path_2113" data-name="Path 2113" d="M280.278,156.854a10.337,10.337,0,0,1,2.195,3.654,3.653,3.653,0,0,1-.16,2.956q-1.575,2.709-4.844-1l-4.289-4.936,3.08-5.3Zm-5.306,7.528c2.355,2.776,3.061,4.933,2.132,6.53a1.564,1.564,0,0,1-2.005.9,9.281,9.281,0,0,1-3.182-2.689l-3.281-3.776,2.876-4.947Zm-12.94-1.153,7.975,9.18q4.151,4.78,7.088,5.863a3.3,3.3,0,0,0,4.47-1.554,5.735,5.735,0,0,0,.622-3.533,11.8,11.8,0,0,0-1.456-4.365,5.836,5.836,0,0,0,3.644,1.637,2.867,2.867,0,0,0,2.638-1.644,7.96,7.96,0,0,0,.4-6.694,25.307,25.307,0,0,0-5.1-8.37l-8.848-10.183Z" transform="translate(-262.032 -143.566)" fill="#323974"/>
                  </g>
                </g>
              </g>
            </g>
            <g id="Group_2156" data-name="Group 2156" transform="translate(20.969)">
              <g id="Group_2155" data-name="Group 2155">
                <path id="Path_2114" data-name="Path 2114" d="M352.285,157.569l-46.092,26.786-41.468-47.731,46.093-26.786Z" transform="translate(-264.724 -109.838)" fill="#edecf8"/>
              </g>
            </g>
          </g>
        </g>
        <path id="Path_2115" data-name="Path 2115" d="M268.863,171.442c.3-.479.609-.3.938.051.262.278.492.584.759.858.034.035.733.693.788.517a1.293,1.293,0,0,0-.092-.687c-.084-.3-.216-.578-.309-.872a7.308,7.308,0,0,0-.328-.734,4.86,4.86,0,0,0-.367-.7,2.2,2.2,0,0,1-.237-.652c-.1-.425-.1-.934.347-1.153.629-.31.982.5,1.306.868.185.216.517,1.146.867,1.1.326-.047.173-1.245.146-1.465a8,8,0,0,1-.227-2.664c.124-.552.526-1.334,1.078-.642a4.037,4.037,0,0,1,.54,1.564c.191.692.4,1.373.613,2.061.051.167.266,1.183.424,1.177.117,0,.2-.355.227-.422a11.19,11.19,0,0,0,.463-1.743c.079-.47.084-.952.163-1.426.084-.505.275-1.822,1.051-1.682.743.134.762,1.59.75,2.135a15.831,15.831,0,0,0,.233,3.369,7.419,7.419,0,0,0,1.835,3.94,2.2,2.2,0,0,0,1.732.725,8.932,8.932,0,0,0-.721-3.318,3.4,3.4,0,0,1,.007-2.846c.252-.437.593-1.169,1.2-1.132a1.164,1.164,0,0,1,.973,1.082,15.048,15.048,0,0,0,.1,1.538,5.89,5.89,0,0,0,.545,1.352,26.664,26.664,0,0,1,1.29,2.345,6,6,0,0,1,.411,2.605c-.014.322-.058.631-.084.948a14.959,14.959,0,0,0,.01,2.27c.137,2.134,1.47,4.272,1.982,6.375.463,1.9-1.472,2.236-3.054,2.463a3.936,3.936,0,0,1-3.338-.9,20.114,20.114,0,0,1-2.287-2.61,23.4,23.4,0,0,0-1.794-1.686c-.217-.192-.433-.386-.654-.574-.747-.632-1.465-1.3-2.171-1.975a20.4,20.4,0,0,1-2.47-2.853c-.706-.983-1.181-2.052-1.8-3.08-.166-.274-.341-.542-.51-.814A2.646,2.646,0,0,1,268.863,171.442Z" transform="translate(-241.982 -84.765)" fill="#ffc7ad"/>
        <g id="man" transform="translate(96.05 287.893)">
          <g id="Group_2163" data-name="Group 2163">
            <g id="Group_2162" data-name="Group 2162">
              <g id="Group_2161" data-name="Group 2161">
                <g id="Group_2160" data-name="Group 2160">
                  <g id="Group_2159" data-name="Group 2159">
                    <path id="Path_2116" data-name="Path 2116" d="M345.2,319.9c-.431-1.1-1.2-.738-2.1-.932a8.125,8.125,0,0,1-3.057-1.625c-1.14-.877-2.139-1.92-3.205-2.885a30.649,30.649,0,0,0-9.456-5.842c-2.241-.871-4.617-1.563-6.978-.718a7.192,7.192,0,0,0-3.325,2.477,5.714,5.714,0,0,0-.8,3.705,8.788,8.788,0,0,0,.382,2.662,10.931,10.931,0,0,0,3.211,4.317,18.558,18.558,0,0,0,5.09,3.618,46.635,46.635,0,0,1,4.771,1.847,10.379,10.379,0,0,1,2.592,2.23,8.252,8.252,0,0,0,1.87,2.032,11.781,11.781,0,0,0,5.55,1.669c3.8.02,6.775-2.479,6.663-6.391a19.675,19.675,0,0,0-.714-4.139A20.252,20.252,0,0,0,345.2,319.9Z" transform="translate(-316.277 -307.515)" fill="#261d22"/>
                  </g>
                </g>
              </g>
            </g>
          </g>
        </g>
        <path id="Path_2117" data-name="Path 2117" d="M322.173,252.131c-.016-1.149,26.221-21.7,26.221-21.7a172.182,172.182,0,0,1,.9,29.388c-.69,11.418-3.156,29.648-3.875,41.258-.488,7.869-.5,23.889-.548,31.77-.044,7.715-.66,15.438-1.225,23.129-.127,1.727-.285,3.546-1.551,4.824a8.457,8.457,0,0,1-4.853,2.221,9.467,9.467,0,0,1-7.653-2.69c-1.257-1.251-1.207-3.718-1.4-5.383-.173-1.512-.255-3.032-.312-4.554-.163-4.385-.165-8.778-.312-13.164q-.229-6.945-.718-13.881-.317-4.555-.717-9.1c-.147-1.673-.3-11.473-.46-13.145-.488-4.7-1.241-9.389-1.7-14.16q-1.282-13.37-1.644-26.809-.09-3.355-.121-6.714C322.205,252.948,322.179,252.517,322.173,252.131Z" transform="translate(-217.537 -54.8)" fill="#272e67"/>
        <g id="man-2" data-name="man" transform="translate(57.469 259.656)">
          <g id="Group_2168" data-name="Group 2168">
            <g id="Group_2167" data-name="Group 2167">
              <g id="Group_2166" data-name="Group 2166">
                <g id="Group_2165" data-name="Group 2165">
                  <g id="Group_2164" data-name="Group 2164">
                    <path id="Path_2118" data-name="Path 2118" d="M321.241,295.837c-.692-1.025-1.4-.481-2.361-.475a8.586,8.586,0,0,1-3.513-.971c-1.369-.639-2.633-1.481-3.947-2.23a32.233,32.233,0,0,0-11.039-3.835,10.436,10.436,0,0,0-8.948,2.285,5.029,5.029,0,0,0-1.6,2.763,8.061,8.061,0,0,0,.4,3.095,9.258,9.258,0,0,0,1,2.645,11.455,11.455,0,0,0,4.279,3.7,19.553,19.553,0,0,0,6.05,2.55,48.576,48.576,0,0,1,5.319.807,10.821,10.821,0,0,1,3.169,1.7,8.757,8.757,0,0,0,2.383,1.659,12.382,12.382,0,0,0,6.076.446c3.9-.848,6.389-4.094,5.383-8.08a20.863,20.863,0,0,0-1.681-4.087A21.426,21.426,0,0,0,321.241,295.837Z" transform="translate(-289.786 -288.126)" fill="#261d22"/>
                  </g>
                </g>
              </g>
            </g>
          </g>
        </g>
        <path id="Path_2119" data-name="Path 2119" d="M306.058,204.116c-.1,1.308.118,3.862,1.4,4.722,1.053.708,3.363.447,4.558.559,3.759.348,7.519.59,11.278.832,1.705.111,3.411.221,5.115.277a76.04,76.04,0,0,0,14.83-.977c1.889-.312,5.026-.766,6.529-2.021s1.628-3.258,1.379-5.263c-.444-3.581-2.215-7.1-5.623-8.463s-6.8-.786-10.185-.354a182.542,182.542,0,0,0-23.164,4.49,11.315,11.315,0,0,0-3.852,1.554A6.386,6.386,0,0,0,306.058,204.116Z" transform="translate(-224.902 -71.919)" fill="#fff"/>
        <g id="Group_2173" data-name="Group 2173" transform="translate(89.384 104.435)">
          <g id="Group_2172" data-name="Group 2172">
            <g id="Group_2171" data-name="Group 2171">
              <g id="Group_2170" data-name="Group 2170">
                <g id="Group_2169" data-name="Group 2169">
                  <path id="Path_2120" data-name="Path 2120" d="M314.365,255.6h39.219c-.012-.422-.022-.853-.017-1.4.006-.411.009-.82.013-1.229.076-7.894-.252-16.062.968-23.879.189-1.215.428-2.435.731-3.623,1.047-4.12,2.53-8.132,3.506-12.271,1.164-4.939,2.863-9.71,3.309-14.809l.009-.1c.277-3.249.3-6.983-1.6-9.8a8.272,8.272,0,0,0-4.055-2.981c-2.262-.919-4.541-1.7-6.854-2.485a19.325,19.325,0,0,0-4.049-1.4c-4.05-.395-8.055.792-11.9,1.95-1.113.333-2.63.734-3.3,1.726a20.7,20.7,0,0,1-2.555,3.242,35.953,35.953,0,0,1-6.692,4.877c-2.059,1.258-4.175,2.367-6.156,3.765-1.924,1.359-3.408,2.809-3.224,5.287.068.91.6,7.088.8,9.255.264,2.853,2.128,36.469,2.1,39.091A40.05,40.05,0,0,1,314.365,255.6Z" transform="translate(-311.7 -181.547)" fill="#e1def8"/>
                </g>
              </g>
            </g>
          </g>
        </g>
        <path id="Path_2121" data-name="Path 2121" d="M339.037,201.408c-.322,6.662-5.435,9.785-15.148,8.205-14.711-2.391-26.263-2.881-33.966-5.447a6.662,6.662,0,0,1-3.546-8.958c2.224-5.638,8.211-5.814,9.9-5.71,17.724,1.078,24.075.114,28.644.484C327.686,190.205,339.586,190,339.037,201.408Z" transform="translate(-234.136 -73.491)" fill="#edecf8"/>
        <path id="Path_2122" data-name="Path 2122" d="M277.917,177.008c-1.142.651-3.128,2.269-3.12,3.808.007,1.27,1.52,3.031,2.1,4.082,1.828,3.3,3.741,6.551,5.655,9.794.868,1.472,1.737,2.945,2.651,4.384a57.184,57.184,0,0,0,7.387,9.8c1.737,1.739,4.815,1.775,7.142,1.311,3.072-.612,6.181-2.6,7.266-5.661,1.4-3.941-1.36-6.595-3.776-9.327a182.562,182.562,0,0,0-16.744-16.626,11.334,11.334,0,0,0-3.447-2.311A6.4,6.4,0,0,0,277.917,177.008Z" transform="translate(-239.159 -79.641)" fill="#edecf8"/>
        <path id="Path_2123" data-name="Path 2123" d="M322.4,184.674c-.339-2.319-2.091-1.781-1.207-3.881a11.361,11.361,0,0,1,3.427-4.614,8.213,8.213,0,0,1,5.4-1.778c.667.035,1.113.416,1.774.419a38.493,38.493,0,0,1,5.482-.079c1.812.262,3.489.395,3.487,2.439,0,2.729-.124,5.352.747,8.035a19.5,19.5,0,0,1,1.3,4.315c.246,2.954-18.768,5.237-19.8,3.57-.772-1.257-.938-.817-.772-2.192A23.405,23.405,0,0,0,322.4,184.674Z" transform="translate(-218.098 -80.378)" fill="#ffc7ad"/>
        <path id="Path_2124" data-name="Path 2124" d="M322.019,187.115c-.623,1.684-.747,2.338-.382,3.157.992,2.224,6.775,2.351,8.315,2.291,1.8-.073,12.26-2.214,13.045-6.447a14.484,14.484,0,0,0-1.247-3.414c-1.595,1.663-7.211,4.615-11.154,5.14A21.138,21.138,0,0,1,322.019,187.115Z" transform="translate(-217.875 -76.584)" fill="#edecf8"/>
        <g id="Group_2175" data-name="Group 2175" transform="translate(92.495 62.955)">
          <g id="Group_2174" data-name="Group 2174" transform="translate(3.049 5.976)">
            <path id="Path_2125" data-name="Path 2125" d="M318.288,162.754a9.464,9.464,0,0,0-2.224,4.612c-.588,3.937,1,7.982.141,11.89-.827,3.784.8,12.378,8.258,14.58,3.775,1.116,11.227-.189,13.624-1.337,3.216-1.541,5.341-4.659,7.241-7.678C360.919,160.072,328.858,149.89,318.288,162.754Z" transform="translate(-315.93 -157.169)" fill="#ffc7ad"/>
          </g>
          <path id="Path_2126" data-name="Path 2126" d="M349.462,161.047a9.442,9.442,0,0,0-2.812-1.973,2.618,2.618,0,0,1-.951-.6,3.334,3.334,0,0,1-.393-.744,6.058,6.058,0,0,0-2.69-2.557c-4.158-2.314-9.2-2.425-13.911-1.748a18.38,18.38,0,0,0-4.662,1.177,16.288,16.288,0,0,0-4.523,3.085,18.239,18.239,0,0,0-4.706,6.249,31.919,31.919,0,0,0-.875,3.465,2.775,2.775,0,0,0,.923,2.9c.368.281.805.462,1.19.721,1.58,1.066,1.876,3.53,2.559,5.2.433,1.053,1.286,1.627,1.531,2.76.253,1.18.232,2.407.6,3.562.179.548.543,1.139,1.118,1.174a1.169,1.169,0,0,0,.673-.2,3.258,3.258,0,0,0,1.229-1.938,8.478,8.478,0,0,1,.781-2.206.53.53,0,0,1,.242-.237.481.481,0,0,1,.28-.006,2.6,2.6,0,0,1,1.711,1.429,11.239,11.239,0,0,1,.955,2.646,27.967,27.967,0,0,1,.61,4.056,7.247,7.247,0,0,0,1.6,4.063c2.265,2.442,6.619,2.305,9.566,1.652a14.252,14.252,0,0,0,3.122-.96c2.271-1.1,3.82-3.242,5.269-5.3a22.772,22.772,0,0,0,3.361-6.009,23.115,23.115,0,0,0,.753-3.82C352.733,171.664,353.279,164.972,349.462,161.047Z" transform="translate(-313.836 -153.065)" fill="#c99c83"/>
          <path id="Path_2127" data-name="Path 2127" d="M324.962,168.481c2.932-.636,4.228,2.927,2.616,6.066a14.833,14.833,0,0,1-2.088,2.581c-4.636,5.3-6.694.613-5.234-1.175C323.64,171.8,321.276,169.284,324.962,168.481Z" transform="translate(-311.118 -146.064)" fill="#ffc7ad"/>
          <path id="Path_2128" data-name="Path 2128" d="M323.721,173.615c.293-.363,3.373-2.852.874-3.868-.692-.283-1.318.38-1.317,1.07,0,.355.163.7.163,1.056a1.617,1.617,0,0,1-.141.613c-.226.533-1.18,1.151-.875,1.835C322.7,174.929,323.55,173.825,323.721,173.615Z" transform="translate(-309.944 -145.483)" fill="#f3a984"/>
        </g>
        <path id="Path_2129" data-name="Path 2129" d="M292.616,274.788c1.934,9.3,9.142,40.953,11.414,45.474,1.137,2.266,2.381,3.058,4.92,3.31a13.881,13.881,0,0,0,6.887-1.171c2.051-.907,4.56-2.147,5.207-4.523.293-1.072-.234-2.48-.475-3.551-.757-3.353-1.548-6.7-2.337-10.045-1.3-5.53-2.541-19.217-4-24.709q-1.761-6.635-3.792-13.193c-.62-2.017-.609-1.2-1.185-3.232-.46-1.625-.536-4.143-1.611-5.5-2.064-2.6.173-13.518.173-13.518s-10.6,10.1-12.835,12.781C289.429,263.563,291.641,270.1,292.616,274.788Z" transform="translate(-231.604 -48.55)" fill="#323974"/>
        <path id="Path_2130" data-name="Path 2130" d="M353.319,233.295c-.232-1.621-.371-4.652-.371-4.652-18.228,8.9-39,.68-39,.68a20.966,20.966,0,0,1-.8,4.531C326.539,239.18,339.929,239.693,353.319,233.295Z" transform="translate(-221.656 -55.618)" fill="#252956"/>
        <path id="Path_2131" data-name="Path 2131" d="M317.177,230.176v4.963c1,.29,2,.513,3,.744v-5.023C319.083,230.639,318.078,230.406,317.177,230.176Z" transform="translate(-219.817 -54.918)" fill="#323974"/>
        <path id="Path_2132" data-name="Path 2132" d="M335.7,230.68v4.905c1-.293,2-.642,3-1v-4.834C337.7,230.09,336.7,230.411,335.7,230.68Z" transform="translate(-211.365 -55.113)" fill="#323974"/>
        <path id="Path_2133" data-name="Path 2133" d="M321.961,232.4a23.58,23.58,0,0,1-6.309,8.641c-2.419,2.174-18.521,17.648-19.842,19.818-1.133,1.86-1.427,4.212-1.892,6.3-.811,3.648,4.962,4.142,5.824,7.779,1.146,4.844-.211,7.263,4.272,8.116a6.592,6.592,0,0,0,3.74-.121,7.307,7.307,0,0,0,1.819-1.213,118.216,118.216,0,0,1,10.889-8.559c11.571-7.994,23.548-7.806,35.523-15.27a12.964,12.964,0,0,0,5.638-7.953c.47-2.352,1.21-13.172.508-18.094C348.741,238.235,335.351,237.722,321.961,232.4Z" transform="translate(-230.468 -54.16)" fill="#323974"/>
      </g>
    </g>
    <g id="Group_2180" data-name="Group 2180" transform="translate(304.679 453.101)">
      <g id="Group_2179" data-name="Group 2179">
        <g id="Group_2178" data-name="Group 2178">
          <path id="Path_2134" data-name="Path 2134" d="M278.147,379.377l-49.576-28.623,49.267-28.445,49.576,28.623Z" transform="translate(-228.571 -322.31)" fill="#3c4384"/>
          <path id="Path_2135" data-name="Path 2135" d="M311.879,341.964l-49.267,28.444v55.031L311.879,397Z" transform="translate(-213.035 -313.341)" fill="#272e67"/>
          <path id="Path_2136" data-name="Path 2136" d="M228.571,341.841l49.576,28.623V425.5l-49.576-28.623Z" transform="translate(-228.571 -313.397)" fill="url(#linear-gradient-2)"/>
        </g>
      </g>
    </g>
    <g id="Group_2183" data-name="Group 2183" transform="translate(260.57 500.517)">
      <g id="Group_2182" data-name="Group 2182">
        <g id="Group_2181" data-name="Group 2181">
          <path id="Path_2137" data-name="Path 2137" d="M227.369,388.347l-29.085-16.792,28.9-16.688,29.086,16.792Z" transform="translate(-198.285 -354.867)" fill="#edecf8"/>
          <path id="Path_2138" data-name="Path 2138" d="M247.159,366.4l-28.9,16.688V415.37l28.9-16.687Z" transform="translate(-189.17 -349.605)" fill="#bfbeed"/>
          <path id="Path_2139" data-name="Path 2139" d="M198.285,366.326l29.085,16.792V415.4L198.285,398.61Z" transform="translate(-198.285 -349.638)" fill="#e1def8"/>
        </g>
      </g>
    </g>
  </g>
</svg>
