<svg xmlns="http://www.w3.org/2000/svg" width="16.749" height="13.603" viewBox="0 0 16.749 13.603">
  <path id="Icon_awesome-twitter" data-name="Icon awesome-twitter" d="M15.027,6.771c.011.149.011.3.011.446a9.7,9.7,0,0,1-9.767,9.767A9.7,9.7,0,0,1,0,15.443a7.1,7.1,0,0,0,.829.042,6.875,6.875,0,0,0,4.262-1.467,3.439,3.439,0,0,1-3.209-2.381,4.329,4.329,0,0,0,.648.053,3.631,3.631,0,0,0,.9-.117A3.433,3.433,0,0,1,.68,8.206V8.163A3.457,3.457,0,0,0,2.232,8.6,3.438,3.438,0,0,1,1.169,4.008,9.757,9.757,0,0,0,8.247,7.6a3.875,3.875,0,0,1-.085-.786A3.436,3.436,0,0,1,14.1,4.465a6.758,6.758,0,0,0,2.179-.829,3.423,3.423,0,0,1-1.509,1.892A6.881,6.881,0,0,0,16.749,5a7.379,7.379,0,0,1-1.722,1.775Z" transform="translate(0 -3.381)" fill="#fff"/>
</svg>
