<svg xmlns="http://www.w3.org/2000/svg" width="22.9" height="22.8" viewBox="0 0 22.9 22.8">
  <path id="Icon_material-phone-in-talk" data-name="Icon material-phone-in-talk" d="M26.128,20.333a14.511,14.511,0,0,1-4.542-.722,1.3,1.3,0,0,0-1.3.3l-2.8,2.787a19.1,19.1,0,0,1-8.384-8.347l2.8-2.8a1.212,1.212,0,0,0,.318-1.267A14.332,14.332,0,0,1,11.5,5.767,1.273,1.273,0,0,0,10.225,4.5H5.772A1.273,1.273,0,0,0,4.5,5.767,21.579,21.579,0,0,0,26.128,27.3,1.273,1.273,0,0,0,27.4,26.033V21.6A1.273,1.273,0,0,0,26.128,20.333ZM24.856,15.9H27.4A11.426,11.426,0,0,0,15.95,4.5V7.033A8.88,8.88,0,0,1,24.856,15.9Zm-5.089,0h2.544A6.35,6.35,0,0,0,15.95,9.567V12.1A3.8,3.8,0,0,1,19.767,15.9Z" transform="translate(-4.5 -4.5)" fill="#fff"/>
</svg>
