<svg xmlns="http://www.w3.org/2000/svg" width="32.269" height="25" viewBox="0 0 32.269 25">
  <path id="Icon_simple-minutemailer" data-name="Icon simple-minutemailer" d="M7.481,4.055l4.639,5.02L8.847,15.526l6.911-1.238L18.9,21.879,32.269,4.354ZM6.626,14.929l1.287-1.058L6.253,14.4l-.169-.242.686-.666-.9.363a9.158,9.158,0,0,0-3,15.2,9.093,9.093,0,0,1-1.19-4.511,9.387,9.387,0,0,1,5.8-8.632l.424-1.03-1.008.445-.284-.383.015-.015Zm5.868-2.649,2.149-3.793L27.278,5.528,12.493,12.28Z" transform="translate(0 -4.055)" fill="#fff"/>
</svg>
