<svg xmlns="http://www.w3.org/2000/svg" width="16.749" height="16.745" viewBox="0 0 16.749 16.745">
  <path id="Icon_awesome-instagram" data-name="Icon awesome-instagram" d="M8.371,6.317a4.293,4.293,0,1,0,4.293,4.293A4.286,4.286,0,0,0,8.371,6.317Zm0,7.084a2.791,2.791,0,1,1,2.791-2.791A2.8,2.8,0,0,1,8.371,13.4Zm5.47-7.26a1,1,0,1,1-1-1A1,1,0,0,1,13.841,6.141Zm2.843,1.016a4.956,4.956,0,0,0-1.353-3.509A4.988,4.988,0,0,0,11.824,2.3c-1.383-.078-5.526-.078-6.909,0A4.981,4.981,0,0,0,1.406,3.645,4.972,4.972,0,0,0,.054,7.154c-.078,1.383-.078,5.526,0,6.909a4.956,4.956,0,0,0,1.353,3.509,5,5,0,0,0,3.509,1.353c1.383.078,5.526.078,6.909,0a4.956,4.956,0,0,0,3.509-1.353,4.988,4.988,0,0,0,1.353-3.509c.078-1.383.078-5.523,0-6.905ZM14.9,15.546a2.826,2.826,0,0,1-1.592,1.592c-1.1.437-3.718.336-4.936.336s-3.837.1-4.936-.336a2.826,2.826,0,0,1-1.592-1.592c-.437-1.1-.336-3.718-.336-4.936s-.1-3.837.336-4.936A2.826,2.826,0,0,1,3.435,4.083c1.1-.437,3.718-.336,4.936-.336s3.837-.1,4.936.336A2.826,2.826,0,0,1,14.9,5.674c.437,1.1.336,3.718.336,4.936S15.336,14.448,14.9,15.546Z" transform="translate(0.005 -2.238)" fill="#fff"/>
</svg>
