<svg xmlns="http://www.w3.org/2000/svg" width="13.849" height="13.848" viewBox="0 0 13.849 13.848">
  <path id="Icon_awesome-linkedin-in" data-name="Icon awesome-linkedin-in" d="M3.1,13.849H.229V4.6H3.1ZM1.663,3.342A1.671,1.671,0,1,1,3.326,1.663,1.677,1.677,0,0,1,1.663,3.342ZM13.846,13.849H10.981v-4.5c0-1.073-.022-2.448-1.493-2.448C8,6.9,7.766,8.065,7.766,9.271v4.578H4.9V4.6H7.652V5.864h.04a3.017,3.017,0,0,1,2.717-1.493c2.906,0,3.44,1.913,3.44,4.4v5.079Z" transform="translate(0 -0.001)" fill="#fff"/>
</svg>
