<svg xmlns="http://www.w3.org/2000/svg" width="797.576" height="801.442" viewBox="0 0 797.576 801.442">
  <g id="Opaque_Logo_Footer" data-name="Opaque Logo Footer" transform="translate(855.759 -37.466) rotate(90)" opacity="0.15">
    <g id="Group_67" data-name="Group 67" transform="translate(37.466 58.183)">
      <path id="Path_55" data-name="Path 55" d="M398.605,58.183V167.92A289.474,289.474,0,0,0,298.43,200.852C207.877,250.368,146.469,346.5,146.469,456.975S207.877,663.582,298.43,713.1V432.259H838.154q.759,12.261.755,24.716a403,403,0,0,1-5.4,65.928c-27.381,165.422-156.074,296.639-320.2,327.76V738.927A292.165,292.165,0,0,0,722.425,522.9H398.605V855.759A398.273,398.273,0,0,1,298.43,832.649C146.029,775.926,37.466,629.127,37.466,456.975S146.029,138.015,298.43,81.292A398.64,398.64,0,0,1,398.605,58.183Z" transform="translate(-37.466 -58.183)" fill="#fff"/>
    </g>
    <g id="Group_68" data-name="Group 68" transform="translate(513.303 63.279)">
      <path id="Path_56" data-name="Path 56" d="M263.159,60.6C426.717,91.614,555.1,222.035,583.078,386.654H471.884A292.194,292.194,0,0,0,263.159,172.342Z" transform="translate(-263.159 -60.6)" fill="#9ec124"/>
    </g>
  </g>
</svg>
