<svg xmlns="http://www.w3.org/2000/svg" width="400" height="300" viewBox="0 0 463.06 465.305">
  <g id="Symbol" transform="translate(-1178.875 -887)">
    <g id="Logo_Symbol" data-name="Logo Symbol" transform="translate(1641.935 887) rotate(90)">
      <g id="Group_43" data-name="Group 43" transform="translate(0 0)">
        <path id="Path_48" data-name="Path 48" d="M209.671,0V63.711a169.406,169.406,0,0,0-58.16,316.523V217.184H464.868q.439,7.119.437,14.348A232.437,232.437,0,0,1,276.264,460.1V395.23A169.628,169.628,0,0,0,397.677,269.81H209.671V463.06a231.2,231.2,0,0,1-58.16-13.417C63.03,416.711,0,331.482,0,231.532S63.03,46.35,151.511,13.417A231.441,231.441,0,0,1,209.671,0Z" fill="#fff"/>
      </g>
      <g id="Group_44" data-name="Group 44" transform="translate(276.264 2.96)">
        <path id="Path_49" data-name="Path 49" d="M0,0A232.865,232.865,0,0,1,185.74,189.3H121.182A169.641,169.641,0,0,0,0,64.874Z" transform="translate(0)" fill="#9ec124"/>
      </g>
    </g>
  </g>
</svg>
