<svg xmlns="http://www.w3.org/2000/svg" width="704.8" height="536.324" viewBox="0 0 704.8 536.324">
  <g id="Group_167" data-name="Group 167" transform="translate(-26.309 -57.518)">
    <g id="Plants" transform="translate(26.309 427.95)">
      <g id="Plants-2" data-name="Plants" transform="translate(653.221 44.789)">
        <g id="Group_71" data-name="Group 71">
          <g id="Group_69" data-name="Group 69" transform="translate(1.895)">
            <path id="Path_57" data-name="Path 57" d="M419.888,350.556c.593-7.367,7.147-22.2,15.563-31.15s21-14.979,29.3-11.372c7.733,3.361,6.032,13.724-4.171,19.861s-25.407,13.656-30.61,25.266l-10.082,13.947Z" transform="translate(-419.888 -306.973)" fill="#27debf"/>
            <path id="Path_58" data-name="Path 58" d="M419.888,350.556c.593-7.367,7.147-22.2,15.563-31.15s21-14.979,29.3-11.372c7.733,3.361,6.032,13.724-4.171,19.861s-25.407,13.656-30.61,25.266l-10.082,13.947Z" transform="translate(-419.888 -306.973)" opacity="0.1"/>
          </g>
          <g id="Group_70" data-name="Group 70" transform="translate(0 5.071)">
            <path id="Path_59" data-name="Path 59" d="M419.29,358.571a.543.543,0,0,0,.521-.394c6.954-24.753,28.944-43.559,41.485-47.1a.541.541,0,0,0,.373-.666.534.534,0,0,0-.667-.373c-12.778,3.6-35.169,22.716-42.23,47.843a.538.538,0,0,0,.373.664A.5.5,0,0,0,419.29,358.571Z" transform="translate(-418.75 -310.02)" fill="#fff"/>
          </g>
        </g>
        <g id="Group_74" data-name="Group 74" transform="translate(1.007 31.334)">
          <g id="Group_72" data-name="Group 72" transform="translate(0.888)">
            <path id="Path_60" data-name="Path 60" d="M420.99,364.484c1.516-4.045,7.124-10.473,15.76-15.46,9.553-5.518,21.237-7.469,24.268-12.116,3.642-5.584-.837-11.5-10.227-11.091s-26.755,11.775-30.9,30.662Z" transform="translate(-419.888 -325.798)" fill="#27debf"/>
          </g>
          <g id="Group_73" data-name="Group 73" transform="translate(0 5.257)">
            <path id="Path_61" data-name="Path 61" d="M419.895,357.9a.54.54,0,0,0,.493-.32c9.444-20.925,26.491-27.165,34.184-27.541a.54.54,0,0,0,.513-.566.532.532,0,0,0-.566-.513c-8.506.416-25.475,6.818-35.116,28.175a.542.542,0,0,0,.493.764Z" transform="translate(-419.355 -328.957)" fill="#fff"/>
          </g>
        </g>
      </g>
      <g id="Plants-3" data-name="Plants">
        <g id="Group_77" data-name="Group 77" transform="translate(0.748)">
          <g id="Group_75" data-name="Group 75">
            <path id="Path_62" data-name="Path 62" d="M76.077,327.347s-1.739-15.3-9.351-27.176S48.658,280.884,38.9,280.112s-17.639,8.206-7.2,14.371S60.691,306.94,69.228,330Z" transform="translate(-26.758 -280.065)" fill="#27debf"/>
            <path id="Path_63" data-name="Path 63" d="M76.077,327.347s-1.739-15.3-9.351-27.176S48.658,280.884,38.9,280.112s-17.639,8.206-7.2,14.371S60.691,306.94,69.228,330Z" transform="translate(-26.758 -280.065)" opacity="0.1"/>
          </g>
          <g id="Group_76" data-name="Group 76" transform="translate(7.381 4.58)">
            <path id="Path_64" data-name="Path 64" d="M70.269,321.544a.458.458,0,0,0,.1-.03.518.518,0,0,0,.286-.679c-10.3-25.359-29.9-35.948-38.828-38a.521.521,0,1,0-.233,1.015c8.744,2.014,27.96,12.419,38.1,37.382A.52.52,0,0,0,70.269,321.544Z" transform="translate(-31.193 -282.816)" fill="#fff"/>
          </g>
        </g>
        <g id="Group_82" data-name="Group 82" transform="translate(0 29.25)">
          <g id="Group_79" data-name="Group 79">
            <g id="Group_78" data-name="Group 78">
              <path id="Path_65" data-name="Path 65" d="M26.719,311.6c.939,2.117,3.249,3.219,5.4,4.086s4.484,1.8,5.646,3.8c2.342,4.043-1.5,9.731,1.012,13.667a7.24,7.24,0,0,0,4.945,2.868,48.227,48.227,0,0,0,4.859.434,19.509,19.509,0,0,0,2.31-.18c2.229-.325,4.649-.428,6.691.712,3.214,1.806,4.2,5.866,6.154,8.995a15.257,15.257,0,0,0,10.826,6.791c1.445.191,4.131.451,5.6-.37a2.4,2.4,0,0,0,.3-.193c.01,0,.018-.015.027-.027.2-.228.456-.518.564-.676a.252.252,0,0,0,.057-.095c.569-2.1-.36-4.279-.4-6.447a3.855,3.855,0,0,1,0-.393c.09-2.517.161-5.02.22-7.534q.177-6.931.138-13.879c-.032-3,.33-6.292-.942-9.123-1.407-3.113-4.907-3.181-6.23-6.234-.529-1.218-.811-2.523-1.323-3.753a10.759,10.759,0,0,0-9.165-6.4c-6.109-.311-11.593,4.636-17.7,4.186a46.028,46.028,0,0,1-4.677-.891c-4.95-.927-10.67.481-13.453,4.669A6.413,6.413,0,0,0,26.719,311.6Z" transform="translate(-26.309 -297.638)" fill="#27debf"/>
            </g>
          </g>
          <g id="Group_80" data-name="Group 80" transform="translate(5.61 7.766)">
            <path id="Path_66" data-name="Path 66" d="M79.379,338.684l.042-.01a.519.519,0,0,0,.368-.638c-8.442-31.677-41.817-36.255-49.626-35.69a.522.522,0,0,0,.075,1.04c7.638-.553,40.284,3.927,48.545,34.92A.519.519,0,0,0,79.379,338.684Z" transform="translate(-29.679 -302.303)" fill="#fff"/>
          </g>
          <g id="Group_81" data-name="Group 81" transform="translate(17.611 20.178)">
            <path id="Path_67" data-name="Path 67" d="M37.506,317.678a.523.523,0,0,0,.275-.146,27.746,27.746,0,0,1,22.714-6.4.522.522,0,0,0,.151-1.032,28.806,28.806,0,0,0-23.606,6.7.522.522,0,0,0,.466.88Z" transform="translate(-36.889 -309.76)" fill="#fff"/>
          </g>
        </g>
      </g>
    </g>
    <g id="Device" transform="translate(309.858 260.969)">
      <g id="Device-2" data-name="Device">
        <g id="Group_83" data-name="Group 83" transform="translate(2.799)">
          <path id="Path_68" data-name="Path 68" d="M535.591,305.832,416.7,374.629a10.564,10.564,0,0,1-9.561,0L200.32,255.209c-2.64-1.523-2.64-3.995,0-5.52l118.891-68.8a10.564,10.564,0,0,1,9.561,0l206.819,119.42C538.231,301.835,538.231,304.307,535.591,305.832Z" transform="translate(-198.34 -179.747)" fill="#37474f"/>
        </g>
        <g id="Group_84" data-name="Group 84" transform="translate(260.497 148.383)">
          <path id="Path_69" data-name="Path 69" d="M369.189,278.147a14.665,14.665,0,0,1-13.279,0c-3.667-2.117-3.667-5.548,0-7.667a14.675,14.675,0,0,1,13.279,0C372.856,272.6,372.856,276.031,369.189,278.147Z" transform="translate(-353.16 -268.892)" fill="#263238"/>
        </g>
        <g id="Group_85" data-name="Group 85" transform="translate(216.38 121.08)">
          <path id="Path_70" data-name="Path 70" d="M331.435,326.292l118.889-68.8c2.36-1.363,2.6-3.482.742-5.005a10.684,10.684,0,0,1,4.038,7.765v4.494a10.563,10.563,0,0,1-4.78,8.279l-118.889,68.8a9.768,9.768,0,0,1-4.78,1.143V327.435A9.767,9.767,0,0,0,331.435,326.292Z" transform="translate(-326.655 -252.489)" fill="#455a64"/>
        </g>
        <g id="Group_86" data-name="Group 86" transform="translate(0 70.455)">
          <path id="Path_71" data-name="Path 71" d="M201.439,242.617a10.568,10.568,0,0,1-4.78-8.279v-4.5a10.688,10.688,0,0,1,4.041-7.767c-1.866,1.523-1.625,3.644.739,5.007L408.258,346.5a9.772,9.772,0,0,0,4.781,1.144V363.18a9.772,9.772,0,0,1-4.781-1.143Z" transform="translate(-196.659 -222.075)" fill="#263238"/>
        </g>
        <g id="Group_87" data-name="Group 87" transform="translate(28.598 15.704)">
          <path id="Path_72" data-name="Path 72" d="M386.548,353.946l112.135-64.9c1.585-.915,1.585-2.4,0-3.312L332.939,189.868a6.338,6.338,0,0,0-5.736,0L215.028,254.761c-1.585.915-1.585,2.4,0,3.312l165.783,95.872A6.333,6.333,0,0,0,386.548,353.946Z" transform="translate(-213.84 -189.181)" fill="#fafafa"/>
        </g>
        <g id="Group_92" data-name="Group 92" transform="translate(45.621 24.799)">
          <g id="Group_88" data-name="Group 88">
            <path id="Path_73" data-name="Path 73" d="M225.56,254.063l53.622,30.98a7.969,7.969,0,0,0,7.207,0L380.6,230.651c1.991-1.148,1.991-3.013,0-4.161L326.98,195.508a7.964,7.964,0,0,0-7.207,0L225.56,249.9C223.569,251.05,223.569,252.912,225.56,254.063Z" transform="translate(-224.067 -194.646)" fill="#ebebeb"/>
          </g>
          <g id="Group_91" data-name="Group 91" transform="translate(32.363 9.439)">
            <g id="Group_89" data-name="Group 89" transform="translate(0 32.29)">
              <path id="Path_74" data-name="Path 74" d="M252.029,222.594l13.759,2.695a4.53,4.53,0,0,0,2.56-.235l11.645-5.017c1.849-.8,4.479-.023,4.449,1.308l-.186,8.387c-.012.529.428,1.029,1.177,1.333L297.3,235.91c1.883.769,1.421,2.452-.782,2.848l-13.875,2.49a2.547,2.547,0,0,0-1.831,1.059l-4.313,8.01c-.686,1.272-3.6,1.538-4.934.451l-8.387-6.849a3.728,3.728,0,0,0-2.309-.679l-14.529.108c-2.307.017-3.647-1.5-2.265-2.57l8.689-6.723a1.093,1.093,0,0,0,.406-1.476l-4.667-7.945C247.756,223.372,249.843,222.167,252.029,222.594Z" transform="translate(-243.51 -219.715)" fill="#fafafa"/>
            </g>
            <g id="Group_90" data-name="Group 90" transform="translate(38.071)">
              <path id="Path_75" data-name="Path 75" d="M267.434,217.945l29.483-17.021a4.326,4.326,0,0,1,3.86-.266c.939.543.731,1.541-.464,2.23l-29.482,17.021a4.334,4.334,0,0,1-3.862.266C266.032,219.632,266.239,218.634,267.434,217.945Z" transform="translate(-266.382 -200.316)" fill="#fafafa"/>
              <path id="Path_76" data-name="Path 76" d="M271.9,220.523,301.38,203.5a4.331,4.331,0,0,1,3.86-.266c.939.543.731,1.541-.464,2.23l-29.482,17.021a4.329,4.329,0,0,1-3.862.266C270.5,222.211,270.7,221.212,271.9,220.523Z" transform="translate(-263.417 -198.602)" fill="#fafafa"/>
              <path id="Path_77" data-name="Path 77" d="M276.36,223.1l29.483-17.021a4.331,4.331,0,0,1,3.86-.266c.937.543.731,1.541-.464,2.23l-29.482,17.023a4.334,4.334,0,0,1-3.862.265C274.958,224.792,275.165,223.793,276.36,223.1Z" transform="translate(-260.451 -196.889)" fill="#fafafa"/>
              <path id="Path_78" data-name="Path 78" d="M280.823,225.683,310.3,208.66a4.34,4.34,0,0,1,3.862-.266c.937.543.731,1.543-.464,2.232L284.22,227.647a4.335,4.335,0,0,1-3.862.266C279.421,227.371,279.628,226.372,280.823,225.683Z" transform="translate(-257.485 -195.175)" fill="#fafafa"/>
              <path id="Path_79" data-name="Path 79" d="M285.286,228.262l29.482-17.021a4.329,4.329,0,0,1,3.862-.266c.937.543.731,1.541-.464,2.23l-29.482,17.021a4.334,4.334,0,0,1-3.862.266C283.884,229.949,284.091,228.951,285.286,228.262Z" transform="translate(-254.519 -193.461)" fill="#fafafa"/>
              <path id="Path_80" data-name="Path 80" d="M289.749,230.84l29.482-17.021a4.335,4.335,0,0,1,3.862-.266c.937.543.731,1.541-.464,2.23l-29.482,17.023a4.334,4.334,0,0,1-3.862.265C288.347,232.528,288.554,231.529,289.749,230.84Z" transform="translate(-251.554 -191.747)" fill="#fafafa"/>
            </g>
          </g>
          <path id="Path_81" data-name="Path 81" d="M265.064,267.533l2.443,1.41a4.781,4.781,0,0,0,4.324,0L328.353,236.3a1.318,1.318,0,0,0,0-2.5l-2.44-1.41a4.781,4.781,0,0,0-4.324,0l-56.525,32.639A1.318,1.318,0,0,0,265.064,267.533Z" transform="translate(-197.42 -169.903)" fill="#e0e0e0"/>
          <path id="Path_82" data-name="Path 82" d="M336.794,218.327l2.437,1.408a1.318,1.318,0,0,1,0,2.5L316.509,235.35a4.781,4.781,0,0,1-4.324,0l-2.438-1.408a1.318,1.318,0,0,1,0-2.5l22.724-13.118A4.781,4.781,0,0,1,336.794,218.327Z" transform="translate(-167.728 -179.252)" fill="#e0e0e0"/>
        </g>
        <g id="Group_97" data-name="Group 97" transform="translate(126.81 71.655)">
          <g id="Group_93" data-name="Group 93">
            <path id="Path_83" data-name="Path 83" d="M274.336,282.211l53.624,30.98a7.969,7.969,0,0,0,7.207,0L429.38,258.8c1.989-1.148,1.989-3.011,0-4.161l-53.624-30.982a7.969,7.969,0,0,0-7.207,0L274.336,278.05C272.346,279.2,272.346,281.062,274.336,282.211Z" transform="translate(-272.844 -222.796)" fill="#ebebeb"/>
          </g>
          <g id="Group_96" data-name="Group 96" transform="translate(32.363 9.438)">
            <g id="Group_94" data-name="Group 94" transform="translate(0 32.289)">
              <path id="Path_84" data-name="Path 84" d="M300.806,250.745l13.759,2.693a4.53,4.53,0,0,0,2.56-.233l11.645-5.018c1.849-.8,4.478-.023,4.448,1.31l-.185,8.387c-.012.529.428,1.027,1.177,1.333l11.861,4.844c1.884.769,1.423,2.452-.781,2.848L331.415,269.4a2.553,2.553,0,0,0-1.831,1.059l-4.313,8.01c-.686,1.273-3.6,1.54-4.934.453l-8.388-6.849a3.719,3.719,0,0,0-2.31-.679l-14.528.107c-2.309.018-3.647-1.5-2.267-2.568l8.69-6.723a1.093,1.093,0,0,0,.4-1.478l-4.666-7.945C296.533,251.521,298.619,250.317,300.806,250.745Z" transform="translate(-292.287 -247.864)" fill="#fafafa"/>
            </g>
            <g id="Group_95" data-name="Group 95" transform="translate(38.072)">
              <path id="Path_85" data-name="Path 85" d="M316.211,246.093l29.482-17.021a4.335,4.335,0,0,1,3.862-.266c.937.543.731,1.541-.464,2.23l-29.482,17.023a4.334,4.334,0,0,1-3.862.265C314.809,247.781,315.016,246.784,316.211,246.093Z" transform="translate(-315.159 -228.466)" fill="#fafafa"/>
              <path id="Path_86" data-name="Path 86" d="M320.674,248.674l29.482-17.023a4.335,4.335,0,0,1,3.862-.266c.937.543.731,1.541-.464,2.232l-29.482,17.021a4.334,4.334,0,0,1-3.862.266C319.272,250.362,319.479,249.363,320.674,248.674Z" transform="translate(-312.194 -226.752)" fill="#fafafa"/>
              <path id="Path_87" data-name="Path 87" d="M325.137,251.253l29.482-17.021a4.329,4.329,0,0,1,3.862-.266c.937.543.731,1.541-.464,2.23l-29.482,17.021a4.335,4.335,0,0,1-3.862.266C323.734,252.94,323.942,251.942,325.137,251.253Z" transform="translate(-309.228 -225.038)" fill="#fafafa"/>
              <path id="Path_88" data-name="Path 88" d="M329.6,253.831l29.482-17.021a4.335,4.335,0,0,1,3.862-.266c.937.543.731,1.541-.464,2.23L333,255.8a4.329,4.329,0,0,1-3.862.266C328.2,255.519,328.4,254.52,329.6,253.831Z" transform="translate(-306.262 -223.324)" fill="#fafafa"/>
              <path id="Path_89" data-name="Path 89" d="M334.061,256.41l29.484-17.021a4.335,4.335,0,0,1,3.862-.266c.937.543.729,1.541-.464,2.23L337.46,258.376a4.334,4.334,0,0,1-3.862.265C332.66,258.1,332.868,257.1,334.061,256.41Z" transform="translate(-303.297 -221.61)" fill="#fafafa"/>
              <path id="Path_90" data-name="Path 90" d="M338.524,258.991l29.483-17.023a4.334,4.334,0,0,1,3.862-.265c.937.541.729,1.541-.464,2.23l-29.482,17.021a4.335,4.335,0,0,1-3.862.266C337.123,260.678,337.331,259.68,338.524,258.991Z" transform="translate(-300.331 -219.896)" fill="#fafafa"/>
            </g>
          </g>
          <path id="Path_91" data-name="Path 91" d="M313.841,295.682l2.443,1.411a4.776,4.776,0,0,0,4.324,0l56.522-32.638a1.318,1.318,0,0,0,0-2.5l-2.442-1.41a4.781,4.781,0,0,0-4.324,0l-56.525,32.639A1.317,1.317,0,0,0,313.841,295.682Z" transform="translate(-246.196 -198.052)" fill="#e0e0e0"/>
          <path id="Path_92" data-name="Path 92" d="M385.569,246.478l2.438,1.407a1.318,1.318,0,0,1,0,2.5L365.284,263.5a4.776,4.776,0,0,1-4.324,0l-2.437-1.408a1.318,1.318,0,0,1,0-2.5l22.722-13.116A4.771,4.771,0,0,1,385.569,246.478Z" transform="translate(-216.505 -207.403)" fill="#e0e0e0"/>
        </g>
        <g id="Group_98" data-name="Group 98" transform="translate(70.74 38.647)">
          <path id="Path_93" data-name="Path 93" d="M242.7,205.007a3.233,3.233,0,0,1-2.93,0,.892.892,0,0,1,0-1.691,3.234,3.234,0,0,1,2.93,0A.892.892,0,0,1,242.7,205.007Z" transform="translate(-239.158 -202.965)" fill="#263238"/>
        </g>
        <g id="Group_101" data-name="Group 101" transform="translate(62.519 34.108)">
          <g id="Group_99" data-name="Group 99" transform="translate(0 15.785)">
            <path id="Path_94" data-name="Path 94" d="M241.295,213.807a6.481,6.481,0,0,1-5.861,0c-1.62-.935-1.62-2.45,0-3.384a6.471,6.471,0,0,1,5.861,0C242.913,211.357,242.913,212.872,241.295,213.807Z" transform="translate(-234.219 -209.721)" fill="#263238"/>
          </g>
          <g id="Group_100" data-name="Group 100" transform="translate(10.434)">
            <path id="Path_95" data-name="Path 95" d="M241.261,214.22c-1.079-.624-1.022-1.666.13-2.33l19.278-11.131a4.467,4.467,0,0,1,4.036-.075c1.079.623,1.022,1.666-.128,2.33L245.3,214.145A4.467,4.467,0,0,1,241.261,214.22Z" transform="translate(-240.488 -200.238)" fill="#263238"/>
          </g>
        </g>
      </g>
    </g>
    <g id="Newspaper" transform="translate(73.22 120.08)">
      <g id="News_Paper" data-name="News Paper" transform="translate(0)">
        <path id="Path_96" data-name="Path 96" d="M315.487,119.917v3.912l-13.517,7.807h-.015L281.68,143.354,102.728,246.67a7.433,7.433,0,0,0-2.545,2.682,7.276,7.276,0,0,0-1.065,3.56V490.77c0,12.935-9.09,18.176-20.275,11.7-11.2-6.458-20.29-22.188-20.29-35.121V229.492a7.991,7.991,0,0,1,3.612-6.242L261.391,108.216,280.647,97.1a7.35,7.35,0,0,1,1.032,3.58l.018,3.627L68.905,227.411a7.1,7.1,0,0,0-2.412,2.5,7.332,7.332,0,0,0-1.182,3.745V471.262c0,8.624,6.057,19.092,13.531,23.4,7.457,4.309,13.517.816,13.517-7.808V249a7.911,7.911,0,0,1,3.612-6.242l218.517-126.17A6.951,6.951,0,0,1,315.487,119.917Z" transform="translate(-51.794 -93.779)" fill="#e0e0e0"/>
        <path id="Path_97" data-name="Path 97" d="M289.793,105.349V116.8l-206,118.946a7.979,7.979,0,0,0-3.612,6.242V479.847c0,4.311-3.013,6.059-6.741,3.895a14.88,14.88,0,0,1-6.758-11.7V234.182a7.431,7.431,0,0,1,1.05-3.56,7.722,7.722,0,0,1,2.545-2.682l218.5-126.153A7.481,7.481,0,0,1,289.793,105.349Z" transform="translate(-46.392 -90.662)" fill="#e0e0e0"/>
        <g id="Group_102" data-name="Group 102" transform="translate(0 128.256)">
          <path id="Path_98" data-name="Path 98" d="M109.622,203.383a7.307,7.307,0,0,0-1.05,3.545V442.74a38.461,38.461,0,0,1-.331,5.127c-.068.451-.133.882-.2,1.3-.083.4-.15.782-.235,1.182-.083.351-.165.7-.265,1.032-.083.333-.168.649-.266.965-1.465,4.544-3.978,7.873-7.259,9.754-4.844,2.78-11.334,2.449-18.476-1.681-14.947-8.622-27.048-30.526-27.048-48.9V175.7a7.307,7.307,0,0,1,1.05-3.545l6.775,3.9a7.261,7.261,0,0,0-1.067,3.56V417.472c0,12.933,9.088,28.663,20.29,35.121,11.186,6.475,20.275,1.233,20.275-11.7V203.034a7.276,7.276,0,0,1,1.065-3.56Z" transform="translate(-54.492 -172.157)" fill="#ebebeb"/>
          <path id="Path_99" data-name="Path 99" d="M90.708,192.434a7.371,7.371,0,0,0-1.047,3.545V433.837c0,8.624-6.06,12.118-13.517,7.808-7.474-4.313-13.531-14.781-13.531-23.4V180.632a7.332,7.332,0,0,1,1.182-3.745l6.641,3.83a7.431,7.431,0,0,0-1.05,3.56V422.136a14.88,14.88,0,0,0,6.758,11.7c3.729,2.164,6.741.416,6.741-3.895V192.084a7.288,7.288,0,0,1,1.065-3.56Z" transform="translate(-49.096 -169.014)" fill="#ebebeb"/>
        </g>
        <g id="Group_103" data-name="Group 103" transform="translate(1.05)">
          <path id="Path_100" data-name="Path 100" d="M282.926,98.422l-19.257,11.119L64.443,224.575a7.329,7.329,0,0,0-2.545,2.682l-6.775-3.9a7.348,7.348,0,0,1,2.547-2.7C80.6,207.43,207.026,134.425,256.91,105.629l3.847-2.23,3.812-2.2,3.344-1.931,1.982-1.149,3.679-2.114a7.726,7.726,0,0,1,6.991-.132A6.727,6.727,0,0,1,282.926,98.422Z" transform="translate(-55.123 -95.104)" fill="#fafafa"/>
          <path id="Path_101" data-name="Path 101" d="M311.351,114.832v.017l-19.26,11.121-33.8,19.506L92.868,240.985a7.525,7.525,0,0,0-2.563,2.7l-6.741-3.91a7.433,7.433,0,0,1,2.545-2.682L265.059,133.774l20.275-11.718h.015l13.517-7.807,3.144-1.813.251-.151a7.72,7.72,0,0,1,6.658-.033c.032.017.048.017.065.033a3.77,3.77,0,0,1,.351.216A7.155,7.155,0,0,1,311.351,114.832Z" transform="translate(-36.224 -84.199)" fill="#fafafa"/>
          <path id="Path_102" data-name="Path 102" d="M291.011,103.112,72.509,229.265a7.722,7.722,0,0,0-2.545,2.682l-6.641-3.83a7.1,7.1,0,0,1,2.412-2.5L278.527,102.512l3.128-1.814a7.735,7.735,0,0,1,6.993-.133A6.909,6.909,0,0,1,291.011,103.112Z" transform="translate(-49.674 -91.987)" fill="#fafafa"/>
          <path id="Path_103" data-name="Path 103" d="M303.272,110.121,84.755,236.291a7.422,7.422,0,0,0-2.565,2.7l-6.758-3.91a7.359,7.359,0,0,1,2.547-2.682l206-118.946,9.92-5.724a7.728,7.728,0,0,1,6.993-.118A6.689,6.689,0,0,1,303.272,110.121Z" transform="translate(-41.627 -87.312)" fill="#fafafa"/>
        </g>
        <g id="Group_104" data-name="Group 104" transform="translate(45.205 30.649)">
          <path id="Path_104" data-name="Path 104" d="M313.654,117.079V352.89c0,9.671-3.347,16.445-8.707,19.441L81.65,501.243a17.043,17.043,0,0,0,7.845-10.9c.1-.333.181-.681.265-1.032.085-.4.151-.781.235-1.182.067-.416.131-.847.2-1.3a38.461,38.461,0,0,0,.331-5.127V245.9a7.307,7.307,0,0,1,1.05-3.545,7.525,7.525,0,0,1,2.563-2.7l165.419-95.51,33.8-19.506,19.26-11.121A7.33,7.33,0,0,1,313.654,117.079Z" transform="translate(-81.65 -113.517)" fill="#f5f5f5"/>
        </g>
        <path id="Path_105" data-name="Path 105" d="M102.776,199.533l33.36-19.262c1.991-1.149,3.6-.216,3.6,2.081l0,46.327a7.972,7.972,0,0,1-3.6,6.242l-33.362,19.26c-1.989,1.148-3.6.218-3.6-2.081V205.775A7.967,7.967,0,0,1,102.776,199.533Z" transform="translate(-24.802 -38.836)" fill="#455a64"/>
        <path id="Path_106" data-name="Path 106" d="M99.173,277.186l182.554-105.4V179.6L99.173,284.994Z" transform="translate(-24.801 -44.146)" fill="#27debf"/>
        <path id="Path_107" data-name="Path 107" d="M99.173,277.186l182.554-105.4V179.6L99.173,284.994Z" transform="translate(-24.801 -44.146)" fill="#fff" opacity="0.4"/>
        <g id="Group_111" data-name="Group 111" transform="translate(74.372 152.015)">
          <path id="Path_108" data-name="Path 108" d="M101.335,256.9l36.243-20.925c1.193-.689,2.162-.131,2.162,1.248V310.3a4.779,4.779,0,0,1-2.162,3.745l-36.243,20.925c-1.2.691-2.162.131-2.162-1.248V260.647A4.777,4.777,0,0,1,101.335,256.9Z" transform="translate(-99.173 -153.704)" fill="#f0f0f0"/>
          <path id="Path_109" data-name="Path 109" d="M101.335,308.5l36.243-20.925c1.193-.689,2.162-.13,2.162,1.248v57.186L99.173,369.429V312.241A4.78,4.78,0,0,1,101.335,308.5Z" transform="translate(-99.173 -119.418)" fill="#f0f0f0"/>
          <path id="Path_110" data-name="Path 110" d="M129.769,240.486l36.243-20.926c1.2-.689,2.162-.13,2.162,1.248v96.5a4.775,4.775,0,0,1-2.162,3.745l-36.243,20.926c-1.193.689-2.162.13-2.162-1.248v-96.5A4.779,4.779,0,0,1,129.769,240.486Z" transform="translate(-80.278 -164.613)" fill="#f0f0f0"/>
          <path id="Path_111" data-name="Path 111" d="M158.2,224.069l36.243-20.926c1.193-.689,2.162-.13,2.162,1.248v73.082a4.784,4.784,0,0,1-2.162,3.745L158.2,302.143c-1.2.689-2.162.13-2.162-1.248v-73.08A4.775,4.775,0,0,1,158.2,224.069Z" transform="translate(-61.383 -175.522)" fill="#f0f0f0"/>
          <path id="Path_112" data-name="Path 112" d="M186.638,207.652l36.243-20.925c1.2-.691,2.162-.132,2.162,1.248v96.5a4.777,4.777,0,0,1-2.162,3.745l-36.243,20.925c-1.193.691-2.162.131-2.162-1.248V211.4A4.779,4.779,0,0,1,186.638,207.652Z" transform="translate(-42.488 -186.431)" fill="#f0f0f0"/>
          <path id="Path_113" data-name="Path 113" d="M129.769,306.151l36.243-20.925c1.2-.689,2.162-.13,2.162,1.248l0,33.765-40.569,23.421V309.9A4.784,4.784,0,0,1,129.769,306.151Z" transform="translate(-80.278 -120.977)" fill="#f0f0f0"/>
          <path id="Path_114" data-name="Path 114" d="M156.041,279.41l0,57.184,40.567-23.421V255.987c0-1.378-.969-1.937-2.164-1.248L158.2,275.665A4.779,4.779,0,0,0,156.041,279.41Z" transform="translate(-61.384 -141.236)" fill="#f0f0f0"/>
          <path id="Path_115" data-name="Path 115" d="M186.638,273.318l36.243-20.925c1.193-.689,2.162-.13,2.162,1.248v33.765l-40.567,23.421V277.063A4.78,4.78,0,0,1,186.638,273.318Z" transform="translate(-42.488 -142.794)" fill="#f0f0f0"/>
          <path id="Path_116" data-name="Path 116" d="M133.832,305.394l22.721-13.118c1.2-.691,2.162-.131,2.162,1.248v18.428a4.775,4.775,0,0,1-2.162,3.745L133.83,328.815c-1.193.689-2.162.131-2.162-1.248l0-18.428A4.782,4.782,0,0,1,133.832,305.394Z" transform="translate(-77.58 -116.293)" fill="#e0e0e0"/>
          <path id="Path_117" data-name="Path 117" d="M190.7,272.562l22.722-13.12c1.193-.689,2.162-.13,2.162,1.248v18.429a4.779,4.779,0,0,1-2.162,3.745L190.7,295.984c-1.2.689-2.162.131-2.162-1.248V276.308A4.784,4.784,0,0,1,190.7,272.562Z" transform="translate(-39.789 -138.11)" fill="#e0e0e0"/>
          <g id="Group_105" data-name="Group 105" transform="translate(6.76 93.688)">
            <path id="Path_118" data-name="Path 118" d="M105.4,256.131l22.721-13.12c1.193-.689,2.162-.13,2.162,1.248V262.69a4.782,4.782,0,0,1-2.162,3.745L105.4,279.553c-1.193.689-2.162.13-2.162-1.248l0-18.428A4.779,4.779,0,0,1,105.4,256.131Z" transform="translate(-103.234 -242.717)" fill="#e0e0e0"/>
            <path id="Path_119" data-name="Path 119" d="M104.675,273.092l24.164-13.95c.8-.459,1.441-.087,1.441.832v.576a3.188,3.188,0,0,1-1.441,2.5L104.676,277c-.8.461-1.441.088-1.441-.832v-.574A3.186,3.186,0,0,1,104.675,273.092Z" transform="translate(-103.233 -231.933)" fill="#e0e0e0"/>
            <path id="Path_120" data-name="Path 120" d="M104.675,277.782l24.164-13.95c.8-.459,1.441-.087,1.441.832v.576a3.188,3.188,0,0,1-1.441,2.5l-24.162,13.95c-.8.459-1.441.087-1.441-.832v-.576A3.186,3.186,0,0,1,104.675,277.782Z" transform="translate(-103.233 -228.816)" fill="#e0e0e0"/>
            <path id="Path_121" data-name="Path 121" d="M104.675,282.472l24.164-13.95c.8-.459,1.441-.087,1.441.832v.576a3.188,3.188,0,0,1-1.441,2.5l-24.162,13.95c-.8.459-1.441.086-1.441-.832v-.576A3.189,3.189,0,0,1,104.675,282.472Z" transform="translate(-103.233 -225.7)" fill="#e0e0e0"/>
            <path id="Path_122" data-name="Path 122" d="M104.675,287.162l24.164-13.95c.8-.459,1.441-.087,1.441.832v.576a3.188,3.188,0,0,1-1.441,2.5l-24.162,13.95c-.8.459-1.441.087-1.441-.832v-.576A3.189,3.189,0,0,1,104.675,287.162Z" transform="translate(-103.233 -222.583)" fill="#e0e0e0"/>
            <path id="Path_123" data-name="Path 123" d="M104.675,291.852,128.838,277.9c.8-.461,1.441-.088,1.441.832v.574a3.188,3.188,0,0,1-1.441,2.5l-24.162,13.95c-.8.459-1.441.087-1.441-.832v-.576A3.189,3.189,0,0,1,104.675,291.852Z" transform="translate(-103.233 -219.467)" fill="#e0e0e0"/>
          </g>
          <g id="Group_106" data-name="Group 106" transform="translate(54.088 66.362)">
            <path id="Path_124" data-name="Path 124" d="M133.832,239.713l22.721-13.118c1.2-.689,2.162-.13,2.162,1.248v18.429a4.777,4.777,0,0,1-2.162,3.745L133.83,263.136c-1.193.689-2.162.13-2.162-1.248l0-18.428A4.785,4.785,0,0,1,133.832,239.713Z" transform="translate(-131.668 -226.3)" fill="#e0e0e0"/>
            <path id="Path_125" data-name="Path 125" d="M133.109,256.675l24.164-13.95c.8-.459,1.441-.087,1.441.832v.576a3.19,3.19,0,0,1-1.441,2.5L133.11,260.578c-.8.459-1.441.088-1.441-.832v-.574A3.182,3.182,0,0,1,133.109,256.675Z" transform="translate(-131.667 -215.516)" fill="#e0e0e0"/>
            <path id="Path_126" data-name="Path 126" d="M133.109,261.365l24.164-13.95c.8-.459,1.441-.087,1.441.832v.576a3.19,3.19,0,0,1-1.441,2.5L133.11,265.268c-.8.459-1.441.088-1.441-.832v-.574A3.182,3.182,0,0,1,133.109,261.365Z" transform="translate(-131.667 -212.4)" fill="#e0e0e0"/>
            <path id="Path_127" data-name="Path 127" d="M133.109,266.055l24.164-13.95c.8-.459,1.441-.087,1.441.832v.576a3.188,3.188,0,0,1-1.441,2.5L133.11,269.958c-.8.461-1.441.088-1.441-.832v-.574A3.182,3.182,0,0,1,133.109,266.055Z" transform="translate(-131.667 -209.283)" fill="#e0e0e0"/>
            <path id="Path_128" data-name="Path 128" d="M133.109,270.745l24.164-13.95c.8-.459,1.441-.087,1.441.832v.576a3.188,3.188,0,0,1-1.441,2.5L133.11,274.65c-.8.459-1.441.087-1.441-.834v-.574A3.182,3.182,0,0,1,133.109,270.745Z" transform="translate(-131.667 -206.166)" fill="#e0e0e0"/>
            <path id="Path_129" data-name="Path 129" d="M133.109,275.435l24.164-13.95c.8-.459,1.441-.087,1.441.832v.576a3.188,3.188,0,0,1-1.441,2.5L133.11,279.338c-.8.461-1.441.088-1.441-.832v-.574A3.182,3.182,0,0,1,133.109,275.435Z" transform="translate(-131.667 -203.05)" fill="#e0e0e0"/>
            <path id="Path_130" data-name="Path 130" d="M133.109,280.127l24.164-13.95c.8-.459,1.441-.087,1.441.832v.576a3.188,3.188,0,0,1-1.441,2.5l-24.162,13.95c-.8.459-1.441.087-1.441-.832v-.576A3.184,3.184,0,0,1,133.109,280.127Z" transform="translate(-131.667 -199.932)" fill="#e0e0e0"/>
            <path id="Path_131" data-name="Path 131" d="M133.109,284.817l24.164-13.95c.8-.459,1.441-.087,1.441.832v.576a3.188,3.188,0,0,1-1.441,2.5l-24.162,13.95c-.8.459-1.441.086-1.441-.832v-.576A3.182,3.182,0,0,1,133.109,284.817Z" transform="translate(-131.667 -196.815)" fill="#e0e0e0"/>
            <path id="Path_132" data-name="Path 132" d="M133.109,289.508l24.164-13.95c.8-.461,1.441-.088,1.441.832v.574a3.188,3.188,0,0,1-1.441,2.5l-24.162,13.95c-.8.459-1.441.087-1.441-.832V292A3.179,3.179,0,0,1,133.109,289.508Z" transform="translate(-131.667 -193.699)" fill="#e0e0e0"/>
          </g>
          <g id="Group_107" data-name="Group 107" transform="translate(6.76 179.578)">
            <path id="Path_133" data-name="Path 133" d="M105.4,307.731l22.721-13.118c1.193-.689,2.162-.13,2.162,1.248v18.429a4.782,4.782,0,0,1-2.162,3.745L105.4,331.154c-1.193.689-2.162.13-2.162-1.248l0-18.429A4.784,4.784,0,0,1,105.4,307.731Z" transform="translate(-103.234 -294.318)" fill="#e0e0e0"/>
            <path id="Path_134" data-name="Path 134" d="M104.675,324.693l24.164-13.95c.8-.459,1.441-.087,1.441.832v.576a3.19,3.19,0,0,1-1.441,2.5L104.676,328.6c-.8.459-1.441.086-1.441-.832v-.574A3.186,3.186,0,0,1,104.675,324.693Z" transform="translate(-103.233 -283.534)" fill="#e0e0e0"/>
            <path id="Path_135" data-name="Path 135" d="M104.675,329.383l24.164-13.95c.8-.459,1.441-.087,1.441.832v.576a3.19,3.19,0,0,1-1.441,2.5l-24.162,13.949c-.8.459-1.441.087-1.441-.832v-.574A3.186,3.186,0,0,1,104.675,329.383Z" transform="translate(-103.233 -280.418)" fill="#e0e0e0"/>
            <path id="Path_136" data-name="Path 136" d="M104.675,334.073l24.164-13.95c.8-.459,1.441-.087,1.441.832v.576a3.188,3.188,0,0,1-1.441,2.5l-24.162,13.949c-.8.459-1.441.088-1.441-.832v-.574A3.186,3.186,0,0,1,104.675,334.073Z" transform="translate(-103.233 -277.301)" fill="#e0e0e0"/>
          </g>
          <g id="Group_108" data-name="Group 108" transform="translate(101.42 39.039)">
            <path id="Path_137" data-name="Path 137" d="M162.266,223.3l22.721-13.12c1.2-.689,2.162-.13,2.162,1.248v18.429a4.777,4.777,0,0,1-2.162,3.745l-22.721,13.118c-1.2.689-2.162.13-2.162-1.248V227.045A4.779,4.779,0,0,1,162.266,223.3Z" transform="translate(-160.104 -209.885)" fill="#e0e0e0"/>
            <path id="Path_138" data-name="Path 138" d="M161.545,240.26l24.162-13.95c.8-.459,1.441-.087,1.441.832v.576a3.183,3.183,0,0,1-1.441,2.5l-24.162,13.95c-.8.459-1.441.087-1.441-.834v-.574A3.183,3.183,0,0,1,161.545,240.26Z" transform="translate(-160.104 -199.101)" fill="#e0e0e0"/>
            <path id="Path_139" data-name="Path 139" d="M161.545,244.95,185.707,231c.8-.459,1.441-.087,1.441.832v.576a3.183,3.183,0,0,1-1.441,2.5l-24.162,13.95c-.8.459-1.441.087-1.441-.832v-.576A3.183,3.183,0,0,1,161.545,244.95Z" transform="translate(-160.104 -195.984)" fill="#e0e0e0"/>
            <path id="Path_140" data-name="Path 140" d="M161.545,249.64l24.162-13.95c.8-.459,1.441-.087,1.441.832v.576a3.183,3.183,0,0,1-1.441,2.5l-24.162,13.95c-.8.459-1.441.087-1.441-.832v-.576A3.186,3.186,0,0,1,161.545,249.64Z" transform="translate(-160.104 -192.868)" fill="#e0e0e0"/>
            <path id="Path_141" data-name="Path 141" d="M161.545,254.33l24.162-13.95c.8-.459,1.441-.087,1.441.832v.576a3.183,3.183,0,0,1-1.441,2.5l-24.162,13.95c-.8.459-1.441.087-1.441-.832v-.576A3.183,3.183,0,0,1,161.545,254.33Z" transform="translate(-160.104 -189.751)" fill="#e0e0e0"/>
            <path id="Path_142" data-name="Path 142" d="M161.545,259.021l24.162-13.95c.8-.461,1.441-.088,1.441.832v.574a3.183,3.183,0,0,1-1.441,2.5l-24.162,13.95c-.8.459-1.441.087-1.441-.832v-.574A3.181,3.181,0,0,1,161.545,259.021Z" transform="translate(-160.104 -186.635)" fill="#e0e0e0"/>
          </g>
          <g id="Group_109" data-name="Group 109" transform="translate(148.749 11.713)">
            <path id="Path_143" data-name="Path 143" d="M190.7,206.881l22.721-13.118c1.2-.689,2.162-.13,2.162,1.248v18.429a4.777,4.777,0,0,1-2.162,3.745L190.7,230.3c-1.2.689-2.162.13-2.162-1.248V210.626A4.784,4.784,0,0,1,190.7,206.881Z" transform="translate(-188.538 -193.468)" fill="#e0e0e0"/>
            <path id="Path_144" data-name="Path 144" d="M189.979,223.843l24.162-13.95c.8-.459,1.441-.087,1.441.832v.576a3.18,3.18,0,0,1-1.441,2.5l-24.162,13.95c-.8.459-1.441.087-1.441-.832v-.574A3.188,3.188,0,0,1,189.979,223.843Z" transform="translate(-188.538 -182.684)" fill="#e0e0e0"/>
            <path id="Path_145" data-name="Path 145" d="M189.979,228.533l24.162-13.95c.8-.459,1.441-.087,1.441.832v.576a3.183,3.183,0,0,1-1.441,2.5l-24.162,13.949c-.8.459-1.441.088-1.441-.832v-.574A3.188,3.188,0,0,1,189.979,228.533Z" transform="translate(-188.538 -179.567)" fill="#e0e0e0"/>
            <path id="Path_146" data-name="Path 146" d="M189.979,233.223l24.162-13.95c.8-.459,1.441-.087,1.441.832v.576a3.183,3.183,0,0,1-1.441,2.5l-24.162,13.949c-.8.461-1.441.088-1.441-.832v-.574A3.188,3.188,0,0,1,189.979,233.223Z" transform="translate(-188.538 -176.451)" fill="#e0e0e0"/>
            <path id="Path_147" data-name="Path 147" d="M189.979,237.913l24.162-13.95c.8-.459,1.441-.087,1.441.832v.576a3.183,3.183,0,0,1-1.441,2.5l-24.162,13.949c-.8.461-1.441.088-1.441-.832v-.574A3.188,3.188,0,0,1,189.979,237.913Z" transform="translate(-188.538 -173.334)" fill="#e0e0e0"/>
            <path id="Path_148" data-name="Path 148" d="M189.979,242.6l24.162-13.95c.8-.459,1.441-.087,1.441.832v.576a3.183,3.183,0,0,1-1.441,2.5l-24.162,13.95c-.8.459-1.441.087-1.441-.832V245.1A3.188,3.188,0,0,1,189.979,242.6Z" transform="translate(-188.538 -170.218)" fill="#e0e0e0"/>
            <path id="Path_149" data-name="Path 149" d="M189.979,247.295l24.162-13.95c.8-.459,1.441-.087,1.441.832v.576a3.183,3.183,0,0,1-1.441,2.5L189.979,251.2c-.8.459-1.441.087-1.441-.832v-.576A3.188,3.188,0,0,1,189.979,247.295Z" transform="translate(-188.538 -167.1)" fill="#e0e0e0"/>
            <path id="Path_150" data-name="Path 150" d="M189.979,251.985l24.162-13.95c.8-.459,1.441-.087,1.441.832v.576a3.183,3.183,0,0,1-1.441,2.5l-24.162,13.95c-.8.459-1.441.087-1.441-.832v-.576A3.19,3.19,0,0,1,189.979,251.985Z" transform="translate(-188.538 -163.983)" fill="#e0e0e0"/>
            <path id="Path_151" data-name="Path 151" d="M189.979,256.675l24.162-13.95c.8-.459,1.441-.087,1.441.832v.576a3.183,3.183,0,0,1-1.441,2.5l-24.162,13.95c-.8.459-1.441.087-1.441-.832v-.576A3.191,3.191,0,0,1,189.979,256.675Z" transform="translate(-188.538 -160.867)" fill="#e0e0e0"/>
          </g>
          <g id="Group_110" data-name="Group 110" transform="translate(101.42 124.929)">
            <path id="Path_152" data-name="Path 152" d="M162.266,274.9l22.721-13.118c1.2-.689,2.162-.131,2.162,1.248v18.429a4.78,4.78,0,0,1-2.162,3.745l-22.721,13.118c-1.2.689-2.162.13-2.162-1.248V278.644A4.784,4.784,0,0,1,162.266,274.9Z" transform="translate(-160.104 -261.486)" fill="#e0e0e0"/>
            <path id="Path_153" data-name="Path 153" d="M161.545,291.861l24.162-13.95c.8-.459,1.441-.087,1.441.832v.574a3.181,3.181,0,0,1-1.441,2.5l-24.162,13.95c-.8.459-1.441.087-1.441-.832v-.574A3.183,3.183,0,0,1,161.545,291.861Z" transform="translate(-160.104 -250.702)" fill="#e0e0e0"/>
            <path id="Path_154" data-name="Path 154" d="M161.545,296.551l24.162-13.95c.8-.459,1.441-.087,1.441.832v.576a3.186,3.186,0,0,1-1.441,2.5l-24.162,13.949c-.8.459-1.441.088-1.441-.832v-.574A3.183,3.183,0,0,1,161.545,296.551Z" transform="translate(-160.104 -247.585)" fill="#e0e0e0"/>
            <path id="Path_155" data-name="Path 155" d="M161.545,301.241l24.162-13.95c.8-.459,1.441-.087,1.441.832v.576a3.184,3.184,0,0,1-1.441,2.5l-24.162,13.949c-.8.459-1.441.087-1.441-.832v-.574A3.183,3.183,0,0,1,161.545,301.241Z" transform="translate(-160.104 -244.469)" fill="#e0e0e0"/>
          </g>
        </g>
        <g id="Group_112" data-name="Group 112" transform="translate(129.009 65.659)">
          <path id="Path_156" data-name="Path 156" d="M132.5,228.355c-.333-.117-.5-.429-.5-.942a4.687,4.687,0,0,1,.3-1.483l1.8-5.734a2.732,2.732,0,0,1,.751-1.358.847.847,0,0,1,.8.077,5.965,5.965,0,0,0,5.7-.594,8.048,8.048,0,0,0,3.426-3.787,15.214,15.214,0,0,0,1.074-6.127V174.764a6.844,6.844,0,0,1,.526-2.843,4.147,4.147,0,0,1,1.774-1.871l3.7-2.136q1.251-.722,1.776-.181a3.37,3.37,0,0,1,.524,2.239v33.641a31.51,31.51,0,0,1-2.925,13.7,20.969,20.969,0,0,1-8.576,9.416Q136.649,230.191,132.5,228.355Z" transform="translate(-131.998 -112.653)" fill="#455a64"/>
          <path id="Path_157" data-name="Path 157" d="M152.095,214.864q-4.477-4.574-4.476-17.584t4.476-22.754a31.534,31.534,0,0,1,12.975-14.651q8.449-4.879,12.925-.3t4.476,17.586q0,13.011-4.476,22.752a31.454,31.454,0,0,1-12.925,14.621Q156.568,219.44,152.095,214.864Zm19.849-18.042q2.327-5.922,2.325-14.931t-2.325-12.244q-2.324-3.238-6.874-.611a16.334,16.334,0,0,0-6.926,8.577q-2.325,5.925-2.324,14.931t2.324,12.244q2.324,3.241,6.926.584A16.282,16.282,0,0,0,171.944,196.823Z" transform="translate(-121.618 -119.395)" fill="#455a64"/>
          <path id="Path_158" data-name="Path 158" d="M171.544,207.972a3.185,3.185,0,0,1-.524-2.2V160.122a6.851,6.851,0,0,1,.524-2.843,4.04,4.04,0,0,1,1.726-1.841l14.649-8.459q5.5-3.176,8.251-.877t2.75,9.153a23.086,23.086,0,0,1-1.125,7.116,17.428,17.428,0,0,1-3.076,5.854q5.151-.355,5.15,8.652a29.407,29.407,0,0,1-1.323,8.692,25.761,25.761,0,0,1-4,7.893,21.716,21.716,0,0,1-6.626,5.864l-14.649,8.459Q172.069,208.477,171.544,207.972Zm14.976-39.014a7.808,7.808,0,0,0,3.1-3.329,11.154,11.154,0,0,0,1.1-5.1q0-3.153-1.024-3.91t-3.176.484l-7.251,4.188v11.855Zm.8,21.4a7.765,7.765,0,0,0,3.274-3.7,13.081,13.081,0,0,0,1.075-5.356q0-3.308-1.25-4.245t-3.5.368l-7.65,4.416v13.165Z" transform="translate(-106.067 -127.515)" fill="#455a64"/>
          <path id="Path_159" data-name="Path 159" d="M195.419,195.06a8.988,8.988,0,0,1-5.776-.243,1.241,1.241,0,0,1-.749-1.107,4.153,4.153,0,0,1,.248-1.223l2.051-6.189a2.067,2.067,0,0,1,.651-1.144.791.791,0,0,1,.749.028,9.562,9.562,0,0,0,4.25.163,14.175,14.175,0,0,0,4.85-1.8,11.987,11.987,0,0,0,4.3-3.91,9.788,9.788,0,0,0,1.4-5.31,5.161,5.161,0,0,0-.674-3,3.029,3.029,0,0,0-2-1.155,27.069,27.069,0,0,0-4.075-.265,19.734,19.734,0,0,1-5.425-.641,6.388,6.388,0,0,1-3.65-2.856q-1.426-2.22-1.425-6.606a25.587,25.587,0,0,1,3.449-13.195,24.871,24.871,0,0,1,9.1-9.141q7.448-4.3,11.4-2.27a1.364,1.364,0,0,1,.749,1.107,4.154,4.154,0,0,1-.25,1.223l-2.051,6.185a2.044,2.044,0,0,1-.649,1.145.8.8,0,0,1-.751-.028q-3.049-1.316-7.4,1.193a9.947,9.947,0,0,0-5.4,9.123,5.246,5.246,0,0,0,.626,2.911,2.758,2.758,0,0,0,1.724,1.16,18.2,18.2,0,0,0,3.451.278l1.4.038a19.716,19.716,0,0,1,5.753.877,5.734,5.734,0,0,1,3.224,2.948,15.22,15.22,0,0,1,1.125,6.665,25.3,25.3,0,0,1-3.276,12.552,24.765,24.765,0,0,1-9.474,9.434A26.585,26.585,0,0,1,195.419,195.06Z" transform="translate(-94.19 -134.55)" fill="#455a64"/>
        </g>
      </g>
    </g>
    <g id="Speech_Bubbles" data-name="Speech Bubbles" transform="translate(411.28 81.847)">
      <g id="Tab">
        <g id="Group_113" data-name="Group 113">
          <path id="Path_160" data-name="Path 160" d="M357.76,76.353l0,0-.023-.013,0,0-6.753-3.91h0a3.031,3.031,0,0,0-3.059.293L261.915,122.5a9.594,9.594,0,0,0-4.324,7.49v177.27a3.033,3.033,0,0,0,1.263,2.788l0,0,.008,0v0l6.736,3.893.052.03.09.052v-.018a3.08,3.08,0,0,0,2.936-.34l22.724-13.12v13.654c0,2.415.383,3.818,1.009,4.2l0,.008,6.7,3.877.022.012.077.045v-.01c.766.409,1.881-.659,3.121-3.284l16.114-34.117,36.241-21.048a9.6,9.6,0,0,0,4.326-7.49V79.13A3.042,3.042,0,0,0,357.76,76.353Z" transform="translate(-257.591 -72.134)" fill="#27debf"/>
          <path id="Path_161" data-name="Path 161" d="M357.057,76.247a3.2,3.2,0,0,0-2.9.383l-86.022,49.785a8.669,8.669,0,0,0-3,3.146l-6.758-3.912a8.669,8.669,0,0,1,3-3.146L347.4,72.719a3.87,3.87,0,0,1,1.914-.583,2.284,2.284,0,0,1,1.132.283Z" transform="translate(-257.063 -72.133)" fill="#fff" opacity="0.4"/>
          <path id="Path_162" data-name="Path 162" d="M278.9,228.788v-.017c-.616-.383-1-1.781-1-4.195V210.928l6.758-3.912v21.472c0,2.3.35,3.7.916,4.161Z" transform="translate(-244.092 17.496)" opacity="0.2"/>
          <path id="Path_163" data-name="Path 163" d="M265.651,292.609c-.017,0-.033-.017-.05-.017L258.86,288.7l-.017-.017a3.043,3.043,0,0,1-1.248-2.78V108.63a8.879,8.879,0,0,1,1.315-4.344l6.758,3.912a8.879,8.879,0,0,0-1.315,4.344v177.27A3.008,3.008,0,0,0,265.651,292.609Z" transform="translate(-257.588 -50.769)" opacity="0.1"/>
        </g>
        <g id="Group_114" data-name="Group 114" transform="translate(20.282 27.016)">
          <path id="Path_164" data-name="Path 164" d="M273.378,123.847l60.408-34.988c1.989-1.152,3.6-.223,3.6,2.076v38.508a7.978,7.978,0,0,1-3.6,6.247l-60.408,34.99c-1.989,1.152-3.6.223-3.6-2.076l0-38.51A7.98,7.98,0,0,1,273.378,123.847Z" transform="translate(-269.776 -88.365)" fill="#455a64"/>
          <path id="Path_165" data-name="Path 165" d="M337.386,123.527a7.728,7.728,0,0,1-3.6,5.984l-60.4,34.875c-1.991,1.149-3.6.331-3.6-1.824a7.731,7.731,0,0,1,3.6-5.986l60.4-34.873C335.773,120.554,337.386,121.37,337.386,123.527Z" transform="translate(-269.775 -66.557)" fill="#455a64"/>
          <path id="Path_166" data-name="Path 166" d="M337.386,132.907a7.725,7.725,0,0,1-3.6,5.984l-60.4,34.875c-1.991,1.148-3.6.333-3.6-1.824a7.725,7.725,0,0,1,3.6-5.984l60.4-34.873C335.773,129.934,337.386,130.751,337.386,132.907Z" transform="translate(-269.775 -60.324)" fill="#455a64"/>
          <path id="Path_167" data-name="Path 167" d="M337.386,142.287a7.725,7.725,0,0,1-3.6,5.984l-60.4,34.875c-1.991,1.149-3.6.333-3.6-1.824a7.725,7.725,0,0,1,3.6-5.984l60.4-34.873C335.773,139.314,337.386,140.131,337.386,142.287Z" transform="translate(-269.775 -54.091)" fill="#455a64"/>
          <path id="Path_168" data-name="Path 168" d="M337.386,151.667a7.725,7.725,0,0,1-3.6,5.984l-60.4,34.875c-1.991,1.148-3.6.333-3.6-1.824a7.725,7.725,0,0,1,3.6-5.984l60.4-34.873C335.773,148.694,337.386,149.511,337.386,151.667Z" transform="translate(-269.775 -47.858)" fill="#455a64"/>
          <path id="Path_169" data-name="Path 169" d="M269.776,187.619c0,2.156,1.613,2.971,3.6,1.823l6.315-3.645a7.735,7.735,0,0,0,3.605-5.986c0-2.156-1.613-2.971-3.6-1.823l-6.317,3.647A7.73,7.73,0,0,0,269.776,187.619Z" transform="translate(-269.776 -29.156)" fill="#455a64"/>
          <path id="Path_170" data-name="Path 170" d="M283.4,187.022c0,2.156,1.613,2.971,3.6,1.823l37.719-21.81a7.725,7.725,0,0,0,3.6-5.984c0-2.157-1.613-2.974-3.6-1.826l-37.721,21.813A7.719,7.719,0,0,0,283.4,187.022Z" transform="translate(-260.72 -41.624)" fill="#455a64"/>
          <path id="Path_171" data-name="Path 171" d="M269.776,197c0,2.156,1.613,2.971,3.6,1.823l6.315-3.647a7.732,7.732,0,0,0,3.605-5.984c0-2.156-1.613-2.971-3.6-1.823l-6.317,3.645A7.733,7.733,0,0,0,269.776,197Z" transform="translate(-269.776 -22.922)" fill="#455a64"/>
          <path id="Path_172" data-name="Path 172" d="M283.4,196.4c0,2.156,1.613,2.971,3.6,1.823l37.719-21.81a7.726,7.726,0,0,0,3.6-5.986c0-2.156-1.613-2.973-3.6-1.824l-37.721,21.813A7.719,7.719,0,0,0,283.4,196.4Z" transform="translate(-260.72 -35.39)" fill="#455a64"/>
          <path id="Path_173" data-name="Path 173" d="M269.776,206.379c0,2.157,1.613,2.973,3.6,1.824l6.315-3.647a7.732,7.732,0,0,0,3.605-5.984c0-2.156-1.613-2.973-3.6-1.823L273.38,200.4A7.73,7.73,0,0,0,269.776,206.379Z" transform="translate(-269.776 -16.688)" fill="#455a64"/>
          <path id="Path_174" data-name="Path 174" d="M283.4,205.784c0,2.156,1.613,2.971,3.6,1.821L324.727,185.8a7.726,7.726,0,0,0,3.6-5.986c0-2.157-1.613-2.973-3.6-1.824L287.006,199.8A7.725,7.725,0,0,0,283.4,205.784Z" transform="translate(-260.72 -29.156)" fill="#455a64"/>
        </g>
      </g>
      <g id="Tab-2" data-name="Tab" transform="translate(81.171 46.739)">
        <g id="Group_115" data-name="Group 115">
          <path id="Path_175" data-name="Path 175" d="M406.526,104.433l0,0-.023-.013,0,0-6.755-3.91h0a3.028,3.028,0,0,0-3.058.293l-86.01,49.781a9.594,9.594,0,0,0-4.324,7.49v177.27a3.034,3.034,0,0,0,1.265,2.788l0,0,.007,0h0l6.736,3.895.052.03.088.052v-.018a3.082,3.082,0,0,0,2.938-.34l22.724-13.12v13.654c0,2.415.381,3.82,1.009,4.2l-.005.008,6.706,3.877.02.012.078.045v-.01c.764.409,1.879-.659,3.119-3.284l16.114-34.117,36.243-21.048a9.594,9.594,0,0,0,4.324-7.49V107.21A3.044,3.044,0,0,0,406.526,104.433Z" transform="translate(-306.357 -100.214)" fill="#27debf"/>
          <path id="Path_176" data-name="Path 176" d="M405.824,104.327a3.2,3.2,0,0,0-2.9.383L316.906,154.5a8.669,8.669,0,0,0-3,3.146l-6.758-3.912a8.67,8.67,0,0,1,3-3.146L396.17,100.8a3.87,3.87,0,0,1,1.914-.583,2.283,2.283,0,0,1,1.132.283Z" transform="translate(-305.829 -100.213)" fill="#fff" opacity="0.4"/>
          <path id="Path_177" data-name="Path 177" d="M327.671,256.868v-.017c-.616-.383-1-1.781-1-4.195V239.008l6.758-3.912v21.472c0,2.3.35,3.7.916,4.161Z" transform="translate(-292.857 -10.584)" opacity="0.2"/>
          <path id="Path_178" data-name="Path 178" d="M314.418,320.689c-.017,0-.033-.017-.05-.017l-6.741-3.895-.017-.017a3.043,3.043,0,0,1-1.248-2.78V136.71a8.879,8.879,0,0,1,1.315-4.344l6.758,3.912a8.879,8.879,0,0,0-1.315,4.344v177.27A3.008,3.008,0,0,0,314.418,320.689Z" transform="translate(-306.354 -78.849)" opacity="0.1"/>
        </g>
        <g id="Group_116" data-name="Group 116" transform="translate(20.284 27.016)">
          <path id="Path_179" data-name="Path 179" d="M322.145,151.927l60.408-34.988c1.987-1.152,3.6-.223,3.6,2.076v38.508a7.982,7.982,0,0,1-3.6,6.247l-60.408,34.99c-1.989,1.152-3.6.223-3.6-2.076v-38.51A7.98,7.98,0,0,1,322.145,151.927Z" transform="translate(-318.543 -116.445)" fill="#455a64"/>
          <path id="Path_180" data-name="Path 180" d="M386.153,151.607a7.728,7.728,0,0,1-3.6,5.984l-60.4,34.875c-1.991,1.149-3.6.331-3.6-1.824a7.731,7.731,0,0,1,3.6-5.986l60.4-34.873C384.54,148.634,386.153,149.45,386.153,151.607Z" transform="translate(-318.542 -94.637)" fill="#455a64"/>
          <path id="Path_181" data-name="Path 181" d="M386.153,160.987a7.725,7.725,0,0,1-3.6,5.984l-60.4,34.875c-1.991,1.148-3.6.333-3.6-1.824a7.725,7.725,0,0,1,3.6-5.984l60.4-34.873C384.54,158.014,386.153,158.831,386.153,160.987Z" transform="translate(-318.542 -88.404)" fill="#455a64"/>
          <path id="Path_182" data-name="Path 182" d="M386.153,170.367a7.725,7.725,0,0,1-3.6,5.984l-60.4,34.875c-1.991,1.148-3.6.333-3.6-1.824a7.725,7.725,0,0,1,3.6-5.984l60.4-34.873C384.54,167.394,386.153,168.211,386.153,170.367Z" transform="translate(-318.542 -82.171)" fill="#455a64"/>
          <path id="Path_183" data-name="Path 183" d="M386.153,179.747a7.725,7.725,0,0,1-3.6,5.984l-60.4,34.875c-1.991,1.149-3.6.333-3.6-1.824a7.725,7.725,0,0,1,3.6-5.984l60.4-34.873C384.54,176.774,386.153,177.591,386.153,179.747Z" transform="translate(-318.542 -75.938)" fill="#455a64"/>
          <path id="Path_184" data-name="Path 184" d="M318.543,215.7c0,2.156,1.613,2.971,3.6,1.823l6.315-3.645a7.728,7.728,0,0,0,3.6-5.984c0-2.157-1.613-2.973-3.6-1.824l-6.317,3.647A7.725,7.725,0,0,0,318.543,215.7Z" transform="translate(-318.543 -57.236)" fill="#455a64"/>
          <path id="Path_185" data-name="Path 185" d="M332.17,215.1c0,2.156,1.615,2.971,3.605,1.823l37.719-21.808a7.731,7.731,0,0,0,3.6-5.986c0-2.157-1.613-2.974-3.6-1.824l-37.721,21.812A7.725,7.725,0,0,0,332.17,215.1Z" transform="translate(-309.488 -69.703)" fill="#455a64"/>
          <path id="Path_186" data-name="Path 186" d="M318.543,225.08c0,2.156,1.613,2.971,3.6,1.823l6.315-3.647a7.725,7.725,0,0,0,3.6-5.984c0-2.156-1.613-2.971-3.6-1.823l-6.317,3.645A7.728,7.728,0,0,0,318.543,225.08Z" transform="translate(-318.543 -51.002)" fill="#455a64"/>
          <path id="Path_187" data-name="Path 187" d="M332.17,224.483c0,2.156,1.615,2.971,3.605,1.823l37.719-21.81a7.726,7.726,0,0,0,3.6-5.986c0-2.156-1.613-2.973-3.6-1.824L335.774,218.5A7.725,7.725,0,0,0,332.17,224.483Z" transform="translate(-309.488 -63.47)" fill="#455a64"/>
          <path id="Path_188" data-name="Path 188" d="M318.543,234.459c0,2.157,1.613,2.973,3.6,1.824l6.315-3.647a7.725,7.725,0,0,0,3.6-5.984c0-2.156-1.613-2.973-3.6-1.823l-6.317,3.645A7.728,7.728,0,0,0,318.543,234.459Z" transform="translate(-318.543 -44.768)" fill="#455a64"/>
          <path id="Path_189" data-name="Path 189" d="M332.17,233.864c0,2.156,1.615,2.971,3.605,1.823l37.719-21.81a7.725,7.725,0,0,0,3.6-5.986c0-2.157-1.613-2.973-3.6-1.824L335.774,227.88A7.725,7.725,0,0,0,332.17,233.864Z" transform="translate(-309.488 -57.236)" fill="#455a64"/>
        </g>
      </g>
    </g>
    <g id="Icons" transform="translate(634.399 57.518)">
      <g id="Group_123" data-name="Group 123">
        <g id="Group_121" data-name="Group 121">
          <g id="Group_119" data-name="Group 119">
            <g id="Group_118" data-name="Group 118">
              <g id="Group_117" data-name="Group 117">
                <path id="Path_190" data-name="Path 190" d="M437.823,64.095l-8.89-5.128-.01-.007-.082-.047-.008.013c-3.947-2.227-9.363-1.891-15.353,1.566-12.063,6.964-21.843,23.906-21.843,37.836,0,6.953,2.439,11.84,6.378,14.127v0l.018.01,0,0,8.089,4.617,1.932-3.232a22.13,22.13,0,0,0,6.265-2.437c12.064-6.966,21.845-23.906,21.847-37.836A23.483,23.483,0,0,0,435.484,68Z" transform="translate(-391.636 -57.518)" fill="#27debf"/>
              </g>
            </g>
          </g>
          <g id="Group_120" data-name="Group 120" transform="translate(0.003 0.001)">
            <path id="Path_191" data-name="Path 191" d="M391.638,91.2c0,6.958,2.434,11.841,6.372,14.127v.008l.025.008,8.091,4.622,1.932-3.232a22.317,22.317,0,0,0,6.265-2.442c6.455-3.725,12.261-10.32,16.257-17.769L398.9,68.237C394.441,75.424,391.638,83.745,391.638,91.2Z" transform="translate(-391.638 -50.396)" fill="#263238"/>
            <path id="Path_192" data-name="Path 192" d="M434.926,64.094l-8.888-5.13h-.017l-.083-.05-.008.017c-3.947-2.229-9.356-1.9-15.352,1.561C404.97,63.725,399.857,69.119,396,75.359l31.682,18.288c3.477-6.472,5.591-13.592,5.591-20.064A23.244,23.244,0,0,0,432.583,68Z" transform="translate(-388.739 -57.519)" fill="#455a64"/>
          </g>
          <path id="Path_193" data-name="Path 193" d="M418.555,63.407c-12.064,6.964-21.845,23.906-21.845,37.836s9.779,19.576,21.843,12.612S440.4,89.95,440.4,76.019,430.621,56.441,418.555,63.407Z" transform="translate(-388.264 -55.587)" fill="#37474f"/>
        </g>
        <g id="Group_122" data-name="Group 122" transform="translate(23.509 16.144)">
          <path id="Path_194" data-name="Path 194" d="M414.13,70.426a3.99,3.99,0,0,1,2.021-.135,3.056,3.056,0,0,1,1.456.769,3.653,3.653,0,0,1,.894,1.383,5.657,5.657,0,0,1,.353,1.661,1.551,1.551,0,0,1-.176.807,1.26,1.26,0,0,1-.459.536l-1.644.95c-.266.153-.466.191-.6.112a1.073,1.073,0,0,1-.365-.424,1.869,1.869,0,0,0-1.069-.957,2.8,2.8,0,0,0-2.127.559,6.364,6.364,0,0,0-1.163.871,6.5,6.5,0,0,0-.964,1.135,5.717,5.717,0,0,0-.646,1.3,4.146,4.146,0,0,0-.235,1.365,2.176,2.176,0,0,0,.258,1.208,1.058,1.058,0,0,0,.834.424,5.349,5.349,0,0,0,1.481-.15c.6-.133,1.337-.3,2.2-.511a8.029,8.029,0,0,1,2.385-.273,2.72,2.72,0,0,1,1.6.6,2.947,2.947,0,0,1,.894,1.528,9.747,9.747,0,0,1,.27,2.487,11.89,11.89,0,0,1-.351,2.845,14.051,14.051,0,0,1-2.656,5.368,13.2,13.2,0,0,1-2.186,2.167v2.46a1.849,1.849,0,0,1-.188.8,1.192,1.192,0,0,1-.446.548l-1.9,1.1a.341.341,0,0,1-.446-.03.773.773,0,0,1-.188-.579v-2.46a5.168,5.168,0,0,1-1.987.295,3.217,3.217,0,0,1-1.621-.528,3.279,3.279,0,0,1-1.115-1.363,5.719,5.719,0,0,1-.471-2.244,1.529,1.529,0,0,1,.176-.807,1.263,1.263,0,0,1,.458-.538l1.646-.949c.266-.155.469-.2.611-.136a.784.784,0,0,1,.353.448,4.025,4.025,0,0,0,.4.711,1.213,1.213,0,0,0,.634.466,2.041,2.041,0,0,0,1,.018,4.933,4.933,0,0,0,1.493-.626,9.868,9.868,0,0,0,1.362-.949,6.876,6.876,0,0,0,1.154-1.208,6.607,6.607,0,0,0,.8-1.4,4.064,4.064,0,0,0,.3-1.57,1.512,1.512,0,0,0-.33-1.112,1.321,1.321,0,0,0-1-.293,8.416,8.416,0,0,0-1.656.27q-.989.245-2.28.484a6.827,6.827,0,0,1-2.057.155,2.414,2.414,0,0,1-1.456-.624,3.238,3.238,0,0,1-.857-1.548,10.145,10.145,0,0,1-.281-2.643,11.377,11.377,0,0,1,.353-2.808,14.909,14.909,0,0,1,.974-2.716,13.507,13.507,0,0,1,1.493-2.452,13.208,13.208,0,0,1,1.9-2.022v-2.46a1.834,1.834,0,0,1,.188-.8,1.19,1.19,0,0,1,.446-.548l1.9-1.1a.341.341,0,0,1,.446.032.779.779,0,0,1,.188.579Z" transform="translate(-405.759 -67.217)" fill="#fafafa"/>
        </g>
      </g>
      <g id="Group_135" data-name="Group 135" transform="translate(0 162.879)">
        <g id="Group_128" data-name="Group 128">
          <g id="Group_126" data-name="Group 126">
            <g id="Group_125" data-name="Group 125">
              <g id="Group_124" data-name="Group 124">
                <path id="Path_195" data-name="Path 195" d="M437.823,161.949l-8.89-5.128-.01-.007-.082-.047-.008.013c-3.947-2.227-9.363-1.891-15.353,1.566-12.063,6.964-21.843,23.906-21.843,37.836,0,6.954,2.439,11.84,6.378,14.127v0l.018.01,0,0,8.089,4.617,1.932-3.232a22.129,22.129,0,0,0,6.265-2.437c12.064-6.966,21.845-23.906,21.847-37.836a23.483,23.483,0,0,0-.684-5.579Z" transform="translate(-391.636 -155.372)" fill="#27debf"/>
              </g>
            </g>
          </g>
          <g id="Group_127" data-name="Group 127" transform="translate(0.003 0.001)">
            <path id="Path_196" data-name="Path 196" d="M391.638,189.058c0,6.956,2.434,11.84,6.372,14.127v.007l.025.008,8.091,4.622,1.932-3.232a22.317,22.317,0,0,0,6.265-2.442c6.455-3.725,12.261-10.32,16.257-17.769L398.9,166.091C394.441,173.278,391.638,181.6,391.638,189.058Z" transform="translate(-391.638 -148.25)" fill="#263238"/>
            <path id="Path_197" data-name="Path 197" d="M434.926,161.948l-8.888-5.13h-.017l-.083-.05-.008.017c-3.947-2.229-9.356-1.9-15.352,1.561-5.608,3.232-10.721,8.627-14.578,14.867L427.682,191.5c3.477-6.472,5.591-13.592,5.591-20.064a23.244,23.244,0,0,0-.691-5.583Z" transform="translate(-388.739 -155.373)" fill="#455a64"/>
          </g>
          <path id="Path_198" data-name="Path 198" d="M418.555,161.261c-12.064,6.966-21.845,23.9-21.845,37.836s9.779,19.576,21.843,12.612S440.4,187.8,440.4,173.873,430.621,154.3,418.555,161.261Z" transform="translate(-388.264 -153.441)" fill="#37474f"/>
        </g>
        <g id="Group_134" data-name="Group 134" transform="translate(18.711 15.187)">
          <g id="Group_133" data-name="Group 133">
            <g id="Group_129" data-name="Group 129" transform="translate(0 1.63)">
              <path id="Path_199" data-name="Path 199" d="M425.569,186.679l-22.225,12.83c-.258.15-.468-.052-.468-.449V179.346a1.233,1.233,0,0,1,.468-.99l22.225-12.832c.258-.148.468.053.468.451v19.714A1.236,1.236,0,0,1,425.569,186.679Z" transform="translate(-402.877 -165.475)" fill="#fafafa"/>
            </g>
            <g id="Group_130" data-name="Group 130" transform="translate(6.736 1.658)">
              <path id="Path_200" data-name="Path 200" d="M416.144,170.7c-.258.148-.468-.053-.468-.449v-3l-7.817,4.514v3a1.236,1.236,0,0,1-.468.99c-.258.148-.468-.053-.468-.451v-3.724a1.232,1.232,0,0,1,.468-.989l8.752-5.053c.258-.148.468.053.468.449v3.723A1.233,1.233,0,0,1,416.144,170.7Z" transform="translate(-406.924 -165.492)" fill="#fafafa"/>
            </g>
            <g id="Group_131" data-name="Group 131" transform="translate(6.736)">
              <path id="Path_201" data-name="Path 201" d="M416.144,167.642l-8.752,5.053c-.258.148-.468-.053-.468-.451v-1.656a1.234,1.234,0,0,1,.468-.99l8.752-5.053c.258-.148.468.053.468.451v1.656A1.234,1.234,0,0,1,416.144,167.642Z" transform="translate(-406.924 -164.496)" fill="#fafafa"/>
            </g>
            <g id="Group_132" data-name="Group 132" transform="translate(8.063 13.163)">
              <path id="Path_202" data-name="Path 202" d="M414.416,174.688l-6.355,3.67c-.188.108-.34-.038-.34-.328v-1.2a.89.89,0,0,1,.34-.717l6.355-3.67c.186-.108.34.038.34.328v1.2A.894.894,0,0,1,414.416,174.688Z" transform="translate(-407.721 -172.404)" fill="#37474f"/>
            </g>
          </g>
        </g>
      </g>
      <g id="Group_139" data-name="Group 139" transform="translate(0 81.439)">
        <g id="Group_137" data-name="Group 137">
          <path id="Path_203" data-name="Path 203" d="M437.823,113.022l-8.89-5.128-.01-.007-.082-.047-.008.013c-3.947-2.227-9.363-1.891-15.353,1.566-12.063,6.966-21.843,23.906-21.843,37.836,0,6.954,2.439,11.84,6.378,14.127v0l.018.01,0,0,8.089,4.619,1.932-3.232a22.18,22.18,0,0,0,6.265-2.437c12.064-6.966,21.845-23.906,21.847-37.836a23.482,23.482,0,0,0-.684-5.579Z" transform="translate(-391.636 -106.445)" fill="#27debf"/>
          <g id="Group_136" data-name="Group 136" transform="translate(0.003 0.001)">
            <path id="Path_204" data-name="Path 204" d="M391.638,140.131c0,6.956,2.434,11.84,6.372,14.127v.007l.025.008,8.091,4.622,1.932-3.232a22.317,22.317,0,0,0,6.265-2.442c6.455-3.725,12.261-10.32,16.257-17.769L398.9,117.164C394.441,124.351,391.638,132.672,391.638,140.131Z" transform="translate(-391.638 -99.323)" fill="#263238"/>
            <path id="Path_205" data-name="Path 205" d="M434.926,113.021l-8.888-5.13h-.017l-.083-.05-.008.017c-3.947-2.229-9.356-1.9-15.352,1.561-5.608,3.232-10.721,8.627-14.578,14.867l31.682,18.288c3.477-6.472,5.591-13.592,5.591-20.064a23.244,23.244,0,0,0-.691-5.583Z" transform="translate(-388.739 -106.446)" fill="#455a64"/>
          </g>
          <path id="Path_206" data-name="Path 206" d="M418.555,112.334C406.491,119.3,396.71,136.24,396.71,150.17s9.779,19.576,21.843,12.612S440.4,138.877,440.4,124.946,430.621,105.368,418.555,112.334Z" transform="translate(-388.264 -104.514)" fill="#37474f"/>
        </g>
        <g id="Group_138" data-name="Group 138" transform="translate(18.934 12.206)">
          <path id="Path_207" data-name="Path 207" d="M405.023,127.768c0-3.169,1.668-6.7,3.727-7.89s3.727.416,3.727,3.585-1.668,6.7-3.727,7.89S405.023,130.936,405.023,127.768Z" transform="translate(-401.674 -109.985)" fill="#fff"/>
          <path id="Path_208" data-name="Path 208" d="M416.71,139.052l-13.7,7.908.731-9.11c.311-3.89,2.364-7.851,4.794-9.255l2.65-1.53c2.43-1.4,4.483.188,4.794,3.719Z" transform="translate(-403.011 -105.286)" fill="#fff"/>
          <path id="Path_209" data-name="Path 209" d="M410.438,122.059c0-3.169,1.669-6.7,3.727-7.89s3.727.418,3.727,3.587-1.668,6.7-3.727,7.89S410.438,125.228,410.438,122.059Z" transform="translate(-398.076 -113.778)" fill="#fff"/>
          <path id="Path_210" data-name="Path 210" d="M421.562,133.34l-8.4,4.852-.383-4.361c-.273-3.063-1.655-4.91-3.5-5.048.859-2.63,2.389-4.9,4.11-5.9l2.65-1.528c2.432-1.4,4.484.185,4.8,3.717Z" transform="translate(-398.848 -109.078)" fill="#fff"/>
        </g>
      </g>
    </g>
    <g id="Magnifying_glass" data-name="Magnifying glass" transform="translate(219.688 445.462)">
      <g id="Magnifying_glass-2" data-name="Magnifying glass">
        <g id="Group_141" data-name="Group 141" transform="translate(93.298)">
          <path id="Path_211" data-name="Path 211" d="M338.288,330.929c0-10.325-6.823-20.65-20.467-28.526-27.286-15.755-71.527-15.755-98.815,0-13.644,7.876-20.465,18.2-20.465,28.525h0v19.019c0,10.323,6.821,20.648,20.465,28.525,27.288,15.755,71.529,15.755,98.817,0,13.642-7.876,20.465-18.2,20.465-28.525V330.929Zm-115.9-22.674c12.186-7.036,28.533-10.911,46.029-10.911s33.844,3.875,46.03,10.911c11.019,6.362,17.086,14.413,17.086,22.674s-6.069,16.311-17.086,22.672c-12.186,7.036-28.533,10.911-46.03,10.911s-33.841-3.875-46.029-10.911c-11.017-6.362-17.086-14.413-17.086-22.672S211.366,314.616,222.385,308.255Z" transform="translate(-198.536 -290.586)" fill="#27debf"/>
          <path id="Path_212" data-name="Path 212" d="M219,359.453c27.288,15.755,71.529,15.755,98.817,0s27.288-41.3,0-57.051-71.529-15.755-98.817,0S191.717,343.7,219,359.453ZM205.3,330.929c0-8.261,6.067-16.312,17.086-22.674,12.186-7.036,28.533-10.911,46.03-10.911s33.843,3.875,46.029,10.911c11.019,6.362,17.086,14.413,17.086,22.674s-6.069,16.311-17.086,22.672c-12.188,7.036-28.535,10.911-46.029,10.911s-33.844-3.875-46.03-10.911C211.365,347.239,205.3,339.188,205.3,330.929Z" transform="translate(-198.538 -290.586)" fill="#fff" opacity="0.3"/>
          <g id="Group_140" data-name="Group 140" transform="translate(6.753 6.756)">
            <path id="Path_213" data-name="Path 213" d="M202.6,328.23a18.746,18.746,0,0,0,2.73,9.514c2.77-4.8,7.65-9.3,14.366-13.163,12.178-7.043,28.53-10.921,46.032-10.921s33.841,3.878,46.017,10.921c6.716,3.865,11.595,8.364,14.38,13.163a18.86,18.86,0,0,0,2.716-9.514c0-8.258-6.069-16.312-17.1-22.677-12.176-7.029-28.53-10.908-46.017-10.908s-33.854,3.878-46.032,10.908C208.664,311.918,202.6,319.972,202.6,328.23Z" transform="translate(-202.595 -294.645)" fill="#27debf"/>
            <path id="Path_214" data-name="Path 214" d="M202.6,328.23a18.746,18.746,0,0,0,2.73,9.514c2.77-4.8,7.65-9.3,14.366-13.163,12.178-7.043,28.53-10.921,46.032-10.921s33.841,3.878,46.017,10.921c6.716,3.865,11.595,8.364,14.38,13.163a18.86,18.86,0,0,0,2.716-9.514c0-8.258-6.069-16.312-17.1-22.677-12.176-7.029-28.53-10.908-46.017-10.908s-33.854,3.878-46.032,10.908C208.664,311.918,202.6,319.972,202.6,328.23Z" transform="translate(-202.595 -294.645)" opacity="0.1"/>
          </g>
          <path id="Path_215" data-name="Path 215" d="M219.46,310.73c12.186-7.036,28.533-10.911,46.03-10.911s33.843,3.875,46.029,10.911c9.091,5.248,14.8,11.65,16.524,18.368-1.721,6.718-7.432,13.12-16.524,18.368-12.188,7.036-28.535,10.911-46.029,10.911s-33.844-3.875-46.03-10.911c-9.092-5.248-14.8-11.65-16.524-18.368C204.659,322.38,210.368,315.978,219.46,310.73Z" transform="translate(-195.615 -284.451)" fill="#fff" opacity="0.4"/>
          <path id="Path_216" data-name="Path 216" d="M251.949,356.528v19c-12.069-1.676-23.516-5.23-32.936-10.676-13.649-7.88-20.475-18.2-20.475-28.53V317.309a24,24,0,0,1,.839-6.23h.013c-3.312,12.284,3.229,25.286,19.623,34.76C228.433,351.285,239.879,354.839,251.949,356.528Z" transform="translate(-198.538 -276.969)" opacity="0.1"/>
        </g>
        <g id="Group_145" data-name="Group 145" transform="translate(0 71.798)">
          <g id="Group_142" data-name="Group 142" transform="translate(82.545)">
            <path id="Path_217" data-name="Path 217" d="M225.378,342.9a10.823,10.823,0,0,0-4.862-8.5,3.446,3.446,0,0,0-3.446-.363v0l-.013.007,0,0-23.521,13.424-.017.008,0,0h0a3.448,3.448,0,0,0-1.436,3.154,10.826,10.826,0,0,0,4.862,8.5,3.442,3.442,0,0,0,3.461.356h0l23.518-13.421,0,0A3.429,3.429,0,0,0,225.378,342.9Z" transform="translate(-192.078 -333.721)" fill="#37474f"/>
            <path id="Path_218" data-name="Path 218" d="M223.063,343.865a3.429,3.429,0,0,0,1.461-3.169,9.293,9.293,0,0,0-.831-3.664l-30.331,17.346a9.277,9.277,0,0,0,2.723,2.553,3.442,3.442,0,0,0,3.461.356l23.518-13.421Z" transform="translate(-191.224 -331.52)" fill="#263238"/>
          </g>
          <path id="Path_219" data-name="Path 219" d="M232.847,353.712a14.083,14.083,0,0,0-6.325-11.062c-1.721-1-3.281-1.11-4.431-.491l-.005-.008-.065.035,0,0-78,41.659,11.638,20.568,75.3-46.581C232.116,357.174,232.839,355.747,232.847,353.712Z" transform="translate(-141.472 -328.369)" fill="#27debf"/>
          <path id="Path_220" data-name="Path 220" d="M153.4,402.329l75.3-46.581c1.162-.659,1.884-2.086,1.893-4.121a13.245,13.245,0,0,0-2.116-6.715L147.4,391.725Z" transform="translate(-139.222 -326.284)" opacity="0.1"/>
          <g id="Group_143" data-name="Group 143" transform="translate(0 54.969)">
            <path id="Path_221" data-name="Path 221" d="M150.783,387.2c-4.6-2.682-8.318-9.176-8.3-14.508s3.772-7.479,8.376-4.8,8.319,9.178,8.3,14.508S155.389,389.884,150.783,387.2Z" transform="translate(-142.487 -366.745)" fill="#27debf"/>
          </g>
          <g id="Group_144" data-name="Group 144" transform="translate(0 54.969)" opacity="0.2">
            <path id="Path_222" data-name="Path 222" d="M150.783,387.2c-4.6-2.682-8.318-9.176-8.3-14.508s3.772-7.479,8.376-4.8,8.319,9.178,8.3,14.508S155.389,389.884,150.783,387.2Z" transform="translate(-142.487 -366.745)"/>
          </g>
        </g>
      </g>
    </g>
    <g id="Character" transform="translate(578.908 317.169)">
      <g id="Character-2" data-name="Character">
        <g id="Group_146" data-name="Group 146" transform="translate(87.992 46.591)">
          <path id="Path_223" data-name="Path 223" d="M432.085,286.544c.852-31.657-1.686-39.244-10.114-45.043l-3.266,18.343s3.84,21.619,3.427,28.818c-.361,6.325-.977,14.238-2.473,19.35a3.845,3.845,0,0,1-1.676,2.169c-2.147,1.343-3.011,2.721-4.627,4.414-1.267,1.325-2.344,1.654-2.177,2.076a2.081,2.081,0,0,0,2.668.945,14.582,14.582,0,0,0,3.044-1.651,19.336,19.336,0,0,1-3.118,5.36c-3.009,3.689-3.143,5.956,2.935,6.009,3.807.033,6.846-2.315,9.711-10.7a68.4,68.4,0,0,0,2.677-9.421C430.55,298.9,431.949,291.641,432.085,286.544Z" transform="translate(-411.162 -241.501)" fill="#ffa8a7"/>
        </g>
        <path id="Path_224" data-name="Path 224" d="M413.395,240.117c4.023-.583,9.493.261,13.025,6.578s4.4,17.186,4.8,27.992c0,0-7.018,5.867-15.433,2.983Z" transform="translate(-321.686 -195.932)" fill="#27debf"/>
        <g id="Group_166" data-name="Group 166" transform="translate(46.436)">
          <g id="Group_153" data-name="Group 153" transform="translate(0 98.397)">
            <g id="Group_147" data-name="Group 147" transform="translate(38.749 108.555)">
              <path id="Path_225" data-name="Path 225" d="M427.836,349.2c.639.243.8,1.46.9,3.878.073,1.831.466,5.027-1.678,5.664s-5.286.313-6.661-1.413c-1.714-2.154-2.875-4.05-5.321-6.678-2.124-2.279-4.421-4.408-5.278-7.6-.774-2.89-.13-4.143,1.841-4.984,2.711-1.155,6.969,2.62,9.093,3.214C422.558,341.786,427.2,348.955,427.836,349.2Z" transform="translate(-409.476 -337.843)" fill="#263238"/>
            </g>
            <g id="Group_148" data-name="Group 148" transform="translate(48.824 116.593)">
              <path id="Path_226" data-name="Path 226" d="M423.814,343.747v2.971a7.272,7.272,0,0,1-7.507.2c-.13-.286-.779-4.25-.779-4.25Z" transform="translate(-415.528 -342.672)" fill="#ffa8a7"/>
            </g>
            <g id="Group_149" data-name="Group 149" transform="translate(0 137.029)">
              <path id="Path_227" data-name="Path 227" d="M419.25,354.949s.852,2.583,1.312,4.842c.365,1.8.887,4.8.258,6.149s-3.081,2.222-6.884,2.194c-2.463-.018-6.3,1.655-8.93,3.121-2.715,1.515-8.361,2.117-11.232,1.781-3.384-.4-6.889-2.36-7.437-3.762s.18-2.856,8.154-6.254c.073-.032,11.086-3.612,14.944-7.87Z" transform="translate(-386.196 -354.949)" fill="#263238"/>
            </g>
            <g id="Group_150" data-name="Group 150" transform="translate(23.234 133.818)">
              <path id="Path_228" data-name="Path 228" d="M409.974,353.02s-.012,2.2,0,3.464-1.478,3.138-5.328,3c-2.706-.1-4.594-.824-4.487-3.051V353.22Z" transform="translate(-400.154 -353.02)" fill="#ffa8a7"/>
            </g>
            <g id="Group_151" data-name="Group 151" transform="translate(12.287)">
              <path id="Path_229" data-name="Path 229" d="M440.333,350.873a80.693,80.693,0,0,0-3.509-15.472s1.062-13.348,1.57-26c.549-13.669-.028-30.853.231-34.262,0,0-44.109-8.925-44.9,6.876s1.741,56.027,2.262,62.97,1.721,13.081,3.156,24.333c1.415,11.1,5.383,37.327,5.383,37.327a10.418,10.418,0,0,0,9.816-.2s3.1-31.6,2.778-39.607a68.428,68.428,0,0,0-3.038-17.484s.836-13.03,1.575-24.363,1.521-16.777,1.693-21.707l.949-.471s.967,19.553,1.488,26.5,1.626,13.6,3.635,26.492c1.741,11.185,6.931,34.853,6.931,34.853,5.039,2.725,8.045-.358,8.045-.358S441.693,360.579,440.333,350.873Z" transform="translate(-393.577 -272.625)" fill="#37474f"/>
            </g>
            <g id="Group_152" data-name="Group 152" transform="translate(36.062 20.628)">
              <path id="Path_230" data-name="Path 230" d="M407.861,295.047s10.7-5.273,16.056-10.029c0,0-4.974,7.006-11.5,10.114,0,0-2.322,24.289-2.31,23.806l-1.34-23.927Z" transform="translate(-407.861 -285.018)" fill="#263238"/>
            </g>
          </g>
          <g id="Group_155" data-name="Group 155" transform="translate(26.537 36.314)">
            <g id="Group_154" data-name="Group 154">
              <path id="Path_231" data-name="Path 231" d="M402.139,238.194l2.61,14.366,12.977-.948L415,235.327Z" transform="translate(-402.139 -235.327)" fill="#ffa8a7"/>
            </g>
          </g>
          <g id="Group_157" data-name="Group 157" transform="translate(12.314 44.186)">
            <g id="Group_156" data-name="Group 156">
              <path id="Path_232" data-name="Path 232" d="M437.108,247.42c-1.283-3.907-6.239-8.158-11.2-7.236a146.194,146.194,0,0,0-21.717,5.423c-4.539,1.621-8.675,5.544-9.052,20.478,0,0-1.52,34.815-1.546,41.548,11.4,4.511,23.257,4.371,29.81,2.94,13.642-2.981,15.289-8.64,15.289-8.64s.176-25.034-.233-35.847C438.111,256.9,437.99,250.1,437.108,247.42Z" transform="translate(-393.594 -240.056)" fill="#f5f5f5"/>
            </g>
          </g>
          <g id="Group_160" data-name="Group 160" transform="translate(13.601 6.372)">
            <g id="Group_158" data-name="Group 158" transform="translate(0 15.334)">
              <path id="Path_233" data-name="Path 233" d="M397.292,226.551S394,231.8,394.4,232.3s2.916.9,2.916.9Z" transform="translate(-394.367 -226.551)" fill="#ffa8a7"/>
            </g>
            <g id="Group_159" data-name="Group 159" transform="translate(2.793)">
              <path id="Path_234" data-name="Path 234" d="M405.315,218.158c-6.863,1.61-8.785,4.686-9.188,15.653-.419,11.46.829,15.031,2.367,16.539,1.039,1.017,6.683,1.077,9.511.23,3.539-1.062,11.522-4.1,15.162-9.937,4.279-6.873,5.238-16.079.406-19.738C416.775,215.756,408.108,217.5,405.315,218.158Z" transform="translate(-396.045 -217.339)" fill="#ffa8a7"/>
            </g>
          </g>
          <g id="Group_165" data-name="Group 165" transform="translate(15.193)">
            <g id="Group_162" data-name="Group 162">
              <g id="Group_161" data-name="Group 161">
                <path id="Path_235" data-name="Path 235" d="M396.681,223.555c2.014,3.449,6.385,5.1,6.385,5.1,1.317,1.5.591,7.345,2.908,8.273,0,0,.994-4.254,4.571-3.8,3.6.454,4.19,5.018,1.991,7.848s-4.331,1.813-4.331,1.813.246,6.044,3,9.408c0,0,3.073.917,8.652-.4,3.431-.812,8.208-5.23,10.154-9.837,4.116-9.747,4.225-18.439-2-20.9-.766-4.431-4.313-6.345-8.324-7.172-8.637-1.781-14.2,3.609-20.851,3.141C395.033,216.746,394.322,219.515,396.681,223.555Z" transform="translate(-395.323 -213.51)" fill="#263238"/>
              </g>
            </g>
            <g id="Group_164" data-name="Group 164" transform="translate(32.472 5.363)">
              <g id="Group_163" data-name="Group 163">
                <path id="Path_236" data-name="Path 236" d="M415.192,220.39l4.071-2.525a2.4,2.4,0,0,0-4.071,2.525Z" transform="translate(-414.832 -216.733)" fill="#263238"/>
              </g>
            </g>
          </g>
        </g>
        <path id="Path_237" data-name="Path 237" d="M372.776,269.275c2.134.949,27.275,19.53,31.195,17.366S428,260.98,428,260.98a16.233,16.233,0,0,0,0-17.625s-6.45,1.192-9.821,6.292-17.948,23.381-17.948,23.381q-5.4-2.7-10.763-5.48c-2.946-1.525-5.9-3.049-8.782-4.689a10.825,10.825,0,0,1-2.265-1.4c-1.423-1.406-1.178-4.807-1.152-6.658a25.421,25.421,0,0,1,.125-2.592c.123-1.055.325-3.644-1.578-2.823a2.394,2.394,0,0,0-.907.764,4.282,4.282,0,0,0-.681,1.3c-.36,1.119-.245,2.344-.574,3.47a.978.978,0,0,1-.233.451.835.835,0,0,1-.6.183c-2.771-.083-5.393-3.967-6.665-6.027a5.65,5.65,0,0,0-2.1-2.4c-1.516-.707-3.337.306-4.314,1.666a8.769,8.769,0,0,0-1.372,6.1,12.123,12.123,0,0,0,3.612,7.655A37.116,37.116,0,0,0,372.776,269.275Z" transform="translate(-358.298 -193.678)" fill="#ffa8a7"/>
        <path id="Path_238" data-name="Path 238" d="M411.234,242.9c-2.775.32-6.66-.195-12.093,5.639a169.852,169.852,0,0,0-12.228,15.735,15.406,15.406,0,0,0,12.159,11.447s9.514-9.747,12.161-15.114S414.5,246.521,411.234,242.9Z" transform="translate(-339.282 -193.981)" fill="#27debf"/>
      </g>
    </g>
  </g>
</svg>
