<svg xmlns="http://www.w3.org/2000/svg" width="81.4" height="70.479" viewBox="0 0 81.4 70.479">
  <path id="Path_245" data-name="Path 245" d="M392.648,369.226H400.2a7.868,7.868,0,0,0-.906-3.331l-5.429-9.189-1.431-3.967h4.189a1.343,1.343,0,0,0,0-2.687h-5.159L386.6,336.6a6.025,6.025,0,0,0-5.278-3.7H337.679a6.025,6.025,0,0,0-5.278,3.7l-4.865,13.45h-5.159a1.343,1.343,0,0,0,0,2.687h4.189l-1.431,3.967-5.429,9.189a7.868,7.868,0,0,0-.906,3.331h7.552A8.773,8.773,0,0,1,335.128,378H318.8v14.237h1.789v7.537a1.976,1.976,0,0,0,0,3.227v.374h77.822V403a1.977,1.977,0,0,0,0-3.227v-7.537H400.2V378H383.88A8.771,8.771,0,0,1,392.648,369.226Zm-64.659-12.52,1.431-3.967.978-2.687,4.531-12.544a3.376,3.376,0,0,1,2.75-1.924h43.641a3.376,3.376,0,0,1,2.75,1.924l4.531,12.544.978,2.687,1.431,3.967Zm48.18,17.266H360.844V378a1.343,1.343,0,0,1-2.687,0v-4.03H342.831a1.339,1.339,0,1,1,0-2.679h15.326v-4.03a1.343,1.343,0,1,1,2.687,0v4.03H376.17a1.339,1.339,0,1,1,0,2.679Zm8.124,25.43H334.706v-7.163h2.754v0l0,0h44.071l0,0v0h2.754Z" transform="translate(-318.8 -332.898)" fill="#a1cc3a"/>
</svg>
