<svg xmlns="http://www.w3.org/2000/svg" width="81.267" height="81.268" viewBox="0 0 81.267 81.268">
  <path id="Path_239" data-name="Path 239" d="M112.5,84.171a.67.67,0,1,1,1.022-.867c1.206,1.2,13.264,13.935,15.161,15.98s2.825,2.439,3.879,1.386-.372-2.857-1.064-3.7S116.994,79.3,116.314,78.48c-.9-1.081-1.092-1.467-.663-1.9s.817-.237,1.9.663c.817.681,17.649,14.5,18.491,15.187s2.645,2.116,3.7,1.062.657-1.98-1.386-3.877-14.775-13.957-15.98-15.161a.671.671,0,0,1,.867-1.024c1.083.76,21.318,14.1,23.772,16.825,4.841,5.37-.027,12.287,4.023,17.652-1.288,1.119-2.759,2.4-4.385,3.819-5.314-3.621-12.063.957-17.323-3.787C126.6,105.489,113.26,85.254,112.5,84.171ZM186,138.3c-2.814-2.418-16.239-13.982-25.257-21.75-1.345,1.551-2.972,3.417-4.8,5.507,7.761,9.01,19.037,22.1,21.421,24.874,3.71,4.317,8.752,11.026,14.205,5.574S190.315,142.009,186,138.3Zm4.2-44.959c3.309-6.424,4.607-13.561,1.39-16.779s-10.355-1.918-16.777,1.391c-6.4,3.293-10.825,8.125-11.612,13.235-1.249,8.131-.114,11.531-4.521,15.059-2.469,1.975-36.791,32.121-41.067,35.856-4.237,3.7-5.053,7.252-2.018,10.369l0,0c.014.014.03.025.044.041s.027.03.041.044l0,0c3.118,3.035,6.671,2.22,10.369-2.016,3.733-4.278,33.881-38.6,35.856-41.067,3.528-4.408,6.927-3.273,15.057-4.523C182.078,104.166,186.908,99.736,190.2,93.341Z" transform="translate(-112.348 -73.281)" fill="#a1cc3a"/>
</svg>
