<svg xmlns="http://www.w3.org/2000/svg" width="667.556" height="523.449" viewBox="0 0 667.556 523.449">
  <g id="Group_176" data-name="Group 176" transform="translate(-70.875 -116.926)">
    <g id="Group_172" data-name="Group 172" transform="translate(278.138 116.926)">
      <path id="Path_247" data-name="Path 247" d="M568.415,116.926,443.53,354.814l-88.49-41.89-67.331-31.864,56.163-32.827,4.674-2.748Z" transform="translate(-108.123 -116.926)" fill="#a1cc3a"/>
      <path id="Path_248" data-name="Path 248" d="M647.341,116.926l-324.1,140.335-136.2-30.9Z" transform="translate(-187.049 -116.926)" fill="#a1cc3a"/>
      <path id="Path_249" data-name="Path 249" d="M355.04,240.789l-67.331,83.495V208.926Z" transform="translate(-108.123 -44.79)" fill="#677a21"/>
      <path id="Path_250" data-name="Path 250" d="M587.484,116.926,306.778,281.061V396.419L263.389,257.261Z" transform="translate(-127.192 -116.926)" fill="#89aa30"/>
    </g>
    <g id="Group_173" data-name="Group 173" transform="translate(333.445 450.044)">
      <path id="Path_251" data-name="Path 251" d="M423.987,303.643,356.549,432.1l-47.785-22.621-36.359-17.206,30.328-17.727,2.524-1.484Z" transform="translate(-175.429 -303.643)" fill="#fff"/>
      <path id="Path_252" data-name="Path 252" d="M466.606,303.643,291.595,379.424l-73.546-16.686Z" transform="translate(-218.049 -303.643)" fill="#fff"/>
      <path id="Path_253" data-name="Path 253" d="M308.764,370.529l-36.359,45.087V353.323Z" transform="translate(-175.429 -264.69)" fill="#bfacac"/>
      <path id="Path_254" data-name="Path 254" d="M434.284,303.643,282.7,392.276v62.293l-23.43-75.145Z" transform="translate(-185.726 -303.643)" fill="#eae5e5"/>
    </g>
    <g id="Group_174" data-name="Group 174" transform="translate(70.875 307.237)">
      <path id="Path_255" data-name="Path 255" d="M299.695,223.6,224.764,366.331,171.669,341.2l-40.4-19.118,33.7-19.7,2.8-1.648Z" transform="translate(-23.52 -223.598)" fill="#fff"/>
      <path id="Path_256" data-name="Path 256" d="M347.05,223.6,152.593,307.8l-81.718-18.54Z" transform="translate(-70.875 -223.598)" fill="#fff"/>
      <path id="Path_257" data-name="Path 257" d="M171.669,297.916l-40.4,50.1V278.8Z" transform="translate(-23.52 -180.316)" fill="#bfacac"/>
      <path id="Path_258" data-name="Path 258" d="M311.136,223.6,142.712,322.079v69.215L116.679,307.8Z" transform="translate(-34.961 -223.598)" fill="#eae5e5"/>
    </g>
    <g id="Group_175" data-name="Group 175" transform="translate(107.55 534.726)">
      <path id="Path_259" data-name="Path 259" d="M235.589,351.108,188.382,441.03,154.933,425.2l-25.451-12.045,21.229-12.409,1.767-1.039Z" transform="translate(-61.598 -351.108)" fill="#fff"/>
      <path id="Path_260" data-name="Path 260" d="M265.422,351.108,142.914,404.155l-51.482-11.68Z" transform="translate(-91.432 -351.108)" fill="#fff"/>
      <path id="Path_261" data-name="Path 261" d="M154.933,397.929,129.481,429.49V385.884Z" transform="translate(-61.598 -323.841)" fill="#bfacac"/>
      <path id="Path_262" data-name="Path 262" d="M242.8,351.108,136.689,413.151v43.605l-16.4-52.6Z" transform="translate(-68.806 -351.108)" fill="#eae5e5"/>
    </g>
  </g>
</svg>
