<svg xmlns="http://www.w3.org/2000/svg" width="63.399" height="73.29" viewBox="0 0 63.399 73.29">
  <g id="Group_170" data-name="Group 170" transform="translate(-250.792 -143.733)">
    <path id="Path_246" data-name="Path 246" d="M442.875,159.186v-3.354A24.938,24.938,0,0,0,418.3,132.52h-3.354A24.779,24.779,0,0,0,390.3,155.832l-.673,3.354a10.683,10.683,0,0,0-.084,1.675v.335a24.448,24.448,0,0,0,1.427,7.967h50.648a24.217,24.217,0,0,0,1.26-9.977Zm10.064,28.26a6.728,6.728,0,0,1-6.711,6.708,6.654,6.654,0,0,1-6.621-6.708,6.583,6.583,0,0,1,6.621-6.627,6.658,6.658,0,0,1,6.711,6.627ZM392.311,172.52a23.944,23.944,0,0,0,16.517,12.661l-.838,16.266c0,2.6,1.26,4.362,3.27,4.362h9.981c2.01,0,3.354-1.762,3.354-4.362l-.921-16.266a23.937,23.937,0,0,0,16.6-12.661Z" transform="translate(-138.748 11.213)" fill="#a1cc3a" fill-rule="evenodd"/>
  </g>
</svg>
