<svg xmlns="http://www.w3.org/2000/svg" width="1456" height="678" viewBox="0 0 1456 678">
  <g id="Group_409" data-name="Group 409" transform="translate(-232 -252)">
    <g id="Ellipse_19" data-name="Ellipse 19" transform="translate(847 277)" fill="#fff" stroke="#fff" stroke-width="2">
      <circle cx="113" cy="113" r="113" stroke="none"/>
      <circle cx="113" cy="113" r="112" fill="none"/>
    </g>
    <text id="OUR_PROCESS" data-name="OUR
PROCESS" transform="translate(958 386)" fill="#243036" font-size="36" font-family="PlayfairDisplay-Bold, Playfair Display" font-weight="700"><tspan x="-39.042" y="0">OUR</tspan><tspan x="-83.304" y="36">PROCESS</tspan></text>
    <g id="Group_389" data-name="Group 389" transform="translate(785.39 700.204)">
      <g id="Rectangle_69" data-name="Rectangle 69" transform="translate(-0.39 139.796)" fill="#0e0e0e" stroke="#fff" stroke-width="2">
        <rect width="351" height="90" rx="20" stroke="none"/>
        <rect x="1" y="1" width="349" height="88" rx="19" fill="none"/>
      </g>
      <g id="Group_406" data-name="Group 406" transform="translate(21 2)">
        <text id="Conceptualization" transform="translate(181.61 194.796)" fill="#fff" font-size="24" font-family="PlayfairDisplay-Bold, Playfair Display" font-weight="700"><tspan x="-101.088" y="0">Conceptualization</tspan></text>
        <text id="_03" data-name="03" transform="translate(39.61 191.796)" fill="#fff" font-size="24" font-family="PlayfairDisplay-Bold, Playfair Display" font-weight="700"><tspan x="-13.596" y="0">03</tspan></text>
      </g>
      <g id="Ellipse_20" data-name="Ellipse 20" transform="translate(95.61 -0.204)" fill="#fff" stroke="#fff" stroke-width="2">
        <circle cx="80" cy="80" r="80" stroke="none"/>
        <circle cx="80" cy="80" r="79" fill="none"/>
      </g>
      <g id="Group_388" data-name="Group 388" transform="translate(131.097 35.374)">
        <g id="Group_387" data-name="Group 387" transform="translate(0 0)">
          <g id="Group_386" data-name="Group 386">
            <path id="Path_1072" data-name="Path 1072" d="M444.056,182.216a41.038,41.038,0,0,0-19.6-10.017,62.443,62.443,0,0,0-21.64-.358c10.108-13.463,21.436-20.279,34.556-20.813a1.261,1.261,0,0,0-.1-2.521A41.04,41.04,0,0,0,416.33,155.3a62.508,62.508,0,0,0-15.551,15.053c-2.364-16.673.828-29.508,9.726-39.165a1.261,1.261,0,0,0-1.855-1.709,41.1,41.1,0,0,0-10,19.618,62.639,62.639,0,0,0-.354,21.656c-13.452-10.116-20.264-21.452-20.8-34.581a1.261,1.261,0,0,0-2.52.1,41.1,41.1,0,0,0,6.787,20.949,62.539,62.539,0,0,0,15.047,15.567c-16.658,2.369-29.483-.825-39.133-9.735a1.262,1.262,0,0,0-1.712,1.853,41.034,41.034,0,0,0,19.6,10.017,54.312,54.312,0,0,0,11.283,1.12,74.24,74.24,0,0,0,10.358-.767C387.1,188.745,375.77,195.564,362.652,196.1a1.261,1.261,0,0,0,.05,2.521h.052a41.039,41.039,0,0,0,20.935-6.793,62.579,62.579,0,0,0,15.553-15.06c2.362,16.677-.83,29.514-9.728,39.172a1.26,1.26,0,0,0,1.852,1.709,41.111,41.111,0,0,0,10.007-19.619,62.614,62.614,0,0,0,.356-21.661c13.452,10.123,20.264,21.46,20.8,34.585a1.261,1.261,0,0,0,1.26,1.21h.051a1.26,1.26,0,0,0,1.208-1.311A41.107,41.107,0,0,0,418.26,189.9a62.636,62.636,0,0,0-15.049-15.572c16.659-2.362,29.486.835,39.136,9.742a1.261,1.261,0,0,0,1.709-1.853Z" transform="translate(-355.558 -129.073)" fill="#a1cc3a"/>
            <path id="Path_1073" data-name="Path 1073" d="M387.853,143.294a3.962,3.962,0,1,0-3.96-3.962A3.965,3.965,0,0,0,387.853,143.294Zm0-5.4h.02a1.44,1.44,0,0,0,0,2.881h-.02a1.44,1.44,0,0,1,0-2.881Z" transform="translate(-355.551 -129.071)" fill="#a1cc3a"/>
            <path id="Path_1074" data-name="Path 1074" d="M415.583,144.726a3.931,3.931,0,0,0,2.8-1.162,3.965,3.965,0,1,0-5.607,0A3.936,3.936,0,0,0,415.583,144.726Zm-1.021-4.986a1.45,1.45,0,0,1,1.021-.419h.021a1.438,1.438,0,0,0-1,2.463,1.428,1.428,0,0,0,1,.419h-.021a1.43,1.43,0,0,1-1.017-.42A1.457,1.457,0,0,1,414.562,139.74Z" transform="translate(-355.544 -129.071)" fill="#a1cc3a"/>
            <path id="Path_1075" data-name="Path 1075" d="M434.186,157.43a3.963,3.963,0,1,0,3.96,3.963A3.966,3.966,0,0,0,434.186,157.43Zm-1.438,3.963a1.441,1.441,0,0,1,1.438-1.44h.02a1.44,1.44,0,0,0,0,2.881h-.02A1.442,1.442,0,0,1,432.748,161.393Z" transform="translate(-355.54 -129.066)" fill="#a1cc3a"/>
            <path id="Path_1076" data-name="Path 1076" d="M432.762,185.186a3.917,3.917,0,0,0-2.8,1.161,3.968,3.968,0,0,0,0,5.6,3.957,3.957,0,0,0,5.6,0,3.963,3.963,0,0,0-2.8-6.766Zm-1.015,4.983a1.445,1.445,0,0,1,0-2.04,1.425,1.425,0,0,1,1.015-.42h.019a1.412,1.412,0,0,0-.993.419,1.447,1.447,0,0,0,0,2.04,1.426,1.426,0,0,0,1,.42h-.019A1.422,1.422,0,0,1,431.747,190.169Z" transform="translate(-355.54 -129.059)" fill="#a1cc3a"/>
            <path id="Path_1077" data-name="Path 1077" d="M412.145,203.805a3.966,3.966,0,1,0,3.96,3.963A3.966,3.966,0,0,0,412.145,203.805Zm-1.438,3.963a1.442,1.442,0,0,1,1.438-1.442l.021,0a1.444,1.444,0,0,0,0,2.887h-.021A1.444,1.444,0,0,1,410.707,207.768Z" transform="translate(-355.545 -129.055)" fill="#a1cc3a"/>
            <path id="Path_1078" data-name="Path 1078" d="M384.417,202.38a3.96,3.96,0,1,0,2.8,1.161A3.938,3.938,0,0,0,384.417,202.38Zm-1.021,4.978a1.442,1.442,0,0,1,1.021-2.458l.019,0a1.438,1.438,0,0,0-1.418,1.445,1.414,1.414,0,0,0,.417,1.01,1.441,1.441,0,0,0,1,.425h-.019A1.431,1.431,0,0,1,383.4,207.358Z" transform="translate(-355.552 -129.055)" fill="#a1cc3a"/>
            <path id="Path_1079" data-name="Path 1079" d="M365.816,189.676a3.963,3.963,0,1,0-3.965-3.963A3.966,3.966,0,0,0,365.816,189.676Zm0-5.4h.019a1.44,1.44,0,0,0,0,2.881h-.019a1.441,1.441,0,1,1,0-2.883Z" transform="translate(-355.556 -129.06)" fill="#a1cc3a"/>
            <path id="Path_1080" data-name="Path 1080" d="M367.238,161.919a3.96,3.96,0,1,0-2.8-1.16A3.932,3.932,0,0,0,367.238,161.919Zm-1.016-4.981a1.432,1.432,0,0,1,1.016-.421h.02a1.441,1.441,0,0,0,0,2.881h-.02a1.441,1.441,0,0,1-1.016-2.46Z" transform="translate(-355.556 -129.067)" fill="#a1cc3a"/>
          </g>
        </g>
      </g>
    </g>
    <g id="Group_390" data-name="Group 390" transform="translate(371.222 540.12)">
      <g id="Rectangle_69-2" data-name="Rectangle 69" transform="translate(124.778 34.88)" fill="#0e0e0e" stroke="#fff" stroke-width="2">
        <path d="M0,0H331a20,20,0,0,1,20,20V70a20,20,0,0,1-20,20H0a0,0,0,0,1,0,0V0A0,0,0,0,1,0,0Z" stroke="none"/>
        <path d="M1,1H331a19,19,0,0,1,19,19V70a19,19,0,0,1-19,19H1a0,0,0,0,1,0,0V1A0,0,0,0,1,1,1Z" fill="none"/>
      </g>
      <text id="Research" transform="translate(345.777 89.88)" fill="#fff" font-size="24" font-family="PlayfairDisplay-Bold, Playfair Display" font-weight="700"><tspan x="-50.844" y="0">Research</tspan></text>
      <text id="_02" data-name="02" transform="translate(253.777 87.88)" fill="#fff" font-size="24" font-family="PlayfairDisplay-Bold, Playfair Display" font-weight="700"><tspan x="-14.016" y="0">02</tspan></text>
      <g id="Ellipse_20-2" data-name="Ellipse 20" transform="translate(-0.222 -0.12)" fill="#fff" stroke="#fff" stroke-width="2">
        <circle cx="80" cy="80" r="80" stroke="none"/>
        <circle cx="80" cy="80" r="79" fill="none"/>
      </g>
      <g id="Group_399" data-name="Group 399" transform="translate(29.872 20.813)">
        <g id="Group_398" data-name="Group 398" transform="translate(0)">
          <g id="Group_397" data-name="Group 397">
            <path id="Path_1099" data-name="Path 1099" d="M109.212,587.832a4.571,4.571,0,0,1-.8-.737,5.066,5.066,0,0,1,1.059-.245C109.372,587.172,109.285,587.5,109.212,587.832Z" transform="translate(-23.637 -522.021)" fill="#a1cc3a"/>
            <path id="Path_1100" data-name="Path 1100" d="M102,583.427a7.734,7.734,0,0,1,6.956,11.1,44.338,44.338,0,0,1-14.66-3.932A7.737,7.737,0,0,1,102,583.427Z" transform="translate(-5.703 -523.007)" fill="#a1cc3a"/>
            <path id="Path_1101" data-name="Path 1101" d="M136.028,603.536l.484-1.534.484,1.534a1.623,1.623,0,0,0,1.057,1.059l1.539.488-1.536.484a1.626,1.626,0,0,0-1.06,1.06l-.484,1.533-.484-1.533a1.623,1.623,0,0,0-1.06-1.06l-1.536-.484,1.538-.488A1.617,1.617,0,0,0,136.028,603.536Z" transform="translate(-85.975 -517.658)" fill="#a1cc3a"/>
            <path id="Path_1102" data-name="Path 1102" d="M108.269,595.038A7.71,7.71,0,0,1,96.868,592a48.291,48.291,0,0,0,5.6,1.862A52.387,52.387,0,0,0,108.269,595.038Z" transform="translate(-7.558 -520.539)" fill="#a1cc3a"/>
            <path id="Path_1103" data-name="Path 1103" d="M164.083,579.51a3.772,3.772,0,1,1,3.767-3.767A3.771,3.771,0,0,1,164.083,579.51Z" transform="translate(-148.856 -526.306)" fill="#a1cc3a"/>
            <path id="Path_1104" data-name="Path 1104" d="M123.5,541.138l-.483,1.534-.483-1.534a1.629,1.629,0,0,0-1.06-1.06l-1.538-.486,1.539-.487a1.616,1.616,0,0,0,1.059-1.06l.483-1.531.483,1.534a1.619,1.619,0,0,0,1.061,1.057l1.539.487-1.539.486A1.633,1.633,0,0,0,123.5,541.138Z" transform="translate(-55.099 -536.514)" fill="#a1cc3a"/>
            <path id="Path_1105" data-name="Path 1105" d="M122.642,561.741a18.9,18.9,0,1,1,0,26.735A18.747,18.747,0,0,1,122.642,561.741Zm26.945,13.442a1.624,1.624,0,1,0,0-3.248h-14.08a1.624,1.624,0,1,0,0,3.248Zm-23.1,8.372h14.081a1.623,1.623,0,1,0,0-3.247H126.486a1.623,1.623,0,1,0,0,3.247Zm-3.521-16.735h14.082a1.623,1.623,0,0,0,0-3.247H122.965a1.623,1.623,0,0,0,0,3.247Z" transform="translate(-80.243 -530.845)" fill="#a1cc3a"/>
            <path id="Path_1106" data-name="Path 1106" d="M92.415,592.005a4.642,4.642,0,0,1-1.061.238c.1-.322.189-.648.263-.983A5.044,5.044,0,0,1,92.415,592.005Z" transform="translate(15.397 -520.751)" fill="#a1cc3a"/>
            <path id="Path_1107" data-name="Path 1107" d="M118.148,593.216l-.085-.1a25.563,25.563,0,0,1,1.386-34.573A25.509,25.509,0,1,1,122,596.86a.254.254,0,0,0-.028-.026c-.422-.323-.82-.652-1.2-.981-.109-.1-.216-.192-.325-.289-.051-.046-.1-.091-.153-.139-.126-.116-.252-.232-.376-.35s-.247-.237-.367-.358l-.1-.094c-.169-.167-.334-.341-.5-.515-.1-.1-.187-.2-.281-.3l-.2-.216C118.365,593.465,118.257,593.341,118.148,593.216Zm3.669-.968a22.152,22.152,0,1,0,0-31.325A21.965,21.965,0,0,0,121.818,592.248Z" transform="translate(-81.716 -532.322)" fill="#a1cc3a"/>
            <path id="Path_1108" data-name="Path 1108" d="M171.61,609.216a1.093,1.093,0,0,1,0,1.536,1.076,1.076,0,0,1-1.524,0,1.093,1.093,0,0,1,0-1.542,1.085,1.085,0,0,1,1.529,0Z" transform="translate(-165.097 -515.673)" fill="#a1cc3a"/>
            <path id="Path_1109" data-name="Path 1109" d="M146.449,593.252l7.676-7.685c.064.075.13.144.2.216.085.1.174.192.26.289s.2.215.3.322c.188.2.377.394.572.589h0l.015.015c.178.178.358.353.538.526.112.106.227.21.341.317s.233.213.35.317c.058.05.111.1.169.151L149.188,596l-1.217-1.217Z" transform="translate(-120.014 -522.39)" fill="#a1cc3a"/>
            <path id="Path_1110" data-name="Path 1110" d="M169.645,608.759l1.208-1.209a4.337,4.337,0,0,0,.22,5.882,4.315,4.315,0,0,0,5.913.192l-1.247,1.247a4.315,4.315,0,0,1-6.094-6.111Z" transform="translate(-168.387 -516.061)" fill="#a1cc3a"/>
            <path id="Path_1111" data-name="Path 1111" d="M155.7,610.514a4.3,4.3,0,0,0-2.813,1.041l19.526-19.543.493.495c.013.013.023.028.036.041l2.757,2.757,2.814,2.817-19.582,19.6a4.325,4.325,0,0,0-3.233-7.2Z" transform="translate(-149.954 -520.535)" fill="#a1cc3a"/>
          </g>
        </g>
      </g>
    </g>
    <g id="Group_393" data-name="Group 393" transform="translate(1072.762 540.12)">
      <g id="Rectangle_69-3" data-name="Rectangle 69" transform="translate(0.238 34.88)" fill="#0e0e0e" stroke="#fff" stroke-width="2">
        <path d="M20,0H351a0,0,0,0,1,0,0V90a0,0,0,0,1,0,0H20A20,20,0,0,1,0,70V20A20,20,0,0,1,20,0Z" stroke="none"/>
        <path d="M20,1H350a0,0,0,0,1,0,0V89a0,0,0,0,1,0,0H20A19,19,0,0,1,1,70V20A19,19,0,0,1,20,1Z" fill="none"/>
      </g>
      <g id="Group_407" data-name="Group 407" transform="translate(21 1)">
        <text id="Execution" transform="translate(164.238 90.88)" fill="#fff" font-size="24" font-family="PlayfairDisplay-Bold, Playfair Display" font-weight="700"><tspan x="-55.224" y="0">Execution</tspan></text>
        <text id="_04" data-name="04" transform="translate(68.238 87.88)" fill="#fff" font-size="24" font-family="PlayfairDisplay-Bold, Playfair Display" font-weight="700"><tspan x="-13.98" y="0">04</tspan></text>
      </g>
      <g id="Ellipse_20-3" data-name="Ellipse 20" transform="translate(315.238 -0.12)" fill="#fff" stroke="#fff" stroke-width="2">
        <circle cx="80" cy="80" r="80" stroke="none"/>
        <circle cx="80" cy="80" r="79" fill="none"/>
      </g>
      <g id="Group_402" data-name="Group 402" transform="translate(262.383 -228.159)">
        <g id="Group_401" data-name="Group 401">
          <g id="Group_400" data-name="Group 400">
            <path id="Path_1112" data-name="Path 1112" d="M102.331,307.624q.487-.622,1.007-1.251a63.065,63.065,0,0,1,8.892-8.671,61.868,61.868,0,0,1,3.484-13.161c.053-.128.1-.257.157-.385-.739-.043-1.466-.067-2.181-.067-7.044,0-12.174,2.168-14.446,6.109-2.5,4.329-1.453,10.442,2.943,17.21C102.232,307.481,102.283,307.553,102.331,307.624Z" fill="#a1cc3a"/>
            <path id="Path_1113" data-name="Path 1113" d="M128.983,270.428c.028.108.061.213.1.316a.521.521,0,0,1,.017.052c.033.088.068.175.1.261.018.039.035.078.052.116s.05.1.077.149c.039.076.08.151.123.223.011.018.022.035.031.053a4.354,4.354,0,0,0,1.407,1.409l.087.051c.069.041.141.08.213.116.048.025.1.051.147.073s.077.036.116.052c.08.034.163.067.245.1.029.011.059.02.087.03.091.03.182.059.276.083a.186.186,0,0,1,.032.008c.1.024.194.044.291.062l.061.01c.1.017.2.031.309.039l.06.005c.109.009.218.014.329.014s.219-.005.328-.014l.063-.005c.1-.008.2-.022.306-.039l.065-.012c.093-.016.187-.035.278-.059l.059-.015c.084-.023.167-.047.249-.074l.1-.036c.076-.027.154-.058.228-.09.048-.02.1-.042.143-.065l.1-.046q.154-.078.3-.165l.009-.007a4.324,4.324,0,0,0,1.863-2.367l.027-.087a4.3,4.3,0,1,0-8.417-1.223,4.353,4.353,0,0,0,.135,1.071A.029.029,0,0,1,128.983,270.428Z" fill="#a1cc3a"/>
            <path id="Path_1114" data-name="Path 1114" d="M122.226,290.861a79.5,79.5,0,0,1,7.478-3.807,56.146,56.146,0,0,0-11.2-2.656c-.15.351-.295.707-.439,1.069a57.559,57.559,0,0,0-2.875,9.968A80.447,80.447,0,0,1,122.226,290.861Z" fill="#a1cc3a"/>
            <path id="Path_1115" data-name="Path 1115" d="M146.683,282c-2.131-4.254-4.727-7.5-7.539-9.412a6.805,6.805,0,0,1-3.02,2.889c-.027.014-.058.028-.088.042-.092.043-.185.086-.278.124s-.187.076-.281.111l-.169.058-.23.073-.157.044c-.1.028-.2.052-.308.076l-.085.019c-.134.029-.269.05-.4.07l-.115.015c-.1.013-.211.024-.317.033l-.122.009c-.141.009-.284.014-.427.014s-.285-.005-.426-.014l-.122-.009c-.106-.009-.215-.02-.321-.033l-.111-.014c-.137-.021-.274-.042-.406-.071-.024-.005-.048-.01-.072-.017-.108-.024-.219-.05-.328-.08l-.139-.039c-.087-.027-.174-.054-.259-.083l-.143-.048c-.113-.041-.223-.085-.332-.132-.069-.028-.135-.059-.2-.09l-.141-.068c-.076-.038-.152-.076-.228-.116l-.063-.036a6.817,6.817,0,0,1-2.709-2.727c-2.812,1.912-5.408,5.158-7.537,9.414a61.941,61.941,0,0,1,13.539,3.623A61.97,61.97,0,0,1,146.683,282Z" fill="#a1cc3a"/>
            <path id="Path_1116" data-name="Path 1116" d="M144.059,290.861a80.7,80.7,0,0,1,7.042,4.572,57.424,57.424,0,0,0-2.876-9.966c-.141-.362-.289-.718-.436-1.069a56.055,56.055,0,0,0-11.208,2.656A79.261,79.261,0,0,1,144.059,290.861Z" fill="#a1cc3a"/>
            <path id="Path_1117" data-name="Path 1117" d="M154.055,297.7a61.916,61.916,0,0,1,9.643,9.6l.255.326c.047-.073.1-.146.145-.219,4.4-6.771,5.441-12.885,2.943-17.218-2.272-3.936-7.4-6.1-14.444-6.1-.714,0-1.442.026-2.182.07.051.128.1.255.156.385A61.887,61.887,0,0,1,154.055,297.7Z" fill="#a1cc3a"/>
            <path id="Path_1118" data-name="Path 1118" d="M162.43,309.786c-.23-.306-.465-.613-.708-.918a57.414,57.414,0,0,0-7.183-7.475,81.56,81.56,0,0,1,0,16.786A55.781,55.781,0,0,0,162.43,309.786Z" fill="#a1cc3a"/>
            <path id="Path_1119" data-name="Path 1119" d="M152.45,309.786a76.653,76.653,0,0,0-.744-10.736,77.255,77.255,0,0,0-18.563-10.717,77.185,77.185,0,0,0-18.565,10.719,77.99,77.99,0,0,0,0,21.465,77.509,77.509,0,0,0,18.567,10.717,75.761,75.761,0,0,0,9.654-4.713,76.679,76.679,0,0,0,8.914-6.005A76.913,76.913,0,0,0,152.45,309.786Zm-19.307,11.7a11.7,11.7,0,1,1,11.691-11.7A11.707,11.707,0,0,1,133.143,321.486Z" fill="#a1cc3a"/>
            <path id="Path_1120" data-name="Path 1120" d="M133.143,300.607a9.18,9.18,0,1,0,9.17,9.179A9.184,9.184,0,0,0,133.143,300.607Z" fill="#a1cc3a"/>
            <path id="Path_1121" data-name="Path 1121" d="M147.789,335.172a55.876,55.876,0,0,0,3.314-11.041,80.583,80.583,0,0,1-7.044,4.573,79.305,79.305,0,0,1-7.478,3.811A56.2,56.2,0,0,0,147.789,335.172Z" fill="#a1cc3a"/>
            <path id="Path_1122" data-name="Path 1122" d="M146.563,337.809c.041-.08.081-.161.12-.242a61.959,61.959,0,0,1-13.54-3.625,61.984,61.984,0,0,1-13.541,3.626c.042.08.081.162.12.241,3.659,7.193,8.425,11.153,13.421,11.153S142.906,345,146.563,337.809Z" fill="#a1cc3a"/>
            <path id="Path_1123" data-name="Path 1123" d="M169.319,325.87c-.017-.005-.036-.008-.054-.014a4.5,4.5,0,0,0-.549-.115l-.024,0c-.078-.009-.154-.017-.233-.024l-.061,0c-.088-.005-.175-.009-.264-.009a4.308,4.308,0,1,0,1.185.169Z" fill="#a1cc3a"/>
            <path id="Path_1124" data-name="Path 1124" d="M168.134,323.18l.186,0c-.245-3.393-1.755-7.264-4.367-11.236a61.291,61.291,0,0,1-9.9,9.923,61.437,61.437,0,0,1-3.638,13.545c.734.043,1.459.066,2.169.066a22.521,22.521,0,0,0,9.735-1.9,6.725,6.725,0,0,1-.695-1.536l-.006-.018c-.031-.1-.057-.192-.082-.289l-.027-.106c-.028-.117-.054-.235-.076-.353-.017-.088-.032-.175-.045-.264-.009-.056-.016-.112-.022-.168-.011-.092-.019-.183-.028-.275,0-.048-.009-.094-.011-.142-.009-.14-.016-.281-.016-.424A6.829,6.829,0,0,1,168.134,323.18Z" fill="#a1cc3a"/>
            <path id="Path_1125" data-name="Path 1125" d="M102.435,328.12c0-.055-.007-.108-.013-.161a.883.883,0,0,1-.011-.088c-.007-.049-.016-.1-.022-.145-.007-.031-.011-.061-.017-.092s-.018-.094-.029-.141c-.006-.029-.012-.058-.019-.088l-.039-.144c-.009-.026-.016-.053-.024-.078-.017-.057-.035-.112-.055-.169-.006-.016-.01-.033-.017-.049-.026-.071-.054-.142-.083-.212-.008-.018-.017-.035-.023-.053l-.072-.153c-.013-.024-.026-.05-.039-.075l-.065-.124c-.015-.028-.031-.054-.046-.081s-.046-.076-.069-.114l-.052-.08c-.024-.037-.051-.073-.074-.109s-.037-.051-.055-.077l-.084-.111c-.02-.022-.035-.045-.054-.066-.042-.05-.083-.1-.126-.148-.018-.02-.037-.039-.055-.057-.037-.042-.076-.082-.115-.122-.022-.022-.046-.042-.067-.064s-.063-.06-.1-.089-.05-.044-.076-.065-.063-.054-.1-.081l-.079-.061c-.035-.026-.067-.051-.1-.075s-.052-.04-.08-.058l-.113-.075c-.024-.015-.048-.031-.074-.046l-.15-.09c-.015-.007-.028-.016-.043-.024-.065-.036-.135-.07-.2-.1a.332.332,0,0,1-.039-.017c-.057-.026-.115-.053-.172-.076l-.056-.022c-.055-.021-.109-.042-.166-.062l-.051-.019-.181-.055a.4.4,0,0,0-.041-.011c-.069-.02-.141-.038-.213-.054l-.011,0a4.389,4.389,0,0,0-2.009.04,4.3,4.3,0,1,0,3.81,7.493l.039-.034c.054-.045.1-.09.156-.137s.089-.084.133-.127c.017-.019.034-.037.052-.055.045-.049.093-.1.137-.15l.026-.031a4.326,4.326,0,0,0,.995-2.222c0-.01,0-.019,0-.028.009-.076.017-.151.022-.227a.527.527,0,0,0,0-.056c.006-.087.009-.174.009-.263s0-.16-.007-.239Z" fill="#a1cc3a"/>
            <path id="Path_1126" data-name="Path 1126" d="M104.941,329.052c0,.013,0,.028,0,.041a6.788,6.788,0,0,1-1.414,3.538c0,.008-.011.014-.015.021-.055.069-.111.138-.168.2-.024.028-.048.055-.071.083-.042.045-.081.091-.122.135-.017.019-.033.038-.05.055a21.285,21.285,0,0,0,10.587,2.355h0c.715,0,1.445-.025,2.184-.068a61.381,61.381,0,0,1-3.639-13.545,61.306,61.306,0,0,1-9.915-9.947,26.161,26.161,0,0,0-4.161,9.686c.056,0,.113,0,.167.005s.121,0,.182.005.1.007.152.011l.194.015c.047.005.1.013.145.019.066.008.13.015.2.025.043.006.084.016.128.022.069.012.139.024.206.039.035.006.067.015.1.022.075.018.151.034.228.053l.084.024c.08.022.161.044.239.069.024.007.046.016.07.022l.247.085.063.025c.083.032.165.063.246.1.015.006.027.013.043.019.087.038.173.077.258.118a.376.376,0,0,1,.035.017c.087.044.174.087.261.133l.011.007c.093.051.184.1.273.159l.024.014c.178.111.352.228.519.354l.011.007q.258.2.5.41h0a6.9,6.9,0,0,1,.88.967l0,.006c.066.086.128.174.187.263.008.012.017.024.024.036.113.17.221.346.319.526l0,.005c.053.1.1.192.148.29a.167.167,0,0,0,.015.03c.041.089.083.179.122.272.015.034.028.072.044.107.025.068.054.134.078.2.01.03.019.06.03.089.026.076.054.151.078.228.009.026.015.053.022.08.024.081.047.161.069.244a.457.457,0,0,1,.015.064c.022.088.044.176.062.265q.015.079.027.159c.012.059.024.118.033.177s.013.1.02.15.017.128.024.192a6.941,6.941,0,0,1,.034.7c0,.113,0,.225-.008.335S104.948,328.958,104.941,329.052Z" fill="#a1cc3a"/>
            <path id="Path_1127" data-name="Path 1127" d="M115.185,324.132a55.635,55.635,0,0,0,3.312,11.041,56.2,56.2,0,0,0,11.209-2.658,80.219,80.219,0,0,1-14.521-8.383Z" fill="#a1cc3a"/>
            <path id="Path_1128" data-name="Path 1128" d="M103.84,309.768a55.724,55.724,0,0,0,7.91,8.412,81.2,81.2,0,0,1,0-16.787A56.146,56.146,0,0,0,103.84,309.768Z" fill="#a1cc3a"/>
            <path id="Path_1129" data-name="Path 1129" d="M159.976,348.962H106.225a1.26,1.26,0,1,0,0,2.521h53.751a1.26,1.26,0,1,0,0-2.521Z" fill="#a1cc3a"/>
          </g>
        </g>
      </g>
    </g>
    <g id="Ellipse_21" data-name="Ellipse 21" transform="translate(823 252)" fill="none" stroke="#a1cc3a" stroke-width="3">
      <circle cx="137" cy="137" r="137" stroke="none"/>
      <circle cx="137" cy="137" r="135.5" fill="none"/>
    </g>
    <path id="Path_1081" data-name="Path 1081" d="M2826.8,5450.4l-277.733-37.867s-43.866,54.934-62.267,73.067" transform="translate(-1990 -5120)" fill="none" stroke="#a1cc3a" stroke-linecap="round" stroke-width="3" stroke-dasharray="9 9"/>
    <path id="Path_1082" data-name="Path 1082" d="M2486.8,5450.4l277.733-37.867s43.866,54.934,62.267,73.067" transform="translate(-1404.8 -5119.066)" fill="none" stroke="#a1cc3a" stroke-linecap="round" stroke-width="3" stroke-dasharray="9 9"/>
    <g id="Group_391" data-name="Group 391" transform="translate(231.879 330.584)">
      <g id="Rectangle_69-4" data-name="Rectangle 69" transform="translate(124.121 34.416)" fill="#0e0e0e" stroke="#fff" stroke-width="2">
        <path d="M0,0H331a20,20,0,0,1,20,20V71a20,20,0,0,1-20,20H0a0,0,0,0,1,0,0V0A0,0,0,0,1,0,0Z" stroke="none"/>
        <path d="M1,1H331a19,19,0,0,1,19,19V71a19,19,0,0,1-19,19H1a0,0,0,0,1,0,0V1A0,0,0,0,1,1,1Z" fill="none"/>
      </g>
      <text id="Discovery" transform="translate(342.121 90.416)" fill="#fff" font-size="24" font-family="PlayfairDisplay-Bold, Playfair Display" font-weight="700"><tspan x="-54.948" y="0">Discovery</tspan></text>
      <text id="_01" data-name="01" transform="translate(248.121 88.416)" fill="#fff" font-size="24" font-family="PlayfairDisplay-Bold, Playfair Display" font-weight="700"><tspan x="-12.336" y="0">01</tspan></text>
      <g id="Ellipse_20-4" data-name="Ellipse 20" transform="translate(0.121 0.416)" fill="#fff" stroke="#fff" stroke-width="2">
        <ellipse cx="80" cy="79.5" rx="80" ry="79.5" stroke="none"/>
        <ellipse cx="80" cy="79.5" rx="79" ry="78.5" fill="none"/>
      </g>
      <g id="Group_396" data-name="Group 396" transform="translate(14.121 34.416)">
        <g id="Group_395" data-name="Group 395" transform="translate(0 0)">
          <g id="Group_394" data-name="Group 394">
            <path id="Path_1086" data-name="Path 1086" d="M642.992,316.161a1.938,1.938,0,1,1-1.932,1.934A1.937,1.937,0,0,1,642.992,316.161Z" transform="translate(-561.583 -261.241)" fill="#a1cc3a"/>
            <rect id="Rectangle_70" data-name="Rectangle 70" width="3.787" height="7.012" transform="matrix(-0.5, -0.866, 0.866, -0.5, 14.827, 75.024)" fill="#a1cc3a"/>
            <path id="Path_1087" data-name="Path 1087" d="M652.093,322.686a1.935,1.935,0,1,1-1.934,1.934A1.935,1.935,0,0,1,652.093,322.686Z" transform="translate(-581.479 -260.024)" fill="#a1cc3a"/>
            <path id="Path_1088" data-name="Path 1088" d="M671.027,326.527l3.46-2-1.688,3.188Q671.893,327.143,671.027,326.527Z" transform="translate(-626.702 -259.68)" fill="#a1cc3a"/>
            <path id="Path_1089" data-name="Path 1089" d="M655.793,343.068l-6.184-11.673,30.02-17.346,1.388,2.407a1.489,1.489,0,0,0,.91.7,1.466,1.466,0,0,0,.386.051,1.491,1.491,0,0,0,.749-.2l8.525-4.928a1.5,1.5,0,0,0,.548-2.044L679.791,288.64a1.5,1.5,0,0,0-2.044-.549l-8.523,4.923a1.493,1.493,0,0,0-.548,2.041l1.393,2.417-41.946,24.237a36.451,36.451,0,0,1-3.186-15,36.783,36.783,0,1,1,30.857,36.356Zm-18.579-53.534a4.927,4.927,0,1,0,4.923,4.927A4.932,4.932,0,0,0,637.214,289.534Zm15.755.73a4.926,4.926,0,1,0,4.923,4.928A4.93,4.93,0,0,0,652.969,290.263Zm10.577-13.217a4.929,4.929,0,1,0,4.923,4.927A4.929,4.929,0,0,0,663.546,277.046Zm13.932,54.616a4.929,4.929,0,1,0-4.923-4.934A4.936,4.936,0,0,0,677.478,331.663ZM666.684,339.4a4.925,4.925,0,1,0-4.925-4.925A4.928,4.928,0,0,0,666.684,339.4Z" transform="translate(-596.07 -269.875)" fill="#a1cc3a"/>
            <path id="Path_1090" data-name="Path 1090" d="M694.323,322.581l2.124,3.681-11.1,6.412-4.154-7.2,11.1-6.413Z" transform="translate(-660.723 -260.699)" fill="#a1cc3a"/>
            <path id="Path_1091" data-name="Path 1091" d="M654.737,282.315a1.938,1.938,0,1,1,1.931-1.94A1.94,1.94,0,0,1,654.737,282.315Z" transform="translate(-587.261 -268.277)" fill="#a1cc3a"/>
            <path id="Path_1092" data-name="Path 1092" d="M663.651,293.448a1.934,1.934,0,1,1,1.93-1.933A1.936,1.936,0,0,1,663.651,293.448Z" transform="translate(-606.752 -266.199)" fill="#a1cc3a"/>
            <path id="Path_1093" data-name="Path 1093" d="M664.192,330.793v-4.48l2.856,5.389Q665.6,331.305,664.192,330.793Z" transform="translate(-611.153 -259.347)" fill="#a1cc3a"/>
            <path id="Path_1094" data-name="Path 1094" d="M669.121,328.873l1.356-2.559v3.23Q669.8,329.225,669.121,328.873Z" transform="translate(-620.43 -259.347)" fill="#a1cc3a"/>
            <path id="Path_1095" data-name="Path 1095" d="M648.268,330.53l-.02-.038-2.891-5.01-3.219-5.583,42.537-24.582,6.572,11.393-31.23,18.047-.017.009-11.294,6.526Zm2.952-13.644a1.5,1.5,0,0,0,2.037.566l26.54-14.982a1.5,1.5,0,1,0-1.471-2.606l-26.539,14.982A1.5,1.5,0,0,0,651.22,316.886Z" transform="translate(-609.184 -265.129)" fill="#a1cc3a"/>
            <path id="Path_1096" data-name="Path 1096" d="M637.414,289.007l1.673-.965,10.849,18.8L644,310.275l-10.85-18.808,1.672-.965,5.428,9.4a1.5,1.5,0,0,0,2.59-1.5Z" transform="translate(-557.209 -266.486)" fill="#a1cc3a"/>
            <path id="Path_1097" data-name="Path 1097" d="M676.93,292.833a1.934,1.934,0,1,1,1.932-1.934A1.937,1.937,0,0,1,676.93,292.833Z" transform="translate(-635.786 -266.314)" fill="#a1cc3a"/>
            <path id="Path_1098" data-name="Path 1098" d="M639.033,346.563H676.44l8.479-16.006c.888.464,1.779.888,2.665,1.268v14.738h2.992V332.97a39.671,39.671,0,0,0,4.6,1.243l6.541,12.35h21.839a1.5,1.5,0,1,1,0,2.992H639.033a1.5,1.5,0,0,1,0-2.992Z" transform="translate(-637.537 -258.555)" fill="#a1cc3a"/>
          </g>
        </g>
      </g>
    </g>
    <g id="Group_392" data-name="Group 392" transform="translate(1212.585 330.584)">
      <g id="Rectangle_69-5" data-name="Rectangle 69" transform="translate(0.415 34.416)" fill="#0e0e0e" stroke="#fff" stroke-width="2">
        <path d="M20,0H351a0,0,0,0,1,0,0V91a0,0,0,0,1,0,0H20A20,20,0,0,1,0,71V20A20,20,0,0,1,20,0Z" stroke="none"/>
        <path d="M20,1H350a0,0,0,0,1,0,0V90a0,0,0,0,1,0,0H20A19,19,0,0,1,1,71V20A19,19,0,0,1,20,1Z" fill="none"/>
      </g>
      <g id="Group_408" data-name="Group 408" transform="translate(20 1)">
        <text id="Evaluation" transform="translate(165.415 90.416)" fill="#fff" font-size="24" font-family="PlayfairDisplay-Bold, Playfair Display" font-weight="700"><tspan x="-59.1" y="0">Evaluation</tspan></text>
        <text id="_05" data-name="05" transform="translate(65.415 87.416)" fill="#fff" font-size="24" font-family="PlayfairDisplay-Bold, Playfair Display" font-weight="700"><tspan x="-13.248" y="0">05</tspan></text>
      </g>
      <g id="Ellipse_20-5" data-name="Ellipse 20" transform="translate(315.415 0.416)" fill="#fff" stroke="#fff" stroke-width="2">
        <ellipse cx="80" cy="79.5" rx="80" ry="79.5" stroke="none"/>
        <ellipse cx="80" cy="79.5" rx="79" ry="78.5" fill="none"/>
      </g>
      <g id="Group_405" data-name="Group 405" transform="translate(-138.075 -93.26)">
        <g id="Group_404" data-name="Group 404">
          <g id="Group_403" data-name="Group 403">
            <path id="Path_1130" data-name="Path 1130" d="M521.665,161.559c.028.167.059.333.09.5.02.108.042.217.062.325.041.2.082.4.128.6.016.073.032.147.049.221.051.221.1.443.16.663.013.054.027.109.041.163.06.233.121.464.187.693.012.047.026.093.039.139q.1.351.21.7c.013.046.029.092.044.138.073.228.147.455.226.681.02.057.039.113.059.169.075.214.151.428.232.64.031.079.061.158.091.237q.426,1.105.937,2.169h18.544c.263-.545.505-1.1.732-1.653.007-.015.011-.03.018-.047a30.476,30.476,0,0,0,1.922-7.065c0-.018.008-.036.011-.054,1.627-11.142-2.843-22.751-11.955-28.942-7.6,5.171-12.29,14.416-12.29,24.339a31.744,31.744,0,0,0,.381,4.88C521.608,161.225,521.636,161.392,521.665,161.559Zm11.827-20.586a6.251,6.251,0,1,1-6.247,6.248A6.254,6.254,0,0,1,533.492,140.973Z" fill="#a1cc3a"/>
            <path id="Path_1131" data-name="Path 1131" d="M542.5,175.042v-2.923H524.7v2.923h17.8Z" fill="#a1cc3a"/>
            <rect id="Rectangle_71" data-name="Rectangle 71" width="13.661" height="2.924" transform="translate(526.765 177.564)" fill="#a1cc3a"/>
            <path id="Path_1132" data-name="Path 1132" d="M496.452,199.666a1.55,1.55,0,0,0,1.529,1.532H569a1.531,1.531,0,0,0,1.528-1.532v-7.857H496.455Zm37.04-7.206a4.039,4.039,0,1,1-4.04,4.041A4.043,4.043,0,0,1,533.492,192.46Z" fill="#a1cc3a"/>
            <path id="Path_1133" data-name="Path 1133" d="M533.492,198.019a1.519,1.519,0,1,0-1.518-1.518A1.519,1.519,0,0,0,533.492,198.019Z" fill="#a1cc3a"/>
            <path id="Path_1134" data-name="Path 1134" d="M526.768,203.719l-1.1,6.934h15.645l-1.1-6.934Z" fill="#a1cc3a"/>
            <path id="Path_1135" data-name="Path 1135" d="M533.492,150.956a3.731,3.731,0,1,0-3.726-3.735A3.735,3.735,0,0,0,533.492,150.956Z" fill="#a1cc3a"/>
            <path id="Path_1136" data-name="Path 1136" d="M520.11,165.942c-.074-.243-.141-.488-.21-.734l-.075-.273q-.093-.35-.178-.7c-.026-.109-.051-.219-.078-.328-.03-.128-.063-.254-.092-.382a11.674,11.674,0,0,0-3.216,7.891c0,.284.01.566.034.85a17.515,17.515,0,0,1,4.458-4.388c-.211-.572-.4-1.149-.58-1.734C520.151,166.075,520.13,166.01,520.11,165.942Z" fill="#a1cc3a"/>
            <path id="Path_1137" data-name="Path 1137" d="M542.79,213.174H519.435v2.34h28.114v-2.34H542.79Z" fill="#a1cc3a"/>
            <path id="Path_1138" data-name="Path 1138" d="M550.686,172.248c.022-.278.033-.557.033-.834a11.671,11.671,0,0,0-3.215-7.89c-.012.054-.026.107-.037.161-.068.3-.139.6-.215.9-.016.063-.033.128-.051.191-.07.273-.146.547-.224.819-.021.074-.042.146-.063.219-.1.328-.2.654-.307.978a.518.518,0,0,1-.018.056q-.172.518-.362,1.03A17.227,17.227,0,0,1,550.686,172.248Z" fill="#a1cc3a"/>
            <path id="Path_1139" data-name="Path 1139" d="M569,145.758H546.653q.406,1.266.717,2.586a34.516,34.516,0,0,1,.652,12.158,14.515,14.515,0,0,1,5.217,10.912,13.4,13.4,0,0,1-.905,4.835,1.261,1.261,0,0,1-1.176.808h0a1.262,1.262,0,0,1-1.175-.806,13.767,13.767,0,0,0-4.748-5.984c-.072.158-.146.317-.222.474a.891.891,0,0,1,.007.116V176.3a1.262,1.262,0,0,1-1.261,1.261h-.81v4.184a1.261,1.261,0,0,1-1.261,1.261H525.5a1.262,1.262,0,0,1-1.261-1.261v-4.184h-.808a1.261,1.261,0,0,1-1.261-1.261v-5.158c-.147-.292-.287-.585-.424-.88A13.733,13.733,0,0,0,517,176.249a1.261,1.261,0,0,1-2.353,0,13.414,13.414,0,0,1-.91-4.835,14.515,14.515,0,0,1,5.22-10.911,34.09,34.09,0,0,1-.278-4.327,33.718,33.718,0,0,1,1.648-10.418H497.981a1.63,1.63,0,0,0-1.608,1.61v41.92h74.234v-41.92A1.611,1.611,0,0,0,569,145.758Zm-68.286,10.79a1.26,1.26,0,0,1,1.261-1.259h11.568a1.26,1.26,0,1,1,0,2.521H501.974A1.26,1.26,0,0,1,500.713,156.548Zm15.622,25.412H504.767a1.261,1.261,0,0,1,0-2.521h11.568a1.261,1.261,0,1,1,0,2.521Zm41.685,4H546.455a1.26,1.26,0,1,1,0-2.521H558.02a1.26,1.26,0,1,1,0,2.521ZM565.2,161.4H553.635a1.26,1.26,0,1,1,0-2.521H565.2a1.26,1.26,0,1,1,0,2.521Z" fill="#a1cc3a"/>
          </g>
        </g>
      </g>
    </g>
    <path id="Path_1083" data-name="Path 1083" d="M2950,5646v176" transform="translate(-1990 -5120)" fill="none" stroke="#a1cc3a" stroke-linecap="round" stroke-width="3" stroke-dasharray="9 9"/>
    <path id="Path_1084" data-name="Path 1084" d="M2837,5588.4l-214.6,27.2-40,81.6" transform="translate(-1990 -5120)" fill="none" stroke="#a1cc3a" stroke-linecap="round" stroke-width="3" stroke-dasharray="9 9"/>
    <path id="Path_1085" data-name="Path 1085" d="M2582.4,5588.4l214.6,27.2,40,81.6" transform="translate(-1509.4 -5120)" fill="none" stroke="#a1cc3a" stroke-linecap="round" stroke-width="3" stroke-dasharray="9 9"/>
    <circle id="Ellipse_22" data-name="Ellipse 22" cx="7" cy="7" r="7" transform="translate(830 324)" fill="#a1cc3a"/>
    <circle id="Ellipse_23" data-name="Ellipse 23" cx="7" cy="7" r="7" transform="translate(842 460)" fill="#a1cc3a"/>
    <circle id="Ellipse_24" data-name="Ellipse 24" cx="7" cy="7" r="7" transform="translate(1064 461)" fill="#a1cc3a"/>
    <circle id="Ellipse_25" data-name="Ellipse 25" cx="7" cy="7" r="7" transform="translate(1075 324)" fill="#a1cc3a"/>
    <circle id="Ellipse_26" data-name="Ellipse 26" cx="7" cy="7" r="7" transform="translate(953 518)" fill="#a1cc3a"/>
    <g id="Ellipse_27" data-name="Ellipse 27" transform="translate(827 321)" fill="none" stroke="#a1cc3a" stroke-width="1">
      <circle cx="10" cy="10" r="10" stroke="none"/>
      <circle cx="10" cy="10" r="9.5" fill="none"/>
    </g>
    <g id="Ellipse_28" data-name="Ellipse 28" transform="translate(839 457)" fill="none" stroke="#a1cc3a" stroke-width="1">
      <circle cx="10" cy="10" r="10" stroke="none"/>
      <circle cx="10" cy="10" r="9.5" fill="none"/>
    </g>
    <g id="Ellipse_29" data-name="Ellipse 29" transform="translate(950 515)" fill="none" stroke="#a1cc3a" stroke-width="1">
      <circle cx="10" cy="10" r="10" stroke="none"/>
      <circle cx="10" cy="10" r="9.5" fill="none"/>
    </g>
    <g id="Ellipse_30" data-name="Ellipse 30" transform="translate(1061 458)" fill="none" stroke="#a1cc3a" stroke-width="1">
      <circle cx="10" cy="10" r="10" stroke="none"/>
      <circle cx="10" cy="10" r="9.5" fill="none"/>
    </g>
    <g id="Ellipse_31" data-name="Ellipse 31" transform="translate(1072 321)" fill="none" stroke="#a1cc3a" stroke-width="1">
      <circle cx="10" cy="10" r="10" stroke="none"/>
      <circle cx="10" cy="10" r="9.5" fill="none"/>
    </g>
    <line id="Line_15" data-name="Line 15" y2="25" transform="translate(505.5 400.5)" fill="none" stroke="#fff" stroke-width="1"/>
    <line id="Line_16" data-name="Line 16" y2="25" transform="translate(652.5 609.5)" fill="none" stroke="#fff" stroke-width="1"/>
    <line id="Line_17" data-name="Line 17" y2="25" transform="translate(873.5 876.5)" fill="none" stroke="#fff" stroke-width="1"/>
    <line id="Line_18" data-name="Line 18" y2="25" transform="translate(1189.5 610.5)" fill="none" stroke="#fff" stroke-width="1"/>
    <line id="Line_19" data-name="Line 19" y2="25" transform="translate(1324.5 401.5)" fill="none" stroke="#fff" stroke-width="1"/>
  </g>
</svg>
