<svg xmlns="http://www.w3.org/2000/svg" width="63.178" height="80.216" viewBox="0 0 63.178 80.216">
  <g id="Group_1549" data-name="Group 1549" transform="translate(-287.426 -235.764)">
    <path id="Path_2902" data-name="Path 2902" d="M298.174,238.581h7.878v.958h-7.878Zm6.618,45.459h0a1.156,1.156,0,0,1-1.258,1.258h-3.17a1.4,1.4,0,0,1-1.26-1.258V280.87a1.437,1.437,0,0,1,1.26-1.562h3.17c.955,0,1.258.6,1.258,1.562Zm-11.048-24.617h16.436v1.913H293.744Zm16.109,4.43h.328v.3Zm-16.109,0h8.231a3.562,3.562,0,0,0-1.611,1.562h-6.62Zm21.8,29c-2.215.957-4.756.653-7.576-1.56-4.128,1.258-6.318,3.473-2.845,7.55A33.782,33.782,0,0,0,320.6,307.4a2.432,2.432,0,0,1,1.257.6s5.033,8.861,5.386,7.9c0-.653,23.359-12.939,23.359-12.939a74,74,0,0,0-5.035-8.206,12.475,12.475,0,0,0-.653-8.861c-2.215-3.775-4.1-7.55-6.318-11.325a4.042,4.042,0,0,0-3.8-2.215c-11.379,1.862-16.411,3.17-17.369,4.43-2.817-4.128-5.991-8.206-9.163-12.336-2.817-2.213-8.206.96-5.99,5.035,4.43,7.906,8.861,15.507,13.266,23.359ZM313,235.764H291.2a3.8,3.8,0,0,0-3.775,3.775v44.2a3.648,3.648,0,0,0,3.775,3.775h19.584c-1.865-3.17-3.778-6.341-5.665-9.765H290.268V242.359h23.687v26.832l2.845,3.775V239.539a4.046,4.046,0,0,0-3.8-3.775Z" transform="translate(0 0)" fill="#a1cc3a" fill-rule="evenodd"/>
  </g>
</svg>
