<svg xmlns="http://www.w3.org/2000/svg" xmlns:xlink="http://www.w3.org/1999/xlink" width="700.654" height="577.653" viewBox="0 0 700.654 577.653">
  <defs>
    <linearGradient id="linear-gradient" x1="0.981" y1="0.5" x2="-0.019" y2="0.5" gradientUnits="objectBoundingBox">
      <stop offset="0" stop-color="#5761d7"/>
      <stop offset="0.178" stop-color="#5b65d8"/>
      <stop offset="0.388" stop-color="#6a72de"/>
      <stop offset="0.613" stop-color="#8188e8"/>
      <stop offset="0.849" stop-color="#a2a6f5"/>
      <stop offset="1" stop-color="#bcbeff"/>
    </linearGradient>
    <linearGradient id="linear-gradient-2" x1="-0.055" y1="0.5" x2="0.945" y2="0.5" gradientUnits="objectBoundingBox">
      <stop offset="0" stop-color="#c0bff6"/>
      <stop offset="0.294" stop-color="#c4c3f6"/>
      <stop offset="0.64" stop-color="#d2d2f9"/>
      <stop offset="1" stop-color="#e9e9fd"/>
    </linearGradient>
    <linearGradient id="linear-gradient-3" x1="-1.232" y1="0.5" x2="-0.232" y2="0.5" xlink:href="#linear-gradient-2"/>
    <linearGradient id="linear-gradient-4" x1="-12" y1="0.5" x2="-11" y2="0.5" xlink:href="#linear-gradient"/>
    <linearGradient id="linear-gradient-5" x1="-0.391" y1="0.5" x2="0.609" y2="0.5" xlink:href="#linear-gradient"/>
    <clipPath id="clip-path">
      <path id="Path_891" data-name="Path 891" d="M635.165,199.9,400.391,64.418l-29.5,175.38L605.516,375.2Z" transform="translate(-370.893 -64.418)" fill="none"/>
    </clipPath>
    <linearGradient id="linear-gradient-7" x1="-1.16" y1="0.5" x2="-0.16" y2="0.5" xlink:href="#linear-gradient"/>
    <linearGradient id="linear-gradient-8" x1="-0.823" y1="0.5" x2="0.177" y2="0.5" xlink:href="#linear-gradient-2"/>
    <linearGradient id="linear-gradient-9" x1="-14.637" y1="12.547" x2="-13.645" y2="12.547" gradientUnits="objectBoundingBox">
      <stop offset="0" stop-color="#bcbeff"/>
      <stop offset="0.227" stop-color="#aaadf7"/>
      <stop offset="0.68" stop-color="#7b82e5"/>
      <stop offset="1" stop-color="#5761d7"/>
    </linearGradient>
    <linearGradient id="linear-gradient-10" x1="-25.071" y1="13.284" x2="-20.348" y2="13.284" xlink:href="#linear-gradient-9"/>
    <linearGradient id="linear-gradient-11" x1="0" y1="0.5" x2="1" y2="0.5" xlink:href="#linear-gradient-9"/>
    <radialGradient id="radial-gradient" cx="0.036" cy="-0.005" r="1.137" gradientTransform="matrix(1.02, 0.028, -0.028, 1, 0.431, 0.139)" gradientUnits="objectBoundingBox">
      <stop offset="0" stop-color="#e9e9fd"/>
      <stop offset="0.36" stop-color="#d2d2f9"/>
      <stop offset="0.706" stop-color="#c4c3f6"/>
      <stop offset="1" stop-color="#c0bff6"/>
    </radialGradient>
    <radialGradient id="radial-gradient-2" cx="0.5" cy="0.5" r="0.408" gradientTransform="matrix(1.225, 0.707, -1.225, 0.707, 39.098, 19.931)" gradientUnits="objectBoundingBox">
      <stop offset="0" stop-color="#f9636b"/>
      <stop offset="1" stop-color="#b6246e"/>
    </radialGradient>
    <linearGradient id="linear-gradient-12" x1="-2.803" y1="8.021" x2="-2.432" y2="8.775" gradientUnits="objectBoundingBox">
      <stop offset="0" stop-color="#bcbeff"/>
      <stop offset="0.124" stop-color="#b3b6fb"/>
      <stop offset="0.321" stop-color="#9ca0f2"/>
      <stop offset="0.565" stop-color="#767ee3"/>
      <stop offset="0.744" stop-color="#5761d7"/>
    </linearGradient>
    <linearGradient id="linear-gradient-13" x1="0.151" y1="0.137" x2="0.903" y2="0.909" xlink:href="#linear-gradient-9"/>
    <linearGradient id="linear-gradient-14" x1="-5.33" y1="8.014" x2="-4.105" y2="8.014" gradientTransform="matrix(1, 0, 0, 1, 0, 0)" xlink:href="#radial-gradient"/>
    <radialGradient id="radial-gradient-3" cx="0.548" cy="0.849" r="0.92" gradientTransform="matrix(1.5, 0.5, -0.866, 0.866, 10.651, 3.805)" xlink:href="#linear-gradient-9"/>
    <clipPath id="clip-path-2">
      <ellipse id="Ellipse_5" data-name="Ellipse 5" cx="40.38" cy="69.941" rx="40.38" ry="69.941" transform="translate(0 38.442) rotate(-28.424)" fill="none"/>
    </clipPath>
    <linearGradient id="linear-gradient-15" x1="0" y1="0.5" x2="1" y2="0.5" gradientTransform="matrix(1, 0, 0, 1, 0, 0)" xlink:href="#radial-gradient"/>
    <radialGradient id="radial-gradient-4" cx="-0.856" cy="-0.238" r="2.853" gradientTransform="translate(-0.162) scale(1.324 1)" xlink:href="#linear-gradient-9"/>
    <linearGradient id="linear-gradient-16" x1="0.163" y1="0.201" x2="1.378" y2="0.993" gradientUnits="objectBoundingBox">
      <stop offset="0" stop-color="#42e8e0"/>
      <stop offset="0.106" stop-color="#36b5bf"/>
      <stop offset="0.22" stop-color="#2c87a0"/>
      <stop offset="0.338" stop-color="#235f86"/>
      <stop offset="0.459" stop-color="#1b3e71"/>
      <stop offset="0.582" stop-color="#162560"/>
      <stop offset="0.711" stop-color="#121355"/>
      <stop offset="0.846" stop-color="#0f084e"/>
      <stop offset="1" stop-color="#0f054c"/>
    </linearGradient>
    <linearGradient id="linear-gradient-17" x1="0.163" y1="0.201" x2="1.022" y2="0.761" xlink:href="#linear-gradient-16"/>
    <linearGradient id="linear-gradient-18" x1="151.527" y1="39.176" x2="152.683" y2="39.176" gradientUnits="objectBoundingBox">
      <stop offset="0" stop-color="#5761d7"/>
      <stop offset="0.164" stop-color="#5e67d9"/>
      <stop offset="0.405" stop-color="#7179e1"/>
      <stop offset="0.692" stop-color="#9197ee"/>
      <stop offset="1" stop-color="#bcbeff"/>
    </linearGradient>
    <linearGradient id="linear-gradient-19" x1="154.094" y1="40.623" x2="155.25" y2="40.623" xlink:href="#linear-gradient-18"/>
    <linearGradient id="linear-gradient-20" x1="156.705" y1="42.099" x2="157.861" y2="42.099" xlink:href="#linear-gradient-18"/>
    <linearGradient id="linear-gradient-21" x1="143.363" y1="-3.005" x2="144.33" y2="-3.005" gradientUnits="objectBoundingBox">
      <stop offset="0" stop-color="#42e8e0"/>
      <stop offset="0.151" stop-color="#42e3df"/>
      <stop offset="0.328" stop-color="#44d4de"/>
      <stop offset="0.52" stop-color="#48bddd"/>
      <stop offset="0.721" stop-color="#4d9bda"/>
      <stop offset="0.927" stop-color="#5471d8"/>
      <stop offset="1" stop-color="#5761d7"/>
    </linearGradient>
    <linearGradient id="linear-gradient-22" x1="144.177" y1="-1.731" x2="145.144" y2="-1.731" xlink:href="#linear-gradient-21"/>
    <linearGradient id="linear-gradient-23" x1="145.005" y1="-0.434" x2="145.972" y2="-0.434" xlink:href="#linear-gradient-21"/>
    <linearGradient id="linear-gradient-24" x1="17" y1="-3.026" x2="17.764" y2="-4.112" gradientUnits="objectBoundingBox">
      <stop offset="0" stop-color="#bcbeff"/>
      <stop offset="0.308" stop-color="#9197ee"/>
      <stop offset="0.595" stop-color="#7179e1"/>
      <stop offset="0.836" stop-color="#5e67d9"/>
      <stop offset="1" stop-color="#5761d7"/>
    </linearGradient>
    <linearGradient id="linear-gradient-25" x1="19.293" y1="-4.114" x2="18.548" y2="-2.637" xlink:href="#linear-gradient-18"/>
    <linearGradient id="linear-gradient-26" x1="22.331" y1="-2.843" x2="23.038" y2="-2.843" xlink:href="#linear-gradient-21"/>
    <linearGradient id="linear-gradient-27" x1="22.301" y1="-2.932" x2="23.008" y2="-2.932" xlink:href="#linear-gradient-21"/>
  </defs>
  <g id="Group_809" data-name="Group 809" transform="translate(-211.21 -26.152)">
    <path id="Path_801" data-name="Path 801" d="M530.956,410.309a10.321,10.321,0,0,1-5.037-1.256L294.62,275.515a3.911,3.911,0,0,1-2.292-3.135,2.926,2.926,0,0,1,1.677-2.485L432.03,190.2c2.3-1.325,6.309-1.166,8.946.356L672.277,324.1a3.912,3.912,0,0,1,2.292,3.135,2.931,2.931,0,0,1-1.679,2.485L534.865,409.41A7.975,7.975,0,0,1,530.956,410.309ZM295.011,274.833l231.3,133.541c2.421,1.4,6.081,1.557,8.163.354L672.5,329.039a2.187,2.187,0,0,0,1.284-1.8,3.176,3.176,0,0,0-1.9-2.453l-231.3-133.541c-2.421-1.4-6.081-1.557-8.163-.356L294.4,270.575a2.184,2.184,0,0,0-1.284,1.8,3.179,3.179,0,0,0,1.9,2.453Z" transform="translate(70.891 142.583)" fill="#42e8e0"/>
    <g id="Group_775" data-name="Group 775" transform="translate(363.612 309.203)">
      <path id="Path_802" data-name="Path 802" d="M673.992,311.421l-12.737-1.833L440.6,182.192c-2.532-1.462-6.362-1.621-8.554-.354L300.626,257.711l-8.088-1.164v10.736l.024,0a3.505,3.505,0,0,0,2.069,2.762l231.3,133.541c2.532,1.462,6.362,1.621,8.554.354l138.025-79.688a2.5,2.5,0,0,0,1.456-2.183l.024,0Z" transform="translate(-292.538 -173.894)" fill="url(#linear-gradient)"/>
      <path id="Path_803" data-name="Path 803" d="M294.631,262.682l231.3,133.541c2.532,1.462,6.362,1.621,8.554.356l138.025-79.69c2.192-1.265,1.917-3.476-.615-4.938L440.6,178.409c-2.532-1.462-6.362-1.619-8.554-.354l-138.025,79.69C291.826,259.009,292.1,261.221,294.631,262.682Z" transform="translate(-292.538 -177.2)" fill="url(#linear-gradient-2)"/>
      <path id="Path_804" data-name="Path 804" d="M305.217,259.845l206.74,119.361c2.264,1.308,5.687,1.449,7.646.319L642.974,308.3c1.958-1.13,1.713-3.107-.549-4.413L435.683,184.52c-2.262-1.306-5.685-1.447-7.646-.317L304.668,255.43C302.708,256.562,302.953,258.539,305.217,259.845Z" transform="translate(-283.093 -171.747)" fill="#24126a" opacity="0.3"/>
      <path id="Path_805" data-name="Path 805" d="M672.5,277.438,534.477,357.126c-2.193,1.267-6.023,1.107-8.554-.354l-231.3-133.541a3.981,3.981,0,0,1-1.983-2.215c-.35,1.13.317,2.414,1.983,3.375l231.3,133.541c2.532,1.462,6.362,1.621,8.554.356L672.5,278.6a2.344,2.344,0,0,0,1.37-2.725A2.811,2.811,0,0,1,672.5,277.438Z" transform="translate(-292.528 -138.909)" fill="#fff"/>
    </g>
    <path id="Path_806" data-name="Path 806" d="M400.552,213.425l-43.919-25.1a16,16,0,0,1-8.043-13.861V101.83h.787v72.629a15.212,15.212,0,0,0,7.647,13.179l43.919,25.1Z" transform="translate(120.059 66.136)" fill="#42e8e0"/>
    <g id="Group_789" data-name="Group 789" transform="translate(363.612 92.003)">
      <g id="Group_787" data-name="Group 787">
        <g id="Group_785" data-name="Group 785">
          <g id="Group_779" data-name="Group 779">
            <g id="Group_777" data-name="Group 777" transform="translate(143.928)">
              <path id="Path_807" data-name="Path 807" d="M371.35,238.069,400.588,64.6l-2.352-.991,3.532-2.024-.006.021a2.541,2.541,0,0,1,2.723.187L638.164,196.706a6.6,6.6,0,0,1,3.034,5.937L611.726,377.49a2.2,2.2,0,0,1-1.231,1.78h0l-3.457,2-.594-3.227.2.06-232.261-134.1A6.6,6.6,0,0,1,371.35,238.069Z" transform="translate(-367.634 -61.293)" fill="url(#linear-gradient-3)"/>
              <path id="Path_808" data-name="Path 808" d="M532.588,136.88l3.841-1.7a5.285,5.285,0,0,1,.495,2.891L507.453,312.919a2.2,2.2,0,0,1-1.231,1.78h0l-3.457,2-.594-3.227.2.06-11.753-6.785Z" transform="translate(-263.361 3.278)" fill="url(#linear-gradient-4)"/>
              <path id="Path_809" data-name="Path 809" d="M372.427,245.131,606.1,380.044c1.8,1.042,3.349.44,3.665-1.428L639.24,203.768a6.6,6.6,0,0,0-3.034-5.935L402.531,62.919c-1.8-1.042-3.349-.44-3.667,1.428L369.393,239.194A6.6,6.6,0,0,0,372.427,245.131Z" transform="translate(-369.344 -60.316)" fill="#24126a"/>
              <g id="Group_776" data-name="Group 776" transform="translate(2.903 5.856)" opacity="0.51">
                <path id="Path_810" data-name="Path 810" d="M400.391,64.418,635.165,199.9,605.516,375.2,370.893,239.8Z" transform="translate(-370.893 -64.418)" fill="#453c9e"/>
              </g>
            </g>
            <g id="Group_778" data-name="Group 778" transform="translate(0 184.209)">
              <path id="Path_811" data-name="Path 811" d="M292.6,235.806l12.752,6.66,127.874-73.829c2.14-1.235,5.877-1.079,8.346.347L662.122,296.317c2.11-1.181,11.733-5.809,11.733-5.809l-4.668,7.588-.019-.015a2.781,2.781,0,0,1-1.306,1.449L533.186,377.283c-2.138,1.235-5.875,1.081-8.346-.345l-225.687-130.3a4.038,4.038,0,0,1-1.895-2.014l-.017.011Z" transform="translate(-292.481 -152.42)" fill="url(#linear-gradient-5)"/>
              <path id="Path_812" data-name="Path 812" d="M294.631,245.076l231.3,133.543c2.532,1.462,6.362,1.619,8.554.354l138.025-79.69c2.192-1.265,1.917-3.476-.615-4.938L440.6,160.8c-2.532-1.462-6.362-1.621-8.554-.354L294.019,240.138C291.826,241.4,292.1,243.614,294.631,245.076Z" transform="translate(-292.538 -159.595)" fill="url(#linear-gradient-2)"/>
              <path id="Path_813" data-name="Path 813" d="M294.624,205.725l231.3,133.541c2.532,1.462,6.362,1.621,8.554.354L672.5,259.932a2.79,2.79,0,0,0,1.39-1.617,2.359,2.359,0,0,1-1.39,2.652l-138.025,79.69c-2.193,1.265-6.023,1.107-8.554-.354L294.624,206.76c-1.64-.946-2.316-2.206-2-3.321A3.914,3.914,0,0,0,294.624,205.725Z" transform="translate(-292.53 -121.278)" fill="#fff"/>
            </g>
          </g>
          <g id="Group_784" data-name="Group 784" transform="translate(146.832 5.856)" opacity="0.15">
            <g id="Group_783" data-name="Group 783" clip-path="url(#clip-path)">
              <g id="Group_782" data-name="Group 782" transform="translate(-0.229 94.447)">
                <g id="Group_780" data-name="Group 780">
                  <path id="Path_814" data-name="Path 814" d="M370.837,191.03l12.752,6.66,127.874-73.827c2.138-1.237,5.875-1.081,8.346.345L740.354,251.541c2.112-1.181,11.733-5.807,11.733-5.807l-4.668,7.586-.019-.013a2.78,2.78,0,0,1-1.3,1.447L611.42,332.509c-2.14,1.235-5.877,1.079-8.346-.347l-225.689-130.3a4.038,4.038,0,0,1-1.893-2.013l-.017.011Z" transform="translate(-370.714 -107.644)" fill="url(#linear-gradient-7)"/>
                  <path id="Path_815" data-name="Path 815" d="M372.866,200.3l231.3,133.541c2.532,1.462,6.362,1.621,8.554.354l138.025-79.688c2.194-1.267,1.919-3.478-.613-4.94l-231.3-133.541c-2.532-1.462-6.362-1.621-8.555-.354L372.251,195.362C370.059,196.629,370.334,198.84,372.866,200.3Z" transform="translate(-370.771 -114.819)" fill="url(#linear-gradient-8)"/>
                  <path id="Path_816" data-name="Path 816" d="M683.749,249.565l-231.3-133.541a10.08,10.08,0,0,0-5.715-1.162,9.655,9.655,0,0,1,4.012,1.162l231.3,133.541c2.532,1.462,2.807,3.673.615,4.94L544.633,334.193a6.952,6.952,0,0,1-2.839.808,8.071,8.071,0,0,0,4.542-.808L684.361,254.5C686.556,253.238,686.28,251.027,683.749,249.565Z" transform="translate(-304.388 -114.815)" fill="#fff"/>
                </g>
                <g id="Group_781" data-name="Group 781" transform="translate(57.179 57.972)" opacity="0.5">
                  <path id="Path_817" data-name="Path 817" d="M445.133,150.277,437.718,146a2.472,2.472,0,0,0-2.249.062l-8.241,4.814c-.646.379-.69.963-.094,1.306l7.415,4.282a2.478,2.478,0,0,0,2.249-.064l8.24-4.814C445.686,151.206,445.727,150.62,445.133,150.277Z" transform="translate(-379.062 -145.755)" fill="#24126a"/>
                  <path id="Path_818" data-name="Path 818" d="M451.243,153.8l-7.415-4.282a2.478,2.478,0,0,0-2.249.064l-8.242,4.814c-.646.377-.69.963-.094,1.306l7.415,4.28a2.472,2.472,0,0,0,2.249-.062l8.242-4.814C451.8,154.732,451.837,154.148,451.243,153.8Z" transform="translate(-373.722 -142.672)" fill="#24126a"/>
                  <path id="Path_819" data-name="Path 819" d="M457.353,157.331l-7.415-4.28a2.477,2.477,0,0,0-2.249.062l-8.241,4.814c-.647.379-.688.963-.094,1.308l7.415,4.28a2.477,2.477,0,0,0,2.249-.062l8.242-4.814C457.905,158.261,457.949,157.676,457.353,157.331Z" transform="translate(-368.382 -139.589)" fill="#24126a"/>
                  <path id="Path_820" data-name="Path 820" d="M452.084,162.026l-7.413-4.28a2.487,2.487,0,0,0-2.251.062L435.5,161.85c-.648.379-.69.963-.1,1.306l7.415,4.282a2.482,2.482,0,0,0,2.251-.064l6.917-4.04C452.636,162.955,452.679,162.371,452.084,162.026Z" transform="translate(-371.831 -135.486)" fill="#24126a"/>
                  <path id="Path_821" data-name="Path 821" d="M458.194,165.555l-7.413-4.28a2.475,2.475,0,0,0-2.251.062l-6.917,4.042c-.648.377-.69.963-.1,1.306l7.415,4.28a2.476,2.476,0,0,0,2.251-.062l6.917-4.04C458.746,166.484,458.79,165.9,458.194,165.555Z" transform="translate(-366.491 -132.403)" fill="#24126a"/>
                  <path id="Path_822" data-name="Path 822" d="M464.3,169.083,456.89,164.8a2.481,2.481,0,0,0-2.251.064l-6.917,4.04c-.648.379-.69.963-.094,1.308l7.413,4.28a2.481,2.481,0,0,0,2.251-.062l6.917-4.042C464.856,170.01,464.9,169.426,464.3,169.083Z" transform="translate(-361.151 -129.32)" fill="#24126a"/>
                  <path id="Path_823" data-name="Path 823" d="M470.413,172.609,463,168.329a2.487,2.487,0,0,0-2.251.062l-6.917,4.042c-.648.379-.69.963-.094,1.306l7.413,4.282a2.482,2.482,0,0,0,2.251-.064l6.917-4.04C470.966,173.538,471.009,172.954,470.413,172.609Z" transform="translate(-355.812 -126.237)" fill="#24126a"/>
                  <path id="Path_824" data-name="Path 824" d="M476.523,176.138l-7.413-4.28a2.476,2.476,0,0,0-2.251.062l-6.917,4.042c-.646.377-.69.963-.094,1.306l7.413,4.28a2.475,2.475,0,0,0,2.251-.062l6.917-4.042C477.078,177.067,477.119,176.481,476.523,176.138Z" transform="translate(-350.472 -123.155)" fill="#24126a"/>
                  <path id="Path_825" data-name="Path 825" d="M482.633,179.666l-7.413-4.282a2.482,2.482,0,0,0-2.251.064l-6.917,4.04c-.646.379-.69.963-.094,1.308l7.413,4.28a2.481,2.481,0,0,0,2.251-.062l6.917-4.042C483.188,180.593,483.229,180.009,482.633,179.666Z" transform="translate(-345.132 -120.072)" fill="#24126a"/>
                  <path id="Path_826" data-name="Path 826" d="M488.745,183.192l-7.415-4.28a2.487,2.487,0,0,0-2.251.062l-6.917,4.042c-.647.379-.69.963-.094,1.306l7.413,4.282a2.481,2.481,0,0,0,2.251-.064l6.917-4.04C489.3,184.121,489.339,183.537,488.745,183.192Z" transform="translate(-339.792 -116.989)" fill="#24126a"/>
                  <path id="Path_827" data-name="Path 827" d="M494.855,186.721l-7.415-4.28a2.472,2.472,0,0,0-2.249.062l-6.919,4.042c-.647.377-.69.963-.094,1.306l7.415,4.28a2.472,2.472,0,0,0,2.249-.062l6.917-4.042C495.408,187.65,495.449,187.064,494.855,186.721Z" transform="translate(-334.453 -113.906)" fill="#24126a"/>
                  <path id="Path_828" data-name="Path 828" d="M500.965,190.249l-7.415-4.282a2.478,2.478,0,0,0-2.249.064l-6.918,4.04c-.647.379-.69.963-.094,1.308l7.415,4.28a2.477,2.477,0,0,0,2.249-.062l6.919-4.042C501.518,191.176,501.559,190.592,500.965,190.249Z" transform="translate(-329.113 -110.823)" fill="#24126a"/>
                  <path id="Path_829" data-name="Path 829" d="M507.075,193.775l-7.415-4.28a2.483,2.483,0,0,0-2.249.062l-6.919,4.042c-.646.379-.69.963-.094,1.306l7.415,4.282a2.477,2.477,0,0,0,2.249-.064l6.919-4.04C507.628,194.7,507.669,194.12,507.075,193.775Z" transform="translate(-323.774 -107.74)" fill="#24126a"/>
                  <path id="Path_830" data-name="Path 830" d="M449.539,167.063l-7.415-4.28a2.472,2.472,0,0,0-2.249.062l-6.919,4.042c-.646.377-.69.963-.094,1.306l7.415,4.28a2.472,2.472,0,0,0,2.249-.062l6.917-4.04C450.092,167.992,450.133,167.407,449.539,167.063Z" transform="translate(-374.055 -131.086)" fill="#24126a"/>
                  <path id="Path_831" data-name="Path 831" d="M443.336,163.483l-7.413-4.28a2.475,2.475,0,0,0-2.251.062l-6.917,4.04c-.646.379-.69.963-.094,1.308l7.413,4.28a2.475,2.475,0,0,0,2.251-.062l6.917-4.042C443.891,164.412,443.932,163.826,443.336,163.483Z" transform="translate(-379.474 -134.214)" fill="#24126a"/>
                  <path id="Path_832" data-name="Path 832" d="M441.115,162.2l-15.968-9.22a2.475,2.475,0,0,0-2.251.062l-6.917,4.042c-.648.379-.69.963-.094,1.306l15.968,9.22a2.477,2.477,0,0,0,2.249-.062l6.919-4.042C441.668,163.128,441.711,162.543,441.115,162.2Z" transform="translate(-388.892 -139.652)" fill="#24126a"/>
                  <path id="Path_833" data-name="Path 833" d="M432.506,163.733l-12.96-7.481a2.472,2.472,0,0,0-2.249.062l-6.919,4.042c-.646.377-.69.963-.094,1.306l12.958,7.483a2.481,2.481,0,0,0,2.251-.064l6.917-4.04C433.059,164.663,433.1,164.078,432.506,163.733Z" transform="translate(-393.786 -136.792)" fill="#24126a"/>
                  <path id="Path_834" data-name="Path 834" d="M455.649,170.591l-7.415-4.282a2.478,2.478,0,0,0-2.249.064l-6.919,4.04c-.646.379-.69.963-.094,1.308l7.415,4.28a2.472,2.472,0,0,0,2.249-.062l6.919-4.042C456.2,171.518,456.243,170.934,455.649,170.591Z" transform="translate(-368.716 -128.003)" fill="#24126a"/>
                  <path id="Path_835" data-name="Path 835" d="M461.759,174.117l-7.415-4.28a2.483,2.483,0,0,0-2.249.062l-6.919,4.042c-.646.379-.688.963-.094,1.306l7.415,4.282a2.483,2.483,0,0,0,2.249-.062l6.918-4.042C462.311,175.046,462.355,174.462,461.759,174.117Z" transform="translate(-363.376 -124.92)" fill="#24126a"/>
                  <path id="Path_836" data-name="Path 836" d="M467.869,177.646l-7.415-4.28a2.472,2.472,0,0,0-2.249.062l-6.919,4.042c-.647.377-.688.963-.094,1.306l7.415,4.28a2.472,2.472,0,0,0,2.249-.062l6.919-4.04C468.422,178.575,468.465,177.99,467.869,177.646Z" transform="translate(-358.036 -121.837)" fill="#24126a"/>
                  <path id="Path_837" data-name="Path 837" d="M473.979,181.174l-7.415-4.282a2.478,2.478,0,0,0-2.249.064L457.4,181c-.648.379-.69.963-.1,1.308l7.415,4.28a2.476,2.476,0,0,0,2.251-.062l6.917-4.042C474.531,182.1,474.575,181.517,473.979,181.174Z" transform="translate(-352.696 -118.754)" fill="#24126a"/>
                  <path id="Path_838" data-name="Path 838" d="M480.089,184.7l-7.413-4.28a2.487,2.487,0,0,0-2.251.062l-6.917,4.042c-.648.379-.69.963-.1,1.306l7.415,4.282a2.481,2.481,0,0,0,2.251-.064l6.917-4.04C480.641,185.629,480.684,185.045,480.089,184.7Z" transform="translate(-347.356 -115.671)" fill="#24126a"/>
                  <path id="Path_839" data-name="Path 839" d="M486.2,188.229l-7.413-4.28a2.475,2.475,0,0,0-2.251.062l-6.917,4.042c-.648.377-.69.963-.094,1.306l7.413,4.28a2.476,2.476,0,0,0,2.251-.062l6.917-4.04C486.751,189.158,486.794,188.573,486.2,188.229Z" transform="translate(-342.017 -112.588)" fill="#24126a"/>
                  <path id="Path_840" data-name="Path 840" d="M492.309,191.757l-7.413-4.282a2.482,2.482,0,0,0-2.251.064l-6.917,4.04c-.648.379-.69.963-.094,1.308l7.413,4.28a2.476,2.476,0,0,0,2.251-.062l6.917-4.042C492.861,192.684,492.9,192.1,492.309,191.757Z" transform="translate(-336.677 -109.505)" fill="#24126a"/>
                  <path id="Path_841" data-name="Path 841" d="M498.418,195.283,491,191a2.487,2.487,0,0,0-2.251.062l-6.917,4.042c-.647.379-.69.963-.094,1.306l7.413,4.282a2.481,2.481,0,0,0,2.251-.064l6.917-4.04C498.973,196.212,499.014,195.628,498.418,195.283Z" transform="translate(-331.337 -106.422)" fill="#24126a"/>
                  <path id="Path_842" data-name="Path 842" d="M504.528,198.812l-7.413-4.28a2.475,2.475,0,0,0-2.251.062l-6.917,4.042c-.647.377-.69.963-.094,1.306l7.413,4.28a2.475,2.475,0,0,0,2.251-.062l6.917-4.04C505.083,199.741,505.124,199.156,504.528,198.812Z" transform="translate(-325.998 -103.34)" fill="#24126a"/>
                  <path id="Path_843" data-name="Path 843" d="M519.479,207.441,503.3,198.1a2.482,2.482,0,0,0-2.251.064l-6.917,4.04c-.646.379-.69.963-.094,1.308l16.177,9.34a2.483,2.483,0,0,0,2.249-.062l6.919-4.042C520.031,208.371,520.072,207.786,519.479,207.441Z" transform="translate(-320.592 -100.218)" fill="#24126a"/>
                  <path id="Path_844" data-name="Path 844" d="M507.1,213.306l-13.653-7.882a2.476,2.476,0,0,0-2.251.062l-6.917,4.04c-.648.379-.69.963-.1,1.308l13.655,7.884a2.478,2.478,0,0,0,2.249-.064l6.918-4.04C507.654,214.236,507.7,213.651,507.1,213.306Z" transform="translate(-329.204 -93.82)" fill="#24126a"/>
                  <path id="Path_845" data-name="Path 845" d="M454.8,176.6l-7.415-4.28a2.483,2.483,0,0,0-2.249.062l-6.918,4.042c-.647.379-.69.963-.094,1.306l7.415,4.282a2.483,2.483,0,0,0,2.249-.062l6.917-4.042C455.354,177.534,455.4,176.95,454.8,176.6Z" transform="translate(-369.457 -122.745)" fill="#24126a"/>
                  <path id="Path_846" data-name="Path 846" d="M448.539,172.991l-7.415-4.28a2.476,2.476,0,0,0-2.251.062l-6.917,4.042c-.647.377-.69.963-.094,1.306l7.413,4.28a2.475,2.475,0,0,0,2.251-.062l6.917-4.04C449.092,173.92,449.133,173.334,448.539,172.991Z" transform="translate(-374.929 -125.905)" fill="#24126a"/>
                  <path id="Path_847" data-name="Path 847" d="M442.275,169.376l-7.413-4.282a2.481,2.481,0,0,0-2.251.064l-6.917,4.04c-.646.379-.69.963-.094,1.308l7.413,4.28a2.487,2.487,0,0,0,2.251-.062l6.917-4.042C442.83,170.3,442.871,169.719,442.275,169.376Z" transform="translate(-380.402 -129.064)" fill="#24126a"/>
                  <path id="Path_848" data-name="Path 848" d="M436.013,165.759l-7.413-4.28a2.481,2.481,0,0,0-2.251.062l-6.917,4.042c-.646.379-.69.963-.094,1.306l7.413,4.282a2.482,2.482,0,0,0,2.251-.064l6.917-4.04C436.568,166.689,436.609,166.1,436.013,165.759Z" transform="translate(-385.874 -132.224)" fill="#24126a"/>
                  <path id="Path_849" data-name="Path 849" d="M460.911,180.134l-7.415-4.28a2.472,2.472,0,0,0-2.249.062l-6.919,4.042c-.647.377-.69.963-.094,1.306l7.415,4.28a2.472,2.472,0,0,0,2.249-.062l6.918-4.04C461.464,181.063,461.505,180.478,460.911,180.134Z" transform="translate(-364.117 -119.663)" fill="#24126a"/>
                  <path id="Path_850" data-name="Path 850" d="M467.021,183.662l-7.415-4.282a2.478,2.478,0,0,0-2.249.064l-6.919,4.04c-.646.379-.69.963-.094,1.308l7.415,4.28a2.472,2.472,0,0,0,2.249-.062l6.918-4.042C467.574,184.589,467.615,184,467.021,183.662Z" transform="translate(-358.777 -116.58)" fill="#24126a"/>
                  <path id="Path_851" data-name="Path 851" d="M473.131,187.19l-7.415-4.282a2.483,2.483,0,0,0-2.249.062l-6.919,4.042c-.646.379-.688.963-.094,1.306l7.415,4.282a2.483,2.483,0,0,0,2.249-.062l6.919-4.042C473.684,188.117,473.727,187.533,473.131,187.19Z" transform="translate(-353.437 -113.497)" fill="#24126a"/>
                  <path id="Path_852" data-name="Path 852" d="M479.241,190.717l-7.415-4.28a2.472,2.472,0,0,0-2.249.062l-6.917,4.042c-.648.377-.69.963-.1,1.306l7.415,4.28a2.472,2.472,0,0,0,2.249-.062l6.918-4.04C479.793,191.646,479.837,191.061,479.241,190.717Z" transform="translate(-348.098 -110.414)" fill="#24126a"/>
                  <path id="Path_853" data-name="Path 853" d="M485.351,194.245l-7.413-4.282a2.482,2.482,0,0,0-2.251.064l-6.917,4.04c-.648.379-.69.963-.1,1.308l7.415,4.28a2.476,2.476,0,0,0,2.251-.062l6.917-4.042C485.9,195.172,485.947,194.588,485.351,194.245Z" transform="translate(-342.758 -107.331)" fill="#24126a"/>
                  <path id="Path_854" data-name="Path 854" d="M491.46,197.771l-7.413-4.28a2.487,2.487,0,0,0-2.251.062l-6.917,4.042c-.648.379-.69.963-.094,1.306l7.413,4.282a2.482,2.482,0,0,0,2.251-.064l6.917-4.04C492.013,198.7,492.056,198.116,491.46,197.771Z" transform="translate(-337.418 -104.248)" fill="#24126a"/>
                  <path id="Path_855" data-name="Path 855" d="M497.57,201.3l-7.413-4.28a2.475,2.475,0,0,0-2.251.062l-6.917,4.042c-.648.377-.69.963-.094,1.306l7.413,4.28a2.476,2.476,0,0,0,2.251-.062l6.917-4.04C498.123,202.229,498.166,201.644,497.57,201.3Z" transform="translate(-332.079 -101.165)" fill="#24126a"/>
                  <path id="Path_856" data-name="Path 856" d="M503.681,204.828l-7.413-4.282a2.482,2.482,0,0,0-2.251.064l-6.917,4.04c-.648.379-.69.963-.094,1.308l7.413,4.28a2.476,2.476,0,0,0,2.251-.062l6.917-4.042C504.235,205.755,504.276,205.171,503.681,204.828Z" transform="translate(-326.739 -98.082)" fill="#24126a"/>
                  <path id="Path_857" data-name="Path 857" d="M509.79,208.354l-7.413-4.28a2.487,2.487,0,0,0-2.25.062l-6.917,4.042c-.647.379-.69.963-.094,1.306l7.413,4.282a2.482,2.482,0,0,0,2.251-.064l6.917-4.04C510.345,209.283,510.386,208.7,509.79,208.354Z" transform="translate(-321.399 -94.999)" fill="#24126a"/>
                  <path id="Path_858" data-name="Path 858" d="M440.035,174.587l-7.413-4.28a2.475,2.475,0,0,0-2.251.062l-6.917,4.04c-.648.379-.69.965-.1,1.308l7.415,4.28a2.476,2.476,0,0,0,2.251-.062l6.917-4.042C440.587,175.516,440.63,174.93,440.035,174.587Z" transform="translate(-382.36 -124.51)" fill="#24126a"/>
                  <path id="Path_859" data-name="Path 859" d="M433.954,171.077l-7.413-4.282a2.482,2.482,0,0,0-2.251.064l-6.917,4.04c-.647.379-.69.963-.094,1.308l7.413,4.28a2.475,2.475,0,0,0,2.251-.062l6.917-4.042C434.509,172,434.55,171.42,433.954,171.077Z" transform="translate(-387.673 -127.578)" fill="#24126a"/>
                  <path id="Path_860" data-name="Path 860" d="M427.876,167.567l-7.415-4.282a2.478,2.478,0,0,0-2.249.064l-6.919,4.04c-.646.379-.69.963-.094,1.308l7.415,4.28a2.478,2.478,0,0,0,2.249-.062l6.918-4.042C428.429,168.494,428.47,167.91,427.876,167.567Z" transform="translate(-392.987 -130.645)" fill="#24126a"/>
                  <path id="Path_861" data-name="Path 861" d="M421.8,164.057l-7.415-4.282a2.478,2.478,0,0,0-2.249.064l-6.917,4.04c-.648.379-.69.963-.1,1.308l7.415,4.28a2.487,2.487,0,0,0,2.251-.062l6.917-4.042C422.348,164.984,422.391,164.4,421.8,164.057Z" transform="translate(-398.3 -133.713)" fill="#24126a"/>
                  <path id="Path_862" data-name="Path 862" d="M413.749,167.5l-7.413-4.282a2.482,2.482,0,0,0-2.251.064l-2.286,1.336c-.647.377-.69.963-.094,1.306l7.413,4.28a2.475,2.475,0,0,0,2.251-.062l2.286-1.336C414.3,168.423,414.345,167.839,413.749,167.5Z" transform="translate(-401.285 -130.707)" fill="#24126a"/>
                  <path id="Path_863" data-name="Path 863" d="M421.683,172.075l-7.413-4.28a2.487,2.487,0,0,0-2.251.062l-2.286,1.336c-.647.379-.69.963-.094,1.308l7.413,4.28a2.475,2.475,0,0,0,2.251-.062l2.286-1.336C422.237,173,422.279,172.42,421.683,172.075Z" transform="translate(-394.351 -126.704)" fill="#24126a"/>
                  <path id="Path_864" data-name="Path 864" d="M427.739,175.572l-7.415-4.28a2.471,2.471,0,0,0-2.249.062l-2.288,1.336c-.647.379-.69.963-.094,1.306l7.415,4.282a2.478,2.478,0,0,0,2.249-.064l2.288-1.336C428.291,176.5,428.333,175.914,427.739,175.572Z" transform="translate(-389.06 -123.649)" fill="#24126a"/>
                  <path id="Path_865" data-name="Path 865" d="M433.792,179.066l-7.413-4.28a2.487,2.487,0,0,0-2.251.062l-2.286,1.336c-.648.379-.69.963-.094,1.308l7.413,4.28a2.481,2.481,0,0,0,2.251-.062l2.286-1.336C434.345,180,434.388,179.411,433.792,179.066Z" transform="translate(-383.769 -120.595)" fill="#24126a"/>
                  <path id="Path_866" data-name="Path 866" d="M439.846,182.563l-7.413-4.28a2.476,2.476,0,0,0-2.251.062l-2.286,1.336c-.647.379-.69.963-.094,1.306l7.413,4.282a2.481,2.481,0,0,0,2.251-.064l2.286-1.336C440.4,183.492,440.442,182.905,439.846,182.563Z" transform="translate(-378.478 -117.54)" fill="#24126a"/>
                  <path id="Path_867" data-name="Path 867" d="M473.647,202.078l-7.415-4.282a2.478,2.478,0,0,0-2.249.064L461.7,199.2c-.648.377-.69.963-.1,1.306l7.415,4.28a2.476,2.476,0,0,0,2.251-.062l2.286-1.336C474.2,203.005,474.243,202.421,473.647,202.078Z" transform="translate(-348.939 -100.486)" fill="#24126a"/>
                  <path id="Path_868" data-name="Path 868" d="M479.7,205.573l-7.413-4.28a2.476,2.476,0,0,0-2.251.062l-2.286,1.336c-.647.379-.69.963-.094,1.306l7.413,4.282a2.487,2.487,0,0,0,2.251-.062l2.286-1.336C480.255,206.5,480.3,205.917,479.7,205.573Z" transform="translate(-343.648 -97.431)" fill="#24126a"/>
                  <path id="Path_869" data-name="Path 869" d="M485.757,209.069l-7.415-4.282a2.477,2.477,0,0,0-2.249.064l-2.288,1.336c-.647.377-.69.963-.094,1.306l7.415,4.28a2.472,2.472,0,0,0,2.249-.062l2.286-1.336C486.309,210,486.351,209.412,485.757,209.069Z" transform="translate(-338.357 -94.376)" fill="#24126a"/>
                  <path id="Path_870" data-name="Path 870" d="M491.81,212.564l-7.413-4.28a2.475,2.475,0,0,0-2.251.062l-2.286,1.336c-.648.379-.69.963-.1,1.306l7.415,4.282a2.482,2.482,0,0,0,2.251-.064l2.286-1.334C492.363,213.493,492.406,212.908,491.81,212.564Z" transform="translate(-333.066 -91.322)" fill="#24126a"/>
                  <path id="Path_871" data-name="Path 871" d="M446.144,178.115l-7.413-4.282a2.481,2.481,0,0,0-2.251.064l-6.917,4.04c-.648.379-.69.963-.094,1.308l7.413,4.28a2.487,2.487,0,0,0,2.251-.062l6.917-4.042C446.7,179.042,446.74,178.458,446.144,178.115Z" transform="translate(-377.021 -121.427)" fill="#24126a"/>
                  <path id="Path_872" data-name="Path 872" d="M452.254,181.641l-7.413-4.28a2.487,2.487,0,0,0-2.251.062l-6.917,4.042c-.648.379-.69.963-.094,1.306l7.413,4.282a2.481,2.481,0,0,0,2.251-.064l6.917-4.04C452.807,182.57,452.85,181.986,452.254,181.641Z" transform="translate(-371.681 -118.344)" fill="#24126a"/>
                  <path id="Path_873" data-name="Path 873" d="M458.364,185.17l-7.413-4.28a2.476,2.476,0,0,0-2.251.062l-6.917,4.04c-.647.379-.69.965-.094,1.308l7.413,4.28a2.475,2.475,0,0,0,2.251-.062l6.917-4.042C458.919,186.1,458.96,185.513,458.364,185.17Z" transform="translate(-366.341 -115.262)" fill="#24126a"/>
                  <path id="Path_874" data-name="Path 874" d="M464.474,188.7l-7.413-4.282a2.482,2.482,0,0,0-2.251.064l-6.917,4.04c-.647.379-.69.963-.094,1.308l7.413,4.28a2.487,2.487,0,0,0,2.251-.062L464.38,190C465.029,189.625,465.07,189.041,464.474,188.7Z" transform="translate(-361.001 -112.179)" fill="#24126a"/>
                  <path id="Path_875" data-name="Path 875" d="M470.586,192.224l-7.415-4.28a2.481,2.481,0,0,0-2.251.062L454,192.048c-.646.379-.69.963-.094,1.306l7.413,4.282a2.481,2.481,0,0,0,2.251-.064l6.917-4.04C471.139,193.154,471.18,192.569,470.586,192.224Z" transform="translate(-355.662 -109.096)" fill="#24126a"/>
                  <path id="Path_876" data-name="Path 876" d="M476.7,195.753l-7.415-4.28a2.475,2.475,0,0,0-2.251.062l-6.917,4.04c-.646.379-.69.963-.094,1.308l7.415,4.28a2.472,2.472,0,0,0,2.249-.062l6.917-4.042C477.249,196.682,477.29,196.1,476.7,195.753Z" transform="translate(-350.322 -106.013)" fill="#24126a"/>
                  <path id="Path_877" data-name="Path 877" d="M482.806,199.281,475.391,195a2.478,2.478,0,0,0-2.249.064l-6.919,4.04c-.646.379-.69.963-.094,1.308l7.415,4.28a2.483,2.483,0,0,0,2.249-.062l6.917-4.042C483.359,200.208,483.4,199.624,482.806,199.281Z" transform="translate(-344.983 -102.93)" fill="#24126a"/>
                  <path id="Path_878" data-name="Path 878" d="M488.916,202.808l-7.415-4.28a2.472,2.472,0,0,0-2.249.062l-6.918,4.042c-.647.379-.69.963-.094,1.306l7.415,4.282a2.478,2.478,0,0,0,2.249-.064l6.919-4.04C489.469,203.737,489.51,203.152,488.916,202.808Z" transform="translate(-339.643 -99.848)" fill="#24126a"/>
                  <path id="Path_879" data-name="Path 879" d="M495.026,206.336l-7.415-4.28a2.472,2.472,0,0,0-2.249.062l-6.918,4.04c-.647.379-.688.963-.094,1.308l7.415,4.28a2.472,2.472,0,0,0,2.249-.062l6.918-4.042C495.578,207.265,495.622,206.678,495.026,206.336Z" transform="translate(-334.303 -96.764)" fill="#24126a"/>
                  <path id="Path_880" data-name="Path 880" d="M452.582,162.314l-21.835-12.606a2.481,2.481,0,0,0-2.251.062l-6.917,4.042c-.647.379-.69.963-.094,1.306l21.835,12.608a2.481,2.481,0,0,0,2.251-.064l6.917-4.04C453.136,163.243,453.178,162.659,452.582,162.314Z" transform="translate(-383.998 -142.511)" fill="#24126a"/>
                  <path id="Path_881" data-name="Path 881" d="M527.646,205.654l-21.835-12.608a2.487,2.487,0,0,0-2.251.062l-6.917,4.042c-.647.379-.69.963-.094,1.306l21.835,12.608a2.487,2.487,0,0,0,2.251-.062l6.917-4.042C528.2,206.581,528.242,206,527.646,205.654Z" transform="translate(-318.398 -104.637)" fill="#24126a"/>
                  <path id="Path_882" data-name="Path 882" d="M510.206,187.847l-7.415-4.28a2.476,2.476,0,0,0-2.251.062l-8.24,4.814c-.647.379-.69.963-.094,1.306l7.413,4.282a2.482,2.482,0,0,0,2.251-.064l8.24-4.814C510.759,188.776,510.8,188.189,510.206,187.847Z" transform="translate(-322.193 -112.922)" fill="#24126a"/>
                  <path id="Path_883" data-name="Path 883" d="M467.906,163.425l-11.858-6.845a2.472,2.472,0,0,0-2.249.062l-8.242,4.814c-.647.379-.688.963-.094,1.306l11.858,6.847a2.478,2.478,0,0,0,2.249-.064l8.241-4.814C468.459,164.354,468.5,163.768,467.906,163.425Z" transform="translate(-363.043 -136.507)" fill="#24126a"/>
                  <path id="Path_884" data-name="Path 884" d="M506.389,185.644,494.533,178.8a2.475,2.475,0,0,0-2.25.062l-8.24,4.814c-.647.379-.69.963-.094,1.306l11.856,6.847a2.482,2.482,0,0,0,2.251-.064l8.24-4.814C506.944,186.573,506.985,185.987,506.389,185.644Z" transform="translate(-329.41 -117.089)" fill="#24126a"/>
                  <path id="Path_885" data-name="Path 885" d="M476.722,168.515l-11.858-6.847a2.481,2.481,0,0,0-2.251.064l-8.24,4.814c-.647.377-.69.963-.094,1.306l11.856,6.845a2.476,2.476,0,0,0,2.251-.062l8.24-4.814C477.275,169.443,477.316,168.858,476.722,168.515Z" transform="translate(-355.338 -132.058)" fill="#24126a"/>
                  <path id="Path_886" data-name="Path 886" d="M454.127,167.765l51.551,29.763a2.474,2.474,0,0,0,2.249.032l8.4-4.91c.6-.352.572-.937-.069-1.306l-51.551-29.763Z" transform="translate(-355.105 -131.925)" fill="#24126a"/>
                  <path id="Path_887" data-name="Path 887" d="M513.03,197.049l8.258,4.769a2.036,2.036,0,0,0,1.844-.051L526.5,199.8c.53-.311.566-.791.077-1.072l-8.258-4.769a2.03,2.03,0,0,0-1.844.052l-3.371,1.969C512.576,196.288,512.542,196.768,513.03,197.049Z" transform="translate(-303.93 -103.803)" fill="#24126a"/>
                  <path id="Path_888" data-name="Path 888" d="M506.869,193.492l8.258,4.769a2.039,2.039,0,0,0,1.846-.051l3.369-1.969c.53-.311.566-.791.077-1.072l-8.258-4.767a2.024,2.024,0,0,0-1.844.051l-3.371,1.969C506.415,192.731,506.381,193.21,506.869,193.492Z" transform="translate(-309.314 -106.911)" fill="#24126a"/>
                  <path id="Path_889" data-name="Path 889" d="M500.758,189.965l8.258,4.767a2.029,2.029,0,0,0,1.844-.051l3.371-1.969c.53-.309.566-.789.077-1.072l-8.258-4.767a2.035,2.035,0,0,0-1.844.051l-3.371,1.969C500.305,189.2,500.271,189.682,500.758,189.965Z" transform="translate(-314.654 -109.994)" fill="#24126a"/>
                  <path id="Path_890" data-name="Path 890" d="M503.692,195.349l8.258,4.767a2.035,2.035,0,0,0,1.844-.051l3.371-1.969c.53-.311.566-.789.077-1.072l-8.258-4.767a2.03,2.03,0,0,0-1.844.051l-3.371,1.969C503.238,194.586,503.2,195.066,503.692,195.349Z" transform="translate(-312.09 -105.289)" fill="#24126a"/>
                </g>
              </g>
            </g>
          </g>
        </g>
        <g id="Group_786" data-name="Group 786" transform="translate(100.749 215.041)" opacity="0.8">
          <path id="Path_892" data-name="Path 892" d="M354.042,202.4l-7.342-4.241c-.59-.339-.515-.935.165-1.327l8.667-5a2.555,2.555,0,0,1,2.3-.1l7.342,4.239c.59.339.515.935-.165,1.329l-8.667,5A2.561,2.561,0,0,1,354.042,202.4Z" transform="translate(-346.301 -162.539)" fill="#24126a"/>
          <path id="Path_893" data-name="Path 893" d="M360.094,205.894l-7.344-4.239c-.588-.341-.515-.935.165-1.329l8.667-5a2.561,2.561,0,0,1,2.3-.1l7.342,4.241c.59.339.515.933-.165,1.327l-8.667,5A2.551,2.551,0,0,1,360.094,205.894Z" transform="translate(-341.013 -159.486)" fill="#24126a"/>
          <path id="Path_894" data-name="Path 894" d="M366.145,209.389,358.8,205.15c-.588-.341-.515-.935.167-1.329l8.667-5a2.551,2.551,0,0,1,2.3-.1l7.342,4.239c.59.341.517.935-.165,1.329l-8.667,5A2.551,2.551,0,0,1,366.145,209.389Z" transform="translate(-335.725 -156.433)" fill="#24126a"/>
          <path id="Path_895" data-name="Path 895" d="M374.514,206.129l-7.342-4.239c-.59-.341-.517-.935.165-1.329l7.274-4.2a2.567,2.567,0,0,1,2.3-.1l7.342,4.241c.59.339.515.935-.165,1.327l-7.276,4.2A2.557,2.557,0,0,1,374.514,206.129Z" transform="translate(-328.411 -158.579)" fill="#24126a"/>
          <path id="Path_896" data-name="Path 896" d="M380.565,209.622l-7.342-4.239c-.59-.339-.515-.935.165-1.327l7.275-4.2a2.555,2.555,0,0,1,2.3-.1L390.305,204c.59.341.515.935-.165,1.329l-7.275,4.2A2.561,2.561,0,0,1,380.565,209.622Z" transform="translate(-323.123 -155.527)" fill="#24126a"/>
          <path id="Path_897" data-name="Path 897" d="M386.616,213.116l-7.342-4.239c-.59-.341-.515-.935.165-1.329l7.276-4.2a2.551,2.551,0,0,1,2.3-.1l7.342,4.239c.59.341.517.935-.165,1.329l-7.275,4.2A2.555,2.555,0,0,1,386.616,213.116Z" transform="translate(-317.835 -152.473)" fill="#24126a"/>
          <path id="Path_898" data-name="Path 898" d="M392.668,216.61l-7.344-4.241c-.588-.339-.515-.933.165-1.327l7.276-4.2a2.563,2.563,0,0,1,2.3-.1l7.344,4.241c.588.339.515.935-.167,1.327l-7.274,4.2A2.557,2.557,0,0,1,392.668,216.61Z" transform="translate(-312.546 -149.42)" fill="#24126a"/>
          <path id="Path_899" data-name="Path 899" d="M398.719,220.1l-7.344-4.239c-.588-.341-.515-.935.165-1.329l7.276-4.2a2.551,2.551,0,0,1,2.3-.1l7.344,4.239c.588.341.515.935-.165,1.329l-7.276,4.2A2.557,2.557,0,0,1,398.719,220.1Z" transform="translate(-307.258 -146.367)" fill="#24126a"/>
          <path id="Path_900" data-name="Path 900" d="M404.77,223.6l-7.342-4.239c-.59-.341-.517-.935.165-1.329l7.275-4.2a2.555,2.555,0,0,1,2.3-.1l7.342,4.239c.59.341.515.935-.165,1.329l-7.276,4.2A2.551,2.551,0,0,1,404.77,223.6Z" transform="translate(-301.97 -143.314)" fill="#24126a"/>
          <path id="Path_901" data-name="Path 901" d="M410.821,227.091l-7.342-4.241c-.59-.339-.515-.933.165-1.327l7.275-4.2a2.561,2.561,0,0,1,2.3-.1l7.342,4.241c.59.339.515.935-.165,1.327l-7.275,4.2A2.561,2.561,0,0,1,410.821,227.091Z" transform="translate(-296.681 -140.261)" fill="#24126a"/>
          <path id="Path_902" data-name="Path 902" d="M416.872,230.584l-7.342-4.239c-.59-.341-.515-.935.165-1.329l7.275-4.2a2.555,2.555,0,0,1,2.3-.1l7.342,4.239c.59.341.515.935-.165,1.329l-7.275,4.2A2.555,2.555,0,0,1,416.872,230.584Z" transform="translate(-291.393 -137.208)" fill="#24126a"/>
          <path id="Path_903" data-name="Path 903" d="M422.923,234.078l-7.342-4.239c-.59-.341-.515-.935.165-1.329l7.276-4.2a2.551,2.551,0,0,1,2.3-.1l7.344,4.239c.588.341.515.935-.167,1.329l-7.275,4.2A2.555,2.555,0,0,1,422.923,234.078Z" transform="translate(-286.105 -134.154)" fill="#24126a"/>
          <path id="Path_904" data-name="Path 904" d="M428.975,237.572l-7.344-4.241c-.588-.339-.515-.935.165-1.327l7.276-4.2a2.557,2.557,0,0,1,2.3-.1l7.344,4.241c.589.339.515.935-.165,1.327l-7.276,4.2A2.557,2.557,0,0,1,428.975,237.572Z" transform="translate(-280.817 -131.101)" fill="#24126a"/>
          <path id="Path_905" data-name="Path 905" d="M383.43,204.475l-7.342-4.241c-.59-.339-.517-.933.165-1.327l7.275-4.2a2.567,2.567,0,0,1,2.3-.1l7.342,4.241c.59.339.515.935-.165,1.327l-7.276,4.2A2.557,2.557,0,0,1,383.43,204.475Z" transform="translate(-320.619 -160.025)" fill="#24126a"/>
          <path id="Path_906" data-name="Path 906" d="M377.29,200.929l-7.344-4.239c-.59-.341-.515-.935.165-1.329l7.276-4.2a2.557,2.557,0,0,1,2.3-.094l7.344,4.239c.588.341.515.935-.167,1.329l-7.275,4.2A2.551,2.551,0,0,1,377.29,200.929Z" transform="translate(-325.986 -163.124)" fill="#24126a"/>
          <path id="Path_907" data-name="Path 907" d="M375.088,199.658l-15.814-9.13c-.59-.341-.515-.935.165-1.329l7.275-4.2a2.555,2.555,0,0,1,2.3-.1l15.814,9.13c.59.341.515.935-.165,1.329l-7.276,4.2A2.551,2.551,0,0,1,375.088,199.658Z" transform="translate(-335.313 -168.509)" fill="#24126a"/>
          <path id="Path_908" data-name="Path 908" d="M378,194.536l-12.834-7.409c-.588-.341-.515-.935.165-1.329l7.276-4.2a2.551,2.551,0,0,1,2.3-.1l12.834,7.409c.59.341.515.935-.165,1.329l-7.276,4.2A2.551,2.551,0,0,1,378,194.536Z" transform="translate(-330.165 -171.481)" fill="#24126a"/>
          <path id="Path_909" data-name="Path 909" d="M389.481,207.968l-7.342-4.239c-.59-.341-.515-.935.165-1.329l7.275-4.2a2.555,2.555,0,0,1,2.3-.1l7.342,4.239c.59.341.515.935-.165,1.329l-7.275,4.2A2.561,2.561,0,0,1,389.481,207.968Z" transform="translate(-315.331 -156.972)" fill="#24126a"/>
          <path id="Path_910" data-name="Path 910" d="M395.532,211.462l-7.342-4.239c-.59-.341-.515-.935.165-1.329l7.276-4.2a2.551,2.551,0,0,1,2.3-.1l7.342,4.239c.59.341.517.935-.165,1.329l-7.275,4.2A2.555,2.555,0,0,1,395.532,211.462Z" transform="translate(-310.043 -153.919)" fill="#24126a"/>
          <path id="Path_911" data-name="Path 911" d="M401.584,214.956l-7.344-4.241c-.588-.339-.515-.933.165-1.327l7.276-4.2a2.557,2.557,0,0,1,2.3-.1l7.344,4.241c.588.339.515.935-.167,1.327l-7.275,4.2A2.557,2.557,0,0,1,401.584,214.956Z" transform="translate(-304.754 -150.866)" fill="#24126a"/>
          <path id="Path_912" data-name="Path 912" d="M407.635,218.449l-7.344-4.239c-.588-.341-.515-.935.165-1.329l7.276-4.2a2.551,2.551,0,0,1,2.3-.1l7.344,4.239c.588.341.515.935-.165,1.329l-7.276,4.2A2.557,2.557,0,0,1,407.635,218.449Z" transform="translate(-299.466 -147.813)" fill="#24126a"/>
          <path id="Path_913" data-name="Path 913" d="M413.686,221.943l-7.342-4.239c-.59-.341-.517-.935.165-1.329l7.275-4.2a2.555,2.555,0,0,1,2.3-.1l7.342,4.239c.59.341.515.935-.165,1.329l-7.276,4.2A2.551,2.551,0,0,1,413.686,221.943Z" transform="translate(-294.178 -144.759)" fill="#24126a"/>
          <path id="Path_914" data-name="Path 914" d="M419.737,225.437l-7.342-4.241c-.59-.339-.515-.935.165-1.327l7.275-4.2a2.561,2.561,0,0,1,2.3-.1l7.342,4.241c.59.339.515.935-.165,1.327l-7.274,4.2A2.561,2.561,0,0,1,419.737,225.437Z" transform="translate(-288.89 -141.706)" fill="#24126a"/>
          <path id="Path_915" data-name="Path 915" d="M425.788,228.93l-7.342-4.239c-.59-.341-.515-.935.165-1.329l7.276-4.2a2.551,2.551,0,0,1,2.3-.1l7.342,4.239c.59.341.517.935-.165,1.329l-7.275,4.2A2.555,2.555,0,0,1,425.788,228.93Z" transform="translate(-283.601 -138.653)" fill="#24126a"/>
          <path id="Path_916" data-name="Path 916" d="M431.841,232.424l-7.344-4.239c-.59-.341-.515-.935.165-1.329l7.276-4.2a2.551,2.551,0,0,1,2.3-.1l7.344,4.239c.588.341.515.935-.167,1.329l-7.274,4.2A2.551,2.551,0,0,1,431.841,232.424Z" transform="translate(-278.313 -135.6)" fill="#24126a"/>
          <path id="Path_917" data-name="Path 917" d="M437.891,235.918l-7.344-4.241c-.588-.339-.515-.935.165-1.327l7.276-4.2a2.557,2.557,0,0,1,2.3-.1l7.344,4.241c.588.339.515.933-.165,1.327l-7.276,4.2A2.557,2.557,0,0,1,437.891,235.918Z" transform="translate(-273.025 -132.547)" fill="#24126a"/>
          <path id="Path_918" data-name="Path 918" d="M452.695,244.466l-16.02-9.252c-.59-.339-.515-.933.165-1.327l7.275-4.2a2.567,2.567,0,0,1,2.3-.1l16.02,9.252c.59.339.517.933-.165,1.327L455,244.37A2.561,2.561,0,0,1,452.695,244.466Z" transform="translate(-267.671 -129.455)" fill="#24126a"/>
          <path id="Path_919" data-name="Path 919" d="M463.311,236.991l-13.522-7.807c-.59-.341-.515-.935.165-1.329l7.276-4.2a2.557,2.557,0,0,1,2.3-.094l13.522,7.807c.59.339.515.935-.165,1.327l-7.275,4.2A2.555,2.555,0,0,1,463.311,236.991Z" transform="translate(-256.21 -134.727)" fill="#24126a"/>
          <path id="Path_920" data-name="Path 920" d="M400.078,207.285l-7.342-4.239c-.59-.341-.515-.935.165-1.329l7.275-4.2a2.567,2.567,0,0,1,2.3-.1l7.342,4.241c.59.339.515.935-.165,1.327l-7.275,4.2A2.561,2.561,0,0,1,400.078,207.285Z" transform="translate(-306.07 -157.569)" fill="#24126a"/>
          <path id="Path_921" data-name="Path 921" d="M393.876,203.7l-7.342-4.239c-.59-.341-.515-.935.165-1.329l7.276-4.2a2.551,2.551,0,0,1,2.3-.1l7.342,4.239c.59.341.517.935-.165,1.329l-7.275,4.2A2.555,2.555,0,0,1,393.876,203.7Z" transform="translate(-311.49 -160.698)" fill="#24126a"/>
          <path id="Path_922" data-name="Path 922" d="M387.675,200.124l-7.344-4.241c-.588-.339-.515-.933.165-1.327l7.276-4.2a2.557,2.557,0,0,1,2.3-.1l7.344,4.241c.588.339.515.935-.165,1.327l-7.276,4.2A2.557,2.557,0,0,1,387.675,200.124Z" transform="translate(-316.91 -163.828)" fill="#24126a"/>
          <path id="Path_923" data-name="Path 923" d="M381.473,196.543l-7.342-4.239c-.59-.341-.517-.935.165-1.329l7.275-4.2a2.555,2.555,0,0,1,2.3-.1l7.342,4.239c.59.341.515.935-.165,1.329l-7.276,4.2A2.551,2.551,0,0,1,381.473,196.543Z" transform="translate(-322.329 -166.957)" fill="#24126a"/>
          <path id="Path_924" data-name="Path 924" d="M406.129,210.78l-7.342-4.241c-.59-.339-.515-.935.165-1.327l7.276-4.2a2.551,2.551,0,0,1,2.3-.1l7.342,4.239c.59.341.517.935-.165,1.329l-7.275,4.2A2.567,2.567,0,0,1,406.129,210.78Z" transform="translate(-300.782 -154.516)" fill="#24126a"/>
          <path id="Path_925" data-name="Path 925" d="M412.182,214.272l-7.344-4.239c-.59-.341-.515-.935.165-1.329l7.276-4.2a2.551,2.551,0,0,1,2.3-.1l7.344,4.239c.588.341.515.935-.167,1.329l-7.275,4.2A2.551,2.551,0,0,1,412.182,214.272Z" transform="translate(-295.494 -151.463)" fill="#24126a"/>
          <path id="Path_926" data-name="Path 926" d="M418.232,217.766l-7.344-4.239c-.588-.341-.515-.935.165-1.329l7.276-4.2a2.563,2.563,0,0,1,2.3-.1l7.344,4.241c.588.339.515.935-.165,1.327l-7.276,4.2A2.557,2.557,0,0,1,418.232,217.766Z" transform="translate(-290.205 -148.41)" fill="#24126a"/>
          <path id="Path_927" data-name="Path 927" d="M424.283,221.259l-7.344-4.239c-.588-.339-.515-.935.167-1.327l7.275-4.2a2.555,2.555,0,0,1,2.3-.1l7.342,4.239c.59.341.515.935-.165,1.329l-7.276,4.2A2.557,2.557,0,0,1,424.283,221.259Z" transform="translate(-284.917 -145.357)" fill="#24126a"/>
          <path id="Path_928" data-name="Path 928" d="M430.334,224.753l-7.342-4.239c-.59-.341-.515-.935.165-1.329l7.275-4.2a2.555,2.555,0,0,1,2.3-.1l7.342,4.239c.59.341.515.935-.165,1.329l-7.275,4.2A2.555,2.555,0,0,1,430.334,224.753Z" transform="translate(-279.629 -142.303)" fill="#24126a"/>
          <path id="Path_929" data-name="Path 929" d="M436.385,228.247l-7.342-4.241c-.59-.339-.515-.933.165-1.327l7.275-4.2a2.567,2.567,0,0,1,2.3-.1l7.342,4.241c.59.339.515.935-.165,1.327l-7.275,4.2A2.561,2.561,0,0,1,436.385,228.247Z" transform="translate(-274.341 -139.25)" fill="#24126a"/>
          <path id="Path_930" data-name="Path 930" d="M442.436,231.74l-7.342-4.239c-.59-.339-.515-.935.165-1.327l7.276-4.2a2.551,2.551,0,0,1,2.3-.1l7.342,4.239c.59.341.517.935-.165,1.329l-7.275,4.2A2.561,2.561,0,0,1,442.436,231.74Z" transform="translate(-269.053 -136.197)" fill="#24126a"/>
          <path id="Path_931" data-name="Path 931" d="M448.488,235.234l-7.344-4.239c-.589-.341-.515-.935.165-1.329l7.276-4.2a2.551,2.551,0,0,1,2.3-.1l7.344,4.239c.588.341.515.935-.165,1.329l-7.276,4.2A2.551,2.551,0,0,1,448.488,235.234Z" transform="translate(-263.764 -133.144)" fill="#24126a"/>
          <path id="Path_932" data-name="Path 932" d="M454.539,238.728l-7.344-4.241c-.588-.339-.515-.933.167-1.327l7.275-4.2a2.563,2.563,0,0,1,2.3-.1l7.344,4.241c.588.339.515.935-.165,1.327l-7.276,4.2A2.557,2.557,0,0,1,454.539,238.728Z" transform="translate(-258.476 -130.091)" fill="#24126a"/>
          <path id="Path_933" data-name="Path 933" d="M396.892,198.645l-7.344-4.241c-.588-.339-.515-.935.167-1.327l7.275-4.2a2.551,2.551,0,0,1,2.3-.1l7.344,4.239c.588.341.515.935-.165,1.329l-7.276,4.2A2.563,2.563,0,0,1,396.892,198.645Z" transform="translate(-308.855 -165.121)" fill="#24126a"/>
          <path id="Path_934" data-name="Path 934" d="M390.871,195.167l-7.344-4.239c-.588-.341-.515-.935.165-1.329l7.276-4.2a2.551,2.551,0,0,1,2.3-.1l7.344,4.239c.588.341.515.935-.165,1.329l-7.276,4.2A2.551,2.551,0,0,1,390.871,195.167Z" transform="translate(-314.117 -168.159)" fill="#24126a"/>
          <path id="Path_935" data-name="Path 935" d="M384.85,191.691l-7.344-4.239c-.588-.341-.515-.935.165-1.329l7.276-4.2a2.557,2.557,0,0,1,2.3-.094l7.344,4.239c.589.341.515.935-.165,1.329l-7.276,4.2A2.551,2.551,0,0,1,384.85,191.691Z" transform="translate(-319.378 -171.197)" fill="#24126a"/>
          <path id="Path_936" data-name="Path 936" d="M378.829,188.215l-7.344-4.241c-.588-.339-.515-.935.165-1.327l7.276-4.2a2.557,2.557,0,0,1,2.3-.1l7.344,4.241c.588.339.515.935-.167,1.327l-7.274,4.2A2.557,2.557,0,0,1,378.829,188.215Z" transform="translate(-324.64 -174.235)" fill="#24126a"/>
          <path id="Path_937" data-name="Path 937" d="M385.02,183.329l-7.342-4.239c-.59-.341-.517-.935.165-1.329l2.4-1.389a2.561,2.561,0,0,1,2.3-.1l7.342,4.239c.59.341.515.935-.165,1.329l-2.406,1.389A2.551,2.551,0,0,1,385.02,183.329Z" transform="translate(-319.23 -176.048)" fill="#24126a"/>
          <path id="Path_938" data-name="Path 938" d="M392.878,187.866l-7.344-4.241c-.588-.339-.515-.935.165-1.327l2.406-1.389a2.551,2.551,0,0,1,2.3-.1l7.344,4.239c.588.341.515.935-.167,1.329l-2.4,1.389A2.563,2.563,0,0,1,392.878,187.866Z" transform="translate(-312.363 -172.083)" fill="#24126a"/>
          <path id="Path_939" data-name="Path 939" d="M398.874,191.326l-7.344-4.239c-.588-.341-.515-.935.165-1.329l2.406-1.389a2.557,2.557,0,0,1,2.3-.094l7.344,4.239c.588.339.515.935-.167,1.327l-2.4,1.389A2.551,2.551,0,0,1,398.874,191.326Z" transform="translate(-307.123 -169.058)" fill="#24126a"/>
          <path id="Path_940" data-name="Path 940" d="M404.87,194.789l-7.344-4.239c-.588-.341-.515-.935.165-1.329l2.406-1.389a2.557,2.557,0,0,1,2.3-.1l7.344,4.241c.588.339.515.935-.167,1.327l-2.4,1.389A2.551,2.551,0,0,1,404.87,194.789Z" transform="translate(-301.883 -166.033)" fill="#24126a"/>
          <path id="Path_941" data-name="Path 941" d="M410.866,198.251l-7.344-4.239c-.588-.341-.515-.935.165-1.329l2.406-1.389a2.551,2.551,0,0,1,2.3-.1l7.344,4.239c.588.341.515.935-.167,1.329l-2.4,1.389A2.551,2.551,0,0,1,410.866,198.251Z" transform="translate(-296.643 -163.007)" fill="#24126a"/>
          <path id="Path_942" data-name="Path 942" d="M444.34,217.578,437,213.337c-.59-.339-.515-.935.165-1.327l2.4-1.389a2.555,2.555,0,0,1,2.3-.1l7.342,4.239c.59.341.515.935-.165,1.329l-2.4,1.389A2.567,2.567,0,0,1,444.34,217.578Z" transform="translate(-267.389 -146.117)" fill="#24126a"/>
          <path id="Path_943" data-name="Path 943" d="M450.336,221.038l-7.342-4.239c-.59-.341-.515-.935.165-1.329l2.4-1.389a2.561,2.561,0,0,1,2.3-.094l7.342,4.239c.59.339.515.935-.165,1.327l-2.4,1.389A2.555,2.555,0,0,1,450.336,221.038Z" transform="translate(-262.149 -143.092)" fill="#24126a"/>
          <path id="Path_944" data-name="Path 944" d="M456.332,224.5l-7.342-4.239c-.59-.341-.515-.935.165-1.329l2.4-1.389a2.561,2.561,0,0,1,2.3-.1l7.342,4.241c.59.339.515.935-.165,1.327l-2.4,1.389A2.555,2.555,0,0,1,456.332,224.5Z" transform="translate(-256.909 -140.067)" fill="#24126a"/>
          <path id="Path_945" data-name="Path 945" d="M462.328,227.963l-7.342-4.239c-.59-.341-.515-.935.165-1.329l2.4-1.389a2.555,2.555,0,0,1,2.3-.1l7.342,4.239c.59.341.515.935-.165,1.329l-2.4,1.389A2.555,2.555,0,0,1,462.328,227.963Z" transform="translate(-251.669 -137.042)" fill="#24126a"/>
          <path id="Path_946" data-name="Path 946" d="M402.943,202.137,395.6,197.9c-.59-.341-.517-.935.165-1.329l7.275-4.2a2.555,2.555,0,0,1,2.3-.1l7.342,4.239c.59.341.515.935-.165,1.329l-7.276,4.2A2.551,2.551,0,0,1,402.943,202.137Z" transform="translate(-303.566 -162.068)" fill="#24126a"/>
          <path id="Path_947" data-name="Path 947" d="M408.994,205.631l-7.342-4.239c-.59-.341-.515-.935.165-1.329l7.275-4.2a2.567,2.567,0,0,1,2.3-.1l7.342,4.241c.59.339.515.935-.165,1.327l-7.274,4.2A2.561,2.561,0,0,1,408.994,205.631Z" transform="translate(-298.278 -159.015)" fill="#24126a"/>
          <path id="Path_948" data-name="Path 948" d="M415.045,209.124l-7.342-4.239c-.59-.339-.515-.935.165-1.327l7.276-4.2a2.551,2.551,0,0,1,2.3-.1l7.342,4.239c.59.341.517.935-.165,1.329l-7.275,4.2A2.561,2.561,0,0,1,415.045,209.124Z" transform="translate(-292.99 -155.962)" fill="#24126a"/>
          <path id="Path_949" data-name="Path 949" d="M421.1,212.618l-7.344-4.239c-.588-.341-.515-.935.165-1.329l7.276-4.2a2.551,2.551,0,0,1,2.3-.1l7.344,4.239c.588.341.515.935-.167,1.329l-7.275,4.2A2.551,2.551,0,0,1,421.1,212.618Z" transform="translate(-287.702 -152.908)" fill="#24126a"/>
          <path id="Path_950" data-name="Path 950" d="M427.148,216.112l-7.344-4.239c-.588-.341-.515-.935.165-1.329l7.276-4.2a2.563,2.563,0,0,1,2.3-.1l7.344,4.241c.588.339.515.935-.165,1.327l-7.276,4.2A2.557,2.557,0,0,1,427.148,216.112Z" transform="translate(-282.414 -149.855)" fill="#24126a"/>
          <path id="Path_951" data-name="Path 951" d="M433.2,219.6l-7.342-4.239c-.59-.339-.517-.935.165-1.329l7.275-4.2a2.555,2.555,0,0,1,2.3-.1l7.342,4.239c.59.341.515.935-.165,1.329l-7.276,4.2A2.556,2.556,0,0,1,433.2,219.6Z" transform="translate(-277.125 -146.802)" fill="#24126a"/>
          <path id="Path_952" data-name="Path 952" d="M439.25,223.1l-7.342-4.239c-.59-.341-.515-.935.165-1.329l7.275-4.2a2.556,2.556,0,0,1,2.3-.1l7.342,4.239c.59.341.515.935-.165,1.329l-7.275,4.2A2.555,2.555,0,0,1,439.25,223.1Z" transform="translate(-271.837 -143.749)" fill="#24126a"/>
          <path id="Path_953" data-name="Path 953" d="M445.3,226.593l-7.342-4.241c-.59-.339-.515-.933.165-1.327l7.276-4.2a2.563,2.563,0,0,1,2.3-.1l7.342,4.241c.59.339.517.935-.165,1.327l-7.274,4.2A2.561,2.561,0,0,1,445.3,226.593Z" transform="translate(-266.549 -140.696)" fill="#24126a"/>
          <path id="Path_954" data-name="Path 954" d="M451.352,230.086l-7.342-4.239c-.59-.341-.515-.935.165-1.329l7.276-4.2a2.551,2.551,0,0,1,2.3-.1l7.344,4.239c.588.341.515.935-.167,1.329l-7.274,4.2A2.56,2.56,0,0,1,451.352,230.086Z" transform="translate(-261.261 -137.643)" fill="#24126a"/>
          <path id="Path_955" data-name="Path 955" d="M375.007,206.415l-21.625-12.486c-.588-.341-.515-.935.165-1.329l7.276-4.2a2.551,2.551,0,0,1,2.3-.1l21.625,12.484c.59.341.517.935-.165,1.329l-7.275,4.2A2.567,2.567,0,0,1,375.007,206.415Z" transform="translate(-340.461 -165.536)" fill="#24126a"/>
          <path id="Path_956" data-name="Path 956" d="M449.349,249.335l-21.625-12.486c-.59-.339-.517-.935.165-1.327l7.275-4.2a2.555,2.555,0,0,1,2.3-.1l21.625,12.486c.588.339.515.935-.165,1.327l-7.276,4.2A2.551,2.551,0,0,1,449.349,249.335Z" transform="translate(-275.494 -128.028)" fill="#24126a"/>
          <path id="Path_957" data-name="Path 957" d="M418.488,239.608l-7.342-4.239c-.59-.341-.515-.935.165-1.329l8.667-5a2.557,2.557,0,0,1,2.3-.1l7.344,4.241c.588.339.515.933-.165,1.327l-8.667,5.005A2.561,2.561,0,0,1,418.488,239.608Z" transform="translate(-289.981 -130.023)" fill="#24126a"/>
          <path id="Path_958" data-name="Path 958" d="M376.6,215.422l-11.742-6.78c-.59-.339-.517-.935.165-1.327l8.667-5.005a2.557,2.557,0,0,1,2.3-.094L387.729,209c.59.339.515.933-.165,1.327l-8.667,5.005A2.561,2.561,0,0,1,376.6,215.422Z" transform="translate(-330.437 -153.38)" fill="#24126a"/>
          <path id="Path_959" data-name="Path 959" d="M414.711,237.427l-11.744-6.78c-.59-.339-.515-.935.165-1.327l8.667-5.005a2.561,2.561,0,0,1,2.3-.1L425.842,231c.59.341.515.935-.165,1.329l-8.667,5A2.551,2.551,0,0,1,414.711,237.427Z" transform="translate(-297.129 -134.149)" fill="#24126a"/>
          <path id="Path_960" data-name="Path 960" d="M385.327,220.464l-11.744-6.78c-.588-.341-.515-.935.165-1.329l8.667-5a2.555,2.555,0,0,1,2.3-.1l11.742,6.78c.59.341.517.935-.165,1.329l-8.667,5A2.551,2.551,0,0,1,385.327,220.464Z" transform="translate(-322.807 -148.975)" fill="#24126a"/>
          <path id="Path_961" data-name="Path 961" d="M384.572,207.174l51.057,29.477a.7.7,0,0,1,0,1.325l-8.839,5.1a2.537,2.537,0,0,1-2.294,0L373.441,213.6Z" transform="translate(-322.584 -148.846)" fill="#24126a"/>
          <path id="Path_962" data-name="Path 962" d="M434.538,240.95l8.18,4.722c.483.279.422.766-.135,1.089l-3.545,2.046a2.094,2.094,0,0,1-1.885.079l-8.18-4.722c-.483-.279-.424-.766.135-1.089l3.545-2.048A2.1,2.1,0,0,1,434.538,240.95Z" transform="translate(-274.34 -119.493)" fill="#24126a"/>
          <path id="Path_963" data-name="Path 963" d="M428.437,237.427l8.18,4.722c.482.279.422.766-.137,1.089l-3.545,2.046a2.094,2.094,0,0,1-1.885.079l-8.178-4.722c-.483-.279-.423-.766.135-1.089l3.546-2.046A2.094,2.094,0,0,1,428.437,237.427Z" transform="translate(-279.671 -122.572)" fill="#24126a"/>
          <path id="Path_964" data-name="Path 964" d="M422.386,233.932l8.178,4.722c.483.279.423.766-.135,1.089l-3.545,2.048a2.094,2.094,0,0,1-1.885.077l-8.18-4.722c-.483-.277-.422-.766.137-1.087l3.546-2.048A2.1,2.1,0,0,1,422.386,233.932Z" transform="translate(-284.96 -125.625)" fill="#24126a"/>
          <path id="Path_965" data-name="Path 965" d="M431.778,235.5l8.18,4.722c.484.279.424.766-.135,1.089l-3.545,2.046a2.094,2.094,0,0,1-1.885.079l-8.18-4.722c-.483-.279-.422-.766.135-1.089l3.545-2.046A2.094,2.094,0,0,1,431.778,235.5Z" transform="translate(-276.751 -124.258)" fill="#24126a"/>
        </g>
      </g>
      <g id="Group_788" data-name="Group 788" transform="translate(367.264 142.273)">
        <path id="Path_966" data-name="Path 966" d="M492.721,144.794a3.434,3.434,0,0,1-1.709-.491,5.013,5.013,0,0,1-2.4-5.06,2.528,2.528,0,0,1,1.439-1.825,3.033,3.033,0,0,1,2.719.289,5.005,5.005,0,0,1,2.4,5.058h0a2.449,2.449,0,0,1-2.447,2.029ZM491.062,138a1.728,1.728,0,0,0-.7.139,1.769,1.769,0,0,0-.987,1.282,4.182,4.182,0,0,0,2.028,4.2,2.276,2.276,0,0,0,2.013.247,1.774,1.774,0,0,0,.986-1.284,4.18,4.18,0,0,0-2.024-4.2A2.674,2.674,0,0,0,491.062,138Z" transform="translate(-488.525 -137.216)" fill="#42e8e0"/>
        <path id="Path_967" data-name="Path 967" d="M497.709,147.676a3.438,3.438,0,0,1-1.709-.491,5.009,5.009,0,0,1-2.4-5.06,2.528,2.528,0,0,1,1.437-1.827,3.04,3.04,0,0,1,2.719.289,5.014,5.014,0,0,1,2.4,5.06h0a2.455,2.455,0,0,1-2.449,2.029Zm-1.658-6.795a1.671,1.671,0,0,0-1.683,1.422,4.179,4.179,0,0,0,2.026,4.2,2.264,2.264,0,0,0,2.013.247,1.769,1.769,0,0,0,.986-1.284,4.181,4.181,0,0,0-2.026-4.2A2.668,2.668,0,0,0,496.051,140.881Z" transform="translate(-484.164 -134.699)" fill="#42e8e0"/>
        <path id="Path_968" data-name="Path 968" d="M504.583,148.255c-.378,1.634-1.981,2.209-3.579,1.287a4.591,4.591,0,0,1-2.211-4.63c.379-1.634,1.981-2.209,3.579-1.287A4.591,4.591,0,0,1,504.583,148.255Z" transform="translate(-479.622 -131.999)" fill="#42e8e0"/>
      </g>
      <path id="Path_969" data-name="Path 969" d="M408.51,93.262l-5-2.887.388-2.312,5,2.887Z" transform="translate(-195.558 -37.899)" fill="#42e8e0"/>
      <path id="Path_970" data-name="Path 970" d="M412.389,95.5l-5-2.887.388-2.312,5,2.887Z" transform="translate(-192.168 -35.941)" fill="#42e8e0"/>
      <path id="Path_971" data-name="Path 971" d="M407.453,92.651,396.487,86.32l.388-2.312,10.966,6.331Z" transform="translate(-201.695 -41.442)" fill="#42e8e0"/>
    </g>
    <ellipse id="Ellipse_1" data-name="Ellipse 1" cx="26.31" cy="45.569" rx="26.31" ry="45.569" transform="matrix(0.866, -0.5, 0.5, 0.866, 433.414, 90.865)" fill="#42e8e0" opacity="0.4"/>
    <path id="Path_972" data-name="Path 972" d="M383.707,136.331c-4.482,0-9.448-1.5-14.587-4.467-17.877-10.32-32.421-35.509-32.421-56.15,0-10.084,3.422-17.613,9.634-21.2s14.45-2.781,23.178,2.258c17.877,10.322,32.421,35.511,32.421,56.15,0,10.085-3.422,17.615-9.636,21.2A16.948,16.948,0,0,1,383.707,136.331Zm-28.78-83.239a16.181,16.181,0,0,0-8.2,2.1c-5.959,3.441-9.24,10.728-9.24,20.519,0,20.39,14.367,45.276,32.025,55.47,8.483,4.895,16.432,5.7,22.391,2.258s9.242-10.728,9.242-20.521c0-20.388-14.367-45.272-32.025-55.47C364.1,54.555,359.269,53.092,354.928,53.092Z" transform="translate(109.668 22.856)" fill="#42e8e0"/>
    <path id="Path_973" data-name="Path 973" d="M374.119,141.729c-4.482,0-9.448-1.5-14.587-4.466-17.877-10.322-32.423-35.511-32.423-56.152,0-10.084,3.422-17.613,9.636-21.2s14.446-2.787,23.178,2.258c17.877,10.32,32.421,35.509,32.421,56.15,0,10.084-3.422,17.613-9.636,21.2A16.948,16.948,0,0,1,374.119,141.729ZM345.34,58.49a16.183,16.183,0,0,0-8.2,2.1c-5.961,3.441-9.242,10.726-9.242,20.518,0,20.392,14.367,45.276,32.027,55.47,8.483,4.9,16.434,5.7,22.391,2.258s9.242-10.728,9.242-20.519c0-20.39-14.367-45.274-32.025-55.47C354.514,59.953,349.681,58.49,345.34,58.49Z" transform="translate(101.287 27.573)" fill="#42e8e0"/>
    <g id="Group_798" data-name="Group 798" transform="translate(211.21 100.174)">
      <g id="Group_790" data-name="Group 790" transform="translate(188.483 76.783)">
        <path id="Path_974" data-name="Path 974" d="M333.651,178.412l.009-9.343,10.991-55.708-10.925-6.733-21.859,12.1-.075,71.784c-.006,4.831,1.808,8.1,4.591,9.156v0l9.733,6.1,1.216-4.625,1.662-8.423A26.7,26.7,0,0,0,333.651,178.412Z" transform="translate(-311.792 -106.628)" fill="url(#linear-gradient-9)"/>
        <path id="Path_975" data-name="Path 975" d="M328.538,202.412h0c-6.036,3.341-10.923-.379-10.916-8.307l.075-71.786,21.859-12.1-.073,71.784C339.474,189.934,334.573,199.071,328.538,202.412Z" transform="translate(-306.697 -103.488)" fill="url(#linear-gradient-10)"/>
      </g>
      <path id="Path_976" data-name="Path 976" d="M317.32,133.6l-.388-.223a1.624,1.624,0,0,0-1.765-.082l0-.006-2.5,1.449,1.683.32c-.006.1-.009.191-.009.292l.056,13.843a6.222,6.222,0,0,0,2.59,4.93l-.5,1.887,2.5-1.46,0,0a2.2,2.2,0,0,0,1.008-2.159l-.056-13.843A6.209,6.209,0,0,0,317.32,133.6Z" transform="translate(-122.539 -6.735)" fill="url(#linear-gradient-11)"/>
      <path id="Path_977" data-name="Path 977" d="M317.32,133.6l-.388-.223a1.624,1.624,0,0,0-1.765-.082l0-.006-2.5,1.449,1.683.32c-.006.1-.009.191-.009.292l.056,13.843a6.222,6.222,0,0,0,2.59,4.93l-.5,1.887,2.5-1.46,0,0a2.2,2.2,0,0,0,1.008-2.159l-.056-13.843A6.209,6.209,0,0,0,317.32,133.6Z" transform="translate(-122.539 -6.735)" fill="#0f054c" opacity="0.3"/>
      <g id="Group_791" data-name="Group 791" transform="translate(189.183 127.859)">
        <path id="Path_978" data-name="Path 978" d="M315.224,155.175l-.388-.221a6.209,6.209,0,0,1-2.616-4.947l-.054-13.843c-.009-1.911,1.149-2.794,2.586-1.973l.388.223a6.208,6.208,0,0,1,2.614,4.947l.056,13.843C317.818,155.115,316.66,156,315.224,155.175Z" transform="translate(-312.166 -133.884)" fill="#fff"/>
      </g>
      <g id="Group_792" data-name="Group 792" transform="translate(140.611)">
        <path id="Path_979" data-name="Path 979" d="M333.674,200.787h0c6.036-3.341,10.936-12.478,10.945-20.407l.062-60.022V112.08l-10.445,2.3L324.1,119.994l-2.157-2.652-9.353,3.489-.845,18.983.006.446a11.879,11.879,0,0,0,9.943,11.579l1.108.184-.043,40.458C322.751,200.409,327.638,204.129,333.674,200.787Z" transform="translate(-263.961 -25.081)" fill="#0f054c" opacity="0.3"/>
        <path id="Path_980" data-name="Path 980" d="M395.6,119.616c.5-18.029-11.558-40.3-26.924-49.749-8.2-5.041-15.69-5.406-20.965-1.91l0,0-50.422,27.29,37.375,70.722,51.862-28.133c.2-.1.392-.206.583-.317l.236-.127-.006-.011C392.229,134.436,395.356,128.322,395.6,119.616Z" transform="translate(-276.6 -65.654)" fill="url(#radial-gradient)"/>
        <path id="Path_981" data-name="Path 981" d="M387.921,109.832c.294-10.689-3.823-22.869-10.426-32.983-7.481,4.216-22.618,12.774-51.237,29.023-7.181,4.08-13.919,7.631-20.193,10.728l20.919,39.583,51.862-28.133c.2-.1.392-.206.583-.317l.236-.127-.006-.011C384.554,124.653,387.682,118.538,387.921,109.832Z" transform="translate(-268.925 -55.87)" fill="#0f054c" opacity="0.3"/>
        <ellipse id="Ellipse_2" data-name="Ellipse 2" cx="23.093" cy="39.999" rx="23.093" ry="39.999" transform="translate(0 40.779) rotate(-28.424)" fill="url(#radial-gradient-2)"/>
      </g>
      <g id="Group_797" data-name="Group 797" transform="translate(0 23.954)">
        <path id="Path_982" data-name="Path 982" d="M392.7,136.179c.517-18.732-12.008-41.871-27.972-51.684-7.256-4.458-13.968-5.388-19.185-3.328l-.007-.013-.109.051c-.043.021-.088.039-.133.06-.231.1-.455.2-.678.307-31.086,14.231-59,12.759-93.12,10.49l-9.668-.645L316.9,228.608l4.5-8.131c16.391-29.651,33.612-47.041,62.032-65.447C388.908,152.147,392.44,145.629,392.7,136.179Z" transform="translate(-184.454 -76.962)" fill="url(#linear-gradient-12)"/>
        <path id="Path_983" data-name="Path 983" d="M297.053,209.836c16.391-29.651,33.612-47.043,62.032-65.446,5.483-2.884,9.015-9.4,9.274-18.852.3-10.745-3.7-22.939-10.179-33.238l-.122.069c-47.048,26.716-75.318,31.049-75.318,31.049l-13.063,41.61,4,18.424,18.885,34.512Z" transform="translate(-160.114 -66.321)" fill="#0f054c" opacity="0.3"/>
        <path id="Path_984" data-name="Path 984" d="M338.976,193.369c.989-35.932-23.036-80.324-53.661-99.147-15.272-9.388-29.3-10.644-39.654-5.088v0l-.054.03-.079.043-9.394,5.163,3.249-.587c-6.761,6.667-10.925,17.352-11.313,31.42-.989,35.932,23.036,80.324,53.661,99.147,12.019,7.389,23.267,9.739,32.559,7.7l-1.523,2.114,8.648-4.741.137-.073.309-.171h-.009C331.988,223.47,338.487,211.112,338.976,193.369Z" transform="translate(-196.501 -71.983)" fill="url(#linear-gradient-13)"/>
        <path id="Path_985" data-name="Path 985" d="M332.274,195.324c.989-35.932-23.036-80.324-53.661-99.147-15.066-9.261-28.922-10.6-39.232-5.305l-1.437.791c-.491.292-.971.605-1.445.929l2.884-.521c-6.761,6.667-10.925,17.352-11.313,31.42-.989,35.932,23.036,80.324,53.661,99.147,12.019,7.389,23.267,9.739,32.559,7.7l-1.389,1.926C324.322,227.184,331.752,214.346,332.274,195.324Z" transform="translate(-196.501 -70.273)" fill="#fff"/>
        <ellipse id="Ellipse_3" data-name="Ellipse 3" cx="46.025" cy="79.718" rx="46.025" ry="79.718" transform="translate(0 43.815) rotate(-28.424)" fill="url(#linear-gradient-14)"/>
        <ellipse id="Ellipse_4" data-name="Ellipse 4" cx="40.38" cy="69.941" rx="40.38" ry="69.941" transform="translate(9.618 49.727) rotate(-28.424)" fill="url(#radial-gradient-3)"/>
        <path id="Path_986" data-name="Path 986" d="M282.768,210.6a78,78,0,0,1-11.663-8.867,19.108,19.108,0,0,1-1.265-26.921c8.354-9.229,21.766-21.636,42.264-34.84-8.564-16.393-20.89-30.921-34.774-39.455-11.839-7.276-22.828-8.982-31.491-5.918l-.066.022c-.326.118-.648.24-.967.371l-.163.067q-.441.183-.873.382c-.052.026-.107.051-.161.075-.311.148-.618.3-.922.461l-.062.032q-1,.534-1.958,1.166l-.056.037c-.285.191-.564.388-.841.59l-.165.122q-.365.273-.725.562c-.058.047-.116.094-.174.142q-.371.3-.731.622c-.039.036-.079.071-.12.107q-.852.767-1.647,1.627l-.062.069q-.351.379-.688.78c-.056.066-.112.135-.169.2q-.287.343-.562.7l-.186.24q-.275.363-.54.736c-.052.073-.1.144-.156.219-.214.307-.425.622-.63.943l-.028.041c-.223.349-.438.7-.65,1.066-.022.041-.045.082-.069.124-.176.307-.35.62-.519.937-.054.1-.1.2-.157.3q-.208.4-.407.81c-.058.116-.112.234-.169.352-.127.272-.253.545-.375.825-.051.114-.1.229-.152.345-.137.319-.268.643-.4.971-.03.075-.062.15-.092.225q-.239.618-.459,1.254c-.021.056-.038.114-.058.169q-.186.542-.358,1.1c-.041.133-.082.27-.122.4q-.135.45-.262.907c-.043.156-.086.311-.127.468-.079.3-.156.6-.229.9-.037.157-.077.315-.114.474q-.115.5-.221,1.01c-.026.129-.056.257-.082.386-.094.472-.184.95-.266,1.434l-.028.171q-.107.641-.2,1.295c-.023.161-.043.324-.064.487-.045.337-.088.675-.127,1.018-.022.189-.041.38-.062.57-.034.328-.066.66-.1.991-.017.193-.034.386-.049.581-.028.356-.051.718-.073,1.079-.009.171-.023.339-.03.512-.028.532-.052,1.072-.067,1.617-.024.888-.024,1.786-.015,2.685,0,.322.015.646.021.971.013.6.038,1.2.066,1.8.017.311.032.62.051.933q.065,1.051.159,2.11c.021.223.034.444.056.667q.127,1.318.3,2.646c.045.362.1.725.152,1.087.079.553.161,1.106.251,1.66.067.425.139.849.214,1.274.088.5.184,1,.281,1.5.086.44.167.881.259,1.321q.222,1.06.47,2.118c.15.65.311,1.3.476,1.951.09.358.178.716.274,1.074.152.573.309,1.145.47,1.718.086.3.174.605.264.909q.933,3.2,2.08,6.379c.037.1.073.212.112.317.249.686.508,1.37.77,2.052.067.178.137.352.2.528,8.23,21.059,23.012,40.745,40.164,51.287,14.969,9.2,28.575,9.5,37.844,2.5C303.745,219.252,293.615,217.262,282.768,210.6Z" transform="translate(-197.336 -65.582)" fill="#0f054c" opacity="0.3"/>
        <g id="Group_796" data-name="Group 796" transform="translate(9.618 11.285)">
          <g id="Group_795" data-name="Group 795" clip-path="url(#clip-path-2)">
            <g id="Group_794" data-name="Group 794" transform="translate(59.083 14.398)">
              <path id="Path_987" data-name="Path 987" d="M249.284,146.069,322.543,92.58l18.57,53.649L262.2,170.717Z" transform="translate(-246.637 -91.759)" fill="url(#linear-gradient-15)"/>
              <path id="Path_988" data-name="Path 988" d="M267.309,139.514c-.174,6.3-4.664,8.727-10.029,5.429s-9.576-11.077-9.4-17.371,4.664-8.727,10.031-5.429S267.481,133.219,267.309,139.514Z" transform="translate(-247.871 -67.211)" fill="url(#radial-gradient-4)"/>
              <g id="Group_793" data-name="Group 793" transform="translate(20.759)" opacity="0.3">
                <path id="Path_989" data-name="Path 989" d="M264.728,135.055c7.008,4.306,12.507,14.465,12.28,22.689a10.5,10.5,0,0,1-2.357,6.947l59.667-17.013L315.1,92.142l-56.148,41A11.6,11.6,0,0,1,264.728,135.055Z" transform="translate(-258.949 -92.142)" fill="#0f054c"/>
              </g>
            </g>
          </g>
        </g>
      </g>
    </g>
    <g id="Group_800" data-name="Group 800" transform="translate(523.862 166.808)">
      <g id="Group_799" data-name="Group 799" transform="translate(0 0)">
        <path id="Path_990" data-name="Path 990" d="M582.762,282.352,565.533,272.7c-3.853-2.157-7.239-6.907-8.429-11.821l-14.922-61.648c-1.771-7.312-7.657-12.587-11.832-12.748-.069,0-.139,0-.208,0-2,0-3.429,1.147-4.138,3.326l-4.494,13.816a4.82,4.82,0,0,1-2.805,3.193c-1.6.613-3.607.294-5.667-.894l-3.109-1.8c-3.592-2.074-6.866-6.562-8.15-11.17-1.969-7.076-7.449-11.819-11.4-12.154-.156-.013-.309-.021-.461-.021a4.1,4.1,0,0,0-3.879,2.588l-4.934,10.453a4.544,4.544,0,0,1-2.762,2.517,6.9,6.9,0,0,1-5.4-.984l-3.562-2.056c-3.9-2.251-7.258-7.085-8.365-12.031L446.1,114.68c-1.64-7.329-7.507-12.745-11.746-13.022a4.164,4.164,0,0,0-4.417,3.09l-24.215,66.17a4.724,4.724,0,0,1-2.8,2.983,6.746,6.746,0,0,1-5.592-.92l-12.246-7.07.154-.266,12.246,7.07a6.479,6.479,0,0,0,5.335.9,4.428,4.428,0,0,0,2.61-2.8l24.215-66.168a4.507,4.507,0,0,1,4.362-3.3c.12,0,.24,0,.364.011,4.347.285,10.355,5.8,12.025,13.26l14.913,66.593c1.07,4.793,4.451,9.658,8.217,11.832l3.562,2.056a6.6,6.6,0,0,0,5.159.958,4.25,4.25,0,0,0,2.575-2.354l4.932-10.455a4.475,4.475,0,0,1,4.646-2.74c4.051.343,9.664,5.174,11.669,12.377,1.261,4.533,4.479,8.95,8.007,10.985l3.109,1.8a6.4,6.4,0,0,0,5.4.875,4.517,4.517,0,0,0,2.622-3l4.5-13.815c.768-2.363,2.419-3.624,4.649-3.534,4.376.169,10.288,5.425,12.117,12.983L557.4,260.811c1.171,4.837,4.5,9.508,8.283,11.628l17.229,9.645Z" transform="translate(-371.902 -101.099)" fill="#42e8e0"/>
        <path id="Path_991" data-name="Path 991" d="M575.787,286.359l-17.231-9.645c-3.853-2.157-7.241-6.909-8.431-11.823L535.2,203.244c-1.769-7.31-7.655-12.583-11.83-12.745-2.117-.067-3.615,1.068-4.347,3.322l-4.494,13.815a4.817,4.817,0,0,1-2.8,3.193c-1.595.613-3.607.292-5.665-.894l-3.113-1.8c-3.59-2.074-6.864-6.562-8.146-11.169-1.971-7.078-7.453-11.821-11.4-12.156a4.108,4.108,0,0,0-4.342,2.567l-4.934,10.453a4.554,4.554,0,0,1-2.762,2.517,6.909,6.909,0,0,1-5.4-.984l-3.56-2.056c-3.894-2.249-7.256-7.083-8.365-12.031L439.13,118.689c-1.64-7.329-7.507-12.743-11.747-13.02a4.167,4.167,0,0,0-4.415,3.09l-24.217,66.168a4.728,4.728,0,0,1-2.8,2.983,6.761,6.761,0,0,1-5.592-.92l-12.246-7.07.154-.266,12.246,7.07a6.468,6.468,0,0,0,5.333.9,4.431,4.431,0,0,0,2.612-2.8l24.215-66.168a4.5,4.5,0,0,1,4.726-3.291c4.347.283,10.355,5.8,12.027,13.258l14.909,66.593c1.074,4.792,4.452,9.658,8.219,11.832l3.56,2.056a6.609,6.609,0,0,0,5.159.959,4.256,4.256,0,0,0,2.577-2.356l4.934-10.455a4.46,4.46,0,0,1,4.644-2.742c4.051.345,9.664,5.176,11.671,12.379,1.261,4.535,4.479,8.95,8,10.985l3.113,1.8a6.392,6.392,0,0,0,5.4.871,4.513,4.513,0,0,0,2.622-3l4.494-13.815c.746-2.288,2.318-3.538,4.437-3.538.071,0,.144,0,.216,0,4.376.169,10.286,5.425,12.115,12.981l14.92,61.646c1.171,4.837,4.5,9.51,8.284,11.628l17.231,9.647Z" transform="translate(-377.999 -97.594)" fill="#42e8e0"/>
        <rect id="Rectangle_94" data-name="Rectangle 94" width="15.206" height="0.787" transform="translate(46.625 8.146) rotate(-29.85)" fill="#42e8e0"/>
        <rect id="Rectangle_95" data-name="Rectangle 95" width="15.394" height="0.785" transform="translate(102.237 87.483) rotate(-29.918)" fill="#42e8e0"/>
        <rect id="Rectangle_96" data-name="Rectangle 96" width="16.027" height="0.787" transform="translate(142.442 93.198) rotate(-29.843)" fill="#42e8e0"/>
        <path id="Path_992" data-name="Path 992" d="M582.7,282.673l-17.231-9.647c-3.907-2.185-7.342-7-8.545-11.972L542,199.405C540.259,192.2,534.486,187,530.4,186.842c-2.037-.092-3.414,1.014-4.109,3.156l-4.494,13.815a5.048,5.048,0,0,1-2.948,3.345c-1.666.641-3.753.313-5.869-.911l-3.111-1.8c-3.7-2.136-6.943-6.577-8.26-11.313-1.941-6.977-7.319-11.652-11.187-11.98a3.9,3.9,0,0,0-4.106,2.429l-4.934,10.455a4.788,4.788,0,0,1-2.9,2.644,7.162,7.162,0,0,1-5.6-1.006l-3.56-2.058c-3.952-2.279-7.359-7.177-8.481-12.184l-14.911-66.593c-1.617-7.226-7.372-12.563-11.526-12.834a3.951,3.951,0,0,0-4.177,2.935L406.01,171.113a4.967,4.967,0,0,1-2.94,3.128,6.972,6.972,0,0,1-5.794-.939l-12.246-7.07.392-.682,12.246,7.07a6.227,6.227,0,0,0,5.135.881,4.2,4.2,0,0,0,2.468-2.657l24.215-66.17a4.712,4.712,0,0,1,4.966-3.446c4.525.3,10.526,5.768,12.244,13.445l14.913,66.593c1.057,4.732,4.389,9.533,8.1,11.676l3.56,2.056a6.38,6.38,0,0,0,4.97.937,4.018,4.018,0,0,0,2.429-2.228l4.934-10.453a4.687,4.687,0,0,1,4.883-2.878c4.13.35,9.846,5.249,11.879,12.551,1.246,4.479,4.419,8.836,7.893,10.842l3.111,1.8a6.191,6.191,0,0,0,5.2.858,4.29,4.29,0,0,0,2.481-2.852l4.5-13.816c.8-2.475,2.552-3.787,4.885-3.7,4.464.172,10.486,5.5,12.342,13.164l14.922,61.646c1.138,4.7,4.5,9.42,8.165,11.476l17.231,9.645Z" transform="translate(-371.958 -101.212)" fill="#42e8e0"/>
        <path id="Path_993" data-name="Path 993" d="M575.724,286.681,558.5,277.034c-3.909-2.187-7.344-7-8.549-11.972l-14.922-61.648c-1.743-7.209-7.514-12.405-11.605-12.563-2.011-.086-3.412,1.014-4.109,3.156l-4.5,13.816a5.033,5.033,0,0,1-2.944,3.341c-1.666.643-3.752.317-5.871-.909l-3.111-1.8c-3.7-2.136-6.941-6.576-8.258-11.313-1.943-6.978-7.323-11.652-11.189-11.98a3.912,3.912,0,0,0-4.1,2.429L474.4,198.051a4.78,4.78,0,0,1-2.908,2.642,7.111,7.111,0,0,1-5.594-1l-3.562-2.056c-3.948-2.281-7.357-7.177-8.48-12.186l-14.909-66.593c-1.619-7.224-7.374-12.561-11.528-12.833a3.945,3.945,0,0,0-4.175,2.933l-24.217,66.168a4.956,4.956,0,0,1-2.938,3.126,6.964,6.964,0,0,1-5.792-.939l-12.246-7.068.392-.682,12.246,7.07a6.224,6.224,0,0,0,5.131.881,4.2,4.2,0,0,0,2.47-2.657l24.215-66.17a4.743,4.743,0,0,1,4.968-3.446c4.526.3,10.524,5.768,12.244,13.445l14.909,66.593c1.059,4.732,4.392,9.534,8.1,11.676l3.562,2.058a6.4,6.4,0,0,0,4.968.935,4.029,4.029,0,0,0,2.432-2.228l4.934-10.453a4.684,4.684,0,0,1,4.88-2.878c4.13.35,9.846,5.249,11.881,12.553,1.246,4.477,4.417,8.834,7.893,10.841l3.111,1.8c1.915,1.1,3.759,1.409,5.2.856a4.289,4.289,0,0,0,2.481-2.852l4.494-13.816c.778-2.395,2.43-3.7,4.662-3.7.073,0,.15,0,.227,0,4.46.172,10.485,5.5,12.34,13.164l14.92,61.646c1.139,4.7,4.5,9.42,8.168,11.476L576.108,286Z" transform="translate(-378.054 -97.706)" fill="#42e8e0"/>
      </g>
      <path id="Path_994" data-name="Path 994" d="M385.135,165.706l12.246,7.07c3.678,2.123,6.954,1.329,8.167-1.983l24.215-66.168c2.766-7.558,14.068-.725,16.459,9.949l14.909,66.593c1.091,4.867,4.464,9.72,8.292,11.931l3.56,2.056c3.461,2,6.589,1.422,7.951-1.465l4.934-10.453c3.058-6.48,13.249-.367,16.026,9.613h0c1.282,4.6,4.5,9.008,8.078,11.077l3.109,1.8c3.772,2.179,7.11,1.282,8.247-2.213l4.5-13.816c2.535-7.8,13.873-1.3,16.472,9.435l14.922,61.648c1.171,4.846,4.561,9.6,8.356,11.725l17.229,9.645Z" transform="translate(-371.866 -101.028)" opacity="0.5" fill="url(#linear-gradient-16)" style="mix-blend-mode: lighten;isolation: isolate"/>
      <path id="Path_995" data-name="Path 995" d="M378.158,169.616l12.246,7.07c3.678,2.123,6.954,1.329,8.167-1.983l24.215-66.17c2.766-7.557,14.068-.725,16.459,9.949l14.909,66.6c1.091,4.867,4.464,9.72,8.292,11.931l3.56,2.056c3.461,2,6.589,1.42,7.951-1.465l4.934-10.453c3.058-6.48,13.249-.369,16.026,9.611h0c1.282,4.6,4.5,9.01,8.078,11.079l3.111,1.8c3.77,2.177,7.108,1.282,8.245-2.215l4.5-13.814c2.535-7.8,13.873-1.3,16.472,9.435l14.922,61.648c1.171,4.844,4.561,9.6,8.356,11.725l17.229,9.645Z" transform="translate(-377.963 -97.612)" opacity="0.5" fill="url(#linear-gradient-17)" style="mix-blend-mode: lighten;isolation: isolate"/>
    </g>
    <ellipse id="Ellipse_6" data-name="Ellipse 6" cx="40.514" cy="70.172" rx="40.514" ry="70.172" transform="translate(220.601 173.715) rotate(-28.424)" fill="#42e8e0" opacity="0.4"/>
    <path id="Path_996" data-name="Path 996" d="M557.34,157.176c-19.614,0-39.212-4.291-54.158-12.883-14.618-8.4-22.68-19.622-22.7-31.585s8-23.214,22.584-31.671c29.96-17.371,78.757-17.463,108.777-.2h0c14.618,8.4,22.68,19.62,22.7,31.585s-8,23.212-22.582,31.671C596.916,152.808,577.12,157.176,557.34,157.176Zm.343-88.453c-19.64,0-39.288,4.334-54.224,12.994-14.332,8.311-22.213,19.316-22.195,30.989s7.945,22.648,22.309,30.9c29.8,17.135,78.249,17.041,107.99-.2,14.332-8.309,22.213-19.314,22.191-30.987s-7.942-22.648-22.305-30.9h0C596.612,72.985,577.152,68.723,557.683,68.723Z" transform="translate(235.319 36.526)" fill="#42e8e0"/>
    <g id="Group_804" data-name="Group 804" transform="translate(630.452 26.152)">
      <g id="Group_801" data-name="Group 801" transform="translate(0)">
        <path id="Path_997" data-name="Path 997" d="M473.421,45.084c3.536-2.05,6.407-.4,6.414,3.688a14.168,14.168,0,0,1-6.386,11.11c-3.534,2.048-6.407.4-6.414-3.688A14.162,14.162,0,0,1,473.421,45.084Z" transform="translate(-406.882 -10.377)" fill="url(#linear-gradient-18)"/>
        <path id="Path_998" data-name="Path 998" d="M473.807,45.3a14.159,14.159,0,0,0-6.388,11.11,4.622,4.622,0,0,0,1.7,4.018c-1.276-.615-2.082-2.084-2.086-4.239a14.162,14.162,0,0,1,6.386-11.11c1.866-1.081,3.542-1.124,4.713-.332A4.619,4.619,0,0,0,473.807,45.3Z" transform="translate(-406.882 -10.375)" fill="#fff"/>
        <path id="Path_999" data-name="Path 999" d="M465.279,40.4c3.536-2.05,6.407-.4,6.414,3.688a14.167,14.167,0,0,1-6.386,11.11c-3.536,2.05-6.407.4-6.414-3.688A14.165,14.165,0,0,1,465.279,40.4Z" transform="translate(-413.997 -14.468)" fill="url(#linear-gradient-19)"/>
        <path id="Path_1000" data-name="Path 1000" d="M456.994,35.64c3.534-2.05,6.407-.4,6.414,3.688a14.165,14.165,0,0,1-6.386,11.11c-3.536,2.05-6.407.4-6.414-3.688A14.165,14.165,0,0,1,456.994,35.64Z" transform="translate(-421.238 -18.631)" fill="url(#linear-gradient-20)"/>
        <path id="Path_1001" data-name="Path 1001" d="M496.973,76.114l7.936,4.561c-1.16-.667-1.88-2.1-1.883-4.143a14.162,14.162,0,0,1,6.386-11.11c1.715-1,3.268-1.111,4.419-.51l33.582,19.305-9.027,15.7L439.479,43.062a9.056,9.056,0,0,1,9.027-15.7l26.816,15.415c-1.169-.735-2.809-.667-4.63.388a14.16,14.16,0,0,0-6.386,11.11c0,2.039.72,3.47,1.876,4.139h0l.009.006h0l7.934,4.563c-1.16-.669-1.88-2.1-1.883-4.145a14.162,14.162,0,0,1,6.388-11.11c1.713-.993,3.268-1.111,4.419-.51l7.8,4.484c-1.169-.736-2.809-.669-4.63.388A14.165,14.165,0,0,0,479.83,63.2c0,2.037.72,3.469,1.876,4.139h0l.007.006h0L489.65,71.9c-1.16-.667-1.878-2.1-1.881-4.143a14.155,14.155,0,0,1,6.386-11.11c1.713-.993,3.268-1.111,4.419-.51l7.531,4.329c-1.167-.735-2.809-.667-4.63.39a14.162,14.162,0,0,0-6.386,11.11c0,2.037.72,3.469,1.876,4.138v0l.007,0Z" transform="translate(-434.935 -26.152)" fill="#bcbeff"/>
        <path id="Path_1002" data-name="Path 1002" d="M465.663,40.621a14.164,14.164,0,0,0-6.386,11.11,4.622,4.622,0,0,0,1.7,4.018c-1.276-.613-2.082-2.082-2.086-4.239a14.165,14.165,0,0,1,6.386-11.11c1.865-1.081,3.54-1.124,4.713-.332A4.623,4.623,0,0,0,465.663,40.621Z" transform="translate(-413.997 -14.466)" fill="#fff"/>
        <path id="Path_1003" data-name="Path 1003" d="M457.378,35.858a14.165,14.165,0,0,0-6.386,11.11,4.626,4.626,0,0,0,1.7,4.02c-1.276-.615-2.082-2.084-2.086-4.241a14.165,14.165,0,0,1,6.386-11.11c1.865-1.081,3.54-1.124,4.713-.33A4.616,4.616,0,0,0,457.378,35.858Z" transform="translate(-421.238 -18.628)" fill="#fff"/>
        <path id="Path_1004" data-name="Path 1004" d="M481.36,49.643a14.164,14.164,0,0,0-6.386,11.11c0,2.043.723,3.476,1.883,4.143l-7.936-4.561h0l-.008-.006h0c-1.156-.671-1.872-2.1-1.876-4.139a14.165,14.165,0,0,1,6.386-11.11c1.821-1.057,3.463-1.124,4.63-.388l7.726,4.441C484.628,48.532,483.075,48.65,481.36,49.643Z" transform="translate(-406.881 -10.378)" opacity="0.48" fill="url(#linear-gradient-21)"/>
        <path id="Path_1005" data-name="Path 1005" d="M473.218,44.961a14.158,14.158,0,0,0-6.386,11.11c0,2.043.721,3.476,1.881,4.145l-7.934-4.563h0l-.007-.006h0c-1.156-.669-1.872-2.1-1.876-4.139A14.167,14.167,0,0,1,465.28,40.4c1.821-1.055,3.461-1.122,4.63-.388l7.726,4.441C476.486,43.85,474.931,43.968,473.218,44.961Z" transform="translate(-413.996 -14.468)" opacity="0.48" fill="url(#linear-gradient-22)"/>
        <path id="Path_1006" data-name="Path 1006" d="M464.933,40.2a14.165,14.165,0,0,0-6.388,11.11c0,2.043.723,3.476,1.883,4.145l-7.934-4.563h0l-.009-.006h0c-1.156-.669-1.872-2.1-1.876-4.139A14.168,14.168,0,0,1,457,35.636c1.822-1.055,3.461-1.122,4.63-.388l7.726,4.441C468.2,39.087,466.646,39.205,464.933,40.2Z" transform="translate(-421.237 -18.63)" opacity="0.48" fill="url(#linear-gradient-23)"/>
      </g>
      <g id="Group_803" data-name="Group 803" transform="translate(85.742 43.566)">
        <path id="Path_1007" data-name="Path 1007" d="M498.795,88.618c-.008.478-.008.954.019,1.432l19.539,16.342,31.635,11.776,22.283-5,21.308-6.092L615.3,90.361l.556-.448a19.68,19.68,0,0,0-.2-4.021q5.762-7.64,11.521-15.28a34.626,34.626,0,0,1,4.231,6.832l2.541-2.037.011,13.084c0,.157,0,.313,0,.468v.491l-.021.015c-.3,11.075-7.739,22.107-22.36,30.584-29.9,17.336-78.421,17.426-108.383.2-14.864-8.545-22.356-19.745-22.493-30.981l0,0v-.086c0-.129,0-.257,0-.386l.028-13.869,2.723,2.279a33.293,33.293,0,0,1,2.284-4.036C489.176,79,492.583,86.158,498.795,88.618Z" transform="translate(-480.678 -30.865)" fill="url(#linear-gradient-24)"/>
        <path id="Path_1008" data-name="Path 1008" d="M607.891,72.781c.408.227.826.44,1.227.673A53.276,53.276,0,0,1,624.829,86.59q-5.759,7.64-11.521,15.28c-1.134-7.674-6.768-15.16-16.953-21.016-22.9-13.162-59.979-13.093-82.827.156-11.268,6.534-16.946,15.051-17.082,23.587-6.212-2.46-9.619-9.623-13.054-15.449a46.358,46.358,0,0,1,11.749-11.871l-2.635.547s18.012-15.643,18.679-15.8,36.717-9.7,36.717-9.7L588.489,55.9Z" transform="translate(-478.329 -46.842)" fill="url(#linear-gradient-25)"/>
        <ellipse id="Ellipse_7" data-name="Ellipse 7" cx="58.567" cy="33.814" rx="58.567" ry="33.814" transform="translate(16.946 15.158) rotate(-0.108)" opacity="0.5" fill="url(#linear-gradient-26)"/>
        <ellipse id="Ellipse_8" data-name="Ellipse 8" cx="58.567" cy="33.814" rx="58.567" ry="33.814" transform="translate(16.846 19.255) rotate(-0.108)" opacity="0.48" fill="url(#linear-gradient-27)"/>
        <path id="Path_1009" data-name="Path 1009" d="M611.461,62.26c-29.96-17.223-78.483-17.133-108.382.2s-29.846,45.353.114,62.576,78.485,17.131,108.384-.2S641.423,79.483,611.461,62.26Zm-12.763,7.4c22.9,13.162,22.935,34.572.088,47.819s-59.932,13.318-82.827.156-22.935-34.572-.088-47.82S575.8,56.5,598.7,69.662Z" transform="translate(-480.69 -49.401)" fill="#bcbeff"/>
        <path id="Path_1010" data-name="Path 1010" d="M611.461,62.26c-29.96-17.223-78.483-17.133-108.382.2s-29.846,45.353.114,62.576,78.485,17.131,108.384-.2S641.423,79.483,611.461,62.26Zm-12.763,7.4c22.9,13.162,22.935,34.572.088,47.819s-59.932,13.318-82.827.156-22.935-34.572-.088-47.82S575.8,56.5,598.7,69.662Z" transform="translate(-480.69 -49.401)" fill="#bcbeff"/>
        <g id="Group_802" data-name="Group 802" transform="translate(1.231 9.257)">
          <path id="Path_1011" data-name="Path 1011" d="M502.228,107.484c29.96,17.225,78.485,17.133,108.382-.2,18.4-10.67,25.44-25.386,21.158-39.14,5.069,14.088-1.838,29.342-20.765,40.315-29.9,17.336-78.422,17.427-108.384.2-11.519-6.622-18.6-14.841-21.273-23.433C484.285,93.392,491.236,101.165,502.228,107.484Z" transform="translate(-481.347 -42.281)" fill="#fff"/>
          <path id="Path_1012" data-name="Path 1012" d="M507.228,64.323c22.847-13.249,59.93-13.318,82.825-.156,8.871,5.1,14.294,11.438,16.3,18.059-2.271-6.193-7.565-12.087-15.908-16.882-22.9-13.162-59.978-13.093-82.827.154-14,8.116-19.388,19.294-16.213,29.762C487.446,84.458,492.706,72.743,507.228,64.323Z" transform="translate(-473.67 -54.341)" fill="#fff"/>
        </g>
      </g>
    </g>
    <rect id="Rectangle_97" data-name="Rectangle 97" width="0.785" height="47.274" transform="translate(678.375 509.844) rotate(-60.627)" fill="#42e8e0"/>
    <path id="Path_1013" data-name="Path 1013" d="M530.079,382.259a11.179,11.179,0,0,1-5.6-1.5l-65.6-37.872a3.293,3.293,0,0,1,0-5.706l97.037-56.024a11.233,11.233,0,0,1,11.21,0l65.6,37.872a3.294,3.294,0,0,1,0,5.708l-97.037,56.023A11.181,11.181,0,0,1,530.079,382.259ZM561.52,280.448a10.431,10.431,0,0,0-5.213,1.392L459.27,337.864a2.508,2.508,0,0,0,0,4.346l65.6,37.872a10.466,10.466,0,0,0,10.428,0l97.037-56.023a2.511,2.511,0,0,0,0-4.347l-65.6-37.872A10.431,10.431,0,0,0,561.52,280.448Z" transform="translate(215 221.546)" fill="#42e8e0"/>
    <g id="Group_807" data-name="Group 807" transform="translate(708.545 522.338)">
      <g id="Group_805" data-name="Group 805" transform="translate(0 10.33)">
        <path id="Path_1014" data-name="Path 1014" d="M509.306,303.87l-10.293-5.943,2.558-1.477,10.293,5.943Z" transform="translate(-457.03 -296.45)" fill="#42e8e0"/>
        <path id="Path_1015" data-name="Path 1015" d="M511.593,305.19l-5.147-2.971L509,300.742l5.147,2.971Z" transform="translate(-450.533 -292.699)" fill="#42e8e0" opacity="0.5"/>
        <path id="Path_1016" data-name="Path 1016" d="M506.105,305.718l-10.293-5.943,2.558-1.477,10.293,5.943Z" transform="translate(-459.827 -294.835)" fill="#42e8e0" opacity="0.5"/>
        <path id="Path_1017" data-name="Path 1017" d="M508.393,307.038l-5.147-2.971,2.558-1.477,5.147,2.971Z" transform="translate(-453.33 -291.085)" fill="#42e8e0" opacity="0.5"/>
        <path id="Path_1018" data-name="Path 1018" d="M502.9,307.565l-10.293-5.943,2.558-1.477,10.293,5.943Z" transform="translate(-462.624 -293.221)" fill="#42e8e0"/>
        <path id="Path_1019" data-name="Path 1019" d="M505.192,308.886l-5.147-2.971,2.558-1.477,5.147,2.971Z" transform="translate(-456.127 -289.47)" fill="#42e8e0"/>
        <path id="Path_1020" data-name="Path 1020" d="M499.7,309.413l-10.293-5.943,2.558-1.477,10.293,5.943Z" transform="translate(-465.421 -291.606)" fill="#42e8e0"/>
        <path id="Path_1021" data-name="Path 1021" d="M501.992,310.734l-5.147-2.971,2.558-1.477,5.147,2.971Z" transform="translate(-458.924 -287.855)" fill="#42e8e0"/>
        <path id="Path_1022" data-name="Path 1022" d="M496.5,311.261l-10.293-5.943,2.558-1.477,10.293,5.943Z" transform="translate(-468.218 -289.991)" fill="#42e8e0"/>
        <path id="Path_1023" data-name="Path 1023" d="M498.791,312.582l-5.147-2.971,2.558-1.477,5.147,2.971Z" transform="translate(-461.721 -286.24)" fill="#42e8e0"/>
        <path id="Path_1024" data-name="Path 1024" d="M493.3,313.109l-10.293-5.943,2.558-1.477,10.293,5.943Z" transform="translate(-471.015 -288.376)" fill="#42e8e0"/>
        <path id="Path_1025" data-name="Path 1025" d="M495.591,314.429l-5.147-2.971L493,309.981l5.147,2.971Z" transform="translate(-464.518 -284.625)" fill="#42e8e0"/>
        <path id="Path_1026" data-name="Path 1026" d="M490.1,314.957l-10.293-5.943,2.558-1.477,10.293,5.943Z" transform="translate(-473.812 -286.761)" fill="#42e8e0"/>
        <path id="Path_1027" data-name="Path 1027" d="M492.39,316.277l-5.147-2.971,2.558-1.477,5.147,2.971Z" transform="translate(-467.315 -283.01)" fill="#42e8e0" opacity="0.5"/>
        <path id="Path_1028" data-name="Path 1028" d="M486.9,316.8l-10.293-5.943,2.558-1.477,10.293,5.943Z" transform="translate(-476.609 -285.146)" fill="#42e8e0"/>
        <path id="Path_1029" data-name="Path 1029" d="M489.19,318.125l-5.147-2.971,2.558-1.477,5.147,2.971Z" transform="translate(-470.112 -281.396)" fill="#42e8e0" opacity="0.5"/>
      </g>
      <g id="Group_806" data-name="Group 806" transform="translate(22.974)">
        <path id="Path_1030" data-name="Path 1030" d="M521.506,310.983l-10.293-5.943,2.558-1.477,10.293,5.943Z" transform="translate(-469.342 -279.904)" fill="#42e8e0"/>
        <path id="Path_1031" data-name="Path 1031" d="M523.794,312.3l-5.147-2.971,2.558-1.477,5.147,2.971Z" transform="translate(-462.845 -276.153)" fill="#42e8e0"/>
        <path id="Path_1032" data-name="Path 1032" d="M518.306,312.83l-10.293-5.943,2.558-1.477,10.293,5.943Z" transform="translate(-472.139 -278.289)" fill="#42e8e0"/>
        <path id="Path_1033" data-name="Path 1033" d="M520.593,314.151l-5.147-2.971L518,309.7l5.147,2.971Z" transform="translate(-465.642 -274.538)" fill="#42e8e0"/>
        <path id="Path_1034" data-name="Path 1034" d="M515.105,314.678l-10.293-5.943,2.558-1.477,10.293,5.943Z" transform="translate(-474.936 -276.674)" fill="#42e8e0"/>
        <path id="Path_1035" data-name="Path 1035" d="M517.393,316l-5.147-2.971,2.558-1.477,5.147,2.972Z" transform="translate(-468.439 -272.924)" fill="#42e8e0"/>
        <path id="Path_1036" data-name="Path 1036" d="M518.854,298.357l-10.293-5.943,2.558-1.477,10.293,5.943Z" transform="translate(-471.66 -290.938)" fill="#42e8e0"/>
        <path id="Path_1037" data-name="Path 1037" d="M521.141,299.678l-5.147-2.971,2.558-1.477L523.7,298.2Z" transform="translate(-465.163 -287.187)" fill="#42e8e0"/>
        <path id="Path_1038" data-name="Path 1038" d="M515.653,300.2l-10.293-5.943,2.558-1.477,10.293,5.943Z" transform="translate(-474.457 -289.323)" fill="#42e8e0"/>
        <path id="Path_1039" data-name="Path 1039" d="M517.941,301.526l-5.147-2.971,2.558-1.477,5.147,2.971Z" transform="translate(-467.96 -285.572)" fill="#42e8e0"/>
        <path id="Path_1040" data-name="Path 1040" d="M512.453,302.053,502.16,296.11l2.558-1.477,10.293,5.943Z" transform="translate(-477.254 -287.708)" fill="#42e8e0"/>
        <path id="Path_1041" data-name="Path 1041" d="M514.74,303.373l-5.147-2.971,2.558-1.477L517.3,301.9Z" transform="translate(-470.757 -283.957)" fill="#42e8e0"/>
        <path id="Path_1042" data-name="Path 1042" d="M531.054,305.47l-10.293-5.943,2.558-1.477,10.293,5.943Z" transform="translate(-460.998 -284.722)" fill="#42e8e0"/>
        <path id="Path_1043" data-name="Path 1043" d="M533.342,306.791l-5.147-2.971,2.558-1.477,5.147,2.971Z" transform="translate(-454.501 -280.971)" fill="#42e8e0"/>
        <path id="Path_1044" data-name="Path 1044" d="M527.854,307.318l-10.293-5.943,2.558-1.477,10.293,5.943Z" transform="translate(-463.795 -283.107)" fill="#42e8e0" opacity="0.5"/>
        <path id="Path_1045" data-name="Path 1045" d="M530.141,308.638l-5.147-2.971,2.558-1.477,5.147,2.971Z" transform="translate(-457.298 -279.356)" fill="#42e8e0"/>
        <path id="Path_1046" data-name="Path 1046" d="M524.653,309.166l-10.293-5.943,2.558-1.477,10.293,5.943Z" transform="translate(-466.592 -281.492)" fill="#42e8e0"/>
        <path id="Path_1047" data-name="Path 1047" d="M526.941,310.486l-5.147-2.971,2.558-1.477,5.147,2.971Z" transform="translate(-460.095 -277.741)" fill="#42e8e0"/>
        <path id="Path_1048" data-name="Path 1048" d="M511.9,316.526l-10.293-5.943,2.558-1.477,10.293,5.943Z" transform="translate(-477.733 -275.06)" fill="#42e8e0"/>
        <path id="Path_1049" data-name="Path 1049" d="M514.192,317.847l-5.147-2.971L511.6,313.4l5.147,2.971Z" transform="translate(-471.236 -271.309)" fill="#42e8e0"/>
        <path id="Path_1050" data-name="Path 1050" d="M508.7,318.374l-10.293-5.943,2.558-1.477,10.293,5.943Z" transform="translate(-480.53 -273.445)" fill="#42e8e0" opacity="0.5"/>
        <path id="Path_1051" data-name="Path 1051" d="M510.992,319.695l-5.147-2.971,2.558-1.477,5.147,2.971Z" transform="translate(-474.033 -269.694)" fill="#42e8e0"/>
        <path id="Path_1052" data-name="Path 1052" d="M505.5,320.222l-10.293-5.943,2.558-1.477,10.293,5.943Z" transform="translate(-483.327 -271.83)" fill="#42e8e0"/>
        <path id="Path_1053" data-name="Path 1053" d="M507.791,321.542l-5.147-2.971,2.558-1.477,5.147,2.971Z" transform="translate(-476.83 -268.079)" fill="#42e8e0"/>
        <path id="Path_1054" data-name="Path 1054" d="M502.3,322.069l-10.293-5.943,2.558-1.477,10.293,5.943Z" transform="translate(-486.124 -270.215)" fill="#42e8e0"/>
        <path id="Path_1055" data-name="Path 1055" d="M504.59,323.39l-5.147-2.971L502,318.942l5.147,2.971Z" transform="translate(-479.627 -266.464)" fill="#42e8e0"/>
        <path id="Path_1056" data-name="Path 1056" d="M499.162,323.883l-10.293-5.943,2.558-1.477,10.293,5.943Z" transform="translate(-488.869 -268.63)" fill="#42e8e0"/>
        <path id="Path_1057" data-name="Path 1057" d="M501.45,325.2l-5.147-2.971,2.558-1.477,5.147,2.971Z" transform="translate(-482.372 -264.88)" fill="#42e8e0"/>
      </g>
    </g>
    <g id="Group_808" data-name="Group 808" transform="translate(799.136 175.019)">
      <path id="Path_1058" data-name="Path 1058" d="M537.145,450.777l-.333-.557,35.353-21.087a4.452,4.452,0,0,0-.071-7.694l-44.569-25.457a5.105,5.105,0,0,1-.017-8.856l107.486-61.92a4.065,4.065,0,0,0,.03-7.029l-18.432-10.827a18.818,18.818,0,0,1-9.246-16.161V132.415a18.153,18.153,0,0,0-8.982-15.63l-18.235-10.629.326-.562,18.235,10.629a18.809,18.809,0,0,1,9.3,16.192V291.188a18.167,18.167,0,0,0,8.927,15.6l18.432,10.827a4.719,4.719,0,0,1-.034,8.153l-107.486,61.92a4.454,4.454,0,0,0,.013,7.728l44.569,25.457a5.1,5.1,0,0,1,.083,8.815Z" transform="translate(-524.952 -105.594)" fill="#42e8e0"/>
    </g>
  </g>
</svg>
