<svg xmlns="http://www.w3.org/2000/svg" width="145.257" height="122" viewBox="0 0 145.257 122">
  <g id="Group_1529" data-name="Group 1529" transform="translate(-500.64 -352.4)">
    <g id="Group_1521" data-name="Group 1521" transform="translate(614.283 367.019)">
      <path id="Path_2828" data-name="Path 2828" d="M728.13,380.044v98.865a1.192,1.192,0,0,1-1.194,1.194H707.454a1.192,1.192,0,0,1-1.194-1.194V380.044a1.192,1.192,0,0,1,1.194-1.194h19.482A1.192,1.192,0,0,1,728.13,380.044Z" transform="translate(-706.26 -378.85)" fill="#a1cc3a"/>
    </g>
    <g id="Group_1522" data-name="Group 1522" transform="translate(588.307 379.277)">
      <path id="Path_2829" data-name="Path 2829" d="M681.13,402.224V488.83a1.189,1.189,0,0,1-1.194,1.194H660.454a1.192,1.192,0,0,1-1.194-1.194V402.224a1.192,1.192,0,0,1,1.194-1.194h19.482A1.189,1.189,0,0,1,681.13,402.224Z" transform="translate(-659.26 -401.03)" fill="#a1cc3a"/>
    </g>
    <g id="Group_1523" data-name="Group 1523" transform="translate(562.331 391.188)">
      <path id="Path_2830" data-name="Path 2830" d="M634.13,423.774v74.7a1.189,1.189,0,0,1-1.194,1.194H613.454a1.192,1.192,0,0,1-1.194-1.194v-74.7a1.192,1.192,0,0,1,1.194-1.194h19.482A1.189,1.189,0,0,1,634.13,423.774Z" transform="translate(-612.26 -422.58)" fill="#a1cc3a"/>
    </g>
    <g id="Group_1524" data-name="Group 1524" transform="translate(536.355 407.79)">
      <path id="Path_2831" data-name="Path 2831" d="M587.13,453.814v58.093a1.189,1.189,0,0,1-1.194,1.194H566.454a1.192,1.192,0,0,1-1.194-1.194V453.814a1.192,1.192,0,0,1,1.194-1.194h19.482A1.189,1.189,0,0,1,587.13,453.814Z" transform="translate(-565.26 -452.62)" fill="#a1cc3a"/>
    </g>
    <g id="Group_1525" data-name="Group 1525" transform="translate(510.378 425.1)">
      <path id="Path_2832" data-name="Path 2832" d="M540.13,485.134v40.783a1.189,1.189,0,0,1-1.194,1.194H519.454a1.192,1.192,0,0,1-1.194-1.194V485.134a1.192,1.192,0,0,1,1.194-1.194h19.482A1.189,1.189,0,0,1,540.13,485.134Z" transform="translate(-518.26 -483.94)" fill="#a1cc3a"/>
    </g>
    <g id="Group_1526" data-name="Group 1526" transform="translate(500.64 472.012)">
      <path id="Path_2833" data-name="Path 2833" d="M645.9,570.014a1.2,1.2,0,0,1-1.194,1.194H501.834a1.194,1.194,0,0,1,0-2.388H644.7A1.2,1.2,0,0,1,645.9,570.014Z" transform="translate(-500.64 -568.82)" fill="#a1cc3a"/>
    </g>
    <g id="Group_1527" data-name="Group 1527" transform="translate(506.403 353.126)">
      <path id="Path_2834" data-name="Path 2834" d="M512.261,412.4a1.193,1.193,0,0,1-.4-2.316c.638-.232,64.26-23.373,92.22-55.947a1.193,1.193,0,1,1,1.811,1.554c-28.37,33.056-92.578,56.407-93.224,56.638A1.181,1.181,0,0,1,512.261,412.4Z" transform="translate(-511.067 -353.714)" fill="#fff"/>
    </g>
    <g id="Group_1528" data-name="Group 1528" transform="translate(586.529 352.4)">
      <path id="Path_2835" data-name="Path 2835" d="M670.605,368.884h0a1.2,1.2,0,0,1-1.192-1.2l.014-12.892-12.184.055h-.006a1.194,1.194,0,0,1-.006-2.388l13.384-.061a1.2,1.2,0,0,1,1.2,1.2l-.014,14.094A1.2,1.2,0,0,1,670.605,368.884Z" transform="translate(-656.042 -352.4)" fill="#fff"/>
    </g>
  </g>
</svg>
