<svg xmlns="http://www.w3.org/2000/svg" width="44.105" height="45" viewBox="0 0 44.105 45">
  <g id="Group_1546" data-name="Group 1546" transform="translate(-606.256 -651.167)">
    <g id="Group_1545" data-name="Group 1545" transform="translate(606.256 651.167)">
      <path id="Path_2900" data-name="Path 2900" d="M629.377,651.167a21.126,21.126,0,0,1,10.645,2.921A26.606,26.606,0,0,1,644,657.009c-2.247,2.208-4.405,4.371-6.608,6.536a12.1,12.1,0,0,0-6.575-3.182,13.248,13.248,0,0,0-14.881,10.366,12.278,12.278,0,0,0-.312,4.067,13.465,13.465,0,0,0,9.194,11.707,13.039,13.039,0,0,0,3.93.593c.311,0,.624-.009.935-.031a13.206,13.206,0,0,0,6.572-2.1,10.381,10.381,0,0,0,4.466-6.773H628.672c0-.3.046-5.929.067-8.677l.023-.368h21.164c1.139,6.6.113,13.545-4,18.977a19.794,19.794,0,0,1-11.135,7.271,24.223,24.223,0,0,1-6.076.769q-.654,0-1.308-.034a22.326,22.326,0,0,1-20.66-17.7,20.41,20.41,0,0,1-.43-6.059A22.076,22.076,0,0,1,611.4,659.52a22.328,22.328,0,0,1,12.111-7.7,18.257,18.257,0,0,1,3.727-.585C627.947,651.21,628.663,651.167,629.377,651.167Z" transform="translate(-606.256 -651.167)" fill="#a1cc3a"/>
    </g>
  </g>
</svg>
