<svg xmlns="http://www.w3.org/2000/svg" width="88.825" height="122" viewBox="0 0 88.825 122">
  <g id="Group_1536" data-name="Group 1536" transform="translate(-614.645 -389.76)">
    <g id="Group_1535" data-name="Group 1535" transform="translate(617.701 389.76)">
      <g id="Group_1530" data-name="Group 1530" transform="translate(17.016)">
        <path id="Path_2836" data-name="Path 2836" d="M702.155,473.953v6.165h-6.891Zm-5.908,8.185V486H693.19v-3.863Zm-8.969-8.091,6.316,6.071h-6.316Zm-8.484,22.7V485.979a1.01,1.01,0,1,0-2.02,0v10.808H670.19V479.7l15.065-5.923v7.35a1.009,1.009,0,0,0,1.012,1.008h4.9v4.755l-2.378,9.854Zm12.073,0,2.107-8.727h3.451l1.677,8.727Zm28.38.04h-6.584V485.979a1.01,1.01,0,1,0-2.02,0v10.768H700.157l-1.886-9.832v-4.777h4.9a1.009,1.009,0,0,0,1.012-1.008v-7.346l15.068,5.919Z" transform="translate(-670.19 -443.419)"/>
        <path id="Path_2837" data-name="Path 2837" d="M723.8,480.591H717.48V474.52Z" transform="translate(-700.392 -443.892)" fill="#a1cc3a"/>
        <path id="Path_2838" data-name="Path 2838" d="M746.471,474.26v6.165H739.58Z" transform="translate(-714.506 -443.726)" fill="#a1cc3a"/>
        <path id="Path_2839" data-name="Path 2839" d="M768.876,479.709v17.085h-6.584V485.986a1.01,1.01,0,1,0-2.02,0v10.768H749.786l-1.886-9.832v-4.777h4.9a1.009,1.009,0,0,0,1.012-1.008V473.79Z" transform="translate(-719.82 -443.426)" fill="#a1cc3a"/>
        <rect id="Rectangle_182" data-name="Rectangle 182" width="3.057" height="3.863" transform="translate(23 38.719)" fill="#a1cc3a"/>
        <path id="Path_2840" data-name="Path 2840" d="M734.644,521.917H727.41l2.107-8.727h3.451Z" transform="translate(-706.734 -468.589)" fill="#a1cc3a"/>
        <path id="Path_2841" data-name="Path 2841" d="M691.166,482.138v4.755l-2.378,9.854h-9.995V485.979a1.01,1.01,0,1,0-2.02,0v10.808H670.19V479.7l15.065-5.923v7.35a1.009,1.009,0,0,0,1.012,1.008Z" transform="translate(-670.19 -443.419)" fill="#a1cc3a"/>
        <path id="Path_2842" data-name="Path 2842" d="M729.06,397.428a13.92,13.92,0,0,1-7.975-1.612,7.97,7.97,0,0,0,2.584-4.64A11.723,11.723,0,0,1,729.06,397.428ZM718.1,389.76a11.645,11.645,0,0,1,3.617.575,6.146,6.146,0,0,1-2.772,4.672.97.97,0,0,0-.242.177,12.968,12.968,0,0,1-7.27,2.07,14.138,14.138,0,0,1-3.982-.556A11.66,11.66,0,0,1,718.1,389.76Zm0,23.3a11.662,11.662,0,0,1-11.65-11.65,11.512,11.512,0,0,1,.343-2.8,16.126,16.126,0,0,0,4.64.665,15.044,15.044,0,0,0,7.935-2.15,14.877,14.877,0,0,0,8.336,2.392,17.133,17.133,0,0,0,1.879-.108,11.413,11.413,0,0,1,.177,2A11.669,11.669,0,0,1,718.1,413.056Z" transform="translate(-693.348 -389.76)"/>
        <path id="Path_2843" data-name="Path 2843" d="M754.925,399.931a13.92,13.92,0,0,1-7.975-1.612,7.97,7.97,0,0,0,2.584-4.64A11.723,11.723,0,0,1,754.925,399.931Z" transform="translate(-719.213 -392.264)" fill="#a1cc3a"/>
        <path id="Path_2844" data-name="Path 2844" d="M723.486,390.335a6.146,6.146,0,0,1-2.772,4.672.97.97,0,0,0-.242.177,12.968,12.968,0,0,1-7.27,2.07,14.137,14.137,0,0,1-3.982-.556,11.648,11.648,0,0,1,14.266-6.363Z" transform="translate(-695.117 -389.76)" fill="#a1cc3a"/>
        <path id="Path_2845" data-name="Path 2845" d="M729.761,414.422a11.655,11.655,0,0,1-23.311,0,11.512,11.512,0,0,1,.343-2.8,16.128,16.128,0,0,0,4.64.665,15.044,15.044,0,0,0,7.935-2.15,14.877,14.877,0,0,0,8.336,2.392,17.141,17.141,0,0,0,1.879-.108A11.413,11.413,0,0,1,729.761,414.422Z" transform="translate(-693.348 -402.776)" fill="#a1cc3a"/>
      </g>
      <g id="Group_1532" data-name="Group 1532" transform="translate(0 90.681)">
        <g id="Group_1531" data-name="Group 1531">
          <path id="Path_2846" data-name="Path 2846" d="M829.7,644.23a6.368,6.368,0,0,1-4.036-1.37,1.011,1.011,0,0,0-1.445.173,6.214,6.214,0,0,1-4.994,2.5,6.036,6.036,0,0,1-1.178-.112A6.232,6.232,0,0,1,829.7,644.23Z" transform="translate(-747.605 -640.71)" fill="#a1cc3a"/>
          <path id="Path_2847" data-name="Path 2847" d="M830.03,654.505a6.226,6.226,0,0,1-12.43.524,8.312,8.312,0,0,0,7.307-2.439,8.406,8.406,0,0,0,5.084,1.218A5.568,5.568,0,0,1,830.03,654.505Z" transform="translate(-747.317 -648.297)" fill="#a1cc3a"/>
          <path id="Path_2848" data-name="Path 2848" d="M728.7,644.23a6.3,6.3,0,0,1-4.04-1.373,1.022,1.022,0,0,0-.759-.217,1,1,0,0,0-.687.4,6.249,6.249,0,0,1-6.172,2.381A6.234,6.234,0,0,1,728.7,644.23Z" transform="translate(-683.095 -640.71)" fill="#a1cc3a"/>
          <path id="Path_2849" data-name="Path 2849" d="M729.028,654.505a6.23,6.23,0,0,1-12.438.524,8.456,8.456,0,0,0,7.314-2.439,8.448,8.448,0,0,0,5.084,1.218A6.347,6.347,0,0,1,729.028,654.505Z" transform="translate(-682.807 -648.297)" fill="#a1cc3a"/>
          <path id="Path_2850" data-name="Path 2850" d="M635.534,654.505a6.228,6.228,0,0,1-12.434.52,7.977,7.977,0,0,0,1.355.112,8.157,8.157,0,0,0,5.959-2.548,8.33,8.33,0,0,0,5.081,1.218A6.347,6.347,0,0,1,635.534,654.505Z" transform="translate(-623.1 -648.297)" fill="#a1cc3a"/>
          <path id="Path_2851" data-name="Path 2851" d="M635.2,644.23a6.248,6.248,0,0,1-4.04-1.377,1.016,1.016,0,0,0-1.445.184,6.156,6.156,0,0,1-4.976,2.493,5.944,5.944,0,0,1-1.2-.116A6.235,6.235,0,0,1,635.2,644.23Z" transform="translate(-623.381 -640.71)" fill="#a1cc3a"/>
        </g>
      </g>
      <g id="Group_1533" data-name="Group 1533" transform="translate(5.144 69.02)">
        <path id="Path_2852" data-name="Path 2852" d="M709.126,598.468a1.011,1.011,0,0,1-1.011-1.01v-13.9l-68.76-.764V597.13a1.01,1.01,0,1,1-2.02,0V581.776a1.01,1.01,0,0,1,.3-.719,1.152,1.152,0,0,1,.722-.292l70.78.787a1.011,1.011,0,0,1,1,1.01v14.9A1.011,1.011,0,0,1,709.126,598.468Z" transform="translate(-637.335 -580.766)" fill="#fff"/>
      </g>
      <g id="Group_1534" data-name="Group 1534" transform="translate(40.266 53.367)">
        <path id="Path_2853" data-name="Path 2853" d="M735.544,562.956a1.011,1.011,0,0,1-1.011-1.01V538.459a1.011,1.011,0,0,1,2.022,0v23.486A1.011,1.011,0,0,1,735.544,562.956Z" transform="translate(-734.533 -537.449)" fill="#fff"/>
      </g>
    </g>
    <path id="Rectangle_183" data-name="Rectangle 183" d="M9.272,0h0a9.272,9.272,0,0,1,9.272,9.272v4.874a0,0,0,0,1,0,0H0a0,0,0,0,1,0,0V9.272A9.272,9.272,0,0,1,9.272,0Z" transform="translate(614.645 497.614)" fill="#a1cc3a"/>
    <path id="Rectangle_184" data-name="Rectangle 184" d="M9.272,0h0a9.272,9.272,0,0,1,9.272,9.272v4.874a0,0,0,0,1,0,0H0a0,0,0,0,1,0,0V9.272A9.272,9.272,0,0,1,9.272,0Z" transform="translate(648.43 497.614)" fill="#a1cc3a"/>
    <path id="Rectangle_185" data-name="Rectangle 185" d="M9.272,0h0a9.272,9.272,0,0,1,9.272,9.272v4.874a0,0,0,0,1,0,0H0a0,0,0,0,1,0,0V9.272A9.272,9.272,0,0,1,9.272,0Z" transform="translate(684.926 497.614)" fill="#a1cc3a"/>
  </g>
</svg>
