<svg xmlns="http://www.w3.org/2000/svg" width="655.705" height="529.8" viewBox="0 0 655.705 529.8">
  <g id="Group_908" data-name="Group 908" transform="translate(-145.742 -15.562)">
    <g id="Group_849" data-name="Group 849" transform="translate(267.159 15.562)">
      <g id="Group_845" data-name="Group 845" transform="translate(68.523 77.798)">
        <circle id="Ellipse_17" data-name="Ellipse 17" cx="39.423" cy="39.423" r="39.423" transform="translate(0 55.752) rotate(-45)" fill="#54c5ce"/>
      </g>
      <g id="Group_846" data-name="Group 846" transform="translate(0 9.198)">
        <path id="Path_1153" data-name="Path 1153" d="M409.857,130.7c.288,2.027.542,4.418.712,7.058a91.014,91.014,0,0,0-9.342-34.615L424.64,76.595l-46.03-41.87L355.254,60.012a90.65,90.65,0,0,0-45.22-6.57,91.5,91.5,0,0,1,14.128-.483L312.788,19.332,253.54,38.352q5.284,16.889,10.566,33.78c.278-.217.607-.456.9-.683A90.886,90.886,0,0,0,241.578,98c1.315-2.266,2.593-4.269,3.745-5.941l-34.546-8.175-15.268,60.322,34.244,8.944c-.229-2.2-.4-4.814-.456-7.709a90.63,90.63,0,0,0,23.734,59.412,91.3,91.3,0,0,1-15.353-22.482q-12.113,12.973-24.229,25.944l44.815,43.171,24.526-25.08a90.45,90.45,0,0,0,38.55,7.958c-2.615.041-4.987-.022-7.009-.146q5.4,16.907,10.8,33.817l59.561-18.01Q379.7,233.05,374.7,216.071l-.073.054a91.373,91.373,0,0,0,23.946-27.061c-.681,1.178-1.347,2.293-1.966,3.274q17.416,3.429,34.829,6.863l12.974-60.856ZM232.095,121.2l-.083.32c.015-.051.022-.1.034-.154S232.08,121.256,232.095,121.2Zm8.741-21.882c-.368.654-.722,1.313-1.071,1.971C240.124,100.606,240.478,99.955,240.836,99.316Zm-2.21,4.2c-.173.349-.337.7-.5,1.049C238.292,104.21,238.458,103.856,238.626,103.512Zm-1.92,4.15c-.054.122-.1.242-.154.364C236.6,107.906,236.655,107.781,236.706,107.662Zm-1.725,4.289-.024.071Zm-1.537,4.484-.049.161Zm-4.135,25.232c-.022.991-.037,1.984-.024,2.974Q229.27,143.2,229.309,141.667Zm1.7-15.678c-.027.134-.056.266-.083.4C230.956,126.255,230.985,126.123,231.012,125.989Zm-.771,4.494c-.029.2-.066.4-.093.605C230.175,130.888,230.211,130.683,230.241,130.483Zm-.49,3.994c-.039.4-.088.788-.122,1.183C229.663,135.272,229.711,134.87,229.75,134.477Zm-.288,3.586c-.044.7-.09,1.388-.117,2.081C229.372,139.466,229.419,138.766,229.462,138.063Zm181.266,3.552c-.027-1.161-.068-2.323-.139-3.481Q410.688,139.806,410.728,141.615Zm-118.38-84.4c-.115.037-.224.078-.339.115.093-.029.176-.066.268-.1Zm16.712-3.642c-1.066.129-2.132.266-3.194.434C306.962,53.83,308.014,53.7,309.061,53.569Zm-5.514.851c-.654.12-1.308.227-1.959.361C302.256,54.644,302.893,54.54,303.547,54.42Zm-35.5,14.824c-.7.49-1.4.983-2.091,1.493C266.607,70.254,267.315,69.754,268.044,69.244Zm19.71-10.422c-.2.078-.4.161-.605.239C287.352,58.98,287.55,58.9,287.755,58.821ZM283.4,60.61l-.559.251C283.026,60.778,283.209,60.692,283.4,60.61Zm-4.062,1.91c-.166.083-.329.168-.5.254C279.006,62.688,279.167,62.6,279.335,62.52ZM275.6,64.5c-.168.1-.334.2-.5.29C275.266,64.691,275.427,64.6,275.6,64.5Zm-3.45,2.032c-.159.1-.312.2-.471.3C271.84,66.731,271.987,66.631,272.15,66.531Zm49.5,167.828c1.222-.022,2.442-.076,3.662-.146Q323.4,234.326,321.647,234.359Zm23.973-3.686c.285-.085.576-.161.859-.246-.066.02-.129.044-.2.066C346.056,230.56,345.844,230.606,345.62,230.672Zm-19.174,3.462q1.442-.1,2.879-.254C328.339,233.983,327.385,234.068,326.446,234.134Zm4.543-.442c.808-.1,1.613-.21,2.418-.329C332.584,233.485,331.784,233.595,330.989,233.693Zm4.594-.681q1.014-.179,2.027-.376C336.925,232.77,336.254,232.895,335.583,233.012Zm4.782-.969c.534-.122,1.069-.244,1.6-.376C341.426,231.8,340.9,231.921,340.365,232.043Zm31.328-13.811c.815-.566,1.625-1.139,2.423-1.732Q372.992,217.334,371.693,218.232Zm-2.864,1.893c.417-.266.834-.527,1.247-.8C369.675,219.591,369.251,219.857,368.829,220.125Zm5.931-32.775a70.057,70.057,0,1,1-11.025-98.462A70.058,70.058,0,0,1,374.76,187.35Zm25.6-1.544c-.461.881-.915,1.718-1.366,2.518C399.467,187.489,399.916,186.65,400.36,185.806Zm8.385-23.165c.02-.09.037-.178.054-.268-.012.063-.02.12-.032.181Zm-7.519,21.491c.217-.434.417-.871.627-1.308C401.643,183.264,401.435,183.71,401.226,184.132Zm9.5-38.648c.015-.83.024-1.657.019-2.484C410.753,143.814,410.745,144.636,410.728,145.485ZM409.609,158c.044-.276.085-.554.127-.832C409.694,157.442,409.652,157.717,409.609,158Zm.593-4.411c.046-.427.093-.854.132-1.281C410.292,152.728,410.248,153.153,410.2,153.585Zm.359-4.155c.039-.6.076-1.205.1-1.808Q410.62,148.515,410.56,149.43Z" transform="translate(-195.509 -19.332)" fill="#54c5ce"/>
      </g>
      <g id="Group_847" data-name="Group 847" transform="translate(225.449)">
        <path id="Path_1154" data-name="Path 1154" d="M406.79,53.951c.861.939,1.832,2.081,2.847,3.379a56.673,56.673,0,0,0-16.976-14.521l2.708-21.892-38.4-5.355q-1.559,10.613-3.12,21.223A56.486,56.486,0,0,0,328.27,49.3a56.987,56.987,0,0,1,7.1-5.214l-17.676-13.3L293.9,61.407q8.655,6.829,17.312,13.662c.068-.21.151-.449.224-.668a56.709,56.709,0,0,0-2.715,21.9c-.122-1.63-.168-3.111-.163-4.374l-20.645,7.941,13.355,36.4q10.379-3.722,20.759-7.441c-.888-1.049-1.9-2.335-2.945-3.806a56.469,56.469,0,0,0,33.1,22.218,56.833,56.833,0,0,1-15.8-6.168q-1.672,10.935-3.342,21.867l38.233,6.451,3.8-21.526A56.382,56.382,0,0,0,397.7,138.4c-1.332.939-2.574,1.742-3.657,2.388q8.721,6.8,17.446,13.6L435.8,124.181q-8.538-6.975-17.078-13.955l-.02.054a56.9,56.9,0,0,0,2.8-22.34c.066.844.115,1.652.139,2.376l20.33-8.717L427.254,45.729Q417.022,49.839,406.79,53.951ZM312,111.565l.071.193-.037-.09Zm-3.2-14.331q.062.7.144,1.391C308.891,98.149,308.845,97.688,308.8,97.234Zm.339,2.937c.034.239.073.478.11.715C309.216,100.647,309.177,100.405,309.142,100.171Zm.471,2.811c.017.078.034.159.051.239C309.648,103.14,309.63,103.06,309.613,102.982Zm.622,2.811.012.046Zm.786,2.847.032.1Zm6.743,14.436c.339.517.681,1.032,1.035,1.537C318.457,124.122,318.113,123.607,317.764,123.075Zm-4.635-8.666c.034.078.066.156.1.234C313.195,114.568,313.163,114.488,313.129,114.409Zm1.183,2.584c.056.115.107.229.166.344C314.422,117.225,314.368,117.108,314.312,116.993Zm1.152,2.227c.119.217.232.437.354.651C315.7,119.66,315.583,119.438,315.464,119.221Zm1.112,1.947c.225.371.442.744.673,1.11C317.025,121.921,316.8,121.543,316.576,121.167Zm94.5-61.91c-.422-.588-.852-1.171-1.3-1.742Q410.419,58.339,411.074,59.257Zm-90.574-1.8c-.046.059-.09.12-.134.178.037-.049.068-.1.1-.144Zm7.317-7.751c-.505.442-1.005.888-1.491,1.347C326.828,50.584,327.321,50.145,327.816,49.711Zm-2.537,2.376c-.3.293-.593.578-.881.876C324.693,52.658,324.984,52.38,325.279,52.087ZM312.226,72.2c-.188.5-.376,1-.549,1.5C311.843,73.222,312.031,72.717,312.226,72.2ZM318.7,59.906c-.076.11-.151.224-.227.334C318.55,60.128,318.623,60.018,318.7,59.906Zm-1.613,2.452-.2.324C316.957,62.575,317.02,62.468,317.089,62.358Zm-1.417,2.41c-.056.1-.11.2-.166.3ZM314.446,67.1c-.054.107-.1.217-.158.324C314.341,67.316,314.39,67.211,314.446,67.1Zm-1.061,2.257c-.046.1-.09.215-.137.322C313.3,69.57,313.336,69.467,313.385,69.358Zm84.473,68.932q.933-.662,1.835-1.364Q398.748,137.654,397.858,138.289ZM408.9,127.962c.117-.144.239-.283.356-.427-.029.034-.051.068-.078.1C409.08,127.752,408.988,127.85,408.9,127.962Zm-8.646,8.524q.706-.56,1.393-1.142Q400.935,135.941,400.249,136.486Zm2.181-1.825q.571-.5,1.127-1.017C403.179,134,402.806,134.332,402.43,134.661Zm2.125-1.966c.3-.3.61-.6.91-.905C405.16,132.1,404.857,132.4,404.555,132.7Zm2.118-2.179c.234-.251.466-.5.693-.756C407.134,130.019,406.9,130.265,406.672,130.516Zm11.259-18.12c.222-.578.437-1.156.639-1.744Q418.286,111.479,417.932,112.4Zm-.805,1.981c.12-.283.244-.566.359-.851C417.373,113.8,417.249,114.09,417.127,114.378Zm-8.476-18.947a43.652,43.652,0,1,1-40.289-46.774A43.651,43.651,0,0,1,408.651,95.431Zm12.628-9.8c.073.617.134,1.205.183,1.776C421.411,86.816,421.347,86.226,421.279,85.635ZM417.446,70.77l-.066-.156.046.1Zm3.689,13.7c-.041-.3-.09-.6-.137-.893C421.045,83.876,421.1,84.179,421.135,84.469Zm-8.7-23.221c-.283-.432-.568-.861-.864-1.283C411.859,60.38,412.145,60.806,412.435,61.248Zm3.823,6.829-.227-.471C416.107,67.762,416.182,67.918,416.258,68.077ZM415.011,65.6c-.127-.237-.251-.473-.381-.705C414.758,65.127,414.885,65.361,415.011,65.6Zm-1.276-2.264c-.193-.324-.386-.647-.583-.966C413.348,62.688,413.54,63.01,413.736,63.336Z" transform="translate(-287.917 -15.562)" fill="#54c5ce"/>
      </g>
      <g id="Group_848" data-name="Group 848" transform="translate(270.047 44.378)">
        <path id="Path_1155" data-name="Path 1155" d="M361.82,58.969c.159.52.322,1.137.476,1.82a24.158,24.158,0,0,0-3.865-8.688l5.05-7.917L349.7,35.094l-5.087,7.583A24.034,24.034,0,0,0,332.5,42.8a24.358,24.358,0,0,1,3.682-.705l-4.355-8.346-14.75,7.407,4.15,8.422c.066-.068.142-.144.21-.217a24.17,24.17,0,0,0-5.055,7.919c.251-.649.505-1.225.739-1.71l-9.388-.732L306.2,71.275l9.339.944c-.149-.566-.3-1.244-.434-2a24.042,24.042,0,0,0,8.649,14.6,24.251,24.251,0,0,1-4.943-5.265l-5.287,7.79,13.509,9.481q2.7-3.788,5.4-7.575a24.009,24.009,0,0,0,10.427.51c-.683.117-1.308.2-1.842.249q2.1,4.208,4.213,8.419L360.1,91.271,356.1,82.78l-.017.017a24.14,24.14,0,0,0,3.621-4.826,23.9,23.9,0,0,0,1.547-3.247c-.129.337-.259.656-.381.939l9.41.373.91-16.478Zm-46.977,4.779-.007.088,0-.041Zm1.4-6.092c-.068.185-.134.373-.2.561C316.107,58.025,316.173,57.839,316.239,57.656Zm-.407,1.191-.088.3C315.773,59.042,315.8,58.944,315.831,58.847Zm-.332,1.166-.027.1Zm-.278,1.193,0,.022ZM315,62.445l0,.044Zm-.051,6.782c.034.259.071.52.115.781C315.024,69.757,314.987,69.5,314.951,69.228Zm-.2-4.179,0,.107Zm-.017,1.21c0,.054,0,.107,0,.161C314.736,66.366,314.738,66.312,314.738,66.259Zm.034,1.066c0,.1.01.21.017.315C314.782,67.537,314.777,67.43,314.773,67.325Zm.071.951c.017.183.034.368.054.549C314.878,68.647,314.86,68.462,314.843,68.276Zm47.65-6.482c-.054-.3-.112-.605-.178-.908C362.379,61.177,362.437,61.479,362.493,61.794Zm-34.476-17.28-.085.044.068-.034Zm4.231-1.637c-.273.078-.547.156-.82.244C331.709,43.03,331.98,42.952,332.248,42.877Zm-1.41.449c-.166.059-.334.112-.5.176C330.509,43.438,330.672,43.384,330.838,43.325Zm-8.7,5.338c-.163.156-.327.315-.488.476C321.806,48.986,321.97,48.827,322.141,48.664Zm4.74-3.54c-.051.029-.1.061-.151.088Zm-1.071.649-.134.088Zm-.986.666-.12.088Zm-.9.671-.12.1Zm-.82.673c-.039.032-.076.066-.112.1C323.033,47.849,323.068,47.817,323.107,47.783Zm19.835,41.961c.32-.056.637-.12.954-.188C343.566,89.626,343.246,89.69,342.942,89.743Zm6.131-1.947.217-.1-.051.024C349.182,87.748,349.129,87.77,349.073,87.8Zm-4.882,1.691c.249-.056.5-.12.744-.183C344.681,89.37,344.432,89.431,344.191,89.487Zm1.171-.3c.207-.059.415-.122.62-.185C345.772,89.068,345.567,89.129,345.362,89.187Zm1.176-.368c.173-.059.346-.117.517-.181C346.879,88.7,346.709,88.763,346.538,88.819Zm1.215-.449c.134-.054.271-.107.4-.163C348.021,88.265,347.887,88.316,347.753,88.37Zm7.644-4.9c.193-.181.381-.364.566-.551C355.789,83.093,355.6,83.276,355.4,83.468Zm-.671.615c.1-.088.2-.173.293-.261C354.925,83.908,354.825,84,354.725,84.083Zm.212-8.832A18.582,18.582,0,1,1,348.021,49.9,18.583,18.583,0,0,1,354.938,75.252Zm6.646-1.452c-.083.249-.168.488-.254.715C361.42,74.278,361.5,74.039,361.583,73.8Zm1.252-6.414,0-.073v.049Zm-1.093,5.938c.039-.122.076-.244.112-.368C361.818,73.08,361.781,73.2,361.742,73.324Zm.91-10.518c-.029-.217-.061-.434-.1-.649C362.591,62.367,362.623,62.585,362.652,62.807Zm.22,3.325c0-.073,0-.149,0-.222C362.872,65.983,362.872,66.059,362.872,66.132Zm-.027-1.181c0-.112-.01-.227-.017-.339C362.835,64.724,362.84,64.836,362.845,64.951Zm-.076-1.1c-.015-.159-.029-.32-.046-.478C362.74,63.529,362.754,63.687,362.769,63.848Z" transform="translate(-306.197 -33.752)" fill="#54c5ce"/>
      </g>
    </g>
    <g id="Group_850" data-name="Group 850" transform="translate(569.336 200.684)">
      <rect id="Rectangle_107" data-name="Rectangle 107" width="210" height="236.607" transform="translate(210 236.607) rotate(180)" fill="#cac0cc"/>
    </g>
    <g id="Group_851" data-name="Group 851" transform="translate(578.876 220.42)">
      <rect id="Rectangle_108" data-name="Rectangle 108" width="210" height="236.607" transform="translate(210 236.607) rotate(180)" fill="#ded9df"/>
    </g>
    <g id="Group_852" data-name="Group 852" transform="translate(588.416 236.423)">
      <rect id="Rectangle_109" data-name="Rectangle 109" width="210" height="236.607" transform="translate(210 236.607) rotate(180)" fill="#f7ffff"/>
    </g>
    <g id="Group_853" data-name="Group 853" transform="translate(174.776 234.925)">
      <rect id="Rectangle_110" data-name="Rectangle 110" width="394.56" height="262.047" fill="#344a5f"/>
    </g>
    <g id="Group_854" data-name="Group 854" transform="translate(187.876 247.581)">
      <rect id="Rectangle_111" data-name="Rectangle 111" width="367.315" height="236.736" fill="#fff"/>
    </g>
    <g id="Group_855" data-name="Group 855" transform="translate(145.742 496.228)">
      <path id="Path_1156" data-name="Path 1156" d="M599.859,252.78H145.742l29.778-40.2H570.08Z" transform="translate(-145.742 -212.58)" fill="#466177"/>
    </g>
    <g id="Group_856" data-name="Group 856" transform="translate(163.609 502.184)">
      <path id="Path_1157" data-name="Path 1157" d="M571.448,243.124H153.065l19.991-28.1H552.947Z" transform="translate(-153.065 -215.021)" fill="#344a5f"/>
    </g>
    <g id="Group_857" data-name="Group 857" transform="translate(145.742 536.429)">
      <rect id="Rectangle_112" data-name="Rectangle 112" width="454.116" height="8.933" fill="#344a5f"/>
    </g>
    <g id="Group_858" data-name="Group 858" transform="translate(175.52 507.747)">
      <rect id="Rectangle_113" data-name="Rectangle 113" width="393.815" height="2.44" fill="#466177"/>
    </g>
    <g id="Group_859" data-name="Group 859" transform="translate(163.609 517.341)">
      <rect id="Rectangle_114" data-name="Rectangle 114" width="418.382" height="2.44" fill="#466177"/>
    </g>
    <g id="Group_860" data-name="Group 860" transform="translate(370.829 496.93)">
      <rect id="Rectangle_115" data-name="Rectangle 115" width="21.601" height="2.441" transform="matrix(0.035, -0.999, 0.999, 0.035, 0, 21.588)" fill="#466177"/>
    </g>
    <g id="Group_861" data-name="Group 861" transform="translate(385.717 496.93)">
      <rect id="Rectangle_116" data-name="Rectangle 116" width="21.601" height="2.441" transform="matrix(0.035, -0.999, 0.999, 0.035, 0, 21.588)" fill="#466177"/>
    </g>
    <g id="Group_862" data-name="Group 862" transform="translate(401.359 496.931)">
      <rect id="Rectangle_117" data-name="Rectangle 117" width="2.441" height="21.601" transform="matrix(0.999, -0.034, 0.034, 0.999, 0, 0.084)" fill="#466177"/>
    </g>
    <g id="Group_863" data-name="Group 863" transform="translate(414.766 496.847)">
      <path id="Path_1158" data-name="Path 1158" d="M261.252,246.574l-2.978-11.727-2.264-21.762,2.426-.253,2.232,21.588,2.947,11.553Z" transform="translate(-256.011 -212.833)" fill="#466177"/>
    </g>
    <g id="Group_864" data-name="Group 864" transform="translate(428.175 496.766)">
      <path id="Path_1159" data-name="Path 1159" d="M268.993,246.691l-3.721-11.727-3.764-21.75,2.407-.414,3.724,21.588,3.681,11.565Z" transform="translate(-261.507 -212.8)" fill="#466177"/>
    </g>
    <g id="Group_865" data-name="Group 865" transform="translate(441.593 496.687)">
      <path id="Path_1160" data-name="Path 1160" d="M275.963,246.738l-3.722-11.727-5.234-21.672,2.373-.572,5.21,21.588,3.7,11.644Z" transform="translate(-267.007 -212.768)" fill="#466177"/>
    </g>
    <g id="Group_866" data-name="Group 866" transform="translate(456.482 496.687)">
      <path id="Path_1161" data-name="Path 1161" d="M282.835,246.8l-4.467-11.727-5.258-21.736,2.373-.572,5.211,21.588,4.419,11.579Z" transform="translate(-273.109 -212.768)" fill="#466177"/>
    </g>
    <g id="Group_867" data-name="Group 867" transform="translate(471.37 496.687)">
      <path id="Path_1162" data-name="Path 1162" d="M290.479,246.921l-6.056-11.994-5.211-21.588,2.373-.572,5.177,21.45,5.89,11.6Z" transform="translate(-279.212 -212.768)" fill="#466177"/>
    </g>
    <g id="Group_868" data-name="Group 868" transform="translate(486.259 496.687)">
      <path id="Path_1163" data-name="Path 1163" d="M295.04,246.8l-4.465-11.727-5.261-21.736,2.373-.572,5.213,21.588,4.417,11.579Z" transform="translate(-285.314 -212.768)" fill="#466177"/>
    </g>
    <g id="Group_869" data-name="Group 869" transform="translate(501.149 496.687)">
      <path id="Path_1164" data-name="Path 1164" d="M301.911,246.864,296.7,235.137l-5.282-21.8,2.373-.572L299,234.356l5.139,11.517Z" transform="translate(-291.418 -212.768)" fill="#466177"/>
    </g>
    <g id="Group_870" data-name="Group 870" transform="translate(516.059 496.611)">
      <path id="Path_1165" data-name="Path 1165" d="M309.5,246.368l-5.21-11.167-6.759-21.741,2.33-.724,6.7,21.588,5.151,11.014Z" transform="translate(-297.529 -212.736)" fill="#466177"/>
    </g>
    <g id="Group_871" data-name="Group 871" transform="translate(530.972 496.539)">
      <path id="Path_1166" data-name="Path 1166" d="M318.611,247.061l-6.7-11.727-8.27-21.76,2.282-.867,8.189,21.588,6.619,11.555Z" transform="translate(-303.642 -212.707)" fill="#466177"/>
    </g>
    <g id="Group_872" data-name="Group 872" transform="translate(545.889 496.475)">
      <path id="Path_1167" data-name="Path 1167" d="M327.737,247.192l-8.191-11.727-9.79-21.788,2.225-1,9.678,21.588,8.079,11.527Z" transform="translate(-309.756 -212.681)" fill="#466177"/>
    </g>
    <g id="Group_873" data-name="Group 873" transform="translate(356.692 496.931)">
      <rect id="Rectangle_118" data-name="Rectangle 118" width="2.441" height="21.601" transform="translate(0 0.084) rotate(-1.972)" fill="#466177"/>
    </g>
    <g id="Group_874" data-name="Group 874" transform="translate(341.05 496.93)">
      <rect id="Rectangle_119" data-name="Rectangle 119" width="21.601" height="2.441" transform="matrix(0.035, -0.999, 0.999, 0.035, 0, 21.588)" fill="#466177"/>
    </g>
    <g id="Group_875" data-name="Group 875" transform="translate(326.161 496.93)">
      <rect id="Rectangle_120" data-name="Rectangle 120" width="21.601" height="2.441" transform="matrix(0.035, -0.999, 0.999, 0.035, 0, 21.588)" fill="#466177"/>
    </g>
    <g id="Group_876" data-name="Group 876" transform="translate(311.272 496.93)">
      <rect id="Rectangle_121" data-name="Rectangle 121" width="21.601" height="2.441" transform="matrix(0.035, -0.999, 0.999, 0.035, 0, 21.588)" fill="#466177"/>
    </g>
    <g id="Group_877" data-name="Group 877" transform="translate(296.383 496.93)">
      <rect id="Rectangle_122" data-name="Rectangle 122" width="21.601" height="2.441" transform="matrix(0.035, -0.999, 0.999, 0.035, 0, 21.588)" fill="#466177"/>
    </g>
    <g id="Group_878" data-name="Group 878" transform="translate(278.561 496.766)">
      <path id="Path_1168" data-name="Path 1168" d="M202.546,246.622l-2.364-.6,2.978-11.727,3.7-21.5,2.407.414L205.546,234.8Z" transform="translate(-200.183 -212.8)" fill="#466177"/>
    </g>
    <g id="Group_879" data-name="Group 879" transform="translate(262.227 496.687)">
      <path id="Path_1169" data-name="Path 1169" d="M195.765,246.8l-2.278-.867,4.467-11.727,5.163-21.44,2.373.572-5.21,21.588Z" transform="translate(-193.487 -212.768)" fill="#466177"/>
    </g>
    <g id="Group_880" data-name="Group 880" transform="translate(245.901 496.687)">
      <path id="Path_1170" data-name="Path 1170" d="M188.969,246.921l-2.173-1.105,5.89-11.6,5.177-21.45,2.373.572-5.311,21.855Z" transform="translate(-186.796 -212.768)" fill="#466177"/>
    </g>
    <g id="Group_881" data-name="Group 881" transform="translate(231.011 496.687)">
      <path id="Path_1171" data-name="Path 1171" d="M182.87,246.921l-2.178-1.105,5.889-11.6,5.18-21.45,2.373.572-5.311,21.855Z" transform="translate(-180.692 -212.768)" fill="#466177"/>
    </g>
    <g id="Group_882" data-name="Group 882" transform="translate(213.917 496.611)">
      <path id="Path_1172" data-name="Path 1172" d="M175.8,247.019l-2.118-1.21,6.634-11.61,6.659-21.462,2.33.724-6.8,21.831Z" transform="translate(-173.686 -212.736)" fill="#466177"/>
    </g>
    <g id="Group_883" data-name="Group 883" transform="translate(196.824 496.539)">
      <path id="Path_1173" data-name="Path 1173" d="M168.741,247.108,166.68,245.8l7.379-11.622,8.145-21.474,2.28.867-8.3,21.807Z" transform="translate(-166.68 -212.707)" fill="#466177"/>
    </g>
    <g id="Group_884" data-name="Group 884" transform="translate(180.446 496.475)">
      <path id="Path_1174" data-name="Path 1174" d="M162.025,247.146l-2.058-1.305,7.446-11.727,9.594-21.433,2.225,1-9.678,21.588Z" transform="translate(-159.967 -212.681)" fill="#466177"/>
    </g>
    <g id="Group_885" data-name="Group 885" transform="translate(236.565 282.818)">
      <rect id="Rectangle_123" data-name="Rectangle 123" width="263.536" height="150.876" rx="12" fill="#293e65"/>
    </g>
    <g id="Group_886" data-name="Group 886" transform="translate(262.877 301.621)">
      <path id="Path_1175" data-name="Path 1175" d="M193.754,133.016h3.913v14.626h.137c.81-1.171,1.62-2.249,2.386-3.24l9.271-11.386h4.862L203.34,145.885l11.838,17.463h-4.635l-9.993-14.9-2.881,3.33v11.567h-3.913Z" transform="translate(-193.754 -132.521)" fill="#fff"/>
      <path id="Path_1176" data-name="Path 1176" d="M219.458,149.128H207.664v10.937h13.143v3.284H203.751V133.016h16.383V136.3H207.664v9.586h11.794Z" transform="translate(-179.361 -132.521)" fill="#fff"/>
      <path id="Path_1177" data-name="Path 1177" d="M221.3,163.349V150.477l-9.583-17.461h4.455l4.274,8.368c1.171,2.3,2.069,4.143,3.016,6.258h.09c.856-1.981,1.891-3.96,3.059-6.258l4.367-8.368h4.455l-10.171,17.415v12.918Z" transform="translate(-167.89 -132.521)" fill="#fff"/>
      <path id="Path_1178" data-name="Path 1178" d="M229.965,163.349l-7.7-30.333h4.14l3.6,15.346c.9,3.779,1.71,7.561,2.249,10.486h.09c.5-3.016,1.439-6.614,2.476-10.53l4.05-15.3h4.1l3.691,15.39c.854,3.6,1.664,7.2,2.115,10.4h.09c.629-3.33,1.483-6.707,2.43-10.486l4.006-15.3h4l-8.6,30.333h-4.1l-3.825-15.8a91.474,91.474,0,0,1-1.981-9.9h-.088a95.36,95.36,0,0,1-2.342,9.9l-4.318,15.8Z" transform="translate(-152.702 -132.521)" fill="#fff"/>
      <path id="Path_1179" data-name="Path 1179" d="M265.985,148.161c0,10.439-6.348,15.975-14.087,15.975-8.014,0-13.638-6.211-13.638-15.392,0-9.632,5.987-15.931,14.087-15.931C260.63,132.813,265.985,139.159,265.985,148.161Zm-23.538.493c0,6.482,3.508,12.289,9.673,12.289,6.212,0,9.725-5.719,9.725-12.6,0-6.031-3.152-12.333-9.678-12.333C245.686,136.007,242.447,141.994,242.447,148.654Z" transform="translate(-129.678 -132.813)" fill="#fff"/>
      <path id="Path_1180" data-name="Path 1180" d="M251.707,133.555a40.782,40.782,0,0,1,7.514-.632c4.186,0,6.887.764,8.778,2.476a7.553,7.553,0,0,1,2.384,5.76,7.965,7.965,0,0,1-5.716,7.741v.134c2.34.81,3.738,2.972,4.457,6.121.991,4.233,1.71,7.158,2.342,8.327h-4.052c-.5-.854-1.171-3.467-2.027-7.244-.9-4.187-2.518-5.763-6.075-5.9H255.62v13.14h-3.913Zm3.913,13.816h4.006c4.187,0,6.843-2.3,6.843-5.763,0-3.913-2.835-5.624-6.978-5.67a15.955,15.955,0,0,0-3.872.361Z" transform="translate(-110.318 -132.655)" fill="#fff"/>
      <path id="Path_1181" data-name="Path 1181" d="M261.63,133.555a55.879,55.879,0,0,1,8.324-.632c5.628,0,9.632,1.305,12.289,3.782,2.7,2.474,4.274,5.987,4.274,10.893,0,4.95-1.53,9-4.365,11.791-2.835,2.835-7.517,4.365-13.414,4.365a62.669,62.669,0,0,1-7.109-.361Zm3.913,26.825a24.994,24.994,0,0,0,3.962.224c8.371,0,12.916-4.682,12.916-12.874.046-7.153-4-11.7-12.286-11.7a22.317,22.317,0,0,0-4.592.4Z" transform="translate(-96.032 -132.655)" fill="#fff"/>
      <path id="Path_1182" data-name="Path 1182" d="M274.276,158.872a13.9,13.9,0,0,0,7.022,1.981c4.006,0,6.348-2.115,6.348-5.177,0-2.837-1.622-4.457-5.719-6.031-4.95-1.757-8.01-4.321-8.01-8.6,0-4.728,3.913-8.236,9.81-8.236a13.775,13.775,0,0,1,6.707,1.483l-1.081,3.2a12.076,12.076,0,0,0-5.76-1.439c-4.143,0-5.716,2.474-5.716,4.545,0,2.835,1.847,4.231,6.033,5.85,5.128,1.981,7.739,4.457,7.739,8.912,0,4.682-3.464,8.732-10.62,8.732a15.706,15.706,0,0,1-7.744-1.935Z" transform="translate(-79.251 -132.813)" fill="#fff"/>
    </g>
    <g id="Group_887" data-name="Group 887" transform="translate(258.898 344.36)">
      <path id="Path_1183" data-name="Path 1183" d="M401.812,167.207H200.562a8.465,8.465,0,0,1-8.439-8.439h0a8.463,8.463,0,0,1,8.439-8.437h201.25a8.461,8.461,0,0,1,8.436,8.437h0A8.463,8.463,0,0,1,401.812,167.207Z" transform="translate(-192.123 -150.331)" fill="#697894"/>
    </g>
    <g id="Group_888" data-name="Group 888" transform="translate(258.898 344.36)">
      <path id="Path_1184" data-name="Path 1184" d="M327.366,167.207h-126.8a8.465,8.465,0,0,1-8.439-8.439h0a8.463,8.463,0,0,1,8.439-8.437h126.8a8.461,8.461,0,0,1,8.437,8.437h0A8.463,8.463,0,0,1,327.366,167.207Z" transform="translate(-192.123 -150.331)" fill="#00afaa"/>
    </g>
    <g id="Group_889" data-name="Group 889" transform="translate(258.898 374.139)">
      <path id="Path_1185" data-name="Path 1185" d="M401.812,179.41H200.562a8.463,8.463,0,0,1-8.439-8.437h0a8.463,8.463,0,0,1,8.439-8.437h201.25a8.461,8.461,0,0,1,8.436,8.437h0A8.461,8.461,0,0,1,401.812,179.41Z" transform="translate(-192.123 -162.537)" fill="#697894"/>
    </g>
    <g id="Group_890" data-name="Group 890" transform="translate(258.898 374.139)">
      <path id="Path_1186" data-name="Path 1186" d="M275.007,179.41H200.562a8.463,8.463,0,0,1-8.439-8.437h0a8.463,8.463,0,0,1,8.439-8.437h74.445a8.461,8.461,0,0,1,8.437,8.437h0A8.461,8.461,0,0,1,275.007,179.41Z" transform="translate(-192.123 -162.537)" fill="#00afaa"/>
    </g>
    <g id="Group_891" data-name="Group 891" transform="translate(258.898 403.916)">
      <path id="Path_1187" data-name="Path 1187" d="M401.812,191.618H200.562a8.463,8.463,0,0,1-8.439-8.437h0a8.464,8.464,0,0,1,8.439-8.439h201.25a8.462,8.462,0,0,1,8.436,8.439h0A8.461,8.461,0,0,1,401.812,191.618Z" transform="translate(-192.123 -174.742)" fill="#697894"/>
    </g>
    <g id="Group_892" data-name="Group 892" transform="translate(258.898 403.916)">
      <path id="Path_1188" data-name="Path 1188" d="M353.422,191.618H200.562a8.463,8.463,0,0,1-8.439-8.437h0a8.464,8.464,0,0,1,8.439-8.439h152.86a8.462,8.462,0,0,1,8.436,8.439h0A8.461,8.461,0,0,1,353.422,191.618Z" transform="translate(-192.123 -174.742)" fill="#00afaa"/>
    </g>
    <g id="Group_895" data-name="Group 895" transform="translate(198.329 265.781)">
      <g id="Group_893" data-name="Group 893">
        <path id="Path_1189" data-name="Path 1189" d="M230.4,277.761l-8.266-.063.066-8.783,4.823.037.059-7.751-8.956-.068.044-5.682-15.975-.122.522-68.717,8.68.066.051-6.858h0a32.034,32.034,0,1,0-24.678-.188l-.405,0-.051,6.858,9.083.068-.756,99.718,3.457.027,3.862.027,28.374.217ZM194.051,131a5.425,5.425,0,1,1,5.382,5.467A5.421,5.421,0,0,1,194.051,131Z" transform="translate(-167.297 -118.123)" fill="#ffbe01"/>
      </g>
      <g id="Group_894" data-name="Group 894">
        <path id="Path_1190" data-name="Path 1190" d="M230.4,277.761l-8.266-.063.066-8.783,4.823.037.059-7.751-8.956-.068.044-5.682-15.975-.122.522-68.717,8.68.066.051-6.858h0a32.044,32.044,0,0,0,19.92-29.418c0-.249-.01-.5-.012-.742a27.859,27.859,0,1,1-6.521-18.881,32.033,32.033,0,1,0-38.064,48.853l-.405,0-.051,6.858,9.083.068-.756,99.718,3.457.027,3.862.027,28.374.217Z" transform="translate(-167.297 -118.123)" fill="#f9a600"/>
      </g>
    </g>
    <g id="Group_896" data-name="Group 896" transform="translate(569.336 300.611)">
      <path id="Path_1191" data-name="Path 1191" d="M338.447,352.489,319.366,328.8V132.4l19.08,9.869Z" transform="translate(-319.366 -132.399)" fill="#ff6f00"/>
    </g>
    <g id="Group_897" data-name="Group 897" transform="translate(588.416 310.498)">
      <rect id="Rectangle_124" data-name="Rectangle 124" width="213.031" height="210.203" transform="translate(213.031 210.203) rotate(180)" fill="#f6bf58"/>
    </g>
    <g id="Group_898" data-name="Group 898" transform="translate(642.297 321.219)">
      <path id="Path_1192" data-name="Path 1192" d="M445.79,158.351H358.023a8.752,8.752,0,0,1-8.751-8.754h0a8.751,8.751,0,0,1,8.751-8.751H445.79a8.751,8.751,0,0,1,8.751,8.751h0A8.752,8.752,0,0,1,445.79,158.351Z" transform="translate(-349.272 -140.846)" fill="#ff6f00"/>
    </g>
    <g id="Group_899" data-name="Group 899" transform="translate(734.996 496.227)">
      <path id="Path_1193" data-name="Path 1193" d="M400.006,218.949a6.369,6.369,0,1,1-6.37-6.37A6.37,6.37,0,0,1,400.006,218.949Z" transform="translate(-387.268 -212.579)" fill="#ff6f00"/>
    </g>
    <g id="Group_900" data-name="Group 900" transform="translate(754.733 496.227)">
      <path id="Path_1194" data-name="Path 1194" d="M408.1,218.949a6.369,6.369,0,1,1-6.368-6.37A6.37,6.37,0,0,1,408.1,218.949Z" transform="translate(-395.358 -212.579)" fill="#ff6f00"/>
    </g>
    <g id="Group_901" data-name="Group 901" transform="translate(774.471 496.227)">
      <path id="Path_1195" data-name="Path 1195" d="M416.186,218.949a6.369,6.369,0,1,1-6.368-6.37A6.368,6.368,0,0,1,416.186,218.949Z" transform="translate(-403.448 -212.579)" fill="#ff6f00"/>
    </g>
    <g id="Group_902" data-name="Group 902" transform="translate(694.931 282.818)">
      <rect id="Rectangle_125" data-name="Rectangle 125" width="27.679" height="27.679" transform="translate(0)" fill="#e74f41"/>
    </g>
    <g id="Group_903" data-name="Group 903" transform="translate(729.241 266.105)">
      <rect id="Rectangle_126" data-name="Rectangle 126" width="23.659" height="44.392" fill="#e74f41"/>
    </g>
    <g id="Group_904" data-name="Group 904" transform="translate(763.551 276.814)">
      <rect id="Rectangle_127" data-name="Rectangle 127" width="23.658" height="33.683" transform="translate(0)" fill="#e74f41"/>
    </g>
    <g id="Group_905" data-name="Group 905" transform="translate(599.859 253.973)">
      <rect id="Rectangle_128" data-name="Rectangle 128" width="74.477" height="12.785" fill="#cac0cc"/>
    </g>
    <g id="Group_906" data-name="Group 906" transform="translate(599.859 273.712)">
      <rect id="Rectangle_129" data-name="Rectangle 129" width="74.477" height="12.785" fill="#cac0cc"/>
    </g>
    <g id="Group_907" data-name="Group 907" transform="translate(599.859 293.45)">
      <rect id="Rectangle_130" data-name="Rectangle 130" width="74.477" height="12.785" fill="#cac0cc"/>
    </g>
  </g>
</svg>
