<svg xmlns="http://www.w3.org/2000/svg" width="114.088" height="123.3" viewBox="0 0 114.088 123.3">
  <g id="Group_1539" data-name="Group 1539" transform="translate(-331.879 -226.124)">
    <g id="Group_1537" data-name="Group 1537" transform="translate(332.555 238.112)">
      <path id="Path_2854" data-name="Path 2854" d="M610.066,575.871c3.145,5.119,4.125,9.519,2.369,12.56-4.877,8.4-28.667,3.958-55.5-9.671,3.24-1.637,6.54-3.408,9.841-5.319a188.229,188.229,0,0,0,24.953-17.082l.227.274a102.5,102.5,0,0,1,14.487,14.18,3.061,3.061,0,0,0-1.222,2.461,3.111,3.111,0,0,0,3.117,3.117A3.192,3.192,0,0,0,610.066,575.871Z" transform="translate(-500.572 -484.906)" fill="none" stroke="#000" stroke-linecap="round" stroke-linejoin="round" stroke-width="1.3"/>
      <path id="Path_2855" data-name="Path 2855" d="M752.275,611.352a3.108,3.108,0,0,1,1.727,5.7,3.192,3.192,0,0,1-1.727.521,3.11,3.11,0,0,1-3.117-3.117,3.061,3.061,0,0,1,1.222-2.461A3.118,3.118,0,0,1,752.275,611.352Z" transform="translate(-644.508 -526.085)" fill="none" stroke="#000" stroke-linecap="round" stroke-linejoin="round" stroke-width="1.3"/>
      <path id="Path_2856" data-name="Path 2856" d="M734.883,403a3.479,3.479,0,0,1-.031.4,3.107,3.107,0,0,1-6.187-.4v-.032a3.109,3.109,0,0,1,6.218.032Z" transform="translate(-629.163 -367.749)" fill="none" stroke="#000" stroke-linecap="round" stroke-linejoin="round" stroke-width="1.3"/>
      <path id="Path_2857" data-name="Path 2857" d="M516.024,294.587a22.641,22.641,0,0,1-9.793,18.644v4.079H480.453v-4.079a22.673,22.673,0,1,1,35.571-18.644Zm-20.916-1.145,2.3-.3a3.914,3.914,0,0,0-1.1-2.17,3.984,3.984,0,0,0-2.309-.978V289.1h-1.314v.886a3.711,3.711,0,0,0-2.459,1.161,3.531,3.531,0,0,0-.932,2.491,3.874,3.874,0,0,0,.813,2.49,4.951,4.951,0,0,0,2.579,1.528v3.776a2.5,2.5,0,0,1-.867-.75,3.189,3.189,0,0,1-.554-1.254l-2.352.292a4.77,4.77,0,0,0,1.254,2.719,4.18,4.18,0,0,0,2.519,1.162v1.649H494v-1.68a4.4,4.4,0,0,0,2.767-1.392,3.911,3.911,0,0,0,1.012-2.752,3.7,3.7,0,0,0-.8-2.4A6.025,6.025,0,0,0,494,295.521V291.99A1.825,1.825,0,0,1,495.108,293.442Z" transform="translate(-435.977 -271.912)" fill="none" stroke="#000" stroke-linecap="round" stroke-linejoin="round" stroke-width="1.3"/>
      <path id="Path_2858" data-name="Path 2858" d="M535.388,488.711v4.171H509.61v-4.171Z" transform="translate(-465.134 -434.251)" fill="none" stroke="#000" stroke-linecap="round" stroke-linejoin="round" stroke-width="1.3"/>
      <rect id="Rectangle_186" data-name="Rectangle 186" width="25.777" height="4.339" transform="translate(44.476 50.12)" fill="none" stroke="#000" stroke-linecap="round" stroke-linejoin="round" stroke-width="1.3"/>
      <rect id="Rectangle_187" data-name="Rectangle 187" width="25.777" height="4.722" transform="translate(44.476 45.398)" fill="none" stroke="#000" stroke-linecap="round" stroke-linejoin="round" stroke-width="1.3"/>
      <path id="Path_2859" data-name="Path 2859" d="M544.3,505.315v7.61H527.488v-7.61Z" transform="translate(-478.521 -446.684)" fill="none" stroke="#000" stroke-linecap="round" stroke-linejoin="round" stroke-width="1.3"/>
      <rect id="Rectangle_188" data-name="Rectangle 188" width="5.41" height="6.616" transform="translate(54.668 66.24)" fill="none" stroke="#000" stroke-linecap="round" stroke-linejoin="round" stroke-width="1.3"/>
      <path id="Path_2860" data-name="Path 2860" d="M564.75,376.617a1.579,1.579,0,0,1,.351,1.024,1.847,1.847,0,0,1-.426,1.194,2.042,2.042,0,0,1-1.119.64v-3.545A2.355,2.355,0,0,1,564.75,376.617Z" transform="translate(-505.529 -349.802)" fill="none" stroke="#000" stroke-linecap="round" stroke-linejoin="round" stroke-width="1.3"/>
      <path id="Path_2861" data-name="Path 2861" d="M554.957,351.72v3.131a2.039,2.039,0,0,1-.856-.672,1.472,1.472,0,0,1-.274-.887,1.607,1.607,0,0,1,.306-.963A1.7,1.7,0,0,1,554.957,351.72Z" transform="translate(-498.244 -331.672)" fill="none" stroke="#000" stroke-linecap="round" stroke-linejoin="round" stroke-width="1.3"/>
      <path id="Path_2862" data-name="Path 2862" d="M377.031,422.235V432.58h-.155a187.447,187.447,0,0,0-22.689,15.741l-.015.015c-15.864-12.975-24.511-25.519-20.738-32.045,2.326-4.049,9.046-5.105,18.385-3.606a3.23,3.23,0,0,0-.047.565,3.118,3.118,0,0,0,6.159.689,128.159,128.159,0,0,1,18.688,6.325h.413Z" transform="translate(-332.555 -376.838)" fill="none" stroke="#000" stroke-linecap="round" stroke-linejoin="round" stroke-width="1.3"/>
      <path id="Path_2863" data-name="Path 2863" d="M409.1,407.011a3.12,3.12,0,0,1,6.188.565,3.384,3.384,0,0,1-.076.689,3.118,3.118,0,0,1-6.159-.689A3.23,3.23,0,0,1,409.1,407.011Z" transform="translate(-389.836 -371.163)" fill="none" stroke="#000" stroke-linecap="round" stroke-linejoin="round" stroke-width="1.3"/>
      <path id="Path_2864" data-name="Path 2864" d="M359.36,690.794a1.078,1.078,0,0,1-.017.231,3.1,3.1,0,0,1-6.186-.231,3.42,3.42,0,0,1,.075-.7,3.1,3.1,0,0,1,6.128.7Z" transform="translate(-347.982 -583.25)" fill="none" stroke="#000" stroke-linecap="round" stroke-linejoin="round" stroke-width="1.3"/>
    </g>
    <g id="Group_1538" data-name="Group 1538" transform="translate(332.555 226.774)">
      <path id="Path_2865" data-name="Path 2865" d="M484.944,330.542h-4.491V313.231a22.682,22.682,0,1,1,25.777,0v17.312h-4.479" transform="translate(-435.977 -260.573)" fill="#a1cc3a"/>
      <path id="Path_2866" data-name="Path 2866" d="M337.792,544.917a7.7,7.7,0,0,1-4.356-3.316c-3.773-6.509,4.889-19.039,20.738-32.026l.015-.015a187.449,187.449,0,0,1,22.689-15.741" transform="translate(-332.557 -426.737)" fill="none" stroke="#fff" stroke-linecap="round" stroke-linejoin="round" stroke-width="1.3"/>
      <path id="Path_2867" data-name="Path 2867" d="M472.177,413.833c2.918.61,5.028,1.864,6.158,3.8,3.759,6.509-4.877,19.04-20.7,32a188.22,188.22,0,0,1-24.954,17.082c-3.3,1.911-6.6,3.683-9.841,5.319-17.939,9.106-34.505,14.119-44.986,13.922" transform="translate(-366.472 -366.844)" fill="none" stroke="#fff" stroke-linecap="round" stroke-linejoin="round" stroke-width="1.3"/>
      <path id="Path_2868" data-name="Path 2868" d="M613.2,419.564c11.337-4.569,21.485-7.169,29.005-7.443" transform="translate(-542.701 -365.562)" fill="none" stroke="#fff" stroke-linecap="round" stroke-linejoin="round" stroke-width="1.3"/>
      <path id="Path_2869" data-name="Path 2869" d="M710.839,571.63a102.5,102.5,0,0,0-14.487-14.18" transform="translate(-604.967 -474.385)" fill="none" stroke="#fff" stroke-linecap="round" stroke-linejoin="round" stroke-width="1.3"/>
      <path id="Path_2870" data-name="Path 2870" d="M351.818,412.686c-9.339-1.5-16.059-.443-18.385,3.606-3.773,6.526,4.874,19.069,20.738,32.045a188.141,188.141,0,0,0,24.9,17.036c3.3,1.911,6.6,3.683,9.842,5.319,26.832,13.629,50.622,18.076,55.5,9.671,1.756-3.041.776-7.442-2.369-12.56" transform="translate(-332.555 -365.499)" fill="none" stroke="#fff" stroke-linecap="round" stroke-linejoin="round" stroke-width="1.3"/>
      <path id="Path_2871" data-name="Path 2871" d="M452.257,425.937a128.158,128.158,0,0,0-18.688-6.325" transform="translate(-408.194 -371.171)" fill="none" stroke="#fff" stroke-linecap="round" stroke-linejoin="round" stroke-width="1.3"/>
      <line id="Line_47" data-name="Line 47" y2="7.67" transform="translate(55.981)" fill="none" stroke="#fff" stroke-linecap="round" stroke-linejoin="round" stroke-width="1.3"/>
      <line id="Line_48" data-name="Line 48" x1="1.971" y2="7.428" transform="translate(65.198 1.13)" fill="none" stroke="#fff" stroke-linecap="round" stroke-linejoin="round" stroke-width="1.3"/>
      <line id="Line_49" data-name="Line 49" x1="3.817" y2="6.662" transform="translate(73.861 5.134)" fill="none" stroke="#fff" stroke-linecap="round" stroke-linejoin="round" stroke-width="1.3"/>
      <line id="Line_50" data-name="Line 50" x2="3.834" y2="6.648" transform="translate(34.635 6.402)" fill="none" stroke="#fff" stroke-linecap="round" stroke-linejoin="round" stroke-width="1.3"/>
      <line id="Line_51" data-name="Line 51" x2="1.971" y2="7.411" transform="translate(44.902 1.804)" fill="none" stroke="#fff" stroke-linecap="round" stroke-linejoin="round" stroke-width="1.3"/>
      <path id="Path_2872" data-name="Path 2872" d="M497.629,321.232l-4.646,1.817-1.266-2.216,3.894-3.1a12.415,12.415,0,0,1-.717-2.677l-4.937-.732v-2.568l4.937-.749a12.332,12.332,0,0,1,.717-2.675l-3.894-3.1,1.266-2.219,4.646,1.821a12.447,12.447,0,0,1,1.955-1.94l-1.819-4.646,2.217-1.283,3.1,3.879a15.743,15.743,0,0,1,2.692-.717l.732-4.92h2.568l.734,4.92a14.145,14.145,0,0,1,2.687.717l3.105-3.879,2.213,1.283-1.819,4.646a11.521,11.521,0,0,1,1.943,1.94l4.646-1.821,1.281,2.219-3.9,3.1a12.039,12.039,0,0,1,.7,2.675l4.952.749v2.552l-4.952.747a12.117,12.117,0,0,1-.7,2.677l3.9,3.1-1.281,2.216-4.646-1.817" transform="translate(-450.419 -278.017)" fill="none" stroke="#fff" stroke-linecap="round" stroke-linejoin="round" stroke-width="1.3"/>
      <path id="Path_2873" data-name="Path 2873" d="M496.407,452.637h32.426" transform="translate(-455.248 -395.901)" fill="none" stroke="#fff" stroke-linecap="round" stroke-linejoin="round" stroke-width="1.3"/>
      <path id="Path_2874" data-name="Path 2874" d="M496.407,471.436h32.426" transform="translate(-455.248 -409.977)" fill="none" stroke="#fff" stroke-linecap="round" stroke-linejoin="round" stroke-width="1.3"/>
      <path id="Path_2875" data-name="Path 2875" d="M496.407,488.711h32.426" transform="translate(-455.248 -422.913)" fill="none" stroke="#fff" stroke-linecap="round" stroke-linejoin="round" stroke-width="1.3"/>
      <path id="Path_2876" data-name="Path 2876" d="M533.189,512.925h-5.7v-7.61H544.3v7.61h-5.7" transform="translate(-478.521 -435.346)" fill="none" stroke="#fff" stroke-linecap="round" stroke-linejoin="round" stroke-width="1.3"/>
      <rect id="Rectangle_189" data-name="Rectangle 189" width="5.41" height="6.616" transform="translate(54.668 77.579)" fill="none" stroke="#fff" stroke-linecap="round" stroke-linejoin="round" stroke-width="1.3"/>
      <path id="Path_2877" data-name="Path 2877" d="M409.1,407.011a3.12,3.12,0,0,1,6.188.565,3.384,3.384,0,0,1-.076.689,3.118,3.118,0,0,1-6.159-.689A3.23,3.23,0,0,1,409.1,407.011Z" transform="translate(-389.836 -359.824)" fill="none" stroke="#fff" stroke-linecap="round" stroke-linejoin="round" stroke-width="1.3"/>
      <path id="Path_2878" data-name="Path 2878" d="M750.38,611.992A3.113,3.113,0,1,1,754,617.05a3.192,3.192,0,0,1-1.727.521,3.11,3.11,0,0,1-3.117-3.117A3.061,3.061,0,0,1,750.38,611.992Z" transform="translate(-644.508 -514.747)" fill="none" stroke="#fff" stroke-linecap="round" stroke-linejoin="round" stroke-width="1.3"/>
      <path id="Path_2879" data-name="Path 2879" d="M353.232,690.091a3.1,3.1,0,0,1,6.128.7,1.078,1.078,0,0,1-.017.231,3.1,3.1,0,0,1-6.186-.231A3.42,3.42,0,0,1,353.232,690.091Z" transform="translate(-347.982 -571.911)" fill="none" stroke="#fff" stroke-linecap="round" stroke-linejoin="round" stroke-width="1.3"/>
      <path id="Path_2880" data-name="Path 2880" d="M728.665,402.969a3.109,3.109,0,0,1,6.218.032,3.479,3.479,0,0,1-.031.4,3.107,3.107,0,0,1-6.187-.4Z" transform="translate(-629.163 -356.41)" fill="none" stroke="#fff" stroke-linecap="round" stroke-linejoin="round" stroke-width="1.3"/>
    </g>
    <path id="Path_2881" data-name="Path 2881" d="M551.8,344.38l-2.3.3a1.825,1.825,0,0,0-1.1-1.451v3.531a6.025,6.025,0,0,1,2.983,1.511,3.7,3.7,0,0,1,.8,2.4,3.911,3.911,0,0,1-1.012,2.752,4.4,4.4,0,0,1-2.767,1.392v1.68h-1.314v-1.649a4.18,4.18,0,0,1-2.519-1.162,4.77,4.77,0,0,1-1.254-2.719l2.352-.292a3.189,3.189,0,0,0,.554,1.254,2.5,2.5,0,0,0,.867.75V348.9a4.951,4.951,0,0,1-2.578-1.528,3.874,3.874,0,0,1-.813-2.49,3.531,3.531,0,0,1,.932-2.491,3.711,3.711,0,0,1,2.459-1.161v-.886h1.314v.886a3.984,3.984,0,0,1,2.309.978A3.915,3.915,0,0,1,551.8,344.38ZM549.938,351a1.579,1.579,0,0,0-.351-1.024,2.355,2.355,0,0,0-1.194-.686v3.545a2.041,2.041,0,0,0,1.119-.64A1.847,1.847,0,0,0,549.938,351Zm-2.859-4.661V343.2a1.7,1.7,0,0,0-.824.609,1.607,1.607,0,0,0-.306.963,1.472,1.472,0,0,0,.274.887A2.038,2.038,0,0,0,547.079,346.334Z" transform="translate(-157.811 -85.043)" fill="#fff"/>
  </g>
</svg>
