<svg xmlns="http://www.w3.org/2000/svg" width="41.472" height="45" viewBox="0 0 41.472 45">
  <g id="Group_1544" data-name="Group 1544" transform="translate(-674.208 -700.105)">
    <g id="Group_1543" data-name="Group 1543" transform="translate(674.208 700.105)">
      <g id="Group_1542" data-name="Group 1542">
        <path id="Path_2896" data-name="Path 2896" d="M698.415,720.571l5.945-5.608-26.43-14.531a2.756,2.756,0,0,0-1.21-.328Z" transform="translate(-673.77 -700.105)" fill="#a1cc3a"/>
        <path id="Path_2897" data-name="Path 2897" d="M674.563,701.326a2.8,2.8,0,0,0-.355,1.359V742.1a2.8,2.8,0,0,0,.355,1.359L696.8,722.392Z" transform="translate(-674.208 -699.892)" fill="#a1cc3a"/>
        <path id="Path_2898" data-name="Path 2898" d="M710.09,717.633l-6.655-3.658-6.487,6.119,6.487,6.12,6.655-3.659A2.808,2.808,0,0,0,710.09,717.633Z" transform="translate(-670.072 -697.594)" fill="#a1cc3a"/>
        <path id="Path_2899" data-name="Path 2899" d="M698.415,720.839,676.721,741.3a2.769,2.769,0,0,0,1.21-.326l26.43-14.532Z" transform="translate(-673.77 -696.304)" fill="#a1cc3a"/>
      </g>
    </g>
  </g>
</svg>
