<svg xmlns="http://www.w3.org/2000/svg" xmlns:xlink="http://www.w3.org/1999/xlink" width="751.313" height="569.609" viewBox="0 0 751.313 569.609">
  <defs>
    <linearGradient id="linear-gradient" x1="0.5" y1="0.825" x2="0.5" y2="0.245" gradientUnits="objectBoundingBox">
      <stop offset="0" stop-color="#3c57ab"/>
      <stop offset="1" stop-color="#6582db"/>
    </linearGradient>
    <linearGradient id="linear-gradient-2" x1="0.5" y1="0.401" x2="0.5" y2="0.079" xlink:href="#linear-gradient"/>
    <linearGradient id="linear-gradient-3" x1="0" y1="0.5" x2="1" y2="0.5" xlink:href="#linear-gradient"/>
    <linearGradient id="linear-gradient-4" x1="0.5" y1="0.697" x2="0.5" y2="0.371" xlink:href="#linear-gradient"/>
  </defs>
  <g id="Group_844" data-name="Group 844" transform="translate(-351.027 -137.359)">
    <g id="Group_843" data-name="Group 843" transform="translate(351.027 137.359)">
      <g id="Group_842" data-name="Group 842">
        <g id="Group_815" data-name="Group 815" transform="translate(599.307 192.896)">
          <path id="Path_1059" data-name="Path 1059" d="M679.956,317.574c.565-18.356,7.929-33.982-1.547-50.267-8.99-15.443-19.859-14.225-17.6-31.144s-8.453-25.118-24.225-25.118-26.479,8.2-24.225,25.118-8.618,15.7-17.6,31.144c-9.476,16.285-2.112,31.911-1.55,50.267s-13.238,24.194-13.238,60.079c0,30.374,16.055,59.469,56.618,59.469S693.2,408.028,693.2,377.653C693.2,341.768,679.393,335.928,679.956,317.574Z" transform="translate(-579.961 -211.045)" fill="#d99b00"/>
          <g id="Group_810" data-name="Group 810" transform="translate(55.004 36.536)">
            <rect id="Rectangle_98" data-name="Rectangle 98" width="3.226" height="339.563" fill="#9c6d00"/>
          </g>
          <g id="Group_811" data-name="Group 811" transform="translate(28.545 52.011)">
            <path id="Path_1060" data-name="Path 1060" d="M617.983,268.934a78.294,78.294,0,0,1-27.118-37.1l3.089-.924c.063.209,6.547,21.191,25.937,35.422Z" transform="translate(-590.865 -230.913)" fill="#9c6d00"/>
          </g>
          <g id="Group_812" data-name="Group 812" transform="translate(55.731 66.72)">
            <path id="Path_1061" data-name="Path 1061" d="M603.022,284.192,601.25,281.5c22.212-14.66,32.094-44.668,32.191-44.971l3.068.99C636.1,238.8,626.174,268.917,603.022,284.192Z" transform="translate(-601.25 -236.532)" fill="#9c6d00"/>
          </g>
          <g id="Group_813" data-name="Group 813" transform="translate(12.618 124.344)">
            <path id="Path_1062" data-name="Path 1062" d="M628.174,298.937c-34.728-14.065-43.055-38.354-43.393-39.382l3.063-1.01c.079.238,8.283,23.935,41.542,37.4Z" transform="translate(-584.781 -258.544)" fill="#9c6d00"/>
          </g>
          <g id="Group_814" data-name="Group 814" transform="translate(56.443 150.218)">
            <path id="Path_1063" data-name="Path 1063" d="M601.87,309.352l-.348-3.207c28.086-3.052,44.139-37.372,44.3-37.717l2.93,1.346C648.069,271.255,631.758,306.1,601.87,309.352Z" transform="translate(-601.522 -268.428)" fill="#9c6d00"/>
          </g>
        </g>
        <path id="Path_1064" data-name="Path 1064" d="M436.912,181.674a45.426,45.426,0,1,0,5.251,70.765l25.063,4.995-13.746-21.545A45.416,45.416,0,0,0,436.912,181.674Z" transform="translate(-327.06 -78.501)" fill="#ffd261"/>
        <path id="Path_1065" data-name="Path 1065" d="M404.6,216.965a5.85,5.85,0,0,0-2.72.694L386.7,206.7a6.061,6.061,0,0,0,.094-.953,6,6,0,0,0-.094-.953l15.186-10.966a5.82,5.82,0,0,0,2.72.7,5.886,5.886,0,1,0-5.885-5.887,6,6,0,0,0,.094.953l-15.186,10.966a5.821,5.821,0,0,0-2.72-.7,5.886,5.886,0,1,0,0,11.772,5.807,5.807,0,0,0,2.717-.694L398.811,221.9a5.994,5.994,0,0,0-.094.95,5.886,5.886,0,1,0,5.885-5.885Z" transform="translate(-312.213 -63.928)" fill="#fff"/>
        <path id="Path_1066" data-name="Path 1066" d="M652.643,164.122H550.121a15.2,15.2,0,0,0-15.2,15.2v24.539a15.2,15.2,0,0,0,15.2,15.2h34.314l11.435,15.67v-15.67h56.773a15.2,15.2,0,0,0,15.2-15.2V179.318A15.2,15.2,0,0,0,652.643,164.122Z" transform="translate(-53.513 -94.061)" fill="#fff"/>
        <g id="Group_816" data-name="Group 816" transform="translate(502.985 85.194)">
          <path id="Path_1067" data-name="Path 1067" d="M555.111,187.334a.626.626,0,0,1-.2.463.635.635,0,0,1-.466.2h-1.861a.64.64,0,0,1-.466-.2.633.633,0,0,1-.194-.463v-6.22a3.743,3.743,0,0,0-.683-2.348,2.88,2.88,0,0,0-4.149,0,3.5,3.5,0,0,0-.749,2.348v6.22a.625.625,0,0,1-.2.463.635.635,0,0,1-.464.2h-1.861a.635.635,0,0,1-.466-.2.623.623,0,0,1-.194-.463v-16.06a.666.666,0,0,1,.66-.66h1.861a.67.67,0,0,1,.66.66v5.215a5.452,5.452,0,0,1,1.495-1.052,4.592,4.592,0,0,1,2.029-.416,5.909,5.909,0,0,1,2.5.466,4.267,4.267,0,0,1,1.615,1.246,4.735,4.735,0,0,1,.869,1.825,9.042,9.042,0,0,1,.259,2.191Z" transform="translate(-543.166 -168.753)" fill="#d99b00"/>
          <path id="Path_1068" data-name="Path 1068" d="M554.87,183.392a1.751,1.751,0,0,0,.4,1.212,1.98,1.98,0,0,0,1.505.453h1.492a.67.67,0,0,1,.662.66v1.618a.671.671,0,0,1-.662.66h-1.809a5.111,5.111,0,0,1-3.536-1.113,4.373,4.373,0,0,1-1.236-3.416V178.2h-1.615a.628.628,0,0,1-.466-.194.635.635,0,0,1-.2-.466v-1.615a.671.671,0,0,1,.662-.662h1.615v-3.99a.666.666,0,0,1,.66-.66h1.861a.671.671,0,0,1,.66.66v3.99h3.16a.67.67,0,0,1,.66.662v1.615a.635.635,0,0,1-.2.466.627.627,0,0,1-.463.194h-3.16Z" transform="translate(-533.061 -168.753)" fill="#d99b00"/>
          <path id="Path_1069" data-name="Path 1069" d="M559.91,183.392a1.752,1.752,0,0,0,.4,1.212,1.984,1.984,0,0,0,1.505.453h1.495a.671.671,0,0,1,.66.66v1.618a.671.671,0,0,1-.66.66H561.5a5.112,5.112,0,0,1-3.537-1.113,4.373,4.373,0,0,1-1.236-3.416V178.2h-1.615a.629.629,0,0,1-.466-.194.635.635,0,0,1-.2-.466v-1.615a.67.67,0,0,1,.662-.662h1.615v-3.99a.666.666,0,0,1,.66-.66h1.861a.671.671,0,0,1,.66.66v3.99h3.16a.67.67,0,0,1,.66.662v1.615a.635.635,0,0,1-.2.466.627.627,0,0,1-.463.194h-3.16Z" transform="translate(-524.907 -168.753)" fill="#d99b00"/>
          <path id="Path_1070" data-name="Path 1070" d="M566.822,185.517a5.818,5.818,0,0,1-1.361-.147,5.413,5.413,0,0,1-1.052-.369,4.088,4.088,0,0,1-1.283-.955v5.217a.671.671,0,0,1-.662.66H560.6a.639.639,0,0,1-.466-.2.631.631,0,0,1-.194-.463V173.2a.633.633,0,0,1,.194-.466.639.639,0,0,1,.466-.2h1.862a.671.671,0,0,1,.662.662v.563a4.287,4.287,0,0,1,.513-.476,4.1,4.1,0,0,1,.77-.479,5.25,5.25,0,0,1,1.052-.367,5.819,5.819,0,0,1,1.361-.147,5.06,5.06,0,0,1,2.215.476,5.24,5.24,0,0,1,1.688,1.275,6.073,6.073,0,0,1,1.1,1.835,6.787,6.787,0,0,1,.453,2.165c.016.246.023.531.023.859s-.008.61-.023.856a6.789,6.789,0,0,1-.453,2.168,6.105,6.105,0,0,1-1.1,1.835,5.2,5.2,0,0,1-1.688,1.272A5.025,5.025,0,0,1,566.822,185.517Zm2.275-5.924a6.331,6.331,0,0,0,0-1.372,3.24,3.24,0,0,0-.979-2.288,3.055,3.055,0,0,0-2.031-.7,2.989,2.989,0,0,0-2.021.709,2.907,2.907,0,0,0-.94,2.034,8.272,8.272,0,0,0,0,1.859,2.854,2.854,0,0,0,2.961,2.741,3.066,3.066,0,0,0,2.031-.7A3.235,3.235,0,0,0,569.1,179.593Z" transform="translate(-516.026 -166.03)" fill="#d99b00"/>
          <path id="Path_1071" data-name="Path 1071" d="M569.546,172.559a.666.666,0,0,1,.662.66v2.4a.635.635,0,0,1-.2.466.643.643,0,0,1-.466.194h-2.275a.643.643,0,0,1-.466-.194.635.635,0,0,1-.2-.466v-2.4a.666.666,0,0,1,.662-.66Zm0,8.568a.666.666,0,0,1,.662.66v2.4a.625.625,0,0,1-.2.463.635.635,0,0,1-.466.2h-2.275a.635.635,0,0,1-.466-.2.625.625,0,0,1-.2-.463v-2.4a.666.666,0,0,1,.662-.66Z" transform="translate(-505.24 -165.606)" fill="#d99b00"/>
          <path id="Path_1072" data-name="Path 1072" d="M577.99,170.639a1.569,1.569,0,0,1,.369-.5.99.99,0,0,1,.709-.233h1.811a.546.546,0,0,1,.539.539.585.585,0,0,1-.05.22l-8.275,19.8a1.407,1.407,0,0,1-.343.49.984.984,0,0,1-.733.246H570.28a.522.522,0,0,1-.38-.16.516.516,0,0,1-.16-.38.625.625,0,0,1,.05-.22Z" transform="translate(-500.173 -169.903)" fill="#d99b00"/>
          <path id="Path_1073" data-name="Path 1073" d="M581.807,170.639a1.606,1.606,0,0,1,.367-.5,1,1,0,0,1,.712-.233h1.809a.528.528,0,0,1,.382.16.519.519,0,0,1,.157.38.63.63,0,0,1-.047.22l-8.278,19.8a1.433,1.433,0,0,1-.34.49,1,1,0,0,1-.735.246H574.1a.55.55,0,0,1-.539-.539.581.581,0,0,1,.052-.22Z" transform="translate(-494.001 -169.903)" fill="#d99b00"/>
        </g>
        <g id="Group_817" data-name="Group 817" transform="translate(312.309 70.28)">
          <path id="Path_1074" data-name="Path 1074" d="M568.03,198.581a23.921,23.921,0,0,0,5.749,8.628,23.742,23.742,0,0,0,33.047-.131,7,7,0,0,0,2.107-5.2h.021v-5.563H606a7.03,7.03,0,0,0-9,.67,9.719,9.719,0,1,1,0-13.914,7.04,7.04,0,0,0,11.953-5.1h0v-5.563h-2.78a23.781,23.781,0,0,0-38.144,9.076H511.252a23.953,23.953,0,0,0-5.623-8.505,23.692,23.692,0,0,0-32.521-.571h-2.78v5.563h.005a7.04,7.04,0,0,0,11.953,5.1,9.72,9.72,0,1,1,0,13.914,7.034,7.034,0,0,0-9.008-.67h-2.953v5.563h.021a7.012,7.012,0,0,0,2.107,5.2,23.748,23.748,0,0,0,34.982-1.961,23.929,23.929,0,0,0,3.814-6.537H568.03" transform="translate(-470.328 -160.936)" fill="#3c57ab"/>
          <path id="Path_1075" data-name="Path 1075" d="M597,194.968a9.72,9.72,0,1,1,0-13.911,7.044,7.044,0,1,0,9.827-10.094,23.8,23.8,0,0,0-38.8,8.5H511.252a23.966,23.966,0,0,0-5.623-8.5,23.734,23.734,0,0,0-33.17.005,7.042,7.042,0,1,0,9.827,10.089,9.721,9.721,0,1,1,0,13.916,7.043,7.043,0,1,0-9.832,10.086,23.806,23.806,0,0,0,38.8-8.5h56.778a23.909,23.909,0,0,0,5.749,8.631,23.742,23.742,0,0,0,33.047-.131A7.043,7.043,0,1,0,597,194.968Z" transform="translate(-470.327 -164.206)" fill="#6582db"/>
        </g>
        <g id="Group_818" data-name="Group 818" transform="translate(308.505 461.528)">
          <path id="Path_1076" data-name="Path 1076" d="M588.894,313.662H511.121c0,94.71-42.246,107.066-42.246,107.066H631.14S588.894,408.372,588.894,313.662Z" transform="translate(-468.875 -313.662)" fill="#3c57ab"/>
          <path id="Path_1077" data-name="Path 1077" d="M563.64,313.662H485.867a267.059,267.059,0,0,1-1.382,27.7l86.309,30.861C566.535,357.474,563.64,338.4,563.64,313.662Z" transform="translate(-443.621 -313.662)" opacity="0.2"/>
        </g>
        <g id="Group_823" data-name="Group 823" transform="translate(196.805 213.125)">
          <rect id="Rectangle_99" data-name="Rectangle 99" width="385.664" height="259.062" rx="5.312" fill="#3c57ab"/>
          <g id="Group_820" data-name="Group 820" transform="translate(19.801 19.221)">
            <rect id="Rectangle_100" data-name="Rectangle 100" width="346.062" height="220.619" rx="2.514" fill="#fff"/>
            <path id="Rectangle_101" data-name="Rectangle 101" d="M2.275,0H343.787a2.275,2.275,0,0,1,2.275,2.275V25.952a0,0,0,0,1,0,0H0a0,0,0,0,1,0,0V2.275A2.275,2.275,0,0,1,2.275,0Z" fill="#c3d4fb"/>
            <g id="Group_819" data-name="Group 819" transform="translate(17.252 7.25)">
              <circle id="Ellipse_9" data-name="Ellipse 9" cx="5.726" cy="5.726" r="5.726" fill="#6582db"/>
              <circle id="Ellipse_10" data-name="Ellipse 10" cx="5.726" cy="5.726" r="5.726" transform="translate(23.723)" fill="#6582db"/>
              <circle id="Ellipse_11" data-name="Ellipse 11" cx="5.726" cy="5.726" r="5.726" transform="translate(47.446)" fill="#6582db"/>
            </g>
          </g>
          <g id="Group_821" data-name="Group 821" transform="translate(72.126 146.04)">
            <rect id="Rectangle_102" data-name="Rectangle 102" width="175.332" height="13.473" rx="2.391" fill="#c3d4fb"/>
            <rect id="Rectangle_103" data-name="Rectangle 103" width="175.332" height="13.473" rx="2.391" transform="translate(0 25.094)" fill="#c3d4fb"/>
            <rect id="Rectangle_104" data-name="Rectangle 104" width="76.006" height="13.473" rx="2.391" transform="translate(0 50.187)" fill="#c3d4fb"/>
          </g>
          <g id="Group_822" data-name="Group 822" transform="translate(61.325 79.966)">
            <path id="Path_1078" data-name="Path 1078" d="M691.083,292.44H471.195a21.561,21.561,0,0,1-21.563-21.56h0a21.561,21.561,0,0,1,21.563-21.56H691.083a21.559,21.559,0,0,1,21.56,21.56h0A21.559,21.559,0,0,1,691.083,292.44Z" transform="translate(-449.632 -249.319)" fill="#6582db"/>
            <path id="Path_1079" data-name="Path 1079" d="M563.232,292.44H550.219a21.561,21.561,0,0,1-21.56-21.56h0a21.561,21.561,0,0,1,21.56-21.56h13.013a21.559,21.559,0,0,1,21.56,21.56h0A21.559,21.559,0,0,1,563.232,292.44Z" transform="translate(-321.781 -249.319)" fill="#3c57ab"/>
            <path id="Path_1080" data-name="Path 1080" d="M559.331,275.339l-7.924-7.927a9.184,9.184,0,1,0-1.681,1.686l7.924,7.922Zm-19.887-8.683a6.734,6.734,0,1,1,9.524,0A6.9,6.9,0,0,1,539.443,266.656Z" transform="translate(-311.366 -243.713)" fill="#fff"/>
          </g>
          <text id="search" transform="translate(127.257 105.002)" fill="#c3d4fb" font-size="21" font-family="Rubik-Italic, Rubik" font-style="italic" letter-spacing="0.2em"><tspan x="0" y="0">search</tspan></text>
        </g>
        <g id="Group_824" data-name="Group 824" transform="translate(84.153 502.798)">
          <path id="Path_1081" data-name="Path 1081" d="M652.475,395.224c-17.217-13.278-57.479-40.165-91.838-31.576-19.72-26.058-48.945-24.3-64.44-18.312-16.16-22.372-102.553-32.767-113.024,49.888Z" transform="translate(-383.173 -329.427)" fill="#5f9e7a"/>
          <path id="Path_1082" data-name="Path 1082" d="M513.689,395.224c17.215-13.278,57.479-40.165,91.836-31.576,19.72-26.058,48.948-24.3,64.443-18.312,16.16-22.372,102.55-32.767,113.024,49.888Z" transform="translate(-172.022 -329.427)" fill="#5f9e7a"/>
        </g>
        <g id="Group_830" data-name="Group 830" transform="translate(145.796 21.984)">
          <circle id="Ellipse_12" data-name="Ellipse 12" cx="57.514" cy="57.514" r="57.514" transform="translate(17.349 22.375)" opacity="0.2"/>
          <circle id="Ellipse_13" data-name="Ellipse 13" cx="54.724" cy="54.724" r="54.724" transform="translate(0 77.391) rotate(-45)" fill="#fff"/>
          <g id="Group_825" data-name="Group 825" transform="translate(34.47 34.469)">
            <path id="Path_1083" data-name="Path 1083" d="M462.81,244.77a42.923,42.923,0,1,1,42.922-42.922A42.971,42.971,0,0,1,462.81,244.77Zm0-73.985a31.062,31.062,0,1,0,31.06,31.063A31.1,31.1,0,0,0,462.81,170.785Z" transform="translate(-419.888 -158.924)" fill="#ff6344"/>
          </g>
          <g id="Group_826" data-name="Group 826" transform="translate(56.161 56.163)">
            <path id="Path_1084" data-name="Path 1084" d="M449.4,209.669a21.229,21.229,0,1,1,21.23-21.228A21.254,21.254,0,0,1,449.4,209.669Zm0-30.6a9.368,9.368,0,1,0,9.369,9.369A9.378,9.378,0,0,0,449.4,179.072Z" transform="translate(-428.174 -167.211)" fill="#ff6344"/>
          </g>
          <g id="Group_829" data-name="Group 829" transform="translate(76.424 30.096)">
            <path id="Path_1085" data-name="Path 1085" d="M508.545,160.9l-60.228,31.563a1.762,1.762,0,0,1-2.377-.743l-1.026-1.953-8.668,9.322a1.22,1.22,0,0,0,1.068,2.039l12.6-1.822-1.024-1.955a1.758,1.758,0,0,1,.744-2.377l60.228-31.563Z" transform="translate(-435.914 -151.351)" fill="#3c57ab"/>
            <g id="Group_827" data-name="Group 827" transform="translate(59.478)">
              <path id="Path_1086" data-name="Path 1086" d="M461.922,168.781l-3.287,1.723,1.279-9.553,3.287-1.722Z" transform="translate(-458.635 -154.06)" fill="#fff"/>
              <path id="Path_1087" data-name="Path 1087" d="M463.178,168.122l-3.287,1.723,1.279-9.553,3.287-1.723Z" transform="translate(-456.603 -155.124)" fill="#ff6344"/>
              <path id="Path_1088" data-name="Path 1088" d="M464.434,167.464l-3.287,1.723,1.279-9.553,3.287-1.723Z" transform="translate(-454.572 -156.189)" fill="#fff"/>
              <path id="Path_1089" data-name="Path 1089" d="M465.689,166.806l-3.287,1.723,1.279-9.552,3.287-1.723Z" transform="translate(-452.54 -157.254)" fill="#ff6344"/>
            </g>
            <g id="Group_828" data-name="Group 828" transform="translate(60.81 12.093)">
              <path id="Path_1090" data-name="Path 1090" d="M462.431,163.847l-3.287,1.723,8.583,4.385,3.288-1.723Z" transform="translate(-459.143 -158.679)" fill="#fff"/>
              <path id="Path_1091" data-name="Path 1091" d="M463.686,163.189l-3.287,1.723,8.583,4.385,3.287-1.723Z" transform="translate(-457.112 -159.744)" fill="#ff6344"/>
              <path id="Path_1092" data-name="Path 1092" d="M464.942,162.531l-3.287,1.723,8.583,4.385,3.287-1.723Z" transform="translate(-455.08 -160.809)" fill="#fff"/>
              <path id="Path_1093" data-name="Path 1093" d="M466.2,161.873l-3.287,1.723,8.583,4.385,3.287-1.723Z" transform="translate(-453.049 -161.873)" fill="#ff6344"/>
            </g>
          </g>
        </g>
        <g id="Group_831" data-name="Group 831" transform="translate(372.979 128.029)">
          <path id="Path_1094" data-name="Path 1094" d="M500.4,189.711a3.446,3.446,0,1,1-3.448-3.445A3.447,3.447,0,0,1,500.4,189.711Z" transform="translate(-493.504 -186.266)" fill="#fff"/>
          <path id="Path_1095" data-name="Path 1095" d="M500.4,199.717a3.446,3.446,0,1,1-3.448-3.448A3.447,3.447,0,0,1,500.4,199.717Z" transform="translate(-493.504 -170.083)" fill="#fff"/>
          <path id="Path_1096" data-name="Path 1096" d="M500.4,209.718a3.446,3.446,0,1,1-3.448-3.445A3.447,3.447,0,0,1,500.4,209.718Z" transform="translate(-493.504 -153.898)" fill="#fff"/>
        </g>
        <g id="Group_834" data-name="Group 834" transform="translate(423.286 144.626)">
          <path id="Path_1097" data-name="Path 1097" d="M566.382,328.939l4.456,42.649a6.872,6.872,0,0,1-3.474,6.723c-7.8,4.374-24.408,13.969-23.869,16.126.7,2.817,33.1,2.113,42.961-4.225s.351-10.916,0-22.183.351-39.089.351-39.089Z" transform="translate(-462.955 27.955)" fill="#ff927d"/>
          <path id="Path_1098" data-name="Path 1098" d="M586.456,361.835c7.581-4.874,3.717-8.72,1.364-15.356l-12.458,5.144a17.686,17.686,0,0,0-5.974-3.516,6.776,6.776,0,0,1-2.024,1.827c-7.8,4.374-24.408,13.969-23.869,16.126C544.2,368.877,576.594,368.173,586.456,361.835Z" transform="translate(-462.955 56.332)" fill="#3c57ab"/>
          <path id="Path_1099" data-name="Path 1099" d="M578.219,332.823l20.435,37.7a6.873,6.873,0,0,1-.639,7.539c-5.537,7.026-17.207,22.244-15.882,24.032,1.728,2.332,31.39-10.712,38.073-20.343s-3.851-10.22-8.487-20.495-14.631-36.249-14.631-36.249Z" transform="translate(-406.757 21.597)" fill="#ff927d"/>
          <g id="Group_832" data-name="Group 832" transform="translate(103.427 346.606)" opacity="0.2">
            <path id="Path_1100" data-name="Path 1100" d="M578.219,332.823,590.727,355.9l19.372,1.654c-5.005-11.736-13.01-32.542-13.01-32.542Z" transform="translate(-510.185 -325.009)"/>
            <path id="Path_1101" data-name="Path 1101" d="M552.23,328.939l1.448,13.851,18.668,1.594c.131-8.419.309-15.445.309-15.445Z" transform="translate(-552.23 -318.651)"/>
          </g>
          <path id="Path_1102" data-name="Path 1102" d="M617.852,355.774c5.141-7.4.1-9.476-4.613-14.707l-9.542,9.518a17.7,17.7,0,0,0-6.866-.963,6.779,6.779,0,0,1-1.17,2.463c-5.537,7.026-17.207,22.244-15.882,24.032C581.506,378.449,611.169,365.4,617.852,355.774Z" transform="translate(-404.403 47.576)" fill="#3c57ab"/>
          <path id="Path_1103" data-name="Path 1103" d="M581.82,254.417h46.066s11.34,12.325,9.228,35.212-1.408,61.272,4.929,73.246,11.27,20.424,10.212,30.987,15.93,17.835,15.537,34.181a32.036,32.036,0,0,0,4.623,17.995,6.586,6.586,0,0,1-5.5,10.154H554.359L549.513,388.9a131.848,131.848,0,0,1,3.678-41.765C560.259,319.145,573.061,271.213,581.82,254.417Z" transform="translate(-453.748 -92.607)" fill="#2e8253"/>
          <path id="Path_1104" data-name="Path 1104" d="M621.358,340.079a298.95,298.95,0,0,1,.008-50.448c2.113-22.888-9.228-35.215-9.228-35.215H566.072a142.074,142.074,0,0,0-7.165,17.61C563.394,291.581,577.6,328.924,621.358,340.079Z" transform="translate(-438.001 -92.609)" opacity="0.2"/>
          <path id="Path_1105" data-name="Path 1105" d="M594.679,223.029c-5.9,4.432-38.618,34.979-38.618,34.979l7.4-33.806-8.78-1.173s-26.785,45.9-9.885,52.762,48.773-28.7,48.773-28.7S602.66,233.652,594.679,223.029Z" transform="translate(-469.888 -143.387)" fill="#ff927d"/>
          <path id="Path_1106" data-name="Path 1106" d="M556.786,232.673l1.854-8.471-8.78-1.173s-3.832,6.573-7.686,15.11A21.794,21.794,0,0,0,556.786,232.673Z" transform="translate(-465.072 -143.387)" opacity="0.2"/>
          <path id="Path_1107" data-name="Path 1107" d="M561.733,225.189l-.94,3.874,2.934.468s-2.7,20.66,16.314,18.9v16.081L598,262.985l-3.4-47.54-27.233-20.306S551.754,209.343,561.733,225.189Z" transform="translate(-438.819 -188.508)" fill="#ff927d"/>
          <path id="Path_1108" data-name="Path 1108" d="M564.123,221.274a18.729,18.729,0,0,0,6.662.471v16.081l17.961-1.526-1.767-24.668C576.518,219.657,567.058,221.638,564.123,221.274Z" transform="translate(-429.562 -161.824)" opacity="0.2"/>
          <path id="Path_1109" data-name="Path 1109" d="M617.78,259.607l-5.089-32.225s-1.72-.107-4.471-.264a4.777,4.777,0,0,1-4.508-4.762h0a3.362,3.362,0,0,0-3.364-3.361h-24.5a3.362,3.362,0,0,0-3.364,3.361v1.139a4.791,4.791,0,0,1-3.448,4.6l-5,1.463s-.235,9.626-2.817,15.259-5.4,12.678,0,19.956,7.042,24.649,3.052,39.2-.471,13.147,12.207,13.147h32.162c7.513,0,10.33-2.817,8.686-14.791S616.12,268.528,617.78,259.607Z" transform="translate(-439.245 -149.915)" fill="url(#linear-gradient)"/>
          <path id="Path_1110" data-name="Path 1110" d="M635.047,301.5H570.641a3.439,3.439,0,0,1-3.372-4.123l8.678-42.762a3.439,3.439,0,0,1,3.372-2.757h64.406a3.438,3.438,0,0,1,3.369,4.123l-8.675,42.762A3.441,3.441,0,0,1,635.047,301.5Z" transform="translate(-424.585 -96.752)" fill="#fff"/>
          <path id="Path_1111" data-name="Path 1111" d="M582.616,222.409c11.189-5.537,36.712,41.9,36.712,63.736S597.5,341.784,597.5,341.784a13.245,13.245,0,0,1-2.7,8.283c-2.937,3.513-12.27,4.921-13.327,2.28a9.672,9.672,0,0,1,0-5.809s-5.28,4.576-6.338,3.521,2.817-9.157,14.437-14.437l15.788-47.5S588.5,253.5,584.467,243.3C580.474,233.207,576.1,225.631,582.616,222.409Z" transform="translate(-412.018 -145.112)" fill="#ff927d"/>
          <path id="Path_1112" data-name="Path 1112" d="M546.492,220.284c3.39-5.717,9.275-3.521,12.21-2.346s4.694,8.919,3.521,10.8-2.2,0-2.2,0-.482,9.155-8.251,9.155S542.738,226.625,546.492,220.284Z" transform="translate(-461.376 -153.907)" fill="#ff927d"/>
          <path id="Path_1113" data-name="Path 1113" d="M553.726,237.287l-7.511-.953.665-24.61,7.511.953Z" transform="translate(-458.534 -161.676)" fill="#ff6344"/>
          <g id="Group_833" data-name="Group 833" transform="translate(0 6.085)">
            <path id="Path_1114" data-name="Path 1114" d="M537.457,209.107l-22.219-9.519.591-4.658,22.055,10.819Z" transform="translate(-508.65 -194.93)" fill="#fff"/>
            <path id="Path_1115" data-name="Path 1115" d="M537.231,210.885,514.4,206.194l.591-4.658,22.667,5.991Z" transform="translate(-510.007 -184.244)" fill="#fff"/>
            <path id="Path_1116" data-name="Path 1116" d="M537.005,212.663l-23.445.136.592-4.658,23.28,1.164Z" transform="translate(-511.364 -173.557)" fill="#fff"/>
            <path id="Path_1117" data-name="Path 1117" d="M536.779,216.705l-24.058,4.964.591-4.658,23.893-3.663Z" transform="translate(-512.721 -165.134)" fill="#fff"/>
          </g>
          <path id="Path_1118" data-name="Path 1118" d="M569.335,208.158s1.408,14.319,20.9,19.016l2.956,65.89a2.589,2.589,0,0,0,4.843,1.16,80.945,80.945,0,0,0,4.409-9.3c5.165-12.678,14.319-5.633,14.319-20.424s2.584-71.9-31.4-71.9c-34.1,0-35.272,34.568-19.778,36.681C565.582,229.287,565.11,217.784,569.335,208.158Z" transform="translate(-442.667 -192.606)" fill="#414657"/>
          <path id="Path_1119" data-name="Path 1119" d="M577.554,242.479l-50.718,10.576,7.038-55.486,46.471,22.9Z" transform="translate(-489.886 -184.576)" fill="#ff6344"/>
          <path id="Rectangle_105" data-name="Rectangle 105" d="M0,0H10.566a3.406,3.406,0,0,1,3.406,3.406V15.781a3.405,3.405,0,0,1-3.405,3.405H0a0,0,0,0,1,0,0V0A0,0,0,0,1,0,0Z" transform="translate(98.99 38.49) rotate(7.232)" fill="#ff6344"/>
          <rect id="Rectangle_106" data-name="Rectangle 106" width="8.789" height="22.952" transform="matrix(0.992, 0.126, -0.126, 0.992, 90.508, 35.516)" fill="#782e20"/>
          <ellipse id="Ellipse_14" data-name="Ellipse 14" cx="27.965" cy="8.021" rx="27.965" ry="8.021" transform="matrix(0.126, -0.992, 0.992, 0.126, 28.992, 67.471)" fill="#782e20"/>
        </g>
        <g id="Group_837" data-name="Group 837" transform="translate(42.773 154.176)">
          <path id="Path_1120" data-name="Path 1120" d="M433.827,254.573l36.43,92.393a103.53,103.53,0,0,1,5.487,56.833l-15.272,82.424H434.3s-.843-85.83,10.212-112.273l-53.995-68.081s-16.542-25.359,1.526-51.3Z" transform="translate(-341.114 -101.905)" fill="url(#linear-gradient-2)"/>
          <path id="Path_1121" data-name="Path 1121" d="M423.011,214.465l15.377,14.673L396.88,305.706S401.746,249.9,423.011,214.465Z" transform="translate(-319.618 -166.792)" fill="#fff"/>
          <path id="Path_1122" data-name="Path 1122" d="M442.571,239.243a8.447,8.447,0,0,1,3.141,7.628c-.5,5.1-2.995,13.081-8.243,12.859S438.416,236.071,442.571,239.243Z" transform="translate(-257.211 -127.183)" fill="#ff927d"/>
          <g id="Group_836" data-name="Group 836" transform="translate(161.785 42.382)">
            <path id="Path_1123" data-name="Path 1123" d="M464.359,213.879a28.215,28.215,0,0,0-20.809,51.673,6.648,6.648,0,0,1,2.916,7.4l-9.846,37.272a3.135,3.135,0,0,0,2.22,3.83h0a3.135,3.135,0,0,0,3.843-2.228l9.83-37.223a6.685,6.685,0,0,1,6.283-5,28.215,28.215,0,0,0,5.563-55.728Z" transform="translate(-427.96 -211.224)" fill="#3c57ab"/>
            <circle id="Ellipse_15" data-name="Ellipse 15" cx="21.667" cy="21.667" r="21.667" transform="matrix(0.574, -0.819, 0.819, 0.574, 0, 35.49)" fill="#c3d4fb"/>
            <g id="Group_835" data-name="Group 835" transform="translate(9.201 9.2)">
              <path id="Path_1124" data-name="Path 1124" d="M464.868,217.641l-30.505,30.505a21.525,21.525,0,0,0,9.751,6.6l27.377-27.377A21.73,21.73,0,0,0,464.868,217.641Z" transform="translate(-429.962 -213.235)" fill="#fff"/>
              <path id="Path_1125" data-name="Path 1125" d="M435.169,248.2l29.757-29.757a21.638,21.638,0,0,0-5.665-2.435c-.071-.018-.144-.026-.217-.047l-26.361,26.361A21.78,21.78,0,0,0,435.169,248.2Z" transform="translate(-432.682 -215.958)" fill="#fff"/>
            </g>
          </g>
          <path id="Path_1126" data-name="Path 1126" d="M427.968,254.426l10.267-5.814s2.775-9.736,9.013-9.762c5.045-.024,5.4,8.343,4.419,8.8-2.021.942-3.832-4.262-3.832-4.262s-2.353,14.28-7.45,15.827l-7.94,4.9Z" transform="translate(-269.323 -127.342)" fill="#ff927d"/>
          <path id="Path_1127" data-name="Path 1127" d="M441.341,227.134c5.047,4.7-12.853,61.333-12.853,61.333l38.265-18.547,3.992,14.555S436.7,310.768,419.33,314.056s-15.728-16.9-4.929-51.833C414.4,262.223,432.594,219,441.341,227.134Z" transform="translate(-304.434 -147.945)" fill="url(#linear-gradient-3)"/>
          <path id="Path_1128" data-name="Path 1128" d="M437.677,247.244c2.21-10.045,3.359-18.424,1.55-20.11-8.746-8.134-26.94,35.089-26.94,35.089q-2.808,9.075-4.715,16.749Z" transform="translate(-302.32 -147.945)" opacity="0.2"/>
          <path id="Path_1129" data-name="Path 1129" d="M430.889,252.713l8.992,94.891a103.532,103.532,0,0,1-6.3,46.56l-36.149,95.069H371.26s9.39-95.43,32.689-118.26l-16.374-66.966s-16.542-25.359,1.526-51.294Z" transform="translate(-361.066 -104.914)" fill="url(#linear-gradient-4)"/>
          <path id="Path_1130" data-name="Path 1130" d="M399.873,341.651l-5.107,17.783S426.284,370,426.988,374.046s-58.105,0-58.105,0a22.732,22.732,0,0,1,7.4-15.3l3.17-17.1Z" transform="translate(-364.912 38.971)" fill="#ff927d"/>
          <path id="Path_1131" data-name="Path 1131" d="M426.988,367.1c-.7-4.047-32.223-14.613-32.223-14.613l1.882-6.55a8.621,8.621,0,0,0-7.573,5.867h-12.8a22.732,22.732,0,0,0-7.4,15.3S427.692,371.157,426.988,367.1Z" transform="translate(-364.912 45.913)" fill="#414657"/>
          <path id="Path_1132" data-name="Path 1132" d="M428.645,341.651l-1.238,17.783s31.516,10.566,32.22,14.613-58.1,0-58.1,0a22.732,22.732,0,0,1,7.4-15.3l-.7-17.1Z" transform="translate(-312.105 38.971)" fill="#ff927d"/>
          <path id="Path_1133" data-name="Path 1133" d="M459.626,367.1c-.7-4.047-32.22-14.613-32.22-14.613l.456-6.55a6.206,6.206,0,0,0-6.149,5.867H408.919a22.732,22.732,0,0,0-7.4,15.3S460.331,371.157,459.626,367.1Z" transform="translate(-312.105 45.913)" fill="#414657"/>
          <path id="Path_1134" data-name="Path 1134" d="M462.97,220.128l-7.631,14.2-3.754-2.466s-5.751,12.678-12.678,11.974-7.746-2.7-7.746-2.7l-8.922,9.979s-14.086-4.343-15.377-14.673l8.338-13.466,21.594-22.1Z" transform="translate(-303.469 -188.772)" fill="#ff927d"/>
          <path id="Path_1135" data-name="Path 1135" d="M442.027,219.272s11.511,9.592,18.864,14.388,17.3-2.1,17.3-13.929-14.746-16.123-19.7-13.246c0,0-12.623-10.225-20.94-10.23-7.995-.008-7.995,6.712-7.995,6.712a11.122,11.122,0,0,0-13.746,2.238c-6.4,6.715-5.754,25.257-5.754,25.257l7.353,4.432,4.474-4.432s-2.283-14.448,7.673-12.788c3.838.641.961,8.633.961,8.633S438.192,225.984,442.027,219.272Z" transform="translate(-298.327 -196.254)" fill="#414657"/>
          <path id="Path_1136" data-name="Path 1136" d="M442.986,220.07l-48.948,85.453,2.348,30.519h31.223L416.34,304.349l44.781-67.435Z" transform="translate(-324.216 -157.725)" fill="url(#linear-gradient-3)"/>
          <path id="Path_1137" data-name="Path 1137" d="M397.777,288.432l39.158-68.363,7.571,20.542-26.234,18.135L423.378,272Z" transform="translate(-318.166 -157.725)" fill="#c3d4fb"/>
          <path id="Path_1138" data-name="Path 1138" d="M466.056,220.921l-27.937,97.543-15.964,33.1H370.273L396.1,301.326l22.068-78.879,26.528-11.973Z" transform="translate(-362.662 -173.248)" fill="url(#linear-gradient-3)"/>
          <path id="Path_1139" data-name="Path 1139" d="M383.634,258.333l34.188-41.507-23.429,3.046Z" transform="translate(-341.047 -162.972)" opacity="0.2"/>
          <path id="Path_1140" data-name="Path 1140" d="M426.593,214.465l-27.937,97.543-3.991-48.771L407.343,262,405,219.043Z" transform="translate(-323.2 -166.792)" fill="#c3d4fb"/>
          <path id="Path_1141" data-name="Path 1141" d="M385.027,243.954l2.929,8.27L399.3,257.9a8.5,8.5,0,0,1,4.22,4.793l3.107,8.864-3.2,1.408a5.569,5.569,0,0,1-7.026-2.251l-1.078-1.814-11.382-4.911a7.171,7.171,0,0,1-4.3-5.958l-.238-2.694-3.728-7.568Z" transform="translate(-353.943 -119.084)" fill="#ff927d"/>
          <path id="Path_1142" data-name="Path 1142" d="M449.4,210.822c-9.809-4.8-76.767,22.176-81.461,38.673s21.27,58.623,21.27,58.623l11.6-6.443-11.5-41.589s30.812-16.984,43.665-24.144C445.958,228.7,456.589,214.34,449.4,210.822Z" transform="translate(-367.366 -173.596)" fill="url(#linear-gradient-3)"/>
          <path id="Path_1143" data-name="Path 1143" d="M429.146,412.448l8.251-44.537-24.215-67.736C402.127,326.62,402.97,412.448,402.97,412.448Z" transform="translate(-309.789 -28.129)" opacity="0.2"/>
        </g>
        <line id="Line_24" data-name="Line 24" x2="751.313" transform="translate(0 568.995)" fill="none" stroke="#535373" stroke-miterlimit="10" stroke-width="1.227"/>
        <path id="Path_1144" data-name="Path 1144" d="M466.945,212.162h-5.5a1.7,1.7,0,0,1-1.7-1.7v-5.5h-2.636v5.5a1.7,1.7,0,0,1-1.7,1.7h-5.5V214.8h5.5a1.7,1.7,0,0,1,1.7,1.7v5.5h2.636v-5.5a1.7,1.7,0,0,1,1.7-1.7h5.5Z" transform="translate(-191.042 -27.983)" fill="#fff"/>
        <path id="Path_1145" data-name="Path 1145" d="M604.174,201.514h-5.5a1.7,1.7,0,0,1-1.7-1.7v-5.5h-2.633v5.5a1.7,1.7,0,0,1-1.7,1.7h-5.5v2.634h5.5a1.7,1.7,0,0,1,1.7,1.7v5.5h2.633v-5.5a1.7,1.7,0,0,1,1.7-1.7h5.5Z" transform="translate(30.969 -45.21)" fill="#fff"/>
        <path id="Path_1146" data-name="Path 1146" d="M633.337,320.858h-5.5a1.7,1.7,0,0,1-1.7-1.7v-5.5h-2.634v5.5a1.7,1.7,0,0,1-1.7,1.7h-5.5v2.633h5.5a1.7,1.7,0,0,1,1.7,1.7v5.5h2.634v-5.5a1.7,1.7,0,0,1,1.7-1.7h5.5Z" transform="translate(78.154 147.867)" fill="#fff"/>
        <path id="Path_1147" data-name="Path 1147" d="M484.1,144.555h-5.5a1.7,1.7,0,0,1-1.7-1.7v-5.5h-2.636v5.5a1.7,1.7,0,0,1-1.7,1.7h-5.5v2.634h5.5a1.7,1.7,0,0,1,1.7,1.7v5.5h2.636v-5.5a1.7,1.7,0,0,1,1.7-1.7h5.5Z" transform="translate(-163.281 -137.359)" fill="#fff"/>
        <g id="Group_839" data-name="Group 839" transform="translate(382.139 412.311)">
          <circle id="Ellipse_16" data-name="Ellipse 16" cx="31.314" cy="31.314" r="31.314" transform="matrix(0.231, -0.973, 0.973, 0.231, 16.188, 77.125)" fill="#3c57ab"/>
          <g id="Group_838" data-name="Group 838">
            <path id="Path_1148" data-name="Path 1148" d="M533,305.923a24.931,24.931,0,1,0,24.93,24.932A24.959,24.959,0,0,0,533,305.923Zm0,36.217a11.287,11.287,0,1,1,11.288-11.285A11.286,11.286,0,0,1,533,342.14Z" transform="translate(-479.108 -276.965)" fill="#c3d4fb"/>
            <path id="Path_1149" data-name="Path 1149" d="M603.624,359.869a54.132,54.132,0,0,0,0-22.238H591.195a41.413,41.413,0,0,0-3.945-9.516l8.783-8.78A54.147,54.147,0,0,0,580.3,303.607l-8.78,8.783a41.554,41.554,0,0,0-9.513-3.945V296.018a54.014,54.014,0,0,0-22.241,0v12.427a41.53,41.53,0,0,0-9.516,3.945l-8.78-8.783a54.181,54.181,0,0,0-15.728,15.728l8.783,8.78a41.529,41.529,0,0,0-3.945,9.516H498.157a54.122,54.122,0,0,0,0,22.238h12.427a41.527,41.527,0,0,0,3.945,9.516l-8.783,8.78a54.182,54.182,0,0,0,15.728,15.728l8.78-8.783a41.527,41.527,0,0,0,9.516,3.945v12.427a54.016,54.016,0,0,0,22.241,0V389.055a41.551,41.551,0,0,0,9.513-3.945l8.78,8.783a54.148,54.148,0,0,0,15.728-15.728l-8.783-8.78a41.412,41.412,0,0,0,3.945-9.516ZM550.891,376.88a28.13,28.13,0,1,1,28.128-28.128A28.16,28.16,0,0,1,550.891,376.88Z" transform="translate(-497.003 -294.861)" fill="#c3d4fb"/>
          </g>
        </g>
        <g id="Group_841" data-name="Group 841" transform="translate(326.68 482.272)">
          <path id="Path_1150" data-name="Path 1150" d="M514.94,343.515a17.194,17.194,0,1,1-17.194-17.194A17.2,17.2,0,0,1,514.94,343.515Z" transform="translate(-468.158 -313.926)" fill="#3c57ab"/>
          <g id="Group_840" data-name="Group 840">
            <path id="Path_1151" data-name="Path 1151" d="M495.581,327.66a13.689,13.689,0,1,0,13.689,13.689A13.7,13.7,0,0,0,495.581,327.66Zm0,19.888a6.2,6.2,0,1,1,6.2-6.2A6.2,6.2,0,0,1,495.581,347.547Z" transform="translate(-465.991 -311.759)" fill="#c3d4fb"/>
            <path id="Path_1152" data-name="Path 1152" d="M534.363,357.28a29.742,29.742,0,0,0,0-12.212h-6.825a22.914,22.914,0,0,0-2.165-5.223l4.822-4.822a29.77,29.77,0,0,0-8.636-8.636l-4.822,4.822a22.774,22.774,0,0,0-5.225-2.165v-6.825a29.744,29.744,0,0,0-12.212,0v6.825a22.755,22.755,0,0,0-5.223,2.165l-4.822-4.822a29.768,29.768,0,0,0-8.636,8.636l4.822,4.822a22.8,22.8,0,0,0-2.165,5.223h-6.825a29.74,29.74,0,0,0,0,12.212h6.825a22.773,22.773,0,0,0,2.165,5.225l-4.822,4.822a29.77,29.77,0,0,0,8.636,8.636l4.822-4.822a22.868,22.868,0,0,0,5.223,2.165v6.825a29.746,29.746,0,0,0,12.212,0v-6.825a22.887,22.887,0,0,0,5.225-2.165l4.822,4.822a29.772,29.772,0,0,0,8.636-8.636l-4.822-4.822a22.887,22.887,0,0,0,2.165-5.225Zm-28.956,9.34a15.446,15.446,0,1,1,15.445-15.445A15.464,15.464,0,0,1,505.407,366.62Z" transform="translate(-475.818 -321.586)" fill="#c3d4fb"/>
          </g>
        </g>
      </g>
    </g>
  </g>
</svg>
