<svg xmlns="http://www.w3.org/2000/svg" width="64" height="45" viewBox="0 0 64 45">
  <g id="Group_1548" data-name="Group 1548" transform="translate(-587.236 -708.818)">
    <g id="Group_1547" data-name="Group 1547" transform="translate(587.236 708.818)">
      <path id="Path_2901" data-name="Path 2901" d="M649.614,714.656c2.293,6.065,2.2,28.156-.556,34a7.711,7.711,0,0,1-3.484,3.519c-2.159,1.117-14.68,1.647-26.947,1.647-11.292,0-22.368-.448-24.96-1.3a7.429,7.429,0,0,1-4.887-4.793c-2.069-5.866-2.529-30.427,1.611-35.27a7.987,7.987,0,0,1,5.369-2.845c4.921-.534,14.414-.8,23.777-.8,11.66,0,23.115.405,25.288,1.2A7.546,7.546,0,0,1,649.614,714.656Zm-38.325,26.359c6.64-3.471,13.257-6.889,19.949-10.36-6.638-3.495-13.2-6.939-19.791-10.408-.054,6.939-.106,13.8-.158,20.768" transform="translate(-587.236 -708.818)" fill="#a1cc3a"/>
    </g>
  </g>
</svg>
