<svg xmlns="http://www.w3.org/2000/svg" width="523.648" height="578" viewBox="0 0 523.648 578">
  <g id="Group_88" data-name="Group 88" transform="translate(-71.53 -31.334)">
    <g id="Plants" transform="translate(506.023 408.728)">
      <g id="Group_53" data-name="Group 53">
        <g id="Group_51" data-name="Group 51">
          <path id="Path_48" data-name="Path 48" d="M386.482,406.543,406.3,417.937s-10.121-31.8-4.729-63.861c2.034-12.1,6.405-18.13,7.943-21.364s13.366-23.271,2.83-32.435-35.074,9.271-33.744,58.607A191.785,191.785,0,0,0,386.482,406.543Z" transform="translate(-378.553 -298.01)" fill="#ba68c8"/>
          <path id="Path_49" data-name="Path 49" d="M386.482,406.543,406.3,417.937s-10.121-31.8-4.729-63.861c2.034-12.1,6.405-18.13,7.943-21.364s13.366-23.271,2.83-32.435-35.074,9.271-33.744,58.607A191.785,191.785,0,0,0,386.482,406.543Z" transform="translate(-378.553 -298.01)" opacity="0.5"/>
          <path id="Path_50" data-name="Path 50" d="M393.033,410.136a.707.707,0,0,1-.664-.461c-.075-.205-7.635-20.9-7.393-54.162.242-33.422,17.708-51.31,17.885-51.486a.707.707,0,0,1,1,1c-.173.173-17.235,17.684-17.472,50.5-.239,32.982,7.229,53.456,7.305,53.658a.711.711,0,0,1-.416.911A.726.726,0,0,1,393.033,410.136Z" transform="translate(-375.889 -295.598)" fill="#fff"/>
        </g>
        <g id="Group_52" data-name="Group 52" transform="translate(7.992 35.297)">
          <path id="Path_51" data-name="Path 51" d="M392.4,401.053l27.091,15.506c5.867,3.358,13.543,1.909,17.292-3.716a14.1,14.1,0,0,0,2.136-9.41c-1.3-14.064-7.413-17.309.079-23.584s9.441-6.707,9.008-12.765-4.544-8.655-6.491-11.034-7.356-7.358-3.678-14.714,8.693-14.479,1.083-17.741c-4.544-1.949-12.117.648-17.093,6.057s-9.088,9.3-13.848,10.6-14.712,1.514-14.281,9.736,2.6,11.037.65,14.712C390.673,371.627,374.661,375.522,392.4,401.053Z" transform="translate(-384.2 -322.951)" fill="#ba68c8"/>
          <path id="Path_52" data-name="Path 52" d="M399.72,408.176a.708.708,0,0,1-.7-.642c-.045-.487-4.166-49.053,29.226-81.37a.708.708,0,1,1,.984,1.018c-32.91,31.85-28.846,79.741-28.8,80.221a.71.71,0,0,1-.638.771Z" transform="translate(-378.125 -321.7)" fill="#fff"/>
          <path id="Path_53" data-name="Path 53" d="M406.547,360.787a.708.708,0,0,1-.7-.648,27.825,27.825,0,0,0-10.235-19.433.708.708,0,1,1,.812-1.159,28.821,28.821,0,0,1,10.832,20.472.707.707,0,0,1-.644.766Z" transform="translate(-379.59 -316.115)" fill="#fff"/>
          <path id="Path_54" data-name="Path 54" d="M401.823,362.979a.708.708,0,0,1-.532-1.173c.345-.395,8.7-9.625,28.315-7.171a.707.707,0,0,1,.614.79.722.722,0,0,1-.791.614c-18.823-2.362-26.993,6.609-27.075,6.7A.707.707,0,0,1,401.823,362.979Z" transform="translate(-377.177 -309.969)" fill="#fff"/>
        </g>
      </g>
    </g>
    <g id="Device" transform="translate(227.34 31.334)">
      <g id="Group_57" data-name="Group 57">
        <path id="Path_55" data-name="Path 55" d="M388.1,602.924l-183.078-105.7c-12.918-7.457-23.389-27.464-23.389-44.689V60.5c0-17.223,10.471-25.139,23.389-17.681L388.1,148.522c12.918,7.458,23.39,27.466,23.39,44.689V585.242C411.486,602.465,401.013,610.382,388.1,602.924Z" transform="translate(-181.629 -27.73)" fill="#455a64"/>
        <path id="Path_56" data-name="Path 56" d="M406.85,139.836,223.772,34.136c-5.523-3.19-10.6-3.559-14.6-1.6h0l0,0a11.783,11.783,0,0,0-1.425.829l-20.51,11.923c4.121-2.464,9.528-2.286,15.455,1.135l183.078,105.7c12.918,7.458,23.39,27.466,23.39,44.689V588.846c0,9.105-2.929,15.607-7.6,18.612L421.8,595.667v0c5.156-2.744,8.439-9.466,8.439-19.108V184.525C430.24,167.3,419.768,147.294,406.85,139.836Z" transform="translate(-179.301 -31.334)" fill="#37474f"/>
        <path id="Path_57" data-name="Path 57" d="M346.28,151.881V543.913c0,9.105-2.929,15.607-7.6,18.612l20.241-11.791v0c5.155-2.744,8.439-9.466,8.439-19.108V139.56L346.278,151.8C346.278,151.828,346.28,151.854,346.28,151.881Z" transform="translate(-116.423 13.599)" fill="#263238"/>
        <path id="Path_58" data-name="Path 58" d="M365.132,161.088l-21.082,12.172v9.5l21.082-12.172Z" transform="translate(-114.195 22.537)" fill="#37474f"/>
        <g id="Group_54" data-name="Group 54" transform="translate(235.679 215.57)">
          <path id="Path_59" data-name="Path 59" d="M353.423,214.571h0c-1.886,1.088-3.415-.067-3.415-2.581V191.544a8.174,8.174,0,0,1,3.415-6.524h0c1.885-1.09,3.413.067,3.413,2.581v20.445A8.177,8.177,0,0,1,353.423,214.571Z" transform="translate(-347.4 -183.266)" fill="#37474f"/>
          <path id="Path_60" data-name="Path 60" d="M350.773,212.384V191.939a8.174,8.174,0,0,1,3.415-6.524,2.189,2.189,0,0,1,2.154-.2l0-.024-2.55-1.323,0,.021a2.164,2.164,0,0,0-2.212.166,8.179,8.179,0,0,0-3.415,6.525v20.445a3.019,3.019,0,0,0,1.16,2.726l0,.021,2.678,1.4.006-.024A2.95,2.95,0,0,1,350.773,212.384Z" transform="translate(-348.165 -183.661)" fill="#455a64"/>
        </g>
        <g id="Group_55" data-name="Group 55" transform="translate(235.679 265.064)">
          <path id="Path_61" data-name="Path 61" d="M353.423,249.545h0c-1.886,1.088-3.415-.067-3.415-2.581V226.518a8.174,8.174,0,0,1,3.415-6.524h0c1.885-1.09,3.413.067,3.413,2.581v20.445A8.177,8.177,0,0,1,353.423,249.545Z" transform="translate(-347.4 -218.24)" fill="#37474f"/>
          <path id="Path_62" data-name="Path 62" d="M350.773,247.358V226.913a8.174,8.174,0,0,1,3.415-6.524,2.19,2.19,0,0,1,2.154-.2l0-.024-2.55-1.323,0,.021a2.165,2.165,0,0,0-2.212.166,8.179,8.179,0,0,0-3.415,6.524V246a3.019,3.019,0,0,0,1.16,2.726l0,.021,2.678,1.4.006-.024A2.952,2.952,0,0,1,350.773,247.358Z" transform="translate(-348.165 -218.635)" fill="#455a64"/>
        </g>
        <path id="Path_63" data-name="Path 63" d="M378,155.157,198.068,51.256a4.962,4.962,0,0,0-7.444,4.3V448.145c0,13.11,9.289,29.2,20.643,35.753L386.822,585.256a5.465,5.465,0,0,0,8.2-4.732V184.643C395.02,173.832,387.36,160.563,378,155.157Z" transform="translate(-177.894 -23.342)" fill="#ba68c8"/>
        <path id="Path_64" data-name="Path 64" d="M378,155.157,198.068,51.256a4.962,4.962,0,0,0-7.444,4.3V448.145c0,13.11,9.289,29.2,20.643,35.753L386.822,585.256a5.465,5.465,0,0,0,8.2-4.732V184.643C395.02,173.832,387.36,160.563,378,155.157Z" transform="translate(-177.894 -23.342)" fill="#fff" opacity="0.9"/>
        <path id="Path_65" data-name="Path 65" d="M233.9,70.226l2.787,11.74,59.638,34.385,10.3-5.488Z" transform="translate(-159.927 -15.187)" fill="#455a64"/>
        <g id="Group_56" data-name="Group 56" transform="translate(85.395 60.678)">
          <path id="Path_66" data-name="Path 66" d="M248.076,79.914c0,1.947-1.367,2.736-3.053,1.762a6.745,6.745,0,0,1-3.053-5.286c0-1.947,1.367-2.736,3.053-1.763A6.75,6.75,0,0,1,248.076,79.914Z" transform="translate(-241.971 -74.211)" fill="#263238"/>
          <path id="Path_67" data-name="Path 67" d="M284.173,101.9a1.894,1.894,0,0,1-.93-.243l-30.46-17.02a1.91,1.91,0,1,1,1.862-3.334l30.46,17.02a1.91,1.91,0,0,1-.933,3.578Z" transform="translate(-237.888 -71.366)" fill="#263238"/>
        </g>
      </g>
      <g id="Group_58" data-name="Group 58" transform="translate(42.001 103.356)">
        <path id="Path_68" data-name="Path 68" d="M219.752,110.637c-1.852-1.07-3.2-.14-3.2,2.228a7.186,7.186,0,0,0,3.2,5.971,3.4,3.4,0,0,0,3.505-.013l2.956,5.347c-1.721,1.172-4.345,1.056-6.726-.318a17.145,17.145,0,0,1-8.18-13.94c0-5.245,3.528-7.026,8.379-4.226a19.272,19.272,0,0,1,6.527,7.028l-2.956,2.341A10.513,10.513,0,0,0,219.752,110.637Z" transform="translate(-211.308 -104.368)" fill="#ba68c8"/>
        <path id="Path_69" data-name="Path 69" d="M238.849,125.831c0,5.294-3.571,7.128-8.488,4.289s-8.488-8.771-8.488-14.092c0-5.3,3.573-7.025,8.488-4.188S238.849,120.561,238.849,125.831Zm-11.729-6.748a7.718,7.718,0,0,0,3.307,6.162c1.765,1.019,3.176.025,3.176-2.419a7.368,7.368,0,0,0-3.176-6.034C228.641,115.762,227.119,116.639,227.119,119.083Z" transform="translate(-206.922 -101.828)" fill="#ba68c8"/>
        <path id="Path_70" data-name="Path 70" d="M239.159,118.086l6.108,12.691v-9.165l4.629,2.672v17.848l-4.275-2.47-6.087-12.629v9.115l-4.652-2.686V115.617Z" transform="translate(-201.521 -99.698)" fill="#ba68c8"/>
        <path id="Path_71" data-name="Path 71" d="M260.262,130.27v4.66l-4.41-2.546v13.188l-5.116-2.953V129.43l-4.387-2.533v-4.66Z" transform="translate(-196.76 -96.949)" fill="#ba68c8"/>
        <path id="Path_72" data-name="Path 72" d="M266.7,148.207l-5.8-3.35-.793,2.063-5.247-3.03,6.527-14.08,5.248,3.03,6.282,21.475-5.444-3.145Zm-1.257-4.953-1.586-6.135-1.632,4.277Z" transform="translate(-193.228 -93.804)" fill="#ba68c8"/>
        <path id="Path_73" data-name="Path 73" d="M275.829,143.012c-1.854-1.07-3.2-.14-3.2,2.227a7.184,7.184,0,0,0,3.2,5.971,3.392,3.392,0,0,0,3.5-.013l2.956,5.347c-1.721,1.172-4.345,1.056-6.726-.318a17.149,17.149,0,0,1-8.18-13.94c0-5.245,3.528-7.026,8.379-4.226a19.272,19.272,0,0,1,6.527,7.028l-2.956,2.341A10.511,10.511,0,0,0,275.829,143.012Z" transform="translate(-188.027 -90.926)" fill="#ba68c8"/>
        <path id="Path_74" data-name="Path 74" d="M291.858,148.513v4.66l-4.408-2.546v13.188l-5.114-2.953V147.673l-4.389-2.533v-4.66Z" transform="translate(-183.641 -89.375)" fill="#ba68c8"/>
        <path id="Path_75" data-name="Path 75" d="M300.65,166.777c1.257.725,2.226.166,2.226-1.618V154.874l5.117,2.955v10.284c0,4.737-2.888,6.149-7.366,3.565-4.5-2.6-7.474-7.4-7.474-12.132V149.261l5.116,2.953V162.5A5.253,5.253,0,0,0,300.65,166.777Z" transform="translate(-177.327 -85.729)" fill="#ba68c8"/>
        <path id="Path_76" data-name="Path 76" d="M311.576,163.321c-.575-.331-.948-.344-.948.191,0,2.24,8,5.461,8,11.927,0,3.972-3.021,3.984-6.506,1.973a25.741,25.741,0,0,1-7.738-7.319l1.9-3.336a23.116,23.116,0,0,0,5.886,6.174c.75.433,1.236.433,1.236-.2,0-2.317-8-5.41-8-11.672,0-3.563,2.6-4.3,6.613-1.987a24.476,24.476,0,0,1,6.726,6l-1.851,3.412A27.948,27.948,0,0,0,311.576,163.321Z" transform="translate(-172.663 -82.209)" fill="#ba68c8"/>
      </g>
    </g>
    <g id="Speech_bubble" data-name="Speech bubble" transform="translate(187.484 169.562)">
      <g id="Group_60" data-name="Group 60" transform="translate(0)">
        <path id="Path_77" data-name="Path 77" d="M218.031,188.35A36.342,36.342,0,1,0,208.5,196.6l17.71,7.692Z" transform="translate(-153.466 -129.009)" fill="#ba68c8"/>
        <path id="Path_78" data-name="Path 78" d="M218.031,188.35A36.342,36.342,0,1,0,208.5,196.6l17.71,7.692Z" transform="translate(-153.466 -129.009)" opacity="0.4"/>
        <g id="Group_59" data-name="Group 59" transform="translate(15.305 28.497)">
          <path id="Path_79" data-name="Path 79" d="M171.882,154.88c0-.56-.4-.865-1.124-.865a8.07,8.07,0,0,0-4.466,2.1l-2.011-3.906a12.835,12.835,0,0,1,7.321-2.571c3.391,0,5.964,1.777,5.964,4.444,0,1.894-1.381,3.718-3.228,5.542l-2.525,2.5H177.8v4.163H164.936l-.023-3.415,5.729-5.917A3.851,3.851,0,0,0,171.882,154.88Z" transform="translate(-164.281 -148.94)" fill="#fff"/>
          <path id="Path_80" data-name="Path 80" d="M183.962,149.807l-3.9,9.378h1.591v-3.157h4.933v3.157h1.871v3.858h-1.871v3.181h-4.933v-3.181h-6.994v-3.507l4.21-9.729Z" transform="translate(-159.974 -148.872)" fill="#fff"/>
          <path id="Path_81" data-name="Path 81" d="M199.169,158.338V166.5h-5.262v-6.643a1.546,1.546,0,0,0-1.52-1.753c-1.029,0-1.684.819-1.684,2.058V166.5H185.44V149.146H190.7v6.384a4.466,4.466,0,0,1,3.882-2.058C197.275,153.472,199.169,155.39,199.169,158.338Z" transform="translate(-155.496 -149.146)" fill="#fff"/>
        </g>
      </g>
    </g>
    <g id="Character" transform="translate(207.042 225.797)">
      <g id="Group_72" data-name="Group 72">
        <g id="Group_71" data-name="Group 71">
          <path id="Path_82" data-name="Path 82" d="M359.714,277.563V453.394a11.344,11.344,0,0,1-17.02,9.824l-94.708-54.685-16.774-9.674a38.117,38.117,0,0,1-19.01-32.937V190.077a11.347,11.347,0,0,1,17.02-9.826l111.47,64.375A38.015,38.015,0,0,1,359.714,277.563Z" transform="translate(-148.638 -164.606)" fill="#ba68c8"/>
          <path id="Path_83" data-name="Path 83" d="M359.714,277.563V453.394a11.344,11.344,0,0,1-17.02,9.824l-94.708-54.685-16.774-9.674a38.117,38.117,0,0,1-19.01-32.937V190.077a11.347,11.347,0,0,1,17.02-9.826l111.47,64.375A38.015,38.015,0,0,1,359.714,277.563Z" transform="translate(-148.638 -164.606)" fill="#fff" opacity="0.5"/>
          <g id="Group_70" data-name="Group 70">
            <path id="Path_84" data-name="Path 84" d="M294.667,322.078s17.735,29.407,4.918,62.571l-62.1-35.637Z" transform="translate(-138.14 -105.086)" fill="#263238"/>
            <g id="Group_62" data-name="Group 62" transform="translate(76.033 2.713)">
              <circle id="Ellipse_1" data-name="Ellipse 1" cx="19.883" cy="19.883" r="19.883" transform="matrix(0.122, -0.993, 0.993, 0.122, 66.86, 97.016)" fill="#263238"/>
              <g id="Group_61" data-name="Group 61">
                <path id="Path_85" data-name="Path 85" d="M283.985,190.293s6.105-9.953,7.979-9.185-1.22,10.167-1.22,10.167,9.233,1.919,7.506,4.22-12.991,1.773-12.991,1.773Z" transform="translate(-194.867 -166.344)" fill="#263238"/>
                <path id="Path_86" data-name="Path 86" d="M314.425,220.143c-4.292,31.9-31.138,31.9-31.138,31.9l-56.348-24.787s-4.251-3.721-5.546-12.278a37.3,37.3,0,0,1-.013-10.561c0-.027.013-.068.013-.095,1.8-13.41,11.828-27.841,33.687-32.269a71.9,71.9,0,0,1,14.54-1.391,64.684,64.684,0,0,1,7.032.355c17.047,1.661,28.889,9.594,34.557,21.913a39.393,39.393,0,0,1,2.808,8.708A55.133,55.133,0,0,1,314.425,220.143Z" transform="translate(-221.012 -170.663)" fill="#263238"/>
              </g>
            </g>
            <g id="Group_63" data-name="Group 63" transform="translate(0 92.873)">
              <path id="Path_87" data-name="Path 87" d="M199.581,249.228s-20-.684-27.7,18.8c0,0,8.509,5.731,19.637.025S199.581,249.228,199.581,249.228Z" transform="translate(-165.38 -228.206)" fill="#ba68c8"/>
              <path id="Path_88" data-name="Path 88" d="M199.581,249.228s-20-.684-27.7,18.8c0,0,8.509,5.731,19.637.025S199.581,249.228,199.581,249.228Z" transform="translate(-165.38 -228.206)" opacity="0.5"/>
              <path id="Path_89" data-name="Path 89" d="M200.911,264.777s-5.642-24.587-8.635-24.893c-3.145-.32-3.569,7.506-3.326,11.9l-7.127-15.219a3.823,3.823,0,0,0-5.318-1.715c-7.087,3.892-19.488,15.721,6.687,44.979Z" transform="translate(-167.286 -234.373)" fill="#945959"/>
              <path id="Path_90" data-name="Path 90" d="M271.468,244.07l-4.219-.559a24.337,24.337,0,0,0-22.656,9.513l-25.257,33.628-19.756-34.963s-2.385,23.781-27.7,18.8l27.2,45.75a20.919,20.919,0,0,0,34.212,2.509l23.263-28.608Z" transform="translate(-165.38 -230.666)" fill="#ba68c8"/>
            </g>
            <path id="Path_91" data-name="Path 91" d="M306.748,322.763c-5.655,14.349-6.282,17.156-2.767,24.324a92.317,92.317,0,0,1,5.7,16.474s-26.232,29.407-63.584,18.383l-16.774-9.674A37.7,37.7,0,0,1,220,364.679l5.015-38.019a13.244,13.244,0,0,0-.6-5.969l-5.355-15.711a42.951,42.951,0,0,1,10.642-44.6l18.029-17.62,47.353,5.969,7.032,2.031a20.043,20.043,0,0,1,14.309,21.993C314.093,289.526,310.3,313.741,306.748,322.763Z" transform="translate(-146.746 -138.018)" fill="#ba68c8"/>
            <path id="Path_92" data-name="Path 92" d="M306.748,322.763c-5.655,14.349-6.282,17.156-2.767,24.324a92.317,92.317,0,0,1,5.7,16.474s-26.232,29.407-63.584,18.383l-16.774-9.674A37.7,37.7,0,0,1,220,364.679l5.015-38.019a13.244,13.244,0,0,0-.6-5.969l-5.355-15.711a42.951,42.951,0,0,1,10.642-44.6l18.029-17.62,47.353,5.969,7.032,2.031a20.043,20.043,0,0,1,14.309,21.993C314.093,289.526,310.3,313.741,306.748,322.763Z" transform="translate(-146.746 -138.018)" opacity="0.5"/>
            <path id="Path_93" data-name="Path 93" d="M273.192,282.648l-9.483-8.078a7.607,7.607,0,0,0-7.41-1.4l-11.464,3.94-1.541-6.418a7.611,7.611,0,0,0-9.507-5.539l-4.969,1.432,8.416-16.106a30.1,30.1,0,0,1,12.148-12.422l3.293-1.816,27.244,1.4s10.157,4.207,10.157,13.8l-16.883,31.21" transform="translate(-141.739 -140.725)" fill="#ba68c8"/>
            <g id="Group_65" data-name="Group 65" transform="translate(103.096 62.445)">
              <g id="Group_64" data-name="Group 64" transform="translate(7.884)">
                <path id="Path_94" data-name="Path 94" d="M273.028,259.352l-27.321,21.286V212.871h27.321Z" transform="translate(-245.707 -212.871)" fill="#945959"/>
              </g>
              <path id="Path_95" data-name="Path 95" d="M248.444,241.774l-8.309,33.034,35.084-27.456Z" transform="translate(-240.136 -200.871)" fill="#945959"/>
            </g>
            <path id="Path_96" data-name="Path 96" d="M245.707,248.862a47.866,47.866,0,0,0,27.321-25.984V212.871H245.707Z" transform="translate(-134.727 -150.426)" fill="#703838"/>
            <path id="Path_97" data-name="Path 97" d="M260.382,177.383c-10.362,0-32.391,5.774-34.934,32.883s-.088,48.147,13.9,50.162,46.475-8.113,50.825-43.208S270.489,177.383,260.382,177.383Z" transform="translate(-143.504 -165.16)" fill="#945959"/>
            <path id="Path_98" data-name="Path 98" d="M241.093,208.727v15.987l-9.362-2.874Z" transform="translate(-140.529 -152.147)" fill="#703838"/>
            <g id="Group_66" data-name="Group 66" transform="translate(85.408 45.007)">
              <circle id="Ellipse_2" data-name="Ellipse 2" cx="3.257" cy="3.257" r="3.257" transform="translate(22.315 11.081)" fill="#263238"/>
              <path id="Path_99" data-name="Path 99" d="M234.782,210.032a3.258,3.258,0,1,1-3.258-3.258A3.258,3.258,0,0,1,234.782,210.032Z" transform="translate(-227.376 -197.964)" fill="#263238"/>
              <path id="Path_100" data-name="Path 100" d="M227.817,205.833l6.368-3.783s-2.444-2.54-4.877-1.013S227.817,205.833,227.817,205.833Z" transform="translate(-227.637 -200.549)" fill="#263238"/>
            </g>
            <path id="Path_101" data-name="Path 101" d="M235.235,225.292s5.171.473,8.773-2.349c0,0,.6,4.621-3.272,5.5S235.235,225.292,235.235,225.292Z" transform="translate(-139.074 -146.244)" fill="#703838"/>
            <path id="Path_102" data-name="Path 102" d="M231.311,188.068s3.9,37.439,54.793,38.606c0,0,15.377-37.2-15.015-49.285S231.311,188.068,231.311,188.068Z" transform="translate(-140.704 -166.626)" fill="#263238"/>
            <g id="Group_69" data-name="Group 69" transform="translate(104.973)">
              <g id="Group_67" data-name="Group 67" transform="translate(26.737 49.082)">
                <path id="Path_103" data-name="Path 103" d="M289.027,208.549h0l-.028-.017-.021-.013-6.258-3.613v0c-2.37-1.4-5.656-1.217-9.292.883-7.22,4.168-13.073,14.306-13.073,22.643,0,4.173,1.468,7.1,3.839,8.467h0l6.145,3.528c.117.072.236.14.357.205l.209.12.01-.017c2.327,1.126,5.423.859,8.834-1.109,7.219-4.169,13.072-14.306,13.072-22.643C292.819,212.841,291.37,209.925,289.027,208.549Z" transform="translate(-260.355 -203.187)" fill="#ba68c8"/>
                <ellipse id="Ellipse_3" data-name="Ellipse 3" cx="18.488" cy="10.674" rx="18.488" ry="10.674" transform="matrix(0.5, -0.866, 0.866, 0.5, 0.904, 32.022)" fill="#ba68c8"/>
                <ellipse id="Ellipse_4" data-name="Ellipse 4" cx="18.488" cy="10.674" rx="18.488" ry="10.674" transform="matrix(0.5, -0.866, 0.866, 0.5, 0.904, 32.022)" opacity="0.5"/>
                <path id="Path_104" data-name="Path 104" d="M288.149,213.676h0l-.02-.01-.014-.01-4.282-2.472v0c-1.62-.957-3.87-.832-6.357.6-4.94,2.852-8.945,9.789-8.945,15.493,0,2.856,1,4.861,2.627,5.794h0l4.2,2.414c.082.05.163.1.248.141l.141.081.007-.011c1.592.771,3.711.589,6.044-.759,4.94-2.852,8.945-9.789,8.945-15.493C290.744,216.613,289.752,214.618,288.149,213.676Z" transform="translate(-256.961 -200.463)" fill="#ba68c8"/>
                <path id="Path_105" data-name="Path 105" d="M289.476,218.719c0,5.7-4,12.642-8.945,15.493s-8.945.541-8.945-5.164,4-12.642,8.945-15.493S289.476,213.014,289.476,218.719Z" transform="translate(-255.693 -199.731)" fill="#ba68c8"/>
                <path id="Path_106" data-name="Path 106" d="M289.476,218.719c0,5.7-4,12.642-8.945,15.493s-8.945.541-8.945-5.164,4-12.642,8.945-15.493S289.476,213.014,289.476,218.719Z" transform="translate(-255.693 -199.731)" opacity="0.3"/>
              </g>
              <path id="Path_107" data-name="Path 107" d="M275.937,173.655a23.5,23.5,0,0,0-14.158-4.9q-.613-.011-1.234-.01a76.489,76.489,0,0,0-15.461,1.479c.93-.037,1.861-.034,2.792,0h-2.792v2.625h2.627A34.979,34.979,0,0,1,281.5,207.857v11.133a3.136,3.136,0,0,0,3.466,3.13,2.591,2.591,0,0,0,.318-.067l2.792-.867v0a3.134,3.134,0,0,1-.583.122,3.482,3.482,0,0,0,2.995-3.524V207.451C290.484,188.762,282.4,178.712,275.937,173.655Z" transform="translate(-239.958 -168.746)" fill="#ba68c8"/>
              <g id="Group_68" data-name="Group 68" transform="translate(0 81.445)">
                <path id="Path_108" data-name="Path 108" d="M258.073,239.341a8.065,8.065,0,0,1-3.389-.747l-8.849-4.091a1.054,1.054,0,0,1,.884-1.913l8.849,4.091a5.978,5.978,0,0,0,6.817-1.282l8.442-8.778a1.054,1.054,0,1,1,1.52,1.462L263.9,236.86A8.092,8.092,0,0,1,258.073,239.341Z" transform="translate(-239.901 -226.297)" fill="#ba68c8"/>
                <path id="Path_109" data-name="Path 109" d="M258.073,239.341a8.065,8.065,0,0,1-3.389-.747l-8.849-4.091a1.054,1.054,0,0,1,.884-1.913l8.849,4.091a5.978,5.978,0,0,0,6.817-1.282l8.442-8.778a1.054,1.054,0,1,1,1.52,1.462L263.9,236.86A8.092,8.092,0,0,1,258.073,239.341Z" transform="translate(-239.901 -226.297)" opacity="0.5"/>
                <path id="Path_110" data-name="Path 110" d="M249.727,231.188a4.132,4.132,0,1,1-4.132-4.132A4.134,4.134,0,0,1,249.727,231.188Z" transform="translate(-241.462 -225.982)" fill="#ba68c8"/>
                <path id="Path_111" data-name="Path 111" d="M249.727,231.188a4.132,4.132,0,1,1-4.132-4.132A4.134,4.134,0,0,1,249.727,231.188Z" transform="translate(-241.462 -225.982)" opacity="0.5"/>
              </g>
              <path id="Path_112" data-name="Path 112" d="M290.484,207.451v10.329a3.482,3.482,0,0,1-2.995,3.524,3.336,3.336,0,0,1-3.685-3.33V207.451a37.217,37.217,0,0,0-38.719-37.226,76.489,76.489,0,0,1,15.461-1.479q.62,0,1.234.01a23.5,23.5,0,0,1,14.158,4.9C282.4,178.712,290.484,188.762,290.484,207.451Z" transform="translate(-239.958 -168.746)" fill="#ba68c8"/>
              <path id="Path_113" data-name="Path 113" d="M290.484,207.451v10.329a3.482,3.482,0,0,1-2.995,3.524,3.336,3.336,0,0,1-3.685-3.33V207.451a37.217,37.217,0,0,0-38.719-37.226,76.489,76.489,0,0,1,15.461-1.479q.62,0,1.234.01a23.5,23.5,0,0,1,14.158,4.9C282.4,178.712,290.484,188.762,290.484,207.451Z" transform="translate(-239.958 -168.746)" opacity="0.5"/>
            </g>
            <path id="Path_114" data-name="Path 114" d="M266.186,333.869s-6.852,18.89,17.635,27.331c0,0,8-11.736,0-21.344S266.186,333.869,266.186,333.869Z" transform="translate(-126.591 -100.468)" fill="#ba68c8"/>
            <path id="Path_115" data-name="Path 115" d="M266.186,333.869s-6.852,18.89,17.635,27.331c0,0,8-11.736,0-21.344S266.186,333.869,266.186,333.869Z" transform="translate(-126.591 -100.468)" opacity="0.7"/>
            <path id="Path_116" data-name="Path 116" d="M279.639,334.277s-23.909,8.77-23.789,12.156,10.168,1.083,10.168,1.083l-3.672,2.4a22.454,22.454,0,0,0-8.556,10.448h0a4.113,4.113,0,0,0,1.894,5.164l9.085,4.813a4.34,4.34,0,0,0,5.924-1.918h0a8.505,8.505,0,0,1,4.973-4.275c4.938-1.647,14.111-6.378,17.841-19.3Z" transform="translate(-131.494 -100.021)" fill="#945959"/>
            <path id="Path_117" data-name="Path 117" d="M281.7,248.409s-12.724,7.1-5.975,28.563,19.467,54.813,19.467,54.813l-29.262,37.289a22.363,22.363,0,0,1,15.727,9.39c5.932,8.733,1.908,17.942,1.908,17.942l36.314-46.647a32.9,32.9,0,0,0,5.153-30.9L309.41,273.4a38.084,38.084,0,0,0-24.072-23.786Z" transform="translate(-126.332 -135.671)" fill="#ba68c8"/>
          </g>
        </g>
      </g>
    </g>
    <g id="Icons" transform="translate(71.53 66.8)">
      <g id="Group_87" data-name="Group 87">
        <g id="Group_76" data-name="Group 76" transform="translate(0 111.482)">
          <g id="Group_73" data-name="Group 73">
            <path id="Path_118" data-name="Path 118" d="M147.415,168.525l-56.28-32.494a4.705,4.705,0,0,0-4.488-.491h0a3.5,3.5,0,0,0-.439.255l-12.238,7.174c.024-.014.051-.023.075-.037-1.537.87-2.513,2.91-2.513,5.822v62.579c0,5.294,3.218,11.446,7.189,13.739L135,257.564c1.922,1.109,3.662,1.1,4.952.211-.033.024-.062.054-.1.076l12.158-7.134h0c1.585-.843,2.594-2.91,2.594-5.873V182.263C154.6,176.968,151.386,170.818,147.415,168.525Z" transform="translate(-71.53 -135.171)" fill="#ba68c8"/>
            <path id="Path_119" data-name="Path 119" d="M151.876,174.457a14.367,14.367,0,0,0-5.177-5.931l-56.28-32.494a4.705,4.705,0,0,0-4.488-.491h0a3.5,3.5,0,0,0-.439.255l-12.238,7.174c1.267-.757,2.929-.7,4.751.35l56.28,32.494a14.542,14.542,0,0,1,5.31,6.2h0Z" transform="translate(-70.815 -135.171)" fill="#ba68c8"/>
            <path id="Path_120" data-name="Path 120" d="M122.145,240.6c0,2.8-.9,4.8-2.336,5.723l12.158-7.134h0c1.585-.843,2.594-2.91,2.594-5.873V170.737a17.709,17.709,0,0,0-2.012-7.806l-12.282,7.56h0a17.578,17.578,0,0,1,1.881,7.533Z" transform="translate(-51.485 -123.645)" fill="#ba68c8"/>
            <path id="Path_121" data-name="Path 121" d="M151.876,174.457a14.367,14.367,0,0,0-5.177-5.931l-56.28-32.494a4.705,4.705,0,0,0-4.488-.491h0a3.5,3.5,0,0,0-.439.255l-12.238,7.174c1.267-.757,2.929-.7,4.751.35l56.28,32.494a14.542,14.542,0,0,1,5.31,6.2h0Z" transform="translate(-70.815 -135.171)" opacity="0.3"/>
            <path id="Path_122" data-name="Path 122" d="M122.145,240.6c0,2.8-.9,4.8-2.336,5.723l12.158-7.134h0c1.585-.843,2.594-2.91,2.594-5.873V170.737a17.709,17.709,0,0,0-2.012-7.806l-12.282,7.56h0a17.578,17.578,0,0,1,1.881,7.533Z" transform="translate(-51.485 -123.645)" opacity="0.6"/>
          </g>
          <g id="Group_74" data-name="Group 74" transform="translate(16.655 38.831)">
            <path id="Path_123" data-name="Path 123" d="M120.808,196.1c0,8.1-3.215,10.863-8.035,8.079a11.393,11.393,0,0,1-5.369-7.038c-1.373,1.742-3.607,1.855-6.7.068-5.055-2.92-9.054-9.844-9.054-16.678,0-6.789,3.96-9.119,9.054-6.177a15.459,15.459,0,0,1,6.037,6.472v-2.67l5.33,3.078v14.663c0,2.172.825,3.372,1.882,3.984,1.8,1.04,2.9-.725,2.9-5.975,0-9.187-5.879-18.917-14.579-23.941-8.742-5.047-14.582-1.54-14.582,7.919a29.725,29.725,0,0,0,14.425,24.8,16.611,16.611,0,0,0,7.721,2.465l1.255,4.888c-2.392.023-5.88-1.221-8.976-3.009C90.784,200.486,83.3,187.294,83.3,175.345c0-11.813,7.564-16.27,18.971-9.684C113.282,172.02,120.808,184.737,120.808,196.1Zm-13.993-6.811a10.393,10.393,0,0,0-4.9-8.984c-2.862-1.652-4.86-.5-4.86,3.35a10.479,10.479,0,0,0,4.86,9.052C104.738,194.331,106.815,193.269,106.815,189.285Z" transform="translate(-83.299 -162.61)" fill="#ba68c8"/>
          </g>
          <g id="Group_75" data-name="Group 75" transform="translate(16.655 38.831)" opacity="0.9">
            <path id="Path_124" data-name="Path 124" d="M120.808,196.1c0,8.1-3.215,10.863-8.035,8.079a11.393,11.393,0,0,1-5.369-7.038c-1.373,1.742-3.607,1.855-6.7.068-5.055-2.92-9.054-9.844-9.054-16.678,0-6.789,3.96-9.119,9.054-6.177a15.459,15.459,0,0,1,6.037,6.472v-2.67l5.33,3.078v14.663c0,2.172.825,3.372,1.882,3.984,1.8,1.04,2.9-.725,2.9-5.975,0-9.187-5.879-18.917-14.579-23.941-8.742-5.047-14.582-1.54-14.582,7.919a29.725,29.725,0,0,0,14.425,24.8,16.611,16.611,0,0,0,7.721,2.465l1.255,4.888c-2.392.023-5.88-1.221-8.976-3.009C90.784,200.486,83.3,187.294,83.3,175.345c0-11.813,7.564-16.27,18.971-9.684C113.282,172.02,120.808,184.737,120.808,196.1Zm-13.993-6.811a10.393,10.393,0,0,0-4.9-8.984c-2.862-1.652-4.86-.5-4.86,3.35a10.479,10.479,0,0,0,4.86,9.052C104.738,194.331,106.815,193.269,106.815,189.285Z" transform="translate(-83.299 -162.61)" fill="#fff"/>
          </g>
        </g>
        <g id="Group_80" data-name="Group 80" transform="translate(0 222.963)">
          <g id="Group_77" data-name="Group 77">
            <path id="Path_125" data-name="Path 125" d="M147.415,247.3l-56.28-32.493a4.706,4.706,0,0,0-4.488-.492h0a3.671,3.671,0,0,0-.439.253l-12.238,7.175c.024-.014.051-.024.075-.038-1.537.872-2.513,2.911-2.513,5.822V290.11c0,5.294,3.218,11.444,7.189,13.737L135,336.341c1.922,1.109,3.662,1.1,4.952.211-.033.023-.062.052-.1.075l12.158-7.134h0c1.585-.843,2.594-2.91,2.594-5.874V261.039C154.6,255.743,151.386,249.593,147.415,247.3Z" transform="translate(-71.53 -213.946)" fill="#ba68c8"/>
            <path id="Path_126" data-name="Path 126" d="M151.876,253.233A14.372,14.372,0,0,0,146.7,247.3l-56.28-32.493a4.706,4.706,0,0,0-4.488-.492h0a3.67,3.67,0,0,0-.439.253l-12.238,7.175c1.267-.757,2.929-.7,4.751.348l56.28,32.494a14.542,14.542,0,0,1,5.31,6.2h0Z" transform="translate(-70.815 -213.946)" fill="#ba68c8"/>
            <path id="Path_127" data-name="Path 127" d="M122.145,319.379c0,2.8-.9,4.8-2.336,5.722l12.158-7.134h0c1.585-.843,2.594-2.91,2.594-5.874V249.513a17.7,17.7,0,0,0-2.012-7.806l-12.282,7.558h0a17.583,17.583,0,0,1,1.881,7.533Z" transform="translate(-51.485 -202.421)" fill="#ba68c8"/>
            <path id="Path_128" data-name="Path 128" d="M151.876,253.233A14.372,14.372,0,0,0,146.7,247.3l-56.28-32.493a4.706,4.706,0,0,0-4.488-.492h0a3.67,3.67,0,0,0-.439.253l-12.238,7.175c1.267-.757,2.929-.7,4.751.348l56.28,32.494a14.542,14.542,0,0,1,5.31,6.2h0Z" transform="translate(-70.815 -213.946)" opacity="0.3"/>
            <path id="Path_129" data-name="Path 129" d="M122.145,319.379c0,2.8-.9,4.8-2.336,5.722l12.158-7.134h0c1.585-.843,2.594-2.91,2.594-5.874V249.513a17.7,17.7,0,0,0-2.012-7.806l-12.282,7.558h0a17.583,17.583,0,0,1,1.881,7.533Z" transform="translate(-51.485 -202.421)" opacity="0.6"/>
          </g>
          <g id="Group_78" data-name="Group 78" transform="translate(15.464 38.318)">
            <path id="Path_130" data-name="Path 130" d="M96.025,263.756,82.457,241.707V271.59Z" transform="translate(-82.457 -240.739)" fill="#ba68c8"/>
            <path id="Path_131" data-name="Path 131" d="M100.96,263.646l13.545,23.46V257.274Z" transform="translate(-74.776 -234.276)" fill="#ba68c8"/>
            <path id="Path_132" data-name="Path 132" d="M83.914,241.023l13.937,22.649a1.067,1.067,0,0,1,.159.18,1.109,1.109,0,0,1,.058.171l4.084,6.639,3.508-1.65a1.093,1.093,0,0,1,.181-.16,1.136,1.136,0,0,1,.459-.142l14.091-6.627Z" transform="translate(-81.853 -241.023)" fill="#ba68c8"/>
            <path id="Path_133" data-name="Path 133" d="M106.255,264.042l-3.783,1.779a1.117,1.117,0,0,1-.48.108,1.134,1.134,0,0,1-.965-.538l-4.148-6.742-13.623,7.866L119.9,287.669Z" transform="translate(-82.126 -233.705)" fill="#ba68c8"/>
          </g>
          <g id="Group_79" data-name="Group 79" transform="translate(15.464 38.318)" opacity="0.9">
            <path id="Path_134" data-name="Path 134" d="M96.025,263.756,82.457,241.707V271.59Z" transform="translate(-82.457 -240.739)" fill="#fff"/>
            <path id="Path_135" data-name="Path 135" d="M100.96,263.646l13.545,23.46V257.274Z" transform="translate(-74.776 -234.276)" fill="#fff"/>
            <path id="Path_136" data-name="Path 136" d="M83.914,241.023l13.937,22.649a1.067,1.067,0,0,1,.159.18,1.109,1.109,0,0,1,.058.171l4.084,6.639,3.508-1.65a1.093,1.093,0,0,1,.181-.16,1.136,1.136,0,0,1,.459-.142l14.091-6.627Z" transform="translate(-81.853 -241.023)" fill="#fff"/>
            <path id="Path_137" data-name="Path 137" d="M106.255,264.042l-3.783,1.779a1.117,1.117,0,0,1-.48.108,1.134,1.134,0,0,1-.965-.538l-4.148-6.742-13.623,7.866L119.9,287.669Z" transform="translate(-82.126 -233.705)" fill="#fff"/>
          </g>
        </g>
        <g id="Group_86" data-name="Group 86">
          <g id="Group_81" data-name="Group 81">
            <path id="Path_138" data-name="Path 138" d="M147.415,89.751,91.135,57.257a4.706,4.706,0,0,0-4.488-.492h0a3.5,3.5,0,0,0-.439.255L73.968,64.194c.024-.014.051-.024.075-.037-1.537.87-2.513,2.91-2.513,5.821v62.581c0,5.294,3.218,11.445,7.189,13.737L135,178.79c1.922,1.109,3.662,1.1,4.952.211-.033.023-.062.054-.1.075l12.158-7.134h0c1.585-.843,2.594-2.91,2.594-5.874V103.488C154.6,98.194,151.386,92.042,147.415,89.751Z" transform="translate(-71.53 -56.395)" fill="#ba68c8"/>
            <path id="Path_139" data-name="Path 139" d="M151.876,95.682a14.358,14.358,0,0,0-5.177-5.931L90.419,57.257a4.706,4.706,0,0,0-4.488-.492h0a3.5,3.5,0,0,0-.439.255L73.253,64.194c1.267-.757,2.929-.7,4.751.35l56.28,32.493a14.542,14.542,0,0,1,5.31,6.2h0Z" transform="translate(-70.815 -56.395)" fill="#ba68c8"/>
            <path id="Path_140" data-name="Path 140" d="M122.145,161.828c0,2.8-.9,4.8-2.336,5.722l12.158-7.134h0c1.585-.843,2.594-2.91,2.594-5.874V91.962a17.709,17.709,0,0,0-2.012-7.806l-12.282,7.558h0a17.589,17.589,0,0,1,1.881,7.534Z" transform="translate(-51.485 -44.87)" fill="#ba68c8"/>
            <path id="Path_141" data-name="Path 141" d="M151.876,95.682a14.358,14.358,0,0,0-5.177-5.931L90.419,57.257a4.706,4.706,0,0,0-4.488-.492h0a3.5,3.5,0,0,0-.439.255L73.253,64.194c1.267-.757,2.929-.7,4.751.35l56.28,32.493a14.542,14.542,0,0,1,5.31,6.2h0Z" transform="translate(-70.815 -56.395)" opacity="0.3"/>
            <path id="Path_142" data-name="Path 142" d="M122.145,161.828c0,2.8-.9,4.8-2.336,5.722l12.158-7.134h0c1.585-.843,2.594-2.91,2.594-5.874V91.962a17.709,17.709,0,0,0-2.012-7.806l-12.282,7.558h0a17.589,17.589,0,0,1,1.881,7.534Z" transform="translate(-51.485 -44.87)" opacity="0.6"/>
          </g>
          <g id="Group_83" data-name="Group 83" transform="translate(17.187 32.706)">
            <g id="Group_82" data-name="Group 82">
              <path id="Path_143" data-name="Path 143" d="M118.74,136.763c-2.162-3.558-4.346-7.1-6.513-10.658a5.526,5.526,0,0,0-3.408-2.857c-1.049-.225-2.1-.454-3.17-.776a2,2,0,0,1-.93-.788,89.7,89.7,0,0,1-8.386-19.251,1.026,1.026,0,0,1,.116-.859c.665-.667,1.37-1.276,2.086-1.869.882-.729,1.034-1.973.542-3.747-1.046-3.78-2.056-7.554-3.092-11.333-.678-2.472-2.209-4.258-4.053-4.705A11.437,11.437,0,0,0,85,80.171c-.866.335-1.312,1.115-1.322,2.453.357,2.591.6,5.151,1.09,7.781q5.25,28.473,25.2,52.424a4.018,4.018,0,0,0,3.152,1.8,9.39,9.39,0,0,0,5.978-2.3C120.359,141.223,120.231,139.212,118.74,136.763Z" transform="translate(-83.675 -79.506)" fill="#ba68c8"/>
              <path id="Path_144" data-name="Path 144" d="M111.285,112.257a30.15,30.15,0,0,0-3.345-11.665,35,35,0,0,0-5.3-7.793c-.56-.621-1.032-.824-1.3-.345s-.008,1.129.535,1.739c.185.208.369.417.549.635a29.788,29.788,0,0,1,7.052,16.031,5.009,5.009,0,0,0,.125,1.291,3.226,3.226,0,0,0,.838,1.281c.293.208.63,0,.872-.02C111.3,112.854,111.3,112.561,111.285,112.257Z" transform="translate(-76.388 -74.241)" fill="#ba68c8"/>
              <path id="Path_145" data-name="Path 145" d="M99.424,98.705a11.894,11.894,0,0,1,3.07,7.022,4.4,4.4,0,0,0,.444,1.139c.86.713,1.286.473,1.286-.416,0-2.661-1.841-6.855-3.981-9.078-.534-.552-.982-.72-1.235-.256A1.471,1.471,0,0,0,99.424,98.705Z" transform="translate(-77.352 -72.307)" fill="#ba68c8"/>
            </g>
          </g>
          <g id="Group_85" data-name="Group 85" transform="translate(17.187 32.706)" opacity="0.9">
            <g id="Group_84" data-name="Group 84">
              <path id="Path_146" data-name="Path 146" d="M118.74,136.763c-2.162-3.558-4.346-7.1-6.513-10.658a5.526,5.526,0,0,0-3.408-2.857c-1.049-.225-2.1-.454-3.17-.776a2,2,0,0,1-.93-.788,89.7,89.7,0,0,1-8.386-19.251,1.026,1.026,0,0,1,.116-.859c.665-.667,1.37-1.276,2.086-1.869.882-.729,1.034-1.973.542-3.747-1.046-3.78-2.056-7.554-3.092-11.333-.678-2.472-2.209-4.258-4.053-4.705A11.437,11.437,0,0,0,85,80.171c-.866.335-1.312,1.115-1.322,2.453.357,2.591.6,5.151,1.09,7.781q5.25,28.473,25.2,52.424a4.018,4.018,0,0,0,3.152,1.8,9.39,9.39,0,0,0,5.978-2.3C120.359,141.223,120.231,139.212,118.74,136.763Z" transform="translate(-83.675 -79.506)" fill="#fff"/>
              <path id="Path_147" data-name="Path 147" d="M111.285,112.257a30.15,30.15,0,0,0-3.345-11.665,35,35,0,0,0-5.3-7.793c-.56-.621-1.032-.824-1.3-.345s-.008,1.129.535,1.739c.185.208.369.417.549.635a29.788,29.788,0,0,1,7.052,16.031,5.009,5.009,0,0,0,.125,1.291,3.226,3.226,0,0,0,.838,1.281c.293.208.63,0,.872-.02C111.3,112.854,111.3,112.561,111.285,112.257Z" transform="translate(-76.388 -74.241)" fill="#fff"/>
              <path id="Path_148" data-name="Path 148" d="M99.424,98.705a11.894,11.894,0,0,1,3.07,7.022,4.4,4.4,0,0,0,.444,1.139c.86.713,1.286.473,1.286-.416,0-2.661-1.841-6.855-3.981-9.078-.534-.552-.982-.72-1.235-.256A1.471,1.471,0,0,0,99.424,98.705Z" transform="translate(-77.352 -72.307)" fill="#fff"/>
            </g>
          </g>
        </g>
      </g>
    </g>
    <g id="Clouds" transform="translate(430.043 55.486)">
      <path id="Path_149" data-name="Path 149" d="M330.995,55.589l13.263,7.546V58.441c-.02-.334-.041-.669-.041-1s.021-.638.041-.948v-.11l.006,0c.477-6.221,5.188-8.606,10.938-5.286a21.228,21.228,0,0,1,6.53,6.272c1.3-8.45,8.19-11.5,16.522-6.688,9.257,5.344,16.76,18.341,16.76,29.028l.008,10.056a4.567,4.567,0,0,0,2.256,3.937l7.8,4.578a11.249,11.249,0,0,1,5.556,9.7A4.632,4.632,0,0,1,403.688,112L331.2,70.123a12.668,12.668,0,0,1-6.332-10.969A4.1,4.1,0,0,1,330.995,55.589Z" transform="translate(-324.864 -48.4)" fill="#e6e6e6"/>
      <path id="Path_150" data-name="Path 150" d="M401.934,53.627l9.646,5.488V55.7c-.016-.243-.031-.487-.031-.726s.016-.464.031-.689v-.081l0,0c.348-4.524,3.773-6.258,7.955-3.845a15.437,15.437,0,0,1,4.749,4.563c.943-6.146,5.955-8.364,12.015-4.864,6.731,3.886,12.188,13.337,12.188,21.11l.006,7.312a3.323,3.323,0,0,0,1.642,2.863l5.673,3.328a8.181,8.181,0,0,1,4.042,7.056,3.37,3.37,0,0,1-5.055,2.918L402.08,64.2a9.213,9.213,0,0,1-4.6-7.977A2.983,2.983,0,0,1,401.934,53.627Z" transform="translate(-294.717 -48.4)" fill="#e6e6e6"/>
    </g>
  </g>
</svg>
