<svg xmlns="http://www.w3.org/2000/svg" width="41.722" height="32.324" viewBox="0 0 41.722 32.324">
  <path id="Icon_simple-minutemailer" data-name="Icon simple-minutemailer" d="M9.673,4.055l6,6.491-4.231,8.341,8.936-1.6L24.442,27.1,41.722,4.442ZM8.567,18.115l1.664-1.368-2.145.678-.219-.313.887-.861-1.163.469A11.841,11.841,0,0,0,3.708,36.379,11.757,11.757,0,0,1,2.17,30.546a12.137,12.137,0,0,1,7.5-11.161l.548-1.332-1.3.575-.367-.5.019-.019Zm7.587-3.425,2.778-4.9L35.269,5.96,16.153,14.69Z" transform="translate(0 -4.055)" fill="#a1cc3a"/>
</svg>
