<svg xmlns="http://www.w3.org/2000/svg" width="30.284" height="30.152" viewBox="0 0 30.284 30.152">
  <path id="Icon_material-phone-in-talk" data-name="Icon material-phone-in-talk" d="M33.1,25.439a19.19,19.19,0,0,1-6.006-.955,1.722,1.722,0,0,0-1.716.4l-3.7,3.685A25.258,25.258,0,0,1,10.59,17.532l3.7-3.7a1.6,1.6,0,0,0,.421-1.675,18.954,18.954,0,0,1-.959-5.98A1.684,1.684,0,0,0,12.071,4.5H6.182A1.684,1.684,0,0,0,4.5,6.175,28.537,28.537,0,0,0,33.1,34.652a1.684,1.684,0,0,0,1.682-1.675V27.114A1.684,1.684,0,0,0,33.1,25.439Zm-1.682-5.863h3.365A15.11,15.11,0,0,0,19.642,4.5V7.85A11.743,11.743,0,0,1,31.419,19.576Zm-6.73,0h3.365A8.4,8.4,0,0,0,19.642,11.2v3.35A5.03,5.03,0,0,1,24.689,19.576Z" transform="translate(-4.5 -4.5)" fill="#a1cc3a"/>
</svg>
