<svg xmlns="http://www.w3.org/2000/svg" xmlns:xlink="http://www.w3.org/1999/xlink" width="713" height="528.123" viewBox="0 0 713 528.123"><defs><linearGradient id="a" y1="0.5" x2="1" y2="0.5" gradientUnits="objectBoundingBox"><stop offset="0" stop-color="#e39a65"/><stop offset="1" stop-color="#e95f8d"/></linearGradient><radialGradient id="e" cx="0.193" cy="-0.023" r="1.117" gradientTransform="translate(-0.04) scale(1.08 1)" gradientUnits="objectBoundingBox"><stop offset="0" stop-color="#e39a65"/><stop offset="0.474" stop-color="#a92ffb"/><stop offset="0.595" stop-color="#881bfa"/><stop offset="0.742" stop-color="#6507fa"/><stop offset="0.802" stop-color="#0d0c6f"/></radialGradient><radialGradient id="f" cx="0.01" cy="0.384" r="1.712" gradientTransform="translate(0.213) scale(0.573 1)" gradientUnits="objectBoundingBox"><stop offset="0" stop-color="#e39a65"/><stop offset="0.474" stop-color="#a92ffb"/><stop offset="0.568" stop-color="#881bfa"/><stop offset="0.683" stop-color="#6507fa"/><stop offset="0.738" stop-color="#0d0c6f"/></radialGradient><radialGradient id="g" cx="0.101" cy="0.074" r="1.524" gradientTransform="translate(0.211) scale(0.577 1)" gradientUnits="objectBoundingBox"><stop offset="0" stop-color="#e39a65"/><stop offset="0.474" stop-color="#a92ffb"/><stop offset="0.588" stop-color="#881bfa"/><stop offset="0.726" stop-color="#6507fa"/><stop offset="1" stop-color="#3919bb"/></radialGradient><radialGradient id="h" cx="-0.116" cy="0.206" r="1.121" gradientTransform="translate(-0.038) scale(1.077 1)" xlink:href="#g"/><linearGradient id="i" y1="0.5" x2="1" y2="0.5" gradientUnits="objectBoundingBox"><stop offset="0" stop-color="#3919bb"/><stop offset="1" stop-color="#6507fa"/></linearGradient><radialGradient id="j" cx="-1.084" cy="-0.321" r="2.658" gradientTransform="translate(-0.038) scale(1.077 1)" xlink:href="#g"/><radialGradient id="l" cx="-0.082" cy="0.242" r="2.243" gradientTransform="translate(-0.159) scale(1.318 1)" gradientUnits="objectBoundingBox"><stop offset="0" stop-color="#e39a65"/><stop offset="0.153" stop-color="#a92ffb"/><stop offset="0.409" stop-color="#3919bb"/><stop offset="0.931" stop-color="#3919bb"/></radialGradient><linearGradient id="m" y1="0.5" x2="1" y2="0.5" gradientUnits="objectBoundingBox"><stop offset="0" stop-color="#e39a65"/><stop offset="0.252" stop-color="#a92ffb"/><stop offset="0.556" stop-color="#3919bb"/></linearGradient><linearGradient id="n" y1="0.5" x2="1" y2="0.5" gradientUnits="objectBoundingBox"><stop offset="0" stop-color="#4f1fec"/><stop offset="1" stop-color="#a92ffb"/></linearGradient><linearGradient id="p" y1="0.5" x2="1.261" y2="0.5" gradientUnits="objectBoundingBox"><stop offset="0" stop-color="#131060"/><stop offset="0.186" stop-color="#140f62"/><stop offset="0.282" stop-color="#190f6a"/><stop offset="0.358" stop-color="#220f77"/><stop offset="0.424" stop-color="#2e0f8a"/><stop offset="0.482" stop-color="#3d0ea3"/><stop offset="0.536" stop-color="#510ec1"/><stop offset="0.585" stop-color="#670de5"/><stop offset="0.607" stop-color="#740df8"/><stop offset="0.618" stop-color="#7a14ef"/><stop offset="0.683" stop-color="#9b3bc2"/><stop offset="0.748" stop-color="#b75c9d"/><stop offset="0.812" stop-color="#cc7680"/><stop offset="0.876" stop-color="#db886b"/><stop offset="0.939" stop-color="#e4935f"/><stop offset="1" stop-color="#e8975b"/></linearGradient><radialGradient id="q" cx="-0.135" cy="0.092" r="3.209" gradientTransform="translate(0.211) scale(0.577 1)" gradientUnits="objectBoundingBox"><stop offset="0" stop-color="#e39a65"/><stop offset="0.252" stop-color="#a92ffb"/><stop offset="0.736" stop-color="#3919bb"/></radialGradient><linearGradient id="r" x1="-0.089" y1="0.5" x2="1.209" y2="0.5" xlink:href="#p"/></defs><path d="M507.573,328.511A11.324,11.324,0,0,1,501.912,327l-19.083-11.018a3.533,3.533,0,0,1,0-6.122l19.083-11.018a11.354,11.354,0,0,1,11.321,0l19.085,11.018a3.533,3.533,0,0,1,0,6.122L513.234,327A11.314,11.314,0,0,1,507.573,328.511Zm0-28.158a8.3,8.3,0,0,0-4.15,1.106l-19.083,11.02a.508.508,0,0,0,0,.881l19.085,11.018h0a8.32,8.32,0,0,0,8.294,0l19.085-11.018a.51.51,0,0,0,0-.881l-19.087-11.02A8.3,8.3,0,0,0,507.573,300.353Z" transform="translate(178.914 125.09)" fill="url(#a)"/><path d="M480.944,297.876a18.367,18.367,0,0,1-9.2-2.457l-32.843-18.963a4.988,4.988,0,0,1,0-8.644l32.841-18.961a18.432,18.432,0,0,1,18.392,0l32.845,18.961a4.992,4.992,0,0,1,0,8.646l-32.845,18.961A18.4,18.4,0,0,1,480.944,297.876Zm-7.683-5.076a15.426,15.426,0,0,0,15.368,0l32.843-18.961a1.968,1.968,0,0,0,0-3.407L488.627,251.47a15.417,15.417,0,0,0-15.368,0l-32.843,18.961a1.967,1.967,0,0,0,0,3.4Z" transform="translate(150.96 93.202)" fill="url(#a)"/><path d="M119.723,316.228a18.377,18.377,0,0,1-9.2-2.455L77.681,294.81a4.991,4.991,0,0,1,0-8.646L110.524,267.2a18.428,18.428,0,0,1,18.392,0l32.843,18.963a4.988,4.988,0,0,1,0,8.644l-32.841,18.963A18.382,18.382,0,0,1,119.723,316.228Zm0-48.456a15.376,15.376,0,0,0-7.685,2.05L79.193,288.785a1.966,1.966,0,0,0,0,3.4l32.843,18.961h0a15.417,15.417,0,0,0,15.368,0l32.843-18.961a1.965,1.965,0,0,0,0-3.4L127.4,269.822A15.375,15.375,0,0,0,119.721,267.772Z" transform="translate(-75.185 104.691)" fill="url(#a)"/><g transform="translate(103.7 45.069)"><path d="M398.431,436.687,163.58,301.1c-3.423-1.977-2.994-5.429.959-7.711L315.268,206.36c3.953-2.281,9.932-2.53,13.355-.553L563.475,341.4c3.423,1.976,2.994,5.428-.959,7.711l-150.73,87.023C407.834,438.414,401.853,438.663,398.431,436.687Z" transform="translate(-124.992 21.888)" fill="#020230" opacity="0.6"/><path d="M417.778,469.107a15.015,15.015,0,0,1-7.39-1.732h0L142.354,312.625c-2.189-1.263-3.4-3.086-3.4-5.132,0-2.35,1.636-4.642,4.488-6.29l182.71-107.046c5.011-2.894,12.374-3.172,16.765-.636L610.955,348.273c2.19,1.262,3.4,3.085,3.4,5.13,0,2.35-1.636,4.641-4.49,6.288L427.153,466.737A19.172,19.172,0,0,1,417.778,469.107Zm-82.212-274.28a16.309,16.309,0,0,0-7.888,1.946L144.971,303.82c-1.873,1.081-2.984,2.452-2.984,3.672a3.2,3.2,0,0,0,1.88,2.512L411.9,464.754h0c3.421,1.979,9.709,1.689,13.725-.631l182.71-107.046c1.873-1.081,2.984-2.452,2.984-3.673a3.2,3.2,0,0,0-1.88-2.511L341.409,196.141A11.984,11.984,0,0,0,335.567,194.827Z" transform="translate(-138.959 13.947)" fill="url(#a)"/><path d="M561.058,201.23,327.131,66.171a6.059,6.059,0,0,0-4.774-.686h0l0,0-.021.007L318,67l1.525.361a7.579,7.579,0,0,0-1.429,2.675L265.2,241.8c-1.311,4.259.61,9.433,4.288,11.558L503.413,388.416a6.856,6.856,0,0,0,1.72.7l-.579,1.262,4.137-1.454-.01,0a6.617,6.617,0,0,0,3.764-4.376l52.9-171.762C566.657,208.528,564.736,203.354,561.058,201.23Z" transform="translate(-60.185 -65.264)" fill="url(#e)"/><path d="M559.817,319.775l.083.1-231.059-133.4c-3.4-1.963-9.337-1.717-13.26.55L166.293,273.213l-4.978-1.9,1.4,6.984.007,0a4.18,4.18,0,0,0,2.241,2.8l233.2,134.636c3.4,1.963,9.335,1.715,13.26-.55l149.667-86.41a5.981,5.981,0,0,0,3.171-3.7l.01.01,1.428-6.8Z" transform="translate(-124.963 9.79)" fill="url(#f)"/><path d="M398.431,412.575,163.58,276.984c-3.423-1.976-2.994-5.428.959-7.709L315.268,182.25c3.953-2.281,9.932-2.53,13.355-.553L563.475,317.289c3.423,1.976,2.994,5.428-.959,7.709l-150.73,87.025C407.834,414.3,401.853,414.553,398.431,412.575Z" transform="translate(-124.992 6.794)" fill="url(#g)"/><path d="M562.5,287.611,411.77,374.634c-3.951,2.283-9.932,2.53-13.355.555L163.565,239.6a4.382,4.382,0,0,1-2.135-2.436c-.454,1.574.21,3.153,2.135,4.264L398.416,377.018c3.423,1.976,9.4,1.727,13.355-.555L562.5,289.44c2.607-1.506,3.646-3.512,3.094-5.275A6.218,6.218,0,0,1,562.5,287.611Z" transform="translate(-124.977 42.353)" fill="#fff"/><g transform="translate(142.251 218.73)" opacity="0.4"><path d="M234.8,230.781,226.87,226.2c-.636-.367-.556-1.01.179-1.434l9.358-5.4a2.762,2.762,0,0,1,2.485-.1l7.929,4.577c.637.367.556,1.01-.179,1.434l-9.358,5.4A2.763,2.763,0,0,1,234.8,230.781Z" transform="translate(-226.441 -187.737)" fill="#06033e"/><path d="M242.33,235.129l-7.93-4.579c-.636-.367-.556-1.008.179-1.433l9.36-5.4a2.76,2.76,0,0,1,2.483-.1l7.929,4.579c.637.368.558,1.008-.177,1.433l-9.36,5.4A2.755,2.755,0,0,1,242.33,235.129Z" transform="translate(-221.727 -185.015)" fill="#06033e"/><path d="M249.86,239.476l-7.929-4.577c-.637-.367-.558-1.01.177-1.434l9.36-5.4a2.759,2.759,0,0,1,2.483-.1l7.93,4.577c.636.368.556,1.01-.179,1.434l-9.36,5.4A2.759,2.759,0,0,1,249.86,239.476Z" transform="translate(-217.013 -182.293)" fill="#06033e"/><path d="M260.275,235.552l-7.93-4.577c-.636-.367-.556-1.01.179-1.434L260.381,225a2.759,2.759,0,0,1,2.483-.1l7.929,4.577c.637.367.558,1.01-.177,1.434l-7.857,4.537A2.759,2.759,0,0,1,260.275,235.552Z" transform="translate(-210.492 -184.207)" fill="#06033e"/><path d="M267.805,239.9l-7.929-4.577c-.637-.367-.558-1.01.177-1.434l7.857-4.535a2.759,2.759,0,0,1,2.483-.1l7.929,4.577c.637.368.558,1.01-.177,1.434l-7.857,4.535A2.754,2.754,0,0,1,267.805,239.9Z" transform="translate(-205.778 -181.485)" fill="#06033e"/><path d="M275.335,244.247l-7.929-4.577c-.637-.367-.556-1.01.179-1.434l7.855-4.535a2.763,2.763,0,0,1,2.485-.1l7.929,4.579c.636.366.556,1.008-.179,1.433l-7.856,4.537A2.763,2.763,0,0,1,275.335,244.247Z" transform="translate(-201.064 -178.763)" fill="#06033e"/><path d="M282.865,248.6l-7.929-4.577c-.636-.367-.556-1.01.179-1.434l7.855-4.537a2.762,2.762,0,0,1,2.485-.1l7.929,4.577c.637.367.556,1.01-.179,1.434l-7.855,4.535A2.763,2.763,0,0,1,282.865,248.6Z" transform="translate(-196.349 -176.041)" fill="#06033e"/><path d="M290.4,252.942l-7.929-4.577c-.637-.367-.558-1.01.177-1.434L290.5,242.4a2.754,2.754,0,0,1,2.483-.1l7.929,4.577c.637.367.558,1.01-.177,1.434l-7.857,4.535A2.759,2.759,0,0,1,290.4,252.942Z" transform="translate(-191.635 -173.32)" fill="#06033e"/><path d="M297.926,257.29,290,252.713c-.637-.367-.558-1.01.177-1.434l7.857-4.537a2.759,2.759,0,0,1,2.483-.1l7.929,4.577c.637.367.558,1.01-.177,1.434l-7.857,4.537A2.759,2.759,0,0,1,297.926,257.29Z" transform="translate(-186.921 -170.598)" fill="#06033e"/><path d="M305.456,261.638l-7.929-4.579c-.636-.368-.556-1.01.179-1.434l7.856-4.535a2.762,2.762,0,0,1,2.485-.1l7.929,4.577c.636.367.556,1.01-.179,1.434l-7.855,4.535A2.763,2.763,0,0,1,305.456,261.638Z" transform="translate(-182.206 -167.876)" fill="#06033e"/><path d="M312.986,265.985l-7.929-4.577c-.636-.368-.556-1.01.179-1.434l7.855-4.535a2.763,2.763,0,0,1,2.485-.1l7.929,4.579c.636.367.556,1.008-.179,1.433l-7.856,4.537A2.762,2.762,0,0,1,312.986,265.985Z" transform="translate(-177.492 -165.154)" fill="#06033e"/><path d="M320.518,270.333l-7.93-4.577c-.636-.369-.556-1.01.179-1.434l7.857-4.537a2.759,2.759,0,0,1,2.483-.1l7.929,4.577c.637.367.558,1.01-.177,1.434L323,270.231A2.759,2.759,0,0,1,320.518,270.333Z" transform="translate(-172.778 -162.432)" fill="#06033e"/><path d="M328.047,274.68l-7.929-4.577c-.637-.367-.558-1.01.177-1.434l7.857-4.535a2.76,2.76,0,0,1,2.483-.1l7.93,4.579c.636.368.556,1.01-.179,1.434l-7.857,4.535A2.759,2.759,0,0,1,328.047,274.68Z" transform="translate(-168.063 -159.71)" fill="#06033e"/><path d="M271.37,233.494l-7.929-4.579c-.637-.367-.558-1.01.177-1.434l7.857-4.535a2.759,2.759,0,0,1,2.483-.1l7.93,4.577c.636.367.556,1.01-.179,1.434l-7.857,4.535A2.759,2.759,0,0,1,271.37,233.494Z" transform="translate(-203.546 -185.495)" fill="#06033e"/><path d="M263.727,229.081,255.8,224.5c-.636-.367-.556-1.01.179-1.434l7.855-4.535a2.758,2.758,0,0,1,2.485-.1l7.929,4.577c.636.369.556,1.01-.179,1.434l-7.856,4.537A2.763,2.763,0,0,1,263.727,229.081Z" transform="translate(-208.331 -188.258)" fill="#06033e"/><path d="M259.594,226.694l-17.077-9.859c-.636-.367-.556-1.01.179-1.434l7.855-4.535a2.763,2.763,0,0,1,2.485-.1l17.077,9.86c.636.367.556,1.01-.179,1.434l-7.855,4.535A2.763,2.763,0,0,1,259.594,226.694Z" transform="translate(-216.645 -193.058)" fill="#06033e"/><path d="M263.706,220.605l-13.859-8c-.636-.367-.556-1.01.179-1.434l7.857-4.535a2.76,2.76,0,0,1,2.483-.1l13.859,8c.636.367.556,1.01-.179,1.434l-7.855,4.535A2.763,2.763,0,0,1,263.706,220.605Z" transform="translate(-212.056 -195.708)" fill="#06033e"/><path d="M278.9,237.841l-7.929-4.577c-.636-.367-.556-1.01.179-1.434l7.855-4.535a2.763,2.763,0,0,1,2.485-.1l7.929,4.579c.636.367.556,1.01-.179,1.433l-7.855,4.537A2.762,2.762,0,0,1,278.9,237.841Z" transform="translate(-198.832 -182.774)" fill="#06033e"/><path d="M286.432,242.189l-7.93-4.577c-.636-.369-.556-1.01.179-1.434l7.855-4.537a2.763,2.763,0,0,1,2.485-.1l7.929,4.577c.637.367.558,1.01-.179,1.434l-7.855,4.537A2.759,2.759,0,0,1,286.432,242.189Z" transform="translate(-194.117 -180.052)" fill="#06033e"/><path d="M293.961,246.536l-7.929-4.577c-.637-.367-.558-1.01.177-1.434l7.857-4.535a2.765,2.765,0,0,1,2.483-.1l7.929,4.579c.637.367.558,1.01-.177,1.434l-7.857,4.535A2.754,2.754,0,0,1,293.961,246.536Z" transform="translate(-189.403 -177.33)" fill="#06033e"/><path d="M301.491,250.884l-7.929-4.577c-.637-.367-.558-1.01.179-1.434l7.855-4.537a2.759,2.759,0,0,1,2.483-.1l7.93,4.577c.636.367.556,1.01-.179,1.434l-7.855,4.537A2.762,2.762,0,0,1,301.491,250.884Z" transform="translate(-184.689 -174.608)" fill="#06033e"/><path d="M309.021,255.232l-7.929-4.579c-.636-.367-.556-1.008.179-1.434l7.856-4.535a2.762,2.762,0,0,1,2.485-.1l7.929,4.577c.636.367.556,1.01-.179,1.434l-7.855,4.535A2.763,2.763,0,0,1,309.021,255.232Z" transform="translate(-179.974 -171.886)" fill="#06033e"/><path d="M316.551,259.579,308.622,255c-.636-.367-.556-1.01.179-1.434l7.856-4.535a2.763,2.763,0,0,1,2.485-.1l7.929,4.579c.637.367.558,1.01-.179,1.434l-7.855,4.535A2.762,2.762,0,0,1,316.551,259.579Z" transform="translate(-175.26 -169.164)" fill="#06033e"/><path d="M324.082,263.927l-7.929-4.577c-.637-.367-.558-1.01.177-1.434l7.857-4.537a2.759,2.759,0,0,1,2.483-.1l7.929,4.577c.637.368.558,1.01-.177,1.434l-7.857,4.535A2.754,2.754,0,0,1,324.082,263.927Z" transform="translate(-170.546 -166.443)" fill="#06033e"/><path d="M331.612,268.274l-7.929-4.577c-.637-.367-.558-1.01.179-1.434l7.855-4.535a2.754,2.754,0,0,1,2.483-.1l7.93,4.577c.636.367.556,1.01-.179,1.434l-7.857,4.535A2.754,2.754,0,0,1,331.612,268.274Z" transform="translate(-165.831 -163.721)" fill="#06033e"/><path d="M339.142,272.622l-7.929-4.577c-.636-.367-.556-1.01.179-1.434l7.856-4.535a2.763,2.763,0,0,1,2.485-.1l7.929,4.577c.636.367.556,1.01-.179,1.434l-7.855,4.537A2.762,2.762,0,0,1,339.142,272.622Z" transform="translate(-161.117 -160.999)" fill="#06033e"/><path d="M356.137,282.434l-17.3-9.987c-.636-.369-.556-1.01.179-1.434l7.855-4.537a2.762,2.762,0,0,1,2.485-.1l17.3,9.989c.637.366.556,1.008-.179,1.433l-7.855,4.537A2.762,2.762,0,0,1,356.137,282.434Z" transform="translate(-156.344 -158.243)" fill="#06033e"/><path d="M369.76,273.37l-14.6-8.431c-.637-.368-.558-1.01.179-1.434l7.855-4.535a2.763,2.763,0,0,1,2.485-.1l14.6,8.429c.636.367.556,1.01-.179,1.434l-7.857,4.537A2.76,2.76,0,0,1,369.76,273.37Z" transform="translate(-146.127 -162.942)" fill="#06033e"/><path d="M292.087,236.991l-7.929-4.579c-.636-.367-.556-1.008.179-1.434l7.855-4.535a2.763,2.763,0,0,1,2.485-.1l7.929,4.577c.636.367.556,1.01-.179,1.434l-7.855,4.535A2.763,2.763,0,0,1,292.087,236.991Z" transform="translate(-190.576 -183.306)" fill="#06033e"/><path d="M284.37,232.535l-7.929-4.577c-.637-.369-.558-1.01.177-1.434l7.857-4.537a2.759,2.759,0,0,1,2.483-.1l7.929,4.577c.637.367.558,1.01-.177,1.434l-7.857,4.535A2.754,2.754,0,0,1,284.37,232.535Z" transform="translate(-195.408 -186.096)" fill="#06033e"/><path d="M276.652,228.079l-7.929-4.577c-.636-.367-.556-1.01.179-1.434l7.855-4.537a2.768,2.768,0,0,1,2.485-.1l7.929,4.577c.636.367.556,1.01-.179,1.434l-7.855,4.537A2.762,2.762,0,0,1,276.652,228.079Z" transform="translate(-200.239 -188.885)" fill="#06033e"/><path d="M268.936,223.623l-7.93-4.577c-.636-.367-.556-1.01.179-1.434l7.857-4.535a2.76,2.76,0,0,1,2.483-.1l7.929,4.579c.637.368.558,1.01-.177,1.434l-7.857,4.535A2.759,2.759,0,0,1,268.936,223.623Z" transform="translate(-205.071 -191.675)" fill="#06033e"/><path d="M299.618,241.338l-7.93-4.577c-.636-.367-.556-1.01.179-1.434l7.857-4.535a2.76,2.76,0,0,1,2.483-.1l7.929,4.579c.637.367.558,1.008-.179,1.433l-7.855,4.537A2.759,2.759,0,0,1,299.618,241.338Z" transform="translate(-185.862 -180.584)" fill="#06033e"/><path d="M307.148,245.686l-7.929-4.577c-.637-.367-.558-1.01.177-1.434l7.857-4.537a2.759,2.759,0,0,1,2.483-.1l7.929,4.577c.637.367.558,1.01-.177,1.434l-7.857,4.535A2.755,2.755,0,0,1,307.148,245.686Z" transform="translate(-181.147 -177.863)" fill="#06033e"/><path d="M314.678,250.033l-7.929-4.577c-.637-.367-.556-1.01.179-1.434l7.855-4.535a2.758,2.758,0,0,1,2.485-.1l7.929,4.577c.636.367.556,1.01-.179,1.434l-7.855,4.535A2.763,2.763,0,0,1,314.678,250.033Z" transform="translate(-176.433 -175.141)" fill="#06033e"/><path d="M322.208,254.381l-7.929-4.577c-.636-.367-.556-1.01.179-1.434l7.855-4.537a2.762,2.762,0,0,1,2.485-.1l7.929,4.577c.636.367.556,1.01-.179,1.434l-7.855,4.537A2.763,2.763,0,0,1,322.208,254.381Z" transform="translate(-171.718 -172.419)" fill="#06033e"/><path d="M329.739,258.729l-7.93-4.579c-.636-.367-.556-1.01.179-1.433l7.857-4.537a2.759,2.759,0,0,1,2.483-.1l7.929,4.577c.637.367.558,1.01-.177,1.434l-7.857,4.535A2.76,2.76,0,0,1,329.739,258.729Z" transform="translate(-167.004 -169.697)" fill="#06033e"/><path d="M337.269,263.076l-7.929-4.577c-.637-.367-.558-1.01.177-1.434l7.857-4.535a2.76,2.76,0,0,1,2.483-.1L347.787,257c.637.367.558,1.008-.177,1.433l-7.857,4.537A2.759,2.759,0,0,1,337.269,263.076Z" transform="translate(-162.29 -166.975)" fill="#06033e"/><path d="M344.8,267.424l-7.929-4.577c-.637-.369-.556-1.01.179-1.434l7.855-4.537a2.763,2.763,0,0,1,2.485-.1l7.929,4.577c.636.367.556,1.01-.179,1.434l-7.855,4.535A2.758,2.758,0,0,1,344.8,267.424Z" transform="translate(-157.576 -164.253)" fill="#06033e"/><path d="M352.329,271.771l-7.929-4.577c-.636-.368-.556-1.01.179-1.434l7.855-4.535a2.768,2.768,0,0,1,2.485-.1l7.929,4.579c.637.367.556,1.01-.179,1.434l-7.855,4.535A2.763,2.763,0,0,1,352.329,271.771Z" transform="translate(-152.861 -161.531)" fill="#06033e"/><path d="M359.86,276.119l-7.929-4.577c-.637-.367-.558-1.01.177-1.434l7.857-4.537a2.759,2.759,0,0,1,2.483-.1l7.929,4.577c.637.367.558,1.01-.177,1.434l-7.857,4.537A2.759,2.759,0,0,1,359.86,276.119Z" transform="translate(-148.147 -158.81)" fill="#06033e"/><path d="M288.122,226.237l-7.929-4.577c-.636-.367-.556-1.01.179-1.434l7.855-4.535a2.758,2.758,0,0,1,2.485-.1l7.929,4.577c.636.369.556,1.01-.179,1.434l-7.855,4.537A2.763,2.763,0,0,1,288.122,226.237Z" transform="translate(-193.058 -190.039)" fill="#06033e"/><path d="M280.629,221.911l-7.929-4.577c-.636-.367-.556-1.01.179-1.434l7.856-4.535a2.758,2.758,0,0,1,2.485-.1l7.929,4.577c.637.369.556,1.01-.179,1.434l-7.855,4.537A2.762,2.762,0,0,1,280.629,221.911Z" transform="translate(-197.749 -192.747)" fill="#06033e"/><path d="M273.138,217.585l-7.93-4.577c-.636-.367-.556-1.01.179-1.434l7.857-4.535a2.754,2.754,0,0,1,2.483-.1l7.929,4.577c.637.369.558,1.01-.177,1.434l-7.857,4.537A2.759,2.759,0,0,1,273.138,217.585Z" transform="translate(-202.44 -195.455)" fill="#06033e"/><path d="M265.644,213.259l-7.929-4.577c-.637-.367-.558-1.01.177-1.434l7.857-4.535a2.755,2.755,0,0,1,2.483-.1l7.929,4.577c.637.369.558,1.01-.177,1.434l-7.857,4.537A2.759,2.759,0,0,1,265.644,213.259Z" transform="translate(-207.131 -198.163)" fill="#06033e"/><path d="M273.349,207.642l-7.929-4.577c-.637-.369-.558-1.01.177-1.434l2.6-1.5a2.758,2.758,0,0,1,2.485-.1l7.929,4.577c.636.367.556,1.01-.179,1.434l-2.6,1.5A2.759,2.759,0,0,1,273.349,207.642Z" transform="translate(-202.307 -199.779)" fill="#06033e"/><path d="M283.127,213.287,275.2,208.71c-.637-.368-.558-1.01.177-1.434l2.6-1.5a2.757,2.757,0,0,1,2.485-.1l7.929,4.577c.637.367.556,1.01-.179,1.434l-2.6,1.5A2.759,2.759,0,0,1,283.127,213.287Z" transform="translate(-196.186 -196.245)" fill="#06033e"/><path d="M290.588,217.6l-7.929-4.577c-.636-.368-.556-1.01.179-1.434l2.6-1.5a2.757,2.757,0,0,1,2.485-.1l7.929,4.577c.636.367.556,1.01-.179,1.434l-2.6,1.5A2.762,2.762,0,0,1,290.588,217.6Z" transform="translate(-191.514 -193.548)" fill="#06033e"/><path d="M298.05,221.9l-7.929-4.577c-.637-.367-.558-1.01.177-1.434l2.6-1.5a2.76,2.76,0,0,1,2.483-.1l7.929,4.579c.637.367.558,1.01-.177,1.434l-2.6,1.5A2.759,2.759,0,0,1,298.05,221.9Z" transform="translate(-186.843 -190.851)" fill="#06033e"/><path d="M305.511,226.211l-7.929-4.577c-.636-.367-.556-1.01.179-1.434l2.6-1.5a2.763,2.763,0,0,1,2.485-.1l7.929,4.579c.636.367.556,1.01-.179,1.434l-2.6,1.5A2.763,2.763,0,0,1,305.511,226.211Z" transform="translate(-182.172 -188.154)" fill="#06033e"/><path d="M347.168,250.262l-7.929-4.579c-.636-.368-.556-1.01.179-1.434l2.6-1.5a2.759,2.759,0,0,1,2.483-.1l7.93,4.577c.636.367.556,1.01-.179,1.434l-2.6,1.5A2.763,2.763,0,0,1,347.168,250.262Z" transform="translate(-156.092 -173.097)" fill="#06033e"/><path d="M354.63,254.569l-7.929-4.577c-.637-.367-.558-1.01.177-1.434l2.6-1.5a2.759,2.759,0,0,1,2.483-.1l7.929,4.577c.637.367.558,1.01-.177,1.434l-2.6,1.5A2.754,2.754,0,0,1,354.63,254.569Z" transform="translate(-151.421 -170.4)" fill="#06033e"/><path d="M362.091,258.878l-7.929-4.579c-.636-.367-.556-1.01.179-1.434l2.6-1.5a2.762,2.762,0,0,1,2.485-.1l7.929,4.577c.636.367.556,1.01-.179,1.434l-2.6,1.5A2.768,2.768,0,0,1,362.091,258.878Z" transform="translate(-146.749 -167.703)" fill="#06033e"/><path d="M369.553,263.185l-7.929-4.577c-.637-.367-.558-1.01.179-1.434l2.6-1.5a2.759,2.759,0,0,1,2.483-.1l7.929,4.577c.637.368.558,1.01-.177,1.434l-2.6,1.5A2.758,2.758,0,0,1,369.553,263.185Z" transform="translate(-142.078 -165.006)" fill="#06033e"/><path d="M295.652,230.585l-7.929-4.579c-.636-.367-.556-1.008.179-1.434l7.855-4.535a2.763,2.763,0,0,1,2.485-.1l7.929,4.577c.637.367.556,1.01-.179,1.434l-7.855,4.535A2.763,2.763,0,0,1,295.652,230.585Z" transform="translate(-188.344 -187.317)" fill="#06033e"/><path d="M303.183,234.932l-7.929-4.577c-.637-.367-.558-1.01.177-1.434l7.857-4.535a2.759,2.759,0,0,1,2.483-.1l7.929,4.579c.637.367.558,1.01-.177,1.433l-7.857,4.537A2.759,2.759,0,0,1,303.183,234.932Z" transform="translate(-183.63 -184.595)" fill="#06033e"/><path d="M310.713,239.28l-7.929-4.577c-.637-.367-.558-1.01.177-1.434l7.857-4.537a2.759,2.759,0,0,1,2.483-.1l7.93,4.577c.636.367.556,1.01-.179,1.434l-7.857,4.537A2.759,2.759,0,0,1,310.713,239.28Z" transform="translate(-178.915 -181.873)" fill="#06033e"/><path d="M318.243,243.627l-7.929-4.577c-.636-.367-.556-1.01.179-1.434l7.855-4.535a2.762,2.762,0,0,1,2.485-.1l7.929,4.577c.636.367.556,1.01-.179,1.434l-7.855,4.535A2.758,2.758,0,0,1,318.243,243.627Z" transform="translate(-174.201 -179.151)" fill="#06033e"/><path d="M325.773,247.975l-7.929-4.577c-.636-.367-.556-1.01.179-1.434l7.855-4.537a2.768,2.768,0,0,1,2.485-.1l7.929,4.577c.637.367.556,1.01-.179,1.434l-7.855,4.537A2.763,2.763,0,0,1,325.773,247.975Z" transform="translate(-169.487 -176.429)" fill="#06033e"/><path d="M333.3,252.323l-7.929-4.579c-.637-.367-.558-1.008.177-1.433l7.857-4.537a2.759,2.759,0,0,1,2.483-.1l7.929,4.577c.637.367.558,1.01-.177,1.434l-7.857,4.535A2.76,2.76,0,0,1,333.3,252.323Z" transform="translate(-164.772 -173.707)" fill="#06033e"/><path d="M340.834,256.67l-7.929-4.577c-.637-.367-.558-1.01.177-1.434l7.857-4.535a2.76,2.76,0,0,1,2.483-.1l7.93,4.579c.636.367.556,1.008-.179,1.434l-7.857,4.535A2.759,2.759,0,0,1,340.834,256.67Z" transform="translate(-160.058 -170.986)" fill="#06033e"/><path d="M348.364,261.018l-7.929-4.577c-.636-.367-.556-1.01.179-1.434l7.855-4.537a2.763,2.763,0,0,1,2.485-.1l7.929,4.577c.636.367.556,1.01-.179,1.434l-7.855,4.537A2.762,2.762,0,0,1,348.364,261.018Z" transform="translate(-155.343 -168.264)" fill="#06033e"/><path d="M355.9,265.365l-7.93-4.577c-.636-.368-.556-1.01.179-1.434L356,254.818a2.759,2.759,0,0,1,2.483-.1l7.929,4.577c.637.367.558,1.01-.179,1.434l-7.855,4.535A2.759,2.759,0,0,1,355.9,265.365Z" transform="translate(-150.629 -165.542)" fill="#06033e"/><path d="M258.539,234.549l-23.352-13.482c-.637-.367-.558-1.01.179-1.434l7.855-4.535a2.758,2.758,0,0,1,2.485-.1l23.35,13.482c.637.367.558,1.01-.177,1.434l-7.857,4.535A2.759,2.759,0,0,1,258.539,234.549Z" transform="translate(-221.235 -190.409)" fill="#06033e"/><path d="M351.05,287.962,327.7,274.48c-.637-.369-.556-1.01.179-1.434l7.855-4.537a2.762,2.762,0,0,1,2.485-.1l23.35,13.482c.637.367.558,1.01-.177,1.434l-7.857,4.535A2.76,2.76,0,0,1,351.05,287.962Z" transform="translate(-163.318 -156.97)" fill="#06033e"/><path d="M315,277.085l-7.929-4.579c-.636-.367-.556-1.01.179-1.434l9.358-5.4a2.762,2.762,0,0,1,2.485-.1l7.929,4.577c.636.367.556,1.01-.179,1.434l-9.358,5.4A2.763,2.763,0,0,1,315,277.085Z" transform="translate(-176.233 -158.749)" fill="#06033e"/><path d="M262.141,246.567l-12.68-7.32c-.637-.367-.556-1.01.179-1.434l9.358-5.4a2.757,2.757,0,0,1,2.485-.1l12.68,7.32c.637.367.556,1.01-.179,1.434l-9.358,5.4A2.763,2.763,0,0,1,262.141,246.567Z" transform="translate(-212.298 -179.571)" fill="#06033e"/><path d="M309.572,273.95,296.89,266.63c-.636-.368-.556-1.01.179-1.434l9.36-5.4a2.759,2.759,0,0,1,2.483-.1l12.68,7.321c.637.367.558,1.01-.177,1.434l-9.36,5.4A2.754,2.754,0,0,1,309.572,273.95Z" transform="translate(-182.605 -162.428)" fill="#06033e"/><path d="M273.007,252.841l-12.68-7.322c-.637-.368-.558-1.01.177-1.433l9.36-5.4a2.755,2.755,0,0,1,2.483-.1l12.682,7.322c.636.367.556,1.008-.179,1.434l-9.36,5.4A2.759,2.759,0,0,1,273.007,252.841Z" transform="translate(-205.496 -175.644)" fill="#06033e"/><path d="M272.234,238.514l55.131,31.83a.754.754,0,0,1,0,1.429l-9.543,5.511a2.738,2.738,0,0,1-2.478,0l-55.131-31.83Z" transform="translate(-205.298 -175.529)" fill="#06033e"/><path d="M335.275,280.514l8.833,5.1c.522.3.455.828-.146,1.176L340.132,289a2.264,2.264,0,0,1-2.036.085l-8.831-5.1c-.522-.3-.457-.828.146-1.176l3.828-2.21A2.264,2.264,0,0,1,335.275,280.514Z" transform="translate(-162.289 -149.362)" fill="#06033e"/><path d="M327.682,276.13l8.833,5.1c.522.3.457.828-.146,1.176l-3.828,2.211a2.269,2.269,0,0,1-2.036.085l-8.833-5.1c-.522-.3-.457-.828.146-1.176l3.828-2.211A2.269,2.269,0,0,1,327.682,276.13Z" transform="translate(-167.042 -152.107)" fill="#06033e"/><path d="M320.152,271.783l8.833,5.1c.522.3.455.828-.146,1.176l-3.829,2.21a2.264,2.264,0,0,1-2.036.085l-8.831-5.1c-.522-.3-.457-.828.146-1.176l3.828-2.21A2.264,2.264,0,0,1,320.152,271.783Z" transform="translate(-171.757 -154.828)" fill="#06033e"/><path d="M331.841,273.73l8.831,5.1c.522.3.457.828-.146,1.174l-3.828,2.211a2.264,2.264,0,0,1-2.036.085l-8.833-5.1c-.522-.3-.455-.828.146-1.176l3.829-2.21A2.259,2.259,0,0,1,331.841,273.73Z" transform="translate(-164.439 -153.61)" fill="#06033e"/></g><g transform="translate(142.251 218.73)" opacity="0.4"><path d="M234.8,230.781,226.87,226.2c-.636-.367-.556-1.01.179-1.434l9.358-5.4a2.762,2.762,0,0,1,2.485-.1l7.929,4.577c.637.367.556,1.01-.179,1.434l-9.358,5.4A2.763,2.763,0,0,1,234.8,230.781Z" transform="translate(-226.441 -187.737)" fill="#06033e"/><path d="M242.33,235.129l-7.93-4.579c-.636-.367-.556-1.008.179-1.433l9.36-5.4a2.76,2.76,0,0,1,2.483-.1l7.929,4.579c.637.368.558,1.008-.177,1.433l-9.36,5.4A2.755,2.755,0,0,1,242.33,235.129Z" transform="translate(-221.727 -185.015)" fill="#06033e"/><path d="M249.86,239.476l-7.929-4.577c-.637-.367-.558-1.01.177-1.434l9.36-5.4a2.759,2.759,0,0,1,2.483-.1l7.93,4.577c.636.368.556,1.01-.179,1.434l-9.36,5.4A2.759,2.759,0,0,1,249.86,239.476Z" transform="translate(-217.013 -182.293)" fill="#06033e"/><path d="M260.275,235.552l-7.93-4.577c-.636-.367-.556-1.01.179-1.434L260.381,225a2.759,2.759,0,0,1,2.483-.1l7.929,4.577c.637.367.558,1.01-.177,1.434l-7.857,4.537A2.759,2.759,0,0,1,260.275,235.552Z" transform="translate(-210.492 -184.207)" fill="#06033e"/><path d="M267.805,239.9l-7.929-4.577c-.637-.367-.558-1.01.177-1.434l7.857-4.535a2.759,2.759,0,0,1,2.483-.1l7.929,4.577c.637.368.558,1.01-.177,1.434l-7.857,4.535A2.754,2.754,0,0,1,267.805,239.9Z" transform="translate(-205.778 -181.485)" fill="#06033e"/><path d="M275.335,244.247l-7.929-4.577c-.637-.367-.556-1.01.179-1.434l7.855-4.535a2.763,2.763,0,0,1,2.485-.1l7.929,4.579c.636.366.556,1.008-.179,1.433l-7.856,4.537A2.763,2.763,0,0,1,275.335,244.247Z" transform="translate(-201.064 -178.763)" fill="#06033e"/><path d="M282.865,248.6l-7.929-4.577c-.636-.367-.556-1.01.179-1.434l7.855-4.537a2.762,2.762,0,0,1,2.485-.1l7.929,4.577c.637.367.556,1.01-.179,1.434l-7.855,4.535A2.763,2.763,0,0,1,282.865,248.6Z" transform="translate(-196.349 -176.041)" fill="#06033e"/><path d="M290.4,252.942l-7.929-4.577c-.637-.367-.558-1.01.177-1.434L290.5,242.4a2.754,2.754,0,0,1,2.483-.1l7.929,4.577c.637.367.558,1.01-.177,1.434l-7.857,4.535A2.759,2.759,0,0,1,290.4,252.942Z" transform="translate(-191.635 -173.32)" fill="#06033e"/><path d="M297.926,257.29,290,252.713c-.637-.367-.558-1.01.177-1.434l7.857-4.537a2.759,2.759,0,0,1,2.483-.1l7.929,4.577c.637.367.558,1.01-.177,1.434l-7.857,4.537A2.759,2.759,0,0,1,297.926,257.29Z" transform="translate(-186.921 -170.598)" fill="#06033e"/><path d="M305.456,261.638l-7.929-4.579c-.636-.368-.556-1.01.179-1.434l7.856-4.535a2.762,2.762,0,0,1,2.485-.1l7.929,4.577c.636.367.556,1.01-.179,1.434l-7.855,4.535A2.763,2.763,0,0,1,305.456,261.638Z" transform="translate(-182.206 -167.876)" fill="#06033e"/><path d="M312.986,265.985l-7.929-4.577c-.636-.368-.556-1.01.179-1.434l7.855-4.535a2.763,2.763,0,0,1,2.485-.1l7.929,4.579c.636.367.556,1.008-.179,1.433l-7.856,4.537A2.762,2.762,0,0,1,312.986,265.985Z" transform="translate(-177.492 -165.154)" fill="#06033e"/><path d="M320.518,270.333l-7.93-4.577c-.636-.369-.556-1.01.179-1.434l7.857-4.537a2.759,2.759,0,0,1,2.483-.1l7.929,4.577c.637.367.558,1.01-.177,1.434L323,270.231A2.759,2.759,0,0,1,320.518,270.333Z" transform="translate(-172.778 -162.432)" fill="#06033e"/><path d="M328.047,274.68l-7.929-4.577c-.637-.367-.558-1.01.177-1.434l7.857-4.535a2.76,2.76,0,0,1,2.483-.1l7.93,4.579c.636.368.556,1.01-.179,1.434l-7.857,4.535A2.759,2.759,0,0,1,328.047,274.68Z" transform="translate(-168.063 -159.71)" fill="#06033e"/><path d="M271.37,233.494l-7.929-4.579c-.637-.367-.558-1.01.177-1.434l7.857-4.535a2.759,2.759,0,0,1,2.483-.1l7.93,4.577c.636.367.556,1.01-.179,1.434l-7.857,4.535A2.759,2.759,0,0,1,271.37,233.494Z" transform="translate(-203.546 -185.495)" fill="#06033e"/><path d="M263.727,229.081,255.8,224.5c-.636-.367-.556-1.01.179-1.434l7.855-4.535a2.758,2.758,0,0,1,2.485-.1l7.929,4.577c.636.369.556,1.01-.179,1.434l-7.856,4.537A2.763,2.763,0,0,1,263.727,229.081Z" transform="translate(-208.331 -188.258)" fill="#06033e"/><path d="M259.594,226.694l-17.077-9.859c-.636-.367-.556-1.01.179-1.434l7.855-4.535a2.763,2.763,0,0,1,2.485-.1l17.077,9.86c.636.367.556,1.01-.179,1.434l-7.855,4.535A2.763,2.763,0,0,1,259.594,226.694Z" transform="translate(-216.645 -193.058)" fill="#06033e"/><path d="M263.706,220.605l-13.859-8c-.636-.367-.556-1.01.179-1.434l7.857-4.535a2.76,2.76,0,0,1,2.483-.1l13.859,8c.636.367.556,1.01-.179,1.434l-7.855,4.535A2.763,2.763,0,0,1,263.706,220.605Z" transform="translate(-212.056 -195.708)" fill="#06033e"/><path d="M278.9,237.841l-7.929-4.577c-.636-.367-.556-1.01.179-1.434l7.855-4.535a2.763,2.763,0,0,1,2.485-.1l7.929,4.579c.636.367.556,1.01-.179,1.433l-7.855,4.537A2.762,2.762,0,0,1,278.9,237.841Z" transform="translate(-198.832 -182.774)" fill="#06033e"/><path d="M286.432,242.189l-7.93-4.577c-.636-.369-.556-1.01.179-1.434l7.855-4.537a2.763,2.763,0,0,1,2.485-.1l7.929,4.577c.637.367.558,1.01-.179,1.434l-7.855,4.537A2.759,2.759,0,0,1,286.432,242.189Z" transform="translate(-194.117 -180.052)" fill="#06033e"/><path d="M293.961,246.536l-7.929-4.577c-.637-.367-.558-1.01.177-1.434l7.857-4.535a2.765,2.765,0,0,1,2.483-.1l7.929,4.579c.637.367.558,1.01-.177,1.434l-7.857,4.535A2.754,2.754,0,0,1,293.961,246.536Z" transform="translate(-189.403 -177.33)" fill="#06033e"/><path d="M301.491,250.884l-7.929-4.577c-.637-.367-.558-1.01.179-1.434l7.855-4.537a2.759,2.759,0,0,1,2.483-.1l7.93,4.577c.636.367.556,1.01-.179,1.434l-7.855,4.537A2.762,2.762,0,0,1,301.491,250.884Z" transform="translate(-184.689 -174.608)" fill="#06033e"/><path d="M309.021,255.232l-7.929-4.579c-.636-.367-.556-1.008.179-1.434l7.856-4.535a2.762,2.762,0,0,1,2.485-.1l7.929,4.577c.636.367.556,1.01-.179,1.434l-7.855,4.535A2.763,2.763,0,0,1,309.021,255.232Z" transform="translate(-179.974 -171.886)" fill="#06033e"/><path d="M316.551,259.579,308.622,255c-.636-.367-.556-1.01.179-1.434l7.856-4.535a2.763,2.763,0,0,1,2.485-.1l7.929,4.579c.637.367.558,1.01-.179,1.434l-7.855,4.535A2.762,2.762,0,0,1,316.551,259.579Z" transform="translate(-175.26 -169.164)" fill="#06033e"/><path d="M324.082,263.927l-7.929-4.577c-.637-.367-.558-1.01.177-1.434l7.857-4.537a2.759,2.759,0,0,1,2.483-.1l7.929,4.577c.637.368.558,1.01-.177,1.434l-7.857,4.535A2.754,2.754,0,0,1,324.082,263.927Z" transform="translate(-170.546 -166.443)" fill="#06033e"/><path d="M331.612,268.274l-7.929-4.577c-.637-.367-.558-1.01.179-1.434l7.855-4.535a2.754,2.754,0,0,1,2.483-.1l7.93,4.577c.636.367.556,1.01-.179,1.434l-7.857,4.535A2.754,2.754,0,0,1,331.612,268.274Z" transform="translate(-165.831 -163.721)" fill="#06033e"/><path d="M339.142,272.622l-7.929-4.577c-.636-.367-.556-1.01.179-1.434l7.856-4.535a2.763,2.763,0,0,1,2.485-.1l7.929,4.577c.636.367.556,1.01-.179,1.434l-7.855,4.537A2.762,2.762,0,0,1,339.142,272.622Z" transform="translate(-161.117 -160.999)" fill="#06033e"/><path d="M356.137,282.434l-17.3-9.987c-.636-.369-.556-1.01.179-1.434l7.855-4.537a2.762,2.762,0,0,1,2.485-.1l17.3,9.989c.637.366.556,1.008-.179,1.433l-7.855,4.537A2.762,2.762,0,0,1,356.137,282.434Z" transform="translate(-156.344 -158.243)" fill="#06033e"/><path d="M369.76,273.37l-14.6-8.431c-.637-.368-.558-1.01.179-1.434l7.855-4.535a2.763,2.763,0,0,1,2.485-.1l14.6,8.429c.636.367.556,1.01-.179,1.434l-7.857,4.537A2.76,2.76,0,0,1,369.76,273.37Z" transform="translate(-146.127 -162.942)" fill="#06033e"/><path d="M292.087,236.991l-7.929-4.579c-.636-.367-.556-1.008.179-1.434l7.855-4.535a2.763,2.763,0,0,1,2.485-.1l7.929,4.577c.636.367.556,1.01-.179,1.434l-7.855,4.535A2.763,2.763,0,0,1,292.087,236.991Z" transform="translate(-190.576 -183.306)" fill="#06033e"/><path d="M284.37,232.535l-7.929-4.577c-.637-.369-.558-1.01.177-1.434l7.857-4.537a2.759,2.759,0,0,1,2.483-.1l7.929,4.577c.637.367.558,1.01-.177,1.434l-7.857,4.535A2.754,2.754,0,0,1,284.37,232.535Z" transform="translate(-195.408 -186.096)" fill="#06033e"/><path d="M276.652,228.079l-7.929-4.577c-.636-.367-.556-1.01.179-1.434l7.855-4.537a2.768,2.768,0,0,1,2.485-.1l7.929,4.577c.636.367.556,1.01-.179,1.434l-7.855,4.537A2.762,2.762,0,0,1,276.652,228.079Z" transform="translate(-200.239 -188.885)" fill="#06033e"/><path d="M268.936,223.623l-7.93-4.577c-.636-.367-.556-1.01.179-1.434l7.857-4.535a2.76,2.76,0,0,1,2.483-.1l7.929,4.579c.637.368.558,1.01-.177,1.434l-7.857,4.535A2.759,2.759,0,0,1,268.936,223.623Z" transform="translate(-205.071 -191.675)" fill="#06033e"/><path d="M299.618,241.338l-7.93-4.577c-.636-.367-.556-1.01.179-1.434l7.857-4.535a2.76,2.76,0,0,1,2.483-.1l7.929,4.579c.637.367.558,1.008-.179,1.433l-7.855,4.537A2.759,2.759,0,0,1,299.618,241.338Z" transform="translate(-185.862 -180.584)" fill="#06033e"/><path d="M307.148,245.686l-7.929-4.577c-.637-.367-.558-1.01.177-1.434l7.857-4.537a2.759,2.759,0,0,1,2.483-.1l7.929,4.577c.637.367.558,1.01-.177,1.434l-7.857,4.535A2.755,2.755,0,0,1,307.148,245.686Z" transform="translate(-181.147 -177.863)" fill="#06033e"/><path d="M314.678,250.033l-7.929-4.577c-.637-.367-.556-1.01.179-1.434l7.855-4.535a2.758,2.758,0,0,1,2.485-.1l7.929,4.577c.636.367.556,1.01-.179,1.434l-7.855,4.535A2.763,2.763,0,0,1,314.678,250.033Z" transform="translate(-176.433 -175.141)" fill="#06033e"/><path d="M322.208,254.381l-7.929-4.577c-.636-.367-.556-1.01.179-1.434l7.855-4.537a2.762,2.762,0,0,1,2.485-.1l7.929,4.577c.636.367.556,1.01-.179,1.434l-7.855,4.537A2.763,2.763,0,0,1,322.208,254.381Z" transform="translate(-171.718 -172.419)" fill="#06033e"/><path d="M329.739,258.729l-7.93-4.579c-.636-.367-.556-1.01.179-1.433l7.857-4.537a2.759,2.759,0,0,1,2.483-.1l7.929,4.577c.637.367.558,1.01-.177,1.434l-7.857,4.535A2.76,2.76,0,0,1,329.739,258.729Z" transform="translate(-167.004 -169.697)" fill="#06033e"/><path d="M337.269,263.076l-7.929-4.577c-.637-.367-.558-1.01.177-1.434l7.857-4.535a2.76,2.76,0,0,1,2.483-.1L347.787,257c.637.367.558,1.008-.177,1.433l-7.857,4.537A2.759,2.759,0,0,1,337.269,263.076Z" transform="translate(-162.29 -166.975)" fill="#06033e"/><path d="M344.8,267.424l-7.929-4.577c-.637-.369-.556-1.01.179-1.434l7.855-4.537a2.763,2.763,0,0,1,2.485-.1l7.929,4.577c.636.367.556,1.01-.179,1.434l-7.855,4.535A2.758,2.758,0,0,1,344.8,267.424Z" transform="translate(-157.576 -164.253)" fill="#06033e"/><path d="M352.329,271.771l-7.929-4.577c-.636-.368-.556-1.01.179-1.434l7.855-4.535a2.768,2.768,0,0,1,2.485-.1l7.929,4.579c.637.367.556,1.01-.179,1.434l-7.855,4.535A2.763,2.763,0,0,1,352.329,271.771Z" transform="translate(-152.861 -161.531)" fill="#06033e"/><path d="M359.86,276.119l-7.929-4.577c-.637-.367-.558-1.01.177-1.434l7.857-4.537a2.759,2.759,0,0,1,2.483-.1l7.929,4.577c.637.367.558,1.01-.177,1.434l-7.857,4.537A2.759,2.759,0,0,1,359.86,276.119Z" transform="translate(-148.147 -158.81)" fill="#06033e"/><path d="M288.122,226.237l-7.929-4.577c-.636-.367-.556-1.01.179-1.434l7.855-4.535a2.758,2.758,0,0,1,2.485-.1l7.929,4.577c.636.369.556,1.01-.179,1.434l-7.855,4.537A2.763,2.763,0,0,1,288.122,226.237Z" transform="translate(-193.058 -190.039)" fill="#06033e"/><path d="M280.629,221.911l-7.929-4.577c-.636-.367-.556-1.01.179-1.434l7.856-4.535a2.758,2.758,0,0,1,2.485-.1l7.929,4.577c.637.369.556,1.01-.179,1.434l-7.855,4.537A2.762,2.762,0,0,1,280.629,221.911Z" transform="translate(-197.749 -192.747)" fill="#06033e"/><path d="M273.138,217.585l-7.93-4.577c-.636-.367-.556-1.01.179-1.434l7.857-4.535a2.754,2.754,0,0,1,2.483-.1l7.929,4.577c.637.369.558,1.01-.177,1.434l-7.857,4.537A2.759,2.759,0,0,1,273.138,217.585Z" transform="translate(-202.44 -195.455)" fill="#06033e"/><path d="M265.644,213.259l-7.929-4.577c-.637-.367-.558-1.01.177-1.434l7.857-4.535a2.755,2.755,0,0,1,2.483-.1l7.929,4.577c.637.369.558,1.01-.177,1.434l-7.857,4.537A2.759,2.759,0,0,1,265.644,213.259Z" transform="translate(-207.131 -198.163)" fill="#06033e"/><path d="M273.349,207.642l-7.929-4.577c-.637-.369-.558-1.01.177-1.434l2.6-1.5a2.758,2.758,0,0,1,2.485-.1l7.929,4.577c.636.367.556,1.01-.179,1.434l-2.6,1.5A2.759,2.759,0,0,1,273.349,207.642Z" transform="translate(-202.307 -199.779)" fill="#06033e"/><path d="M283.127,213.287,275.2,208.71c-.637-.368-.558-1.01.177-1.434l2.6-1.5a2.757,2.757,0,0,1,2.485-.1l7.929,4.577c.637.367.556,1.01-.179,1.434l-2.6,1.5A2.759,2.759,0,0,1,283.127,213.287Z" transform="translate(-196.186 -196.245)" fill="#06033e"/><path d="M290.588,217.6l-7.929-4.577c-.636-.368-.556-1.01.179-1.434l2.6-1.5a2.757,2.757,0,0,1,2.485-.1l7.929,4.577c.636.367.556,1.01-.179,1.434l-2.6,1.5A2.762,2.762,0,0,1,290.588,217.6Z" transform="translate(-191.514 -193.548)" fill="#06033e"/><path d="M298.05,221.9l-7.929-4.577c-.637-.367-.558-1.01.177-1.434l2.6-1.5a2.76,2.76,0,0,1,2.483-.1l7.929,4.579c.637.367.558,1.01-.177,1.434l-2.6,1.5A2.759,2.759,0,0,1,298.05,221.9Z" transform="translate(-186.843 -190.851)" fill="#06033e"/><path d="M305.511,226.211l-7.929-4.577c-.636-.367-.556-1.01.179-1.434l2.6-1.5a2.763,2.763,0,0,1,2.485-.1l7.929,4.579c.636.367.556,1.01-.179,1.434l-2.6,1.5A2.763,2.763,0,0,1,305.511,226.211Z" transform="translate(-182.172 -188.154)" fill="#06033e"/><path d="M347.168,250.262l-7.929-4.579c-.636-.368-.556-1.01.179-1.434l2.6-1.5a2.759,2.759,0,0,1,2.483-.1l7.93,4.577c.636.367.556,1.01-.179,1.434l-2.6,1.5A2.763,2.763,0,0,1,347.168,250.262Z" transform="translate(-156.092 -173.097)" fill="#06033e"/><path d="M354.63,254.569l-7.929-4.577c-.637-.367-.558-1.01.177-1.434l2.6-1.5a2.759,2.759,0,0,1,2.483-.1l7.929,4.577c.637.367.558,1.01-.177,1.434l-2.6,1.5A2.754,2.754,0,0,1,354.63,254.569Z" transform="translate(-151.421 -170.4)" fill="#06033e"/><path d="M362.091,258.878l-7.929-4.579c-.636-.367-.556-1.01.179-1.434l2.6-1.5a2.762,2.762,0,0,1,2.485-.1l7.929,4.577c.636.367.556,1.01-.179,1.434l-2.6,1.5A2.768,2.768,0,0,1,362.091,258.878Z" transform="translate(-146.749 -167.703)" fill="#06033e"/><path d="M369.553,263.185l-7.929-4.577c-.637-.367-.558-1.01.179-1.434l2.6-1.5a2.759,2.759,0,0,1,2.483-.1l7.929,4.577c.637.368.558,1.01-.177,1.434l-2.6,1.5A2.758,2.758,0,0,1,369.553,263.185Z" transform="translate(-142.078 -165.006)" fill="#06033e"/><path d="M295.652,230.585l-7.929-4.579c-.636-.367-.556-1.008.179-1.434l7.855-4.535a2.763,2.763,0,0,1,2.485-.1l7.929,4.577c.637.367.556,1.01-.179,1.434l-7.855,4.535A2.763,2.763,0,0,1,295.652,230.585Z" transform="translate(-188.344 -187.317)" fill="#06033e"/><path d="M303.183,234.932l-7.929-4.577c-.637-.367-.558-1.01.177-1.434l7.857-4.535a2.759,2.759,0,0,1,2.483-.1l7.929,4.579c.637.367.558,1.01-.177,1.433l-7.857,4.537A2.759,2.759,0,0,1,303.183,234.932Z" transform="translate(-183.63 -184.595)" fill="#06033e"/><path d="M310.713,239.28l-7.929-4.577c-.637-.367-.558-1.01.177-1.434l7.857-4.537a2.759,2.759,0,0,1,2.483-.1l7.93,4.577c.636.367.556,1.01-.179,1.434l-7.857,4.537A2.759,2.759,0,0,1,310.713,239.28Z" transform="translate(-178.915 -181.873)" fill="#06033e"/><path d="M318.243,243.627l-7.929-4.577c-.636-.367-.556-1.01.179-1.434l7.855-4.535a2.762,2.762,0,0,1,2.485-.1l7.929,4.577c.636.367.556,1.01-.179,1.434l-7.855,4.535A2.758,2.758,0,0,1,318.243,243.627Z" transform="translate(-174.201 -179.151)" fill="#06033e"/><path d="M325.773,247.975l-7.929-4.577c-.636-.367-.556-1.01.179-1.434l7.855-4.537a2.768,2.768,0,0,1,2.485-.1l7.929,4.577c.637.367.556,1.01-.179,1.434l-7.855,4.537A2.763,2.763,0,0,1,325.773,247.975Z" transform="translate(-169.487 -176.429)" fill="#06033e"/><path d="M333.3,252.323l-7.929-4.579c-.637-.367-.558-1.008.177-1.433l7.857-4.537a2.759,2.759,0,0,1,2.483-.1l7.929,4.577c.637.367.558,1.01-.177,1.434l-7.857,4.535A2.76,2.76,0,0,1,333.3,252.323Z" transform="translate(-164.772 -173.707)" fill="#06033e"/><path d="M340.834,256.67l-7.929-4.577c-.637-.367-.558-1.01.177-1.434l7.857-4.535a2.76,2.76,0,0,1,2.483-.1l7.93,4.579c.636.367.556,1.008-.179,1.434l-7.857,4.535A2.759,2.759,0,0,1,340.834,256.67Z" transform="translate(-160.058 -170.986)" fill="#06033e"/><path d="M348.364,261.018l-7.929-4.577c-.636-.367-.556-1.01.179-1.434l7.855-4.537a2.763,2.763,0,0,1,2.485-.1l7.929,4.577c.636.367.556,1.01-.179,1.434l-7.855,4.537A2.762,2.762,0,0,1,348.364,261.018Z" transform="translate(-155.343 -168.264)" fill="#06033e"/><path d="M355.9,265.365l-7.93-4.577c-.636-.368-.556-1.01.179-1.434L356,254.818a2.759,2.759,0,0,1,2.483-.1l7.929,4.577c.637.367.558,1.01-.179,1.434l-7.855,4.535A2.759,2.759,0,0,1,355.9,265.365Z" transform="translate(-150.629 -165.542)" fill="#06033e"/><path d="M258.539,234.549l-23.352-13.482c-.637-.367-.558-1.01.179-1.434l7.855-4.535a2.758,2.758,0,0,1,2.485-.1l23.35,13.482c.637.367.558,1.01-.177,1.434l-7.857,4.535A2.759,2.759,0,0,1,258.539,234.549Z" transform="translate(-221.235 -190.409)" fill="#06033e"/><path d="M351.05,287.962,327.7,274.48c-.637-.369-.556-1.01.179-1.434l7.855-4.537a2.762,2.762,0,0,1,2.485-.1l23.35,13.482c.637.367.558,1.01-.177,1.434l-7.857,4.535A2.76,2.76,0,0,1,351.05,287.962Z" transform="translate(-163.318 -156.97)" fill="#06033e"/><path d="M315,277.085l-7.929-4.579c-.636-.367-.556-1.01.179-1.434l9.358-5.4a2.762,2.762,0,0,1,2.485-.1l7.929,4.577c.636.367.556,1.01-.179,1.434l-9.358,5.4A2.763,2.763,0,0,1,315,277.085Z" transform="translate(-176.233 -158.749)" fill="#06033e"/><path d="M262.141,246.567l-12.68-7.32c-.637-.367-.556-1.01.179-1.434l9.358-5.4a2.757,2.757,0,0,1,2.485-.1l12.68,7.32c.637.367.556,1.01-.179,1.434l-9.358,5.4A2.763,2.763,0,0,1,262.141,246.567Z" transform="translate(-212.298 -179.571)" fill="#06033e"/><path d="M309.572,273.95,296.89,266.63c-.636-.368-.556-1.01.179-1.434l9.36-5.4a2.759,2.759,0,0,1,2.483-.1l12.68,7.321c.637.367.558,1.01-.177,1.434l-9.36,5.4A2.754,2.754,0,0,1,309.572,273.95Z" transform="translate(-182.605 -162.428)" fill="#06033e"/><path d="M273.007,252.841l-12.68-7.322c-.637-.368-.558-1.01.177-1.433l9.36-5.4a2.755,2.755,0,0,1,2.483-.1l12.682,7.322c.636.367.556,1.008-.179,1.434l-9.36,5.4A2.759,2.759,0,0,1,273.007,252.841Z" transform="translate(-205.496 -175.644)" fill="#06033e"/><path d="M272.234,238.514l55.131,31.83a.754.754,0,0,1,0,1.429l-9.543,5.511a2.738,2.738,0,0,1-2.478,0l-55.131-31.83Z" transform="translate(-205.298 -175.529)" fill="#06033e"/><path d="M335.275,280.514l8.833,5.1c.522.3.455.828-.146,1.176L340.132,289a2.264,2.264,0,0,1-2.036.085l-8.831-5.1c-.522-.3-.457-.828.146-1.176l3.828-2.21A2.264,2.264,0,0,1,335.275,280.514Z" transform="translate(-162.289 -149.362)" fill="#06033e"/><path d="M327.682,276.13l8.833,5.1c.522.3.457.828-.146,1.176l-3.828,2.211a2.269,2.269,0,0,1-2.036.085l-8.833-5.1c-.522-.3-.457-.828.146-1.176l3.828-2.211A2.269,2.269,0,0,1,327.682,276.13Z" transform="translate(-167.042 -152.107)" fill="#06033e"/><path d="M320.152,271.783l8.833,5.1c.522.3.455.828-.146,1.176l-3.829,2.21a2.264,2.264,0,0,1-2.036.085l-8.831-5.1c-.522-.3-.457-.828.146-1.176l3.828-2.21A2.264,2.264,0,0,1,320.152,271.783Z" transform="translate(-171.757 -154.828)" fill="#06033e"/><path d="M331.841,273.73l8.831,5.1c.522.3.457.828-.146,1.174l-3.828,2.211a2.264,2.264,0,0,1-2.036.085l-8.833-5.1c-.522-.3-.455-.828.146-1.176l3.829-2.21A2.259,2.259,0,0,1,331.841,273.73Z" transform="translate(-164.439 -153.61)" fill="#06033e"/></g><path d="M500.961,389.274,267.033,254.217c-3.678-2.124-5.6-7.3-4.288-11.558L315.647,70.9c1.311-4.259,5.355-5.99,9.033-3.867L558.607,202.088c3.678,2.124,5.6,7.3,4.288,11.558l-52.9,171.762C508.684,389.668,504.639,391.4,500.961,389.274Z" transform="translate(-61.72 -64.727)" fill="url(#h)"/><path d="M496.82,380.874l-226.9-131.107c-3.52-2.033-5.358-6.984-4.1-11.06L316.4,74.5c1.254-4.077,5.124-5.733,8.644-3.7l226.9,131.107c3.52,2.033,5.358,6.986,4.1,11.062l-50.577,164.2C504.211,381.249,500.341,382.906,496.82,380.874Z" transform="translate(-59.784 -62.341)" fill="url(#i)"/><path d="M496.82,380.874l-226.9-131.107c-3.52-2.033-5.358-6.984-4.1-11.06L316.4,74.5c1.254-4.077,5.124-5.733,8.644-3.7l226.9,131.107c3.52,2.033,5.358,6.986,4.1,11.062l-50.577,164.2C504.211,381.249,500.341,382.906,496.82,380.874Z" transform="translate(-59.784 -62.341)" fill="#06033e" opacity="0.4"/><path d="M496.82,380.874l-226.9-131.107c-3.52-2.033-5.358-6.984-4.1-11.06L316.4,74.5c1.254-4.077,5.124-5.733,8.644-3.7l226.9,131.107c3.52,2.033,5.358,6.986,4.1,11.062l-50.577,164.2C504.211,381.249,500.341,382.906,496.82,380.874Z" transform="translate(-59.784 -62.341)" fill="#06033e" opacity="0.4"/><path d="M460.558,311.99l-153.6-88.679a6.8,6.8,0,0,1-2.815-7.59l34.734-112.778c.86-2.8,3.515-3.933,5.932-2.54l153.6,88.68a6.8,6.8,0,0,1,2.815,7.589L466.49,309.45C465.628,312.247,462.973,313.385,460.558,311.99Z" transform="translate(-35.713 -43.637)" fill="#06033e" opacity="0.5"/><g transform="translate(247.41 58.893)"><path d="M447.795,313.664,294.2,224.986a6.806,6.806,0,0,1-2.815-7.59l34.736-112.778c.86-2.8,3.516-3.933,5.93-2.54l153.6,88.68a6.8,6.8,0,0,1,2.816,7.589L453.727,311.124C452.867,313.921,450.211,315.059,447.795,313.664Z" transform="translate(-291.113 -101.482)" fill="url(#j)"/></g><g transform="translate(247.41 58.893)" opacity="0.5"><path d="M447.795,313.664,294.2,224.986a6.806,6.806,0,0,1-2.815-7.59l34.736-112.778c.86-2.8,3.516-3.933,5.93-2.54l153.6,88.68a6.8,6.8,0,0,1,2.816,7.589L453.727,311.124C452.867,313.921,450.211,315.059,447.795,313.664Z" transform="translate(-291.113 -101.482)" fill="#06033e"/></g><path d="M471.549,190.757l-153.6-88.68a3.824,3.824,0,0,0-4.322.148,4.137,4.137,0,0,1,2.218.568l153.6,88.68a6.8,6.8,0,0,1,2.816,7.589L437.526,311.84a4.634,4.634,0,0,1-1.61,2.392,4.063,4.063,0,0,0,3.714-3.107l34.734-112.778A6.8,6.8,0,0,0,471.549,190.757Z" transform="translate(-29.606 -42.589)" fill="#fff"/><path d="M295.192,313.819a11.557,11.557,0,0,1-5.691-1.335v0l-61.538-35.528a4.449,4.449,0,0,1-2.529-3.792c0-1.745,1.237-3.459,3.394-4.7l31.676-18.29c3.872-2.233,9.551-2.452,12.939-.5L334.98,285.2a4.448,4.448,0,0,1,2.53,3.792c0,1.743-1.237,3.459-3.394,4.7l-31.679,18.291A14.837,14.837,0,0,1,295.192,313.819Zm-27.412-63.68a13.211,13.211,0,0,0-6.387,1.572L229.717,270c-1.594.92-2.507,2.075-2.507,3.166a2.805,2.805,0,0,0,1.642,2.25l61.538,35.531c2.792,1.608,7.9,1.384,11.16-.5l31.677-18.288c1.594-.919,2.506-2.072,2.506-3.164a2.81,2.81,0,0,0-1.642-2.252l-61.536-35.528A9.763,9.763,0,0,0,267.78,250.139Z" transform="translate(-84.821 49.353)" fill="#06033e" opacity="0.4"/></g><g transform="translate(373.576 141.343)"><g transform="translate(10.182 7.583)"><path d="M343.391,141.826l-9.495-5.483a2.475,2.475,0,0,1-1.055-2.73h0a1.406,1.406,0,0,1,2.135-.889l9.495,5.483a2.474,2.474,0,0,1,1.055,2.73h0A1.406,1.406,0,0,1,343.391,141.826Z" transform="translate(-297.693 -127.026)" fill="#fff"/><path d="M359.038,150.858l-14-8.085a2.475,2.475,0,0,1-1.055-2.73h0a1.406,1.406,0,0,1,2.135-.888l14,8.083a2.479,2.479,0,0,1,1.055,2.732h0A1.406,1.406,0,0,1,359.038,150.858Z" transform="translate(-290.719 -122.999)" fill="#fff"/><path d="M331.615,167.824l-9.5-5.481a2.481,2.481,0,0,1-1.055-2.732h0a1.406,1.406,0,0,1,2.135-.888l9.5,5.483a2.473,2.473,0,0,1,1.055,2.73h0A1.406,1.406,0,0,1,331.615,167.824Z" transform="translate(-305.066 -110.749)" fill="#fff"/><path d="M345.749,175.986l-14-8.085a2.48,2.48,0,0,1-1.055-2.73h0a1.407,1.407,0,0,1,2.135-.889l14,8.085a2.475,2.475,0,0,1,1.055,2.73h0A1.406,1.406,0,0,1,345.749,175.986Z" transform="translate(-299.038 -107.268)" fill="#fff"/><path d="M324.527,136.4l-5.932-3.424a2.475,2.475,0,0,1-1.055-2.73h0a1.406,1.406,0,0,1,2.135-.889l5.932,3.426a2.475,2.475,0,0,1,1.055,2.73h0A1.406,1.406,0,0,1,324.527,136.4Z" transform="translate(-307.272 -129.134)" fill="#fff"/><path d="M340.2,150.915,322.074,140.45a2.474,2.474,0,0,1-1.055-2.73h0a1.406,1.406,0,0,1,2.135-.889L341.278,147.3a2.475,2.475,0,0,1,1.055,2.73h0A1.406,1.406,0,0,1,340.2,150.915Z" transform="translate(-305.094 -124.455)" fill="#fff"/><path d="M325.224,153.2l-5.933-3.424a2.48,2.48,0,0,1-1.055-2.73h0a1.406,1.406,0,0,1,2.135-.889l5.933,3.424a2.481,2.481,0,0,1,1.055,2.732h0A1.406,1.406,0,0,1,325.224,153.2Z" transform="translate(-306.836 -118.616)" fill="#fff"/><path d="M347.8,188.1l-15.844-9.148a2.476,2.476,0,0,1-1.055-2.73h0a1.406,1.406,0,0,1,2.135-.889l15.844,9.148a2.477,2.477,0,0,1,1.055,2.73h0A1.406,1.406,0,0,1,347.8,188.1Z" transform="translate(-298.905 -100.347)" fill="#fff"/><path d="M320.317,161.3l-3.808-2.2a2.478,2.478,0,0,1-1.055-2.732h0a1.406,1.406,0,0,1,2.135-.888l3.808,2.2a2.476,2.476,0,0,1,1.055,2.73h0A1.405,1.405,0,0,1,320.317,161.3Z" transform="translate(-308.578 -112.776)" fill="#fff"/><path d="M318.456,171.159l-4.729-2.73a2.473,2.473,0,0,1-1.055-2.73h0a1.405,1.405,0,0,1,2.135-.888l4.729,2.73a2.475,2.475,0,0,1,1.055,2.73h0A1.406,1.406,0,0,1,318.456,171.159Z" transform="translate(-310.32 -106.937)" fill="#fff"/><path d="M332.747,179.412l-12.467-7.2a2.475,2.475,0,0,1-1.055-2.73h0a1.4,1.4,0,0,1,2.135-.888l12.467,7.2a2.477,2.477,0,0,1,1.055,2.73h0A1.406,1.406,0,0,1,332.747,179.412Z" transform="translate(-306.216 -104.568)" fill="#fff"/><path d="M321.3,178.268l-8.963-5.174a2.476,2.476,0,0,1-1.055-2.732h0a1.406,1.406,0,0,1,2.135-.888l8.963,5.176a2.474,2.474,0,0,1,1.055,2.73h0A1.406,1.406,0,0,1,321.3,178.268Z" transform="translate(-311.191 -104.018)" fill="#fff"/><path d="M352.279,190.712l-5.756-3.324a2.479,2.479,0,0,1-1.055-2.732h0a1.406,1.406,0,0,1,2.135-.888l5.756,3.324a2.475,2.475,0,0,1,1.055,2.73h0A1.406,1.406,0,0,1,352.279,190.712Z" transform="translate(-289.788 -95.068)" fill="#fff"/><path d="M342.61,163.239l-15.844-9.148a2.475,2.475,0,0,1-1.055-2.73h0a1.4,1.4,0,0,1,2.135-.888l15.844,9.147a2.478,2.478,0,0,1,1.055,2.732h0A1.406,1.406,0,0,1,342.61,163.239Z" transform="translate(-302.157 -115.914)" fill="#fff"/></g><path d="M348.3,161.056l-27.614-15.942a2.476,2.476,0,0,1-1.055-2.732h0a1.406,1.406,0,0,1,2.135-.888l27.614,15.943a2.475,2.475,0,0,1,1.055,2.73h0A1.406,1.406,0,0,1,348.3,161.056Z" transform="translate(-295.783 -113.952)" fill="#e8975b"/><path d="M333.744,163.588,317.9,154.44a2.476,2.476,0,0,1-1.055-2.73h0a1.407,1.407,0,0,1,2.135-.889l15.844,9.148a2.477,2.477,0,0,1,1.055,2.73h0A1.406,1.406,0,0,1,333.744,163.588Z" transform="translate(-297.526 -108.113)" fill="#e8975b"/><path d="M346.116,165.264l-5.756-3.324a2.477,2.477,0,0,1-1.055-2.73h0a1.406,1.406,0,0,1,2.135-.889l5.756,3.324a2.475,2.475,0,0,1,1.055,2.73h0A1.406,1.406,0,0,1,346.116,165.264Z" transform="translate(-283.464 -103.417)" fill="#e8975b"/><path d="M393.035,170.488l-34.089-19.682a2.476,2.476,0,0,1-1.055-2.732h0a1.406,1.406,0,0,1,2.135-.888l34.089,19.682a2.475,2.475,0,0,1,1.055,2.73h0A1.406,1.406,0,0,1,393.035,170.488Z" transform="translate(-271.828 -110.388)" fill="#e8975b"/><path d="M334.164,174.762l-19.046-11a2.477,2.477,0,0,1-1.055-2.73h0a1.406,1.406,0,0,1,2.135-.889l19.046,11a2.475,2.475,0,0,1,1.055,2.73h0A1.406,1.406,0,0,1,334.164,174.762Z" transform="translate(-299.267 -102.274)" fill="#f8359e"/><path d="M333.988,136.395l-14-8.083a2.478,2.478,0,0,1-1.055-2.732h0a1.406,1.406,0,0,1,2.135-.888l14,8.083a2.478,2.478,0,0,1,1.055,2.732h0A1.406,1.406,0,0,1,333.988,136.395Z" transform="translate(-296.22 -124.471)" fill="#f8359e"/><path d="M322.29,184.307l-16.217-9.363a2.476,2.476,0,0,1-1.055-2.73h0a1.407,1.407,0,0,1,2.135-.889l16.217,9.363a2.476,2.476,0,0,1,1.055,2.732h0A1.406,1.406,0,0,1,322.29,184.307Z" transform="translate(-304.929 -95.276)" fill="#e8975b"/></g><g transform="translate(490.834 177.095)"><path d="M384.819,153.273l-6.942-4.008a1.809,1.809,0,0,1-.771-2h0a1.027,1.027,0,0,1,1.559-.65l6.942,4.008a1.809,1.809,0,0,1,.771,2h0A1.028,1.028,0,0,1,384.819,153.273Z" transform="translate(-377.041 -146.458)" fill="#fff"/><path d="M392.961,157.974l-6.942-4.008a1.81,1.81,0,0,1-.771-2h0a1.028,1.028,0,0,1,1.561-.65l6.94,4.008a1.809,1.809,0,0,1,.772,2h0A1.029,1.029,0,0,1,392.961,157.974Z" transform="translate(-371.944 -143.515)" fill="#fff"/><path d="M401.1,162.674l-6.942-4.007a1.81,1.81,0,0,1-.771-2h0a1.028,1.028,0,0,1,1.561-.65l6.94,4.007a1.813,1.813,0,0,1,.772,2h0A1.028,1.028,0,0,1,401.1,162.674Z" transform="translate(-366.846 -140.572)" fill="#fff"/><path d="M402.513,163.493l-.208-.125a1.812,1.812,0,0,1-.772-2h0a1.028,1.028,0,0,1,1.561-.649l.208.125a1.812,1.812,0,0,1,.772,2h0A1.028,1.028,0,0,1,402.513,163.493Z" transform="translate(-361.749 -137.629)" fill="#f8359e"/></g><path d="M205.829,239.9a25.4,25.4,0,0,1-12.7-3.394h0l-46.5-26.846a6.438,6.438,0,0,1,0-11.151l46.5-26.843a25.471,25.471,0,0,1,25.409,0l46.5,26.845a6.438,6.438,0,0,1,0,11.151l-46.5,26.844A25.409,25.409,0,0,1,205.829,239.9Zm-11.19-6.015a22.456,22.456,0,0,0,22.384,0l46.5-26.845a3.412,3.412,0,0,0,0-5.909l-46.5-26.846a22.448,22.448,0,0,0-22.384,0l-46.5,26.844a3.412,3.412,0,0,0,0,5.909Z" transform="translate(-32.473 44.292)" fill="url(#a)"/><g transform="translate(126.764 80.93)"><ellipse cx="31.937" cy="18.439" rx="31.937" ry="18.439" transform="translate(14.422 149.638)" fill="#020230" opacity="0.6"/><path d="M245.79,109.863H154.825l8.46,98.489h0c0,5.472,3.615,10.942,10.844,15.114,14.457,8.348,37.9,8.348,52.357,0,7.229-4.172,10.843-9.643,10.843-15.114Z" transform="translate(-152.09 -73.203)" fill="url(#l)"/><path d="M245.79,109.863H154.825l1.392,16.2a35.4,35.4,0,0,0,8.431,7.584c17.381,11.53,46.063,13.753,65.632,5.449l-3.026,72.034a14.143,14.143,0,0,1-3.25,8.589c-2.946,3.468-8.623,7.548-19.535,9.855,8.042-.522,15.849-2.55,22.018-6.112,7.229-4.172,10.843-9.643,10.843-15.114l6.786-78.986h0Z" transform="translate(-152.09 -73.203)" fill="#06033e" opacity="0.4"/><ellipse cx="45.482" cy="26.259" rx="45.482" ry="26.259" transform="translate(2.735 10.401)" fill="#06033e" opacity="0.4"/><ellipse cx="39.175" cy="22.618" rx="39.175" ry="22.618" transform="translate(9.043 4.787)" fill="#06033e" opacity="0.4"/><path d="M249.537,122.693l0,.007-.007-.08c0-.044-.01-.089-.015-.135l-.873-8.818-.037.1c-.39-6.673-4.987-13.282-13.812-18.378-18.467-10.662-48.408-10.662-66.873,0-9.047,5.223-13.651,12.038-13.833,18.883l-.011-.024-.831,7.852c-.023.2-.05.41-.065.613l-.015.13.01-.006c-.5,7.481,4.189,15.056,14.082,20.766,18.833,10.873,49.369,10.875,68.2,0C245.417,137.856,250.1,130.222,249.537,122.693Z" transform="translate(-153.143 -87.271)" fill="url(#m)"/><ellipse cx="39.175" cy="22.618" rx="39.175" ry="22.618" transform="translate(9.043 4.787)" fill="url(#n)"/><ellipse cx="39.175" cy="22.618" rx="39.175" ry="22.618" transform="translate(7.184 4.787)" fill="url(#n)"/><path d="M174.819,100.254c15.3-8.833,40.1-8.833,55.4,0,.2.112.358.236.548.35a31.173,31.173,0,0,0-5.2-3.719c-15.3-8.833-40.1-8.834-55.4,0-15.1,8.721-15.267,22.781-.548,31.637C159.8,119.759,161.518,107.934,174.819,100.254Z" transform="translate(-149.656 -85.475)" fill="#06033e" opacity="0.4"/><path d="M170.175,100.811c15.3-8.833,40.1-8.831,55.4,0,6.786,3.916,10.553,8.912,11.322,14.03.963-6.423-2.807-13.039-11.322-17.955-15.3-8.833-40.1-8.834-55.4,0-8.514,4.917-12.283,11.532-11.321,17.957C159.622,109.723,163.391,104.728,170.175,100.811Z" transform="translate(-149.659 -85.475)" fill="url(#p)"/><path d="M234.8,95.642c-18.441-10.864-48.491-11.129-67.119-.59s-18.781,27.887-.34,38.751,48.489,11.129,67.119.59S253.238,106.506,234.8,95.642Zm-6.028,35.074a51.065,51.065,0,0,1-17.813,5.87l-.711-2.337a2.241,2.241,0,0,0-2.145-1.587H194.035a2.241,2.241,0,0,0-2.143,1.587l-.711,2.337a51.013,51.013,0,0,1-17.812-5.872c-15.3-8.833-15.3-23.153,0-31.986s40.1-8.831,55.4,0S244.068,121.883,228.77,130.716Z" transform="translate(-152.851 -87.318)" fill="url(#q)"/><g transform="translate(0.77 3.112)"><path d="M225.576,95.857c-15.3-8.833-40.1-8.834-55.4,0-8.018,4.628-11.826,10.764-11.439,16.828.351-5.506,4.159-10.951,11.439-15.155,15.3-8.833,40.1-8.833,55.4,0,7.281,4.2,11.09,9.649,11.441,15.155C237.4,106.623,233.6,100.486,225.576,95.857Z" transform="translate(-150.429 -89.232)" fill="#fff"/><path d="M234.453,122.582c-18.628,10.538-48.679,10.273-67.119-.59-8.776-5.171-13.33-11.808-13.7-18.483-.363,7.228,4.189,14.555,13.7,20.158,18.439,10.864,48.491,11.129,67.119.59,9.763-5.522,14.441-12.917,14.038-20.267C248.149,110.778,243.475,117.479,234.453,122.582Z" transform="translate(-153.617 -80.294)" fill="#fff"/></g><path d="M.654,0H9.88a.653.653,0,0,1,.653.653V1.62a.654.654,0,0,1-.654.654H.654A.654.654,0,0,1,0,1.62V.654A.654.654,0,0,1,.654,0Z" transform="translate(42.951 48.213)" fill="#0c0a78"/><path d="M189.027,116.968h-8.408a1.063,1.063,0,0,0-1.062,1.062v.15a1.018,1.018,0,0,0,.057.281,1.049,1.049,0,0,1,1-.779h8.408a1.051,1.051,0,0,1,1.007.779,1.081,1.081,0,0,0,.057-.281v-.15A1.064,1.064,0,0,0,189.027,116.968Z" transform="translate(-136.606 -68.755)" fill="url(#r)"/><g transform="translate(31.92 106.245)"><path d="M189.091,167.309a7.267,7.267,0,0,1-14.046-3.735c1.031-3.88,4.69-4.977,8.568-3.946S190.122,163.43,189.091,167.309Z" transform="translate(-171.505 -148.521)" fill="#e8975b"/><path d="M189.243,161.861a3.218,3.218,0,1,1-4.5-4.6c1.463-1.429,4.244-2.133,5.486-.863S190.707,160.432,189.243,161.861Z" transform="translate(-165.938 -150.73)" fill="#e8975b"/><path d="M184.9,157.708a3.217,3.217,0,1,1-6.335-1.127c.358-2.015,2.211-4.2,3.961-3.894S185.255,155.695,184.9,157.708Z" transform="translate(-169.19 -152.657)" fill="#e8975b"/><path d="M179.111,156.389a3.218,3.218,0,1,1-5.951,2.449c-.779-1.893-.39-4.735,1.254-5.412S178.332,154.5,179.111,156.389Z" transform="translate(-172.773 -152.268)" fill="#e8975b"/></g></g><path d="M189.639,155.879s25.431-8.522,15.135-37.744-30.347-38.128-22.27-61.5c0,0-12.657,18.924-.829,44.528s14.421,22.662,14.283,34.907a22.094,22.094,0,0,1-11.917,19.813Z" transform="translate(-11.679 -25.599)" fill="#fff" opacity="0.5"/><path d="M186.1,72.644s-2.649-17.48,13.748-35.1c0,0-14.5,32.386-9.756,48.375C190.088,85.922,186.252,75.759,186.1,72.644Z" transform="translate(-5.848 -37.547)" fill="#fff" opacity="0.5"/></svg>