<svg xmlns="http://www.w3.org/2000/svg" xmlns:xlink="http://www.w3.org/1999/xlink" width="593.198" height="569.334" viewBox="0 0 593.198 569.334">
  <defs>
    <linearGradient id="linear-gradient" y1="0.5" x2="0.713" y2="0.5" gradientUnits="objectBoundingBox">
      <stop offset="0.247" stop-color="#5761d7"/>
      <stop offset="0.436" stop-color="#6b74df"/>
      <stop offset="0.824" stop-color="#a1a5f4"/>
      <stop offset="1" stop-color="#bcbeff"/>
    </linearGradient>
    <linearGradient id="linear-gradient-2" y1="0.5" x2="1" y2="0.5" gradientUnits="objectBoundingBox">
      <stop offset="0" stop-color="#c0bff6"/>
      <stop offset="0.294" stop-color="#c4c3f6"/>
      <stop offset="0.64" stop-color="#d2d2f9"/>
      <stop offset="1" stop-color="#e9e9fd"/>
    </linearGradient>
    <linearGradient id="linear-gradient-3" y1="0.5" x2="1" y2="0.5" gradientUnits="objectBoundingBox">
      <stop offset="0" stop-color="#42e8e0"/>
      <stop offset="0.151" stop-color="#42e3df"/>
      <stop offset="0.328" stop-color="#44d4de"/>
      <stop offset="0.52" stop-color="#48bddd"/>
      <stop offset="0.721" stop-color="#4d9bda"/>
      <stop offset="0.927" stop-color="#5471d8"/>
      <stop offset="1" stop-color="#5761d7"/>
    </linearGradient>
    <linearGradient id="linear-gradient-25" x1="-16.909" x2="-15.909" xlink:href="#linear-gradient-2"/>
    <linearGradient id="linear-gradient-26" x1="-103.299" y1="0.5" x2="-102.299" y2="0.5" gradientUnits="objectBoundingBox">
      <stop offset="0" stop-color="#5761d7"/>
      <stop offset="0.178" stop-color="#5b65d8"/>
      <stop offset="0.388" stop-color="#6a72de"/>
      <stop offset="0.613" stop-color="#8188e8"/>
      <stop offset="0.849" stop-color="#a2a6f5"/>
      <stop offset="1" stop-color="#bcbeff"/>
    </linearGradient>
    <linearGradient id="linear-gradient-27" x1="-11.491" x2="-10.491" xlink:href="#linear-gradient-26"/>
    <linearGradient id="linear-gradient-28" x1="-11.149" x2="-10.149" xlink:href="#linear-gradient-2"/>
    <linearGradient id="linear-gradient-29" x1="-43.825" x2="-42.825" xlink:href="#linear-gradient-2"/>
    <clipPath id="clip-path">
      <path id="SVGID" d="M446.617,74.894,666.273,201.712,639.033,362.3,419.525,235.563Z" transform="translate(-419.525 -74.894)" fill="none"/>
    </clipPath>
    <linearGradient id="linear-gradient-30" x1="-11.913" x2="-10.913" xlink:href="#linear-gradient-2"/>
    <linearGradient id="linear-gradient-31" x1="-48.647" x2="-47.647" xlink:href="#linear-gradient-2"/>
  </defs>
  <g id="Group_2777" data-name="Group 2777" transform="translate(-220.688 -66.918)">
    <g id="Group_2752" data-name="Group 2752" transform="translate(220.688 348.763)">
      <path id="Path_4378" data-name="Path 4378" d="M309.9,370.022l-89.215-51.509,89.211-51.5,89.215,51.506Zm-86.687-51.509,86.687,50.05,86.685-50.048L309.9,268.468Z" transform="translate(-220.688 -212.118)" fill="#8686f2" style="mix-blend-mode: lighten;isolation: isolate"/>
      <path id="Path_4379" data-name="Path 4379" d="M389.616,292.987v-16.64l-82.457,45.5-82.456-45.5v16.64l82.458,47.607Z" transform="translate(-217.946 -205.742)" fill="url(#linear-gradient)"/>
      <path id="Path_4380" data-name="Path 4380" d="M307.161,343.27,224.7,295.663l82.455-47.605,82.458,47.607Z" transform="translate(-217.946 -225.06)" fill="url(#linear-gradient-2)"/>
      <path id="Path_4381" data-name="Path 4381" d="M307.161,322.859,225.89,275.938l-1.187.685,82.458,47.607,82.455-47.605-1.187-.685Z" transform="translate(-217.946 -206.02)" fill="#fff" opacity="0.5"/>
      <path id="Path_4382" data-name="Path 4382" d="M294.385,317.719,243.41,288.288l50.974-29.43,50.976,29.431Z" transform="translate(-205.171 -217.685)" fill="#0f054c"/>
      <g id="Group_2751" data-name="Group 2751" transform="translate(38.238)">
        <path id="Path_4383" data-name="Path 4383" d="M294.386,317.72l-50.977-29.431,50.975-29.43,50.977,29.431Z" transform="translate(-243.409 -217.685)" opacity="0.5" fill="url(#linear-gradient-3)"/>
        <g id="Group_2750" data-name="Group 2750">
          <path id="Path_4384" data-name="Path 4384" d="M273.7,234.392l50.977,29.431V305L273.7,275.565Z" transform="translate(-222.724 -234.392)" opacity="0.5" fill="url(#linear-gradient-3)"/>
          <path id="Path_4385" data-name="Path 4385" d="M294.386,275.565,243.409,305V263.823l50.975-29.431Z" transform="translate(-243.409 -234.392)" opacity="0.5" fill="url(#linear-gradient-3)"/>
          <path id="Path_4386" data-name="Path 4386" d="M294.386,293.254l-50.977-29.431,50.975-29.431,50.977,29.431Z" transform="translate(-243.409 -234.392)" opacity="0.5" fill="url(#linear-gradient-3)"/>
          <path id="Path_4387" data-name="Path 4387" d="M273.7,281.311v41.173l50.975-29.43V251.881Z" transform="translate(-222.723 -222.449)" opacity="0.5" fill="url(#linear-gradient-3)"/>
        </g>
        <path id="Path_4388" data-name="Path 4388" d="M243.409,251.88v41.173l50.977,29.431V281.312Z" transform="translate(-243.409 -222.45)" opacity="0.5" fill="url(#linear-gradient-3)"/>
      </g>
    </g>
    <rect id="Rectangle_571" data-name="Rectangle 571" width="100.272" height="1.177" transform="translate(436.659 504.214) rotate(-30.005)" fill="#8686f2" style="mix-blend-mode: lighten;isolation: isolate"/>
    <g id="Group_2755" data-name="Group 2755" transform="translate(333.023 413.556)">
      <path id="Path_4389" data-name="Path 4389" d="M376.653,408.522l-89.215-51.509,89.211-51.5,89.215,51.506Zm-86.687-51.509,86.687,50.05,86.685-50.048-86.689-50.047Z" transform="translate(-287.438 -250.618)" fill="#8686f2" style="mix-blend-mode: lighten;isolation: isolate"/>
      <path id="Path_4390" data-name="Path 4390" d="M456.366,331.487v-16.64l-82.457,45.5-82.456-45.5v16.64l82.457,47.607Z" transform="translate(-284.696 -244.242)" fill="url(#linear-gradient)"/>
      <path id="Path_4391" data-name="Path 4391" d="M373.91,381.77l-82.457-47.607,82.455-47.605,82.458,47.607Z" transform="translate(-284.696 -263.56)" fill="url(#linear-gradient-2)"/>
      <path id="Path_4392" data-name="Path 4392" d="M373.911,361.359,292.64,314.438l-1.187.685,82.458,47.607,82.455-47.605-1.187-.685Z" transform="translate(-284.696 -244.52)" fill="#fff" opacity="0.5"/>
      <path id="Path_4393" data-name="Path 4393" d="M361.135,356.219l-50.976-29.431,50.974-29.43,50.976,29.431Z" transform="translate(-271.921 -256.185)" fill="#0f054c"/>
      <g id="Group_2754" data-name="Group 2754" transform="translate(38.238)">
        <path id="Path_4394" data-name="Path 4394" d="M361.135,356.22l-50.977-29.431,50.975-29.431,50.977,29.431Z" transform="translate(-310.159 -256.185)" opacity="0.5" fill="url(#linear-gradient-3)"/>
        <g id="Group_2753" data-name="Group 2753">
          <path id="Path_4395" data-name="Path 4395" d="M340.449,272.892l50.977,29.431V343.5l-50.977-29.431Z" transform="translate(-289.474 -272.892)" opacity="0.5" fill="url(#linear-gradient-3)"/>
          <path id="Path_4396" data-name="Path 4396" d="M361.135,314.065,310.159,343.5V302.323l50.975-29.431Z" transform="translate(-310.159 -272.892)" opacity="0.5" fill="url(#linear-gradient-3)"/>
          <path id="Path_4397" data-name="Path 4397" d="M361.135,331.754l-50.977-29.431,50.975-29.431,50.977,29.431Z" transform="translate(-310.159 -272.892)" opacity="0.5" fill="url(#linear-gradient-3)"/>
          <path id="Path_4398" data-name="Path 4398" d="M340.45,319.811v41.173l50.975-29.43V290.381Z" transform="translate(-289.473 -260.949)" opacity="0.5" fill="url(#linear-gradient-3)"/>
        </g>
        <path id="Path_4399" data-name="Path 4399" d="M310.159,290.38v41.173l50.977,29.431V319.812Z" transform="translate(-310.159 -260.95)" opacity="0.5" fill="url(#linear-gradient-3)"/>
      </g>
    </g>
    <g id="Group_2758" data-name="Group 2758" transform="translate(445.357 478.348)">
      <path id="Path_4400" data-name="Path 4400" d="M443.4,447.022l-89.215-51.509,89.211-51.5,89.215,51.506Zm-86.687-51.509,86.687,50.05,86.685-50.048L443.4,345.468Z" transform="translate(-354.188 -289.118)" fill="#8686f2" style="mix-blend-mode: lighten;isolation: isolate"/>
      <path id="Path_4401" data-name="Path 4401" d="M523.116,369.987v-16.64l-82.457,45.5-82.456-45.5v16.64l82.457,47.607Z" transform="translate(-351.446 -282.742)" fill="url(#linear-gradient)"/>
      <path id="Path_4402" data-name="Path 4402" d="M440.66,420.27,358.2,372.663l82.455-47.606,82.458,47.607Z" transform="translate(-351.446 -302.06)" fill="url(#linear-gradient-2)"/>
      <path id="Path_4403" data-name="Path 4403" d="M440.661,399.859,359.39,352.938l-1.187.685,82.458,47.607,82.455-47.605-1.187-.685Z" transform="translate(-351.446 -283.02)" fill="#fff" opacity="0.5"/>
      <path id="Path_4404" data-name="Path 4404" d="M427.885,394.719l-50.976-29.431,50.974-29.43,50.976,29.431Z" transform="translate(-338.671 -294.685)" fill="#0f054c"/>
      <g id="Group_2757" data-name="Group 2757" transform="translate(38.238)">
        <path id="Path_4405" data-name="Path 4405" d="M427.886,394.72l-50.977-29.431,50.975-29.43,50.977,29.431Z" transform="translate(-376.909 -294.685)" opacity="0.5" fill="url(#linear-gradient-3)"/>
        <g id="Group_2756" data-name="Group 2756">
          <path id="Path_4406" data-name="Path 4406" d="M407.2,311.392l50.977,29.431V382L407.2,352.565Z" transform="translate(-356.224 -311.392)" opacity="0.5" fill="url(#linear-gradient-3)"/>
          <path id="Path_4407" data-name="Path 4407" d="M427.886,352.565,376.909,382V340.823l50.975-29.431Z" transform="translate(-376.909 -311.392)" opacity="0.5" fill="url(#linear-gradient-3)"/>
          <path id="Path_4408" data-name="Path 4408" d="M427.886,370.254l-50.977-29.431,50.975-29.431,50.977,29.431Z" transform="translate(-376.909 -311.392)" opacity="0.5" fill="url(#linear-gradient-3)"/>
          <path id="Path_4409" data-name="Path 4409" d="M407.2,358.311v41.173l50.975-29.43V328.881Z" transform="translate(-356.223 -299.449)" opacity="0.5" fill="url(#linear-gradient-3)"/>
        </g>
        <path id="Path_4410" data-name="Path 4410" d="M376.909,328.88v41.173l50.977,29.431V358.312Z" transform="translate(-376.909 -299.45)" opacity="0.5" fill="url(#linear-gradient-3)"/>
      </g>
    </g>
    <g id="Group_2759" data-name="Group 2759" transform="translate(265.903 91.946)">
      <path id="Path_4411" data-name="Path 4411" d="M249.086,180.949a1.694,1.694,0,0,1-.766,1.326c-.424.244-.766.045-.766-.443a1.689,1.689,0,0,1,.766-1.326C248.743,180.262,249.086,180.461,249.086,180.949Z" transform="translate(-247.555 -14.446)" fill="#8686f2" style="mix-blend-mode: lighten;isolation: isolate"/>
      <path id="Path_4412" data-name="Path 4412" d="M266.166,171.088a1.694,1.694,0,0,1-.766,1.326c-.422.244-.766.045-.766-.443a1.694,1.694,0,0,1,.766-1.326C265.823,170.4,266.166,170.6,266.166,171.088Z" transform="translate(-235.891 -21.18)" fill="#8686f2" style="mix-blend-mode: lighten;isolation: isolate"/>
      <path id="Path_4413" data-name="Path 4413" d="M249.086,200.671a1.694,1.694,0,0,1-.766,1.326c-.424.244-.766.045-.766-.443a1.689,1.689,0,0,1,.766-1.326C248.743,199.984,249.086,200.183,249.086,200.671Z" transform="translate(-247.555 -0.977)" fill="#8686f2" style="mix-blend-mode: lighten;isolation: isolate"/>
      <path id="Path_4414" data-name="Path 4414" d="M266.166,190.81a1.7,1.7,0,0,1-.766,1.326c-.422.244-.766.045-.766-.443a1.694,1.694,0,0,1,.766-1.326C265.823,190.123,266.166,190.32,266.166,190.81Z" transform="translate(-235.891 -7.712)" fill="#8686f2" style="mix-blend-mode: lighten;isolation: isolate"/>
      <path id="Path_4415" data-name="Path 4415" d="M283.246,161.225a1.691,1.691,0,0,1-.766,1.326c-.422.246-.766.047-.766-.441a1.694,1.694,0,0,1,.766-1.326C282.9,160.54,283.246,160.737,283.246,161.225Z" transform="translate(-224.227 -27.915)" fill="#8686f2" style="mix-blend-mode: lighten;isolation: isolate"/>
      <path id="Path_4416" data-name="Path 4416" d="M283.246,180.947a1.694,1.694,0,0,1-.766,1.326c-.422.244-.766.047-.766-.441a1.694,1.694,0,0,1,.766-1.326C282.9,180.262,283.246,180.459,283.246,180.947Z" transform="translate(-224.227 -14.446)" fill="#8686f2" style="mix-blend-mode: lighten;isolation: isolate"/>
      <path id="Path_4417" data-name="Path 4417" d="M300.326,151.365a1.694,1.694,0,0,1-.766,1.326c-.422.244-.766.047-.766-.441a1.691,1.691,0,0,1,.766-1.326C299.983,150.678,300.326,150.877,300.326,151.365Z" transform="translate(-212.562 -34.649)" fill="#8686f2" style="mix-blend-mode: lighten;isolation: isolate"/>
      <path id="Path_4418" data-name="Path 4418" d="M300.326,171.087a1.694,1.694,0,0,1-.766,1.326c-.422.244-.766.047-.766-.443a1.694,1.694,0,0,1,.766-1.326C299.983,170.4,300.326,170.6,300.326,171.087Z" transform="translate(-212.562 -21.181)" fill="#8686f2" style="mix-blend-mode: lighten;isolation: isolate"/>
      <path id="Path_4419" data-name="Path 4419" d="M317.406,141.5a1.689,1.689,0,0,1-.766,1.326c-.422.244-.766.045-.766-.443a1.694,1.694,0,0,1,.766-1.326C317.065,140.817,317.406,141.016,317.406,141.5Z" transform="translate(-200.898 -41.384)" fill="#8686f2" style="mix-blend-mode: lighten;isolation: isolate"/>
      <path id="Path_4420" data-name="Path 4420" d="M317.406,161.226a1.689,1.689,0,0,1-.766,1.326c-.422.244-.766.045-.766-.443a1.694,1.694,0,0,1,.766-1.326C317.065,160.539,317.406,160.738,317.406,161.226Z" transform="translate(-200.898 -27.915)" fill="#8686f2" style="mix-blend-mode: lighten;isolation: isolate"/>
      <path id="Path_4421" data-name="Path 4421" d="M334.486,131.643a1.689,1.689,0,0,1-.766,1.326c-.422.244-.766.045-.766-.443a1.694,1.694,0,0,1,.766-1.326C334.145,130.956,334.486,131.155,334.486,131.643Z" transform="translate(-189.234 -48.118)" fill="#8686f2" style="mix-blend-mode: lighten;isolation: isolate"/>
      <path id="Path_4422" data-name="Path 4422" d="M334.486,151.365a1.689,1.689,0,0,1-.766,1.326c-.422.244-.766.045-.766-.443a1.694,1.694,0,0,1,.766-1.326C334.145,150.678,334.486,150.875,334.486,151.365Z" transform="translate(-189.234 -34.649)" fill="#8686f2" style="mix-blend-mode: lighten;isolation: isolate"/>
      <path id="Path_4423" data-name="Path 4423" d="M351.567,121.78a1.691,1.691,0,0,1-.766,1.326c-.424.246-.766.047-.766-.441a1.689,1.689,0,0,1,.766-1.326C351.224,121.1,351.567,121.292,351.567,121.78Z" transform="translate(-177.569 -54.852)" fill="#8686f2" style="mix-blend-mode: lighten;isolation: isolate"/>
      <path id="Path_4424" data-name="Path 4424" d="M351.567,141.5a1.691,1.691,0,0,1-.766,1.326c-.424.246-.766.047-.766-.441a1.689,1.689,0,0,1,.766-1.326C351.224,140.817,351.567,141.014,351.567,141.5Z" transform="translate(-177.569 -41.384)" fill="#8686f2" style="mix-blend-mode: lighten;isolation: isolate"/>
      <path id="Path_4425" data-name="Path 4425" d="M368.647,111.919a1.694,1.694,0,0,1-.766,1.326c-.424.244-.766.047-.766-.441a1.687,1.687,0,0,1,.766-1.326C368.3,111.234,368.647,111.431,368.647,111.919Z" transform="translate(-165.905 -61.586)" fill="#8686f2" style="mix-blend-mode: lighten;isolation: isolate"/>
      <path id="Path_4426" data-name="Path 4426" d="M368.647,131.642a1.694,1.694,0,0,1-.766,1.326c-.424.244-.766.047-.766-.443a1.692,1.692,0,0,1,.766-1.326C368.3,130.955,368.647,131.154,368.647,131.642Z" transform="translate(-165.905 -48.118)" fill="#8686f2" style="mix-blend-mode: lighten;isolation: isolate"/>
      <path id="Path_4427" data-name="Path 4427" d="M385.727,102.059a1.694,1.694,0,0,1-.766,1.326c-.422.244-.766.047-.766-.443a1.694,1.694,0,0,1,.766-1.326C385.384,101.372,385.727,101.571,385.727,102.059Z" transform="translate(-154.241 -68.321)" fill="#8686f2" style="mix-blend-mode: lighten;isolation: isolate"/>
      <path id="Path_4428" data-name="Path 4428" d="M385.727,121.781a1.694,1.694,0,0,1-.766,1.326c-.422.244-.766.045-.766-.443a1.694,1.694,0,0,1,.766-1.326C385.384,121.094,385.727,121.293,385.727,121.781Z" transform="translate(-154.241 -54.853)" fill="#8686f2" style="mix-blend-mode: lighten;isolation: isolate"/>
      <path id="Path_4429" data-name="Path 4429" d="M249.086,220.393a1.694,1.694,0,0,1-.766,1.326c-.424.244-.766.045-.766-.443a1.689,1.689,0,0,1,.766-1.326C248.743,219.706,249.086,219.9,249.086,220.393Z" transform="translate(-247.555 12.491)" fill="#8686f2" style="mix-blend-mode: lighten;isolation: isolate"/>
      <path id="Path_4430" data-name="Path 4430" d="M266.166,210.53a1.691,1.691,0,0,1-.766,1.326c-.422.246-.766.047-.766-.441a1.694,1.694,0,0,1,.766-1.326C265.823,209.845,266.166,210.042,266.166,210.53Z" transform="translate(-235.891 5.757)" fill="#8686f2" style="mix-blend-mode: lighten;isolation: isolate"/>
      <path id="Path_4431" data-name="Path 4431" d="M283.246,200.67a1.694,1.694,0,0,1-.766,1.326c-.422.244-.766.047-.766-.441a1.691,1.691,0,0,1,.766-1.326C282.9,199.983,283.246,200.182,283.246,200.67Z" transform="translate(-224.227 -0.978)" fill="#8686f2" style="mix-blend-mode: lighten;isolation: isolate"/>
      <path id="Path_4432" data-name="Path 4432" d="M300.326,190.809a1.694,1.694,0,0,1-.766,1.326c-.422.244-.766.047-.766-.443a1.694,1.694,0,0,1,.766-1.326C299.983,190.122,300.326,190.321,300.326,190.809Z" transform="translate(-212.562 -7.712)" fill="#8686f2" style="mix-blend-mode: lighten;isolation: isolate"/>
      <path id="Path_4433" data-name="Path 4433" d="M317.406,180.948a1.689,1.689,0,0,1-.766,1.326c-.422.244-.766.045-.766-.443a1.694,1.694,0,0,1,.766-1.326C317.065,180.261,317.406,180.46,317.406,180.948Z" transform="translate(-200.898 -14.447)" fill="#8686f2" style="mix-blend-mode: lighten;isolation: isolate"/>
      <path id="Path_4434" data-name="Path 4434" d="M334.486,171.085a1.692,1.692,0,0,1-.766,1.328c-.422.244-.766.045-.766-.443a1.694,1.694,0,0,1,.766-1.326C334.145,170.4,334.486,170.6,334.486,171.085Z" transform="translate(-189.234 -21.181)" fill="#8686f2" style="mix-blend-mode: lighten;isolation: isolate"/>
      <path id="Path_4435" data-name="Path 4435" d="M351.567,161.224a1.694,1.694,0,0,1-.766,1.326c-.424.244-.766.047-.766-.441a1.687,1.687,0,0,1,.766-1.326C351.224,160.539,351.567,160.736,351.567,161.224Z" transform="translate(-177.569 -27.915)" fill="#8686f2" style="mix-blend-mode: lighten;isolation: isolate"/>
      <path id="Path_4436" data-name="Path 4436" d="M368.647,151.364a1.694,1.694,0,0,1-.766,1.326c-.424.244-.766.047-.766-.443a1.689,1.689,0,0,1,.766-1.326C368.3,150.677,368.647,150.876,368.647,151.364Z" transform="translate(-165.905 -34.65)" fill="#8686f2" style="mix-blend-mode: lighten;isolation: isolate"/>
      <path id="Path_4437" data-name="Path 4437" d="M385.727,141.5a1.694,1.694,0,0,1-.766,1.326c-.422.244-.766.045-.766-.443a1.694,1.694,0,0,1,.766-1.326C385.384,140.816,385.727,141.015,385.727,141.5Z" transform="translate(-154.241 -41.384)" fill="#8686f2" style="mix-blend-mode: lighten;isolation: isolate"/>
      <path id="Path_4438" data-name="Path 4438" d="M249.086,240.115a1.7,1.7,0,0,1-.766,1.326c-.424.244-.766.045-.766-.443a1.689,1.689,0,0,1,.766-1.326C248.743,239.428,249.086,239.627,249.086,240.115Z" transform="translate(-247.555 25.96)" fill="#8686f2" style="mix-blend-mode: lighten;isolation: isolate"/>
      <path id="Path_4439" data-name="Path 4439" d="M266.166,230.252a1.691,1.691,0,0,1-.766,1.326c-.422.246-.766.047-.766-.441a1.694,1.694,0,0,1,.766-1.326C265.823,229.567,266.166,229.764,266.166,230.252Z" transform="translate(-235.891 19.225)" fill="#8686f2" style="mix-blend-mode: lighten;isolation: isolate"/>
      <path id="Path_4440" data-name="Path 4440" d="M283.246,220.392a1.694,1.694,0,0,1-.766,1.326c-.422.244-.766.047-.766-.443a1.7,1.7,0,0,1,.766-1.326C282.9,219.705,283.246,219.9,283.246,220.392Z" transform="translate(-224.227 12.49)" fill="#8686f2" style="mix-blend-mode: lighten;isolation: isolate"/>
      <path id="Path_4441" data-name="Path 4441" d="M300.326,210.531a1.694,1.694,0,0,1-.766,1.326c-.422.244-.766.045-.766-.443a1.694,1.694,0,0,1,.766-1.326C299.983,209.844,300.326,210.043,300.326,210.531Z" transform="translate(-212.562 5.756)" fill="#8686f2" style="mix-blend-mode: lighten;isolation: isolate"/>
      <path id="Path_4442" data-name="Path 4442" d="M317.406,200.67a1.689,1.689,0,0,1-.766,1.326c-.422.244-.766.045-.766-.443a1.694,1.694,0,0,1,.766-1.326C317.065,199.983,317.406,200.18,317.406,200.67Z" transform="translate(-200.898 -0.978)" fill="#8686f2" style="mix-blend-mode: lighten;isolation: isolate"/>
      <path id="Path_4443" data-name="Path 4443" d="M334.486,190.807a1.687,1.687,0,0,1-.766,1.326c-.422.246-.766.047-.766-.441a1.694,1.694,0,0,1,.766-1.326C334.145,190.122,334.486,190.319,334.486,190.807Z" transform="translate(-189.234 -7.713)" fill="#8686f2" style="mix-blend-mode: lighten;isolation: isolate"/>
      <path id="Path_4444" data-name="Path 4444" d="M351.567,180.947a1.694,1.694,0,0,1-.766,1.326c-.424.244-.766.047-.766-.441a1.692,1.692,0,0,1,.766-1.328C351.224,180.26,351.567,180.459,351.567,180.947Z" transform="translate(-177.569 -14.447)" fill="#8686f2" style="mix-blend-mode: lighten;isolation: isolate"/>
      <path id="Path_4445" data-name="Path 4445" d="M368.647,171.086a1.694,1.694,0,0,1-.766,1.326c-.424.244-.766.047-.766-.443a1.689,1.689,0,0,1,.766-1.326C368.3,170.4,368.647,170.6,368.647,171.086Z" transform="translate(-165.905 -21.182)" fill="#8686f2" style="mix-blend-mode: lighten;isolation: isolate"/>
      <path id="Path_4446" data-name="Path 4446" d="M385.727,161.225a1.694,1.694,0,0,1-.766,1.326c-.422.244-.766.045-.766-.443a1.694,1.694,0,0,1,.766-1.326C385.384,160.538,385.727,160.737,385.727,161.225Z" transform="translate(-154.241 -27.916)" fill="#8686f2" style="mix-blend-mode: lighten;isolation: isolate"/>
      <path id="Path_4447" data-name="Path 4447" d="M249.086,259.835a1.7,1.7,0,0,1-.766,1.328c-.424.244-.766.045-.766-.443a1.689,1.689,0,0,1,.766-1.326C248.743,259.15,249.086,259.347,249.086,259.835Z" transform="translate(-247.555 39.428)" fill="#8686f2" style="mix-blend-mode: lighten;isolation: isolate"/>
      <path id="Path_4448" data-name="Path 4448" d="M266.166,249.975a1.694,1.694,0,0,1-.766,1.326c-.422.244-.766.047-.766-.441a1.691,1.691,0,0,1,.766-1.326C265.823,249.288,266.166,249.487,266.166,249.975Z" transform="translate(-235.891 32.693)" fill="#8686f2" style="mix-blend-mode: lighten;isolation: isolate"/>
      <path id="Path_4449" data-name="Path 4449" d="M283.246,240.114a1.694,1.694,0,0,1-.766,1.326c-.422.244-.766.047-.766-.443a1.694,1.694,0,0,1,.766-1.326C282.9,239.427,283.246,239.626,283.246,240.114Z" transform="translate(-224.227 25.959)" fill="#8686f2" style="mix-blend-mode: lighten;isolation: isolate"/>
      <path id="Path_4450" data-name="Path 4450" d="M300.326,230.253a1.694,1.694,0,0,1-.766,1.326c-.422.244-.766.045-.766-.443a1.694,1.694,0,0,1,.766-1.326C299.983,229.566,300.326,229.765,300.326,230.253Z" transform="translate(-212.562 19.225)" fill="#8686f2" style="mix-blend-mode: lighten;isolation: isolate"/>
      <path id="Path_4451" data-name="Path 4451" d="M317.406,220.392a1.689,1.689,0,0,1-.766,1.326c-.422.244-.766.045-.766-.443a1.694,1.694,0,0,1,.766-1.326C317.065,219.705,317.406,219.9,317.406,220.392Z" transform="translate(-200.898 12.49)" fill="#8686f2" style="mix-blend-mode: lighten;isolation: isolate"/>
      <path id="Path_4452" data-name="Path 4452" d="M334.486,210.529a1.687,1.687,0,0,1-.766,1.326c-.422.244-.766.047-.766-.441a1.691,1.691,0,0,1,.766-1.326C334.145,209.844,334.486,210.041,334.486,210.529Z" transform="translate(-189.234 5.756)" fill="#8686f2" style="mix-blend-mode: lighten;isolation: isolate"/>
      <path id="Path_4453" data-name="Path 4453" d="M351.567,200.669A1.694,1.694,0,0,1,350.8,202c-.424.244-.766.047-.766-.443a1.689,1.689,0,0,1,.766-1.326C351.224,199.982,351.567,200.181,351.567,200.669Z" transform="translate(-177.569 -0.979)" fill="#8686f2" style="mix-blend-mode: lighten;isolation: isolate"/>
      <path id="Path_4454" data-name="Path 4454" d="M368.647,190.808a1.694,1.694,0,0,1-.766,1.326c-.424.244-.766.045-.766-.443a1.689,1.689,0,0,1,.766-1.326C368.3,190.121,368.647,190.32,368.647,190.808Z" transform="translate(-165.905 -7.713)" fill="#8686f2" style="mix-blend-mode: lighten;isolation: isolate"/>
      <path id="Path_4455" data-name="Path 4455" d="M385.727,180.947a1.694,1.694,0,0,1-.766,1.326c-.422.244-.766.045-.766-.443a1.694,1.694,0,0,1,.766-1.326C385.384,180.26,385.727,180.457,385.727,180.947Z" transform="translate(-154.241 -14.447)" fill="#8686f2" style="mix-blend-mode: lighten;isolation: isolate"/>
      <path id="Path_4456" data-name="Path 4456" d="M249.086,279.557a1.691,1.691,0,0,1-.766,1.326c-.424.246-.766.047-.766-.441a1.689,1.689,0,0,1,.766-1.326C248.743,278.872,249.086,279.069,249.086,279.557Z" transform="translate(-247.555 52.896)" fill="#8686f2" style="mix-blend-mode: lighten;isolation: isolate"/>
      <path id="Path_4457" data-name="Path 4457" d="M266.166,269.7a1.694,1.694,0,0,1-.766,1.326c-.422.244-.766.047-.766-.441a1.7,1.7,0,0,1,.766-1.328C265.823,269.01,266.166,269.209,266.166,269.7Z" transform="translate(-235.891 46.162)" fill="#8686f2" style="mix-blend-mode: lighten;isolation: isolate"/>
      <path id="Path_4458" data-name="Path 4458" d="M283.246,259.836a1.694,1.694,0,0,1-.766,1.326c-.422.244-.766.045-.766-.443a1.694,1.694,0,0,1,.766-1.326C282.9,259.149,283.246,259.348,283.246,259.836Z" transform="translate(-224.227 39.427)" fill="#8686f2" style="mix-blend-mode: lighten;isolation: isolate"/>
      <path id="Path_4459" data-name="Path 4459" d="M300.326,249.975a1.694,1.694,0,0,1-.766,1.326c-.422.244-.766.045-.766-.443a1.694,1.694,0,0,1,.766-1.326C299.983,249.288,300.326,249.485,300.326,249.975Z" transform="translate(-212.562 32.693)" fill="#8686f2" style="mix-blend-mode: lighten;isolation: isolate"/>
      <path id="Path_4460" data-name="Path 4460" d="M317.406,240.112a1.692,1.692,0,0,1-.766,1.328c-.422.242-.766.045-.766-.443a1.694,1.694,0,0,1,.766-1.326C317.065,239.427,317.406,239.624,317.406,240.112Z" transform="translate(-200.898 25.959)" fill="#8686f2" style="mix-blend-mode: lighten;isolation: isolate"/>
      <path id="Path_4461" data-name="Path 4461" d="M334.486,230.252a1.689,1.689,0,0,1-.766,1.326c-.422.244-.766.047-.766-.441a1.691,1.691,0,0,1,.766-1.326C334.145,229.565,334.486,229.764,334.486,230.252Z" transform="translate(-189.234 19.224)" fill="#8686f2" style="mix-blend-mode: lighten;isolation: isolate"/>
      <path id="Path_4462" data-name="Path 4462" d="M351.567,220.391a1.694,1.694,0,0,1-.766,1.326c-.424.244-.766.045-.766-.443a1.689,1.689,0,0,1,.766-1.326C351.224,219.7,351.567,219.9,351.567,220.391Z" transform="translate(-177.569 12.49)" fill="#8686f2" style="mix-blend-mode: lighten;isolation: isolate"/>
      <path id="Path_4463" data-name="Path 4463" d="M368.647,210.53a1.694,1.694,0,0,1-.766,1.326c-.424.244-.766.045-.766-.443a1.689,1.689,0,0,1,.766-1.326C368.3,209.843,368.647,210.042,368.647,210.53Z" transform="translate(-165.905 5.755)" fill="#8686f2" style="mix-blend-mode: lighten;isolation: isolate"/>
      <path id="Path_4464" data-name="Path 4464" d="M385.727,200.669a1.688,1.688,0,0,1-.766,1.324c-.422.246-.766.047-.766-.441a1.694,1.694,0,0,1,.766-1.326C385.384,199.982,385.727,200.179,385.727,200.669Z" transform="translate(-154.241 -0.979)" fill="#8686f2" style="mix-blend-mode: lighten;isolation: isolate"/>
      <path id="Path_4465" data-name="Path 4465" d="M402.807,131.642a1.694,1.694,0,0,1-.766,1.326c-.422.244-.766.045-.766-.443a1.694,1.694,0,0,1,.766-1.326C402.464,130.955,402.807,131.152,402.807,131.642Z" transform="translate(-142.576 -48.119)" fill="#8686f2" style="mix-blend-mode: lighten;isolation: isolate"/>
      <path id="Path_4466" data-name="Path 4466" d="M402.807,151.362a1.7,1.7,0,0,1-.766,1.328c-.422.244-.766.045-.766-.443a1.694,1.694,0,0,1,.766-1.326C402.464,150.677,402.807,150.874,402.807,151.362Z" transform="translate(-142.576 -34.65)" fill="#8686f2" style="mix-blend-mode: lighten;isolation: isolate"/>
      <path id="Path_4467" data-name="Path 4467" d="M402.807,171.084a1.691,1.691,0,0,1-.766,1.326c-.422.246-.766.047-.766-.441a1.694,1.694,0,0,1,.766-1.326C402.464,170.4,402.807,170.6,402.807,171.084Z" transform="translate(-142.576 -21.182)" fill="#8686f2" style="mix-blend-mode: lighten;isolation: isolate"/>
      <path id="Path_4468" data-name="Path 4468" d="M402.807,190.806a1.694,1.694,0,0,1-.766,1.326c-.422.244-.766.047-.766-.441a1.691,1.691,0,0,1,.766-1.326C402.464,190.121,402.807,190.318,402.807,190.806Z" transform="translate(-142.576 -7.713)" fill="#8686f2" style="mix-blend-mode: lighten;isolation: isolate"/>
      <path id="Path_4469" data-name="Path 4469" d="M419.887,121.779a1.687,1.687,0,0,1-.766,1.326c-.422.246-.766.047-.766-.441a1.694,1.694,0,0,1,.766-1.326C419.546,121.094,419.887,121.291,419.887,121.779Z" transform="translate(-130.912 -54.853)" fill="#8686f2" style="mix-blend-mode: lighten;isolation: isolate"/>
      <path id="Path_4470" data-name="Path 4470" d="M419.887,141.5a1.689,1.689,0,0,1-.766,1.326c-.422.244-.766.047-.766-.441a1.691,1.691,0,0,1,.766-1.326C419.546,140.815,419.887,141.014,419.887,141.5Z" transform="translate(-130.912 -41.385)" fill="#8686f2" style="mix-blend-mode: lighten;isolation: isolate"/>
      <path id="Path_4471" data-name="Path 4471" d="M419.887,161.224a1.689,1.689,0,0,1-.766,1.326c-.422.244-.766.047-.766-.441a1.7,1.7,0,0,1,.766-1.328C419.546,160.537,419.887,160.736,419.887,161.224Z" transform="translate(-130.912 -27.916)" fill="#8686f2" style="mix-blend-mode: lighten;isolation: isolate"/>
      <path id="Path_4472" data-name="Path 4472" d="M419.887,180.946a1.689,1.689,0,0,1-.766,1.326c-.422.244-.766.045-.766-.443a1.694,1.694,0,0,1,.766-1.326C419.546,180.259,419.887,180.458,419.887,180.946Z" transform="translate(-130.912 -14.448)" fill="#8686f2" style="mix-blend-mode: lighten;isolation: isolate"/>
      <path id="Path_4473" data-name="Path 4473" d="M402.807,92.2a1.694,1.694,0,0,1-.766,1.326c-.422.244-.766.045-.766-.443a1.694,1.694,0,0,1,.766-1.326C402.464,91.511,402.807,91.71,402.807,92.2Z" transform="translate(-142.576 -75.055)" fill="#8686f2" style="mix-blend-mode: lighten;isolation: isolate"/>
      <path id="Path_4474" data-name="Path 4474" d="M402.807,111.92a1.694,1.694,0,0,1-.766,1.326c-.422.244-.766.045-.766-.443a1.694,1.694,0,0,1,.766-1.326C402.464,111.233,402.807,111.432,402.807,111.92Z" transform="translate(-142.576 -61.587)" fill="#8686f2" style="mix-blend-mode: lighten;isolation: isolate"/>
      <path id="Path_4475" data-name="Path 4475" d="M419.887,82.337a1.692,1.692,0,0,1-.766,1.326c-.422.244-.766.045-.766-.443a1.694,1.694,0,0,1,.766-1.326C419.546,81.65,419.887,81.847,419.887,82.337Z" transform="translate(-130.912 -81.79)" fill="#8686f2" style="mix-blend-mode: lighten;isolation: isolate"/>
      <path id="Path_4476" data-name="Path 4476" d="M419.887,102.057a1.687,1.687,0,0,1-.766,1.326c-.422.246-.766.047-.766-.441a1.694,1.694,0,0,1,.766-1.326C419.546,101.372,419.887,101.569,419.887,102.057Z" transform="translate(-130.912 -68.321)" fill="#8686f2" style="mix-blend-mode: lighten;isolation: isolate"/>
    </g>
    <g id="Group_2776" data-name="Group 2776" transform="translate(406.708 66.918)">
      <g id="Group_2773" data-name="Group 2773">
        <g id="Group_2772" data-name="Group 2772">
          <g id="Group_2771" data-name="Group 2771">
            <g id="Group_2760" data-name="Group 2760" transform="translate(8.191 247.27)" style="mix-blend-mode: lighten;isolation: isolate">
              <path id="Path_4477" data-name="Path 4477" d="M551.428,413.831a17.986,17.986,0,0,1-8.992-2.4L337.77,293.265a3.363,3.363,0,0,1,0-5.825l127.466-73.592.294.17L678.894,337.2a3.363,3.363,0,0,1,0,5.825l-118.472,68.4A17.992,17.992,0,0,1,551.428,413.831ZM465.236,215.206,338.359,288.458a2.185,2.185,0,0,0,0,3.787L543.024,410.409a16.852,16.852,0,0,0,16.809,0l118.474-68.4a2.187,2.187,0,0,0,0-3.787Z" transform="translate(-336.089 -213.848)" fill="#8686f2"/>
            </g>
            <g id="Group_2765" data-name="Group 2765">
              <g id="Group_2762" data-name="Group 2762" transform="translate(140.358)">
                <path id="Path_4478" data-name="Path 4478" d="M416.8,239.307,445.309,70.142l-2.294-.964L446.46,67.2l-.005.02a2.483,2.483,0,0,1,2.656.183L676.987,198.971a6.434,6.434,0,0,1,2.959,5.788l-28.739,170.51a2.138,2.138,0,0,1-1.2,1.735l0,0-3.371,1.947-.579-3.147.192.059-226.5-130.769A6.433,6.433,0,0,1,416.8,239.307Z" transform="translate(-413.173 -66.918)" fill="url(#linear-gradient-25)"/>
                <path id="Path_4479" data-name="Path 4479" d="M587.237,148.807l3.748-1.658a5.159,5.159,0,0,1,.481,2.819l-28.739,170.51a2.138,2.138,0,0,1-1.2,1.735l0,0-3.371,1.947-.579-3.147.192.059-11.461-6.617Z" transform="translate(-324.693 -12.127)" fill="url(#linear-gradient-26)"/>
                <path id="Path_4480" data-name="Path 4480" d="M417.63,246.317,645.507,377.883c1.76,1.017,3.267.429,3.575-1.392l28.741-170.51a6.435,6.435,0,0,0-2.959-5.788L446.985,68.628c-1.759-1.016-3.265-.429-3.574,1.392L414.671,240.53A6.43,6.43,0,0,0,417.63,246.317Z" transform="translate(-414.624 -66.089)" fill="#24126a"/>
                <g id="Group_2761" data-name="Group 2761" transform="translate(8.249 13.422)" opacity="0.51">
                  <path id="Path_4481" data-name="Path 4481" d="M446.617,74.894,666.273,201.712,639.033,362.3,419.525,235.563Z" transform="translate(-419.525 -74.894)" fill="#453c9e"/>
                </g>
              </g>
              <g id="Group_2764" data-name="Group 2764" transform="translate(0 179.637)">
                <path id="Path_4482" data-name="Path 4482" d="M331.293,248.889l12.437,6.494,124.7-72c2.087-1.2,5.73-1.053,8.14.337L691.641,307.9c2.058-1.151,11.442-5.663,11.442-5.663l-4.552,11.86-.017-.013a2.714,2.714,0,0,1-1.274,1.412L565.907,391.317c-2.087,1.205-5.73,1.054-8.14-.338L337.68,263.912a3.93,3.93,0,0,1-1.846-1.962l-.017.01Z" transform="translate(-331.174 -167.572)" fill="url(#linear-gradient-27)"/>
                <path id="Path_4483" data-name="Path 4483" d="M333.265,257.02l225.56,130.227c2.469,1.425,6.2,1.58,8.342.347l134.6-77.712c2.139-1.234,1.87-3.391-.6-4.817L475.608,174.838c-2.469-1.425-6.2-1.579-8.342-.345l-134.6,77.712C330.527,253.439,330.8,255.595,333.265,257.02Z" transform="translate(-331.222 -173.66)" fill="url(#linear-gradient-28)"/>
                <path id="Path_4484" data-name="Path 4484" d="M333.259,223.5l225.56,130.227c2.469,1.425,6.2,1.58,8.342.347l134.6-77.712a2.715,2.715,0,0,0,1.356-1.577,2.3,2.3,0,0,1-1.356,2.587l-134.6,77.712c-2.139,1.234-5.873,1.079-8.342-.347L333.259,224.507c-1.6-.922-2.26-2.151-1.956-3.238A3.82,3.82,0,0,0,333.259,223.5Z" transform="translate(-331.216 -141.147)" fill="#fff"/>
                <path id="Path_4485" data-name="Path 4485" d="M510.691,284.954V282.48c0-.236-.143-.343-.318-.241l-8.724,5.037a.76.76,0,0,0-.32.608v2.474c0,.234.143.343.32.241l8.724-5.037A.763.763,0,0,0,510.691,284.954Z" transform="translate(-215.053 -99.535)" fill="#2842a2"/>
                <path id="Path_4486" data-name="Path 4486" d="M502.939,289.429v-2.474c0-.234-.143-.342-.32-.241l-8.724,5.037a.769.769,0,0,0-.318.609v2.474c0,.234.143.342.318.241l8.724-5.037A.76.76,0,0,0,502.939,289.429Z" transform="translate(-220.347 -96.479)" fill="#2842a2"/>
                <path id="Path_4487" data-name="Path 4487" d="M635.629,294.413,448.188,186.194a4.037,4.037,0,0,0-4.039,0L377.4,224.814a1.439,1.439,0,0,0,0,2.492L564.757,335.474a4.036,4.036,0,0,0,4.034,0l66.837-38.567A1.44,1.44,0,0,0,635.629,294.413Z" transform="translate(-300.176 -165.469)" fill="#adb1f2"/>
                <path id="Path_4488" data-name="Path 4488" d="M635.628,296.907l-.67.387L448.188,189.463a4.033,4.033,0,0,0-4.039,0l-66.075,38.229-.672-.387a1.44,1.44,0,0,1,0-2.492L444.149,186.2a4.037,4.037,0,0,1,4.039,0L635.629,294.413A1.44,1.44,0,0,1,635.628,296.907Z" transform="translate(-300.176 -165.469)" fill="#9198db"/>
                <g id="Group_2763" data-name="Group 2763" transform="translate(86.509 26.328)">
                  <path id="Path_4489" data-name="Path 4489" d="M413.779,193.484l162.818,94,7.24-4.18-162.818-94Z" transform="translate(-361.351 -189.304)" fill="#24126a"/>
                  <path id="Path_4490" data-name="Path 4490" d="M403.233,199.573l152.718,88.172,7.24-4.18L410.473,195.393Z" transform="translate(-368.553 -185.146)" fill="#24126a"/>
                  <path id="Path_4491" data-name="Path 4491" d="M396.364,203.538,576.173,307.351l7.239-4.18L403.6,199.359Z" transform="translate(-373.244 -182.438)" fill="#24126a"/>
                  <path id="Path_4492" data-name="Path 4492" d="M389.5,207.5,569.3,311.317l7.24-4.18L396.735,203.325Z" transform="translate(-377.935 -179.729)" fill="#24126a"/>
                  <path id="Path_4493" data-name="Path 4493" d="M382.626,211.47,562.435,315.283l7.24-4.18L389.866,207.29Z" transform="translate(-382.626 -177.021)" fill="#24126a"/>
                  <path id="Path_4494" data-name="Path 4494" d="M516.373,252.716l7.239,4.18,7.24-4.18-7.239-4.18Z" transform="translate(-291.288 -148.853)" fill="#24126a"/>
                  <path id="Path_4495" data-name="Path 4495" d="M501.2,256.134l15.026,8.675,7.24-4.18-15.026-8.675Z" transform="translate(-301.65 -146.519)" fill="#24126a"/>
                </g>
                <path id="Path_4496" data-name="Path 4496" d="M435.995,287.8l-50.541-29.18c-1.976-1.141-1.976-2.989,0-4.13l34.56-19.954a7.9,7.9,0,0,1,7.154,0l50.541,29.18c1.974,1.141,1.974,2.989,0,4.13L443.147,287.8A7.905,7.905,0,0,1,435.995,287.8Z" transform="translate(-295.199 -132.669)" fill="url(#linear-gradient-29)"/>
                <path id="Path_4497" data-name="Path 4497" d="M477.7,265.408l-50.541-29.18a7.914,7.914,0,0,0-7.154,0l-34.56,19.954a3.1,3.1,0,0,0-1.242,1.22c-.522-1-.125-2.122,1.242-2.91l34.56-19.954a7.9,7.9,0,0,1,7.154,0l50.541,29.18c1.365.788,1.764,1.912,1.24,2.91A3.083,3.083,0,0,0,477.7,265.408Z" transform="translate(-295.191 -132.669)" fill="#9198db"/>
              </g>
            </g>
            <g id="Group_2770" data-name="Group 2770" transform="translate(148.606 13.422)" opacity="0.11">
              <g id="Group_2769" data-name="Group 2769" clip-path="url(#clip-path)">
                <g id="Group_2768" data-name="Group 2768" transform="translate(-6.486 83.765)">
                  <path id="Path_4498" data-name="Path 4498" d="M417.714,208.028l225.56,130.227c2.469,1.425,6.2,1.58,8.342.347l134.6-77.712c2.139-1.235,1.87-3.391-.6-4.817L560.057,125.846c-2.469-1.425-6.2-1.58-8.342-.345l-134.6,77.712C414.976,204.447,415.245,206.6,417.714,208.028Z" transform="translate(-415.671 -124.667)" fill="url(#linear-gradient-30)"/>
                  <path id="Path_4499" data-name="Path 4499" d="M572.423,210.037l-50.541-29.18c-1.974-1.141-1.974-2.991,0-4.13l34.562-19.954a7.9,7.9,0,0,1,7.154,0l50.54,29.18c1.976,1.141,1.976,2.989,0,4.13l-34.56,19.954A7.914,7.914,0,0,1,572.423,210.037Z" transform="translate(-344.149 -103.327)" fill="url(#linear-gradient-31)"/>
                  <path id="Path_4500" data-name="Path 4500" d="M614.13,187.642l-50.54-29.18a7.914,7.914,0,0,0-7.154,0l-34.562,19.954a3.083,3.083,0,0,0-1.24,1.22c-.523-1-.125-2.122,1.24-2.91l34.562-19.954a7.9,7.9,0,0,1,7.154,0l50.54,29.18c1.367.788,1.764,1.912,1.242,2.91A3.1,3.1,0,0,0,614.13,187.642Z" transform="translate(-344.142 -103.327)" fill="#9198db"/>
                  <g id="Group_2767" data-name="Group 2767" transform="translate(33.262 43.551)">
                    <path id="Path_4501" data-name="Path 4501" d="M694.38,259.3,506.94,151.086a4.037,4.037,0,0,0-4.039,0l-66.748,38.618a1.44,1.44,0,0,0,0,2.492L623.507,300.366a4.038,4.038,0,0,0,4.036,0L694.38,261.8A1.44,1.44,0,0,0,694.38,259.3Z" transform="translate(-435.435 -150.546)" fill="#adb1f2"/>
                    <path id="Path_4502" data-name="Path 4502" d="M694.38,261.8l-.671.387L506.938,154.355a4.029,4.029,0,0,0-4.037,0l-66.076,38.229-.67-.387a1.44,1.44,0,0,1,0-2.492L502.9,151.088a4.033,4.033,0,0,1,4.037,0L694.38,259.3A1.44,1.44,0,0,1,694.38,261.8Z" transform="translate(-435.435 -150.546)" fill="#9198db"/>
                    <g id="Group_2766" data-name="Group 2766" transform="translate(11.718 7.92)">
                      <path id="Path_4503" data-name="Path 4503" d="M448.866,172.25,612.16,266.528l-6.468,3.734L442.4,175.984Z" transform="translate(-442.398 -143.644)" fill="#24126a"/>
                      <path id="Path_4504" data-name="Path 4504" d="M459.09,166.347,614.3,255.957l-6.468,3.735L452.622,170.082Z" transform="translate(-435.416 -147.675)" fill="#24126a"/>
                      <path id="Path_4505" data-name="Path 4505" d="M558.2,223.57l14.5,8.369-6.468,3.734-14.5-8.369Z" transform="translate(-367.731 -108.597)" fill="#24126a"/>
                      <path id="Path_4506" data-name="Path 4506" d="M550.594,230.983l10.094,5.827-6.469,3.735-10.094-5.828Z" transform="translate(-372.927 -103.534)" fill="#24126a"/>
                      <path id="Path_4507" data-name="Path 4507" d="M465.5,162.649l181.293,104.67-6.468,3.735L459.028,166.383Z" transform="translate(-431.042 -150.2)" fill="#24126a"/>
                      <path id="Path_4508" data-name="Path 4508" d="M471.9,158.95,653.2,263.62l-6.469,3.735L465.434,162.685Z" transform="translate(-426.667 -152.726)" fill="#24126a"/>
                      <path id="Path_4509" data-name="Path 4509" d="M478.308,155.252,659.6,259.922l-6.468,3.735L471.84,158.986Z" transform="translate(-422.292 -155.252)" fill="#24126a"/>
                    </g>
                  </g>
                </g>
              </g>
            </g>
          </g>
        </g>
      </g>
      <g id="Group_2775" data-name="Group 2775" transform="translate(221.47 85.528)">
        <g id="Group_2774" data-name="Group 2774" transform="translate(24.506 30.763)">
          <path id="Path_4510" data-name="Path 4510" d="M493.656,145.383,481.931,138.6l.419-2.58,11.725,6.783Z" transform="translate(-474.276 -136.02)" fill="#42e8e0"/>
          <path id="Path_4511" data-name="Path 4511" d="M494.184,145.688l-4.221-2.442.419-2.58,4.221,2.442Z" transform="translate(-468.791 -132.846)" fill="#42e8e0"/>
          <path id="Path_4512" data-name="Path 4512" d="M496.4,146.972l-2.869-1.659.419-2.58,2.869,1.66Z" transform="translate(-466.351 -131.435)" fill="#42e8e0"/>
          <path id="Path_4513" data-name="Path 4513" d="M487.751,145.8l-6.389-3.7.419-2.58,6.389,3.7Z" transform="translate(-474.664 -133.628)" fill="#42e8e0"/>
          <path id="Path_4514" data-name="Path 4514" d="M494.052,149.443l-7.829-4.529.419-2.58,7.829,4.529Z" transform="translate(-471.345 -131.708)" fill="#42e8e0"/>
          <path id="Path_4515" data-name="Path 4515" d="M494.808,149.88l-2.869-1.66.419-2.58,2.869,1.66Z" transform="translate(-467.441 -129.449)" fill="#42e8e0"/>
          <path id="Path_4516" data-name="Path 4516" d="M497.443,151.4l-2.869-1.659.419-2.58,2.869,1.66Z" transform="translate(-465.642 -128.408)" fill="#42e8e0"/>
          <path id="Path_4517" data-name="Path 4517" d="M485.416,148.278l-4.622-2.674.419-2.58,4.622,2.674Z" transform="translate(-475.052 -131.236)" fill="#42e8e0"/>
          <path id="Path_4518" data-name="Path 4518" d="M486.185,148.722l-1.58-.914.419-2.58,1.58.914Z" transform="translate(-472.45 -129.731)" fill="#42e8e0"/>
          <path id="Path_4519" data-name="Path 4519" d="M489.477,150.627l-2.869-1.66.419-2.58,2.869,1.659Z" transform="translate(-471.082 -128.939)" fill="#42e8e0"/>
          <path id="Path_4520" data-name="Path 4520" d="M497.286,158.976l-17.061-9.87.419-2.58,17.061,9.87Z" transform="translate(-475.441 -128.845)" fill="#42e8e0"/>
          <path id="Path_4521" data-name="Path 4521" d="M495.649,158.029l-4.221-2.442.419-2.58,4.221,2.442Z" transform="translate(-467.791 -124.419)" fill="#42e8e0"/>
          <path id="Path_4522" data-name="Path 4522" d="M484.279,155.282l-4.622-2.674.419-2.58L484.7,152.7Z" transform="translate(-475.829 -126.453)" fill="#42e8e0"/>
          <path id="Path_4523" data-name="Path 4523" d="M492.524,160.052l-9.057-5.239.419-2.58,9.057,5.239Z" transform="translate(-473.227 -124.947)" fill="#42e8e0"/>
          <path id="Path_4524" data-name="Path 4524" d="M492.782,160.2l-2.869-1.66.419-2.58,2.869,1.66Z" transform="translate(-468.824 -122.401)" fill="#42e8e0"/>
          <path id="Path_4525" data-name="Path 4525" d="M488.546,161.581l-9.458-5.471.419-2.58L488.965,159Z" transform="translate(-476.217 -124.061)" fill="#42e8e0"/>
          <path id="Path_4526" data-name="Path 4526" d="M492.612,163.934l-6.84-3.957.419-2.58,6.84,3.957Z" transform="translate(-471.653 -121.421)" fill="#42e8e0"/>
          <path id="Path_4527" data-name="Path 4527" d="M495.523,165.618l-4.622-2.674.419-2.58,4.622,2.674Z" transform="translate(-468.15 -119.394)" fill="#42e8e0"/>
          <path id="Path_4528" data-name="Path 4528" d="M481.714,161.46l-3.194-1.848.419-2.58,3.194,1.848Z" transform="translate(-476.606 -121.67)" fill="#42e8e0"/>
          <path id="Path_4529" data-name="Path 4529" d="M485.7,163.768l-4.221-2.442.419-2.58,4.222,2.442Z" transform="translate(-474.583 -120.499)" fill="#42e8e0"/>
          <path id="Path_4530" data-name="Path 4530" d="M491.857,167.328l-6.8-3.935.419-2.58,6.8,3.935Z" transform="translate(-472.143 -119.088)" fill="#42e8e0"/>
          <path id="Path_4531" data-name="Path 4531" d="M487.736,168.775l-9.785-5.66.419-2.58,9.785,5.661Z" transform="translate(-476.994 -119.278)" fill="#42e8e0"/>
          <path id="Path_4532" data-name="Path 4532" d="M494,172.4l-9.168-5.3.419-2.58,9.168,5.3Z" transform="translate(-472.296 -116.561)" fill="#42e8e0"/>
          <path id="Path_4533" data-name="Path 4533" d="M494.21,172.52l-2.869-1.66.419-2.58,2.869,1.66Z" transform="translate(-467.849 -113.988)" fill="#42e8e0"/>
          <path id="Path_4534" data-name="Path 4534" d="M496.867,174.057,494,172.4l.419-2.58,2.869,1.66Z" transform="translate(-466.035 -112.938)" fill="#42e8e0"/>
          <path id="Path_4535" data-name="Path 4535" d="M483.245,170.008l-5.862-3.391.419-2.58,5.862,3.391Z" transform="translate(-477.382 -116.886)" fill="#42e8e0"/>
          <path id="Path_4536" data-name="Path 4536" d="M499.983,149.043l8.13,4.7.419-2.58-8.13-4.7Z" transform="translate(-461.948 -128.888)" fill="#42e8e0"/>
          <path id="Path_4537" data-name="Path 4537" d="M500.449,153.144l6.388,3.7.419-2.58-6.388-3.7Z" transform="translate(-461.629 -126.087)" fill="#42e8e0"/>
          <path id="Path_4538" data-name="Path 4538" d="M500.93,157.253l4.622,2.674.419-2.58-4.622-2.674Z" transform="translate(-461.301 -123.281)" fill="#42e8e0"/>
          <path id="Path_4539" data-name="Path 4539" d="M499.113,160.033l6.724,3.89.419-2.58-6.724-3.89Z" transform="translate(-462.542 -121.383)" fill="#42e8e0"/>
          <path id="Path_4540" data-name="Path 4540" d="M499.793,164.257l4.622,2.674.419-2.58-4.622-2.674Z" transform="translate(-462.078 -118.498)" fill="#42e8e0"/>
          <path id="Path_4541" data-name="Path 4541" d="M498.488,167.333l5.862,3.391.419-2.58-5.862-3.392Z" transform="translate(-462.969 -116.397)" fill="#42e8e0"/>
          <path id="Path_4542" data-name="Path 4542" d="M499.5,171.752,502.7,173.6l.419-2.58-3.194-1.848Z" transform="translate(-462.275 -113.379)" fill="#42e8e0"/>
          <path id="Path_4543" data-name="Path 4543" d="M497.156,174.224l6.19,3.581.419-2.58-6.19-3.581Z" transform="translate(-463.879 -111.691)" fill="#42e8e0"/>
          <path id="Path_4544" data-name="Path 4544" d="M496.782,177.839l5.862,3.392.419-2.58-5.862-3.391Z" transform="translate(-464.134 -109.222)" fill="#42e8e0"/>
          <path id="Path_4545" data-name="Path 4545" d="M484.423,170.689l-2.493-1.442.419-2.58,2.493,1.442Z" transform="translate(-474.276 -115.09)" fill="#42e8e0"/>
          <path id="Path_4546" data-name="Path 4546" d="M490.088,173.966l-5.612-3.247.419-2.58,5.612,3.247Z" transform="translate(-472.538 -114.084)" fill="#42e8e0"/>
          <path id="Path_4547" data-name="Path 4547" d="M492.758,186.653l-9.47-5.479.419-2.58,9.47,5.479Z" transform="translate(-473.349 -106.945)" fill="#42e8e0"/>
          <path id="Path_4548" data-name="Path 4548" d="M494.283,187.534l-3.73-2.158.419-2.58,3.73,2.158Z" transform="translate(-468.388 -104.075)" fill="#42e8e0"/>
        </g>
        <path id="Path_4549" data-name="Path 4549" d="M537.923,261.2a2.783,2.783,0,0,1-1.387-.39L464.989,219.5a4.8,4.8,0,0,1-2.114-4.7l15.634-94.7a2.785,2.785,0,0,1,1.474-2.147,2.534,2.534,0,0,1,2.373.172L553.9,159.44a4.8,4.8,0,0,1,2.115,4.7l-15.634,94.7a2.786,2.786,0,0,1-1.474,2.147A2.293,2.293,0,0,1,537.923,261.2Zm-56.948-141.7a.548.548,0,0,0-.234.05,1.078,1.078,0,0,0-.485.838l-15.634,94.7a3.054,3.054,0,0,0,1.252,2.874v0l71.547,41.307a.8.8,0,0,0,.732.106,1.078,1.078,0,0,0,.485-.838l15.634-94.7a3.06,3.06,0,0,0-1.254-2.874l-71.547-41.309A1.036,1.036,0,0,0,480.975,119.507Z" transform="translate(-462.821 -117.74)" fill="#42e8e0"/>
      </g>
    </g>
    <path id="Path_4550" data-name="Path 4550" d="M294.386,280.194l-49.762-28.73-1.215.7L294.386,281.6l50.975-29.43-1.215-.7Z" transform="translate(15.516 126.029)" fill="#42e8e0" opacity="0.8"/>
    <path id="Path_4551" data-name="Path 4551" d="M361.136,318.694l-49.762-28.73-1.215.7L361.136,320.1l50.975-29.43-1.214-.7Z" transform="translate(61.101 152.321)" fill="#42e8e0" opacity="0.8"/>
    <path id="Path_4552" data-name="Path 4552" d="M427.886,357.194l-49.762-28.73-1.215.7L427.886,358.6l50.975-29.431-1.215-.7Z" transform="translate(106.686 178.614)" fill="#42e8e0" opacity="0.8"/>
  </g>
</svg>
