<svg xmlns="http://www.w3.org/2000/svg" xmlns:xlink="http://www.w3.org/1999/xlink" width="708.2" height="524.076" viewBox="0 0 708.2 524.076">
  <defs>
    <linearGradient id="linear-gradient" x1="-11.936" y1="8.521" x2="-11.031" y2="8.521" gradientUnits="objectBoundingBox">
      <stop offset="0" stop-color="#42e8e0"/>
      <stop offset="0.151" stop-color="#42e3df"/>
      <stop offset="0.328" stop-color="#44d4de"/>
      <stop offset="0.52" stop-color="#48bddd"/>
      <stop offset="0.721" stop-color="#4d9bda"/>
      <stop offset="0.927" stop-color="#5471d8"/>
      <stop offset="1" stop-color="#5761d7"/>
    </linearGradient>
    <linearGradient id="linear-gradient-2" x1="2.127" y1="3.737" x2="3.396" y2="3.737" xlink:href="#linear-gradient"/>
    <linearGradient id="linear-gradient-3" x1="-2.243" y1="3.705" x2="-1.093" y2="3.705" xlink:href="#linear-gradient"/>
    <linearGradient id="linear-gradient-4" x1="-5.601" y1="4.106" x2="-4.521" y2="4.106" xlink:href="#linear-gradient"/>
    <linearGradient id="linear-gradient-5" x1="-3.813" y1="4.555" x2="-2.685" y2="4.555" xlink:href="#linear-gradient"/>
    <linearGradient id="linear-gradient-6" x1="3.956" y1="5.012" x2="5.223" y2="5.012" xlink:href="#linear-gradient"/>
    <linearGradient id="linear-gradient-7" x1="-12.26" y1="8.55" x2="-11.359" y2="8.55" xlink:href="#linear-gradient"/>
    <linearGradient id="linear-gradient-8" x1="-9.893" y1="6.096" x2="-8.998" y2="6.096" xlink:href="#linear-gradient"/>
    <linearGradient id="linear-gradient-9" x1="-6.416" y1="3.959" x2="-5.508" y2="3.959" xlink:href="#linear-gradient"/>
    <linearGradient id="linear-gradient-10" x1="5.152" y1="3.371" x2="6.159" y2="3.371" xlink:href="#linear-gradient"/>
    <linearGradient id="linear-gradient-11" x1="83.914" y1="38.897" x2="85.854" y2="38.897" xlink:href="#linear-gradient"/>
    <linearGradient id="linear-gradient-12" x1="3.69" y1="0.312" x2="4.825" y2="0.312" xlink:href="#linear-gradient"/>
    <linearGradient id="linear-gradient-13" x1="-5.647" y1="1.688" x2="-5.243" y2="1.688" xlink:href="#linear-gradient"/>
    <linearGradient id="linear-gradient-14" x1="-5.659" y1="1.726" x2="-5.273" y2="1.726" xlink:href="#linear-gradient"/>
    <linearGradient id="linear-gradient-15" x1="-2.613" y1="0.512" x2="-1.826" y2="0.512" xlink:href="#linear-gradient"/>
    <linearGradient id="linear-gradient-16" x1="-2.667" y1="0.513" x2="-1.901" y2="0.513" xlink:href="#linear-gradient"/>
    <linearGradient id="linear-gradient-17" x1="-14.12" y1="0.5" x2="-13.12" y2="0.5" gradientUnits="objectBoundingBox">
      <stop offset="0" stop-color="#c0bff6"/>
      <stop offset="0.294" stop-color="#c4c3f6"/>
      <stop offset="0.64" stop-color="#d2d2f9"/>
      <stop offset="1" stop-color="#e9e9fd"/>
    </linearGradient>
    <linearGradient id="linear-gradient-18" x1="-87.055" y1="0.5" x2="-86.055" y2="0.5" gradientUnits="objectBoundingBox">
      <stop offset="0" stop-color="#5761d7"/>
      <stop offset="0.178" stop-color="#5b65d8"/>
      <stop offset="0.388" stop-color="#6a72de"/>
      <stop offset="0.613" stop-color="#8188e8"/>
      <stop offset="0.849" stop-color="#a2a6f5"/>
      <stop offset="1" stop-color="#bcbeff"/>
    </linearGradient>
    <linearGradient id="linear-gradient-19" x1="1" y1="0.5" x2="0" y2="0.5" xlink:href="#linear-gradient"/>
    <linearGradient id="linear-gradient-20" x1="-9.516" y1="0.5" x2="-8.516" y2="0.5" xlink:href="#linear-gradient-18"/>
    <linearGradient id="linear-gradient-21" x1="-9.175" y1="0.5" x2="-8.175" y2="0.5" xlink:href="#linear-gradient-17"/>
    <linearGradient id="linear-gradient-22" x1="-36.113" y1="0.5" x2="-35.113" y2="0.5" xlink:href="#linear-gradient-17"/>
    <clipPath id="clip-path">
      <path id="SVGID" d="M317.341,123.976,551.216,259l-29,170.98L288.5,295.046Z" transform="translate(-288.495 -123.976)" fill="none"/>
    </clipPath>
    <linearGradient id="linear-gradient-23" x1="-9.939" y1="0.5" x2="-8.939" y2="0.5" xlink:href="#linear-gradient-17"/>
    <linearGradient id="linear-gradient-24" x1="-40.936" y1="0.5" x2="-39.936" y2="0.5" xlink:href="#linear-gradient-17"/>
  </defs>
  <g id="Group_2892" data-name="Group 2892" transform="translate(-145.565 -72.644)">
    <path id="Path_5913" data-name="Path 5913" d="M425.461,270.467a7.3,7.3,0,0,0-5.622-1.217c-5.939,1.444-19.465,6.306-26.547,21.466-8.308,17.787,4.647,30.011,7.353,32.3a100.117,100.117,0,0,1-7.092,9.026c-3.918-2.128-8.067-4.424-12.4-6.877-7.023-3.938-14.465-8.329-22.265-13.019l-5.868-3.6-2.988-1.837-2.977-1.887q-2.993-1.9-6.05-3.834-2.931-1.913-5.916-3.864c1.925-1.883,5.666-5.64,10.224-10.68,4.193.192,26.5.426,35.432-15.628,7.566-13.6-.008-22.976-3.965-26.615a6.361,6.361,0,0,0-4.806-1.441c-5.612.748-18.7,3.763-28.006,15.837-10.984,14.247-1.578,25.454.332,27.476-4.45,4.921-8.111,8.6-10.051,10.5-3.876-2.518-7.683-5.139-11.58-7.773-2.08-1.384-4.07-2.831-6.121-4.26-2.034-1.437-4.1-2.869-6.132-4.33-6.623-4.819-13.259-9.74-19.68-14.77,1-.734,2.675-1.974,4.842-3.643,2.376-1.827,5.354-4.178,8.671-6.91,3.5.38,24.6,2.034,35.329-11.812,8.983-11.589,3.271-20.286.107-23.721a5.66,5.66,0,0,0-4.267-1.54A45.389,45.389,0,0,0,307.1,230.24c-11.99,11.709-5.4,21.933-3.717,24.14-6.228,5.133-11.225,8.873-13.4,10.465-1.145-.9-2.3-1.8-3.425-2.706-10.716-8.536-20.858-17.3-30.107-25.991a99.435,99.435,0,0,0,11.47-7.7c1.229-.945,2.523-2,3.839-3.107,3.357.206,20.511.639,27.976-11.432,6.355-10.275.819-17.532-2.116-20.366a4.875,4.875,0,0,0-3.674-1.168,34.456,34.456,0,0,0-22.277,11.694c-8.8,10.445-2.476,18.958-.849,20.836a104.329,104.329,0,0,1-15.036,10.616c-3.872-3.654-7.6-7.3-11.118-10.9q-3.67-3.744-7.052-7.422a.189.189,0,0,0,.056-.107c0-.175-.236-.354-.525-.4q-1.18-1.286-2.324-2.561c.709-1.277,3.809-6.877,7.55-13.895,3.507-.165,19.417-1.634,23.2-14.688,3.261-11.258-3.885-18.172-7.406-20.788a4.9,4.9,0,0,0-3.773-.823,26.534,26.534,0,0,0-17.894,14.374c-5.6,11.855,2.937,20.042,4.819,21.652-3.367,6.314-6.206,11.47-7.241,13.336a279.051,279.051,0,0,1-18.717-23.283q-1.4-1.935-2.739-3.79c-.887-1.237-1.616-2.46-2.4-3.643-.21-.325-.406-.628-.613-.947,1.559-1.112,7.059-6.031,1-16.847a40.034,40.034,0,0,0-16.811-16.016,3.6,3.6,0,0,0-3.031-.17c-2.582,1.383-7.609,5.521-3.4,15.629,4.954,11.888,18.709,16.683,21.391,17.519l.573.917c.763,1.189,1.469,2.419,2.334,3.661l2.671,3.813A278.772,278.772,0,0,0,235.1,216.36c-4.307-.7-14.95-2.407-27.17-4.287-1.682-1.64-10.376-9.16-31.09-12.1-17.861-2.539-27.054.033-30.378,1.376a1.189,1.189,0,0,0-.472,2.067c2.409,2.78,9.76,9.162,28.6,12.892,21.818,4.32,31.414-2.1,33.3-3.6,12.913,1.986,24.083,3.785,27.88,4.4q3.5,3.915,7.32,7.916c4.265,4.475,8.833,9.013,13.629,13.566-2.757.449-10.4,1.631-20.962,2.765-2.263-1.365-14.423-8-35.463-6.862-17.945.973-25.074,5.777-27.428,7.971-.694.646-.408,1.64.686,2.392,3.743,2.572,14.029,8.09,33.525,8.232,22.594.165,28-9,28.931-11.058,10.86-1.163,18.682-2.38,21.358-2.818,8.409,7.948,17.544,15.942,27.14,23.754q3.132,2.58,6.355,5.116c-2.493.565-10.057,2.247-20.567,4.289-2.977-1.417-17.886-7.746-40.041-4.151-19.042,3.091-25.376,9.482-27.3,12.3-.568.833.015,1.963,1.4,2.722,4.746,2.6,17.351,7.934,38.374,5.982,24.809-2.308,27.743-14,28.079-16.214,10.806-2.1,18.509-3.819,20.8-4.341,5.438,4.28,11.007,8.486,16.566,12.618,2.02,1.482,4.074,2.936,6.1,4.394s4.016,2.919,6.084,4.327c4.1,2.831,8.108,5.656,12.2,8.351l1.51,1.008c-1.715.771-6.578,2.888-14.329,5.713-3.568-1.327-22-7.373-45.644-.5-20.209,5.879-25.378,14.3-26.689,17.917-.387,1.067.586,2.362,2.344,3.122,6.015,2.6,21.53,7.6,44.263,2.866,27.175-5.658,26.688-20.372,26.412-22.81,7.882-2.87,12.79-5.012,14.461-5.767l3.715,2.478q3.043,1.968,6.026,3.9l2.965,1.92,2.977,1.868q2.961,1.858,5.848,3.669c7.777,4.774,15.2,9.246,22.214,13.262,4.721,2.731,9.22,5.265,13.445,7.6-1.634.813-6.648,3.24-14.407,6.434-2.957-1.08-24-8.1-50.316.4-21.757,7.024-26.906,16.53-28.125,20.59-.36,1.2.785,2.62,2.752,3.425,6.737,2.755,24.015,7.964,48.6,2.156,28.86-6.818,28.016-22.738,27.552-25.878,8.133-3.339,13.318-5.863,14.843-6.624,7.9,4.353,14.8,7.982,20.265,10.786,4.285,2.2,7.7,3.892,10.046,5.035s3.644,1.751,3.644,1.751l2.323-2.475s-1.217-.553-3.539-1.665-5.706-2.749-9.975-4.892c-5.684-2.855-12.943-6.595-21.286-11.113a100.091,100.091,0,0,0,7.18-9.13c3.846-.127,29.2-1.733,34.972-21.97C441.395,284.648,430.716,274.359,425.461,270.467Z" transform="translate(0 49.355)" fill="#0b0244" opacity="0.7"/>
    <g id="Group_2869" data-name="Group 2869" transform="translate(235.883 72.644)">
      <g id="Group_2858" data-name="Group 2858" transform="translate(32.351 311.356)" opacity="0.7">
        <path id="Path_5914" data-name="Path 5914" d="M316.9,274.226s-10.373,28.483-48.785,31.862c-29.43,2.587-42.689-9.091-47.281-14.7a4.469,4.469,0,0,1-.04-5.63c4.472-5.608,17.253-18.192,44.8-23.219C301.551,255.981,316.9,274.226,316.9,274.226Z" transform="translate(-219.821 -261.119)" fill="url(#linear-gradient)"/>
      </g>
      <g id="Group_2859" data-name="Group 2859" transform="translate(166.034 229.896)" opacity="0.7">
        <path id="Path_5915" data-name="Path 5915" d="M301.613,286.064s29.529,6.854,53.324-23.491c18.23-23.247,15.679-40.731,13.49-47.638a4.468,4.468,0,0,0-4.7-3.106c-7.14.686-24.659,4.528-43.906,24.867C294.7,263.242,301.613,286.064,301.613,286.064Z" transform="translate(-300.743 -211.808)" fill="url(#linear-gradient-2)"/>
      </g>
      <g id="Group_2860" data-name="Group 2860" transform="translate(139.346 180.02)" opacity="0.7">
        <path id="Path_5916" data-name="Path 5916" d="M284.733,238.534s24.728,9.393,48.866-14.05c18.492-17.96,18.34-33.377,17.258-39.606a3.9,3.9,0,0,0-3.7-3.236c-6.254-.246-21.854,1.019-40.883,16.345C281.441,217.989,284.733,238.534,284.733,238.534Z" transform="translate(-284.588 -181.617)" fill="url(#linear-gradient-3)"/>
      </g>
      <g id="Group_2861" data-name="Group 2861" transform="translate(123.478 134.82)" opacity="0.7">
        <path id="Path_5917" data-name="Path 5917" d="M274.993,200.779s21.616,10.642,45.519-8.544c18.311-14.7,19.5-28.693,19.051-34.434a3.55,3.55,0,0,0-3.073-3.253c-5.651-.76-19.9-.952-38.478,11.311C273.771,181.866,274.993,200.779,274.993,200.779Z" transform="translate(-274.983 -154.255)" fill="url(#linear-gradient-4)"/>
      </g>
      <g id="Group_2862" data-name="Group 2862" transform="translate(114.177 88.234)" opacity="0.7">
        <path id="Path_5918" data-name="Path 5918" d="M269.418,168.521s18.816,7.759,37.886-9.748c14.612-13.414,14.83-25.274,14.131-30.087a3,3,0,0,0-2.772-2.57c-4.806-.324-16.83.312-31.8,11.688C267.329,152.648,269.418,168.521,269.418,168.521Z" transform="translate(-269.353 -126.055)" fill="url(#linear-gradient-5)"/>
      </g>
      <g id="Group_2863" data-name="Group 2863" transform="translate(103.919 37.554)" opacity="0.7">
        <path id="Path_5919" data-name="Path 5919" d="M263.714,145.13s19.815,4.649,35.84-15.686c12.276-15.578,10.592-27.32,9.134-31.961a3,3,0,0,0-3.147-2.093c-4.8.448-16.564,3-29.519,16.624C259.114,129.8,263.714,145.13,263.714,145.13Z" transform="translate(-263.143 -95.377)" fill="url(#linear-gradient-6)"/>
      </g>
      <g id="Group_2864" data-name="Group 2864" transform="translate(11.68 245.69)" opacity="0.7">
        <path id="Path_5920" data-name="Path 5920" d="M295.56,234.337s-10.227,25.46-45.078,27.377c-26.7,1.469-38.347-9.489-42.335-14.7a4.041,4.041,0,0,1,.131-5.093c4.211-4.943,16.146-15.947,41.215-19.677C282.212,217.378,295.56,234.337,295.56,234.337Z" transform="translate(-207.308 -221.369)" fill="url(#linear-gradient-7)"/>
      </g>
      <g id="Group_2865" data-name="Group 2865" transform="translate(0.162 183.306)" opacity="0.7">
        <path id="Path_5921" data-name="Path 5921" d="M276.271,199.7s-11.891,20.217-41.592,17.394c-22.754-2.162-31.2-12.909-33.91-17.818a3.455,3.455,0,0,1,.76-4.289c4.189-3.641,15.681-11.42,37.345-11.379C267.151,183.662,276.271,199.7,276.271,199.7Z" transform="translate(-200.335 -183.606)" fill="url(#linear-gradient-8)"/>
      </g>
      <g id="Group_2866" data-name="Group 2866" transform="translate(0 126.363)" opacity="0.7">
        <path id="Path_5922" data-name="Path 5922" d="M266.154,168.844s-12.99,16.065-38.5,9.742c-19.543-4.844-25.5-15.307-27.225-19.936a3.047,3.047,0,0,1,1.219-3.638c4.125-2.627,15.149-7.908,34.018-5.053C260.294,153.686,266.154,168.844,266.154,168.844Z" transform="translate(-200.237 -149.136)" fill="url(#linear-gradient-9)"/>
      </g>
      <g id="Group_2867" data-name="Group 2867" transform="translate(5.499 65.281)" opacity="0.7">
        <path id="Path_5923" data-name="Path 5923" d="M259.161,143.867S243,154.453,222.1,141.531c-16.011-9.9-18.327-20.921-18.535-25.533a2.849,2.849,0,0,1,2.126-2.889c4.422-1.158,15.747-2.708,31.728,5.229C258.279,128.7,259.161,143.867,259.161,143.867Z" transform="translate(-203.566 -112.161)" fill="url(#linear-gradient-10)"/>
      </g>
      <g id="Group_2868" data-name="Group 2868" transform="translate(77.359)" opacity="0.7">
        <path id="Path_5924" data-name="Path 5924" d="M256.144,125.547s-12.925-10.369-7.931-30.847c3.826-15.689,12.2-20.5,15.905-21.9a2.443,2.443,0,0,1,2.922.966c2.118,3.3,6.388,12.126,4.156,27.268C268.284,120.8,256.144,125.547,256.144,125.547Z" transform="translate(-247.065 -72.644)" fill="url(#linear-gradient-11)"/>
      </g>
      <path id="Path_5925" data-name="Path 5925" d="M250.646,405.826a.523.523,0,0,1,.484-.568,401.762,401.762,0,0,0,91.224-18.55c-2.4-4.4-4.906-9.15-7.487-14.238-3.862-7.5-7.778-15.766-11.8-24.553Q321.6,344.6,320.1,341.2l-1.508-3.423q-.726-1.737-1.459-3.494l-2.96-7.1c-.585-1.482-1.178-2.987-1.768-4.485-5.633,1.718-37.758,11-84.542,14.43a.528.528,0,0,1-.078-1.054c46.455-3.406,78.411-12.591,84.231-14.362-.241-.61-.477-1.209-.719-1.822-1.974-4.888-3.757-9.945-5.633-15.035-.961-2.536-1.784-5.139-2.68-7.731-.872-2.6-1.783-5.2-2.635-7.835-2.3-7.325-4.559-14.759-6.624-22.27-6.19.481-45.236,3.291-82.681.971a.528.528,0,0,1,.064-1.054c36.965,2.29,75.509-.43,82.326-.953-.808-2.97-1.591-5.95-2.323-8.944-3.436-13.632-6.261-27.418-8.392-40.964-6.438,0-38.8-.411-70.85-7.933a.528.528,0,1,1,.241-1.028c31.711,7.44,63.728,7.895,70.453,7.9-1.2-7.756-2.181-15.433-2.907-22.951q-.662-6.715-1.059-13.241c-7.317-3.942-45.819-24.586-64.138-32.557a.529.529,0,0,1-.274-.7.523.523,0,0,1,.7-.273c17.921,7.8,55.07,27.674,63.641,32.285a359.371,359.371,0,0,1,0-43.024q.181-3.152.352-6.172c.121-2.01.392-3.965.572-5.874.4-3.816.78-7.437,1.137-10.84.522-3.38,1.009-6.543,1.459-9.471.481-2.919.818-5.62,1.308-8.025,2.01-9.611,3.16-15.1,3.16-15.1l.354.083s-1.072,5.5-2.949,15.122c-.456,2.407-.755,5.11-1.194,8.029-.41,2.924-.852,6.088-1.326,9.467-.309,3.4-.638,7.013-.986,10.825-.152,1.906-.4,3.856-.487,5.863s-.177,4.061-.266,6.159a355.165,355.165,0,0,0,.278,38.275c5.9-5.746,35.95-35.088,52.351-52.83a.528.528,0,0,1,.776.717c-17.159,18.563-49.227,49.794-53.038,53.5q.136,2.124.3,4.274a.525.525,0,0,1,.207.71.513.513,0,0,1-.142.144q.478,6.143,1.181,12.459c.671,6.069,1.522,12.246,2.508,18.476,5.676-2.268,34.746-14.671,62.811-40.971a.522.522,0,0,1,.747.023.529.529,0,0,1-.023.747,222.6,222.6,0,0,1-45.649,32.812,171.546,171.546,0,0,1-17.712,8.458,456.088,456.088,0,0,0,9.6,44.917c.411,1.588.857,3.165,1.292,4.746,7.979-4.143,40.216-21.289,69.674-42.7a.529.529,0,0,1,.621.856c-23.559,17.119-48.887,31.518-62.222,38.745-3.517,1.906-6.193,3.311-7.789,4.138,2.456,8.836,5.217,17.565,8.045,26.139.882,2.6,1.822,5.177,2.724,7.749.925,2.564,1.778,5.138,2.769,7.645,1.825,4.751,3.572,9.467,5.468,14.045,9.188-6.081,40.434-27.365,68.552-53.57a.529.529,0,0,1,.72.775c-28.353,26.42-59.878,47.851-68.864,53.793q1.45,3.541,2.878,7.021l3.038,7.009q.751,1.735,1.5,3.449.778,1.7,1.546,3.378l3.036,6.633c4.118,8.67,8.116,16.817,12.05,24.21,2.41,4.6,4.761,8.917,7.013,12.942,5.926-4.3,36.21-27.16,66.93-66.4a.528.528,0,0,1,.831.653c-30.938,39.52-61.473,62.5-67.241,66.675,4.8,8.546,9.135,15.707,12.586,21.206,2.592,4.128,4.695,7.325,6.15,9.479s2.238,3.259,2.238,3.259l-4.32,3.043s-.833-1.194-2.275-3.411-3.542-5.491-6.107-9.7c-3.271-5.374-7.328-12.286-11.817-20.489a402.314,402.314,0,0,1-91.652,18.662A.529.529,0,0,1,250.646,405.826Z" transform="translate(-193.516 -68.453)" opacity="0.7" fill="url(#linear-gradient-12)"/>
    </g>
    <path id="Path_5926" data-name="Path 5926" d="M647.642,306.911c1.951-10.077-3.375-17.318-13.371-21.16l.015-.013c-.225-.088-.458-.17-.689-.253l-.005,0a51.621,51.621,0,0,0-13.822-2.729c-14.242-1.008-24.97,3.406-28.293,10.787a14.139,14.139,0,0,1-5.8,6.583,13.981,13.981,0,0,1-3.023,1.366c-.086.028-.172.056-.258.083a25.325,25.325,0,0,1-11.07.408c-11.258-1.728-21.6-.573-28.016,3.4q-5.233,3.244-10.409,6.981C475.481,353.918,419.609,368.46,400.336,375.7c-2.7,1.011-3.091,2.952-1.951,4.858h-.013c.086.142.18.286.282.428h.008c1.541,2.138,4.969,4.14,9.253,4.622a454.215,454.215,0,0,0,47.823,2.7l.007.005h.264l.525,0h.106l0,0c27.818.073,62.247-2.367,95.165-11.532.436-.121.856-.254,1.272-.39l.04.017c.2-.058.41-.116.615-.175l-.086-.035c7.028-2.45,11.045-6.93,11.585-12.391.225-2.286,1.7-4.6,4.987-6.829,7.53-5.115,19.262-6.306,31.087-7.056,6.98-.443,12.838-2.265,16.63-5.3l.061-.05c1.528-1.222,2.979-2.427,4.379-3.619l.335-.283-.01,0c15.37-13.16,23.058-24.471,24.9-33.52.015-.076.03-.154.045-.231Z" transform="translate(164.442 136.897)" fill="#0b0244" opacity="0.7"/>
    <g id="Group_2870" data-name="Group 2870" transform="translate(545.11 217.198)">
      <path id="Path_5927" data-name="Path 5927" d="M656.953,293.259l.076-.127c57.274-94.842,44.792-139.817,5.86-132.145-17.242,3.4-30.54,16.959-35.02,33.951a46.264,46.264,0,0,1-7.441,16.259,22.42,22.42,0,0,1-17.547,9.532,45.144,45.144,0,0,0-34.242,18.144q-6.549,8.936-13.064,18.9C483.32,368.476,414.568,421.144,390.718,444.032a10.568,10.568,0,0,0,8.615,18.124c27.453-3.4,103.648-17.643,175.346-74.768a46.639,46.639,0,0,0,17.09-32.82c.411-4.949,2.342-10.439,6.469-16.465,9.454-13.807,23.78-20.906,38.19-27.1A44.413,44.413,0,0,0,656.953,293.259Z" transform="translate(-387.423 -160.148)" opacity="0.7" fill="url(#linear-gradient-13)"/>
      <path id="Path_5928" data-name="Path 5928" d="M606.3,275.74l55.989,7.551c.15-.261.309-.529.458-.79l-55.875-7.536q27.446-37.462,54.266-81.588l33.819,8.476c.041-.284.073-.56.111-.842l-33.472-8.39q9.307-15.336,18.509-31.445c-.271-.1-.548-.18-.824-.268-17.453,30.5-34.531,57.784-51.064,82.151L616.7,214.544c-.223.2-.449.4-.676.585L627.643,243.9a919.72,919.72,0,0,1-62.362,82.077l-17.76-56.944q-.3.449-.606.894l17.717,56.8c-33.1,38.453-62.326,64.612-85.789,82.235-1.4,1.051-2.78,2.07-4.153,3.073l-3.157-46.411c-.264.287-.525.568-.788.854l3.139,46.146c-46.09,33.487-77.709,40.625-86.086,42.006q.144.406.317.8c6.111-1.029,23.351-4.9,48.8-18.469l20.124,11.828.322-.1.638-.2.129-.041L437.784,436.5a328.565,328.565,0,0,0,41.475-26.79,487.534,487.534,0,0,0,49.224-42.775l47.569,18.654q.379-.3.757-.611l-47.661-18.689A697.838,697.838,0,0,0,579.8,310.1Q593.1,293.724,606.3,275.74Z" transform="translate(-387.18 -159.652)" opacity="0.7" fill="url(#linear-gradient-14)"/>
    </g>
    <g id="Group_2871" data-name="Group 2871" transform="translate(539.886 148.233)">
      <path id="Path_5929" data-name="Path 5929" d="M495.109,206.992l0-.1c2.266-77.618-20.851-100.762-41.965-82.663-9.35,8.015-12.793,20.874-9.672,32.788a32.424,32.424,0,0,1,1.064,12.486,15.711,15.711,0,0,1-7.424,11.865,31.639,31.639,0,0,0-14.643,22.873q-.919,7.709-1.46,16.034c-5.94,92.46-29.747,148.293-36.414,170.481a7.407,7.407,0,0,0,11.5,8.091c15.581-11.536,57.172-46.487,81.239-106.057a32.694,32.694,0,0,0-.882-25.918,24.043,24.043,0,0,1-1.726-12.277c1.011-11.683,7.307-20.954,13.966-29.7A31.112,31.112,0,0,0,495.109,206.992Z" transform="translate(-384.261 -118.4)" opacity="0.7" fill="url(#linear-gradient-15)"/>
      <path id="Path_5930" data-name="Path 5930" d="M457.484,213.884,494.252,199.2c0-.211.007-.43.008-.639l-36.7,14.656c2.559-21.547,4.227-44.422,5-68.491l23.559-6.482c-.073-.187-.149-.367-.221-.552L462.582,144.1q.394-12.566.458-25.568c-.2.033-.4.078-.595.119-.139,24.629-1.16,47.164-2.851,67.733l-16.85-13.434c-.068.2-.139.4-.211.59l17,13.553a644.982,644.982,0,0,1-9.771,71.58L419.3,230.049c-.021.251-.041.5-.063.753l30.388,28.559c-6.947,34.872-15.768,60.908-24.013,79.749-.491,1.123-.983,2.222-1.475,3.307l-17.921-27.236c-.063.268-.126.529-.187.795l17.818,27.079c-16.586,36.319-33.421,51.571-38.058,55.3.152.132.309.259.469.38,3.375-2.734,12.56-11.039,23.415-28.089l16.36.283c.053-.058.107-.114.162-.172l.32-.34.063-.071-16.533-.284a230.511,230.511,0,0,0,16.077-30.643,341.738,341.738,0,0,0,15.3-43.067l35.456-5.01.253-.633L441.6,295.73a488.715,488.715,0,0,0,11.549-51.748Q455.626,229.409,457.484,213.884Z" transform="translate(-383.264 -118.311)" opacity="0.7" fill="url(#linear-gradient-16)"/>
    </g>
    <g id="Group_2885" data-name="Group 2885" transform="translate(222.63 143.151)">
      <g id="Group_2884" data-name="Group 2884" transform="translate(0 0)">
        <g id="Group_2883" data-name="Group 2883">
          <g id="Group_2882" data-name="Group 2882">
            <g id="Group_2876" data-name="Group 2876">
              <g id="Group_2873" data-name="Group 2873" transform="translate(150.269)">
                <path id="Path_5931" data-name="Path 5931" d="M285.533,298.873l30.36-180.115-2.442-1.028,3.667-2.1,0,.021a2.64,2.64,0,0,1,2.827.195L562.57,255.927c1.992,1.15,3.5,4.1,3.15,6.164l-30.6,181.547a2.274,2.274,0,0,1-1.279,1.847l0,0-3.59,2.073-.616-3.35.2.061L288.683,305.037C286.691,303.887,285.183,300.936,285.533,298.873Z" transform="translate(-281.676 -115.325)" fill="url(#linear-gradient-17)"/>
                <path id="Path_5932" data-name="Path 5932" d="M469.593,204.113l3.988-1.764a5.489,5.489,0,0,1,.514,3L443.5,386.9a2.274,2.274,0,0,1-1.279,1.847l0,0-3.59,2.073-.616-3.35.2.061-12.2-7.046Z" transform="translate(-190.051 -58.587)" fill="url(#linear-gradient-18)"/>
                <path id="Path_5933" data-name="Path 5933" d="M286.379,306.362,529.008,446.445c1.873,1.082,3.477.456,3.806-1.483l30.6-181.546c.35-2.063-1.158-5.014-3.15-6.164L317.636,117.169c-1.873-1.082-3.477-.458-3.808,1.482L283.229,300.2C282.879,302.262,284.387,305.212,286.379,306.362Z" transform="translate(-283.178 -114.466)" fill="#24126a"/>
                <g id="Group_2872" data-name="Group 2872" transform="translate(8.783 14.291)" opacity="0.51">
                  <path id="Path_5934" data-name="Path 5934" d="M317.341,123.976,551.216,259l-29,170.98L288.5,295.046Z" transform="translate(-288.495 -123.976)" fill="#453c9e"/>
                </g>
              </g>
              <g id="Group_2875" data-name="Group 2875" transform="translate(0 191.267)">
                <path id="Path_5935" data-name="Path 5935" d="M440.392,480.79a11.1,11.1,0,0,1-5.427-1.371L194.8,340.76c-1.644-.948-2.587-2.267-2.587-3.615a3.438,3.438,0,0,1,1.949-2.942l143.314-82.743c2.542-1.47,6.806-1.305,9.709.368L587.348,390.486c1.645.948,2.589,2.267,2.589,3.615a3.44,3.44,0,0,1-1.951,2.944L444.672,479.786A8.675,8.675,0,0,1,440.392,480.79ZM195.628,339.331,435.791,477.99c2.354,1.358,6.046,1.526,8.055.367L587.16,395.614a1.918,1.918,0,0,0,1.125-1.513c0-.73-.659-1.548-1.763-2.186L346.361,253.258c-2.357-1.358-6.045-1.526-8.057-.368L194.99,335.632a1.917,1.917,0,0,0-1.123,1.513c0,.73.659,1.548,1.761,2.186Z" transform="translate(-192.215 -218.488)" opacity="0.7" fill="url(#linear-gradient-19)"/>
                <path id="Path_5936" data-name="Path 5936" d="M192.792,311.383l13.241,6.914,132.773-76.657c2.222-1.282,6.1-1.12,8.666.36l229,132.211c2.191-1.226,12.182-6.031,12.182-6.031L583.8,380.809l-.02-.015a2.882,2.882,0,0,1-1.355,1.5L442.592,463.031c-2.22,1.284-6.1,1.122-8.666-.358L199.592,327.379a4.19,4.19,0,0,1-1.966-2.09l-.018.012Z" transform="translate(-191.839 -224.801)" fill="url(#linear-gradient-20)"/>
                <path id="Path_5937" data-name="Path 5937" d="M194.889,319.862,435.052,458.521c2.628,1.517,6.6,1.682,8.881.367l143.314-82.741c2.276-1.315,1.992-3.611-.638-5.128L346.448,232.36c-2.63-1.518-6.606-1.682-8.883-.368L194.251,314.735C191.975,316.05,192.261,318.344,194.889,319.862Z" transform="translate(-191.889 -231.105)" fill="url(#linear-gradient-21)"/>
                <path id="Path_5938" data-name="Path 5938" d="M194.883,285.119,435.046,423.776c2.628,1.518,6.6,1.683,8.881.368L587.241,341.4a2.886,2.886,0,0,0,1.444-1.678,2.452,2.452,0,0,1-1.444,2.755L443.927,425.22c-2.276,1.315-6.253,1.15-8.881-.368L194.883,286.194c-1.7-.983-2.405-2.291-2.082-3.449A4.067,4.067,0,0,0,194.883,285.119Z" transform="translate(-191.883 -197.437)" fill="#fff"/>
                <path id="Path_5939" data-name="Path 5939" d="M387.193,351.767v-2.633c0-.249-.152-.365-.339-.256l-9.289,5.362a.81.81,0,0,0-.339.648v2.635c0,.249.15.363.339.256l9.289-5.364A.812.812,0,0,0,387.193,351.767Z" transform="translate(-71.591 -154.346)" fill="#2842a2"/>
                <path id="Path_5940" data-name="Path 5940" d="M378.784,356.623V353.99c0-.249-.152-.365-.339-.258l-9.289,5.364a.812.812,0,0,0-.339.648v2.635c0,.249.152.363.339.256l9.289-5.364A.812.812,0,0,0,378.784,356.623Z" transform="translate(-77.074 -151.181)" fill="#2842a2"/>
                <path id="Path_5941" data-name="Path 5941" d="M517.734,359.916,318.159,244.69a4.3,4.3,0,0,0-4.3,0L242.791,285.81a1.533,1.533,0,0,0,0,2.653L442.275,403.634a4.3,4.3,0,0,0,4.3,0l71.164-41.066A1.531,1.531,0,0,0,517.734,359.916Z" transform="translate(-159.739 -222.623)" fill="#adb1f2"/>
                <path id="Path_5942" data-name="Path 5942" d="M517.734,362.569l-.715.413L318.159,248.169a4.3,4.3,0,0,0-4.3,0l-70.353,40.7-.714-.413a1.533,1.533,0,0,1,0-2.653l71.068-41.118a4.3,4.3,0,0,1,4.3,0L517.734,359.916A1.532,1.532,0,0,1,517.734,362.569Z" transform="translate(-159.739 -222.623)" fill="#9198db"/>
                <g id="Group_2874" data-name="Group 2874" transform="translate(92.935 28.032)">
                  <path id="Path_5943" data-name="Path 5943" d="M282.263,252.524,455.621,352.613l7.708-4.45L289.971,248.074Z" transform="translate(-226.441 -248.074)" fill="#24126a"/>
                  <path id="Path_5944" data-name="Path 5944" d="M270.823,259.129l162.6,93.88,7.708-4.45-162.6-93.88Z" transform="translate(-233.899 -243.768)" fill="#24126a"/>
                  <path id="Path_5945" data-name="Path 5945" d="M263.373,263.431,454.822,373.963l7.708-4.45L271.081,258.98Z" transform="translate(-238.756 -240.963)" fill="#24126a"/>
                  <path id="Path_5946" data-name="Path 5946" d="M255.922,267.732,447.371,378.265l7.708-4.45L263.631,263.282Z" transform="translate(-243.614 -238.159)" fill="#24126a"/>
                  <path id="Path_5947" data-name="Path 5947" d="M248.472,272.034,439.92,382.567l7.708-4.45L256.18,267.583Z" transform="translate(-248.472 -235.354)" fill="#24126a"/>
                  <path id="Path_5948" data-name="Path 5948" d="M393.544,316.773l7.708,4.45,7.708-4.45-7.708-4.45Z" transform="translate(-153.888 -206.186)" fill="#24126a"/>
                  <path id="Path_5949" data-name="Path 5949" d="M377.086,320.479l16,9.237,7.708-4.45-16-9.237Z" transform="translate(-164.618 -203.769)" fill="#24126a"/>
                </g>
                <path id="Path_5950" data-name="Path 5950" d="M305.322,353.834l-53.813-31.069c-2.1-1.214-2.1-3.183,0-4.4l36.8-21.246a8.42,8.42,0,0,1,7.617,0l53.813,31.069c2.1,1.214,2.1,3.183,0,4.4l-36.8,21.246A8.416,8.416,0,0,1,305.322,353.834Z" transform="translate(-154.585 -188.658)" fill="url(#linear-gradient-22)"/>
                <path id="Path_5951" data-name="Path 5951" d="M349.729,329.989,295.916,298.92a8.419,8.419,0,0,0-7.617,0l-36.8,21.246a3.291,3.291,0,0,0-1.322,1.3c-.557-1.062-.132-2.258,1.322-3.1l36.8-21.246a8.42,8.42,0,0,1,7.617,0l53.813,31.069c1.454.839,1.878,2.037,1.322,3.1A3.306,3.306,0,0,0,349.729,329.989Z" transform="translate(-154.577 -188.658)" fill="#9198db"/>
              </g>
            </g>
            <g id="Group_2881" data-name="Group 2881" transform="translate(159.053 14.291)" opacity="0.11">
              <g id="Group_2880" data-name="Group 2880" clip-path="url(#clip-path)">
                <g id="Group_2879" data-name="Group 2879" transform="translate(-6.906 89.188)">
                  <path id="Path_5952" data-name="Path 5952" d="M286.489,266.721,526.652,405.38c2.628,1.517,6.6,1.682,8.883.368l143.312-82.743c2.278-1.315,1.992-3.611-.638-5.128L438.048,179.219c-2.63-1.518-6.606-1.682-8.883-.368L285.851,261.594C283.575,262.909,283.861,265.2,286.489,266.721Z" transform="translate(-284.315 -177.964)" fill="url(#linear-gradient-23)"/>
                  <path id="Path_5953" data-name="Path 5953" d="M453.3,269.483,399.49,238.414c-2.1-1.216-2.1-3.183,0-4.4l36.8-21.246a8.42,8.42,0,0,1,7.617,0l53.813,31.069c2.1,1.214,2.1,3.183,0,4.4l-36.8,21.246A8.416,8.416,0,0,1,453.3,269.483Z" transform="translate(-210.251 -155.865)" fill="url(#linear-gradient-24)"/>
                  <path id="Path_5954" data-name="Path 5954" d="M497.711,245.638,443.9,214.569a8.42,8.42,0,0,0-7.617,0l-36.8,21.246a3.292,3.292,0,0,0-1.322,1.3c-.557-1.062-.132-2.258,1.322-3.1l36.8-21.246a8.42,8.42,0,0,1,7.617,0l53.813,31.069c1.454.839,1.878,2.035,1.322,3.1A3.292,3.292,0,0,0,497.711,245.638Z" transform="translate(-210.243 -155.865)" fill="#9198db"/>
                  <g id="Group_2878" data-name="Group 2878" transform="translate(35.415 46.37)">
                    <path id="Path_5955" data-name="Path 5955" d="M581.46,321.835,381.886,206.609a4.3,4.3,0,0,0-4.3,0l-71.068,41.118a1.531,1.531,0,0,0,0,2.653L506,365.553a4.3,4.3,0,0,0,4.3,0l71.164-41.066A1.531,1.531,0,0,0,581.46,321.835Z" transform="translate(-305.753 -206.033)" fill="#adb1f2"/>
                    <path id="Path_5956" data-name="Path 5956" d="M581.46,324.488l-.714.413L381.886,210.088a4.3,4.3,0,0,0-4.3,0l-70.353,40.7-.714-.413a1.531,1.531,0,0,1,0-2.653l71.068-41.118a4.3,4.3,0,0,1,4.3,0L581.46,321.835A1.531,1.531,0,0,1,581.46,324.488Z" transform="translate(-305.753 -206.033)" fill="#9198db"/>
                    <g id="Group_2877" data-name="Group 2877" transform="translate(12.477 8.433)">
                      <path id="Path_5957" data-name="Path 5957" d="M320.192,229.576,494.057,329.957l-6.887,3.976L313.305,233.552Z" transform="translate(-313.305 -199.118)" fill="#24126a"/>
                      <path id="Path_5958" data-name="Path 5958" d="M331.282,223.173l165.255,95.41-6.887,3.976L324.394,227.15Z" transform="translate(-306.075 -203.292)" fill="#24126a"/>
                      <path id="Path_5959" data-name="Path 5959" d="M438.786,285.241l15.434,8.911-6.887,3.976L431.9,289.217Z" transform="translate(-235.984 -162.825)" fill="#24126a"/>
                      <path id="Path_5960" data-name="Path 5960" d="M430.534,293.282l10.747,6.2-6.887,3.976-10.747-6.2Z" transform="translate(-241.365 -157.583)" fill="#24126a"/>
                      <path id="Path_5961" data-name="Path 5961" d="M338.23,219.162,531.26,330.607l-6.887,3.976L331.343,223.138Z" transform="translate(-301.545 -205.907)" fill="#24126a"/>
                      <path id="Path_5962" data-name="Path 5962" d="M345.178,215.15,538.208,326.6l-6.887,3.976L338.291,219.126Z" transform="translate(-297.015 -208.523)" fill="#24126a"/>
                      <path id="Path_5963" data-name="Path 5963" d="M352.127,211.138l193.03,111.446-6.887,3.976L345.24,215.115Z" transform="translate(-292.485 -211.138)" fill="#24126a"/>
                    </g>
                  </g>
                </g>
              </g>
            </g>
          </g>
        </g>
      </g>
    </g>
    <g id="Group_2887" data-name="Group 2887" transform="translate(518.098 269.586)">
      <g id="Group_2886" data-name="Group 2886" transform="translate(24.055 30.199)">
        <path id="Path_5964" data-name="Path 5964" d="M401.691,219.331l-11.509-6.658.411-2.533L402.1,216.8Z" transform="translate(-382.668 -210.14)" fill="#42e8e0"/>
        <path id="Path_5965" data-name="Path 5965" d="M402.357,219.716l-4.144-2.4.411-2.532,4.144,2.4Z" transform="translate(-377.431 -207.111)" fill="#42e8e0"/>
        <path id="Path_5966" data-name="Path 5966" d="M404.6,221.015l-2.816-1.629.411-2.532,2.816,1.629Z" transform="translate(-375.102 -205.763)" fill="#42e8e0"/>
        <path id="Path_5967" data-name="Path 5967" d="M395.885,219.8l-6.271-3.628.411-2.533,6.271,3.628Z" transform="translate(-383.038 -207.857)" fill="#42e8e0"/>
        <path id="Path_5968" data-name="Path 5968" d="M402.159,223.432l-7.685-4.446.411-2.532,7.685,4.446Z" transform="translate(-379.869 -206.023)" fill="#42e8e0"/>
        <path id="Path_5969" data-name="Path 5969" d="M403.006,223.923l-2.816-1.629.411-2.533,2.816,1.629Z" transform="translate(-376.142 -203.867)" fill="#42e8e0"/>
        <path id="Path_5970" data-name="Path 5970" d="M405.641,225.447l-2.816-1.629.411-2.533,2.816,1.629Z" transform="translate(-374.424 -202.874)" fill="#42e8e0"/>
        <path id="Path_5971" data-name="Path 5971" d="M393.582,222.3l-4.537-2.625.411-2.533,4.537,2.625Z" transform="translate(-383.409 -205.573)" fill="#42e8e0"/>
        <path id="Path_5972" data-name="Path 5972" d="M394.407,222.779l-1.551-.9.411-2.533,1.551.9Z" transform="translate(-380.924 -204.136)" fill="#42e8e0"/>
        <path id="Path_5973" data-name="Path 5973" d="M397.675,224.669l-2.816-1.629.411-2.533,2.816,1.629Z" transform="translate(-379.618 -203.38)" fill="#42e8e0"/>
        <path id="Path_5974" data-name="Path 5974" d="M405.224,232.867l-16.748-9.689.411-2.532,16.748,9.688Z" transform="translate(-383.78 -203.29)" fill="#42e8e0"/>
        <path id="Path_5975" data-name="Path 5975" d="M403.823,232.057l-4.144-2.4.411-2.533,4.144,2.4Z" transform="translate(-376.476 -199.065)" fill="#42e8e0"/>
        <path id="Path_5976" data-name="Path 5976" d="M392.445,229.306l-4.537-2.625.411-2.533,4.537,2.625Z" transform="translate(-384.151 -201.007)" fill="#42e8e0"/>
        <path id="Path_5977" data-name="Path 5977" d="M400.609,234.029l-8.89-5.143.411-2.533,8.89,5.143Z" transform="translate(-381.666 -199.569)" fill="#42e8e0"/>
        <path id="Path_5978" data-name="Path 5978" d="M400.981,234.244l-2.816-1.629.411-2.533,2.816,1.629Z" transform="translate(-377.463 -197.138)" fill="#42e8e0"/>
        <path id="Path_5979" data-name="Path 5979" d="M396.623,235.554l-9.284-5.371.411-2.533,9.284,5.371Z" transform="translate(-384.521 -198.724)" fill="#42e8e0"/>
        <path id="Path_5980" data-name="Path 5980" d="M400.737,237.934l-6.714-3.884.411-2.532,6.714,3.884Z" transform="translate(-380.163 -196.202)" fill="#42e8e0"/>
        <path id="Path_5981" data-name="Path 5981" d="M403.689,239.642l-4.537-2.625.411-2.533,4.537,2.625Z" transform="translate(-376.82 -194.268)" fill="#42e8e0"/>
        <path id="Path_5982" data-name="Path 5982" d="M389.906,235.5l-3.135-1.814.411-2.533,3.135,1.814Z" transform="translate(-384.892 -196.44)" fill="#42e8e0"/>
        <path id="Path_5983" data-name="Path 5983" d="M393.877,237.8l-4.144-2.4.411-2.533,4.144,2.4Z" transform="translate(-382.961 -195.323)" fill="#42e8e0"/>
        <path id="Path_5984" data-name="Path 5984" d="M399.983,241.328l-6.677-3.863.411-2.533,6.677,3.863Z" transform="translate(-380.631 -193.975)" fill="#42e8e0"/>
        <path id="Path_5985" data-name="Path 5985" d="M395.807,242.744l-9.6-5.556.411-2.533,9.6,5.556Z" transform="translate(-385.263 -194.157)" fill="#42e8e0"/>
        <path id="Path_5986" data-name="Path 5986" d="M402.08,246.373l-9-5.206.411-2.533,9,5.206Z" transform="translate(-380.778 -191.563)" fill="#42e8e0"/>
        <path id="Path_5987" data-name="Path 5987" d="M402.409,246.563l-2.816-1.629L400,242.4l2.816,1.629Z" transform="translate(-376.532 -189.106)" fill="#42e8e0"/>
        <path id="Path_5988" data-name="Path 5988" d="M405.066,248.1l-2.816-1.629.411-2.533,2.816,1.629Z" transform="translate(-374.8 -188.104)" fill="#42e8e0"/>
        <path id="Path_5989" data-name="Path 5989" d="M391.388,244.018l-5.755-3.329.411-2.533,5.755,3.329Z" transform="translate(-385.633 -191.874)" fill="#42e8e0"/>
        <path id="Path_5990" data-name="Path 5990" d="M408.234,223.116l7.98,4.617.411-2.533-7.98-4.617Z" transform="translate(-370.898 -203.331)" fill="#42e8e0"/>
        <path id="Path_5991" data-name="Path 5991" d="M408.7,227.217l6.271,3.628.411-2.533-6.271-3.628Z" transform="translate(-370.594 -200.658)" fill="#42e8e0"/>
        <path id="Path_5992" data-name="Path 5992" d="M409.181,231.326l4.537,2.625.411-2.533-4.537-2.625Z" transform="translate(-370.281 -197.978)" fill="#42e8e0"/>
        <path id="Path_5993" data-name="Path 5993" d="M407.364,234.106l6.6,3.818.411-2.532-6.6-3.818Z" transform="translate(-371.465 -196.166)" fill="#42e8e0"/>
        <path id="Path_5994" data-name="Path 5994" d="M408.044,238.33l4.537,2.625.411-2.533-4.537-2.625Z" transform="translate(-371.022 -193.412)" fill="#42e8e0"/>
        <path id="Path_5995" data-name="Path 5995" d="M406.739,241.406l5.755,3.329.411-2.533-5.755-3.329Z" transform="translate(-371.873 -191.407)" fill="#42e8e0"/>
        <path id="Path_5996" data-name="Path 5996" d="M407.756,245.825l3.135,1.814.411-2.533-3.135-1.814Z" transform="translate(-371.21 -188.525)" fill="#42e8e0"/>
        <path id="Path_5997" data-name="Path 5997" d="M405.407,248.3l6.076,3.515.411-2.533-6.076-3.515Z" transform="translate(-372.741 -186.913)" fill="#42e8e0"/>
        <path id="Path_5998" data-name="Path 5998" d="M405.033,251.912l5.755,3.329.411-2.533-5.755-3.329Z" transform="translate(-372.985 -184.557)" fill="#42e8e0"/>
        <path id="Path_5999" data-name="Path 5999" d="M392.628,244.736l-2.447-1.416.411-2.533,2.447,1.416Z" transform="translate(-382.668 -190.158)" fill="#42e8e0"/>
        <path id="Path_6000" data-name="Path 6000" d="M398.236,247.98l-5.509-3.187.411-2.533,5.509,3.187Z" transform="translate(-381.008 -189.198)" fill="#42e8e0"/>
        <path id="Path_6001" data-name="Path 6001" d="M400.835,260.625l-9.3-5.378.411-2.533,9.3,5.378Z" transform="translate(-381.783 -182.382)" fill="#42e8e0"/>
        <path id="Path_6002" data-name="Path 6002" d="M402.466,261.568,398.8,259.45l.411-2.533,3.661,2.118Z" transform="translate(-377.046 -179.642)" fill="#42e8e0"/>
      </g>
      <path id="Path_6003" data-name="Path 6003" d="M444.793,332.688a2.734,2.734,0,0,1-1.361-.385L373.2,291.753a4.716,4.716,0,0,1-2.075-4.611l15.347-92.958a2.737,2.737,0,0,1,1.447-2.11,2.483,2.483,0,0,1,2.329.17l70.232,40.549a4.714,4.714,0,0,1,2.075,4.611l-15.347,92.958a2.738,2.738,0,0,1-1.447,2.11A2.249,2.249,0,0,1,444.793,332.688Zm-55.9-139.093a.517.517,0,0,0-.23.051,1.058,1.058,0,0,0-.476.823L372.84,287.427a3,3,0,0,0,1.229,2.822v0L444.3,330.8a.792.792,0,0,0,.719.1,1.065,1.065,0,0,0,.476-.824l15.347-92.958a3.007,3.007,0,0,0-1.231-2.823l-70.232-40.549A1.016,1.016,0,0,0,388.892,193.595Z" transform="translate(-371.072 -191.86)" fill="#42e8e0"/>
    </g>
    <g id="Group_2891" data-name="Group 2891" transform="translate(412.124 215.593)">
      <path id="Path_6004" data-name="Path 6004" d="M316.572,161.736l14.744,8.522.432-2.56L317,159.176Z" transform="translate(-300.631 -159.176)" fill="#42e8e0"/>
      <path id="Path_6005" data-name="Path 6005" d="M326.933,167.718l8.034,4.644.432-2.56-8.034-4.643Z" transform="translate(-293.876 -155.276)" fill="#42e8e0"/>
      <path id="Path_6006" data-name="Path 6006" d="M339.363,174.9l5.813,3.36.432-2.56-5.813-3.36Z" transform="translate(-285.772 -150.596)" fill="#42e8e0"/>
      <path id="Path_6007" data-name="Path 6007" d="M336.8,173.413l1.986,1.148.432-2.56-1.986-1.148Z" transform="translate(-287.445 -151.563)" fill="#42e8e0"/>
      <path id="Path_6008" data-name="Path 6008" d="M333.249,171.363l3.607,2.085.432-2.56-3.607-2.085Z" transform="translate(-289.758 -152.9)" fill="#42e8e0"/>
      <path id="Path_6009" data-name="Path 6009" d="M323.634,173.59l5.813,3.36.432-2.56-5.813-3.359Z" transform="translate(-296.027 -151.448)" fill="#42e8e0"/>
      <path id="Path_6010" data-name="Path 6010" d="M315.376,168.817l11.389,6.582.432-2.56-11.389-6.582Z" transform="translate(-301.411 -154.559)" fill="#42e8e0"/>
      <g id="Group_2888" data-name="Group 2888" transform="translate(24.434 49.805)">
        <path id="Path_6011" data-name="Path 6011" d="M325.261,193.935l11.389,6.583.432-2.56-11.389-6.583Z" transform="translate(-319.401 -187.988)" fill="#42e8e0"/>
        <path id="Path_6012" data-name="Path 6012" d="M321.713,191.885l3.607,2.085.432-2.56-3.607-2.085Z" transform="translate(-321.713 -189.325)" fill="#42e8e0"/>
      </g>
      <path id="Path_6013" data-name="Path 6013" d="M326.411,186.845l11.389,6.583.432-2.56-11.389-6.583Z" transform="translate(-294.217 -142.806)" fill="#42e8e0"/>
      <path id="Path_6014" data-name="Path 6014" d="M322.864,184.795l3.607,2.085.432-2.56-3.607-2.085Z" transform="translate(-296.529 -144.143)" fill="#42e8e0"/>
      <path id="Path_6015" data-name="Path 6015" d="M328.81,228.416l-21.455-12.4-.432,2.56,21.455,12.4Z" transform="translate(-306.923 -122.117)" fill="#42e8e0"/>
      <path id="Path_6016" data-name="Path 6016" d="M327.014,227.379l-5.308-3.068-.432,2.56,5.309,3.068Z" transform="translate(-297.566 -116.71)" fill="#42e8e0"/>
      <path id="Path_6017" data-name="Path 6017" d="M356.209,232.568l-21.455-12.4-.432,2.56,21.455,12.4Z" transform="translate(-289.059 -119.411)" fill="#42e8e0"/>
      <path id="Path_6018" data-name="Path 6018" d="M354.414,231.53l-5.309-3.068-.432,2.56,5.308,3.068Z" transform="translate(-279.702 -114.003)" fill="#42e8e0"/>
      <path id="Path_6019" data-name="Path 6019" d="M313.766,215.836l-5.813-3.36-.432,2.56,5.813,3.36Z" transform="translate(-306.533 -124.426)" fill="#42e8e0"/>
      <path id="Path_6020" data-name="Path 6020" d="M335.173,220.428l-5.813-3.36-.432,2.56,5.813,3.36Z" transform="translate(-292.575 -121.432)" fill="#42e8e0"/>
      <path id="Path_6021" data-name="Path 6021" d="M324.224,221.88,312.835,215.3l-.432,2.56,11.389,6.583Z" transform="translate(-303.35 -122.586)" fill="#42e8e0"/>
      <path id="Path_6022" data-name="Path 6022" d="M324.7,222.155l-3.607-2.085-.432,2.56,3.607,2.085Z" transform="translate(-297.966 -119.474)" fill="#42e8e0"/>
      <path id="Path_6023" data-name="Path 6023" d="M336.092,228.732,324.7,222.149l-.432,2.56,11.389,6.583Z" transform="translate(-295.612 -118.119)" fill="#42e8e0"/>
      <path id="Path_6024" data-name="Path 6024" d="M336.568,229.007l-3.607-2.085-.432,2.56,3.607,2.085Z" transform="translate(-290.228 -115.007)" fill="#42e8e0"/>
      <path id="Path_6025" data-name="Path 6025" d="M334.575,223.97l-5.813-3.36-.432,2.56,5.813,3.359Z" transform="translate(-292.965 -119.123)" fill="#42e8e0"/>
      <path id="Path_6026" data-name="Path 6026" d="M345.034,230.014l-11.389-6.582-.432,2.56,11.389,6.582Z" transform="translate(-289.782 -117.283)" fill="#42e8e0"/>
      <path id="Path_6027" data-name="Path 6027" d="M345.51,230.289,341.9,228.2l-.432,2.56,3.607,2.085Z" transform="translate(-284.398 -114.171)" fill="#42e8e0"/>
      <path id="Path_6028" data-name="Path 6028" d="M320.444,215.81l-11.893-6.874-.432,2.56,11.893,6.874Z" transform="translate(-306.143 -126.734)" fill="#42e8e0"/>
      <path id="Path_6029" data-name="Path 6029" d="M325.714,218.856l-8.6-4.971-.432,2.56,8.6,4.971Z" transform="translate(-300.56 -123.507)" fill="#42e8e0"/>
      <path id="Path_6030" data-name="Path 6030" d="M329.5,221.042l-5.813-3.36-.432,2.56,5.813,3.36Z" transform="translate(-296.277 -121.031)" fill="#42e8e0"/>
      <path id="Path_6031" data-name="Path 6031" d="M366.021,238.223l-11.893-6.874-.432,2.56,11.893,6.874Z" transform="translate(-276.428 -112.121)" fill="#42e8e0"/>
      <path id="Path_6032" data-name="Path 6032" d="M358.345,189.741l11.893,6.874.432-2.56-11.893-6.874Z" transform="translate(-273.397 -140.917)" fill="#42e8e0"/>
      <path id="Path_6033" data-name="Path 6033" d="M351.775,185.944l8.6,4.971.432-2.56-8.6-4.971Z" transform="translate(-277.68 -143.393)" fill="#42e8e0"/>
      <path id="Path_6034" data-name="Path 6034" d="M346.892,183.123l5.813,3.36.432-2.56-5.813-3.36Z" transform="translate(-280.863 -145.233)" fill="#42e8e0"/>
      <path id="Path_6035" data-name="Path 6035" d="M355.955,184.46l11.893,6.874.432-2.56L356.387,181.9Z" transform="translate(-274.955 -144.361)" fill="#42e8e0"/>
      <path id="Path_6036" data-name="Path 6036" d="M349.385,180.663l8.6,4.971.432-2.56-8.6-4.971Z" transform="translate(-279.238 -146.836)" fill="#42e8e0"/>
      <path id="Path_6037" data-name="Path 6037" d="M344.5,177.841l5.813,3.36.432-2.56-5.813-3.36Z" transform="translate(-282.421 -148.676)" fill="#42e8e0"/>
      <path id="Path_6038" data-name="Path 6038" d="M326.886,191.008l4.017,2.322.432-2.56-4.017-2.322Z" transform="translate(-293.907 -140.092)" fill="#42e8e0"/>
      <path id="Path_6039" data-name="Path 6039" d="M322.308,188.362l5.309,3.068.432-2.56-5.308-3.068Z" transform="translate(-296.891 -141.817)" fill="#42e8e0"/>
      <path id="Path_6040" data-name="Path 6040" d="M321.088,212.29,309.2,205.417l-.432,2.56,11.893,6.874Z" transform="translate(-305.723 -129.028)" fill="#42e8e0"/>
      <path id="Path_6041" data-name="Path 6041" d="M326.359,215.337l-8.6-4.971-.432,2.56,8.6,4.971Z" transform="translate(-300.14 -125.802)" fill="#42e8e0"/>
      <path id="Path_6042" data-name="Path 6042" d="M330.141,217.522l-5.813-3.36-.432,2.56,5.813,3.36Z" transform="translate(-295.857 -123.326)" fill="#42e8e0"/>
      <path id="Path_6043" data-name="Path 6043" d="M313.81,204.2l-4.017-2.322-.432,2.56,4.017,2.322Z" transform="translate(-305.333 -131.336)" fill="#42e8e0"/>
      <path id="Path_6044" data-name="Path 6044" d="M318.9,207.138l-5.308-3.068-.432,2.56,5.308,3.068Z" transform="translate(-302.858 -129.906)" fill="#42e8e0"/>
      <path id="Path_6045" data-name="Path 6045" d="M326.719,211.659l-8.553-4.943-.432,2.56,8.553,4.943Z" transform="translate(-299.874 -128.181)" fill="#42e8e0"/>
      <path id="Path_6046" data-name="Path 6046" d="M330.194,181.246l4.017,2.322.432-2.56-4.017-2.322Z" transform="translate(-291.75 -146.456)" fill="#42e8e0"/>
      <path id="Path_6047" data-name="Path 6047" d="M325.616,178.6l5.309,3.068.432-2.56-5.309-3.068Z" transform="translate(-294.735 -148.181)" fill="#42e8e0"/>
      <path id="Path_6048" data-name="Path 6048" d="M319.075,174.82l8.553,4.943.432-2.56-8.553-4.943Z" transform="translate(-298.999 -150.646)" fill="#42e8e0"/>
      <path id="Path_6049" data-name="Path 6049" d="M333.9,186.994l8.553,4.943.433-2.56-8.553-4.943Z" transform="translate(-289.336 -142.709)" fill="#42e8e0"/>
      <path id="Path_6050" data-name="Path 6050" d="M325.429,182.377l11.529,6.664.432-2.56-11.529-6.663Z" transform="translate(-294.857 -145.719)" fill="#42e8e0"/>
      <path id="Path_6051" data-name="Path 6051" d="M321.882,180.327l3.607,2.085.432-2.56-3.607-2.085Z" transform="translate(-297.17 -147.055)" fill="#42e8e0"/>
      <path id="Path_6052" data-name="Path 6052" d="M318.477,178.359l3.607,2.085.432-2.56L318.91,175.8Z" transform="translate(-299.389 -148.338)" fill="#42e8e0"/>
      <g id="Group_2890" data-name="Group 2890" transform="translate(5.022 56.085)">
        <path id="Path_6053" data-name="Path 6053" d="M318.945,198.364l11.389,6.582.432-2.56L319.378,195.8Z" transform="translate(-304.106 -191.38)" fill="#42e8e0"/>
        <path id="Path_6054" data-name="Path 6054" d="M315.4,196.314l3.607,2.085.432-2.56-3.607-2.085Z" transform="translate(-306.419 -192.717)" fill="#42e8e0"/>
        <path id="Path_6055" data-name="Path 6055" d="M319.42,202.527l4.017,2.321.432-2.56-4.017-2.321Z" transform="translate(-303.797 -188.666)" fill="#42e8e0"/>
        <path id="Path_6056" data-name="Path 6056" d="M328,199.691l4.017,2.322.432-2.56-4.017-2.322Z" transform="translate(-298.2 -190.515)" fill="#42e8e0"/>
        <path id="Path_6057" data-name="Path 6057" d="M331.471,201.692l9.639,5.567.432-2.56-9.639-5.567Z" transform="translate(-295.94 -189.211)" fill="#42e8e0"/>
        <path id="Path_6058" data-name="Path 6058" d="M338.341,205.657l5.733,3.313.432-2.56-5.733-3.313Z" transform="translate(-291.461 -186.625)" fill="#42e8e0"/>
        <path id="Path_6059" data-name="Path 6059" d="M314.842,199.882l5.309,3.068.432-2.56-5.309-3.068Z" transform="translate(-306.781 -190.391)" fill="#42e8e0"/>
        <g id="Group_2889" data-name="Group 2889" transform="translate(0 8.569)">
          <path id="Path_6060" data-name="Path 6060" d="M314.54,203.519l4.017,2.322.432-2.56-4.017-2.322Z" transform="translate(-306.978 -196.589)" fill="#42e8e0"/>
          <path id="Path_6061" data-name="Path 6061" d="M309.962,200.874l5.309,3.068.432-2.56-5.309-3.068Z" transform="translate(-309.962 -198.313)" fill="#42e8e0"/>
        </g>
        <path id="Path_6062" data-name="Path 6062" d="M324.476,197.654l3.607,2.085.432-2.56-3.607-2.085Z" transform="translate(-300.5 -191.843)" fill="#42e8e0"/>
        <path id="Path_6063" data-name="Path 6063" d="M321.072,195.686l3.608,2.085.432-2.56-3.608-2.085Z" transform="translate(-302.72 -193.126)" fill="#42e8e0"/>
      </g>
      <path id="Path_6064" data-name="Path 6064" d="M337.844,177.893l12.3,7.112.432-2.56-12.3-7.111Z" transform="translate(-286.762 -148.642)" fill="#42e8e0"/>
      <path id="Path_6065" data-name="Path 6065" d="M329.5,173.072l11.529,6.664.433-2.56-11.529-6.663Z" transform="translate(-292.201 -151.785)" fill="#42e8e0"/>
      <path id="Path_6066" data-name="Path 6066" d="M325.955,171.022l3.607,2.085.432-2.56-3.607-2.085Z" transform="translate(-294.514 -153.122)" fill="#42e8e0"/>
      <path id="Path_6067" data-name="Path 6067" d="M322.55,169.054l3.608,2.085.432-2.56-3.607-2.085Z" transform="translate(-296.734 -154.405)" fill="#42e8e0"/>
      <path id="Path_6068" data-name="Path 6068" d="M323.761,169.754l-7.783-4.5.432-2.56,7.783,4.5Z" transform="translate(-301.019 -156.881)" fill="#42e8e0"/>
    </g>
  </g>
</svg>
