<svg xmlns="http://www.w3.org/2000/svg" xmlns:xlink="http://www.w3.org/1999/xlink" width="559.135" height="556.758" viewBox="0 0 559.135 556.758">
  <defs>
    <linearGradient id="linear-gradient" x1="-7.93" y1="13.745" x2="-6.725" y2="12.766" gradientUnits="objectBoundingBox">
      <stop offset="0" stop-color="#5761d7"/>
      <stop offset="0.178" stop-color="#5b65d8"/>
      <stop offset="0.388" stop-color="#6a72de"/>
      <stop offset="0.613" stop-color="#8188e8"/>
      <stop offset="0.849" stop-color="#a2a6f5"/>
      <stop offset="1" stop-color="#bcbeff"/>
    </linearGradient>
    <linearGradient id="linear-gradient-2" x1="549.284" y1="65.891" x2="549.284" y2="65.313" gradientUnits="objectBoundingBox">
      <stop offset="0" stop-color="#c0bff6"/>
      <stop offset="0.294" stop-color="#c4c3f6"/>
      <stop offset="0.64" stop-color="#d2d2f9"/>
      <stop offset="1" stop-color="#e9e9fd"/>
    </linearGradient>
    <linearGradient id="linear-gradient-3" x1="9.741" y1="19.978" x2="9.741" y2="18.798" xlink:href="#linear-gradient-2"/>
    <radialGradient id="radial-gradient" cx="0.491" cy="0.516" r="0.831" gradientTransform="translate(0.207 16.48) scale(0.578 0.555)" gradientUnits="objectBoundingBox">
      <stop offset="0" stop-color="#42e8e0"/>
      <stop offset="0.121" stop-color="#39bdc0"/>
      <stop offset="0.284" stop-color="#2e899a"/>
      <stop offset="0.445" stop-color="#255e7a"/>
      <stop offset="0.6" stop-color="#1e3d61"/>
      <stop offset="0.748" stop-color="#192550"/>
      <stop offset="0.885" stop-color="#171645"/>
      <stop offset="1" stop-color="#161242"/>
    </radialGradient>
    <radialGradient id="radial-gradient-2" cx="3.229" cy="-0.407" r="2.886" gradientTransform="translate(-6.794 3.912) rotate(26.559)" gradientUnits="objectBoundingBox">
      <stop offset="0" stop-color="#c0bff6"/>
      <stop offset="1" stop-color="#393091"/>
    </radialGradient>
    <radialGradient id="radial-gradient-3" cx="0.795" cy="0.331" r="0.735" gradientTransform="translate(-1.439 -0.544) scale(1.169 1.361)" xlink:href="#radial-gradient-2"/>
    <linearGradient id="linear-gradient-4" x1="8.126" y1="2.139" x2="8.126" y2="1.195" gradientUnits="objectBoundingBox">
      <stop offset="0" stop-color="#42e8e0"/>
      <stop offset="0.005" stop-color="#41e6df"/>
      <stop offset="0.136" stop-color="#3fb6ca"/>
      <stop offset="0.271" stop-color="#3d8cb8"/>
      <stop offset="0.407" stop-color="#3b6baa"/>
      <stop offset="0.547" stop-color="#3a519f"/>
      <stop offset="0.689" stop-color="#393e97"/>
      <stop offset="0.837" stop-color="#393392"/>
      <stop offset="1" stop-color="#393091"/>
    </linearGradient>
    <radialGradient id="radial-gradient-4" cx="0.076" cy="-0.908" r="1.455" gradientTransform="translate(-0.112) scale(1.224 1)" xlink:href="#radial-gradient-2"/>
    <radialGradient id="radial-gradient-5" cx="0.645" cy="0.786" r="0.845" gradientTransform="matrix(0.234, 0.972, -0.972, 0.234, 1.036, -0.463)" xlink:href="#radial-gradient-2"/>
    <linearGradient id="linear-gradient-5" x1="0.43" y1="0.995" x2="0.57" y2="0.005" xlink:href="#linear-gradient-4"/>
    <radialGradient id="radial-gradient-6" cx="0.475" cy="-0.033" r="0.984" gradientTransform="translate(-0.112) scale(1.224 1)" xlink:href="#radial-gradient-2"/>
    <linearGradient id="linear-gradient-6" x1="0.232" y1="0.951" x2="0.656" y2="0" xlink:href="#linear-gradient-4"/>
    <linearGradient id="linear-gradient-7" x1="0.5" y1="1" x2="0.5" gradientUnits="objectBoundingBox">
      <stop offset="0" stop-color="#42e8e0"/>
      <stop offset="0.121" stop-color="#39bdc0"/>
      <stop offset="0.284" stop-color="#2e899a"/>
      <stop offset="0.445" stop-color="#255e7a"/>
      <stop offset="0.6" stop-color="#1e3d61"/>
      <stop offset="0.748" stop-color="#192550"/>
      <stop offset="0.885" stop-color="#171645" stop-opacity="0.302"/>
      <stop offset="1" stop-color="#161242" stop-opacity="0"/>
    </linearGradient>
    <radialGradient id="radial-gradient-7" cx="0.796" cy="0.174" r="1.043" gradientTransform="translate(-2.455 2.391) rotate(11.198)" xlink:href="#radial-gradient-2"/>
    <linearGradient id="linear-gradient-8" x1="-13.988" y1="-10.584" x2="-13.309" y2="-11.318" xlink:href="#linear-gradient-4"/>
    <radialGradient id="radial-gradient-8" cx="1.181" cy="0.067" r="0.779" gradientTransform="matrix(1.624, 0.118, -0.319, 1.636, -14.853, 37.215)" xlink:href="#radial-gradient-2"/>
    <linearGradient id="linear-gradient-9" x1="-6.843" y1="2.658" x2="-5.759" y2="2.658" xlink:href="#linear-gradient-4"/>
    <radialGradient id="radial-gradient-9" cx="1.351" cy="0.098" r="1.105" gradientTransform="matrix(0.366, 0.877, -1.1, 0.792, -165.583, 62.193)" xlink:href="#radial-gradient-2"/>
    <linearGradient id="linear-gradient-10" x1="-93.717" y1="-16.39" x2="-94.147" y2="-15.637" xlink:href="#linear-gradient-4"/>
    <linearGradient id="linear-gradient-11" x1="0.5" y1="1" x2="0.5" gradientUnits="objectBoundingBox">
      <stop offset="0" stop-color="#161242"/>
      <stop offset="0.115" stop-color="#171645"/>
      <stop offset="0.252" stop-color="#192550"/>
      <stop offset="0.4" stop-color="#1e3d61"/>
      <stop offset="0.555" stop-color="#255e7a"/>
      <stop offset="0.716" stop-color="#2e899a"/>
      <stop offset="0.879" stop-color="#39bdc0"/>
      <stop offset="1" stop-color="#42e8e0"/>
    </linearGradient>
  </defs>
  <g id="Group_1975" data-name="Group 1975" transform="translate(-136.275 -42.496)">
    <g id="Group_1949" data-name="Group 1949" transform="translate(136.275 264.073)">
      <g id="Group_1948" data-name="Group 1948">
        <g id="Group_1947" data-name="Group 1947">
          <g id="Group_1946" data-name="Group 1946">
            <path id="Path_3166" data-name="Path 3166" d="M136.276,387.28l.056,12.226.031-.016a3.038,3.038,0,0,0,1.738,2.461l174.386,100.4c2.622,1.511,7.2,1.315,10.222-.436L692.915,287.594c1.667-.965,2.481-2.2,2.466-3.367l.03.016-.054-12.213-19.3,10.658-156.8-90.281c-2.622-1.509-7.2-1.315-10.224.436L154.545,398.069c.907-1,1.563-1.733,1.567-1.787C156.123,396.1,136.276,387.28,136.276,387.28Z" transform="translate(-136.275 -168.191)" fill="url(#linear-gradient)"/>
            <path id="Path_3167" data-name="Path 3167" d="M252.021,401.918l-.072-49.68-7.958-4.582.079,54.5A11.818,11.818,0,0,0,252.021,401.918Z" transform="translate(-66.912 -67.564)" fill="url(#linear-gradient-2)"/>
            <path id="Path_3168" data-name="Path 3168" d="M519.2,178.295,693.589,278.7c2.622,1.511,2.3,4.154-.727,5.905L322.657,498.931c-3.023,1.751-7.6,1.946-10.222.436l-174.386-100.4c-2.624-1.509-2.3-4.153.727-5.9l370.2-214.327C512,176.98,516.581,176.786,519.2,178.295Z" transform="translate(-136.275 -177.279)" fill="url(#linear-gradient-3)"/>
            <path id="Path_3169" data-name="Path 3169" d="M312.426,458.872,138.04,358.467c-1.56-.9-2.053-2.2-1.58-3.47a3.316,3.316,0,0,0,1.675,1.956l174.386,100.4c2.622,1.511,7.2,1.315,10.222-.436L692.95,242.6a5,5,0,0,0,2.306-2.433c.355,1.325-.455,2.819-2.4,3.945L322.648,458.436C319.625,460.187,315.048,460.382,312.426,458.872Z" transform="translate(-136.267 -136.784)" fill="#fff"/>
            <path id="Path_3170" data-name="Path 3170" d="M481.868,184.775,665.751,290.648,333.1,483.233,149.218,377.36Z" transform="translate(-127.941 -172.452)" fill="#24126a"/>
            <path id="Path_3171" data-name="Path 3171" d="M481.868,184.775,665.751,290.648,333.1,483.233,149.218,377.36Z" transform="translate(-127.941 -172.452)" fill="#24126a"/>
            <path id="Path_3172" data-name="Path 3172" d="M481.868,184.775,665.751,290.648,333.1,483.233,149.218,377.36Z" transform="translate(-127.941 -172.452)" opacity="0.5" fill="url(#radial-gradient)" style="mix-blend-mode: lighten;isolation: isolate"/>
            <path id="Path_3173" data-name="Path 3173" d="M193.316,332.394l33.321,19.119c.97.559,1.529,1.19.919,1.956a3.092,3.092,0,0,1-.875.723h0a5.626,5.626,0,0,1-5.062.215l-33.614-19.353c-.1-.059-.252-.084-.278-.186-.275-1.064-.186-1.318,1.2-2.117l.462-.1C190.881,331.791,192.017,331.646,193.316,332.394Z" transform="translate(-103.222 -77.703)" fill="#5761d7"/>
            <path id="Path_3174" data-name="Path 3174" d="M187.918,335.053a3.071,3.071,0,0,1,.871-.72,5.627,5.627,0,0,1,5.06-.215l33.614,19.354a2.349,2.349,0,0,1,.271.2,1.368,1.368,0,0,0-.513-2.2l-33.614-19.354a5.622,5.622,0,0,0-5.06.215C187.172,333.125,186.94,334.289,187.918,335.053Z" transform="translate(-103.404 -77.897)" fill="#bcbeff"/>
          </g>
        </g>
      </g>
    </g>
    <g id="Group_1952" data-name="Group 1952" transform="translate(256.54 444.66)">
      <g id="Group_1951" data-name="Group 1951">
        <g id="Group_1950" data-name="Group 1950">
          <path id="Path_3175" data-name="Path 3175" d="M222.923,298.915l-12.058-6.962c-1.912-1.1-1.912-2.893,0-4h0a7.658,7.658,0,0,1,6.924,0l12.058,6.962c1.912,1.1,1.912,2.9,0,4h0A7.648,7.648,0,0,1,222.923,298.915Z" transform="translate(-209.431 -287.128)" fill="#42e8e0" opacity="0.2"/>
          <path id="Path_3176" data-name="Path 3176" d="M238.1,307.678l-12.058-6.962c-1.912-1.1-1.912-2.893,0-4h0a7.648,7.648,0,0,1,6.924,0l12.058,6.961c1.912,1.1,1.912,2.9,0,4h0A7.648,7.648,0,0,1,238.1,307.678Z" transform="translate(-199.657 -281.485)" fill="#42e8e0" opacity="0.6"/>
          <path id="Path_3177" data-name="Path 3177" d="M253.279,316.441l-12.058-6.961c-1.912-1.1-1.912-2.895,0-4h0a7.648,7.648,0,0,1,6.924,0l12.058,6.961c1.912,1.1,1.912,2.9,0,4h0A7.648,7.648,0,0,1,253.279,316.441Z" transform="translate(-189.883 -275.842)" fill="#42e8e0"/>
          <path id="Path_3178" data-name="Path 3178" d="M268.457,325.2,256.4,318.244c-1.912-1.1-1.912-2.9,0-4h0a7.648,7.648,0,0,1,6.924,0l12.058,6.962c1.912,1.1,1.912,2.893,0,4h0A7.648,7.648,0,0,1,268.457,325.2Z" transform="translate(-180.109 -270.199)" fill="#42e8e0" opacity="0.6"/>
          <path id="Path_3179" data-name="Path 3179" d="M283.637,333.969l-12.058-6.962c-1.914-1.1-1.914-2.895,0-4h0a7.648,7.648,0,0,1,6.924,0l12.058,6.962c1.912,1.1,1.912,2.893,0,4h0A7.658,7.658,0,0,1,283.637,333.969Z" transform="translate(-170.335 -264.556)" fill="#42e8e0" opacity="0.2"/>
        </g>
      </g>
    </g>
    <g id="Group_1974" data-name="Group 1974" transform="translate(213.577 42.496)">
      <g id="Group_1953" data-name="Group 1953" transform="translate(95.365 324.177)">
        <ellipse id="Ellipse_297" data-name="Ellipse 297" cx="101.656" cy="58.691" rx="101.656" ry="58.691" fill="#42e8e0" opacity="0.2"/>
        <ellipse id="Ellipse_298" data-name="Ellipse 298" cx="57.67" cy="33.296" rx="57.67" ry="33.296" transform="translate(43.986 25.395)" fill="#42e8e0"/>
      </g>
      <g id="Group_1954" data-name="Group 1954" transform="translate(0 118.095)" opacity="0.3">
        <path id="Path_3180" data-name="Path 3180" d="M382.833,161.04c1.263,7.146,6.563,25.1,28.429,37.527,31.127,14.375,52.687,33.269,59.911,54.366a48.882,48.882,0,0,0,1.879,4.544c.774-1.277.774-1.277.779-4.371V217.684c-.015-20.8-1.18-25.383-2.658-31.187-7.224-21.1-28.784-39.993-59.911-54.366-24.832-8.016-30.842,15.266-28.429,28.909Z" transform="translate(-55.121 -103.925)" fill="#42e8e0"/>
        <path id="Path_3181" data-name="Path 3181" d="M255.573,128.947c32.955-9.56,71.939-14.942,113.55-14.6q8.234.067,16.3.427c36.537,3.337,49.531,41.923,27.5,58.8-10.112,7.748-22.3,7.667-27.5,7.633q-8.066-.36-16.3-.429c-41.61-.34-80.6,5.042-113.55,14.6-33.274,8.1-35.24-25.71-23.6-46.394,3.914-6.956,11.185-16.08,23.6-20.043Z" transform="translate(-156.114 -114.332)" fill="#42e8e0"/>
        <path id="Path_3182" data-name="Path 3182" d="M183.3,255.189c.907-10.531,1.624-18.848,12.346-33.364,22.6-33.351,18.038-72.112,5.552-70.322-2.012.289-4.1,2.458-5.552,3.885-7.589,9.888-11.9,20.521-12.313,31.615-.021.585-.033,1.167-.033,1.749v66.437Z" transform="translate(-183.297 -90.433)" fill="#42e8e0"/>
      </g>
      <g id="Group_1971" data-name="Group 1971" transform="translate(32.952)">
        <rect id="Rectangle_125" data-name="Rectangle 125" width="7.763" height="66.264" transform="matrix(0.927, -0.375, 0.375, 0.927, 231.329, 293.942)" fill="#42e8e0"/>
        <g id="Group_1970" data-name="Group 1970" transform="translate(62.414)">
          <g id="Group_1956" data-name="Group 1956" transform="translate(9.735 232.77)">
            <g id="Group_1955" data-name="Group 1955">
              <circle id="Ellipse_299" data-name="Ellipse 299" cx="24.119" cy="24.119" r="24.119" transform="translate(0 12.779) rotate(-15.362)" fill="url(#radial-gradient-2)"/>
            </g>
          </g>
          <g id="Group_1958" data-name="Group 1958" transform="translate(39.383 237.244)">
            <g id="Group_1957" data-name="Group 1957">
              <path id="Path_3183" data-name="Path 3183" d="M389.809,247.658c0,46.82-27.88,84.774-62.273,84.774s-62.273-37.954-62.273-84.774,27.88-60.849,62.273-60.849S389.809,200.84,389.809,247.658Z" transform="translate(-265.263 -186.809)" fill="url(#radial-gradient-3)"/>
            </g>
          </g>
          <g id="Group_1960" data-name="Group 1960" transform="translate(39.383 237.244)" style="mix-blend-mode: lighten;isolation: isolate">
            <g id="Group_1959" data-name="Group 1959">
              <path id="Path_3184" data-name="Path 3184" d="M389.809,247.658c0,46.82-27.88,84.774-62.273,84.774s-62.273-37.954-62.273-84.774,27.88-60.849,62.273-60.849S389.809,200.84,389.809,247.658Z" transform="translate(-265.263 -186.809)" fill="url(#linear-gradient-4)"/>
            </g>
          </g>
          <ellipse id="Ellipse_300" data-name="Ellipse 300" cx="42.501" cy="24.538" rx="42.501" ry="24.538" transform="translate(59.155 237.879)" fill="#393091"/>
          <path id="Path_3185" data-name="Path 3185" d="M289.735,200.919c16.6-9.583,43.507-9.583,60.1,0,6.857,3.959,10.872,8.933,12.065,14.082,1.693-7.319-2.321-14.995-12.065-20.618-16.6-9.583-43.507-9.583-60.1,0-9.742,5.624-13.757,13.3-12.063,20.618C278.865,209.85,282.88,204.876,289.735,200.919Z" transform="translate(-218.132 50.684)" fill="#453c9e"/>
          <path id="Path_3186" data-name="Path 3186" d="M279.908,186.941l7.689-13.247a42.878,42.878,0,0,0,9.974-17.184l7.786-13.416-11.2-6.43a8.632,8.632,0,0,0-1.123-.644l-.007,0h0c-3.184-1.508-7.418-1.1-12.062,1.577-9.9,5.716-17.926,19.617-17.926,31.048,0,5.713,2,9.727,5.246,11.6h0l0,0v0Z" transform="translate(-227.311 17.166)" fill="url(#radial-gradient-4)"/>
          <ellipse id="Ellipse_301" data-name="Ellipse 301" cx="25.351" cy="14.636" rx="25.351" ry="14.636" transform="translate(39.838 196.741) rotate(-59.999)" fill="#bcbeff"/>
          <g id="Group_1962" data-name="Group 1962" transform="translate(27.533 127.256)">
            <g id="Group_1961" data-name="Group 1961">
              <circle id="Ellipse_302" data-name="Ellipse 302" cx="63.513" cy="63.513" r="63.513" transform="translate(0 123.511) rotate(-76.49)" fill="url(#radial-gradient-5)"/>
            </g>
          </g>
          <g id="Group_1964" data-name="Group 1964" transform="translate(27.533 127.256)" style="mix-blend-mode: lighten;isolation: isolate">
            <g id="Group_1963" data-name="Group 1963">
              <circle id="Ellipse_303" data-name="Ellipse 303" cx="63.513" cy="63.513" r="63.513" transform="translate(0 123.511) rotate(-76.49)" fill="url(#linear-gradient-5)"/>
            </g>
          </g>
          <path id="Path_3187" data-name="Path 3187" d="M332.874,212.912l7.689-13.247a42.874,42.874,0,0,0,9.972-17.184l7.787-13.416-11.2-6.43A8.465,8.465,0,0,0,346,161.99l-.007,0v0c-3.184-1.507-7.416-1.1-12.06,1.577-9.9,5.716-17.927,19.617-17.927,31.048,0,5.713,2.006,9.727,5.246,11.6h0l0,0h0Z" transform="translate(-193.205 33.89)" fill="url(#radial-gradient-6)"/>
          <path id="Path_3188" data-name="Path 3188" d="M332.874,212.912l7.689-13.247a42.874,42.874,0,0,0,9.972-17.184l7.787-13.416-11.2-6.43A8.465,8.465,0,0,0,346,161.99l-.007,0v0c-3.184-1.507-7.416-1.1-12.06,1.577-9.9,5.716-17.927,19.617-17.927,31.048,0,5.713,2.006,9.727,5.246,11.6h0l0,0h0Z" transform="translate(-193.205 33.89)" fill="url(#linear-gradient-6)" style="mix-blend-mode: lighten;isolation: isolate"/>
          <path id="Path_3189" data-name="Path 3189" d="M241.307,42.5V425.364h0c0,15.021,9.926,30.04,29.775,41.5,39.7,22.92,104.064,22.92,143.764,0,19.734-11.394,29.649-26.307,29.762-41.24h.01V42.5Z" transform="translate(-241.307 -42.496)" opacity="0.5" fill="url(#linear-gradient-7)" style="mix-blend-mode: lighten;isolation: isolate"/>
          <ellipse id="Ellipse_304" data-name="Ellipse 304" cx="25.351" cy="14.636" rx="25.351" ry="14.636" transform="translate(126.909 239.436) rotate(-59.999)" fill="#bcbeff"/>
          <path id="Path_3190" data-name="Path 3190" d="M323.845,198.8c0-11.43,8.026-25.332,17.926-31.048,3.429-1.981,6.635-2.716,9.359-2.359-2.893-.639-6.4.028-10.183,2.213-9.9,5.716-17.926,19.616-17.926,31.048,0,7.47,3.428,12.035,8.567,12.708C326.911,210.328,323.845,205.865,323.845,198.8Z" transform="translate(-188.687 36.496)" fill="#fff"/>
          <path id="Path_3191" data-name="Path 3191" d="M351.757,178.322c0,8.172-5.736,18.108-12.813,22.193s-12.813.774-12.813-7.4,5.736-18.107,12.813-22.192S351.757,170.151,351.757,178.322Z" transform="translate(-186.684 39.08)" fill="#393091"/>
          <path id="Path_3192" data-name="Path 3192" d="M345.483,169.29a10.507,10.507,0,0,1,2.1,6.9c0,8.172-5.736,18.108-12.813,22.193-2.74,1.583-5.279,2.05-7.362,1.562,2.29,2.7,6.232,3.084,10.714.5,7.077-4.085,12.813-14.021,12.813-22.193C350.935,173.242,348.779,170.064,345.483,169.29Z" transform="translate(-185.862 39.154)" fill="#453c9e"/>
          <g id="Group_1965" data-name="Group 1965" transform="translate(47.838 193.555)">
            <path id="Path_3193" data-name="Path 3193" d="M306.879,200.61c-1.623,12.489-11.049,16.413-21.054,8.762s-16.8-23.977-15.179-36.466,11.049-16.413,21.054-8.764S308.5,188.119,306.879,200.61Z" transform="translate(-270.406 -160.234)" fill="#393091"/>
            <path id="Path_3194" data-name="Path 3194" d="M292.758,183.964c-.59,4.539-4.016,5.964-7.653,3.184a15.863,15.863,0,0,1-5.515-13.254c.589-4.539,4.015-5.964,7.651-3.184A15.865,15.865,0,0,1,292.758,183.964Z" transform="translate(-264.548 -154.402)" fill="#42e8e0"/>
            <path id="Path_3195" data-name="Path 3195" d="M290.628,207.532c-10.005-7.651-16.8-23.977-15.179-36.468.661-5.091,2.62-8.759,5.386-10.8-5.229.492-9.191,4.929-10.189,12.621-1.623,12.489,5.172,28.817,15.179,36.466,5.926,4.532,11.649,5,15.669,2.037C298.23,211.7,294.472,210.471,290.628,207.532Z" transform="translate(-270.406 -160.213)" fill="#453c9e"/>
            <path id="Path_3196" data-name="Path 3196" d="M286.686,208.68c-10.007-7.651-16.8-23.977-15.18-36.468.751-5.782,3.178-9.722,6.558-11.534-3.827,1.575-6.605,5.678-7.418,11.942-1.623,12.489,5.172,28.817,15.179,36.466,5.371,4.108,10.571,4.868,14.491,2.768C296.512,213.419,291.672,212.492,286.686,208.68Z" transform="translate(-270.406 -159.947)" fill="#42e8e0"/>
          </g>
          <g id="Group_1967" data-name="Group 1967" transform="translate(148.388 268.362)">
            <g id="Group_1966" data-name="Group 1966">
              <path id="Path_3197" data-name="Path 3197" d="M379.353,234.545A24.119,24.119,0,1,1,360.379,206.2,24.119,24.119,0,0,1,379.353,234.545Z" transform="translate(-331.57 -205.738)" fill="url(#radial-gradient-7)"/>
            </g>
          </g>
          <g id="Group_1969" data-name="Group 1969" transform="translate(148.388 268.362)" style="mix-blend-mode: lighten;isolation: isolate">
            <g id="Group_1968" data-name="Group 1968">
              <path id="Path_3198" data-name="Path 3198" d="M379.353,234.545A24.119,24.119,0,1,1,360.379,206.2,24.119,24.119,0,0,1,379.353,234.545Z" transform="translate(-331.57 -205.738)" fill="url(#linear-gradient-8)"/>
            </g>
          </g>
        </g>
        <path id="Path_3199" data-name="Path 3199" d="M382.728,277.963c-1.366,11.462-11.49,33.168-20.65,32.075S348.187,285.466,349.555,274s9.9-19.866,19.063-18.772S384.1,266.5,382.728,277.963Z" transform="translate(-109.335 94.435)" fill="url(#radial-gradient-8)"/>
        <path id="Path_3200" data-name="Path 3200" d="M382.728,277.963c-1.366,11.462-11.49,33.168-20.65,32.075S348.187,285.466,349.555,274s9.9-19.866,19.063-18.772S384.1,266.5,382.728,277.963Z" transform="translate(-109.335 94.435)" fill="url(#linear-gradient-9)" style="mix-blend-mode: lighten;isolation: isolate"/>
        <path id="Path_3201" data-name="Path 3201" d="M227.962,237.418a3.882,3.882,0,0,1-1.8-7.321l49.8-26.062a3.881,3.881,0,0,1,3.6,6.878l-49.8,26.062A3.865,3.865,0,0,1,227.962,237.418Z" transform="translate(-189.988 61.242)" fill="#42e8e0"/>
        <path id="Path_3202" data-name="Path 3202" d="M242.191,245.664c-10.12,5.548-33.668,9.926-38.1,1.836s11.924-25.585,22.045-31.133,21.921-3.488,26.356,4.6S252.313,240.116,242.191,245.664Z" transform="translate(-203.341 67.463)" fill="url(#radial-gradient-9)"/>
        <path id="Path_3203" data-name="Path 3203" d="M242.191,245.664c-10.12,5.548-33.668,9.926-38.1,1.836s11.924-25.585,22.045-31.133,21.921-3.488,26.356,4.6S252.313,240.116,242.191,245.664Z" transform="translate(-203.341 67.463)" fill="url(#linear-gradient-10)" style="mix-blend-mode: lighten;isolation: isolate"/>
      </g>
      <g id="Group_1973" data-name="Group 1973" transform="translate(0 216.414)" opacity="0.5">
        <g id="Group_1972" data-name="Group 1972">
          <path id="Path_3204" data-name="Path 3204" d="M207.634,260.05c-1.517,12.2-7.84,19.453-14.49,10.367-8.524-11.647-9.352-23.037-9.847-29.841V174.138c0,10.395,3.451,20.423,9.847,29.843,14.053,23.244,15.72,46.18,14.49,56.069Z" transform="translate(-183.297 -174.138)" fill="#42e8e0"/>
          <path id="Path_3205" data-name="Path 3205" d="M379.905,240.777q-7.866.212-15.876.148c-41.771-.342-80.472-6.4-112.77-16.569-32.263-8.619-34.212,25.139-22.953,45.991,8.019,14.847,18.868,18.914,22.953,20.444,32.3,10.166,71,16.229,112.77,16.571q8,.067,15.876-.148c37.908-2.795,47.836-39.2,30.119-56.2-4.945-4.743-14.184-10.368-30.119-10.24Z" transform="translate(-158.328 -142.689)" fill="#42e8e0"/>
          <path id="Path_3206" data-name="Path 3206" d="M476.276,213.51c-.184,28.73-1.871,33.959-4,40.579-8.881,20.951-31.909,39.458-64.144,53.282-28.222,8.327-36.016-21-24.538-42.741,7.809-14.792,19.963-21.26,24.538-23.694,32.235-13.826,55.263-32.333,64.144-53.282a34.732,34.732,0,0,1,2.438-4.5l.722-.094c.547,1.535.773,2.172.845,10.013V213.51Z" transform="translate(-57.6 -168.392)" fill="#42e8e0"/>
        </g>
      </g>
    </g>
    <path id="Path_3207" data-name="Path 3207" d="M454.6,236.406h0a3.394,3.394,0,0,1-3.395-3.395V116.92a3.4,3.4,0,0,1,3.395-3.395h0a3.394,3.394,0,0,1,3.393,3.395V233.011A3.393,3.393,0,0,1,454.6,236.406Z" transform="translate(202.8 45.74)" opacity="0.8" fill="url(#linear-gradient-11)" style="mix-blend-mode: lighten;isolation: isolate"/>
    <path id="Path_3208" data-name="Path 3208" d="M376.1,187.323h0a3.4,3.4,0,0,1-3.395-3.395V67.837a3.394,3.394,0,0,1,3.395-3.395h0a3.393,3.393,0,0,1,3.393,3.395V183.928A3.394,3.394,0,0,1,376.1,187.323Z" transform="translate(152.25 14.132)" opacity="0.8" fill="url(#linear-gradient-11)" style="mix-blend-mode: lighten;isolation: isolate"/>
    <path id="Path_3209" data-name="Path 3209" d="M214.932,250.667h0a3.4,3.4,0,0,1-3.395-3.395V131.181a3.4,3.4,0,0,1,3.395-3.395h0a3.4,3.4,0,0,1,3.395,3.395V247.272A3.4,3.4,0,0,1,214.932,250.667Z" transform="translate(48.465 54.923)" opacity="0.8" fill="url(#linear-gradient-11)" style="mix-blend-mode: lighten;isolation: isolate"/>
    <path id="Path_3210" data-name="Path 3210" d="M150.577,362.269h0a3.469,3.469,0,0,1-3.469-3.469V88.432a3.469,3.469,0,0,1,3.469-3.469h0a3.468,3.468,0,0,1,3.467,3.469V358.8A3.468,3.468,0,0,1,150.577,362.269Z" transform="translate(6.976 27.347)" opacity="0.8" fill="url(#linear-gradient-11)" style="mix-blend-mode: lighten;isolation: isolate"/>
    <path id="Path_3211" data-name="Path 3211" d="M246.221,90.485a5.069,5.069,0,1,1-5.068-5.068A5.069,5.069,0,0,1,246.221,90.485Z" transform="translate(64.272 27.639)" fill="#42e8e0"/>
    <path id="Path_3212" data-name="Path 3212" d="M366.539,55.256a7,7,0,1,1-9.9,0A7,7,0,0,1,366.539,55.256Z" transform="translate(140.586 6.897)" fill="#42e8e0"/>
    <path id="Path_3213" data-name="Path 3213" d="M361.373,157.614a3.222,3.222,0,1,1-3.222-3.222A3.223,3.223,0,0,1,361.373,157.614Z" transform="translate(140.803 72.056)" fill="#42e8e0" opacity="0.5"/>
    <path id="Path_3214" data-name="Path 3214" d="M218.086,256.4a3.222,3.222,0,1,1-3.222-3.222A3.223,3.223,0,0,1,218.086,256.4Z" transform="translate(48.533 135.669)" fill="#42e8e0" opacity="0.5"/>
    <circle id="Ellipse_305" data-name="Ellipse 305" cx="1.682" cy="1.682" r="1.682" transform="translate(326.484 262.392)" fill="#42e8e0" opacity="0.8"/>
  </g>
</svg>
