<svg xmlns="http://www.w3.org/2000/svg" width="66.943" height="60.246" viewBox="0 0 66.943 60.246">
  <g id="Group_1580" data-name="Group 1580" transform="translate(-270.234 -269.213)">
    <g id="Group_1572" data-name="Group 1572" transform="translate(270.234 269.213)">
      <path id="Path_2933" data-name="Path 2933" d="M332.755,314.4h-58.19a4.336,4.336,0,0,1-4.331-4.331V273.544a4.336,4.336,0,0,1,4.331-4.331h58.19a4.336,4.336,0,0,1,4.331,4.331v36.529A4.336,4.336,0,0,1,332.755,314.4Zm-58.19-42.681a1.823,1.823,0,0,0-1.821,1.821v36.529a1.823,1.823,0,0,0,1.821,1.821h58.19a1.823,1.823,0,0,0,1.821-1.821V273.544a1.823,1.823,0,0,0-1.821-1.821Z" transform="translate(-270.234 -269.213)" fill="#a1cc3a"/>
    </g>
    <g id="Group_1573" data-name="Group 1573" transform="translate(270.234 284.465)">
      <path id="Path_2934" data-name="Path 2934" d="M317.663,393.255H271.489a1.255,1.255,0,1,1,0-2.51h46.174a1.255,1.255,0,1,1,0,2.51Z" transform="translate(-270.234 -390.745)" fill="#a1cc3a"/>
    </g>
    <g id="Group_1574" data-name="Group 1574" transform="translate(323.041 284.465)">
      <path id="Path_2935" data-name="Path 2935" d="M703.79,393.255H692.255a1.255,1.255,0,0,1,0-2.51H703.79a1.255,1.255,0,0,1,0,2.51Z" transform="translate(-691 -390.745)" fill="#a1cc3a"/>
    </g>
    <g id="Group_1575" data-name="Group 1575" transform="translate(275.457 277.352)">
      <path id="Path_2936" data-name="Path 2936" d="M328.2,336.574H313.106a1.255,1.255,0,1,1,0-2.51H328.2a1.255,1.255,0,1,1,0,2.51Z" transform="translate(-311.851 -334.064)" fill="#a1cc3a"/>
    </g>
    <g id="Group_1576" data-name="Group 1576" transform="translate(293.321 277.352)">
      <path id="Path_2937" data-name="Path 2937" d="M461.807,336.574h-6.361a1.255,1.255,0,0,1,0-2.51h6.361a1.255,1.255,0,0,1,0,2.51Z" transform="translate(-454.191 -334.064)" fill="#a1cc3a"/>
    </g>
    <g id="Group_1577" data-name="Group 1577" transform="translate(302.835 277.352)">
      <path id="Path_2938" data-name="Path 2938" d="M537.041,336.574h-5.786a1.255,1.255,0,0,1,0-2.51h5.786a1.255,1.255,0,0,1,0,2.51Z" transform="translate(-530 -334.064)" fill="#a1cc3a"/>
    </g>
    <g id="Group_1578" data-name="Group 1578" transform="translate(317.663 306.965)">
      <path id="Path_2939" data-name="Path 2939" d="M648.149,570.021l19.514,13.362H656.8l-5.287,9.132Z" transform="translate(-648.149 -570.021)" fill="#fff"/>
    </g>
    <g id="Group_1579" data-name="Group 1579" transform="translate(289.785 293.577)">
      <path id="Path_2940" data-name="Path 2940" d="M435.841,473.1h-6.192l-1.282,2.979h-2.347l5.759-12.727h1.9l5.759,12.727h-2.311Zm-.776-1.805-2.329-5.416-2.329,5.416Z" transform="translate(-426.021 -463.348)" fill="#a1cc3a"/>
      <path id="Path_2941" data-name="Path 2941" d="M543.684,463.348h4.694a6.68,6.68,0,0,1,4.847,1.67,7.239,7.239,0,0,1,0,9.378,6.658,6.658,0,0,1-4.847,1.679h-4.694Zm4.549,10.831q4.387,0,4.387-4.477,0-4.459-4.387-4.459h-2.22v8.936Z" transform="translate(-528.917 -463.348)" fill="#a1cc3a"/>
    </g>
  </g>
</svg>
