<svg xmlns="http://www.w3.org/2000/svg" xmlns:xlink="http://www.w3.org/1999/xlink" width="386.598" height="613.859" viewBox="0 0 386.598 613.859">
  <defs>
    <clipPath id="clip-path">
      <path id="Path_1888" data-name="Path 1888" d="M350.924,543.49c0-.047,0-.092.006-.138,0,.046-.006.091-.006.138Z" transform="translate(-350.924 -543.352)" fill="none"/>
    </clipPath>
    <clipPath id="clip-path-2">
      <path id="Path_1906" data-name="Path 1906" d="M424.682,313.408c0-3.566-2.445-5.122-5.56-3.474C422.237,308.286,424.682,309.842,424.682,313.408Z" transform="translate(-419.122 -309.276)" fill="none"/>
    </clipPath>
    <clipPath id="clip-path-3">
      <path id="Path_1911" data-name="Path 1911" d="M419.617,295.413c6.5-3.417,12.278-2.344,15.08,2.812C431.895,293.07,426.114,292,419.617,295.413Z" transform="translate(-419.617 -293.44)" fill="none"/>
    </clipPath>
    <clipPath id="clip-path-4">
      <path id="Path_1915" data-name="Path 1915" d="M439.356,292.659c-3.638-6.668-11.1-8.06-19.523-3.627C428.252,284.6,435.718,285.991,439.356,292.659Z" transform="translate(-419.833 -286.471)" fill="none"/>
    </clipPath>
    <clipPath id="clip-path-5">
      <path id="Path_1920" data-name="Path 1920" d="M410.038,316.484c1.6-4.54,4.852-8.7,8.367-10.73C414.89,307.783,411.634,311.944,410.038,316.484Z" transform="translate(-410.038 -305.754)" fill="none"/>
    </clipPath>
    <clipPath id="clip-path-6">
      <path id="Path_1924" data-name="Path 1924" d="M417.687,289.754c-8.713,5.032-16.638,15.348-20.387,26.629C401.049,305.1,408.974,294.786,417.687,289.754Z" transform="translate(-397.3 -289.754)" fill="none"/>
    </clipPath>
    <clipPath id="clip-path-7">
      <path id="Path_1938" data-name="Path 1938" d="M405.2,316.131c2.471-7.029,7.493-13.45,12.921-16.583C412.7,302.682,407.676,309.1,405.2,316.131Z" transform="translate(-405.205 -299.548)" fill="none"/>
    </clipPath>
    <clipPath id="clip-path-8">
      <path id="Path_1962" data-name="Path 1962" d="M501.548,343.01a11.255,11.255,0,0,0,5.1-8.843l8.133,4.727a11.253,11.253,0,0,1-5.1,8.843,3.618,3.618,0,0,1-3.648.355l-8.133-4.726A3.617,3.617,0,0,0,501.548,343.01Z" transform="translate(-497.901 -334.167)" fill="none"/>
    </clipPath>
    <clipPath id="clip-path-9">
      <path id="Path_1965" data-name="Path 1965" d="M505.957,347.9l-8.134-4.726a3.585,3.585,0,0,1-1.5-3.286,11.258,11.258,0,0,1,5.11-8.842,4.352,4.352,0,0,1,2.626-.677l8.133,4.727a4.364,4.364,0,0,0-2.627.676,11.265,11.265,0,0,0-5.108,8.843A3.582,3.582,0,0,0,505.957,347.9Z" transform="translate(-496.326 -330.35)" fill="none"/>
    </clipPath>
    <clipPath id="clip-path-10">
      <path id="Path_1967" data-name="Path 1967" d="M484.129,356.96a11.258,11.258,0,0,0,5.1-8.846l8.134,4.727a11.254,11.254,0,0,1-5.106,8.845,3.75,3.75,0,0,1-3.446.462c-5.675-3.285-7.14-4.168-7.927-4.643A3.9,3.9,0,0,0,484.129,356.96Z" transform="translate(-480.889 -348.114)" fill="none"/>
    </clipPath>
    <clipPath id="clip-path-11">
      <path id="Path_1969" data-name="Path 1969" d="M480.867,357.994c.147.07.324.2.463.282,1.136.683,3.855,2.274,7.464,4.361-.068-.032-.135-.066-.2-.105l-8.132-4.726A2.335,2.335,0,0,0,480.867,357.994Z" transform="translate(-480.461 -357.806)" fill="none"/>
    </clipPath>
    <clipPath id="clip-path-12">
      <path id="Path_1974" data-name="Path 1974" d="M488.514,361.851l-8.132-4.726a3.589,3.589,0,0,1-1.5-3.288A11.255,11.255,0,0,1,483.995,345a4.416,4.416,0,0,1,2.626-.681l8.134,4.727a4.405,4.405,0,0,0-2.626.681,11.252,11.252,0,0,0-5.109,8.839A3.59,3.59,0,0,0,488.514,361.851Z" transform="translate(-478.886 -344.301)" fill="none"/>
    </clipPath>
  </defs>
  <g id="Group_1061" data-name="Group 1061" transform="translate(-232 -112.208)">
    <g id="Group_1024" data-name="Group 1024" transform="translate(232 112.208)">
      <g id="Group_934" data-name="Group 934">
        <path id="Path_1848" data-name="Path 1848" d="M232,727.247,274.414,751.3l206.374-118.7L431.062,612.65Z" transform="translate(-232 -137.444)" fill="#252626" opacity="0.2" style="mix-blend-mode: multiply;isolation: isolate"/>
        <g id="Group_933" data-name="Group 933" transform="translate(5.965)">
          <path id="Path_1849" data-name="Path 1849" d="M410.793,184.866a6.04,6.04,0,0,1-6.032,6.036h-.9a6.042,6.042,0,0,1-6.03-6.036h0a6.032,6.032,0,0,1,6.03-6.031h.9a6.03,6.03,0,0,1,6.032,6.031Z" transform="translate(-246.328 -115.568)" fill="gray"/>
          <path id="Path_1850" data-name="Path 1850" d="M421.606,541.866l-2.492-378.75L444.909,178.1l2.484,378.745L279.244,653.933l-25.786-14.98Z" transform="translate(-239.047 -114.775)" fill="#062938"/>
          <g id="Group_926" data-name="Group 926" transform="translate(130.569 51.02)" style="isolation: isolate">
            <path id="Path_1851" data-name="Path 1851" d="M376.83,168.206a2.462,2.462,0,0,0-1.045-2.269l25.793,14.989a2.462,2.462,0,0,1,1.045,2.263h0Q389.722,175.7,376.83,168.206Z" transform="translate(-375.785 -165.937)" fill="#616464"/>
          </g>
          <path id="Path_1852" data-name="Path 1852" d="M369.495,174.26a6.13,6.13,0,0,0,1.238-1,8.616,8.616,0,0,0,1.548-2.326c.084-.181.16-.349.236-.524a6.636,6.636,0,0,0,.47-2.2,2.462,2.462,0,0,0-1.045-2.269l25.793,14.989a2.462,2.462,0,0,1,1.045,2.263,6.349,6.349,0,0,1-.48,2.2c-.037.088-.024.177-.06.269s-.129.167-.172.26a8.244,8.244,0,0,1-1.547,2.32c-.024.023-.032.057-.057.081a5.863,5.863,0,0,1-1.183.92l-73.8,46.745L299.576,215.02Z" transform="translate(-241.373 -114.917)" fill="#191919"/>
          <g id="Group_927" data-name="Group 927" transform="translate(31.611 59.522)">
            <path id="Path_1853" data-name="Path 1853" d="M439.714,174.891,442.2,553.619l-168.141,97.1L271.572,271.97Z" transform="translate(-271.572 -174.891)" fill="#0b3851"/>
          </g>
          <g id="Group_928" data-name="Group 928" transform="translate(11.921 145.43)">
            <path id="Path_1854" data-name="Path 1854" d="M279.112,659.089l-25.786-14.98-2.49-378.749,25.787,14.982Z" transform="translate(-250.836 -265.361)" fill="#b4b4b4"/>
          </g>
          <path id="Path_1855" data-name="Path 1855" d="M259.86,208.217,421,115.18c6.013-3.472,11.451-3.8,15.377-1.521,8.6,5,10.893,6.437,19.5,11.432-3.926-2.283-9.367-1.96-15.378,1.517L279.356,219.646c-9.629,5.536-19.247,19.006-21.2,32.622a31.748,31.748,0,0,0-.383,4.705l2.666,445.26c.024,6.8,2.436,11.587,6.314,13.845-8.6-5-10.9-6.442-19.492-11.425-3.88-2.259-6.288-7.045-6.313-13.844l-2.67-445.265C238.23,231.681,248.25,214.932,259.86,208.217Z" transform="translate(-238.282 -112.208)" fill="#939598"/>
          <path id="Path_1856" data-name="Path 1856" d="M441.532,127.215c11.941-6.9,21.629-1.381,21.673,12.352l2.676,445.265c.041,13.692-9.587,30.4-21.537,37.3L283.2,715.181c-11.955,6.891-21.67,1.352-21.723-12.342l-2.666-445.26c-.042-13.739,9.625-30.428,21.579-37.327Zm6.13,427.674-2.484-378.746L277.026,273.227l2.489,378.746,168.148-97.084ZM328.838,216.2a7.764,7.764,0,0,0-3.484,6.092c.008,2.244,1.571,3.132,3.509,2.01l64.362-37.164a7.736,7.736,0,0,0,3.5-6.051c-.01-2.228-1.613-3.145-3.523-2.044L328.838,216.2Z" transform="translate(-239.317 -112.815)" fill="#c7c9cb"/>
          <g id="Group_931" data-name="Group 931" transform="translate(112.174 499.963)">
            <path id="Path_1857" data-name="Path 1857" d="M358.712,658.175c.081-.225.116-.437.21-.654.029-.072.071-.127.1-.2A38.1,38.1,0,0,1,361.837,652c.239-.4.486-.767.751-1.15,4.9-7.312,14.328-15.148,21.53-10.955l2.183,1.28c-4.664-2.7-10.608-.025-14.807,3.375-.333.277-2.213,1.968-3.007,2.817a36.537,36.537,0,0,0-3.707,4.738,39.015,39.015,0,0,0-3.572,6.5c-.123.268-.2.556-.311.839a31.583,31.583,0,0,0-2.3,10.851c0,5.1,1.8,8.684,4.708,10.364l-2.19-1.257c-2.9-1.7-4.691-5.291-4.7-10.376A31.971,31.971,0,0,1,358.712,658.175Z" transform="translate(-356.413 -638.722)" fill="#616464"/>
            <g id="Group_930" data-name="Group 930" transform="translate(2.186 1.353)">
              <g id="Group_929" data-name="Group 929">
                <path id="Path_1858" data-name="Path 1858" d="M374.874,642.375c8.929-5.167,16.229-1.046,16.261,9.27.03,10.265-7.225,22.782-16.164,27.941-8.973,5.182-16.235,1.046-16.257-9.221C358.678,660.05,365.891,647.557,374.874,642.375Z" transform="translate(-358.715 -640.147)" fill="#f1f2f2"/>
              </g>
            </g>
          </g>
          <path id="Path_1859" data-name="Path 1859" d="M405.207,134.266a2.027,2.027,0,0,0,1.195,1.656,6.214,6.214,0,0,0,5.669.008l15.12-8.793a1.986,1.986,0,0,0,1.153-1.627l-.016,4.969a1.983,1.983,0,0,1-1.147,1.63L412.046,140.9a6.216,6.216,0,0,1-5.656,0,2.03,2.03,0,0,1-1.2-1.656Z" transform="translate(-246.699 -112.879)" fill="#444"/>
          <g id="Group_932" data-name="Group 932" transform="translate(158.509 10.299)">
            <path id="Path_1860" data-name="Path 1860" d="M427.171,123.736c1.559.891,1.572,2.376.021,3.277l-15.12,8.793a6.214,6.214,0,0,1-5.669-.008c-1.562-.9-1.612-2.358-.026-3.278l15.123-8.784A6.239,6.239,0,0,1,427.171,123.736Z" transform="translate(-405.209 -123.054)" fill="#70706f"/>
          </g>
        </g>
      </g>
      <g id="Group_943" data-name="Group 943" transform="translate(52.019 320.065)" style="isolation: isolate">
        <g id="Group_935" data-name="Group 935" transform="translate(0.166 58.587)">
          <path id="Path_1861" data-name="Path 1861" d="M334.334,510.969l.154,54.44-47.377,27.353-.154-54.441Z" transform="translate(-286.957 -510.969)" fill="#176a8e"/>
        </g>
        <g id="Group_936" data-name="Group 936" transform="translate(14.312 29.321)">
          <path id="Path_1862" data-name="Path 1862" d="M328.386,488.089l.016,2.969a2.445,2.445,0,0,1-1.109,1.926l-1.113.649c-.079.484-.177.969-.292,1.447-.1.441-.235.9-.386,1.4l.9.23a.639.639,0,0,1,.45.574,1.925,1.925,0,0,1-.2,1.068l-1.507,3.286a2.381,2.381,0,0,1-.9,1.048.885.885,0,0,1-.651.133l-.889-.22a26.851,26.851,0,0,1-1.816,2.585l.343.994a2.215,2.215,0,0,1-.706,2.024l-2.457,2.345a1.821,1.821,0,0,1-.335.254c-.471.273-.922.185-1.074-.256l-.345-1c-.406.283-.784.528-1.162.747-.353.2-.709.386-1.094.564l-.329,1.382a2.484,2.484,0,0,1-1.062,1.5,1.043,1.043,0,0,1-.34.136l-2.465.513c-.585.122-.909-.417-.724-1.2l.332-1.389a5.709,5.709,0,0,1-1.832-.465l-.881,1.255a2.047,2.047,0,0,1-.642.6.756.756,0,0,1-.915.02l-1.533-1.524a.986.986,0,0,1-.205-.837,2.479,2.479,0,0,1,.441-1.091l.9-1.273a8.876,8.876,0,0,1-.7-2.044l-1.118.647c-.615.357-1.119.074-1.12-.629l-.017-2.97a2.279,2.279,0,0,1,.324-1.1,2.211,2.211,0,0,1,.782-.826l1.132-.659c.075-.461.17-.92.275-1.37s.247-.947.406-1.465l-.924-.233c-.5-.127-.612-.866-.254-1.645l1.508-3.283a2.4,2.4,0,0,1,.917-1.049.87.87,0,0,1,.633-.137l.928.234a27.386,27.386,0,0,1,1.8-2.547l-.364-1.04a2.227,2.227,0,0,1,.707-2.028l2.456-2.341a1.789,1.789,0,0,1,.336-.258c.469-.271.921-.183,1.073.262l.364,1.055c.4-.283.774-.523,1.147-.738.347-.2.7-.382,1.071-.553l.348-1.468a2.551,2.551,0,0,1,1.076-1.507,1.217,1.217,0,0,1,.326-.132l2.465-.507a.582.582,0,0,1,.652.257,1.276,1.276,0,0,1,.072.936l-.348,1.461a5.669,5.669,0,0,1,1.8.453l.924-1.31a2.082,2.082,0,0,1,.646-.608.743.743,0,0,1,.912-.016l1.533,1.518c.365.363.26,1.228-.236,1.928l-.918,1.3a8.819,8.819,0,0,1,.713,2.027l1.129-.656C327.882,487.1,328.384,487.387,328.386,488.089Zm-.97,3.69a.384.384,0,0,0,.053-.176l-.016-2.972c0-.113-.082-.159-.18-.1l-1.9,1.106-.077-.4a7.941,7.941,0,0,0-.881-2.5l-.169-.306,1.541-2.192c.08-.111.095-.255.038-.311l-1.534-1.52a.1.1,0,0,0-.133-.024.467.467,0,0,0-.119.126L322.5,484.7l-.283-.144a5.281,5.281,0,0,0-2.239-.555l-.345-.014.583-2.445a.174.174,0,0,0-.011-.145.088.088,0,0,0-.1-.048l-2.465.513a.406.406,0,0,0-.225.261l-.587,2.457-.386.16a12.555,12.555,0,0,0-1.344.667,15.709,15.709,0,0,0-1.4.928l-.382.283-.606-1.76c-.031-.082-.108-.082-.173-.046l-2.514,2.389a.369.369,0,0,0-.111.33l.6,1.747-.344.412a24.616,24.616,0,0,0-2.22,3.15l-.278.468-1.556-.39a.149.149,0,0,0-.116.008.384.384,0,0,0-.132.183l-1.508,3.282c-.061.128-.042.251.04.27l1.554.391-.166.5c-.22.661-.39,1.247-.527,1.809s-.238,1.117-.321,1.7l-.068.48-1.9,1.1a.383.383,0,0,0-.125.136.354.354,0,0,0-.054.175l.016,2.971c0,.11.081.161.18.1l1.89-1.1.074.4a8.1,8.1,0,0,0,.869,2.53l.169.3-1.518,2.156a.432.432,0,0,0-.072.178.17.17,0,0,0,.035.135l1.533,1.518a.1.1,0,0,0,.133.029.44.44,0,0,0,.12-.133l1.507-2.137.283.145a5.243,5.243,0,0,0,2.258.577l.341.013-.563,2.368c-.03.127.019.217.115.2l2.518-.536a.4.4,0,0,0,.173-.244l.568-2.369.386-.165a12.568,12.568,0,0,0,1.378-.683,15.4,15.4,0,0,0,1.406-.931l.386-.284.584,1.7c.03.078.107.078.172.039l2.514-2.388a.35.35,0,0,0,.11-.323l-.584-1.7.341-.41a24.571,24.571,0,0,0,2.239-3.188l.282-.478,1.517.384a.125.125,0,0,0,.1-.019.4.4,0,0,0,.144-.168l1.509-3.288a.319.319,0,0,0,.033-.173.113.113,0,0,0-.072-.088l-1.534-.387.167-.5c.209-.639.376-1.215.5-1.746.141-.582.253-1.179.336-1.774l.067-.484,1.889-1.095a.352.352,0,0,0,.126-.133Z" transform="translate(-301.854 -480.148)" fill="#ebebeb"/>
        </g>
        <g id="Group_937" data-name="Group 937" transform="translate(21.851 39.236)">
          <path id="Path_1863" data-name="Path 1863" d="M315.5,491.372c3.155-1.821,5.73-.355,5.739,3.268a12.585,12.585,0,0,1-5.7,9.877c-3.155,1.821-5.734.356-5.744-3.269A12.586,12.586,0,0,1,315.5,491.372Zm.034,12.075a10.541,10.541,0,0,0,4.773-8.267c-.009-3.034-2.165-4.26-4.8-2.738a10.528,10.528,0,0,0-4.773,8.268c.009,3.031,2.161,4.26,4.8,2.737Z" transform="translate(-309.793 -490.59)" fill="#ebebeb"/>
        </g>
        <g id="Group_938" data-name="Group 938" transform="translate(15.245 30.519)">
          <path id="Path_1864" data-name="Path 1864" d="M327.323,488.593c.1-.056.18-.01.18.1l.016,2.972a.384.384,0,0,1-.053.176.352.352,0,0,1-.126.133l-1.889,1.095-.067.484c-.084.594-.2,1.192-.336,1.774-.125.531-.292,1.107-.5,1.746l-.167.5,1.534.387a.113.113,0,0,1,.072.088.316.316,0,0,1-.033.173l-1.509,3.288a.4.4,0,0,1-.144.168.125.125,0,0,1-.1.019l-1.517-.384-.282.478a24.571,24.571,0,0,1-2.239,3.188l-.341.41.584,1.7a.35.35,0,0,1-.11.323l-2.514,2.388c-.065.039-.141.039-.172-.039l-.584-1.7-.386.284a15.4,15.4,0,0,1-1.406.931,12.568,12.568,0,0,1-1.378.683l-.386.165-.568,2.369a.4.4,0,0,1-.173.244l-2.518.536c-.1.019-.145-.07-.115-.2l.563-2.368-.341-.013a5.243,5.243,0,0,1-2.258-.577l-.283-.145-1.507,2.137a.44.44,0,0,1-.12.133.1.1,0,0,1-.133-.029l-1.533-1.518a.17.17,0,0,1-.035-.135.432.432,0,0,1,.072-.178l1.518-2.156-.169-.3a8.1,8.1,0,0,1-.869-2.53l-.074-.4-1.89,1.1c-.1.058-.179.007-.18-.1l-.016-2.971a.354.354,0,0,1,.054-.175.383.383,0,0,1,.125-.136l1.9-1.1.068-.48c.083-.585.188-1.139.321-1.7s.307-1.148.527-1.809l.166-.5-1.554-.391c-.082-.019-.1-.141-.04-.27l1.508-3.282a.384.384,0,0,1,.132-.183.149.149,0,0,1,.116-.008l1.556.39L308,492.9a24.616,24.616,0,0,1,2.22-3.15l.344-.412-.6-1.747a.369.369,0,0,1,.111-.33l2.514-2.389c.065-.036.142-.036.173.046l.606,1.76.382-.283a15.709,15.709,0,0,1,1.4-.928,12.555,12.555,0,0,1,1.344-.667l.386-.16.587-2.457a.383.383,0,0,1,.2-.246l2.494-.528a.088.088,0,0,1,.1.048.174.174,0,0,1,.011.145l-.583,2.445.345.014a5.285,5.285,0,0,1,2.239.555l.283.144,1.542-2.193a.467.467,0,0,1,.119-.126.1.1,0,0,1,.133.024l1.534,1.52c.057.056.042.2-.038.311l-1.541,2.192.169.306a7.941,7.941,0,0,1,.881,2.5l.077.4Zm-12.136,15.463a12.585,12.585,0,0,0,5.7-9.877c-.01-3.624-2.584-5.09-5.739-3.268a12.586,12.586,0,0,0-5.706,9.876c.01,3.625,2.589,5.091,5.744,3.269Z" transform="translate(-302.837 -481.41)" fill="#ff313c"/>
        </g>
        <g id="Group_939" data-name="Group 939" transform="translate(6.663 22.134)">
          <path id="Path_1865" data-name="Path 1865" d="M310.673,477.655a.9.9,0,0,1-.343.764l-.989.778a11.418,11.418,0,0,1-.242,2.3l.892-.017c.216-.007.3.234.2.538l-.737,2.186a.94.94,0,0,1-.382.495.4.4,0,0,1-.189.058l-.883.018c-.191.409-.4.815-.625,1.218s-.45.763-.69,1.121l.465.73a.729.729,0,0,1-.175.761l-1.495,1.789a.784.784,0,0,1-.2.173c-.152.087-.3.081-.373-.041l-.462-.719a12.155,12.155,0,0,1-1.88,1.473l-.131,1.18a.943.943,0,0,1-.421.665c-.018.009-.037.021-.056.029l-1.687.706c-.233.1-.4-.054-.366-.34l.131-1.179a5.747,5.747,0,0,1-.907.1,4.365,4.365,0,0,1-.816-.074l-.671,1.193a.868.868,0,0,1-.306.325.311.311,0,0,1-.3.035l-1.231-.646c-.168-.092-.174-.4-.013-.687l.67-1.194a4.227,4.227,0,0,1-.9-1.417l-.959.751a.436.436,0,0,1-.076.05c-.2.117-.381.057-.419-.161l-.3-1.753a.908.908,0,0,1,.342-.764l.97-.759a11.417,11.417,0,0,1,.254-2.317l-.889.016c-.211.007-.3-.236-.2-.537l.738-2.187a.934.934,0,0,1,.38-.5.378.378,0,0,1,.186-.057l.9-.016c.183-.391.381-.778.6-1.168s.465-.784.717-1.162l-.474-.739a.737.737,0,0,1,.17-.763l1.5-1.785a.771.771,0,0,1,.2-.175c.152-.088.3-.081.375.04l.473.744a11.974,11.974,0,0,1,1.865-1.456l.134-1.223a.939.939,0,0,1,.42-.664c.019-.009.038-.021.057-.028l1.687-.706c.229-.1.4.054.366.339l-.139,1.233a4.832,4.832,0,0,1,.9-.1,3.84,3.84,0,0,1,.805.072l.7-1.245a.876.876,0,0,1,.311-.329.3.3,0,0,1,.293-.033l1.228.646c.173.093.178.4.013.687l-.693,1.235a4.168,4.168,0,0,1,.9,1.4l.988-.771a.619.619,0,0,1,.077-.053c.2-.116.379-.054.417.163Zm-5.366,5.659c.832-2.452.114-4.417-1.6-4.392a3.189,3.189,0,0,0-1.516.472,7.6,7.6,0,0,0-3.1,4.02c-.832,2.452-.114,4.42,1.6,4.393a3.209,3.209,0,0,0,1.516-.471,7.6,7.6,0,0,0,3.1-4.022Z" transform="translate(-293.799 -472.579)" fill="#ebebeb"/>
        </g>
        <g id="Group_940" data-name="Group 940">
          <path id="Path_1866" data-name="Path 1866" d="M334.158,449.27l-47.376,27.352.154,54.44,47.377-27.352ZM299.55,492.35l.131-1.179a5.747,5.747,0,0,1-.907.1,4.365,4.365,0,0,1-.816-.074l-.671,1.193a.868.868,0,0,1-.306.325.311.311,0,0,1-.3.035l-1.231-.646c-.168-.092-.174-.4-.013-.687l.67-1.194a4.227,4.227,0,0,1-.9-1.417l-.959.751a.436.436,0,0,1-.076.05c-.2.117-.381.057-.419-.161l-.3-1.753a.908.908,0,0,1,.342-.764l.97-.759a11.417,11.417,0,0,1,.254-2.317l-.889.016c-.211.007-.3-.236-.2-.537l.738-2.187a.934.934,0,0,1,.38-.5.375.375,0,0,1,.186-.057l.9-.016c.182-.391.381-.778.6-1.168s.465-.784.717-1.162l-.474-.739a.737.737,0,0,1,.17-.763l1.5-1.785a.771.771,0,0,1,.2-.175c.152-.088.3-.081.374.04l.473.744a12.024,12.024,0,0,1,1.866-1.456l.134-1.223a.941.941,0,0,1,.42-.664c.019-.009.038-.021.057-.028l1.687-.706c.229-.1.4.054.365.339l-.138,1.233a4.832,4.832,0,0,1,.9-.1,3.84,3.84,0,0,1,.805.072l.7-1.245a.876.876,0,0,1,.311-.329.3.3,0,0,1,.293-.033l1.228.649c.173.09.178.394.013.685L307.631,474a4.188,4.188,0,0,1,.9,1.4l.988-.771a.619.619,0,0,1,.077-.053c.2-.116.379-.051.417.163l.308,1.745a.9.9,0,0,1-.343.764l-.989.778a11.418,11.418,0,0,1-.242,2.3l.892-.017c.215-.007.3.234.2.538l-.737,2.186a.94.94,0,0,1-.382.495.407.407,0,0,1-.189.058l-.883.018c-.191.409-.4.815-.625,1.218s-.45.763-.69,1.121l.465.73a.729.729,0,0,1-.175.761l-1.495,1.789a.784.784,0,0,1-.2.173c-.152.087-.3.081-.374-.041l-.461-.719a12.155,12.155,0,0,1-1.88,1.473l-.131,1.18a.943.943,0,0,1-.421.665.347.347,0,0,1-.056.029l-1.687.706c-.233.1-.4-.054-.366-.34Zm27.77-1.755a2.294,2.294,0,0,1-.787.835l-1.113.646c-.08.484-.177.969-.292,1.447-.1.441-.235.9-.386,1.4l.9.23a.639.639,0,0,1,.45.574,1.933,1.933,0,0,1-.2,1.068l-1.507,3.286a2.381,2.381,0,0,1-.9,1.048.9.9,0,0,1-.651.135l-.889-.222a26.851,26.851,0,0,1-1.816,2.585l.343.994a2.215,2.215,0,0,1-.706,2.024l-2.457,2.345a1.821,1.821,0,0,1-.335.254c-.471.273-.922.185-1.074-.256l-.345-1c-.406.283-.784.528-1.163.747-.352.2-.708.386-1.093.564l-.329,1.382a2.484,2.484,0,0,1-1.062,1.5,1.046,1.046,0,0,1-.34.136l-2.465.513c-.585.122-.909-.417-.724-1.2l.332-1.389a5.709,5.709,0,0,1-1.832-.465l-.881,1.255a2.047,2.047,0,0,1-.642.6.756.756,0,0,1-.915.02l-1.533-1.524a.983.983,0,0,1-.205-.834,2.476,2.476,0,0,1,.441-1.094l.9-1.273a8.922,8.922,0,0,1-.7-2.044l-1.117.647c-.615.357-1.119.074-1.12-.629l-.017-2.97a2.279,2.279,0,0,1,.324-1.1,2.211,2.211,0,0,1,.782-.826l1.132-.659c.075-.461.17-.92.275-1.368.11-.464.247-.949.406-1.467l-.924-.233c-.5-.127-.612-.866-.254-1.645l1.507-3.283a2.4,2.4,0,0,1,.918-1.049.87.87,0,0,1,.633-.137l.928.236a27.052,27.052,0,0,1,1.8-2.55l-.364-1.04a2.227,2.227,0,0,1,.707-2.028l2.456-2.341a1.789,1.789,0,0,1,.336-.258c.469-.271.921-.183,1.073.262l.364,1.055c.4-.283.774-.523,1.146-.738.348-.2.7-.382,1.072-.553l.348-1.468a2.551,2.551,0,0,1,1.076-1.507,1.217,1.217,0,0,1,.326-.132l2.465-.507a.582.582,0,0,1,.652.257,1.276,1.276,0,0,1,.072.936L320,481.262a5.669,5.669,0,0,1,1.8.453l.924-1.31a2.082,2.082,0,0,1,.646-.608.743.743,0,0,1,.912-.016l1.533,1.518c.365.363.26,1.228-.236,1.928l-.918,1.3a8.819,8.819,0,0,1,.713,2.027l1.129-.656c.615-.355,1.118-.073,1.12.63l.016,2.969a2.241,2.241,0,0,1-.322,1.094Z" transform="translate(-286.782 -449.27)" fill="#ff313c"/>
        </g>
        <g id="Group_941" data-name="Group 941" transform="translate(22.788 40.435)">
          <path id="Path_1867" data-name="Path 1867" d="M315.583,503.511a10.541,10.541,0,0,0,4.773-8.267c-.009-3.034-2.165-4.26-4.8-2.738a10.528,10.528,0,0,0-4.773,8.268C310.789,503.805,312.941,505.034,315.583,503.511Z" transform="translate(-310.78 -491.852)" fill="#ff313c"/>
        </g>
        <g id="Group_942" data-name="Group 942" transform="translate(11.605 28.477)">
          <path id="Path_1868" data-name="Path 1868" d="M305.569,483.652a7.6,7.6,0,0,1-3.1,4.022,3.209,3.209,0,0,1-1.516.471c-1.716.028-2.434-1.941-1.6-4.393a7.6,7.6,0,0,1,3.1-4.02,3.192,3.192,0,0,1,1.516-.472C305.683,479.234,306.4,481.2,305.569,483.652Z" transform="translate(-299.003 -479.26)" fill="#ff313c"/>
        </g>
      </g>
      <g id="Group_947" data-name="Group 947" transform="translate(154.785 380.048)">
        <g id="Group_944" data-name="Group 944" transform="translate(6.591 19.512)">
          <path id="Path_1869" data-name="Path 1869" d="M433.124,533.435c1.429-.826,2.648-.468,3.113.732L421.865,556.2a8.448,8.448,0,0,1-2.734,2.71,3.282,3.282,0,0,1-2.741.449l-14.444-5.393a7.354,7.354,0,0,1,3.1-4.319Z" transform="translate(-401.946 -532.987)" fill="#ebebeb"/>
        </g>
        <g id="Group_945" data-name="Group 945">
          <path id="Path_1870" data-name="Path 1870" d="M395.005,539.789l47.376-27.35.154,54.438-47.377,27.352Zm41.138,12.552-.044-15.287-12.764,19.57a14.063,14.063,0,0,1-4.542,4.506,5.441,5.441,0,0,1-4.555.747l-12.833-4.792.043,15.288c.006,2.1,1.494,2.949,3.319,1.9l28.08-16.213a7.279,7.279,0,0,0,3.3-5.715Zm-31.45-3.731a7.354,7.354,0,0,0-3.1,4.319l14.444,5.393a3.282,3.282,0,0,0,2.741-.449,8.447,8.447,0,0,0,2.734-2.71l14.372-22.032c-.464-1.2-1.684-1.558-3.113-.732l-28.081,16.212Z" transform="translate(-395.005 -512.439)" fill="#e01777"/>
        </g>
        <g id="Group_946" data-name="Group 946" transform="translate(6.4 24.616)">
          <path id="Path_1871" data-name="Path 1871" d="M436.44,538.362l.044,15.287a7.279,7.279,0,0,1-3.3,5.715l-28.08,16.213c-1.825,1.053-3.313.205-3.319-1.9l-.043-15.288,12.833,4.792a5.441,5.441,0,0,0,4.555-.747,14.063,14.063,0,0,0,4.542-4.506Z" transform="translate(-401.745 -538.362)" fill="#ebebeb"/>
        </g>
      </g>
      <g id="Group_948" data-name="Group 948" transform="translate(60.435 219.464)">
        <path id="Path_1872" data-name="Path 1872" d="M323.8,343.572a2.158,2.158,0,0,1,.37-.17c.813-.272,1.422.205,1.425,1.195l.018,6.472-29.953,17.293-.019-6.471a3.939,3.939,0,0,1,1.784-3.091l.3-.172,1.193-.689c.006,1.94,1.063,2.993,2.545,2.808a3.332,3.332,0,0,0,.558-.121,1.074,1.074,0,0,0,.159-.071,1.73,1.73,0,0,0,.742-1.361.7.7,0,0,0-.86-.73c-.793.069-1.35-.511-1.353-1.557l3.209-1.851,1.193-.69.6-.345.914-.528.279-.16.91-.526c.006,1.94,1.063,2.993,2.547,2.808a3.251,3.251,0,0,0,.556-.122.936.936,0,0,0,.16-.07,1.732,1.732,0,0,0,.741-1.362.7.7,0,0,0-.86-.73c-.792.069-1.35-.51-1.352-1.555l3.211-1.854,1.19-.687.6-.345.963-.557.23-.131.964-.557c.006,1.939,1.06,2.994,2.544,2.808a3.352,3.352,0,0,0,.558-.122.782.782,0,0,0,.159-.071,1.724,1.724,0,0,0,.738-1.358.7.7,0,0,0-.859-.731c-.789.067-1.35-.511-1.353-1.556l3.212-1.854,1.193-.689.6-.345Z" transform="translate(-295.644 -343.327)" fill="#ebebeb"/>
      </g>
      <g id="Group_949" data-name="Group 949" transform="translate(73.198 224.499)">
        <path id="Path_1873" data-name="Path 1873" d="M311.28,348.931c1.212-.7,2.206-.138,2.21,1.255l-3.211,1.854c0,1.046.56,1.625,1.352,1.555a.7.7,0,0,1,.86.73,1.732,1.732,0,0,1-.741,1.362.936.936,0,0,1-.16.07,3.251,3.251,0,0,1-.556.122,1.739,1.739,0,0,0,.263-.864.7.7,0,0,0-.86-.73c-.789.066-1.349-.512-1.352-1.557A4.842,4.842,0,0,1,311.28,348.931Z" transform="translate(-309.085 -348.63)" fill="#14cde1"/>
      </g>
      <g id="Group_950" data-name="Group 950" transform="translate(60.457 228.633)">
        <path id="Path_1874" data-name="Path 1874" d="M295.668,370.278l29.954-17.295.057,20.28.021,7.267-6.325,3.652-23.629,13.642ZM310.366,383a11.365,11.365,0,0,0,5.15-8.92c-.006-1.88-.775-3.117-1.968-3.52a9.674,9.674,0,0,0,1.5-4.838c-.009-2.993-2.13-4.2-4.734-2.7a10.373,10.373,0,0,0-4.7,8.145l2.386-1.375a5.134,5.134,0,0,1,2.326-4.035c1.289-.744,2.34-.144,2.344,1.337a5.137,5.137,0,0,1-2.328,4.028l.008,2.743c1.534-.886,2.788-.176,2.793,1.586a6.134,6.134,0,0,1-2.775,4.807c-1.534.886-2.785.17-2.789-1.592l-2.387,1.378c.009,3.272,2.335,4.6,5.184,2.953Z" transform="translate(-295.668 -352.983)" fill="#ebebeb"/>
      </g>
      <g id="Group_951" data-name="Group 951" transform="translate(71.412 222.199)">
        <path id="Path_1875" data-name="Path 1875" d="M311.18,346.752c2.2-1.27,3.995-.247,4,2.281l-.6.345-1.19.687c0-1.393-1-1.956-2.21-1.255a4.842,4.842,0,0,0-2.2,3.8c0,1.046.563,1.623,1.352,1.557a.7.7,0,0,1,.86.73,1.739,1.739,0,0,1-.263.864c-1.484.185-2.541-.868-2.547-2.808l-.91.526-.279.16A8.774,8.774,0,0,1,311.18,346.752Z" transform="translate(-307.204 -346.207)" fill="#ebebeb"/>
      </g>
      <g id="Group_952" data-name="Group 952" transform="translate(51.687 202.887)">
        <path id="Path_1876" data-name="Path 1876" d="M286.432,353.221l47.376-27.352.156,54.439L286.587,407.66ZM325.213,371.9l-.057-20.28L295.2,368.91l.078,27.547,23.629-13.642,6.325-3.652-.021-7.267Zm-.062-21.707-.018-6.473c0-.988-.612-1.465-1.425-1.194l.41-.236-.781.405-.26.15c-.007-2.526-1.8-3.549-4.005-2.278a8.78,8.78,0,0,0-3.976,6.886l-.963.557c-.007-2.528-1.8-3.55-4-2.281a8.774,8.774,0,0,0-3.976,6.885l-.914.528c-.007-2.528-1.8-3.55-4-2.281a8.778,8.778,0,0,0-3.979,6.888l-.3.172a3.939,3.939,0,0,0-1.784,3.091l.019,6.471,29.953-17.293Z" transform="translate(-286.432 -325.869)" fill="#14cde1"/>
      </g>
      <g id="Group_953" data-name="Group 953" transform="translate(88.593 219.259)">
        <path id="Path_1877" data-name="Path 1877" d="M326.079,343.111v.045l-.41.236a2.158,2.158,0,0,0-.37.17Z" transform="translate(-325.298 -343.111)" fill="#10a4b3"/>
      </g>
      <g id="Group_954" data-name="Group 954" transform="translate(69.972 238.029)">
        <path id="Path_1878" data-name="Path 1878" d="M310.864,380.762a6.134,6.134,0,0,0,2.775-4.807c0-1.761-1.259-2.472-2.793-1.586l-.008-2.743a5.137,5.137,0,0,0,2.328-4.028c0-1.481-1.056-2.081-2.344-1.337A5.134,5.134,0,0,0,308.5,370.3l-2.386,1.375a10.373,10.373,0,0,1,4.7-8.145c2.6-1.505,4.725-.3,4.734,2.7a9.674,9.674,0,0,1-1.5,4.838c1.193.4,1.962,1.64,1.968,3.52a11.365,11.365,0,0,1-5.15,8.92c-2.849,1.645-5.174.319-5.184-2.953l2.387-1.378C308.079,380.932,309.331,381.648,310.864,380.762Z" transform="translate(-305.688 -362.878)" fill="#14cde1"/>
      </g>
      <g id="Group_955" data-name="Group 955" transform="translate(82.142 219.336)">
        <path id="Path_1879" data-name="Path 1879" d="M320.7,343.494c1.216-.7,2.207-.138,2.211,1.255l-3.212,1.854c0,1.045.564,1.624,1.353,1.556a.7.7,0,0,1,.859.731,1.724,1.724,0,0,1-.738,1.358.782.782,0,0,1-.159.071,3.331,3.331,0,0,1-.558.122,1.73,1.73,0,0,0,.262-.863.7.7,0,0,0-.861-.732c-.788.07-1.345-.511-1.348-1.556A4.843,4.843,0,0,1,320.7,343.494Z" transform="translate(-318.504 -343.192)" fill="#14cde1"/>
      </g>
      <g id="Group_956" data-name="Group 956" transform="translate(64.307 229.632)">
        <path id="Path_1880" data-name="Path 1880" d="M301.917,354.335c1.213-.7,2.2-.135,2.206,1.257l-3.209,1.854c0,1.046.56,1.627,1.353,1.557a.7.7,0,0,1,.86.73,1.73,1.73,0,0,1-.742,1.361,1.074,1.074,0,0,1-.159.071,3.332,3.332,0,0,1-.558.121,1.712,1.712,0,0,0,.265-.865.7.7,0,0,0-.86-.73c-.793.07-1.349-.509-1.352-1.557A4.838,4.838,0,0,1,301.917,354.335Z" transform="translate(-299.722 -354.035)" fill="#14cde1"/>
      </g>
      <g id="Group_957" data-name="Group 957" transform="translate(111.641 374.017)">
        <path id="Path_1881" data-name="Path 1881" d="M374.95,511.577c.016,5.8-5.664,13.808-12.662,17.849a19.771,19.771,0,0,1-3.409,1.568,1.12,1.12,0,0,0-.2.094,1.954,1.954,0,0,0-.545.491l-4.973,6.4.513-5.635c.041-.445-.121-.771-.42-.853-2.364-.629-3.673-2.492-3.681-5.256-.016-5.8,5.664-13.812,12.659-17.85S374.934,505.778,374.95,511.577Z" transform="translate(-349.57 -506.087)" fill="#14cde1"/>
      </g>
      <g id="Group_982" data-name="Group 982" transform="translate(102.678 173.449)" style="isolation: isolate">
        <g id="Group_958" data-name="Group 958" transform="translate(0.498 175.768)">
          <path id="Path_1882" data-name="Path 1882" d="M340.655,507.32l47.373-27.35.154,54.439L340.81,561.759Zm38,16.261a16.875,16.875,0,0,0,3.127-8.9c-.01-3.5-1.946-5.558-5.213-5.607-.021-7.132-6.66-9.1-14.8-4.395s-14.745,14.309-14.725,21.427c.009,3.341,1.441,5.643,4.048,6.54l-.684,7.505c-.045.477.141.817.479.868a.88.88,0,0,0,.558-.138,1.948,1.948,0,0,0,.542-.489l6.438-8.291c.222-.08.44-.189.658-.273,1.835,2.767,6.143,2.824,10.887.085a22.9,22.9,0,0,0,2.657-1.8l5.011.65a.87.87,0,0,0,.544-.139,1.938,1.938,0,0,0,.554-.5,2.127,2.127,0,0,0,.472-1.417l-.552-5.128Z" transform="translate(-340.655 -479.97)" fill="#ff7110"/>
        </g>
        <g id="Group_959" data-name="Group 959" transform="translate(6.89 197.924)">
          <path id="Path_1883" data-name="Path 1883" d="M382.126,515.862a16.875,16.875,0,0,1-3.127,8.9l.552,5.128a2.126,2.126,0,0,1-.472,1.417,1.937,1.937,0,0,1-.554.5.87.87,0,0,1-.544.139l-5.011-.65a22.91,22.91,0,0,1-2.657,1.8c-4.744,2.74-9.052,2.682-10.887-.085-.218.085-.436.194-.658.273l-6.438,8.291a1.948,1.948,0,0,1-.542.489.88.88,0,0,1-.558.138c-.338-.051-.523-.391-.479-.868l.684-7.505c-2.607-.9-4.039-3.2-4.048-6.54-.02-7.118,6.583-16.729,14.725-21.427s14.78-2.738,14.8,4.381C380.18,510.3,382.117,512.362,382.126,515.862ZM358.77,530.854a19.77,19.77,0,0,0,3.409-1.568c7-4.041,12.678-12.048,12.662-17.849s-5.724-7.236-12.721-3.2-12.675,12.049-12.659,17.85c.008,2.764,1.316,4.627,3.681,5.256.3.082.461.407.42.853l-.513,5.635,4.973-6.4a1.953,1.953,0,0,1,.545-.491,1.12,1.12,0,0,1,.2-.094Zm18.513-6.6a13.225,13.225,0,0,0,2.768-7.193,3.741,3.741,0,0,0-3.42-4.095c-1.349,6.686-7.305,14.583-14.445,18.7l-.088.05c1.759,1.265,4.833.944,8.191-1a20.846,20.846,0,0,0,2.671-1.852,1.49,1.49,0,0,1,.206-.144.89.89,0,0,1,.544-.139l3.533.461-.374-3.459a2.11,2.11,0,0,1,.414-1.339Z" transform="translate(-347.387 -503.302)" fill="#ebebeb"/>
        </g>
        <g id="Group_960" data-name="Group 960" transform="translate(21.6 207.588)">
          <path id="Path_1884" data-name="Path 1884" d="M377.411,513.48a3.741,3.741,0,0,1,3.42,4.095,13.225,13.225,0,0,1-2.768,7.193,2.11,2.11,0,0,0-.414,1.339l.374,3.459-3.533-.461a.89.89,0,0,0-.544.139,1.49,1.49,0,0,0-.206.144,20.846,20.846,0,0,1-2.671,1.852c-3.358,1.939-6.432,2.26-8.191,1l.088-.05C370.106,528.063,376.063,520.166,377.411,513.48Z" transform="translate(-362.878 -513.48)" fill="#14cde1"/>
        </g>
        <g id="Group_961" data-name="Group 961" transform="translate(8.963 200.568)">
          <path id="Path_1885" data-name="Path 1885" d="M374.95,511.577c.016,5.8-5.664,13.808-12.662,17.849a19.771,19.771,0,0,1-3.409,1.568,1.12,1.12,0,0,0-.2.094,1.954,1.954,0,0,0-.545.491l-4.973,6.4.513-5.635c.041-.445-.121-.771-.42-.853-2.364-.629-3.673-2.492-3.681-5.256-.016-5.8,5.664-13.812,12.659-17.85S374.934,505.778,374.95,511.577Z" transform="translate(-349.57 -506.087)" fill="#ff7110"/>
        </g>
        <g id="Group_962" data-name="Group 962" transform="translate(21.6 207.588)">
          <path id="Path_1886" data-name="Path 1886" d="M377.411,513.48a3.741,3.741,0,0,1,3.42,4.095,13.225,13.225,0,0,1-2.768,7.193,2.11,2.11,0,0,0-.414,1.339l.374,3.459-3.533-.461a.89.89,0,0,0-.544.139,1.49,1.49,0,0,0-.206.144,20.846,20.846,0,0,1-2.671,1.852c-3.358,1.939-6.432,2.26-8.191,1l.088-.05C370.106,528.063,376.063,520.166,377.411,513.48Z" transform="translate(-362.878 -513.48)" fill="#ff7110"/>
        </g>
        <g id="Group_965" data-name="Group 965" transform="translate(10.249 235.954)" style="isolation: isolate">
          <g id="Group_964" data-name="Group 964" clip-path="url(#clip-path)">
            <g id="Group_963" data-name="Group 963" style="isolation: isolate">
              <path id="Path_1887" data-name="Path 1887" d="M350.93,543.352c0,.046-.006.091-.006.138,0-.047,0-.092.006-.138Z" transform="translate(-350.924 -543.352)" fill="#15d6ea"/>
            </g>
          </g>
        </g>
        <g id="Group_966" data-name="Group 966" transform="translate(26.928 100.434)">
          <path id="Path_1889" data-name="Path 1889" d="M368.489,414.681a42.368,42.368,0,0,0,5.173-11.307l4.746-2.74A34.332,34.332,0,0,1,368.489,414.681Z" transform="translate(-368.489 -400.635)" fill="#1bea1f"/>
        </g>
        <g id="Group_967" data-name="Group 967" transform="translate(24.698 104.105)">
          <path id="Path_1890" data-name="Path 1890" d="M371.931,404.5a38.542,38.542,0,0,1-5.767,11.4l-.023-8.059Z" transform="translate(-366.141 -404.501)" fill="#1bea1f"/>
        </g>
        <g id="Group_968" data-name="Group 968" transform="translate(0.332 117.18)">
          <path id="Path_1891" data-name="Path 1891" d="M387.853,418.271l.154,54.44-47.373,27.351-.153-54.441Z" transform="translate(-340.481 -418.271)" fill="#176a8e"/>
        </g>
        <g id="Group_969" data-name="Group 969" transform="translate(32.617 84.93)">
          <path id="Path_1892" data-name="Path 1892" d="M375.352,393.233a20.837,20.837,0,0,0-.848-6.09l4.91-2.835a14.044,14.044,0,0,1,1.2,5.995,25.409,25.409,0,0,1-1.166,7.365l-4.972,2.87A32.221,32.221,0,0,0,375.352,393.233Z" transform="translate(-374.48 -384.308)" fill="#1bea1f"/>
        </g>
        <g id="Group_970" data-name="Group 970" transform="translate(17.02 108.309)">
          <path id="Path_1893" data-name="Path 1893" d="M364.266,417.281a8.086,8.086,0,0,1-6.211-4.781l6.187-3.571Z" transform="translate(-358.055 -408.929)" fill="#1bea1f"/>
        </g>
        <g id="Group_971" data-name="Group 971" transform="translate(24.657 88.662)">
          <path id="Path_1894" data-name="Path 1894" d="M373.438,394.291a30.49,30.49,0,0,1-.937,7.345l-6.367,3.675-.037-13.359,6.432-3.713A19.082,19.082,0,0,1,373.438,394.291Z" transform="translate(-366.097 -388.238)" fill="#1bea1f"/>
        </g>
        <g id="Group_972" data-name="Group 972" transform="translate(11.058 112.812)">
          <path id="Path_1895" data-name="Path 1895" d="M356.124,413.671a9.488,9.488,0,0,0,5.072,5.249c-4.022,1.2-7.415.145-9.42-2.739Z" transform="translate(-351.776 -413.671)" fill="#1bea1f"/>
        </g>
        <g id="Group_973" data-name="Group 973" transform="translate(27.141 80.424)">
          <path id="Path_1896" data-name="Path 1896" d="M368.713,380.123c4.129-1.314,7.613-.273,9.66,2.664l-4.669,2.695A9.572,9.572,0,0,0,368.713,380.123Z" transform="translate(-368.713 -379.563)" fill="#1bea1f"/>
        </g>
        <g id="Group_974" data-name="Group 974" transform="translate(15.462 93.236)">
          <path id="Path_1897" data-name="Path 1897" d="M356.414,404.082a30.218,30.218,0,0,1,.873-7.083l6.83-3.945.038,13.358-6.765,3.907A18.913,18.913,0,0,1,356.414,404.082Z" transform="translate(-356.414 -393.055)" fill="#1bea1f"/>
        </g>
        <g id="Group_975" data-name="Group 975" transform="translate(24.627 82.374)">
          <path id="Path_1898" data-name="Path 1898" d="M366.066,381.616a8.2,8.2,0,0,1,5.9,4.893L366.09,389.9Z" transform="translate(-366.066 -381.616)" fill="#1bea1f"/>
        </g>
        <g id="Group_976" data-name="Group 976" transform="translate(16.884 82.942)">
          <path id="Path_1899" data-name="Path 1899" d="M357.912,394.418a38.425,38.425,0,0,1,6.251-12.2l.025,8.581Z" transform="translate(-357.912 -382.214)" fill="#1bea1f"/>
        </g>
        <g id="Group_977" data-name="Group 977" transform="translate(9.104 98.076)">
          <path id="Path_1900" data-name="Path 1900" d="M354.585,405.2a20.845,20.845,0,0,0,.907,6.278l-4.568,2.637a13.945,13.945,0,0,1-1.206-5.993,25.14,25.14,0,0,1,1.17-7.365l4.509-2.6A32.1,32.1,0,0,0,354.585,405.2Z" transform="translate(-349.718 -398.152)" fill="#1bea1f"/>
        </g>
        <g id="Group_978" data-name="Group 978" transform="translate(7.612 78.503)">
          <path id="Path_1901" data-name="Path 1901" d="M364.411,379.772c9-5.193,16.341-1.011,16.371,9.329s-7.266,22.977-16.264,28.172-16.341,1.009-16.371-9.328S355.413,384.967,364.411,379.772Zm-.673,25.859-.038-13.358-6.83,3.945A30.169,30.169,0,0,0,356,403.3a18.913,18.913,0,0,0,.976,6.238l6.765-3.907Zm1.454-14.219.037,13.359L371.6,401.1a30.49,30.49,0,0,0,.937-7.345,19.082,19.082,0,0,0-.909-6.053l-6.432,3.713Zm2.271,22.105a34.332,34.332,0,0,0,9.919-14.046l-4.746,2.74a42.368,42.368,0,0,1-5.173,11.307Zm5.689-13.321,4.972-2.87a25.409,25.409,0,0,0,1.166-7.365,14.044,14.044,0,0,0-1.2-5.995l-4.91,2.835a20.837,20.837,0,0,1,.848,6.09,32.221,32.221,0,0,1-.872,7.3Zm4.184-17.511c-2.047-2.936-5.531-3.978-9.66-2.664a9.572,9.572,0,0,1,4.991,5.358l4.669-2.695Zm-27.7,24.4a13.945,13.945,0,0,0,1.206,5.993l4.568-2.637a20.845,20.845,0,0,1-.907-6.278,32.1,32.1,0,0,1,.811-7.048l-4.509,2.6a25.14,25.14,0,0,0-1.17,7.365Zm1.954,7.278c2,2.884,5.4,3.936,9.42,2.739a9.488,9.488,0,0,1-5.072-5.249l-4.348,2.511Zm9.016-30.1a34.768,34.768,0,0,0-9.064,13.318l4.272-2.468a42.392,42.392,0,0,1,4.792-10.85Zm3.086,6.3-.025-8.581a38.425,38.425,0,0,0-6.251,12.2l6.276-3.623Zm.071,25.139-.024-8.352-6.187,3.571a8.082,8.082,0,0,0,6.211,4.781Zm1.4-34.288.024,8.288,5.878-3.395a8.2,8.2,0,0,0-5.9-4.893Zm.071,25.073.023,8.059a38.542,38.542,0,0,0,5.767-11.4l-5.79,3.342Z" transform="translate(-348.147 -377.54)" fill="#ebebeb"/>
        </g>
        <g id="Group_979" data-name="Group 979" transform="translate(0.166 58.593)">
          <path id="Path_1902" data-name="Path 1902" d="M340.306,383.922l47.373-27.35.154,54.438L340.46,438.361Zm23.816,32.293c9-5.2,16.294-17.831,16.264-28.172s-7.373-14.522-16.371-9.329-16.293,17.83-16.264,28.173,7.372,14.522,16.371,9.328Z" transform="translate(-340.306 -356.572)" fill="#1bea1f"/>
        </g>
        <g id="Group_980" data-name="Group 980" transform="translate(11.01 85.22)">
          <path id="Path_1903" data-name="Path 1903" d="M360.79,384.613A42.392,42.392,0,0,0,356,395.463l-4.272,2.468A34.768,34.768,0,0,1,360.79,384.613Z" transform="translate(-351.726 -384.613)" fill="#1bea1f"/>
        </g>
        <g id="Group_981" data-name="Group 981">
          <path id="Path_1904" data-name="Path 1904" d="M387.5,294.868l.154,54.44-47.373,27.35-.154-54.439Z" transform="translate(-340.131 -294.868)" fill="#ff7110"/>
        </g>
      </g>
      <g id="Group_1000" data-name="Group 1000" transform="translate(153.664 144.009)" style="isolation: isolate">
        <g id="Group_985" data-name="Group 985" transform="translate(24.021 43.121)" style="isolation: isolate">
          <g id="Group_984" data-name="Group 984" clip-path="url(#clip-path-2)">
            <g id="Group_983" data-name="Group 983" style="isolation: isolate">
              <path id="Path_1905" data-name="Path 1905" d="M419.122,309.934c3.115-1.648,5.56-.092,5.56,3.474,0-3.566-2.445-5.122-5.56-3.474Z" transform="translate(-419.122 -309.276)" fill="#fff"/>
            </g>
          </g>
        </g>
        <g id="Group_986" data-name="Group 986" transform="translate(17.98 43.121)">
          <path id="Path_1907" data-name="Path 1907" d="M418.533,310.081c.088-.05.177-.1.268-.147,3.193-1.689,5.682-.011,5.556,3.746a12.782,12.782,0,0,1-5.761,9.7c-.091.052-.183.1-.273.152-3.2,1.693-5.684.007-5.558-3.751A12.789,12.789,0,0,1,418.533,310.081Z" transform="translate(-412.76 -309.277)" fill="#f5f5f5"/>
        </g>
        <g id="Group_989" data-name="Group 989" transform="translate(24.491 28.084)" style="isolation: isolate">
          <g id="Group_988" data-name="Group 988" clip-path="url(#clip-path-3)">
            <g id="Group_987" data-name="Group 987" transform="translate(0 0)" style="isolation: isolate">
              <path id="Path_1908" data-name="Path 1908" d="M419.617,295.5c.29-.153.579-.3.864-.431-.285.135-.574.278-.864.431Z" transform="translate(-419.617 -293.522)" fill="#15d6ea"/>
              <path id="Path_1909" data-name="Path 1909" d="M420.527,294.988h0a16.163,16.163,0,0,1,4.62-1.428,16.163,16.163,0,0,0-4.62,1.428Z" transform="translate(-419.663 -293.446)" fill="#a1eff7"/>
              <path id="Path_1910" data-name="Path 1910" d="M425.392,293.554a8.9,8.9,0,0,1,9.6,4.671,8.9,8.9,0,0,0-9.6-4.671Z" transform="translate(-419.908 -293.44)" fill="#15d6ea"/>
            </g>
          </g>
        </g>
        <g id="Group_992" data-name="Group 992" transform="translate(24.696 21.466)" style="isolation: isolate">
          <g id="Group_991" data-name="Group 991" clip-path="url(#clip-path-4)">
            <g id="Group_990" data-name="Group 990" transform="translate(0 0)" style="isolation: isolate">
              <path id="Path_1912" data-name="Path 1912" d="M439.733,292.659c-2.567-4.709-7.046-6.787-12.422-6.04,5.376-.746,9.856,1.331,12.422,6.04Z" transform="translate(-420.21 -286.471)" fill="#15d6ea"/>
              <path id="Path_1913" data-name="Path 1913" d="M426.993,286.627a20.89,20.89,0,0,0-5.979,1.854,20.89,20.89,0,0,1,5.979-1.854Z" transform="translate(-419.893 -286.479)" fill="#a1eff7"/>
              <path id="Path_1914" data-name="Path 1914" d="M420.954,288.58h0q-.56.262-1.121.558.563-.3,1.121-.558Z" transform="translate(-419.833 -286.577)" fill="#15d6ea"/>
            </g>
          </g>
        </g>
        <g id="Group_993" data-name="Group 993">
          <path id="Path_1916" data-name="Path 1916" d="M393.825,291.217,441.2,263.865l.153,54.439-47.376,27.352Zm39.571,5.516,4.648-5.214c-3.638-6.668-11.1-8.06-19.523-3.627q-.506.266-1.009.556c-8.713,5.032-16.638,15.348-20.387,26.629l4.654-.146c2.9-8.726,9.02-16.69,15.757-20.578q.389-.225.781-.431c6.5-3.417,12.278-2.344,15.08,2.812Zm-7.573,7.775,4.5-5.452c-2.482-3.733-7.017-4.351-12.129-1.663-.216.113-.429.232-.645.355-5.428,3.134-10.45,9.555-12.921,16.583l4.589.04c1.6-4.54,4.852-8.7,8.367-10.73.132-.077.267-.15.4-.221,3.305-1.731,6.233-1.331,7.838,1.088ZM423.4,311.39c.126-3.757-2.363-5.435-5.556-3.746-.091.047-.179.1-.268.147a12.789,12.789,0,0,0-5.769,9.7c-.126,3.757,2.356,5.444,5.558,3.751.09-.048.182-.1.273-.152a12.782,12.782,0,0,0,5.761-9.7Z" transform="translate(-393.825 -263.865)" fill="#ff313c"/>
        </g>
        <g id="Group_996" data-name="Group 996" transform="translate(15.395 39.777)" style="isolation: isolate">
          <g id="Group_995" data-name="Group 995" clip-path="url(#clip-path-5)">
            <g id="Group_994" data-name="Group 994" style="isolation: isolate">
              <path id="Path_1917" data-name="Path 1917" d="M410.038,316.5a21.147,21.147,0,0,1,7.734-10.34,21.147,21.147,0,0,0-7.734,10.34Z" transform="translate(-410.038 -305.775)" fill="#15d6ea"/>
              <path id="Path_1918" data-name="Path 1918" d="M418.183,306.158c.072-.048.143-.094.217-.139h0c-.073.045-.144.091-.217.139Z" transform="translate(-410.449 -305.767)" fill="#a1eff7"/>
              <path id="Path_1919" data-name="Path 1919" d="M418.411,306.006q.206-.131.416-.252-.209.121-.416.252Z" transform="translate(-410.46 -305.754)" fill="#15d6ea"/>
            </g>
          </g>
        </g>
        <g id="Group_999" data-name="Group 999" transform="translate(3.3 24.583)" style="isolation: isolate">
          <g id="Group_998" data-name="Group 998" clip-path="url(#clip-path-6)">
            <g id="Group_997" data-name="Group 997" style="isolation: isolate">
              <path id="Path_1921" data-name="Path 1921" d="M418.715,289.754c-.345.2-.688.408-1.031.624.343-.216.687-.424,1.031-.624Z" transform="translate(-398.328 -289.754)" fill="#15d6ea"/>
              <path id="Path_1922" data-name="Path 1922" d="M416.954,290.411a45.994,45.994,0,0,0-13.748,14.25,45.994,45.994,0,0,1,13.748-14.25Z" transform="translate(-397.598 -289.787)" fill="#a1eff7"/>
              <path id="Path_1923" data-name="Path 1923" d="M402.908,305.418a53.826,53.826,0,0,0-5.608,11.755,53.826,53.826,0,0,1,5.608-11.755Z" transform="translate(-397.3 -290.544)" fill="#15d6ea"/>
            </g>
          </g>
        </g>
      </g>
      <g id="Group_1001" data-name="Group 1001" transform="translate(154.162 319.776)">
        <path id="Path_1925" data-name="Path 1925" d="M441.726,448.966l.154,54.439L394.5,530.758l-.155-54.438Z" transform="translate(-394.349 -448.966)" fill="#176a8e"/>
      </g>
      <g id="Group_1002" data-name="Group 1002" transform="translate(52.186 438.346)">
        <path id="Path_1926" data-name="Path 1926" d="M334.334,573.833l.154,54.44-47.377,27.353-.154-54.441Z" transform="translate(-286.957 -573.833)" fill="#00a523"/>
      </g>
      <g id="Group_1003" data-name="Group 1003" transform="translate(51.538 261.615)">
        <path id="Path_1927" data-name="Path 1927" d="M333.652,387.716l.153,54.44L286.43,469.508l-.155-54.438Z" transform="translate(-286.275 -387.716)" fill="#176a8e"/>
      </g>
      <path id="Path_1928" data-name="Path 1928" d="M435.613,256.685l-.153-54.439L286.275,287.862l.155,54.438Z" transform="translate(-234.737 -116.748)" fill="#176a8e"/>
      <g id="Group_1004" data-name="Group 1004" transform="translate(160.609 311.02)">
        <path id="Path_1929" data-name="Path 1929" d="M431.07,439.856c.448-.258.813-.051.815.468a1.8,1.8,0,0,1-.81,1.4l-5.616,3.242-1.881,3.272a2.158,2.158,0,0,1-.756.8l-12.119,7a.774.774,0,0,1-.762.085l-1.93-1.079-6.061,3.5c-.447.259-.811.046-.813-.47a1.789,1.789,0,0,1,.808-1.4l9.4-5.425,11.09-6.4Z" transform="translate(-401.138 -439.745)" fill="#f5f5f5"/>
      </g>
      <g id="Group_1005" data-name="Group 1005" transform="translate(162.907 291.528)">
        <path id="Path_1930" data-name="Path 1930" d="M432.551,419.811c2.266-.53,3.567,1.475,2.9,4.466a9.573,9.573,0,0,1-4.1,5.89,4.532,4.532,0,0,1-1.23.5.754.754,0,0,0-.2.082,1.592,1.592,0,0,0-.68.978c-.111.494.1.822.48.739a.888.888,0,0,0,.206-.084c.443-.258.862-.827,1.285-1.071a.921.921,0,0,1,.239-.1c.455-.109.755.293.475.894a5.837,5.837,0,0,1-.82,1.29,4.477,4.477,0,0,1-1.171,1.026,2.683,2.683,0,0,1-.716.292,1.3,1.3,0,0,1-1.574-.7l-.29,1.553a5.045,5.045,0,0,1-2.185,3.247l-1.294.747a1.942,1.942,0,0,0-.884,1.532l.008,1.95a.975.975,0,0,1-.443.764l-11.09,6.4c-.244.143-.443.029-.444-.252l-.006-1.951c0-.562-.4-.792-.887-.511l-1.3.749c-1.037.6-1.949.3-2.2-.717l-3.065-12.508a.734.734,0,0,1,.339-.693l26.087-15.061c.229-.13.4.015.344.3l-.254,1.362-.069.38a6.972,6.972,0,0,1,1.31-1A4.457,4.457,0,0,1,432.551,419.811Zm1.2,4.864c.393-1.754-.369-2.928-1.7-2.621a2.7,2.7,0,0,0-.714.292,5.288,5.288,0,0,0-1.911,2.125l-1.083,5.793a4.911,4.911,0,0,1,1.569-1.551,2.684,2.684,0,0,1,.712-.291,2.738,2.738,0,0,0,.721-.293,5.619,5.619,0,0,0,2.4-3.456Z" transform="translate(-403.558 -419.217)" fill="#f5f5f5"/>
      </g>
      <g id="Group_1006" data-name="Group 1006" transform="translate(187.69 294.315)">
        <path id="Path_1931" data-name="Path 1931" d="M433.366,422.2c1.328-.308,2.09.867,1.7,2.621a5.619,5.619,0,0,1-2.4,3.456,2.738,2.738,0,0,1-.721.293,2.684,2.684,0,0,0-.712.291,4.911,4.911,0,0,0-1.569,1.551l1.083-5.793a5.288,5.288,0,0,1,1.911-2.125A2.7,2.7,0,0,1,433.366,422.2Z" transform="translate(-429.658 -422.152)" fill="#ffcc4d"/>
      </g>
      <g id="Group_1009" data-name="Group 1009" transform="translate(153.997 261.188)" style="isolation: isolate">
        <g id="Group_1007" data-name="Group 1007" transform="translate(19.564 19.952)">
          <path id="Path_1932" data-name="Path 1932" d="M418.725,408.519a.738.738,0,0,1,.132-.059c1.9-.645,3.33.461,3.338,2.769a9.162,9.162,0,0,1-4.147,7.189,3.291,3.291,0,0,0-1.5,2.583c0,.593.266.964.667,1.045s.838.254.84.83a1.671,1.671,0,0,1-.709,1.315.726.726,0,0,1-.184.076c-1.374.345-2.383-.524-2.388-2.241a7.2,7.2,0,0,1,3.263-5.649,5.257,5.257,0,0,0,2.382-4.126c0-1.16-.635-1.788-1.524-1.681-.464.061-.875-.135-.876-.706A1.7,1.7,0,0,1,418.725,408.519Z" transform="translate(-414.778 -408.279)" fill="#f5f5f5"/>
        </g>
        <g id="Group_1008" data-name="Group 1008">
          <path id="Path_1933" data-name="Path 1933" d="M394.175,414.62l47.377-27.353.154,54.441-47.377,27.351Zm40.8,8.045c.67-2.991-.631-5-2.9-4.466a4.457,4.457,0,0,0-1.227.5,6.893,6.893,0,0,0-1.31,1l.069-.38.254-1.362c.051-.285-.115-.43-.344-.3l-26.087,15.061a.736.736,0,0,0-.339.693l3.065,12.508c.248,1.019,1.16,1.317,2.2.717l1.3-.749c.49-.281.885-.051.887.511l.006,1.951c0,.281.2.394.444.252l-9.4,5.425a1.789,1.789,0,0,0-.808,1.4c0,.516.366.729.813.47l6.061-3.5,1.93,1.078a.771.771,0,0,0,.762-.084l12.119-7a2.158,2.158,0,0,0,.756-.8l1.879-3.272,5.618-3.242a1.8,1.8,0,0,0,.81-1.4c0-.519-.367-.726-.815-.468L422.08,442.2a.975.975,0,0,0,.443-.764l-.008-1.95a1.942,1.942,0,0,1,.884-1.532l1.294-.747a5.045,5.045,0,0,0,2.185-3.247l.29-1.553a1.3,1.3,0,0,0,1.574.7,2.683,2.683,0,0,0,.716-.292,4.477,4.477,0,0,0,1.171-1.026,5.837,5.837,0,0,0,.82-1.29c.28-.6-.02-1-.475-.894a.921.921,0,0,0-.239.1c-.423.244-.841.813-1.285,1.071a.888.888,0,0,1-.206.084c-.376.084-.592-.245-.48-.739a1.592,1.592,0,0,1,.68-.978.754.754,0,0,1,.2-.082,4.532,4.532,0,0,0,1.23-.5,9.573,9.573,0,0,0,4.1-5.89ZM417,415.318a7.2,7.2,0,0,0-3.263,5.649c0,1.717,1.014,2.586,2.388,2.241a.726.726,0,0,0,.184-.076,1.671,1.671,0,0,0,.709-1.315c0-.575-.428-.748-.84-.83s-.667-.453-.667-1.045a3.291,3.291,0,0,1,1.5-2.583,9.162,9.162,0,0,0,4.147-7.189c-.008-2.307-1.442-3.414-3.338-2.769a.738.738,0,0,0-.132.059,1.7,1.7,0,0,0-.7,1.346c0,.572.412.767.876.706.889-.107,1.521.52,1.524,1.681A5.257,5.257,0,0,1,417,415.318Z" transform="translate(-394.175 -387.267)" fill="#ffcc4d"/>
        </g>
      </g>
      <g id="Group_1010" data-name="Group 1010" transform="translate(80.352 217.035)">
        <path id="Path_1934" data-name="Path 1934" d="M320.595,341.315c2.2-1.271,4-.248,4.005,2.278l-.6.345-1.193.689c0-1.393-.994-1.958-2.211-1.255a4.843,4.843,0,0,0-2.192,3.8c0,1.045.56,1.627,1.348,1.556a.7.7,0,0,1,.861.732,1.73,1.73,0,0,1-.262.863c-1.484.186-2.538-.869-2.544-2.808l-.964.557-.23.131A8.78,8.78,0,0,1,320.595,341.315Z" transform="translate(-316.619 -340.769)" fill="#ebebeb"/>
      </g>
      <g id="Group_1011" data-name="Group 1011" transform="translate(62.517 227.331)">
        <path id="Path_1935" data-name="Path 1935" d="M301.816,352.157c2.2-1.27,3.995-.247,4,2.281l-.6.345-1.193.69c0-1.395-.994-1.96-2.206-1.26a4.839,4.839,0,0,0-2.2,3.8c0,1.045.559,1.625,1.352,1.554a.7.7,0,0,1,.86.73,1.712,1.712,0,0,1-.265.865c-1.482.185-2.539-.868-2.545-2.808l-1.193.689A8.778,8.778,0,0,1,301.816,352.157Z" transform="translate(-297.837 -351.612)" fill="#ebebeb"/>
      </g>
      <g id="Group_1016" data-name="Group 1016" transform="translate(164.471 175.885)" style="isolation: isolate">
        <g id="Group_1014" data-name="Group 1014" transform="translate(0 2.007)" style="isolation: isolate">
          <g id="Group_1013" data-name="Group 1013" clip-path="url(#clip-path-7)">
            <g id="Group_1012" data-name="Group 1012" style="isolation: isolate">
              <path id="Path_1936" data-name="Path 1936" d="M405.2,316.557a34.778,34.778,0,0,1,4.472-8.574,34.778,34.778,0,0,0-4.472,8.574Z" transform="translate(-405.205 -299.973)" fill="#fff"/>
              <path id="Path_1937" data-name="Path 1937" d="M409.914,307.558a28.046,28.046,0,0,1,8.449-8.01,28.046,28.046,0,0,0-8.449,8.01Z" transform="translate(-405.442 -299.548)" fill="#fff"/>
            </g>
          </g>
        </g>
        <g id="Group_1015" data-name="Group 1015">
          <path id="Path_1939" data-name="Path 1939" d="M418.126,299.441c.216-.123.429-.242.645-.355,5.112-2.688,9.647-2.07,12.129,1.663l-4.5,5.452c-1.6-2.419-4.532-2.819-7.838-1.088-.132.071-.267.144-.4.221-3.514,2.029-6.77,6.19-8.367,10.73l-4.589-.04C407.676,309,412.7,302.575,418.126,299.441Z" transform="translate(-405.205 -297.434)" fill="#f5f5f5"/>
        </g>
      </g>
      <g id="Group_1017" data-name="Group 1017" transform="translate(156.964 165.475)">
        <path id="Path_1940" data-name="Path 1940" d="M417.687,289.588c.335-.193.672-.379,1.008-.556,8.42-4.433,15.886-3.041,19.524,3.627l-4.648,5.214c-2.8-5.155-8.583-6.228-15.08-2.812q-.392.207-.781.431c-6.737,3.888-12.86,11.853-15.757,20.578l-4.654.147C401.049,304.936,408.974,294.62,417.687,289.588Z" transform="translate(-397.3 -286.471)" fill="#f5f5f5"/>
      </g>
      <g id="Group_1022" data-name="Group 1022" transform="translate(60.387 451.215)">
        <g id="Group_1020" data-name="Group 1020" transform="translate(3.244)" style="isolation: isolate">
          <g id="Group_1018" data-name="Group 1018" transform="translate(0 1.848)">
            <path id="Path_1941" data-name="Path 1941" d="M326.116,589.4a.384.384,0,0,1,.373-.041l1.834,1.049c2.671,1.522,2.685,6.474.031,11.068l-17.721,30.7a13.825,13.825,0,0,1-4.809,5.071c-1.742,1.007-3.488,1.249-4.821.489l-1.838-1.044c-.207-.117-.2-.5,0-.853L305.3,625.21a1.1,1.1,0,0,1,.377-.4.384.384,0,0,1,.368-.04l.651.317a1.158,1.158,0,0,0,1.119-.125,3.233,3.233,0,0,0,1.122-1.183l11.169-19.346c.613-1.063.611-2.2-.007-2.556l-.63-.359c-.2-.115-.2-.5,0-.847l6.279-10.879A1.05,1.05,0,0,1,326.116,589.4Z" transform="translate(-299.01 -589.331)" fill="#ebebeb"/>
          </g>
          <g id="Group_1019" data-name="Group 1019" transform="translate(17.067)">
            <path id="Path_1942" data-name="Path 1942" d="M323.782,587.458a.376.376,0,0,1,.37-.04l1.717.982-7.016,12.158-.044-.033-1.673-.953c-.2-.117-.2-.5,0-.853l6.277-10.874A1.068,1.068,0,0,1,323.782,587.458Z" transform="translate(-316.983 -587.385)" fill="#ebebeb"/>
          </g>
        </g>
        <g id="Group_1021" data-name="Group 1021" transform="translate(0 35.407)">
          <path id="Path_1943" data-name="Path 1943" d="M302.265,624.745a.377.377,0,0,1,.368-.041l1.7.91.05.02-6.916,11.973-1.716-.982c-.208-.114-.209-.5,0-.849l6.139-10.632A1.067,1.067,0,0,1,302.265,624.745Z" transform="translate(-295.594 -624.672)" fill="#ebebeb"/>
        </g>
      </g>
      <g id="Group_1023" data-name="Group 1023" transform="translate(106.499 193.458)">
        <path id="Path_1944" data-name="Path 1944" d="M382.8,321.54c.566,1.673.114,4.088-1.191,6.306L378.4,333.3a11.577,11.577,0,0,0-1.761,7.326l.774,4.642a8.393,8.393,0,0,1-1.026,5.038,10.051,10.051,0,0,1-3.65,4.082,4.212,4.212,0,0,1-2.216.637l-3.983-.105a5.64,5.64,0,0,0-2.883.862,11.2,11.2,0,0,0-2.882,2.465l-3.967,4.7a8.594,8.594,0,0,1-2.213,1.919c-1.4.809-2.738.857-3.658.136s-1.288-2.081-1.05-3.838l.744-5.519c.338-2.508-.332-4.482-1.8-5.27l-3.222-1.749c-1.313-.706-1.782-2.589-1.223-4.911a10.854,10.854,0,0,1,3.832-5.941l4.443-3.305a14.22,14.22,0,0,0,4.654-6.588l1.969-5.772a10.4,10.4,0,0,1,4.261-5.515c1.826-1.055,3.465-.827,4.28.584l2,3.479c.908,1.577,2.654,2.03,4.675,1.2l4.44-1.82C380.751,319.3,382.228,319.873,382.8,321.54Zm-2.619,5.454a4.579,4.579,0,0,0,.68-3.609,1.48,1.48,0,0,0-2.2-.857l-4.443,1.822c-2.683,1.1-5.005.5-6.212-1.6l-2-3.479c-.473-.82-1.387-.946-2.447-.334a5.863,5.863,0,0,0-2.438,3.154l-1.971,5.769a18.851,18.851,0,0,1-6.182,8.755l-4.443,3.308a6.124,6.124,0,0,0-2.194,3.4c-.322,1.348-.063,2.4.7,2.81l3.227,1.746c1.946,1.054,2.838,3.675,2.393,7L351.9,360.4a2.277,2.277,0,0,0,.594,2.192,1.873,1.873,0,0,0,2.115-.095,4.864,4.864,0,0,0,1.25-1.079l3.968-4.695a14.915,14.915,0,0,1,3.829-3.278,7.494,7.494,0,0,1,3.832-1.145l3.978.108a2.406,2.406,0,0,0,1.252-.369,5.8,5.8,0,0,0,2.112-2.341,4.767,4.767,0,0,0,.579-2.872l-.77-4.65c-.47-2.8.407-6.44,2.342-9.733l3.2-5.453Z" transform="translate(-344.155 -315.939)" fill="#ebebeb"/>
      </g>
      <path id="Path_1945" data-name="Path 1945" d="M388.028,542.834l-47.373,27.35.155,54.441,47.372-27.352Z" transform="translate(-237.479 -133.924)" fill="#176a8e"/>
    </g>
    <g id="Group_1060" data-name="Group 1060" transform="translate(444.474 282.695)">
      <path id="Path_1946" data-name="Path 1946" d="M502.191,681.082c8.311-3.729-11.872-4.39-3.079-13.342,3.763-3.827,17.971-6.537,30.786-6.668,19.549-.2,70.731,8.792,65.676,29.757-3.154,13.081-20.306,28.534-75.025,24.185-23.414-1.856-48.6-12.844-46.071-22.127C476.022,687.242,498.471,682.748,502.191,681.082Z" transform="translate(-456.694 -310.374)" fill="#231f20" opacity="0.27" style="mix-blend-mode: multiply;isolation: isolate"/>
      <path id="Path_1947" data-name="Path 1947" d="M565.441,661s.72,3.325-4.184,3.752c-3.02.262-7.791.433-7.791.433-6.776-1.442-14.219,1.724-15.41,5.57a3.251,3.251,0,0,0-.224,1.282c-.013,1.513-.975,1.508,2.9,4.972,0,0,7.363,5.552,11.916,7.7,5.72,2.692,8.681,2.79,10.526,2.592a24.755,24.755,0,0,1,6.011-.443c2.568.315,1.909,3.55,1.909,6.1l7.9,3.253c8.032,2.134,14.33-4.821,14.33-6.775V669.122Z" transform="translate(-459.891 -310.37)" fill="#ed635d"/>
      <g id="Group_1025" data-name="Group 1025" transform="translate(77.707 361.364)">
        <path id="Path_1948" data-name="Path 1948" d="M568.505,686.288c-1.366-.681-8.31-3.157-11.712-4.159a130.839,130.839,0,0,1-13.865-5.486c-2.739-1.153-5.168-2.661-5.159-4.34a25.91,25.91,0,0,0-.175,3.118c.066,1.8,1.429,3.606,4.686,5.481,0,0,5.821,2.531,10.363,4.657,5.145,2.412,7.6,3.282,11.492,4.867a59.184,59.184,0,0,0,5.773,2.308c1.023.223.954-4.322.954-4.038C570.817,688.56,572.181,688.122,568.505,686.288Z" transform="translate(-537.592 -672.304)" fill="#d5dfef"/>
        <path id="Path_1949" data-name="Path 1949" d="M580.489,692.872,572.982,691c0,.838-.114,2.713-.114,3.523l7.9,3.264c8.032,2.12,14.33-4.831,14.33-6.787l-.038-4.472C595.056,688.48,588.857,693.884,580.489,692.872Z" transform="translate(-539.371 -673.021)" fill="#d5dfef"/>
      </g>
      <g id="Group_1029" data-name="Group 1029" transform="translate(52.332 370.568)">
        <path id="Path_1950" data-name="Path 1950" d="M544.109,682s-2.181,2.516-7.282,3.579c-3.146.652-13.413,1.876-13.413,1.876-5.152.636-11.4,3.136-12.381,8.193a25.465,25.465,0,0,0,.115,3.494c.639,2.825,3.115,3.816,6.456,5.006a86.941,86.941,0,0,0,11.285,3.123c6.736,1.241,21.066,3.36,26.482,3.8l8.71,2.282c8.718,1.109,13.961-6.036,13.718-8.012l-.573-19.9Z" transform="translate(-510.877 -681.997)" fill="#ed635d"/>
        <g id="Group_1026" data-name="Group 1026" transform="translate(25.339 1.796)">
          <path id="Path_1951" data-name="Path 1951" d="M538.856,695.332a.768.768,0,0,1-1.008-.494,17.6,17.6,0,0,1,.318-7.814,5.512,5.512,0,0,1,1.948-3.012.711.711,0,0,1,1.053.352,1.189,1.189,0,0,1-.334,1.31,4.036,4.036,0,0,0-1,1.794,16.149,16.149,0,0,0-.343,6.676A1.033,1.033,0,0,1,538.856,695.332Z" transform="translate(-537.554 -683.889)" fill="#d5dfef"/>
        </g>
        <g id="Group_1027" data-name="Group 1027" transform="translate(20.679 2.78)">
          <path id="Path_1952" data-name="Path 1952" d="M533.506,695.228a.765.765,0,0,1-.859-.707,16.285,16.285,0,0,1,2.155-7.22,5.327,5.327,0,0,1,2.6-2.331.719.719,0,0,1,.936.583,1.11,1.11,0,0,1-.626,1.145,3.838,3.838,0,0,0-1.395,1.432,14.979,14.979,0,0,0-1.914,6.15A.98.98,0,0,1,533.506,695.228Z" transform="translate(-532.646 -684.924)" fill="#d5dfef"/>
        </g>
        <g id="Group_1028" data-name="Group 1028" transform="translate(15.964 3.185)">
          <path id="Path_1953" data-name="Path 1953" d="M528.539,695.249c-.443.01-.875-.275-.858-.685a15,15,0,0,1,2.082-6.943,5.171,5.171,0,0,1,2.57-2.227.734.734,0,0,1,.944.571,1.045,1.045,0,0,1-.614,1.1,3.585,3.585,0,0,0-1.38,1.368,13.906,13.906,0,0,0-1.863,5.917A.927.927,0,0,1,528.539,695.249Z" transform="translate(-527.681 -685.351)" fill="#d5dfef"/>
        </g>
        <path id="Path_1954" data-name="Path 1954" d="M523.414,687.726c-5.152.636-11.4,3.136-12.381,8.193a25.465,25.465,0,0,0,.115,3.494c.543,2.4,2.419,3.477,5.012,4.472l1.769-1.013a37.074,37.074,0,0,1,2.021-8.8,12.3,12.3,0,0,1,5.936-6.65C524.409,687.608,523.414,687.726,523.414,687.726Z" transform="translate(-510.877 -682.271)" fill="#497384"/>
        <path id="Path_1955" data-name="Path 1955" d="M577.876,702.084c.237,1.975-1.237,7.982-14.172,7.258l-6.058-.574-24.432-2.883a82.975,82.975,0,0,1-16.734-3.558c-2.961-1.056-5.383-2.172-5.594-3.87-.043.651.014,3.89.014,4.253,0,1.059,1.826,3.367,6.349,4.807,9.385,2.994,19.238,3.364,34.243,5.2,0,0,8.472,1.674,13.078,2.02,11.632.865,13.459-6.01,13.222-7.986Z" transform="translate(-510.869 -682.827)" fill="#d5dfef"/>
      </g>
      <path id="Path_1956" data-name="Path 1956" d="M519.168,340.782c1.877,6.463,13.76,41.344,20.748,49.239,6.665,7.533,30.1,29.659,30.1,29.659s17.447,12.576,26.69,4.916c5.6-4.647,5.9-14.462-10.3-24.379-6.226-3.81-29.612-29.075-29.612-29.075l-26.431-43.613S518.75,339.342,519.168,340.782Z" transform="translate(-458.955 -293.554)" fill="#dd440e"/>
      <path id="Path_1957" data-name="Path 1957" d="M521.716,331.925c-1.63-2.925,1.257-7.054,3.925-8.54.93-.521-1.564-6.325-1.345-9.135a2.783,2.783,0,0,1,3.9-2.463c.559.344,2.574,9.733,3.169,12.08,1.986,7.826-.624,9.6-3.292,11.083S523.35,334.854,521.716,331.925Z" transform="translate(-459.061 -292.749)" fill="#e8c5ac"/>
      <path id="Path_1958" data-name="Path 1958" d="M520.215,338.505l7.752-4.2-2.16-10.727-.841-1.495L517.16,310.8a6.841,6.841,0,0,0-9.494-2.369c-4.043,2.178-.442.227-.442.227-5.527,3-2.742,9.179-2.742,9.179l5.65,12.885C512.122,335.32,516.668,340.428,520.215,338.505Z" transform="translate(-458.18 -292.538)" fill="#e8c5ac"/>
      <path id="Path_1959" data-name="Path 1959" d="M603.586,422.64s-.943-15.5-.172-20.457c1.816-11.705,7.869-24.418,7.869-24.418l-22.4-1.614-6.861,20.582c-3.571,7.392-10.2,10.765-12.644,13.246l-11.344,9.933c-3.2,3.259-9.437,8.165-11.788,18.732L534.52,501.152l55.713,10.14L601.644,438.1C602.647,433.6,604.351,427.187,603.586,422.64Z" transform="translate(-459.73 -296.006)" fill="#ffe1cc"/>
      <path id="Path_1960" data-name="Path 1960" d="M556.232,525.688l1.026,143.176a35.79,35.79,0,0,0,23,8.035c8.027,0,13.992-4.269,14.208-6.5l-.622-152.6Z" transform="translate(-460.825 -303.149)" fill="#0b1e3a"/>
      <g id="Group_1057" data-name="Group 1057" transform="translate(13.668)">
        <g id="Group_1056" data-name="Group 1056" style="isolation: isolate">
          <g id="Group_1032" data-name="Group 1032" transform="translate(26.349 40.278)" style="isolation: isolate">
            <g id="Group_1031" data-name="Group 1031" clip-path="url(#clip-path-8)">
              <g id="Group_1030" data-name="Group 1030" transform="translate(0.001)" style="isolation: isolate">
                <path id="Path_1961" data-name="Path 1961" d="M506.036,348.092l-8.134-4.726a3.615,3.615,0,0,0,3.646-.356,11.255,11.255,0,0,0,5.1-8.843l8.133,4.727a11.253,11.253,0,0,1-5.1,8.843,3.614,3.614,0,0,1-3.646.355Z" transform="translate(-497.902 -334.167)" fill="#15d6ea"/>
              </g>
            </g>
          </g>
          <g id="Group_1033" data-name="Group 1033" transform="translate(35.025 14.912)">
            <path id="Path_1963" data-name="Path 1963" d="M515.242,337.547l-8.133-4.728-.072-25.366,8.133,4.727Z" transform="translate(-507.037 -307.453)" fill="#0b6f79"/>
          </g>
          <g id="Group_1036" data-name="Group 1036" transform="translate(24.854 36.654)" style="isolation: isolate">
            <g id="Group_1035" data-name="Group 1035" clip-path="url(#clip-path-9)">
              <g id="Group_1034" data-name="Group 1034" style="isolation: isolate">
                <path id="Path_1964" data-name="Path 1964" d="M505.957,347.9l-8.134-4.726a3.585,3.585,0,0,1-1.5-3.286,11.258,11.258,0,0,1,5.11-8.842,4.352,4.352,0,0,1,2.626-.677l8.133,4.727a4.364,4.364,0,0,0-2.627.676,11.265,11.265,0,0,0-5.108,8.843,3.582,3.582,0,0,0,1.5,3.286Z" transform="translate(-496.326 -330.35)" fill="#fff"/>
              </g>
            </g>
          </g>
          <g id="Group_1039" data-name="Group 1039" transform="translate(10.195 53.522)" style="isolation: isolate">
            <g id="Group_1038" data-name="Group 1038" clip-path="url(#clip-path-10)">
              <g id="Group_1037" data-name="Group 1037" transform="translate(-0.406)" style="isolation: isolate">
                <path id="Path_1966" data-name="Path 1966" d="M488.593,362.043l-8.132-4.726a3.618,3.618,0,0,0,3.646-.357,11.258,11.258,0,0,0,5.1-8.846l8.134,4.727a11.254,11.254,0,0,1-5.106,8.845,3.615,3.615,0,0,1-3.647.357Z" transform="translate(-480.461 -348.114)" fill="#15d6ea"/>
              </g>
            </g>
          </g>
          <g id="Group_1042" data-name="Group 1042" transform="translate(9.789 62.725)" style="isolation: isolate">
            <g id="Group_1041" data-name="Group 1041" clip-path="url(#clip-path-11)">
              <g id="Group_1040" data-name="Group 1040" transform="translate(0 -9.203)" style="isolation: isolate">
                <path id="Path_1968" data-name="Path 1968" d="M488.593,362.043l-8.132-4.726a3.618,3.618,0,0,0,3.646-.357,11.258,11.258,0,0,0,5.1-8.846l8.134,4.727a11.254,11.254,0,0,1-5.106,8.845,3.615,3.615,0,0,1-3.647.357Z" transform="translate(-480.461 -348.114)" fill="#15d6ea"/>
              </g>
            </g>
          </g>
          <g id="Group_1043" data-name="Group 1043" transform="translate(32.543 21.055)">
            <path id="Path_1970" data-name="Path 1970" d="M512.6,334.267l-8.133-4.727-.045-15.616,8.134,4.727Z" transform="translate(-504.424 -313.923)" fill="#848484"/>
          </g>
          <g id="Group_1044" data-name="Group 1044" transform="translate(34.91 14.891)">
            <path id="Path_1971" data-name="Path 1971" d="M515.051,312.27l-8.135-4.727.115-.113,8.133,4.726Z" transform="translate(-506.916 -307.431)" fill="#a0a0a0"/>
          </g>
          <g id="Group_1045" data-name="Group 1045" transform="translate(18.477 31.92)">
            <path id="Path_1972" data-name="Path 1972" d="M497.808,351.694l-8.134-4.727-.063-21.6,8.134,4.727Z" transform="translate(-489.61 -325.365)" fill="#0b6f79"/>
          </g>
          <g id="Group_1048" data-name="Group 1048" transform="translate(8.293 49.901)" style="isolation: isolate">
            <g id="Group_1047" data-name="Group 1047" clip-path="url(#clip-path-12)">
              <g id="Group_1046" data-name="Group 1046" style="isolation: isolate">
                <path id="Path_1973" data-name="Path 1973" d="M488.514,361.851l-8.132-4.726a3.589,3.589,0,0,1-1.5-3.288A11.255,11.255,0,0,1,483.995,345a4.416,4.416,0,0,1,2.626-.681l8.134,4.727a4.405,4.405,0,0,0-2.626.681,11.252,11.252,0,0,0-5.109,8.839,3.59,3.59,0,0,0,1.494,3.287Z" transform="translate(-478.886 -344.301)" fill="#fff"/>
              </g>
            </g>
          </g>
          <g id="Group_1049" data-name="Group 1049" transform="translate(18.477 21.055)">
            <path id="Path_1975" data-name="Path 1975" d="M497.745,329.514l-8.134-4.727,14.066-10.865,8.134,4.727Z" transform="translate(-489.61 -313.923)" fill="#0d8794"/>
          </g>
          <g id="Group_1050" data-name="Group 1050" transform="translate(15.968 29.577)">
            <path id="Path_1976" data-name="Path 1976" d="M495.162,347.965l-8.133-4.727-.059-20.341,8.135,4.727Z" transform="translate(-486.969 -322.897)" fill="#848484"/>
          </g>
          <g id="Group_1051" data-name="Group 1051" transform="translate(15.968 15.004)">
            <path id="Path_1977" data-name="Path 1977" d="M495.1,326.85l-8.135-4.727L505.91,307.55l8.135,4.727Z" transform="translate(-486.969 -307.55)" fill="#a1a1a1"/>
          </g>
          <g id="Group_1052" data-name="Group 1052" transform="translate(16.427 19.618)">
            <path id="Path_1978" data-name="Path 1978" d="M514.182,312.409l.072,25.388a11.253,11.253,0,0,1-5.1,8.843c-2.83,1.634-5.133.322-5.143-2.93a11.265,11.265,0,0,1,5.108-8.843,4.364,4.364,0,0,1,2.626-.676l-.045-15.617-14.066,10.864.063,21.6a11.254,11.254,0,0,1-5.106,8.845c-2.829,1.633-5.131.326-5.141-2.93a11.252,11.252,0,0,1,5.109-8.839,4.405,4.405,0,0,1,2.626-.681l-.058-20.341,18.941-14.574Z" transform="translate(-487.452 -312.409)" fill="#f5f5f5"/>
          </g>
          <g id="Group_1053" data-name="Group 1053">
            <path id="Path_1979" data-name="Path 1979" d="M478.286,322.828l-8.134-4.727,45.642-26.351,8.135,4.727Z" transform="translate(-470.152 -291.749)" fill="#049e84"/>
          </g>
          <g id="Group_1054" data-name="Group 1054" transform="translate(0 26.351)">
            <path id="Path_1980" data-name="Path 1980" d="M478.436,376.675l-8.134-4.727-.149-52.448,8.134,4.727Z" transform="translate(-470.152 -319.5)" fill="#049e84"/>
          </g>
          <g id="Group_1055" data-name="Group 1055" transform="translate(8.134 4.726)">
            <path id="Path_1981" data-name="Path 1981" d="M478.718,323.079l45.643-26.353.149,52.447-45.642,26.352Zm35.024-11.439-.113.09L494.688,326.3l.058,20.341a4.41,4.41,0,0,0-2.626.681,11.253,11.253,0,0,0-5.108,8.839c.01,3.256,2.312,4.564,5.141,2.93a11.254,11.254,0,0,0,5.106-8.845l-.063-21.6,14.066-10.864.045,15.617a4.364,4.364,0,0,0-2.626.676,11.265,11.265,0,0,0-5.108,8.843c.009,3.252,2.313,4.565,5.143,2.93a11.253,11.253,0,0,0,5.1-8.843l-.072-25.366Z" transform="translate(-478.718 -296.727)" fill="#0dd3b2"/>
          </g>
        </g>
      </g>
      <path id="Path_1982" data-name="Path 1982" d="M536.514,533.826,549.557,666.2a11.114,11.114,0,0,1-2.374,6.172c-1.7,1.9-2.515,2.392-1.9,4.036.821,2.193,9.245,17.206,25.4,16.38,4.924-.253,7.594-5.006,7.935-5.9l-1.178-153.449Z" transform="translate(-459.831 -303.938)" fill="#1e4470"/>
      <path id="Path_1983" data-name="Path 1983" d="M558.4,410.881c-5.341,2.733-16.473,15.4-21.093,44.274-3.761,23.5-3.562,72.424-3.562,72.424a29.048,29.048,0,0,0,2.612,11.613c3.323,6.647,40.594,14.956,56.5,3.323,2.287-1.672-.237-7.359.95-8.309a8.554,8.554,0,0,0,3.307-5.417s-5.344-39.884,5.466-88.3a165.28,165.28,0,0,0,3.888-34.873s.273-4.72-2.69-3.956c-14.3,3.687-30.619,6.719-30.619,6.719Z" transform="translate(-459.691 -297.288)" fill="#fc5a1a"/>
      <g id="Group_1059" data-name="Group 1059" transform="translate(109.25 27.23)">
        <path id="Path_1984" data-name="Path 1984" d="M604.465,334.434l-14.822-6.946-16.44,39.02c-4.922,11.083-1.238,15.066,2.005,16.777,6.737,3.565,16.219,3.644,21.163,3.367,9.571-.536,15.931-13.185,16.521-14.174l15.323-23.814Z" transform="translate(-570.81 -320.781)" fill="#ffe1cc"/>
        <path id="Path_1985" data-name="Path 1985" d="M596.8,322.127c-7,2.4-9.334,9.6-9.1,10.133,2.07,4.686-1.365,16.426-3.061,20.857l-1.558,4.192c-.8,1.4,0,4.508,2.14,2.96,2.381-1.742,1.6-4.416,3.271-5.063,1.7-.65,4.877.469,3.471,9.933l-.836,7.617c-.745,6.859,4.764,11.815,10.082,13.644,0,0,3.469.989,5.465-.133,1.41-.787,13.607-8.176,16.824-10.947,10.89-9.379,14.748-20.854,11.871-31.38-1.414-5.169-6.048-9.452-7.491-10.57-6.274-4.849-1.876-6.026-1.876-6.026-2.126-1.744-6.388-.289-8.023-.343-5.465-.187.091-3.5.424-3.774,0,0-1.394-1.465-5.486-.528-1.612.368-4.074,1.837-6.023,1.448-3.918-.791-.757-3.717-.953-3.72C603.735,320.334,596.8,322.127,596.8,322.127Z" transform="translate(-571.413 -320.425)" fill="#472506"/>
        <g id="Group_1058" data-name="Group 1058" transform="translate(10.194 32.268)">
          <path id="Path_1986" data-name="Path 1986" d="M588.941,356.668a6.112,6.112,0,0,1,1.72,6.178,7.053,7.053,0,0,1-3.524,4.673,6.283,6.283,0,0,1-3.687.445s3.392-5.783,3.952-6.887A43.015,43.015,0,0,0,588.941,356.668Z" transform="translate(-581.642 -354.521)" fill="#efcfbd"/>
          <path id="Path_1987" data-name="Path 1987" d="M588.167,354.479s-1.991-.658-1.988,2.006a12.022,12.022,0,0,1-1.367,6.219c-.688,1.275-3.265,4.611-3.265,4.611s-.151,2.815,2.637.724a18,18,0,0,0,4.126-5.409C588.917,361.529,590.327,355,588.167,354.479Z" transform="translate(-581.545 -354.407)" fill="#ffe8d9"/>
        </g>
      </g>
      <path id="Path_1988" data-name="Path 1988" d="M476.477,370.857c-2.32-2.666-.23-7.58,2.209-9.708.85-.744-3-6.2-3.382-9.163a2.962,2.962,0,0,1,3.5-3.409c.652.234,4.888,9.45,5.907,11.794,2.54,5.838.823,12.007-1.612,14.143S478.815,373.524,476.477,370.857Z" transform="translate(-456.742 -294.612)" fill="#ffe8d9"/>
      <path id="Path_1989" data-name="Path 1989" d="M479.6,379.31l3.845-7.449-4.574-10.614-1.19-1.359-10.542-9.932s-5.244-5.642-8.126-1.779l-.225,3.376a8.248,8.248,0,0,0-2.237,9.9l7.879,11.048C466.927,375.552,476.344,382.081,479.6,379.31Z" transform="translate(-455.758 -294.527)" fill="#ffe8d9"/>
      <path id="Path_1990" data-name="Path 1990" d="M476.73,378.825s25.561,43.858,40.954,51.388c8.815,4.311,48.765,7.166,48.765,7.166s18.2-.908,17.254-12.019c-.573-6.582-4.381-11.585-15.074-11.473-7.672.078-43.89-2.678-43.89-2.678s-31.168-27.219-40.058-41.746C483.074,366.839,476.73,378.825,476.73,378.825Z" transform="translate(-456.816 -295.65)" fill="#ffe8d9"/>
      <path id="Path_1991" data-name="Path 1991" d="M476.675,388.18S498.6,427.3,513.991,434.83c8.816,4.311,52.115,6.575,52.115,6.575s18.52-1.506,18.582-16.229c.029-6.971-4-14.671-14.7-14.558-7.672.078-43.889-2.678-43.889-2.678s-26.974-20.685-35.863-35.214c-.982-1.606-7.189,2.958-11.233,7.544C476.443,383.178,476.675,388.18,476.675,388.18Z" transform="translate(-456.813 -295.816)" fill="#fc7c4f"/>
    </g>
    <path id="Path_1992" data-name="Path 1992" d="M557.667,411.345s4.925-6.227,24.531-6.488c11.87-.158,21.408-2.984,22.551-5.144.712-1.346,2.374-.316,2.374-.316s7.6,3.165,9.5,8.862.871,18.6-1.5,25.718-16.05,22.292-18.517,8.229c-3.165-18.042-18.206-27.148-24.373-28.962A45.324,45.324,0,0,0,557.667,411.345Z" transform="translate(-16.423 -14.464)" fill="#f96632"/>
    <path id="Path_1993" data-name="Path 1993" d="M608.465,423.849c4.273,1.9,5.771-1.106,5.7-6.489-.1-7.025-3.352-13.926-6.5-18.263a1.321,1.321,0,0,0-1.656.617c-1.143,2.16-10.682,4.986-22.551,5.144-.264,0-.515.012-.774.018a21.919,21.919,0,0,1,9.478,4.73C599.919,416.41,604.192,421.949,608.465,423.849Z" transform="translate(-17.685 -14.464)" fill="#dd440e"/>
  </g>
</svg>
