<svg xmlns="http://www.w3.org/2000/svg" width="70.684" height="38.122" viewBox="0 0 70.684 38.122">
  <g id="Group_1553" data-name="Group 1553" transform="translate(-168.732 578.122) rotate(-90)">
    <path id="Path_2915" data-name="Path 2915" d="M567.328,658.589a33.558,33.558,0,0,1-24.906,13.967A2.26,2.26,0,0,1,540,670.3V658.55a2.257,2.257,0,0,1,1.988-2.248,17.346,17.346,0,0,0,11.7-6.561,2.255,2.255,0,0,1,2.951-.532l10.039,6.13A2.261,2.261,0,0,1,567.328,658.589Z" transform="translate(0 -433.146)" fill="#a1cc3a" fill-rule="evenodd"/>
    <path id="Path_2916" data-name="Path 2916" d="M757,369.971a40.3,40.3,0,0,1-3.858,17.337,1.926,1.926,0,0,1-2.845.861l-10.428-7.057a2.38,2.38,0,0,1-.773-2.88,21.179,21.179,0,0,0-.093-16.736,2.381,2.381,0,0,1,.744-2.886l10.349-7.2a1.924,1.924,0,0,1,2.856.825A40.256,40.256,0,0,1,757,369.971Z" transform="translate(-178.883 -165.877)" fill="#fff" fill-rule="evenodd"/>
    <path id="Path_2917" data-name="Path 2917" d="M566.529,185.6l-10.062,6.313a2.2,2.2,0,0,1-2.883-.486,17.341,17.341,0,0,0-11.62-6.437A2.2,2.2,0,0,1,540,182.816V170.931a2.2,2.2,0,0,1,2.357-2.194,33.551,33.551,0,0,1,24.771,13.7A2.2,2.2,0,0,1,566.529,185.6Z" transform="translate(0 0)" fill="#a1cc3a" fill-rule="evenodd"/>
  </g>
</svg>
