<svg xmlns="http://www.w3.org/2000/svg" width="96.633" height="122" viewBox="0 0 96.633 122">
  <g id="Group_1550" data-name="Group 1550" transform="translate(-299.43 -155.54)">
    <path id="Path_2903" data-name="Path 2903" d="M582.649,325.084Zm-3.871-6.245,1.419-2.912h1.454c.538,0,1.458.5,1.957.5v-.5a.451.451,0,0,1,.46-.46h.495a17.348,17.348,0,0,1,4.83.46h-.5a.489.489,0,0,1-.5.5h-.92c.46.5.46.5,1.419.5h.5l.46-.5v-.5c.46.5.46.5.955.5a.485.485,0,0,0-.495.5,1.586,1.586,0,0,0,.956-.5h0c.5,0,1,.5,1.5.5.46,0,.92.46,1.415.46a.486.486,0,0,1-.495.5s0-.5-.46-.5a.463.463,0,0,0,.46.5c.495.46.495.46.495.959l-.495-.5c-.46,0-.92.959-1.419.5,0-.5.5-.5.5-.959h0l-.5.46h-1l-.461.5h-.495c-5.29,1.914-5.75,3.832,4.826.46h1.419a.5.5,0,0,1,.534.5h.46v.957h0v.46c.5,0,.959,0,.959-.46a.463.463,0,0,0,.46-.5c.5.5.5.5.994.957h0v.959c0,.5.461.5.921.5v.458c.5,0,.5,0,.5.5,0,.458-.5.458-.5.957a.464.464,0,0,0-.46.5c0,.46.959,0,.959.46v.957h-.959a.451.451,0,0,1-.461-.46c-.5,0-.994.46-.994,0a1.036,1.036,0,0,1,.994-.957c.461,0,.461-.5.461-.5-.461-.5-.461,0-.956,0l-.5.5h-1.419s.5,0,0,.46h0a.451.451,0,0,1-.46-.46H596.1s-.5,0-.5.46c.5,0,.959-.46.959,0,0,.5-.46.5-.46.957a.463.463,0,0,0,.46.5h.534c.46,0,.46-.5.959-.5.46.5-.5.957-.959.957a1.6,1.6,0,0,0-.994.5c-.5,0-.959.46-.959,0v-.5a1.585,1.585,0,0,1-.959.5c-.495,0-1.415.46-1.415.959v.46h-1l-.5.5h-.461s-8.159.957-8.159,1.456c-2.452,1.418-6.284,7.2-5.747,8.62a1.479,1.479,0,0,0,.46.959h1.914c.46-.46.46-.959.921-1.419h1.454v.46l-.456.5v.46a.489.489,0,0,1-.5.5v.957h1.953a.45.45,0,0,1,.46.458v1c-.46,0-.46.461-.46.921,0,.5.959.957,1.419.957.495,0,.495-.46.955,0,.5,0,.5.5.959.5a1.726,1.726,0,0,0,.5-.957.487.487,0,0,1,.5-.5h.955a.451.451,0,0,1,.46-.46s.5-.461.5,0c0,0-.5,0,0,.46l.5-.46c.46,0,.46,0,.92.46h.495c0,.5,0,0,.461,0a.488.488,0,0,0,.5.5c.5,0,.5-.5,1-.5a.463.463,0,0,1,.46.5c.46,0,.46,0,.955.46h0a.488.488,0,0,0,.5.5l.46.5c.46.46.46.46.959.46h.994c.46,0,.959.5,1.419.959l.46.5v.46a1.734,1.734,0,0,1,.5,1l.5.46h.461c.46,0,.46.46.959.46h.461a.5.5,0,0,0,.537.5h.46a1.717,1.717,0,0,0,.955.5s0-.5.46-.5c0,.5.5.5.5.957a23.2,23.2,0,0,1-14.444,10.577c0-.5-.46-.5-.46-.959,0-.5.46-.957,0-.957v-1.456a1.031,1.031,0,0,1-.959-.959h-.959c-.46-.459-.955-.957-1.454-.957v-.459c0-.5,1.454-2.912,1.454-3.372-1.454-1.916-4.826-1.458-3.867-3.372v-.46c.495,0,.495,0,.495-.5.46,0,.46,0,.46-.5,0,0,.5,0,.5-.46v-1.916a1.541,1.541,0,0,1-.5-1c-.46,0-.46.5-.46.5-.495,0,0,.5-.495.5a1.585,1.585,0,0,0-.959-.5h-.46a1.476,1.476,0,0,0-.46-.957h-.538v-.5c-.456-.46-.456-.921-.955-.921a1.424,1.424,0,0,1-.959-.5h-.959c-.46-.5-.46-.957-1.416-.957h-.46a1.8,1.8,0,0,1-1.5-.5v-4.331c-.495,0-.955,3.871-1.415,3.871l-.5-.5h-.46c0-.46-.5-.46-.5-.959,0-1.415-3.372-7.2-2.912-4.788,0,.5,1.957,4.327.5,2.873-.5-.5,0,0,0-.959,0-.5-.959-.5-.959-.5a.45.45,0,0,1,.46-.458,1.768,1.768,0,0,0-.46-.957c-.461,0-.461-.5-.461-.959v-.5c0-.461,0-.461-.5-.461a.463.463,0,0,0-.46-.5v-.5c-.5-3.333,4.327-7.665,1.876-11.5,2.912-2.413,5.29-1.454,9.157-1.914ZM559.543,334.2a1.8,1.8,0,0,1-.495,1.456v7.663a1.727,1.727,0,0,1,.495,1.419c0,.5,0,.957.5.957a3.689,3.689,0,0,0,.46,2.415c0,.5.5.957.5,1.454s.5.5.5.959a.451.451,0,0,0,.46.46,1.8,1.8,0,0,0,.46,1.454c.495.959,1.454,1.918,1.914,2.875.5.5,1,.957,1.454,1.456a1.732,1.732,0,0,1,.5.957,1.586,1.586,0,0,1,.959.5,27.139,27.139,0,0,0,4.331,3.334c.495,0,.955.5,1.454.5a3.678,3.678,0,0,0,1.879.959,1.879,1.879,0,0,0,1.454.46,27.015,27.015,0,0,0,13.949.957c.495-.46,1.454-.46,2.452-.957.46,0,.46,0,.92-.46.994,0,1.454-.5,2.413-.959.46,0,.46-.5.994-.5a10.742,10.742,0,0,0,4.292-3.334,1.906,1.906,0,0,0,1-.5c.46-.459.46-.957.955-.957.46-.5.92-.959.92-1.456a7.44,7.44,0,0,0,1.918-2.376.486.486,0,0,1,.495-.5c0-.458.5-.957.5-1.454a.464.464,0,0,1,.5-.46v-.959c.46-.5.46-.957.959-1.454a19.583,19.583,0,0,0,.461-2.415,1.555,1.555,0,0,1,.456-.957v-2.376a5.859,5.859,0,0,0,.5-2.875c0-.955,0-1.953-.5-2.413V334.2c-.456,0-.456-.5-.456-.959,0-.994-.461-1.454-.461-2.413a.489.489,0,0,1-.5-.5c0-.458-.46-1.415-.46-1.914a.464.464,0,0,1-.5-.46c0-.5-.5-.5-.5-.959a22.3,22.3,0,0,1-2.413-3.37s-.46-.957-.92-.957c-.495-.5-.495-.959-.955-.959,0-.5-.537-.5-1-.959-.5-.5-.959-.957-1.419-1.454-.994-.46-1.914-1.419-2.873-1.916-.534,0-.534-.46-.994-.46a.488.488,0,0,1-.5-.5h-.92c-.5-.5-.5-.5-.994-.5h0a1.607,1.607,0,0,0-.92-.46h0a4.426,4.426,0,0,0-2.452-.5,1.607,1.607,0,0,0-.92-.46h-.5c-.959,0-2.413-.5-3.871-.5h-1.415a19.521,19.521,0,0,0-7.243,1.456c-.46,0-.959.46-1.454.46h0c-.46,0-.46.5-.92.5a1.586,1.586,0,0,0-.959.5c-.5,0-.959.46-1.454.46-1.458.957-2.417,1.916-3.832,2.873a.487.487,0,0,1-.5.5,7.06,7.06,0,0,0-1.458,1.918c-.456,0-.955.957-1.454.957A18.035,18.035,0,0,1,562.42,327c-.46.46-.46.46-.46.959a.451.451,0,0,0-.46.46c0,.5-.5,1.456-.5,1.914a.489.489,0,0,0-.5.5,4.471,4.471,0,0,0-.46,2.413,1.424,1.424,0,0,0-.5.959Z" transform="translate(-213.982 -130.614)" fill="#fff" fill-rule="evenodd"/>
    <path id="Path_2904" data-name="Path 2904" d="M370.564,177.369a31.833,31.833,0,0,1,5.309.443V162.3a6.759,6.759,0,0,0-6.761-6.759H306.189a6.759,6.759,0,0,0-6.759,6.759V270.781a6.76,6.76,0,0,0,6.759,6.759h62.923a6.76,6.76,0,0,0,6.761-6.759V240.36a31.834,31.834,0,0,1-5.309.443q-.954,0-1.9-.056v6.522H307.1V170.905h61.571v6.52Q369.608,177.37,370.564,177.369ZM359.129,259.4h5.2a1.81,1.81,0,0,1,1.811,1.811V264.6a1.81,1.81,0,0,1-1.811,1.811h-5.2Zm-21.518-4.426a7.682,7.682,0,1,1-7.682,7.682A7.683,7.683,0,0,1,337.612,254.971Zm-26.65,5.982a1.653,1.653,0,0,1,1.654-1.652h5.356v7.008h-5.356a1.653,1.653,0,0,1-1.654-1.652ZM352.8,165.618H322.459v-3.832H352.8Z" transform="translate(0 0)" fill="#a1cc3a" fill-rule="evenodd"/>
    <path id="Path_2905" data-name="Path 2905" d="M646.058,748.181v3.387a1.81,1.81,0,0,1-1.811,1.81h-5.2V746.37h5.2A1.81,1.81,0,0,1,646.058,748.181Z" transform="translate(-279.921 -486.973)" fill="none" stroke="#a1cc3a" stroke-miterlimit="10" stroke-width="1" fill-rule="evenodd"/>
    <path id="Path_2906" data-name="Path 2906" d="M646.058,748.181v3.387a1.81,1.81,0,0,1-1.811,1.81h-5.2V746.37h5.2A1.81,1.81,0,0,1,646.058,748.181Z" transform="translate(-279.921 -486.973)" fill="none" stroke="#a1cc3a" stroke-miterlimit="10" stroke-width="1" fill-rule="evenodd"/>
  </g>
</svg>
