<svg xmlns="http://www.w3.org/2000/svg" width="121.549" height="121.932" viewBox="0 0 121.549 121.932">
  <g id="Group_1551" data-name="Group 1551" transform="translate(-299.43 -155.54)">
    <path id="Path_2907" data-name="Path 2907" d="M370.524,177.356a31.814,31.814,0,0,1,5.306.443V162.3a6.755,6.755,0,0,0-6.757-6.755H306.185a6.755,6.755,0,0,0-6.755,6.755V270.716a6.756,6.756,0,0,0,6.755,6.755h62.888a6.757,6.757,0,0,0,6.757-6.755v-30.4a31.815,31.815,0,0,1-5.306.443q-.954,0-1.9-.056v6.518H307.092V170.9h61.537v6.516Q369.569,177.357,370.524,177.356ZM359.1,259.339h5.2a1.809,1.809,0,0,1,1.81,1.81v3.385a1.809,1.809,0,0,1-1.81,1.81h-5.2Zm-21.505-4.424a7.677,7.677,0,1,1-7.677,7.677A7.679,7.679,0,0,1,337.59,254.915Zm-26.635,5.979a1.652,1.652,0,0,1,1.653-1.651h5.353v7h-5.353a1.652,1.652,0,0,1-1.653-1.651Zm41.82-95.282H322.446v-3.83h30.328Z" transform="translate(0)" fill="#a1cc3a" fill-rule="evenodd"/>
    <path id="Path_2908" data-name="Path 2908" d="M646.054,748.18v3.385a1.809,1.809,0,0,1-1.81,1.81h-5.2v-7h5.2A1.809,1.809,0,0,1,646.054,748.18Z" transform="translate(-279.954 -487.031)" fill="none" stroke="#a1cc3a" stroke-miterlimit="10" stroke-width="1" fill-rule="evenodd"/>
    <path id="Path_2909" data-name="Path 2909" d="M646.054,748.18v3.385a1.809,1.809,0,0,1-1.81,1.81h-5.2v-7h5.2A1.809,1.809,0,0,1,646.054,748.18Z" transform="translate(-279.954 -487.031)" fill="none" stroke="#a1cc3a" stroke-miterlimit="10" stroke-width="1" fill-rule="evenodd"/>
    <path id="Path_2910" data-name="Path 2910" d="M579.122,302.99a26.863,26.863,0,1,0,26.864,26.862A26.862,26.862,0,0,0,579.122,302.99Zm0,45.523a18.66,18.66,0,1,1,18.659-18.661A18.66,18.66,0,0,1,579.122,348.513Z" transform="translate(-208.412 -121.545)" fill="#fff" fill-rule="evenodd"/>
    <path id="Path_2911" data-name="Path 2911" d="M841.595,594.653l-13.708-13.708-.824.824-5.815-5.815-4.838-4.838-5.039,5.04,4.838,4.838,5.815,5.815-.824.824,13.708,13.708a4.729,4.729,0,0,0,6.688,0h0A4.729,4.729,0,0,0,841.595,594.653Z" transform="translate(-422 -342.566)" fill="#fff" fill-rule="evenodd"/>
  </g>
</svg>
