<svg xmlns="http://www.w3.org/2000/svg" xmlns:xlink="http://www.w3.org/1999/xlink" width="598.989" height="544.595" viewBox="0 0 598.989 544.595">
  <defs>
    <linearGradient id="linear-gradient" x1="12.334" y1="-1.536" x2="12.585" y2="-2.51" gradientUnits="objectBoundingBox">
      <stop offset="0" stop-color="#38c0ff" stop-opacity="0.2"/>
      <stop offset="1" stop-color="#61aeff" stop-opacity="0.4"/>
    </linearGradient>
    <linearGradient id="linear-gradient-2" x1="11.174" y1="-1.761" x2="11.174" y2="-2.831" xlink:href="#linear-gradient"/>
    <linearGradient id="linear-gradient-3" x1="6.942" y1="-1.756" x2="5.911" y2="-2.219" gradientUnits="objectBoundingBox">
      <stop offset="0" stop-color="#52dcff"/>
      <stop offset="1" stop-color="#ffbcff"/>
    </linearGradient>
    <linearGradient id="linear-gradient-4" x1="0.072" y1="0.94" x2="0.899" y2="0.298" gradientUnits="objectBoundingBox">
      <stop offset="0.005" stop-color="#ccb8ff"/>
      <stop offset="0.519" stop-color="#b1c6ff"/>
      <stop offset="1" stop-color="#9dd1ff"/>
    </linearGradient>
    <linearGradient id="linear-gradient-5" x1="0.643" y1="-0.085" x2="0.818" y2="1.162" gradientUnits="objectBoundingBox">
      <stop offset="0" stop-color="#fff" stop-opacity="0"/>
      <stop offset="1" stop-color="#fff" stop-opacity="0.4"/>
    </linearGradient>
    <linearGradient id="linear-gradient-6" x1="-0.671" y1="1.714" x2="0.306" y2="1.714" gradientUnits="objectBoundingBox">
      <stop offset="0" stop-color="#501eff"/>
      <stop offset="1" stop-color="#189dff"/>
    </linearGradient>
    <radialGradient id="radial-gradient" cx="0.422" cy="0.446" r="0.611" gradientTransform="matrix(-0.999, -0.04, -0.04, 0.999, 38.618, 0.777)" gradientUnits="objectBoundingBox">
      <stop offset="0.124" stop-color="#ffff70"/>
      <stop offset="0.223" stop-color="#ffef65"/>
      <stop offset="0.578" stop-color="#ffbb43"/>
      <stop offset="0.846" stop-color="#ff9c2e"/>
      <stop offset="0.995" stop-color="#ff9027"/>
    </radialGradient>
    <radialGradient id="radial-gradient-2" cx="0.581" cy="0.451" r="0.611" gradientTransform="matrix(0.453, -0.892, -0.892, -0.453, 39.655, 64.598)" gradientUnits="objectBoundingBox">
      <stop offset="0.124" stop-color="#00fffe"/>
      <stop offset="0.256" stop-color="#00e5fe"/>
      <stop offset="0.546" stop-color="#00b1fe"/>
      <stop offset="0.766" stop-color="#0092fe"/>
      <stop offset="0.887" stop-color="#0086ff"/>
    </radialGradient>
    <radialGradient id="radial-gradient-3" cx="0.537" cy="0.413" r="0.611" gradientTransform="matrix(-0.162, -0.987, -0.987, 0.162, 92.586, 78.634)" xlink:href="#radial-gradient-2"/>
    <radialGradient id="radial-gradient-4" cx="0.448" cy="0.421" r="0.611" gradientTransform="matrix(-0.911, -0.413, -0.413, 0.911, 187.305, 40.451)" xlink:href="#radial-gradient"/>
    <radialGradient id="radial-gradient-5" cx="0.448" cy="0.421" r="0.611" gradientTransform="matrix(-0.911, -0.413, -0.413, 0.911, 254.932, 55.057)" xlink:href="#radial-gradient"/>
    <radialGradient id="radial-gradient-6" cx="0.581" cy="0.451" r="0.611" gradientTransform="matrix(0.444, -0.896, -0.896, -0.444, 21.68, 34.951)" xlink:href="#radial-gradient"/>
    <linearGradient id="linear-gradient-7" x1="-0.501" y1="0.533" x2="0.497" y2="0.533" gradientUnits="objectBoundingBox">
      <stop offset="0" stop-color="#9ceaff"/>
      <stop offset="0.213" stop-color="#99e8ff"/>
      <stop offset="0.307" stop-color="#92e3ff"/>
      <stop offset="0.378" stop-color="#85d9ff"/>
      <stop offset="0.438" stop-color="#73ccff"/>
      <stop offset="0.489" stop-color="#5cbbff"/>
      <stop offset="0.5" stop-color="#57b7ff"/>
      <stop offset="0.601" stop-color="#62bcff"/>
      <stop offset="0.78" stop-color="#80caff"/>
      <stop offset="1" stop-color="#aee0ff"/>
    </linearGradient>
    <linearGradient id="linear-gradient-8" x1="-0.352" y1="0.547" x2="0.66" y2="0.547" xlink:href="#linear-gradient-7"/>
    <linearGradient id="linear-gradient-9" x1="-0.301" y1="0.4" x2="0.711" y2="0.4" xlink:href="#linear-gradient-7"/>
    <linearGradient id="linear-gradient-10" x1="-2.073" y1="-0.201" x2="-1.066" y2="-0.201" xlink:href="#linear-gradient-7"/>
    <linearGradient id="linear-gradient-11" x1="-0.132" y1="0.005" x2="0.686" y2="0.772" gradientUnits="objectBoundingBox">
      <stop offset="0" stop-color="#7f00a9"/>
      <stop offset="0.284" stop-color="#7d00a8"/>
      <stop offset="0.386" stop-color="#7600a5"/>
      <stop offset="0.459" stop-color="#6a00a0"/>
      <stop offset="0.518" stop-color="#59009a"/>
      <stop offset="0.538" stop-color="#520097"/>
      <stop offset="0.765" stop-color="#550098"/>
      <stop offset="0.941" stop-color="#5e009c"/>
      <stop offset="1" stop-color="#64009e"/>
    </linearGradient>
    <linearGradient id="linear-gradient-12" x1="-0.231" y1="0.92" x2="0.704" y2="-0.014" gradientUnits="objectBoundingBox">
      <stop offset="0" stop-color="#fcbb45"/>
      <stop offset="0.409" stop-color="#f75274"/>
      <stop offset="0.733" stop-color="#d53692"/>
      <stop offset="0.962" stop-color="#a600c7"/>
    </linearGradient>
    <linearGradient id="linear-gradient-13" x1="0.52" y1="0.013" x2="1.321" y2="0.743" gradientUnits="objectBoundingBox">
      <stop offset="0" stop-color="#d81428"/>
      <stop offset="0.153" stop-color="#d51428"/>
      <stop offset="0.262" stop-color="#cb1428"/>
      <stop offset="0.358" stop-color="#bc1428"/>
      <stop offset="0.445" stop-color="#a61428"/>
      <stop offset="0.489" stop-color="#981428"/>
      <stop offset="1" stop-color="#d81428"/>
    </linearGradient>
    <linearGradient id="linear-gradient-14" x1="-2.487" y1="0.246" x2="-1.669" y2="1.015" gradientUnits="objectBoundingBox">
      <stop offset="0" stop-color="#a11428"/>
      <stop offset="0.254" stop-color="#9f1428"/>
      <stop offset="0.345" stop-color="#981428"/>
      <stop offset="0.41" stop-color="#8c1428"/>
      <stop offset="0.462" stop-color="#7b1428"/>
      <stop offset="0.5" stop-color="#6a1428"/>
      <stop offset="0.978" stop-color="#8d1428"/>
    </linearGradient>
    <linearGradient id="linear-gradient-15" x1="0.267" y1="0.433" x2="1.022" y2="1.138" gradientUnits="objectBoundingBox">
      <stop offset="0" stop-color="#0064ff"/>
      <stop offset="0.257" stop-color="#0063fd"/>
      <stop offset="0.35" stop-color="#0060f6"/>
      <stop offset="0.416" stop-color="#005cea"/>
      <stop offset="0.469" stop-color="#0056d9"/>
      <stop offset="0.5" stop-color="#0052cc"/>
      <stop offset="0.672" stop-color="#0055d0"/>
      <stop offset="0.866" stop-color="#005ede"/>
      <stop offset="1" stop-color="#0068ec"/>
    </linearGradient>
    <linearGradient id="linear-gradient-16" x1="0.094" y1="0.317" x2="0.878" y2="1.037" xlink:href="#linear-gradient-7"/>
    <linearGradient id="linear-gradient-17" x1="0.632" y1="-0.036" x2="1.42" y2="-0.036" xlink:href="#linear-gradient-7"/>
    <linearGradient id="linear-gradient-18" x1="0.701" y1="-0.285" x2="1.446" y2="0.415" gradientUnits="objectBoundingBox">
      <stop offset="0" stop-color="#00aeff"/>
      <stop offset="0.305" stop-color="#00acfd"/>
      <stop offset="0.414" stop-color="#00a5f7"/>
      <stop offset="0.492" stop-color="#09e"/>
      <stop offset="0.5" stop-color="#0098ed"/>
      <stop offset="0.712" stop-color="#009cf0"/>
      <stop offset="0.95" stop-color="#00aafb"/>
      <stop offset="1" stop-color="#00aeff"/>
    </linearGradient>
    <linearGradient id="linear-gradient-19" x1="0.191" y1="-0.116" x2="0.853" y2="0.599" gradientUnits="objectBoundingBox">
      <stop offset="0" stop-color="#a11428"/>
      <stop offset="0.507" stop-color="#9f1428"/>
      <stop offset="0.69" stop-color="#981428"/>
      <stop offset="0.82" stop-color="#8c1428"/>
      <stop offset="0.925" stop-color="#7b1428"/>
      <stop offset="1" stop-color="#6a1428"/>
    </linearGradient>
    <linearGradient id="linear-gradient-20" x1="0.706" y1="0.989" x2="1.373" y2="1.706" xlink:href="#linear-gradient-19"/>
    <linearGradient id="linear-gradient-21" x1="-0.697" y1="0.229" x2="0.023" y2="0.922" gradientUnits="objectBoundingBox">
      <stop offset="0" stop-color="#0061e3"/>
      <stop offset="0.262" stop-color="#005fe2"/>
      <stop offset="0.356" stop-color="#0058df"/>
      <stop offset="0.423" stop-color="#004cdb"/>
      <stop offset="0.477" stop-color="#003bd4"/>
      <stop offset="0.5" stop-color="#0032d1"/>
      <stop offset="0.664" stop-color="#003dd5"/>
      <stop offset="0.954" stop-color="#005be0"/>
      <stop offset="1" stop-color="#0061e3"/>
    </linearGradient>
    <linearGradient id="linear-gradient-22" x1="4.598" y1="0.514" x2="5.597" y2="0.514" gradientUnits="objectBoundingBox">
      <stop offset="0.398" stop-color="#eb8e00"/>
      <stop offset="0.56" stop-color="#ec9200"/>
      <stop offset="0.738" stop-color="#f19f00"/>
      <stop offset="0.923" stop-color="#fab500"/>
      <stop offset="1" stop-color="#ffc100"/>
    </linearGradient>
  </defs>
  <g id="Group_1111" data-name="Group 1111" transform="translate(-33.498 -38.086)">
    <g id="Group_1072" data-name="Group 1072" transform="translate(190.556 149.348)">
      <g id="Group_1071" data-name="Group 1071" transform="translate(0 0)">
        <path id="Path_1994" data-name="Path 1994" d="M394.259,449.716a107.249,107.249,0,0,0,10.089-5.868c1.636-1.27,4.22-5.3,4.22-5.3.05.138-80.474-202.006-116.443-300.444-2.82-7.719-10-12.938-16.015-11.64C241.973,134,185.356,142.091,166.751,145.31c-12.428,2.152-19.245,12.95-14.982,24.61l119.673,327.4c3.147,8.606,9.761,11.139,15.26,9.926a41.7,41.7,0,0,0,9.688-3.972C331.247,485.056,359.127,467.653,394.259,449.716Z" transform="translate(-150.497 -119.154)" fill="#fff"/>
        <path id="Path_1995" data-name="Path 1995" d="M405.721,444.705c5.461-2.8,7.607-11.363,4.783-19.094-35.952-98.4-71.069-194.428-107-292.778-2.823-7.725-10.01-12.958-16.025-11.668-39.677,8.6-83.091,17.569-122.869,25.893-6.03,1.25-8.374,9.273-5.223,17.891,39.972,109.367,79.55,219.845,119.565,329.326,3.152,8.626,10.147,13.331,15.595,10.495C330.528,486.1,369.632,463.093,405.721,444.705Z" transform="translate(-147.933 -120.969)" fill="#0537a5"/>
        <path id="Path_1996" data-name="Path 1996" d="M285.723,123.348s-22.715,4.784-56.842,11.81c-17.039,3.58-36.929,7.728-58.256,12.127l-4.011.84-.252.052-.272.077-.49.141a7.331,7.331,0,0,0-1,.422c-.326.165-.607.388-.913.581-.275.238-.553.478-.813.741-2.032,2.173-2.945,5.952-2.265,10.135a20.083,20.083,0,0,0,.756,3.143c.336,1.079.709,1.993,1.063,3q1.073,2.95,2.156,5.915,2.161,5.93,4.344,11.916l17.636,48.381c11.876,32.409,23.751,64.819,34.885,95.205,11.175,30.369,21.6,58.712,30.543,83.005,17.969,48.545,29.945,80.894,29.945,80.892s-11.722-32.483-29.29-81.173c-8.83-24.327-19.13-52.7-30.164-83.094-11.075-30.378-22.886-62.78-34.7-95.174-5.932-16.189-11.865-32.38-17.7-48.317q-2.191-5.976-4.361-11.9-1.083-2.962-2.164-5.908a28.912,28.912,0,0,1-1.709-5.678c-.611-3.7.195-7.06,1.989-9,.231-.232.477-.446.72-.66.268-.168.526-.375.8-.515a6.118,6.118,0,0,1,.863-.373c.164-.047.326-.1.49-.144l.217-.063.251-.054,4-.858c21.246-4.622,41.064-8.967,58.045-12.708C263.138,128.489,285.723,123.344,285.723,123.348Z" transform="translate(-147.111 -120.155)" fill="url(#linear-gradient)"/>
        <path id="Path_1997" data-name="Path 1997" d="M371.7,441.987s.224-.129.658-.381a8.252,8.252,0,0,0,1.741-1.5,10.682,10.682,0,0,0,2.008-3.545,15.615,15.615,0,0,0,.744-6.172,17.051,17.051,0,0,0-.714-3.819c-.4-1.309-.91-2.595-1.391-3.982q-1.476-4.128-3.185-8.909c-2.281-6.356-4.855-13.526-7.664-21.347l-19.3-53.381c-7.1-19.509-13.847-37.971-21.416-58.775l-22.4-61.06-19.655-53.235c-2.9-7.787-5.548-14.926-7.9-21.254q-1.77-4.744-3.308-8.86c-.526-1.369-.967-2.681-1.5-3.936a17.093,17.093,0,0,0-1.92-3.391,15.907,15.907,0,0,0-4.561-4.278A10.933,10.933,0,0,0,258.1,122.7a8.4,8.4,0,0,0-2.308-.055l-.754.122.76-.1a8.473,8.473,0,0,1,2.309.107,11.023,11.023,0,0,1,3.8,1.525,15.8,15.8,0,0,1,4.435,4.282,16.621,16.621,0,0,1,1.824,3.326c.5,1.226.937,2.567,1.439,3.933.983,2.747,2.044,5.719,3.18,8.893,2.278,6.348,4.849,13.51,7.654,21.324,5.647,15.619,12.236,33.844,19.3,53.376,7.1,19.52,14.68,40.342,22.259,61.166,7.632,20.806,14.439,39.265,21.592,58.77,7.2,19.487,13.911,37.674,19.666,53.262,2.894,7.785,5.548,14.922,7.9,21.247q1.77,4.74,3.3,8.853c.5,1.368,1.032,2.677,1.435,3.935a16.592,16.592,0,0,1,.748,3.714,15.518,15.518,0,0,1-.643,6.1,10.783,10.783,0,0,1-1.936,3.571,8.27,8.27,0,0,1-1.708,1.538Z" transform="translate(-114.703 -120.413)" fill="url(#linear-gradient-2)"/>
        <g id="Group_1070" data-name="Group 1070" transform="translate(16.845 5.475)">
          <path id="Path_1998" data-name="Path 1998" d="M167.131,151.4c9.262-1.984,22.86-5.068,32.115-7.068.7-.15,1.553.513,1.906,1.482l1.7,4.638c1.7,4.647,5.778,7.8,9.109,7.031q24.334-5.553,48.647-11.163c3.33-.772,4.716-4.994,3.1-9.428l-1.619-4.431c-.338-.926-.048-1.8.651-1.954,9.245-2.03,15.746-3.289,24.986-5.331,3.7-.813,8.158,2.431,9.906,7.213,36.047,98.663,71.278,195,107.344,293.715,1.748,4.782.417,10.093-2.956,11.8-36.148,18.227-73.484,40.031-109.535,58.523-3.365,1.729-7.7-1.185-9.636-6.48-39.862-109.068-79.119-218.54-118.94-327.5C161.968,157.159,163.422,152.187,167.131,151.4Z" transform="translate(-163.045 -125.048)" fill="url(#linear-gradient-3)"/>
          <g id="Group_1069" data-name="Group 1069" transform="translate(68.914 83.638)">
            <path id="Path_1999" data-name="Path 1999" d="M296.3,220.929c8.567,23.3-1.673,48.5-22.869,56.3s-46.055-6.755-55.525-32.509.784-50.916,22.884-56.257S287.736,197.63,296.3,220.929Z" transform="translate(-214.382 -187.353)" fill="#fff" opacity="0.25"/>
            <path id="Path_2000" data-name="Path 2000" d="M283.9,221.03c6.531,17.758-1.176,36.729-17.213,42.367s-34.746-5.313-41.787-24.462.673-38.1,17.222-42.344S277.371,203.272,283.9,221.03Z" transform="translate(-211.673 -184.505)" fill="#fff"/>
            <path id="Path_2001" data-name="Path 2001" d="M258.1,226.982a14.625,14.625,0,0,0,1.334-13.393c-2.835-7.708-10.8-12.414-17.789-10.518s-10.287,9.881-7.36,17.839a17.072,17.072,0,0,0,10.037,10.277c-6.621,5.579-9.016,15.95-5.274,26.127l.447,1.216c7.371,4.062,15.7,5.151,23.456,2.478a28.5,28.5,0,0,0,16.718-15.844q-.215-.584-.428-1.165C275.671,234.3,267.07,227.794,258.1,226.982Z" transform="translate(-207.934 -182.116)" fill="url(#linear-gradient-4)"/>
            <g id="Group_1062" data-name="Group 1062" transform="translate(29.906 102.253)">
              <path id="Path_2002" data-name="Path 2002" d="M249.5,309.934a8.268,8.268,0,0,1-6.732-.4,10.714,10.714,0,0,1-5.174-5.982c-.068-.187-.137-.373-.207-.558-1.989-5.414.235-11.311,4.959-13.149q32.944-12.875,65.9-25.726a8.93,8.93,0,0,1,7.159.337,9.563,9.563,0,0,1,4.732,5.323l.188.51a9.857,9.857,0,0,1-5.191,12.484h0q-32.711,13.513-65.405,27.072C249.654,309.875,249.576,309.9,249.5,309.934Zm59.355-44.527c-.034.013-.066.027-.1.039q-32.948,12.867-65.889,25.76c-4.053,1.577-5.955,6.654-4.239,11.316l.205.56a9.2,9.2,0,0,0,4.437,5.136,6.971,6.971,0,0,0,5.923.268q32.7-13.543,65.419-27.037a8.451,8.451,0,0,0,4.478-10.7l-.188-.51a8.119,8.119,0,0,0-4.015-4.516A7.533,7.533,0,0,0,308.856,265.407Z" transform="translate(-236.66 -263.526)" fill="#fff"/>
            </g>
            <g id="Group_1063" data-name="Group 1063" transform="translate(40.29 128.196)">
              <path id="Path_2003" data-name="Path 2003" d="M257.016,331.389a8.039,8.039,0,0,1-6.528-.293,10.422,10.422,0,0,1-5.151-5.907l-.205-.56c-1.988-5.407.189-11.416,4.855-13.393q32.578-13.876,65.176-27.695a8.593,8.593,0,0,1,7.1.16,9.306,9.306,0,0,1,4.71,5.254l.188.511a10.207,10.207,0,0,1-5.092,12.719h0q-32.356,14.482-64.682,29.043C257.266,331.284,257.141,331.339,257.016,331.389Zm58.916-46.623c-.081.031-.16.063-.239.1Q283.1,298.7,250.528,312.593c-4.014,1.7-5.881,6.886-4.164,11.555l.207.561a8.924,8.924,0,0,0,4.4,5.061,6.825,6.825,0,0,0,5.86.113q32.332-14.544,64.7-29.009a8.774,8.774,0,0,0,4.4-10.927c-.063-.17-.126-.341-.188-.511a7.878,7.878,0,0,0-3.984-4.446A7.3,7.3,0,0,0,315.932,284.766Z" transform="translate(-244.396 -282.851)" fill="#fff"/>
            </g>
            <g id="Group_1064" data-name="Group 1064" transform="translate(39.979 123.083)">
              <path id="Path_2004" data-name="Path 2004" d="M247.967,286.216q.711,1.935,1.423,3.869a2.556,2.556,0,0,1,.078,1.815,1.984,1.984,0,0,1-1.192,1.156,1.781,1.781,0,0,1-1.6-.028,2.544,2.544,0,0,1-1.087-1.427l-1.422-3.869c.192-.078.385-.154.577-.231l1.44,3.916a1.793,1.793,0,0,0,.762,1.016,1.3,1.3,0,0,0,1.145,0,1.33,1.33,0,0,0,.818-.795,1.882,1.882,0,0,0-.086-1.293q-.715-1.949-1.432-3.9C247.582,286.37,247.775,286.294,247.967,286.216Z" transform="translate(-244.164 -276.587)" fill="#fff"/>
              <path id="Path_2005" data-name="Path 2005" d="M251.9,289.437a1.323,1.323,0,0,1-.032,1.118,1.783,1.783,0,0,1-.961.777,2.158,2.158,0,0,1-1.256.187c-.077-.209-.154-.419-.231-.628a2.645,2.645,0,0,0,.669.024,2.224,2.224,0,0,0,.627-.146,1.3,1.3,0,0,0,.616-.443.653.653,0,0,0,.048-.613.622.622,0,0,0-.353-.369,2.925,2.925,0,0,0-.9-.142,3.786,3.786,0,0,1-.889-.109,1.156,1.156,0,0,1-.47-.263,1.235,1.235,0,0,1-.3-.485,1.177,1.177,0,0,1,.052-1.012,1.68,1.68,0,0,1,.9-.722,2.723,2.723,0,0,1,1.283-.176c0,.209,0,.42,0,.63a2.469,2.469,0,0,0-1.117.13,1.119,1.119,0,0,0-.549.392.54.54,0,0,0-.051.5.6.6,0,0,0,.189.274.8.8,0,0,0,.334.144,5.288,5.288,0,0,0,.773.067,2.457,2.457,0,0,1,1.109.223A1.188,1.188,0,0,1,251.9,289.437Z" transform="translate(-242.72 -276.516)" fill="#fff"/>
              <path id="Path_2006" data-name="Path 2006" d="M253.942,290.076A1.645,1.645,0,0,1,252.42,290a2.706,2.706,0,0,1-1.091-1.479,3.193,3.193,0,0,1-.188-1.891,1.546,1.546,0,0,1,.958-1.112,1.371,1.371,0,0,1,1.31.109,2.446,2.446,0,0,1,.94,1.286l.157.426q-1.281.517-2.563,1.032a2.068,2.068,0,0,0,.769,1.059,1.1,1.1,0,0,0,1.032.047,2.875,2.875,0,0,0,1.078-.78q.109.3.22.6a3.083,3.083,0,0,1-.483.45A2.976,2.976,0,0,1,253.942,290.076Zm-1.642-3.988a.945.945,0,0,0-.587.638,1.935,1.935,0,0,0,.042,1.093l1.945-.783a1.752,1.752,0,0,0-.6-.881A.821.821,0,0,0,252.3,286.088Z" transform="translate(-241.8 -276.865)" fill="#fff"/>
              <path id="Path_2007" data-name="Path 2007" d="M255.372,284.28a1.977,1.977,0,0,1,.463-.13c.05.217.1.436.15.654a1.772,1.772,0,0,0-.43.1,1.051,1.051,0,0,0-.612.746,1.943,1.943,0,0,0,.081,1.218l.875,2.381-.562.228L253.7,285.04l.466-.187.366.8.027-.011a2.094,2.094,0,0,1,.254-.869A1.107,1.107,0,0,1,255.372,284.28Z" transform="translate(-240.898 -277.294)" fill="#fff"/>
              <path id="Path_2008" data-name="Path 2008" d="M259.99,287.6q-.526-1.428-1.05-2.855a1.341,1.341,0,0,0-.5-.722.8.8,0,0,0-.748-.007,1.093,1.093,0,0,0-.717.718,2.33,2.33,0,0,0,.184,1.348l.854,2.321-.564.228q-.813-2.213-1.628-4.427l.459-.184.314.569.028-.011a1.371,1.371,0,0,1,.3-.7,1.539,1.539,0,0,1,.631-.459,1.353,1.353,0,0,1,1.153-.019,1.894,1.894,0,0,1,.792,1.094q.53,1.44,1.058,2.878C260.365,287.446,260.178,287.522,259.99,287.6Z" transform="translate(-240.174 -277.592)" fill="#fff"/>
              <path id="Path_2009" data-name="Path 2009" d="M262.842,286.373l-.342-.58-.028.011a1.874,1.874,0,0,1-.348.784,1.62,1.62,0,0,1-.636.427,1.183,1.183,0,0,1-.991.013,1.4,1.4,0,0,1-.667-.834q-.491-1.335,1.287-2.125l.623-.278-.1-.272a1.3,1.3,0,0,0-.47-.689.754.754,0,0,0-.694-.005,2.4,2.4,0,0,0-.928.76l-.362-.442a2.728,2.728,0,0,1,.5-.518,2.464,2.464,0,0,1,.62-.364,1.355,1.355,0,0,1,1.116-.044,1.674,1.674,0,0,1,.732.989l1.1,3Zm-1.446.046a1.164,1.164,0,0,0,.7-.675,1.511,1.511,0,0,0-.051-1.077l-.145-.4-.553.255a1.974,1.974,0,0,0-.878.638.863.863,0,0,0-.047.8.775.775,0,0,0,.387.477A.731.731,0,0,0,261.4,286.418Z" transform="translate(-239.02 -277.99)" fill="#fff"/>
              <path id="Path_2010" data-name="Path 2010" d="M268.234,284.476q-.521-1.42-1.044-2.839a1.386,1.386,0,0,0-.477-.707.725.725,0,0,0-.69-.023.991.991,0,0,0-.647.667,2.073,2.073,0,0,0,.153,1.192l.9,2.442-.564.228-1.047-2.846a1.384,1.384,0,0,0-.478-.709.72.72,0,0,0-.691-.023.954.954,0,0,0-.638.683,2.465,2.465,0,0,0,.2,1.326l.846,2.3-.564.228q-.805-2.193-1.614-4.388l.459-.183.313.564.027-.011a1.345,1.345,0,0,1,.85-1.121,1.143,1.143,0,0,1,1.416.286l.027-.011a1.434,1.434,0,0,1,.283-.734,1.455,1.455,0,0,1,.647-.489,1.218,1.218,0,0,1,1.086,0,1.97,1.97,0,0,1,.761,1.09l1.047,2.846Z" transform="translate(-238.098 -278.652)" fill="#fff"/>
              <path id="Path_2011" data-name="Path 2011" d="M269.813,283.611a1.654,1.654,0,0,1-1.516-.062,2.586,2.586,0,0,1-1.078-1.44,3.042,3.042,0,0,1-.172-1.851,1.547,1.547,0,0,1,.962-1.1,1.376,1.376,0,0,1,1.3.1,2.346,2.346,0,0,1,.929,1.252l.153.416-2.563,1.031a1.986,1.986,0,0,0,.758,1.031,1.108,1.108,0,0,0,1.03.039,2.946,2.946,0,0,0,1.081-.773c.071.2.144.392.215.587a3.057,3.057,0,0,1-.486.446A2.991,2.991,0,0,1,269.813,283.611Zm-1.607-3.894a.955.955,0,0,0-.589.628,1.876,1.876,0,0,0,.034,1.071l1.945-.783a1.677,1.677,0,0,0-.588-.858A.824.824,0,0,0,268.206,279.717Z" transform="translate(-236.355 -279.043)" fill="#fff"/>
            </g>
            <g id="Group_1065" data-name="Group 1065" transform="translate(51.408 148.393)">
              <path id="Path_2012" data-name="Path 2012" d="M256.434,308.388a2.046,2.046,0,0,1,0,1.618,2.36,2.36,0,0,1-1.275,1.126l-.576.254.866,2.356c-.189.083-.38.166-.569.251q-1.1-3-2.206-6c.424-.183.848-.368,1.273-.552Q255.8,306.647,256.434,308.388Zm-2.067,2.4.513-.226a1.905,1.905,0,0,0,.988-.779,1.349,1.349,0,0,0-.012-1.1,1.133,1.133,0,0,0-.644-.744,1.522,1.522,0,0,0-1.1.14l-.638.278Q253.918,309.568,254.367,310.786Z" transform="translate(-252.678 -294.714)" fill="#fff"/>
              <path id="Path_2013" data-name="Path 2013" d="M259.953,311.286c-.114-.2-.23-.392-.344-.587l-.028.012a1.951,1.951,0,0,1-.338.809,1.633,1.633,0,0,1-.628.45,1.138,1.138,0,0,1-.983.035,1.39,1.39,0,0,1-.668-.84q-.5-1.353,1.259-2.2l.616-.3-.1-.277a1.32,1.32,0,0,0-.473-.7.722.722,0,0,0-.689.009,2.451,2.451,0,0,0-.914.8l-.362-.444a2.837,2.837,0,0,1,.493-.541,2.458,2.458,0,0,1,.613-.385,1.308,1.308,0,0,1,1.106-.07,1.679,1.679,0,0,1,.734,1l1.12,3.043Zm-1.434.077a1.2,1.2,0,0,0,.69-.7,1.6,1.6,0,0,0-.06-1.1c-.048-.134-.1-.268-.148-.4l-.546.273a2.012,2.012,0,0,0-.866.671.908.908,0,0,0-.039.819.768.768,0,0,0,.388.479A.7.7,0,0,0,258.519,311.363Z" transform="translate(-251.438 -294.791)" fill="#fff"/>
              <path id="Path_2014" data-name="Path 2014" d="M262.5,308.755a1.354,1.354,0,0,1-.029,1.126,1.853,1.853,0,0,1-.949.809,2.131,2.131,0,0,1-1.243.221c-.078-.208-.154-.417-.231-.626a2.546,2.546,0,0,0,.663.005,2.141,2.141,0,0,0,.619-.165,1.314,1.314,0,0,0,.609-.463.664.664,0,0,0,.046-.616.591.591,0,0,0-.349-.362,2.806,2.806,0,0,0-.887-.118,3.708,3.708,0,0,1-.879-.085,1.1,1.1,0,0,1-.466-.251,1.328,1.328,0,0,1-.248-1.5,1.731,1.731,0,0,1,.887-.752,2.673,2.673,0,0,1,1.27-.213l0,.634a2.433,2.433,0,0,0-1.106.161,1.155,1.155,0,0,0-.542.411.553.553,0,0,0-.05.5.6.6,0,0,0,.188.271.8.8,0,0,0,.332.134,5.1,5.1,0,0,0,.765.046,2.371,2.371,0,0,1,1.1.193A1.141,1.141,0,0,1,262.5,308.755Z" transform="translate(-250.507 -295.205)" fill="#fff"/>
              <path id="Path_2015" data-name="Path 2015" d="M264.946,307.68a1.355,1.355,0,0,1-.031,1.122,1.855,1.855,0,0,1-.95.808,2.155,2.155,0,0,1-1.243.223l-.23-.624a2.548,2.548,0,0,0,.663.005,2.141,2.141,0,0,0,.619-.165,1.331,1.331,0,0,0,.609-.462.664.664,0,0,0,.047-.616.6.6,0,0,0-.349-.361,2.818,2.818,0,0,0-.887-.115,3.772,3.772,0,0,1-.878-.083,1.1,1.1,0,0,1-.466-.25,1.324,1.324,0,0,1-.247-1.494,1.744,1.744,0,0,1,.889-.75,2.7,2.7,0,0,1,1.27-.213c0,.211,0,.422,0,.632a2.455,2.455,0,0,0-1.106.161,1.153,1.153,0,0,0-.542.411.552.552,0,0,0-.05.5.6.6,0,0,0,.187.271.794.794,0,0,0,.333.133,5.087,5.087,0,0,0,.764.046,2.363,2.363,0,0,1,1.1.191A1.145,1.145,0,0,1,264.946,307.68Z" transform="translate(-249.67 -295.569)" fill="#fff"/>
              <path id="Path_2016" data-name="Path 2016" d="M268.612,307.847q-.813-1.146-1.626-2.291c-.1-.14-.313-.464-.635-.975l-.027.012c.082.507.137.9.164,1.189q.127,1.444.255,2.887l-.644.285q-1.313-1.991-2.63-3.986l.585-.254q.968,1.512,1.475,2.3t.644,1.081l.027-.012c-.032-.164-.064-.379-.1-.647s-.058-.481-.071-.642q-.129-1.416-.256-2.83l.6-.262q.8,1.122,1.589,2.244a9.879,9.879,0,0,1,.683,1.05l.025-.012c-.025-.1-.056-.259-.091-.478s-.2-1.4-.493-3.549l.577-.251q.3,2.42.6,4.849Z" transform="translate(-248.983 -296.25)" fill="#fff"/>
              <path id="Path_2017" data-name="Path 2017" d="M271.732,303.523a3.015,3.015,0,0,1,.162,1.873,1.75,1.75,0,0,1-1.031,1.152,1.532,1.532,0,0,1-.976.109,1.709,1.709,0,0,1-.882-.534,3.257,3.257,0,0,1-.654-1.121,3,3,0,0,1-.166-1.871,1.722,1.722,0,0,1,1.028-1.142,1.5,1.5,0,0,1,1.454.078A2.728,2.728,0,0,1,271.732,303.523Zm-2.8,1.226a2.4,2.4,0,0,0,.754,1.16.942.942,0,0,0,.991.075,1.086,1.086,0,0,0,.669-.8,2.568,2.568,0,0,0-.188-1.405,2.355,2.355,0,0,0-.75-1.148.967.967,0,0,0-1-.068,1.075,1.075,0,0,0-.668.789A2.581,2.581,0,0,0,268.928,304.749Z" transform="translate(-247.397 -296.548)" fill="#fff"/>
              <path id="Path_2018" data-name="Path 2018" d="M272.585,300.581a2,2,0,0,1,.458-.144c.05.216.1.431.148.647a1.831,1.831,0,0,0-.424.115,1.092,1.092,0,0,0-.607.764,1.946,1.946,0,0,0,.078,1.211q.433,1.174.863,2.348l-.557.246q-.8-2.191-1.61-4.378l.461-.2.362.784.027-.012a2.132,2.132,0,0,1,.251-.874A1.154,1.154,0,0,1,272.585,300.581Z" transform="translate(-246.427 -297.027)" fill="#fff"/>
              <path id="Path_2019" data-name="Path 2019" d="M276.834,303.718l-.03.013a1.476,1.476,0,0,1-.91,1.171,1.314,1.314,0,0,1-1.337-.091,2.928,2.928,0,0,1-1.014-1.487,3.249,3.249,0,0,1-.212-1.852,1.5,1.5,0,0,1,.9-1.085,1.311,1.311,0,0,1,1.385.144l.044-.019c-.046-.1-.093-.2-.138-.3s-.085-.2-.126-.3q-.326-.886-.651-1.771l.557-.24q1.136,3.087,2.27,6.172l-.452.2C277.027,304.085,276.931,303.9,276.834,303.718Zm-1.071.6a1.1,1.1,0,0,0,.691-.73,2.313,2.313,0,0,0-.179-1.3l-.051-.138a2.523,2.523,0,0,0-.748-1.207.954.954,0,0,0-.976-.034.965.965,0,0,0-.585.779,2.8,2.8,0,0,0,.209,1.389,2.5,2.5,0,0,0,.722,1.148A.854.854,0,0,0,275.763,304.318Z" transform="translate(-245.626 -297.897)" fill="#fff"/>
            </g>
            <g id="Group_1068" data-name="Group 1068" transform="translate(88.959 180.009)">
              <g id="Group_1066" data-name="Group 1066" transform="translate(0 2.346)">
                <path id="Path_2020" data-name="Path 2020" d="M281.22,329.259q-.286-.663-.569-1.324l9.864-4.739.568,1.318Q286.151,326.885,281.22,329.259Z" transform="translate(-280.651 -323.197)" fill="#fff"/>
              </g>
              <g id="Group_1067" data-name="Group 1067" transform="translate(5.149)">
                <path id="Path_2021" data-name="Path 2021" d="M288.266,330.238l-1.247-.529q.816-2.446,1.632-4.886-2.08-1.029-4.164-2.071.26-.652.521-1.3,2.368,1.184,4.736,2.353a.763.763,0,0,1,.365.917Q289.187,327.476,288.266,330.238Z" transform="translate(-284.487 -321.449)" fill="#fff"/>
              </g>
            </g>
          </g>
          <path id="Path_2022" data-name="Path 2022" d="M166.26,151.348c9.213-1.973,22.705-5.035,31.886-7.019.7-.15,1.553.513,1.906,1.482q.85,2.318,1.7,4.638c1.7,4.647,5.778,7.8,9.109,7.031q24.334-5.553,48.647-11.163c3.33-.772,4.716-4.994,3.1-9.428l-1.619-4.431c-.338-.926-.048-1.8.651-1.954,9.245-2.03,15.745-3.289,24.986-5.331,3.7-.813,8.158,2.431,9.906,7.213,30.2,82.656,59.832,163.7,89.854,245.852Q278.767,271.451,166.26,151.348Z" transform="translate(-161.945 -125.048)" fill="url(#linear-gradient-5)"/>
        </g>
        <path id="Path_2023" data-name="Path 2023" d="M207.151,141.425c-.231-.63-.046-1.222.415-1.324q13.04-2.865,26.075-5.751c.459-.1,1.015.317,1.239.933s.036,1.2-.423,1.3q-13.026,2.908-26.059,5.8C207.939,142.483,207.38,142.055,207.151,141.425Zm-4.906,1.082c.231.632.791,1.062,1.25.96s.643-.7.413-1.326-.791-1.06-1.25-.96S202.013,141.875,202.244,142.507Z" transform="translate(-132.813 -116.393)" fill="url(#linear-gradient-6)"/>
      </g>
    </g>
    <g id="Group_1085" data-name="Group 1085" transform="translate(62.041 62.296)">
      <line id="Line_42" data-name="Line 42" x1="45.874" y2="27.922" transform="translate(454.676 262.409)" fill="none" stroke="#707070" stroke-linecap="round" stroke-linejoin="round" stroke-width="1.5"/>
      <line id="Line_43" data-name="Line 43" x1="45.874" y2="27.922" transform="translate(20.67 338.038)" fill="none" stroke="#707070" stroke-linecap="round" stroke-linejoin="round" stroke-width="1.5"/>
      <path id="Path_2024" data-name="Path 2024" d="M303.279,182.335a2.746,2.746,0,1,0,2.929-2.549A2.746,2.746,0,0,0,303.279,182.335Z" transform="translate(30.327 -13.782)" fill="#fff"/>
      <path id="Path_2025" data-name="Path 2025" d="M455.728,130.979a2.445,2.445,0,1,0,2.608-2.27A2.447,2.447,0,0,0,455.728,130.979Z" transform="translate(82.525 -31.269)" fill="#97ffff"/>
      <path id="Path_2026" data-name="Path 2026" d="M158.57,418.575a2.444,2.444,0,1,0,2.608-2.269A2.445,2.445,0,0,0,158.57,418.575Z" transform="translate(-19.219 67.201)" fill="#97ffff"/>
      <path id="Path_2027" data-name="Path 2027" d="M182.117,286.312a2.444,2.444,0,1,0,2.608-2.27A2.446,2.446,0,0,0,182.117,286.312Z" transform="translate(-11.157 21.915)" fill="#97ffff"/>
      <path id="Path_2028" data-name="Path 2028" d="M385.031,433.9a2.445,2.445,0,1,0,2.608-2.27A2.447,2.447,0,0,0,385.031,433.9Z" transform="translate(58.319 72.446)" fill="#97ffff"/>
      <path id="Path_2029" data-name="Path 2029" d="M63.045,73.166A2.445,2.445,0,1,0,65.654,70.9,2.446,2.446,0,0,0,63.045,73.166Z" transform="translate(-51.926 -51.064)" fill="#97ffff"/>
      <path id="Path_2030" data-name="Path 2030" d="M54.766,187.345a2.444,2.444,0,1,0,2.608-2.27A2.446,2.446,0,0,0,54.766,187.345Z" transform="translate(-54.761 -11.97)" fill="#97ffff"/>
      <path id="Path_2031" data-name="Path 2031" d="M200.609,111.567a2.444,2.444,0,1,0,2.608-2.269A2.445,2.445,0,0,0,200.609,111.567Z" transform="translate(-4.826 -37.916)" fill="#97ffff"/>
      <circle id="Ellipse_122" data-name="Ellipse 122" cx="2.745" cy="2.745" r="2.745" transform="translate(394.382 349.683)" fill="#fff"/>
      <path id="Path_2032" data-name="Path 2032" d="M234.647,58.866a2.745,2.745,0,1,0,2.745-2.745A2.745,2.745,0,0,0,234.647,58.866Z" transform="translate(6.831 -56.121)" fill="#fff"/>
      <path id="Path_2033" data-name="Path 2033" d="M82.3,426.8a2.745,2.745,0,1,0,2.745-2.745A2.744,2.744,0,0,0,82.3,426.8Z" transform="translate(-45.331 69.856)" fill="#fff"/>
      <path id="Path_2034" data-name="Path 2034" d="M394.6,58.866a2.746,2.746,0,1,0,2.745-2.745A2.746,2.746,0,0,0,394.6,58.866Z" transform="translate(61.596 -56.121)" fill="#fff"/>
      <line id="Line_44" data-name="Line 44" x1="45.875" y2="27.922" transform="translate(362.37 71.392)" fill="none" stroke="#707070" stroke-linecap="round" stroke-linejoin="round" stroke-width="1.5"/>
      <line id="Line_45" data-name="Line 45" x1="45.874" y2="27.922" transform="translate(204.32 474.43)" fill="none" stroke="#707070" stroke-linecap="round" stroke-linejoin="round" stroke-width="1.5"/>
      <line id="Line_46" data-name="Line 46" x1="45.874" y2="27.922" transform="translate(217.127 449.301)" fill="none" stroke="#707070" stroke-linecap="round" stroke-linejoin="round" stroke-width="1.5"/>
      <path id="Path_2035" data-name="Path 2035" d="M409.592,408.926a11.73,11.73,0,1,0,12.193-11.248A11.729,11.729,0,0,0,409.592,408.926Z" transform="translate(66.727 60.822)" fill="url(#radial-gradient)"/>
      <circle id="Ellipse_123" data-name="Ellipse 123" cx="11.73" cy="11.73" r="11.73" transform="translate(74.139 159.62) rotate(-36.229)" fill="url(#radial-gradient-2)"/>
      <path id="Path_2036" data-name="Path 2036" d="M141.4,426.176a5.694,5.694,0,1,0,6.54,4.7A5.694,5.694,0,0,0,141.4,426.176Z" transform="translate(-26.732 70.556)" fill="url(#radial-gradient-3)"/>
      <path id="Path_2037" data-name="Path 2037" d="M320.83,217.233a5.015,5.015,0,1,0,6.637-2.5A5.015,5.015,0,0,0,320.83,217.233Z" transform="translate(36.186 -1.967)" fill="url(#radial-gradient-4)"/>
      <path id="Path_2038" data-name="Path 2038" d="M162.971,335.652a5.015,5.015,0,1,0,6.638-2.5A5.014,5.014,0,0,0,162.971,335.652Z" transform="translate(-17.864 38.579)" fill="url(#radial-gradient-5)"/>
      <circle id="Ellipse_124" data-name="Ellipse 124" cx="11.73" cy="11.73" r="11.73" transform="translate(161.648 390.513) rotate(-35.694)" fill="url(#radial-gradient-6)"/>
      <g id="Group_1073" data-name="Group 1073" transform="translate(186.693 445.084)">
        <path id="Path_2039" data-name="Path 2039" d="M215.58,402.032a9.834,9.834,0,0,1-2.024,2.934,5.712,5.712,0,0,1-2.584,1.536,3.9,3.9,0,0,1-2.671-.26,3.056,3.056,0,0,1-1.434-1.285,2.742,2.742,0,0,1-.307-1.83l-.146-.068a4.383,4.383,0,0,1-2.134.744,4.507,4.507,0,0,1-2.2-.439,4.378,4.378,0,0,1-2.534-2.728,5.527,5.527,0,0,1,.463-3.991,6.2,6.2,0,0,1,3.4-3.379,5.932,5.932,0,0,1,4.786.314,15.776,15.776,0,0,1,1.977,1.116,12.885,12.885,0,0,1,1.793,1.385l-2.892,5.545-.136.293q-.9,1.951.364,2.537a1.908,1.908,0,0,0,2.106-.534,9.545,9.545,0,0,0,2.878-6.967,6.512,6.512,0,0,0-1.3-3.556,8.211,8.211,0,0,0-3.214-2.524,10.052,10.052,0,0,0-5.015-1.019,7.854,7.854,0,0,0-4.351,1.709,11.1,11.1,0,0,0-3.155,4.159,7.3,7.3,0,0,0,3.917,10.727,17.651,17.651,0,0,0,6.129,1.5l-.926,2a16.037,16.037,0,0,1-6.057-1.53q-4.51-2.088-5.909-5.689a9.9,9.9,0,0,1,.618-7.954,12.731,12.731,0,0,1,3.987-5.031,10.327,10.327,0,0,1,5.544-2.046,12.446,12.446,0,0,1,6.09,1.22,10.913,10.913,0,0,1,4.2,3.279,8.6,8.6,0,0,1,1.76,4.612A10.378,10.378,0,0,1,215.58,402.032Zm-13.251-4.254q-1.315,2.841.916,3.874,2.354,1.089,4.227-2.383l1.5-2.846a6.984,6.984,0,0,0-1.55-.969,3.318,3.318,0,0,0-2.913-.09A4.674,4.674,0,0,0,202.329,397.778Z" transform="translate(-193.836 -387.681)" fill="#fff"/>
      </g>
      <g id="Group_1074" data-name="Group 1074" transform="translate(39.166 200.095)">
        <path id="Path_2040" data-name="Path 2040" d="M102.109,217.807l-2.985,3.858,4.065,2.051-1.277,2.529-4.561-2.3-4.38,5.685-2.679-1.352,4.38-5.685-3.733-1.885-4.38,5.685-2.62-1.322,4.32-5.715-3.763-1.9,1.277-2.529,4.261,2.151,3.015-3.843-3.973-2.006L90.35,208.7l4.41,2.226,4.411-5.744,2.709,1.367-4.41,5.745,3.794,1.916,4.41-5.745,2.62,1.321-4.411,5.745,3.794,1.916-1.275,2.528Zm-9.429.607,3.764,1.9,3.016-3.843-3.764-1.9Z" transform="translate(-83.937 -205.18)" fill="#fff"/>
      </g>
      <g id="Group_1081" data-name="Group 1081" transform="translate(205.053 32.45)">
        <g id="Group_1075" data-name="Group 1075" transform="translate(11.186 11.009)">
          <path id="Path_2041" data-name="Path 2041" d="M220.624,89.588A2.64,2.64,0,1,1,216.937,89,2.639,2.639,0,0,1,220.624,89.588Z" transform="translate(-215.846 -88.495)" fill="#fff"/>
        </g>
        <g id="Group_1076" data-name="Group 1076" transform="translate(14.706 5.527)">
          <path id="Path_2042" data-name="Path 2042" d="M225.71,93.835l-2.624-.42a5.566,5.566,0,0,0-4.618-6.378l.42-2.626a8.227,8.227,0,0,1,6.822,9.424Z" transform="translate(-218.468 -84.411)" fill="#fff"/>
        </g>
        <g id="Group_1077" data-name="Group 1077" transform="translate(5.597 12.349)">
          <path id="Path_2043" data-name="Path 2043" d="M218.61,98.915a8.225,8.225,0,0,1-6.822-9.422l2.626.42a5.565,5.565,0,0,0,4.618,6.378Z" transform="translate(-211.683 -89.493)" fill="#fff"/>
        </g>
        <g id="Group_1078" data-name="Group 1078" transform="translate(15.591)">
          <path id="Path_2044" data-name="Path 2044" d="M231.011,96.129l-2.626-.42a11.165,11.165,0,0,0-9.258-12.79l.421-2.624a13.823,13.823,0,0,1,11.463,15.835Z" transform="translate(-219.127 -80.294)" fill="#fff"/>
        </g>
        <g id="Group_1079" data-name="Group 1079" transform="translate(0 11.464)">
          <path id="Path_2045" data-name="Path 2045" d="M219.153,104.667A13.82,13.82,0,0,1,207.69,88.834l2.624.419a11.163,11.163,0,0,0,9.258,12.79Z" transform="translate(-207.513 -88.834)" fill="#fff"/>
        </g>
        <g id="Group_1080" data-name="Group 1080" transform="translate(12.749 12.869)">
          <rect id="Rectangle_147" data-name="Rectangle 147" width="2.659" height="17.806" transform="translate(0 1.559) rotate(-35.902)" fill="#fff"/>
        </g>
      </g>
      <g id="Group_1084" data-name="Group 1084" transform="translate(355.578 128.556)">
        <g id="Group_1082" data-name="Group 1082">
          <path id="Path_2046" data-name="Path 2046" d="M333.261,170.712l-2.612.493-1.8-9.565-8.621-5.886a1.329,1.329,0,0,1,.5-2.4l7.637-1.439a1.329,1.329,0,0,1,1.552,1.059Zm-8.888-15.345,3.777,2.579-.6-3.177Z" transform="translate(-319.645 -151.888)" fill="#fff"/>
        </g>
        <g id="Group_1083" data-name="Group 1083" transform="translate(0.306 6.369)">
          <path id="Path_2047" data-name="Path 2047" d="M340.4,166.348a1.33,1.33,0,0,1-1.847.348l-8.621-5.886-9.565,1.8L319.873,160l17.742-3.344a1.328,1.328,0,0,1,1.552,1.059l1.439,7.637A1.327,1.327,0,0,1,340.4,166.348Zm-6.774-6.235,3.776,2.579-.6-3.177Z" transform="translate(-319.873 -156.632)" fill="#fff"/>
        </g>
      </g>
    </g>
    <g id="Group_1089" data-name="Group 1089" transform="translate(123.437 289.342)">
      <g id="Group_1086" data-name="Group 1086" transform="translate(17.513)">
        <path id="Path_2048" data-name="Path 2048" d="M171.435,263.042l4.129-3.571s-3.606-1.869-3.677-3.253a29.208,29.208,0,0,0-1.149-6.74l-6.1,1.214A22.876,22.876,0,0,0,162,245.157l4.795-3.969c-2.458-3.571-5.955-12.671-5.955-12.671l-4.131,3.572-3.457,5.176a22.837,22.837,0,0,0-5.776-2.057l.583-6.191a29.3,29.3,0,0,0-6.823-.454c-1.33.068-2.612-2.422-2.612-2.422l-4.129,3.572,1.215,6.1a22.852,22.852,0,0,0-5.535,2.639l-3.971-4.795a29.332,29.332,0,0,0-9.1,10.084l5.176,3.458a22.836,22.836,0,0,0-2.057,5.776l-2.062-4.155-4.129,3.572a29.14,29.14,0,0,0,.7,13.565l6.1-1.215a22.851,22.851,0,0,0,2.639,5.535l-.666.4-4.129,3.572a29.324,29.324,0,0,0,10.085,9.1l4.129-3.572-.673-1.605a22.856,22.856,0,0,0,5.776,2.058l-.583,6.191a29.139,29.139,0,0,0,13.565-.7l4.129-3.572-5.344-2.526a22.856,22.856,0,0,0,5.536-2.638l3.969,4.8a29.324,29.324,0,0,0,9.1-10.085l-5.176-3.458a22.836,22.836,0,0,0,2.057-5.776Zm-27.978,8.724A14.067,14.067,0,1,1,156.783,257,14.067,14.067,0,0,1,143.457,271.766Z" transform="translate(-113.543 -224.954)" fill="url(#linear-gradient-7)"/>
        <path id="Path_2049" data-name="Path 2049" d="M174.511,259.774a29.116,29.116,0,0,0-.7-13.565l-6.1,1.215a22.86,22.86,0,0,0-2.639-5.536l4.8-3.969a29.332,29.332,0,0,0-10.084-9.1L156.33,234a22.837,22.837,0,0,0-5.776-2.057l.583-6.191a29.117,29.117,0,0,0-13.565.7l1.215,6.1a22.852,22.852,0,0,0-5.535,2.639l-3.971-4.8a29.324,29.324,0,0,0-9.1,10.085l5.178,3.457a22.839,22.839,0,0,0-2.058,5.776l-6.191-.583a29.14,29.14,0,0,0,.7,13.565l6.1-1.215a22.848,22.848,0,0,0,2.638,5.535l-4.8,3.971a29.323,29.323,0,0,0,10.085,9.1l3.458-5.176a22.869,22.869,0,0,0,5.776,2.057l-.583,6.191a29.133,29.133,0,0,0,13.564-.7l-1.214-6.1a22.821,22.821,0,0,0,5.535-2.638l3.969,4.8a29.324,29.324,0,0,0,9.1-10.085l-5.176-3.458a22.817,22.817,0,0,0,2.057-5.776ZM146.533,268.5a14.067,14.067,0,1,1,13.326-14.77A14.067,14.067,0,0,1,146.533,268.5Z" transform="translate(-112.49 -225.257)" fill="#fbfcfd"/>
        <path id="Path_2050" data-name="Path 2050" d="M114.429,257.022l4.129-3.572,6.1-1.214-4.129,3.572Z" transform="translate(-113.24 -216.019)" fill="#87cdff"/>
        <path id="Path_2051" data-name="Path 2051" d="M121.374,243.621l4.129-3.572-5.177-3.458-4.129,3.572Z" transform="translate(-112.635 -221.376)" fill="#87cdff"/>
        <path id="Path_2052" data-name="Path 2052" d="M131.905,267.343l4.129-3.572-.583,6.191-4.129,3.572Z" transform="translate(-107.456 -212.07)" fill="#71c2f4"/>
        <path id="Path_2053" data-name="Path 2053" d="M144.646,264.927l4.129-3.572,3.97,4.8-4.129,3.572Z" transform="translate(-102.894 -212.897)" fill="#71c2f4"/>
      </g>
      <g id="Group_1087" data-name="Group 1087" transform="translate(0 59.8)">
        <path id="Path_2054" data-name="Path 2054" d="M132.983,294.126l2.7-1.6s-1.848-1.427-1.746-2.218a16.778,16.778,0,0,0,.04-3.932l-3.575.06a13.106,13.106,0,0,0-.926-3.4l3.122-1.755a50.458,50.458,0,0,1-2.07-7.783l-2.7,1.6-2.489,2.576a13.128,13.128,0,0,0-3.058-1.757l.965-3.445a16.9,16.9,0,0,0-3.815-.957c-.76-.1-1.23-1.638-1.23-1.638l-2.7,1.6.062,3.576a13.1,13.1,0,0,0-3.4.925l-1.756-3.121a16.861,16.861,0,0,0-6.184,4.774l2.575,2.487a13.177,13.177,0,0,0-1.757,3.058l-.74-2.563-2.7,1.6a16.736,16.736,0,0,0-1,7.748l3.576-.062a13.129,13.129,0,0,0,.925,3.4l-.417.157-2.7,1.6a16.89,16.89,0,0,0,4.774,6.184l2.7-1.6-.215-.977a13.175,13.175,0,0,0,3.058,1.757l-.965,3.443a16.759,16.759,0,0,0,7.748,1l2.7-1.6-2.765-1.977a13.157,13.157,0,0,0,3.4-.925l1.756,3.121a16.889,16.889,0,0,0,6.184-4.773l-2.575-2.489a13.148,13.148,0,0,0,1.757-3.058Zm-16.729,2.066a8.091,8.091,0,1,1,9.057-6.991A8.092,8.092,0,0,1,116.254,296.192Z" transform="translate(-100.497 -269.78)" fill="url(#linear-gradient-8)"/>
        <path id="Path_2055" data-name="Path 2055" d="M135,292.553a16.76,16.76,0,0,0,1-7.748l-3.576.062a13.107,13.107,0,0,0-.926-3.4l3.122-1.754a16.882,16.882,0,0,0-4.774-6.186l-2.489,2.576a13.107,13.107,0,0,0-3.058-1.759l.965-3.443a16.737,16.737,0,0,0-7.748-1l.062,3.576a13.1,13.1,0,0,0-3.4.925l-1.755-3.121a16.854,16.854,0,0,0-6.186,4.774l2.576,2.487a13.132,13.132,0,0,0-1.759,3.058l-3.443-.965a16.736,16.736,0,0,0-1,7.748l3.576-.062a13.129,13.129,0,0,0,.925,3.4l-3.121,1.755a16.871,16.871,0,0,0,4.772,6.184l2.489-2.575a13.177,13.177,0,0,0,3.058,1.757l-.965,3.443a16.735,16.735,0,0,0,7.748,1l-.062-3.575a13.183,13.183,0,0,0,3.4-.925l1.755,3.121a16.889,16.889,0,0,0,6.184-4.774l-2.575-2.489a13.15,13.15,0,0,0,1.757-3.058Zm-16.729,2.065a8.09,8.09,0,1,1,9.057-6.99A8.09,8.09,0,0,1,118.268,294.618Z" transform="translate(-99.808 -269.804)" fill="#fbfcfd"/>
        <path id="Path_2056" data-name="Path 2056" d="M100.569,285.257l2.7-1.6,3.576-.061-2.7,1.6Z" transform="translate(-100.473 -265.081)" fill="#87cdff"/>
        <path id="Path_2057" data-name="Path 2057" d="M105.843,278.545l2.7-1.6-2.575-2.488-2.7,1.6Z" transform="translate(-99.549 -268.21)" fill="#87cdff"/>
        <path id="Path_2058" data-name="Path 2058" d="M109.53,293.036l2.7-1.6-.965,3.444-2.7,1.6Z" transform="translate(-97.735 -262.397)" fill="#71c2f4"/>
        <path id="Path_2059" data-name="Path 2059" d="M116.826,292.992l2.7-1.6,1.755,3.121-2.7,1.6Z" transform="translate(-94.906 -262.412)" fill="#71c2f4"/>
      </g>
      <g id="Group_1088" data-name="Group 1088" transform="translate(40.902 67.016)">
        <path id="Path_2060" data-name="Path 2060" d="M166.546,301.819l2.961-1.75s-2.024-1.563-1.913-2.428a18.381,18.381,0,0,0,.044-4.308l-3.916.067a14.438,14.438,0,0,0-1.013-3.728l3.419-1.921a55.378,55.378,0,0,1-2.267-8.524l-2.961,1.75-2.725,2.82a14.378,14.378,0,0,0-3.349-1.925l1.058-3.772a18.449,18.449,0,0,0-4.179-1.047c-.832-.107-1.346-1.795-1.346-1.795l-2.961,1.749.067,3.917a14.329,14.329,0,0,0-3.728,1.013l-1.921-3.419a18.479,18.479,0,0,0-6.774,5.227l2.82,2.726a14.348,14.348,0,0,0-1.925,3.348l-.811-2.807-2.961,1.75a18.378,18.378,0,0,0-1.093,8.485l3.917-.066A14.372,14.372,0,0,0,136,300.91l-.456.172-2.961,1.75a18.489,18.489,0,0,0,5.227,6.774l2.961-1.75-.236-1.07a14.431,14.431,0,0,0,3.349,1.925l-1.056,3.771a18.326,18.326,0,0,0,8.485,1.093l2.961-1.749-3.028-2.167a14.438,14.438,0,0,0,3.728-1.013l1.922,3.419a18.479,18.479,0,0,0,6.774-5.229l-2.82-2.725a14.424,14.424,0,0,0,1.925-3.349Zm-18.322,2.261a8.861,8.861,0,1,1,9.92-7.657A8.86,8.86,0,0,1,148.223,304.079Z" transform="translate(-130.967 -275.153)" fill="url(#linear-gradient-9)"/>
        <path id="Path_2061" data-name="Path 2061" d="M168.752,300.095a18.325,18.325,0,0,0,1.093-8.485l-3.916.067a14.438,14.438,0,0,0-1.014-3.728l3.419-1.922a18.5,18.5,0,0,0-5.229-6.774l-2.725,2.82a14.4,14.4,0,0,0-3.349-1.924l1.058-3.772a18.333,18.333,0,0,0-8.487-1.093l.067,3.916a14.438,14.438,0,0,0-3.728,1.014l-1.921-3.419a18.482,18.482,0,0,0-6.774,5.229l2.819,2.725a14.4,14.4,0,0,0-1.924,3.349l-3.772-1.058a18.333,18.333,0,0,0-1.093,8.487l3.917-.067a14.381,14.381,0,0,0,1.012,3.728l-3.418,1.921a18.464,18.464,0,0,0,5.227,6.774l2.725-2.819a14.428,14.428,0,0,0,3.349,1.924l-1.056,3.772a18.325,18.325,0,0,0,8.485,1.093l-.067-3.917a14.379,14.379,0,0,0,3.728-1.012l1.922,3.418a18.5,18.5,0,0,0,6.774-5.227l-2.82-2.725a14.428,14.428,0,0,0,1.924-3.349Zm-18.322,2.262a8.861,8.861,0,1,1,9.92-7.657A8.862,8.862,0,0,1,150.429,302.357Z" transform="translate(-130.212 -275.18)" fill="#fbfcfd"/>
        <path id="Path_2062" data-name="Path 2062" d="M131.045,292.1l2.961-1.75,3.917-.067-2.961,1.75Z" transform="translate(-130.94 -270.007)" fill="#87cdff"/>
        <path id="Path_2063" data-name="Path 2063" d="M136.822,284.753l2.961-1.75-2.82-2.725L134,282.028Z" transform="translate(-129.928 -273.434)" fill="#87cdff"/>
        <path id="Path_2064" data-name="Path 2064" d="M140.86,300.624l2.961-1.75-1.057,3.772L139.8,304.4Z" transform="translate(-127.942 -267.067)" fill="#71c2f4"/>
        <path id="Path_2065" data-name="Path 2065" d="M148.851,300.575l2.961-1.75,1.922,3.419-2.961,1.75Z" transform="translate(-124.844 -267.084)" fill="#71c2f4"/>
      </g>
    </g>
    <g id="Group_1090" data-name="Group 1090" transform="translate(463.185 480.676)">
      <path id="Path_2066" data-name="Path 2066" d="M403.768,395.13l2.73-3.826s-3.395-.831-3.734-1.975a25.221,25.221,0,0,0-2.33-5.406l-4.854,2.253a19.678,19.678,0,0,0-3.33-4.094l3.206-4.294c-2.78-2.487-7.551-9.391-7.551-9.391l-2.73,3.826-1.843,5.031a19.677,19.677,0,0,0-5.249-.549l-.768-5.3a25.144,25.144,0,0,0-5.8,1.005c-1.1.326-2.675-1.5-2.675-1.5l-2.73,3.826,2.253,4.855a19.725,19.725,0,0,0-4.1,3.329l-4.293-3.206A25.255,25.255,0,0,0,354.4,390l5.033,1.843a19.674,19.674,0,0,0-.55,5.249l-2.567-3.057-2.73,3.824a25.09,25.09,0,0,0,3.334,11.206l4.855-2.253a19.686,19.686,0,0,0,3.33,4.1l-.477.469L361.9,415.2a25.26,25.26,0,0,0,10.283,5.567l2.73-3.826-.889-1.207a19.685,19.685,0,0,0,5.25.55l.768,5.3a25.089,25.089,0,0,0,11.206-3.335l2.73-3.826L389,413.4a19.645,19.645,0,0,0,4.094-3.331l4.294,3.207a25.26,25.26,0,0,0,5.567-10.283l-5.033-1.842a19.687,19.687,0,0,0,.549-5.25ZM382.132,408.1a12.108,12.108,0,1,1,8.152-15.059A12.108,12.108,0,0,1,382.132,408.1Z" transform="translate(-353.589 -367.581)" fill="url(#linear-gradient-10)"/>
      <path id="Path_2067" data-name="Path 2067" d="M405.8,391.512a25.1,25.1,0,0,0-3.334-11.206l-4.855,2.254a19.69,19.69,0,0,0-3.329-4.1l3.206-4.294a25.237,25.237,0,0,0-10.281-5.566l-1.843,5.031a19.676,19.676,0,0,0-5.249-.549l-.769-5.3a25.09,25.09,0,0,0-11.2,3.335l2.253,4.855a19.725,19.725,0,0,0-4.1,3.329L362,376.1a25.255,25.255,0,0,0-5.567,10.281l5.031,1.843a19.676,19.676,0,0,0-.549,5.249l-5.3.769a25.091,25.091,0,0,0,3.335,11.2l4.855-2.253a19.655,19.655,0,0,0,3.33,4.1l-3.207,4.294a25.241,25.241,0,0,0,10.283,5.566l1.842-5.031a19.682,19.682,0,0,0,5.25.549l.768,5.3a25.1,25.1,0,0,0,11.206-3.334l-2.254-4.855a19.689,19.689,0,0,0,4.1-3.329l4.294,3.206a25.245,25.245,0,0,0,5.566-10.281l-5.031-1.843a19.685,19.685,0,0,0,.549-5.25Zm-21.635,12.971a12.108,12.108,0,1,1,8.152-15.058A12.107,12.107,0,0,1,384.166,404.483Z" transform="translate(-352.893 -367.789)" fill="#fbfcfd"/>
      <path id="Path_2068" data-name="Path 2068" d="M356.073,400.245l2.73-3.826,4.855-2.253-2.73,3.826Z" transform="translate(-352.738 -358.758)" fill="#87cdff"/>
      <path id="Path_2069" data-name="Path 2069" d="M359.228,387.31l2.73-3.826-5.032-1.843-2.73,3.826Z" transform="translate(-353.381 -363.046)" fill="#87cdff"/>
      <path id="Path_2070" data-name="Path 2070" d="M372.725,405.048l2.73-3.826.768,5.3-2.73,3.826Z" transform="translate(-347.037 -356.342)" fill="#71c2f4"/>
      <path id="Path_2071" data-name="Path 2071" d="M383.017,400.413l2.73-3.826,4.294,3.206-2.73,3.826Z" transform="translate(-343.513 -357.929)" fill="#71c2f4"/>
    </g>
    <g id="Group_1091" data-name="Group 1091" transform="translate(476.724 117.653)">
      <path id="Path_2072" data-name="Path 2072" d="M437.056,103.247,388.1,97.409a7.015,7.015,0,0,0-4.889,1.235c-1.576,1.11-12.4,9.763-12.4,9.763l3.62,44.112a7.043,7.043,0,0,0,6.159,7.827l41.456,14.345s11.269-8.852,12.686-9.966a7.023,7.023,0,0,0,2.638-4.7l5.838-48.95A7.043,7.043,0,0,0,437.056,103.247Z" transform="translate(-361.229 -97.358)" fill="url(#linear-gradient-11)"/>
      <rect id="Rectangle_148" data-name="Rectangle 148" width="63.383" height="63.383" rx="5.246" transform="translate(7.506 8.955) rotate(6.801)" fill="url(#linear-gradient-12)"/>
      <rect id="Rectangle_149" data-name="Rectangle 149" width="47.466" height="47.466" rx="7.585" transform="matrix(0.993, 0.118, -0.118, 0.993, 14.466, 17.801)" fill="none" stroke="#fff" stroke-linejoin="round" stroke-width="2.5"/>
      <circle id="Ellipse_125" data-name="Ellipse 125" cx="12.386" cy="12.386" r="12.386" transform="translate(22.389 56.099) rotate(-87.893)" fill="none" stroke="#fff" stroke-linejoin="round" stroke-width="2.5"/>
      <path id="Path_2073" data-name="Path 2073" d="M405.327,120.9a2.2,2.2,0,1,1-1.921-2.44A2.2,2.2,0,0,1,405.327,120.9Z" transform="translate(-350.912 -90.141)" fill="#fff"/>
    </g>
    <g id="Group_1093" data-name="Group 1093" transform="translate(128.745 54.495)">
      <path id="Path_2074" data-name="Path 2074" d="M110.379,64.083l53.316-13.53a7.828,7.828,0,0,1,5.587.66c1.9,1,15.126,9.011,15.126,9.011l2.367,49.329a7.859,7.859,0,0,1-5.684,9.55L137.3,140.963s-13.746-8.166-15.475-9.194a7.837,7.837,0,0,1-3.6-4.821L104.7,73.633A7.857,7.857,0,0,1,110.379,64.083Z" transform="translate(-104.451 -50.31)" fill="url(#linear-gradient-13)"/>
      <rect id="Rectangle_150" data-name="Rectangle 150" width="70.723" height="70.723" rx="5.854" transform="matrix(-0.969, 0.246, -0.246, -0.969, 99.355, 75.848)" fill="#ef353f"/>
      <g id="Group_1092" data-name="Group 1092" transform="translate(30.075 28.098)">
        <rect id="Rectangle_151" data-name="Rectangle 151" width="45.61" height="34.178" transform="matrix(-0.969, 0.246, -0.246, -0.969, 52.615, 33.128)" fill="#fff"/>
        <path id="Path_2075" data-name="Path 2075" d="M177.327,99.343,150.393,85.919l-17.275,24.642" transform="translate(-124.712 -66.215)" fill="none" stroke="#ef353f" stroke-miterlimit="10" stroke-width="1.5"/>
        <path id="Path_2076" data-name="Path 2076" d="M126.856,82.459,152.8,95.389a1.284,1.284,0,0,0,1.624-.412l16.639-23.736" transform="translate(-126.856 -71.241)" fill="#fff" stroke="#ef353f" stroke-miterlimit="10" stroke-width="1.5"/>
      </g>
    </g>
    <g id="Group_1094" data-name="Group 1094" transform="translate(341.412 498.555)">
      <path id="Path_2077" data-name="Path 2077" d="M340.482,386.937l-52.114-5.783a7.464,7.464,0,0,0-5.19,1.356c-1.666,1.195-13.1,10.492-13.1,10.492l4.234,46.886a7.492,7.492,0,0,0,6.619,8.272l44.216,14.9s11.908-9.512,13.405-10.711a7.468,7.468,0,0,0,2.765-5.022l5.783-52.116A7.49,7.49,0,0,0,340.482,386.937Z" transform="translate(-260.409 -381.108)" fill="url(#linear-gradient-14)"/>
      <rect id="Rectangle_152" data-name="Rectangle 152" width="67.416" height="67.416" rx="5.58" transform="translate(7.435 9.686) rotate(6.332)" fill="#ef353f"/>
      <path id="Path_2078" data-name="Path 2078" d="M284.22,405.1l-2.779,30.351a2.14,2.14,0,0,0,3.148,2.078L308.81,424.44a2.14,2.14,0,0,0,.326-3.549l-21.443-17.266A2.139,2.139,0,0,0,284.22,405.1Z" transform="translate(-256.521 -373.561)" fill="#fff"/>
    </g>
    <g id="Group_1095" data-name="Group 1095" transform="translate(70.935 419.143)">
      <path id="Path_2079" data-name="Path 2079" d="M67.8,350.57,135,322.743a10.36,10.36,0,0,1,7.437-.2c2.681.949,21.5,8.92,21.5,8.92l12.461,64.1a10.391,10.391,0,0,1-5.625,13.574L117.62,446.051s-19.537-8.075-21.994-9.092A10.359,10.359,0,0,1,90,431.336L62.179,364.143A10.388,10.388,0,0,1,67.8,350.57Z" transform="translate(-61.386 -321.95)" fill="url(#linear-gradient-15)"/>
      <rect id="Rectangle_153" data-name="Rectangle 153" width="93.506" height="93.506" rx="7.74" transform="translate(140.448 92.102) rotate(157.505)" fill="#0991fd"/>
      <path id="Path_2080" data-name="Path 2080" d="M157.263,369.835c.384,3.007,2.375,6.176,4.481,9.44,3.607,5.588,3.54,11.653.166,17.38a16.838,16.838,0,0,1-15.348,8.671,6.613,6.613,0,0,0-3.226.718c-17.609,9.269-38.258.165-43.252-19.087a7.106,7.106,0,0,0-1.979-3.459,17.264,17.264,0,0,1,13.44-29.445,7.048,7.048,0,0,0,3.935-.758C131.164,345.141,150.477,352.468,157.263,369.835ZM136.58,398.952c.741-.362,1.889-.859,2.975-1.465,3.639-2.031,6.834-4.513,8.448-8.556a10.859,10.859,0,0,0-9.228-15.063,29.864,29.864,0,0,0-5.68.133c-3.71.4-7.379,1.239-11.127,1.224-1.622-.005-3.294-.334-3.964-2.134-.685-1.84.248-3.349,1.58-4.391,4.246-3.318,8.469-4.293,12.389-.773a11.539,11.539,0,0,0,1.744,1.227,3.488,3.488,0,0,0,3.568.063c2.72-1.373,3.275-4.447,1.21-6.9a9.56,9.56,0,0,0-6.826-3.43,23.648,23.648,0,0,0-19.518,7.619,9.4,9.4,0,0,0-2.086,10.563c1.652,4.046,4.826,5.988,9.111,6.305a43,43,0,0,0,9.383-.644c2.4-.348,4.782-.967,7.238-.615,3.824.548,5.305,3.937,3.108,7.093a9.9,9.9,0,0,1-14.883,1.7c-.436-.4-.874-.8-1.342-1.165a4.251,4.251,0,0,0-5.817.211c-1.554,1.465-1.636,3.657-.166,5.642a12.319,12.319,0,0,0,9.72,5.141A26.377,26.377,0,0,0,136.58,398.952Z" transform="translate(-50.559 -312.358)" fill="#fbfcfd"/>
    </g>
    <g id="Group_1099" data-name="Group 1099" transform="translate(325.161 38.086)">
      <path id="Path_2081" data-name="Path 2081" d="M355.464,56.69l-60.08-18.216a8.943,8.943,0,0,0-6.406.46c-2.223,1.042-17.717,9.483-17.717,9.483l-5.28,56.119a8.971,8.971,0,0,0,5.98,11.186l48.788,27.216s16.1-8.591,18.125-9.673a8.941,8.941,0,0,0,4.353-5.308l18.216-60.08A8.97,8.97,0,0,0,355.464,56.69Z" transform="translate(-245.694 -38.086)" fill="url(#linear-gradient-16)"/>
      <rect id="Rectangle_154" data-name="Rectangle 154" width="80.719" height="80.719" rx="6.681" transform="translate(23.421 7.243) rotate(16.867)" fill="#fff"/>
      <g id="Group_1098" data-name="Group 1098" transform="translate(22.738 40.994)">
        <g id="Group_1096" data-name="Group 1096" transform="translate(31.615 9.587)">
          <path id="Path_2082" data-name="Path 2082" d="M314.325,90.974a11.785,11.785,0,1,1-7.854-14.7A11.78,11.78,0,0,1,314.325,90.974Z" transform="translate(-291.259 -75.766)" fill="#ff0084"/>
        </g>
        <g id="Group_1097" data-name="Group 1097">
          <path id="Path_2083" data-name="Path 2083" d="M290.773,83.833a11.785,11.785,0,1,1-7.864-14.7A11.783,11.783,0,0,1,290.773,83.833Z" transform="translate(-267.708 -68.624)" fill="#4176fa"/>
        </g>
      </g>
    </g>
    <g id="Group_1100" data-name="Group 1100" transform="translate(439.863 316.511)">
      <path id="Path_2084" data-name="Path 2084" d="M370.464,279.085c3.19-9.143,9.794-27.887,9.794-27.887l-1.093-3.086-22.928-.317-8.042,22.868q-.113-.1-.23-.189a6.993,6.993,0,0,0-4.414-1.681c-3.384-.124-7.162,2.951-7.162,2.951s.944,2.74,1.156,3.253a6.233,6.233,0,0,0,5.657,3.4,6.133,6.133,0,0,0,6.243-4.041c.031-.075,6.026-17.185,6.026-17.185l19.2,2.666-5.505,15.654-.068-.047a6.792,6.792,0,0,0-4.643-1.936c-3.356-.124-7.011,3.2-7.011,3.2s.869,2.614,1.128,3.175a6.8,6.8,0,0,0,11.241.5A5.449,5.449,0,0,0,370.464,279.085Z" transform="translate(-336.155 -244.709)" fill="url(#linear-gradient-17)"/>
      <path id="Path_2085" data-name="Path 2085" d="M350.883,255.563l-1.092-3.086,20.195,2.232-1.836,3.252Z" transform="translate(-331.567 -243.106)" fill="#87cdff"/>
      <path id="Path_2086" data-name="Path 2086" d="M369.431,276.784c3.191-9.142,9.794-27.885,9.794-27.885l-24.019-3.4-8.042,22.868c-.075-.066-.153-.129-.23-.189a7,7,0,0,0-4.414-1.681c-3.384-.124-6.206,1.925-6.3,4.576s2.568,4.9,5.952,5.023a6.134,6.134,0,0,0,6.245-4.041c.03-.075,6.025-17.185,6.025-17.185l19.2,2.665-5.505,15.655-.067-.047a6.786,6.786,0,0,0-4.643-1.936c-3.356-.124-6.156,1.926-6.252,4.578s2.545,4.9,5.9,5.021a6.277,6.277,0,0,0,5.708-2.728A5.432,5.432,0,0,0,369.431,276.784Z" transform="translate(-336.215 -245.496)" fill="#fff"/>
    </g>
    <g id="Group_1101" data-name="Group 1101" transform="translate(470.26 360.145)">
      <path id="Path_2087" data-name="Path 2087" d="M472.357,305.79l-57.284-26.928a9.011,9.011,0,0,0-6.457-.474c-2.369.715-19.057,6.878-19.057,6.878l-13.445,55.217a9.042,9.042,0,0,0,4.337,12.029l44.706,34.26s17.314-6.223,19.49-7.009a9.011,9.011,0,0,0,5.117-4.659l26.928-57.284A9.043,9.043,0,0,0,472.357,305.79Z" transform="translate(-353.246 -278.001)" fill="url(#linear-gradient-18)"/>
      <rect id="Rectangle_155" data-name="Rectangle 155" width="81.382" height="81.382" rx="6.736" transform="matrix(0.905, 0.425, -0.425, 0.905, 34.622, 3.872)" fill="#1ad4ff"/>
      <path id="Path_2088" data-name="Path 2088" d="M437.536,320.815l-43.181-20.3a4.819,4.819,0,0,0-6.413,2.312L375.125,330.1a4.819,4.819,0,0,0,2.312,6.413l5.07,2.384-4.514,6.594a.523.523,0,0,0,.474.816l16.94-1.346,25.211,11.852a4.821,4.821,0,0,0,6.413-2.312l12.817-27.268A4.82,4.82,0,0,0,437.536,320.815Zm-44.19,6.678a3.811,3.811,0,1,1,5.072-1.827A3.811,3.811,0,0,1,393.345,327.494Zm12.031,5.656a3.811,3.811,0,1,1,5.072-1.827A3.811,3.811,0,0,1,405.376,333.149Zm12.032,5.657a3.812,3.812,0,1,1,5.07-1.828A3.813,3.813,0,0,1,417.408,338.806Z" transform="translate(-353.447 -270.449)" fill="#fff"/>
    </g>
    <g id="Group_1104" data-name="Group 1104" transform="translate(33.498 308.171)">
      <g id="Group_1102" data-name="Group 1102" transform="translate(0.425 8.49)">
        <path id="Path_2089" data-name="Path 2089" d="M87.967,247.995s-11.871-3.937-17.975-1.7a15.476,15.476,0,0,0-10.187,15.784,15.474,15.474,0,0,0-18.769.795c-1.538,1.267-7.221,7.286-7.221,7.286a65.934,65.934,0,0,0,2.631,10.068,15.518,15.518,0,0,0,10.472,9.539l30.159,8.2a4.018,4.018,0,0,0,4.932-2.823l8.2-30.159C91.449,260.413,87.967,247.995,87.967,247.995Z" transform="translate(-33.815 -245.607)" fill="url(#linear-gradient-19)"/>
      </g>
      <g id="Group_1103" data-name="Group 1103">
        <path id="Path_2090" data-name="Path 2090" d="M85.317,245.02A15.487,15.487,0,0,0,57.84,255.978a15.5,15.5,0,1,0-12.887,27.687l30.159,8.2a4.018,4.018,0,0,0,4.931-2.823l8.2-30.161A15.514,15.514,0,0,0,85.317,245.02Z" transform="translate(-33.498 -239.283)" fill="#ef353f"/>
      </g>
    </g>
    <g id="Group_1107" data-name="Group 1107" transform="translate(462.775 217.235)">
      <g id="Group_1105" data-name="Group 1105" transform="translate(0 5.701)">
        <path id="Path_2091" data-name="Path 2091" d="M355.444,177.012s8.17-2.3,12.24-.595a10.5,10.5,0,0,1,6.418,11.017,10.5,10.5,0,0,1,12.7,1.12c1,.907,4.67,5.164,4.67,5.164a44.639,44.639,0,0,1-2.1,6.746,10.53,10.53,0,0,1-7.4,6.143l-20.7,4.625a2.725,2.725,0,0,1-3.255-2.066l-4.626-20.7C352.7,185.326,355.444,177.012,355.444,177.012Z" transform="translate(-353.284 -175.788)" fill="url(#linear-gradient-20)"/>
      </g>
      <g id="Group_1106" data-name="Group 1106" transform="translate(1.522 0)">
        <path id="Path_2092" data-name="Path 2092" d="M357.084,175.066a10.512,10.512,0,0,1,18.291,8.281,10.519,10.519,0,1,1,7.881,19.172l-20.7,4.626a2.727,2.727,0,0,1-3.255-2.067l-4.626-20.7A10.535,10.535,0,0,1,357.084,175.066Z" transform="translate(-354.417 -171.541)" fill="#ef353f"/>
      </g>
    </g>
    <g id="Group_1109" data-name="Group 1109" transform="translate(492.969 226.001)">
      <path id="Path_2093" data-name="Path 2093" d="M504.432,217.055l-57.385-37.4a9.75,9.75,0,0,0-6.85-1.47c-2.646.413-21.45,4.532-21.45,4.532L396.11,239.9a9.784,9.784,0,0,0,2.857,13.539l42.812,43.382,21.935-4.608a9.764,9.764,0,0,0,6.179-4.233l37.4-57.386A9.785,9.785,0,0,0,504.432,217.055Z" transform="translate(-369.358 -178.071)" fill="url(#linear-gradient-21)"/>
      <rect id="Rectangle_156" data-name="Rectangle 156" width="88.065" height="88.065" rx="7.289" transform="matrix(0.838, 0.546, -0.546, 0.838, 48.08, 0.761)" fill="#107dff"/>
      <g id="Group_1108" data-name="Group 1108" transform="translate(21.909 25.5)">
        <path id="Path_2094" data-name="Path 2094" d="M405.107,212.335c3.14-4.784,6.313-9.547,9.39-14.373.673-1.054,1.1-1.141,2.144-.45,5.77,3.839,11.594,7.6,17.4,11.381a13.887,13.887,0,0,1,4.68,4.673,10.8,10.8,0,0,1-1.5,12.908c-.285.321-.552.658-.827.987a7.514,7.514,0,0,1-7.446,1.475,24.506,24.506,0,0,1,1.624,2.039c1.667,2.643,1.125,5.359.086,8.026a15.9,15.9,0,0,1-3.52,5.368c-3.779,3.854-9.046,4.535-14.4,1.951a45.9,45.9,0,0,1-4.966-3.007c-4.983-3.235-9.943-6.505-14.946-9.707-.858-.549-.932-.924-.375-1.773C396.7,225.354,400.9,218.839,405.107,212.335Zm9.374,3.957c-.314.385.03.524.27.678q2.6,1.671,5.2,3.33a32.088,32.088,0,0,0,4.127,2.7,3.165,3.165,0,0,0,2.771.627c2.29-.557,4.7-4.269,4.211-6.488a2.732,2.732,0,0,0-1.191-1.773c-3.242-2.113-6.49-4.215-9.726-6.337-.486-.32-.783-.348-1.132.208C417.522,211.606,415.994,213.945,414.481,216.293Zm-4.65,19.164.008-.013c1.587,1.034,3.147,2.109,4.766,3.089a4.284,4.284,0,0,0,4.645.29,13.077,13.077,0,0,0,1.93-1.744c2.43-2.242,2.387-6.285-.185-8.038-3.2-2.18-6.484-4.234-9.714-6.368-.575-.38-.863-.267-1.218.286q-2.608,4.077-5.29,8.107c-.417.624-.318.925.293,1.3C406.675,233.365,408.246,234.423,409.831,235.457Z" transform="translate(-392.097 -197.067)" fill="#fcfdfe"/>
        <path id="Path_2095" data-name="Path 2095" d="M434.87,223.536c5.5-.255,10.021,1.932,13.917,5.631a12.866,12.866,0,0,1,4.046,9.186,21.485,21.485,0,0,1-3.9,10.922c-.724,1.111-1.246,1.121-2.308.413-5.446-3.633-10.966-7.156-16.423-10.771-.847-.561-1.185-.442-1.607.424a6.586,6.586,0,0,0,1.552,8.317,10.61,10.61,0,0,0,4.964,2.618,4.247,4.247,0,0,0,4.18-1.09c.494-.5.795-.423,1.281-.1,1.575,1.055,3.144,2.124,4.771,3.093.813.483.67.859.2,1.477a9.865,9.865,0,0,1-10.008,3.959c-4.549-.722-8.183-3.185-11.6-6.125a12.948,12.948,0,0,1-4.505-9.585,17.084,17.084,0,0,1,3.948-11.467,21.012,21.012,0,0,1,8.558-6.349,7.96,7.96,0,0,1,1.627-.341l-.032-.079a.3.3,0,0,0,.456-.106l-.068-.031-.03.071c.184.094.345.093.454-.113l-.083-.016-.015.085C434.457,223.554,434.664,223.546,434.87,223.536Zm3.38,13.721c1.732,1.128,3.477,2.236,5.188,3.4.585.4.848.275,1.168-.32a6.132,6.132,0,0,0-1.274-7.551,7.477,7.477,0,0,0-10.225-.113c-.642.538-.713.814.048,1.283C434.878,235.017,436.556,236.151,438.251,237.257Z" transform="translate(-382.744 -188.025)" fill="#fcfdfe"/>
        <path id="Path_2096" data-name="Path 2096" d="M441.735,225.928c-2.2-1.432-4.384-2.882-6.6-4.286-.609-.385-.722-.711-.287-1.314a30.523,30.523,0,0,0,1.824-2.814c.416-.737.8-.66,1.418-.252q6.572,4.331,13.188,8.6c.658.423.787.749.3,1.4a29.541,29.541,0,0,0-1.832,2.808c-.387.67-.737.628-1.316.24C446.214,228.824,443.97,227.385,441.735,225.928Z" transform="translate(-377.55 -190.258)" fill="#fcfdfe"/>
      </g>
    </g>
    <g id="Group_1110" data-name="Group 1110" transform="translate(44.536 154.111)">
      <path id="Path_2097" data-name="Path 2097" d="M85.819,135.845a23.51,23.51,0,0,1,8.512,15.29,87.348,87.348,0,0,1,.521,14.483c-.321,7.993-.062,27.24-.062,27.24l-3.846,6.552c-.232.34-.566.746-1.051.558a264.217,264.217,0,0,1-27.8-15.792,95.154,95.154,0,0,1-11.939-9.126,24.363,24.363,0,0,1-7.211-10.785,26.814,26.814,0,0,1,1.395-19.556,133.119,133.119,0,0,1,7.728-12.977S77.658,128.846,85.819,135.845Zm-5.85,14.5a12.9,12.9,0,1,0-5.678,17.346A12.908,12.908,0,0,0,79.968,150.346Z" transform="translate(-41.721 -122.249)" fill="url(#linear-gradient-22)"/>
      <path id="Path_2098" data-name="Path 2098" d="M88.8,130.9a23.5,23.5,0,0,1,8.512,15.291,87.487,87.487,0,0,1,.522,14.483,255.4,255.4,0,0,1-3.909,33.792c-.172.983-.183.991-1.051.557a264.224,264.224,0,0,1-27.8-15.792,95.015,95.015,0,0,1-11.938-9.126,24.34,24.34,0,0,1-7.211-10.785A26.77,26.77,0,0,1,88.8,130.9Zm-5.85,14.5a12.9,12.9,0,1,0-5.677,17.346A12.909,12.909,0,0,0,82.947,145.4Z" transform="translate(-40.701 -124.518)" fill="#fff650"/>
    </g>
  </g>
</svg>
