<svg xmlns="http://www.w3.org/2000/svg" width="84.467" height="66.399" viewBox="0 0 84.467 66.399">
  <g id="Group_1571" data-name="Group 1571" transform="translate(-242.595 -358.379)">
    <g id="Group_1570" data-name="Group 1570" transform="translate(242.595 367.586)">
      <g id="Group_1569" data-name="Group 1569">
        <path id="Path_2932" data-name="Path 2932" d="M286.79,436.148l-5.38-.81a16.25,16.25,0,0,0-.6-2.252l4.257-3.392a.826.826,0,0,0,.2-1.063l-1.553-2.682a.828.828,0,0,0-1.018-.356l-5.073,1.994a17.057,17.057,0,0,0-1.642-1.651l2-5.071a.829.829,0,0,0-.355-1.02l-2.681-1.554a.829.829,0,0,0-1.063.2l-3.4,4.263a16.866,16.866,0,0,0-2.248-.6l-.807-5.39a.828.828,0,0,0-.819-.705H263.49a.829.829,0,0,0-.819.705l-.809,5.39a16.77,16.77,0,0,0-2.244.6l-3.388-4.263a.829.829,0,0,0-1.061-.2l-2.694,1.554a.829.829,0,0,0-.358,1.021l2,5.071a16.74,16.74,0,0,0-1.642,1.651l-5.083-1.994a.826.826,0,0,0-1.02.358l-1.544,2.682a.826.826,0,0,0,.2,1.06l4.255,3.393a16.468,16.468,0,0,0-.6,2.252l-5.38.81a.827.827,0,0,0-.705.818v3.1a.829.829,0,0,0,.705.82l5.381.81a16.62,16.62,0,0,0,.6,2.25l-4.256,3.393a.824.824,0,0,0-.2,1.058l1.544,2.691a.826.826,0,0,0,1.02.361l5.084-2a17.289,17.289,0,0,0,1.64,1.642l-2,5.071a.831.831,0,0,0,.358,1.023l2.694,1.554a.83.83,0,0,0,1.061-.2l3.388-4.263a17.137,17.137,0,0,0,2.244.6l.809,5.39a.829.829,0,0,0,.819.707H266.6a.828.828,0,0,0,.819-.707l.807-5.39a17.3,17.3,0,0,0,2.248-.6l3.4,4.265a.832.832,0,0,0,1.063.2l2.681-1.554a.83.83,0,0,0,.355-1.021l-2-5.071a16.936,16.936,0,0,0,1.639-1.643l5.075,1.986a.83.83,0,0,0,1.018-.356l1.553-2.681a.828.828,0,0,0-.2-1.064l-4.259-3.391a16.255,16.255,0,0,0,.6-2.252l5.381-.81a.829.829,0,0,0,.705-.82v-3.1A.827.827,0,0,0,286.79,436.148ZM265.045,447.28a8.765,8.765,0,1,1,8.77-8.761A8.775,8.775,0,0,1,265.045,447.28Z" transform="translate(-242.595 -416.059)" fill="#fff"/>
      </g>
    </g>
    <g id="Group_1544" data-name="Group 1544" transform="translate(265.86 358.379)">
      <g id="Group_1543" data-name="Group 1543" transform="translate(0)">
        <g id="Group_1542" data-name="Group 1542">
          <path id="Path_2896" data-name="Path 2896" d="M447.642,388.581l8.773-8.275-39-21.443a4.069,4.069,0,0,0-1.785-.484Z" transform="translate(-411.275 -358.379)" fill="#a1cc3a"/>
          <path id="Path_2897" data-name="Path 2897" d="M388.879,371.645a4.131,4.131,0,0,0-.524,2.005v58.162a4.131,4.131,0,0,0,.524,2.005l32.814-31.087Z" transform="translate(-388.355 -369.528)" fill="#a1cc3a"/>
          <path id="Path_2898" data-name="Path 2898" d="M656.218,515.23l-9.82-5.4-9.573,9.029,9.573,9.031,9.82-5.4a4.143,4.143,0,0,0,0-7.263Z" transform="translate(-597.166 -485.658)" fill="#a1cc3a"/>
          <path id="Path_2899" data-name="Path 2899" d="M447.65,585.216l-32.012,30.193a4.083,4.083,0,0,0,1.786-.481l39-21.444Z" transform="translate(-411.282 -549.01)" fill="#a1cc3a"/>
        </g>
      </g>
    </g>
  </g>
</svg>
