<svg xmlns="http://www.w3.org/2000/svg" width="91.603" height="122" viewBox="0 0 91.603 122">
  <g id="Group_1552" data-name="Group 1552" transform="translate(-299.43 -155.54)">
    <path id="Path_2912" data-name="Path 2912" d="M370.564,177.369a52.875,52.875,0,0,1,5.309.21V162.3a6.759,6.759,0,0,0-6.761-6.759H306.189a6.759,6.759,0,0,0-6.759,6.759V270.781a6.76,6.76,0,0,0,6.759,6.759h62.923a6.76,6.76,0,0,0,6.761-6.759v-30.04c-2.654.14-3.5.063-5.309.063q-.954,0-1.9-.056v6.521H307.1V170.905h61.571v6.52Q369.608,177.369,370.564,177.369ZM359.129,259.4h5.2a1.81,1.81,0,0,1,1.811,1.811V264.6a1.81,1.81,0,0,1-1.811,1.811h-5.2Zm-21.517-4.426a7.682,7.682,0,1,1-7.682,7.682A7.683,7.683,0,0,1,337.612,254.971Zm-26.65,5.982a1.653,1.653,0,0,1,1.654-1.652h5.356v7.008h-5.356a1.653,1.653,0,0,1-1.654-1.652ZM352.8,165.618H322.459v-3.832H352.8Z" fill="#a1cc3a" fill-rule="evenodd"/>
    <path id="Path_2913" data-name="Path 2913" d="M646.058,748.181v3.387a1.81,1.81,0,0,1-1.811,1.811h-5.2V746.37h5.2A1.81,1.81,0,0,1,646.058,748.181Z" transform="translate(-279.921 -486.973)" fill="none" stroke="#a1cc3a" stroke-miterlimit="10" stroke-width="1" fill-rule="evenodd"/>
    <path id="Path_2914" data-name="Path 2914" d="M646.058,748.181v3.387a1.81,1.81,0,0,1-1.811,1.811h-5.2V746.37h5.2A1.81,1.81,0,0,1,646.058,748.181Z" transform="translate(-279.921 -486.973)" fill="none" stroke="#a1cc3a" stroke-miterlimit="10" stroke-width="1" fill-rule="evenodd"/>
    <circle id="Ellipse_137" data-name="Ellipse 137" cx="9.425" cy="9.425" r="9.425" transform="translate(362.633 183.024)" fill="#fff"/>
    <path id="Rectangle_190" data-name="Rectangle 190" d="M18.975,0h0A18.975,18.975,0,0,1,37.949,18.975v8.413a2.368,2.368,0,0,1-2.368,2.368H2.368A2.368,2.368,0,0,1,0,27.388V18.975A18.975,18.975,0,0,1,18.975,0Z" transform="translate(353.084 206.317)" fill="#fff"/>
  </g>
</svg>
