<svg xmlns="http://www.w3.org/2000/svg" xmlns:xlink="http://www.w3.org/1999/xlink" width="666.02" height="550.2" viewBox="0 0 666.02 550.2"><defs><radialGradient id="a" cx="0.5" cy="0.5" r="0.5" gradientTransform="translate(0)" gradientUnits="objectBoundingBox"><stop offset="0" stop-color="#27aae1"/><stop offset="0.435" stop-color="#27aae1"/><stop offset="1" stop-color="#2e3192"/></radialGradient><radialGradient id="b" cx="0.5" cy="0.5" r="0.5" gradientTransform="translate(-0.001)" xlink:href="#a"/><linearGradient id="c" y1="0.5" x2="1" y2="0.5" gradientUnits="objectBoundingBox"><stop offset="0" stop-color="#fff"/><stop offset="1" stop-color="#231f20"/></linearGradient><radialGradient id="d" cx="0.5" cy="0.5" r="0.502" gradientTransform="matrix(0.992, 0.002, -0.002, 1, -0.029, 0.003)" gradientUnits="objectBoundingBox"><stop offset="0" stop-color="#27aae1"/><stop offset="0.602" stop-color="#27aae1"/><stop offset="1" stop-color="#2e3192"/></radialGradient><radialGradient id="e" cx="0.5" cy="0.5" r="0.498" gradientTransform="matrix(1.008, 0.002, -0.002, 1, -0.002, 0.002)" xlink:href="#d"/><radialGradient id="f" cx="0.5" cy="0.5" r="0.416" gradientTransform="matrix(1.603, 0.002, -0.003, 1, -0.108, 0)" xlink:href="#d"/><linearGradient id="g" x1="-2.379" y1="-9.138" x2="-1.378" y2="-9.138" xlink:href="#c"/><linearGradient id="h" x1="-2.069" y1="-8.119" x2="-1.069" y2="-8.119" xlink:href="#c"/><linearGradient id="i" x1="-0.517" y1="-0.384" x2="0.48" y2="-0.384" xlink:href="#c"/></defs><g transform="translate(-168.623 -143.036)"><g transform="translate(168.623 143.036)"><g transform="translate(0 0.004)"><path d="M613.636,519.868c-40.96-41.028-19.395-7.017-1.485-80.038,23.846,0,52.017,5.368,52.017-17.462,0-44.89,7.219-79.519-17.377-79.519-58.525,0-18.023,10.126-57.619-55.534,16.705-16.73,40.63-33.066,24.465-49.121-37.582-37.642-52.109-60.383-68.42-43.909-41.216,41.28-6.487,19.551-79.91,1.489,0-23.743,5.393-52.1-17.434-52.1-53.193,0-79.4-5.777-79.4,17.405,0,57.843,8.875,18.794-55.445,57.708-16.705-16.734-33.013-40.694-49.043-24.5-37.585,37.642-60.295,52.194-43.845,68.526,40.964,41.028,19.405,6.981,1.489,80.038-23.85,0-52.02-5.368-52.02,17.462,0,44.893-7.216,79.519,17.38,79.519,58.525,0,18.016-10.122,57.616,55.534C227.9,512.1,203.98,528.431,220.141,544.486c37.585,37.642,52.113,60.383,68.423,43.912,41.213-41.283,6.487-19.558,79.91-1.489,0,23.744-5.4,52.1,17.434,52.1,44.986,0,79.4,7.237,79.4-17.409,0-57.843-8.875-18.794,55.445-57.708,16.705,16.734,33.013,40.694,49.043,24.507C607.376,550.756,630.085,536.2,613.636,519.868Z" transform="translate(-168.623 -143.037)" fill-rule="evenodd" fill="url(#a)"/><path d="M515.02,326.062c-27.2,0-8.79,4.224-27.079-26.1,10.545-10.559,18.471-16.158,11.5-23.086-20.478-20.51-24.912-27.954-32.16-20.638-19.345,19.38-3.091,9.177-37.557.7,0-15,1.634-24.486-8.2-24.486-28.984,0-37.315-2.118-37.315,8.178,0,27.2,4.182,8.829-26.06,27.126-10.545-10.563-16.137-18.5-23.054-11.518-20.478,20.51-27.911,24.955-20.606,32.21,19.288,19.317,9.138,3.208.7,37.617-14.762,0-24.45-1.741-24.45,8.207,0,28.984-2.128,37.375,8.168,37.375,27.2,0,8.722-4.345,27.083,26.1-10.63,10.648-18.475,16.162-11.5,23.09,20.478,20.51,24.916,27.954,32.16,20.638,19.349-19.38,3.091-9.184,37.56-.7,0,15-1.638,24.486,8.193,24.486,28.984,0,37.319,2.117,37.319-8.179,0-27.2-4.185-8.829,26.06-27.126,10.545,10.563,16.133,18.5,23.051,11.518,20.478-20.51,27.914-24.955,20.606-32.21-19.285-19.317-9.138-3.208-.7-37.621,14.762,0,24.447,1.744,24.447-8.207C523.188,334.457,525.32,326.062,515.02,326.062Z" transform="translate(142.649 84.755)" fill-rule="evenodd" fill="url(#b)"/></g><g opacity="0.42" style="mix-blend-mode:color-dodge;isolation:isolate"><path d="M368.474,161.084c0,57.843,8.871,18.794-55.445,57.708-16.705-16.734-33.013-40.694-49.043-24.5-37.585,37.638-60.291,52.191-43.845,68.526,40.964,41.028,19.395,7.017,1.489,80.038-23.85,0-52.02-5.368-52.02,17.462,0,44.89-7.216,79.519,17.38,79.519,58.525,0,18.02-10.125,57.616,55.534-16.705,16.73-40.63,33.066-24.465,49.121,37.581,37.642,52.113,60.383,68.423,43.912,41.213-41.284,6.487-19.555,79.91-1.489,0,37.791-.835,37.237,2.469,43.06,149.548-114.78,173.693-338.93,53.789-486.293C397.423,143.679,368.474,137.884,368.474,161.084Z" transform="translate(-168.623 -143.036)" fill="url(#c)"/></g></g><g transform="translate(326.205 233.065)"><path d="M265.83,261.712c-.028,18.773-28.43,18.755-28.4-.046C237.46,242.893,265.858,242.911,265.83,261.712Z" transform="translate(-150.55 33.863)" fill-rule="evenodd" fill="url(#d)"/><path d="M253.617,246.764c-22.553-.039-22.635,34.075-.053,34.11C276.113,280.91,276.2,246.8,253.617,246.764Zm-.053,32.682c-20.663-.032-20.638-31.29.05-31.254C274.273,248.224,274.259,279.482,253.563,279.446Z" transform="translate(-152.509 31.732)" fill-rule="evenodd" fill="url(#e)"/><path d="M399.573,169.274c-177.978-.288-185.307-5.9-185.339,14.932-.49,304.93-6.885,308,14.737,308.039,177.978.284,185.307,5.9,185.339-14.936C414.8,172.383,421.2,169.306,399.573,169.274Zm-121.907,35c.011-8.154,3.055-5.994,67.631-5.891,6.338.011,5.233,6.008,5.987,6.008-.011,8.154-3.055,5.994-67.628,5.891C279.023,210.27,276.237,204.269,277.665,204.269Zm36.359,278.8c-25.307-.039-25.282-38.331.064-38.289C339.4,444.823,339.378,483.115,314.025,483.072Zm80.052-53.6-159.929-.256.341-210.067,159.926.259Z" transform="translate(-212.977 -168.376)" fill-rule="evenodd" fill="url(#f)"/><g transform="translate(76.79 0.177)" opacity="0.45" style="mix-blend-mode:screen;isolation:isolate"><path d="M237.817,256.695c1.24,2.469,9.983,20.251,12.808,20.251C283.687,277,251.947,226.78,237.817,256.695Z" transform="translate(-226.357 32.628)" fill="url(#g)"/><path d="M268.816,263.843c.028-17-22.258-23.566-31.435-9.173,2.444,5.041.686-6.505,14.4-6.48,20.659.032,20.645,31.29-.05,31.254C244.43,279.071,268.784,285.462,268.816,263.843Z" transform="translate(-227.47 31.558)" fill="url(#h)"/><path d="M359.133,477.182c.49-304.926,6.885-308-14.737-308.035-82.155-.131-70.729-7.653-91.666,29.044,36.821.06,43.39-1.99,43.376,6.068,1.435,0-1.371,5.994-6,5.99-51.171-.085-42.651-3.055-48.133,8.868l97.269.16L338.9,429.34c-121.424-.2-110.222-7.93-95.432,23.136,10.914-14.829,34.59-7.155,34.558,11.355-.039,24.1-24.255,10.069-11.252,28.437C338.392,492.381,359.1,497.671,359.133,477.182Z" transform="translate(-234.591 -168.426)" fill="url(#i)"/></g></g></g></svg>