<svg xmlns="http://www.w3.org/2000/svg" xmlns:xlink="http://www.w3.org/1999/xlink" width="508.781" height="558.347" viewBox="0 0 508.781 558.347"><defs><linearGradient id="a" x1="0.068" y1="0.106" x2="0.916" y2="0.88" gradientUnits="objectBoundingBox"><stop offset="0" stop-color="#3a9bd5"/><stop offset="0.305" stop-color="#3a9bd5"/><stop offset="0.356" stop-color="#3a9bd5"/><stop offset="0.599" stop-color="#3999d3"/><stop offset="0.688" stop-color="#3592cf"/><stop offset="0.752" stop-color="#2f86c7"/><stop offset="0.804" stop-color="#2675bb"/><stop offset="0.81" stop-color="#2573ba"/></linearGradient><linearGradient id="b" x1="6.44" y1="-1.815" x2="6.999" y2="-1.305" gradientUnits="objectBoundingBox"><stop offset="0" stop-color="#59bdef"/><stop offset="1" stop-color="#7bdaff"/></linearGradient><linearGradient id="c" x1="-0.397" y1="6.337" x2="-2.263" y2="6.151" xlink:href="#b"/><linearGradient id="d" x1="-11.939" y1="0.82" x2="-10.511" y2="1.179" gradientUnits="objectBoundingBox"><stop offset="0" stop-color="#2573ba"/><stop offset="0.907" stop-color="#0364ae"/><stop offset="1" stop-color="#0063ad"/></linearGradient><linearGradient id="e" x1="-32.724" y1="0.5" x2="-31.724" y2="0.5" gradientUnits="objectBoundingBox"><stop offset="0" stop-color="#0063ad"/><stop offset="1" stop-color="#2573ba"/></linearGradient><linearGradient id="f" x1="-12.368" y1="0.896" x2="-11.214" y2="0.896" gradientUnits="objectBoundingBox"><stop offset="0" stop-color="#7bdaff"/><stop offset="1" stop-color="#59bdef"/></linearGradient></defs><g transform="translate(-519.92 -78.99)"><g transform="translate(519.92 296.749)"><path d="M1023.182,405.993,873.8,492.274c-6.672,3.851-16.766,4.27-22.545.934L523.821,304.166c-5.779-3.336-5.055-9.165,1.619-13.018l149.383-86.281c6.672-3.851,16.766-4.27,22.545-.934L1024.8,392.975C1030.578,396.313,1029.854,402.139,1023.182,405.993Z" transform="translate(-519.92 -154.871)" fill="#13247a" opacity="0.5"/><path d="M1028.7,368.444l-30.776-5.356L697.368,189.56c-5.779-3.336-15.873-2.918-22.545.936L535.595,270.913l-15.673-2.728,0,15.921.015,0c-.013,2.13,1.255,4.166,3.886,5.684L851.252,478.835c5.779,3.336,15.873,2.918,22.545-.934l149.385-86.283c3.7-2.139,5.568-4.886,5.509-7.478h.009Z" transform="translate(-519.919 -171.493)" fill="url(#a)"/><path d="M1023.182,384.285,873.8,470.566c-6.672,3.853-16.766,4.272-22.545.934L523.821,282.458c-5.779-3.336-5.055-9.165,1.619-13.018l149.383-86.281c6.672-3.851,16.766-4.27,22.545-.934L1024.8,371.269C1030.578,374.6,1029.854,380.431,1023.182,384.285Z" transform="translate(-519.92 -179.974)" fill="url(#b)"/><path d="M1023.174,330.855,873.788,417.136c-6.672,3.851-16.766,4.27-22.545.934L523.813,229.028a7.209,7.209,0,0,1-3.793-4.61c-.457,2.471.768,4.9,3.793,6.646L851.244,420.1c5.779,3.338,15.873,2.92,22.545-.934l149.385-86.281c4.151-2.4,6-5.557,5.41-8.408C1028.166,326.732,1026.354,329.017,1023.174,330.855Z" transform="translate(-519.911 -128.579)" fill="#fff"/><path d="M1020.566,368.824,847.018,469.057,522.375,281.624,695.923,181.391Z" transform="translate(-517.08 -178.334)" fill="#0f65b2"/><path d="M582.115,200.888,559.063,214.2a3.762,3.762,0,0,1-3.383.14l-.233-.136c-.867-.5-.759-1.374.242-1.952l23.054-13.309a3.751,3.751,0,0,1,3.381-.14l.235.134C583.225,199.435,583.115,200.31,582.115,200.888Z" transform="translate(-479.514 -158.594)" fill="#0063ad"/><g transform="translate(37.768 91.655)"><path d="M547.239,230.764l-2.911,1.68-6.894-3.98,2.911-1.68Z" transform="translate(-537.434 -217.498)" fill="#fff"/><path d="M549.725,229.329l-2.91,1.68-6.894-3.98,2.911-1.68Z" transform="translate(-534.559 -219.158)" fill="#fff"/><path d="M552.211,227.893l-2.911,1.68-6.893-3.98,2.91-1.68Z" transform="translate(-531.684 -220.818)" fill="#fff"/><path d="M554.7,226.458l-2.91,1.68-6.894-3.98,2.911-1.68Z" transform="translate(-528.809 -222.478)" fill="#fff"/></g></g><g transform="translate(572.521 103.431)"><path d="M600.638,90.324a10.257,10.257,0,1,1-10.256,10.256A10.257,10.257,0,0,1,600.638,90.324Z" transform="translate(-491.04 -90.324)" fill="#fff"/><path d="M585.283,90.324a10.257,10.257,0,1,1-10.258,10.256A10.257,10.257,0,0,1,585.283,90.324Z" transform="translate(-508.798 -90.324)" fill="#7bdaff"/><path d="M569.927,90.324a10.257,10.257,0,1,1-10.258,10.256A10.255,10.255,0,0,1,569.927,90.324Z" transform="translate(-526.555 -90.324)" fill="#7bdaff" opacity="0.5"/><path d="M554.569,90.324a10.257,10.257,0,1,1-10.256,10.256A10.255,10.255,0,0,1,554.569,90.324Z" transform="translate(-544.313 -90.324)" fill="#7bdaff" opacity="0.1"/></g><ellipse cx="58.017" cy="33.496" rx="58.017" ry="33.496" transform="translate(681.305 387.568)" fill="#041860" opacity="0.6"/><path d="M670.079,318.144c-23.06,0-46.118-5.07-63.676-15.2-17.154-9.9-26.6-23.118-26.6-37.21s9.447-27.306,26.6-37.208c35.112-20.27,92.239-20.27,127.351,0,17.154,9.9,26.6,23.119,26.6,37.21s-9.447,27.3-26.6,37.208C716.2,313.074,693.139,318.144,670.079,318.144Zm0-103.3c-22.782,0-45.56,5.007-62.9,15.019-16.656,9.613-25.829,22.353-25.829,35.867s9.173,26.254,25.831,35.871c34.685,20.022,91.118,20.022,125.8,0,16.656-9.617,25.829-22.355,25.829-35.869s-9.173-26.254-25.829-35.869C715.637,219.85,692.857,214.843,670.079,214.843Z" transform="translate(69.244 155.334)" fill="#fff"/><g transform="translate(713.634 78.99)"><path d="M868.714,223.668,619.73,79.915c-1.941-1.119-3.711-1.186-5.072-.4V79.5l-3.7,2.161s.854.123,1.714.242a9.877,9.877,0,0,0-.705,3.881V257.333c0,5.717,3.476,12.356,7.763,14.832L868.714,415.915a7.532,7.532,0,0,0,1.376.623v1.945l3.72-2.167-.022,0c1.645-.949,2.689-3.144,2.689-6.271V238.5C876.477,232.783,873,226.143,868.714,223.668Z" transform="translate(-608.359 -78.99)" fill="#fff"/><path d="M866.5,416.894,617.516,273.144c-4.287-2.476-7.763-9.115-7.763-14.832V86.764c0-5.717,3.476-8.343,7.763-5.87L866.5,224.647c4.287,2.476,7.763,9.115,7.763,14.832V411.027C874.263,416.743,870.787,419.37,866.5,416.894Z" transform="translate(-609.753 -77.864)" fill="url(#c)"/><g transform="translate(182.501 131.201)"><path d="M694.386,164.321V139.833l5.193,3a16.883,16.883,0,0,1,2.564,1.781,11.7,11.7,0,0,1,1.945,2.126,8.871,8.871,0,0,1,1.285,2.687,11.238,11.238,0,0,1,.423,3.239q-.013,4.532-3.122,3.265a9.606,9.606,0,0,1,2.81,3.521,11.276,11.276,0,0,1,.938,4.714q.013,3.493-1.507,4.423t-4.438-.753Zm3.862-12.274,1.2.7q1.7.977,2.342.509c.425-.317.638-1.136.638-2.469a6.743,6.743,0,0,0-.211-1.8,3.721,3.721,0,0,0-.709-1.376,6.139,6.139,0,0,0-1.106-1.065,17.1,17.1,0,0,0-1.619-1.042l-.537-.306Zm0,11.358,1.419.819c1.154.664,1.952.817,2.394.451s.664-1.259.664-2.687a7.844,7.844,0,0,0-.746-3.646,6.251,6.251,0,0,0-2.514-2.445l-1.216-.7Z" transform="translate(-694.386 -139.833)" fill="#fff"/><path d="M700.608,166.576l4.311-22,4.028,2.327,4.3,26.968L709.65,171.8l-.856-6.182-3.67-2.118-.871,5.184Zm4.925-5.751,2.84,1.639-1.421-10.877Z" transform="translate(-687.191 -134.345)" fill="#fff"/><path d="M707.436,171.855V147.367l2.659,1.535,5.195,16.869V151.9l3.2,1.844v24.488l-2.532-1.462-5.244-17.6v14.577Z" transform="translate(-679.295 -131.121)" fill="#fff"/><path d="M714.032,175.661V151.175l3.862,2.232V164.04l4.168-8.229,3.683,2.128-4.052,8.619,4.477,16.11-3.851-2.223-3.657-13.628-.768,1.149v9.928Z" transform="translate(-671.668 -126.717)" fill="#fff"/></g><g transform="translate(21.48 161.305)"><path d="M666.978,187.4l-47.264-27.288v-6.315l47.264,27.288Z" transform="translate(-619.714 -153.793)" fill="#fff"/><path d="M693.919,202.951l-47.264-27.288v-6.315l47.264,27.288Z" transform="translate(-588.56 -135.806)" fill="#fff"/><path d="M720.86,218.506,673.6,191.218V184.9L720.86,212.19Z" transform="translate(-557.405 -117.82)" fill="#fff"/><path d="M747.8,234.06l-47.264-27.288v-6.315L747.8,227.745Z" transform="translate(-526.251 -99.833)" fill="#fff"/></g></g><path d="M665.752,114.126l-56-4.531V224.047c0,5.717,3.476,12.356,7.763,14.834l107.741,62.2c27.845-39.46,21.553-99.918,21.553-99.918Z" transform="translate(103.881 35.391)" fill="#041860" opacity="0.2"/><g transform="translate(650.57 156.313)"><path d="M751.694,208.446l-81.058-87.04-81.058-6.558s-13.027,109.882,81.058,226.43C764.721,333.371,751.694,208.446,751.694,208.446Z" transform="translate(-570.728 -114.848)" fill="url(#d)"/><path d="M599.03,114.848l-18.238,10.529,81.058,6.558,18.238-10.529Z" transform="translate(-580.179 -114.848)" fill="url(#e)"/><path d="M743.235,213.329l-81.056-87.04-33.331-3.368-47.727-3.189s-13.029,109.882,81.058,226.43C756.264,338.254,743.235,213.329,743.235,213.329Z" transform="translate(-580.508 -109.201)" fill="url(#f)"/><path d="M742.906,214.039,661.848,127l-81.056-6.558,2.29-1.324,82.136,6.646,81.058,87.04s10.875,104.431-59.19,128.363C753.429,315.086,742.906,214.039,742.906,214.039Z" transform="translate(-580.179 -109.911)" fill="#fff"/><path d="M729.866,208.89l-72.879-78.255-29.965-3.03-42.912-2.868s-11.714,98.8,72.877,203.584C741.58,321.211,729.866,208.89,729.866,208.89Z" transform="translate(-576.979 -103.412)" fill="#fff" opacity="0.2"/></g><g transform="translate(673.263 199.208)"><rect width="4.053" height="4.053" transform="translate(2.866 5.194) rotate(45)" fill="#fff"/><rect width="4.053" height="4.053" transform="matrix(0.707, 0.707, -0.707, 0.707, 13.218, 5.158)" fill="#fff"/><rect width="4.053" height="4.053" transform="translate(8.06 0) rotate(45)" fill="#fff"/><rect width="4.053" height="4.053" transform="matrix(0.707, 0.707, -0.707, 0.707, 8.024, 10.352)" fill="#fff"/></g><g transform="translate(950.386 151.833)"><path d="M735.085,152.915l-5.9-5.9,14.174-14.176-14.174-14.174,5.9-5.9,20.074,20.072Zm-3.543-5.9,3.543,3.543L752.8,132.842l-17.719-17.717-3.543,3.543,14.174,14.174Z" transform="translate(-708.394 -112.77)" fill="#fff"/><path d="M724.266,113.316l-4.722,4.721,14.174,14.174-14.174,14.174,4.722,4.721,14.174-14.174,4.722-4.721Z" transform="translate(-719.545 -112.139)" fill="#7bdaff" opacity="0.5"/></g><g transform="translate(806.863 456.467)"><path d="M678.786,313.389a1.134,1.134,0,0,1-.089-2.264,116.753,116.753,0,0,0,48.2-14.618c15.174-8.761,24.262-17.482,27.009-25.924a1.134,1.134,0,0,1,2.156.7c-2.928,8.988-12.358,18.135-28.031,27.183a119.053,119.053,0,0,1-49.15,14.916Z" transform="translate(-624.463 -235.818)" fill="#fff"/><path d="M762.2,284.2a1.132,1.132,0,0,1-1.132-1.091c-.241-6.719-5.134-13.02-14.144-18.221-19.923-11.5-45.905-11.442-73.161.173a1.134,1.134,0,0,1-.889-2.087c27.927-11.9,54.628-11.914,75.182-.047,9.723,5.613,15,12.563,15.276,20.1a1.133,1.133,0,0,1-1.091,1.173Z" transform="translate(-630.785 -254.041)" fill="#fff"/><path d="M690.04,328.638a.9.9,0,0,1-.108,0c-9.52-.888-17.9-3.291-24.236-6.948-7.023-4.056-11.4-9.538-12.656-15.856a2.924,2.924,0,0,1,.724-2.514,6.95,6.95,0,0,1,5.553-1.883c2.642.142,4.738,1.363,5.214,3.036,1.251,4.382,4.475,8.1,9.579,11.049,17.7,10.215,51.766,7.163,75.954-6.8,15.608-9.012,23.86-18.2,23.86-26.564,0-5.889-4.179-11.416-12.082-15.979-20.389-11.772-48.074-9.294-75.952,6.8-10.059,5.807-17.273,12.921-20.309,20.033-.625,1.466-2.532,2.456-4.856,2.519-2.277.032-4.259-.763-5.117-2.1a2.568,2.568,0,0,1-.155-2.577c4.106-8.321,12.388-16.248,23.951-22.924a1.133,1.133,0,1,1,1.134,1.962c-11.174,6.45-19.144,14.047-23.054,21.965a.3.3,0,0,0,.032.351,3.918,3.918,0,0,0,3.146,1.057c1.639-.045,2.644-.694,2.836-1.143,3.228-7.56,10.778-15.054,21.258-21.1,28.6-16.511,57.109-18.989,78.22-6.8,8.645,4.992,13.214,11.2,13.214,17.941,0,9.354-8.41,18.952-24.992,28.527-24.813,14.327-59.9,17.376-78.22,6.8-5.553-3.207-9.227-7.491-10.627-12.391-.17-.6-1.425-1.3-3.157-1.393a4.828,4.828,0,0,0-3.718,1.1c-.27.308-.229.511-.213.587,1.123,5.66,5.123,10.616,11.565,14.336,6.055,3.5,14.116,5.794,23.315,6.655a1.132,1.132,0,0,1-.1,2.26Z" transform="translate(-652.987 -251.12)" fill="#fff"/><path d="M686.239,309.12a6.225,6.225,0,0,1-4.52-1.669,2.68,2.68,0,0,1-.636-2.678,4.368,4.368,0,0,1,3.493-2.547,72.285,72.285,0,0,0,21.542-8.032c10.476-6.047,16.408-12.091,17.158-17.473a8.717,8.717,0,0,0-2.771-7.463,2.842,2.842,0,0,1-.826-2.685,4.229,4.229,0,0,1,2.943-2.769c2.756-.975,6.185-.39,7.813,1.328,3.094,3.269,4.509,6.881,4.209,10.737-.438,5.6-4.488,11.388-12.039,17.217a1.133,1.133,0,1,1-1.384-1.794c7.023-5.419,10.78-10.668,11.164-15.6.248-3.189-.962-6.219-3.6-9-.891-.942-3.394-1.46-5.41-.748-.983.347-1.419.837-1.492,1.149-.015.067-.063.272.246.589a10.869,10.869,0,0,1,3.39,9.354c-.862,6.187-7.008,12.621-18.271,19.125a74.678,74.678,0,0,1-22.221,8.291c-1.07.216-1.68.688-1.794,1.033-.02.058-.063.2.166.451a4.635,4.635,0,0,0,4,.8,85.255,85.255,0,0,0,24.434-9.24,1.133,1.133,0,1,1,1.134,1.962,87.526,87.526,0,0,1-25.09,9.495A7.911,7.911,0,0,1,686.239,309.12Z" transform="translate(-620.647 -243.297)" fill="#fff"/><path d="M691.228,315.816l-.267,0c-8.319-.259-15.5-2-20.757-5.037-5.943-3.431-9.085-8.235-9.085-13.9,0-8.591,7.526-18.066,20.128-25.342,19.968-11.528,39.919-15.233,56.178-10.433a4.535,4.535,0,0,1,3.319,2.769,2.84,2.84,0,0,1-.668,2.724v0c-1.471,1.686-4.787,2.357-7.556,1.525-11.616-3.485-26.282-1.02-41.294,6.939-.563.3-.768.615-.77.791,0,.209.252.49.649.72a5.425,5.425,0,0,0,4.649.06c14.931-7.892,28.842-9.331,38.164-3.95,3.756,2.169,5.742,5.007,5.742,8.211,0,5.264-5.171,10.918-15.364,16.8-13.973,8.065-32.393,10.562-41.062,5.555a8.931,8.931,0,0,1-4.744-6.368c-.522-3.439,1.087-7.3,4.653-11.159.2-.222.179-.347.17-.388-.052-.231-.393-.587-1.039-.854-1.738-.718-4.073-.289-4.848.546-3.933,4.259-5.783,8.677-5.212,12.442.459,3.028,2.4,5.551,5.777,7.5,3.414,1.971,8.1,3.176,13.564,3.489,2.894.164,4.981,1.6,5.072,3.5a2.9,2.9,0,0,1-.886,2.249A6.367,6.367,0,0,1,691.228,315.816Zm31.444-54.494c-12.5,0-26.37,4.14-40.292,12.177-11.895,6.866-19,15.608-19,23.379,0,4.807,2.749,8.934,7.951,11.936,4.938,2.851,11.75,4.487,19.7,4.733a4.3,4.3,0,0,0,3.09-.923.7.7,0,0,0,.244-.466c-.028-.58-1.158-1.335-2.941-1.436-5.811-.332-10.849-1.643-14.566-3.789-3.944-2.277-6.325-5.43-6.885-9.119-.677-4.459,1.378-9.546,5.788-14.321,1.507-1.63,4.886-2.139,7.379-1.1a3.667,3.667,0,0,1,2.385,2.46,2.653,2.653,0,0,1-.716,2.411c-3.04,3.291-4.49,6.586-4.08,9.281a6.679,6.679,0,0,0,3.636,4.746c8.043,4.643,25.449,2.15,38.8-5.555,9.175-5.3,14.23-10.568,14.23-14.842,0-2.381-1.55-4.483-4.61-6.249-8.632-4.983-21.743-3.53-35.97,3.991a7.642,7.642,0,0,1-6.84-.1,3.158,3.158,0,0,1-1.783-2.721,3.294,3.294,0,0,1,1.975-2.754c15.541-8.242,30.813-10.769,43.007-7.11,2.081.625,4.41.056,5.195-.841h0c.285-.326.224-.528.2-.6-.112-.384-.707-.912-1.783-1.229A49.7,49.7,0,0,0,722.673,261.322Zm16.546,4.531h0Z" transform="translate(-643.584 -248.242)" fill="#fff"/><path d="M682.663,292.415a13.591,13.591,0,0,1-6.706-1.432,5.066,5.066,0,0,1-2.775-4.515c0-4.052,4.364-8.99,11.675-13.212,11.862-6.849,22.226-8.72,28.436-5.137,2.667,1.54,3.271,3.47,3.308,4.82.088,3.306-2.991,7.019-9.154,11.036a7.548,7.548,0,0,1-7.2.127,3.2,3.2,0,0,1-1.781-2.611,3.013,3.013,0,0,1,1.55-2.59c4.947-3.211,4.942-4.537,4.942-4.537-1.38-.8-5.551-.119-13.1,4.242-5.238,3.023-7.4,5.615-7.4,6.331a1.13,1.13,0,0,1-1.126,1.139h-.009a1.132,1.132,0,0,1-1.132-1.126c-.024-3.125,6.523-7.148,8.529-8.306,5.184-2.993,12.039-6.176,15.265-4.306a2.3,2.3,0,0,1,1.234,1.958c.028,1.11-.559,2.993-5.973,6.506-.326.211-.524.453-.52.632,0,.155.177.433.651.707a5.32,5.32,0,0,0,4.832-.063c7.157-4.666,8.162-7.69,8.125-9.078-.03-1.121-.761-2.1-2.176-2.918-2.6-1.5-10.344-4-26.168,5.136-6.4,3.7-10.543,8.114-10.543,11.25a2.842,2.842,0,0,0,1.643,2.553c2.754,1.587,8.162,1.5,14.469-.239a1.133,1.133,0,1,1,.6,2.184A36.544,36.544,0,0,1,682.663,292.415Z" transform="translate(-629.634 -239.824)" fill="#fff"/></g><path d="M685.271,270.367a.723.723,0,0,1-.36-.1l-29.853-17.234a.72.72,0,0,1,.72-1.246l29.853,17.234a.72.72,0,0,1-.36,1.343Z" transform="translate(155.854 199.71)" fill="#fff"/></g></svg>